<?xml version="1.0" standalone="no"?>
<!DOCTYPE svg PUBLIC "-//W3C//DTD SVG 1.1//EN" "http://www.w3.org/Graphics/SVG/1.1/DTD/svg11.dtd" >
<svg xmlns="http://www.w3.org/2000/svg" xmlns:xlink="http://www.w3.org/1999/xlink" version="1.1">
<metadata></metadata>
<defs>
<font id="myfridaitalic" horiz-adv-x="980" >
<font-face units-per-em="2048" ascent="1638" descent="-410" />
<missing-glyph horiz-adv-x="508" />
<glyph unicode="&#xd;" horiz-adv-x="508" />
<glyph horiz-adv-x="0" />
<glyph horiz-adv-x="0" />
<glyph unicode=" "  horiz-adv-x="508" />
<glyph unicode="&#x09;" horiz-adv-x="508" />
<glyph unicode="&#xa0;" horiz-adv-x="508" />
<glyph unicode="!" horiz-adv-x="556" d="M141 91q0 20 4 41q16 76 74 115.5t125 39.5q48 0 76 -24t38 -61q5 -18 5 -37t-5 -39q-15 -74 -70 -120t-126 -46q-68 0 -100 51q-21 36 -21 80zM300 403q0 25 4 58l60 525l16 107q9 60 21 119q10 47 28 92.5t51.5 76t88.5 30.5q63 0 84 -33q20 -30 20 -75v-8 q-2 -51 -13 -102q-12 -54 -30 -124t-31 -115l-132 -447q-2 -8 -4 -17q-8 -30 -20.5 -62.5t-33 -56.5t-53.5 -24q-32 0 -44 15t-12 41z" />
<glyph unicode="&#x22;" horiz-adv-x="729" d="M328 832v13l23 347q3 36 10 70q6 29 21.5 63t46 60t82.5 26q64 0 85 -27q19 -26 19 -59v-6q-3 -38 -9 -68q-7 -32 -18.5 -73.5t-20.5 -67.5l-91 -264q-48 -126 -99 -126q-49 0 -49 112zM644 828v17l22 347q4 35 11 70q6 28 21 62.5t46 60.5t83 26q64 0 85 -28 q18 -24 18 -55v-9q-2 -38 -8 -68q-7 -32 -19 -73.5t-21 -67.5l-90 -265q-48 -125 -99 -125q-49 0 -49 108z" />
<glyph unicode="#" horiz-adv-x="1143" d="M134 518q0 7 1 13q7 35 47 63t111 30h86l60 138h-127q-61 0 -89 23q-22 18 -22 41q0 5 1 10q7 29 43 51t103 25l159 5l146 333q25 54 67.5 80.5t80.5 26.5q43 0 63 -33q8 -14 8 -32q0 -10 -2 -22q-4 -20 -15 -44l-148 -302l219 8l163 309q11 24 25.5 46t35.5 37.5 t48 15.5q30 0 43 -27q4 -10 4 -24q0 -10 -2 -21q-4 -17 -13 -38l-130 -292l61 2q80 0 114 -25q28 -22 28 -49q0 -6 -1 -12q-8 -34 -51.5 -63t-116.5 -29h-113l-63 -141h58q68 -1 98 -23q25 -19 25 -41q0 -4 -1 -8q-6 -28 -42.5 -51.5t-102.5 -27.5l-105 -4l-128 -285 q-37 -76 -86.5 -114t-91.5 -38q-50 0 -61 54q-2 10 -2 23q0 15 3 32q10 44 42 106l113 215l-202 -7l-137 -280q-35 -67 -70 -97.5t-62 -30.5q-30 0 -37 39q-2 10 -2 21q0 13 3 29q6 26 20 58l111 256l-46 -2q-67 0 -97 26q-24 21 -24 47zM559 623l204 -1l74 140h-210z" />
<glyph unicode="$" horiz-adv-x="961" d="M154 167q0 14 3 29q11 54 43.5 80t68.5 26q33 0 55 -14t39 -40q12 -22 23 -48q12 -40 37 -71.5t82 -35.5q47 0 88.5 14t71 45.5t40.5 81.5q3 14 3 27q0 28 -13 52q-19 34 -56 64.5t-84 61.5q-51 35 -103.5 78t-92.5 101t-56 138q-6 32 -6 68q0 55 14 122q22 101 74.5 200 t138 169t207.5 89l-1 175q1 17 4 31q10 48 41 75q41 36 85 36q41 0 68 -27q20 -20 20 -53q0 -15 -4 -32q-4 -19 -13 -41l-66 -166q131 -24 177 -115q37 -72 37 -175q0 -29 -3 -60q-1 -24 -7 -49q-6 -31 -21.5 -59.5t-42.5 -46.5t-70 -18t-62 16t-21 44q-1 8 -1 17q0 18 4 38 l2 7q7 34 19 71q11 37 18 71q5 23 5 44l-1 14q-3 28 -26 46.5t-75 21.5q-63 0 -108 -24t-76 -63t-49 -84.5t-28 -88.5q-10 -49 -10 -89q0 -29 5 -53q12 -60 44 -104.5t76 -79t91 -65.5q59 -38 109.5 -81.5t75.5 -102.5q14 -34 14 -78q0 -33 -8 -71q-30 -140 -131.5 -226 t-241.5 -109l-3 -144q-1 -22 -5 -41q-12 -57 -51.5 -84.5t-80.5 -27.5q-44 0 -69 36q-13 18 -13 45q0 14 3 30q4 14 9 31l67 153q-76 12 -139 49t-98 90q-26 39 -26 80z" />
<glyph unicode="%" horiz-adv-x="1189" d="M268 126q0 7 2 15q7 30 33 70l756 1083q37 54 78.5 84t102.5 30q30 0 48 -18q12 -13 12 -36q0 -10 -2 -22q-8 -39 -54 -101l-822 -1069q-35 -44 -65.5 -63.5t-52.5 -19.5q-32 0 -35 37q-1 5 -1 10zM302 1058q0 30 6 60q15 70 54 137t99 110t137 43q76 0 129 -26.5 t75 -82.5q11 -29 11 -68q0 -35 -9 -78q-21 -98 -67.5 -159.5t-112.5 -90t-145 -28.5q-73 0 -115 35.5t-56 90.5q-6 28 -6 57zM409 1086q0 -16 3 -33q5 -39 25.5 -67.5t59.5 -28.5q49 0 92.5 57.5t60.5 136.5q8 38 8 72v13q-2 41 -20.5 66t-56.5 25q-52 0 -85 -29.5 t-52.5 -75t-29.5 -94.5q-5 -20 -5 -42zM672 235q0 30 7 62q22 99 73.5 165.5t117.5 100t129 33.5q59 0 106.5 -31t68.5 -94q11 -32 11 -72q0 -38 -10 -84q-14 -67 -53 -129.5t-100 -103t-139 -40.5q-90 0 -139 36.5t-64 94.5q-8 30 -8 62zM812 249q0 -16 2 -32 q6 -39 26.5 -67t59.5 -28q54 0 91 26t59 69.5t33 94.5q6 28 6 53q0 44 -20 74q-31 48 -80 48q-33 0 -67.5 -20t-62.5 -63.5t-43 -113.5q-4 -20 -4 -41z" />
<glyph unicode="&#x26;" horiz-adv-x="1273" d="M135 213q0 39 9 84q30 127 105.5 215.5t170.5 157.5q-36 88 -48 177q-5 36 -5 71q0 52 11 103q22 102 69 176t109.5 121.5t133.5 70.5t140 23q66 0 117 -30.5t74 -88.5q13 -33 13 -73q0 -31 -8 -67q-20 -96 -70 -167.5t-116.5 -130.5t-138.5 -113l-72 -56 q85 -137 216 -224q49 108 83 265q11 53 48.5 79.5t77.5 26.5q41 0 67 -27q18 -20 18 -52q0 -14 -3 -30q-19 -89 -58 -174.5t-94 -163.5q87 -36 165 -44q84 -10 116 -46q25 -28 25 -60q0 -10 -2 -19q-11 -50 -73 -86q-49 -29 -118 -29q-21 0 -44 3q-115 18 -233 92 q-108 -98 -222 -155.5t-214 -57.5q-126 0 -198 80q-51 56 -51 149zM361 253q0 -25 6 -43q12 -39 43.5 -54.5t74.5 -15.5q52 0 114.5 29t124.5 97q-143 118 -242 281q-39 -47 -68.5 -103t-44.5 -124q-8 -38 -8 -67zM555 947q0 -16 1 -33q5 -67 26 -127q60 44 112.5 93.5 t90.5 108t54 133.5q9 41 9 72q0 35 -12 58q-21 42 -62 42q-36 0 -78 -28.5t-77.5 -82.5t-52.5 -131q-11 -54 -11 -105z" />
<glyph unicode="'" horiz-adv-x="461" d="M334 832v13l23 347q3 36 10 70q6 29 21.5 63t46 60t82.5 26q64 0 85 -27q19 -26 19 -59v-6q-3 -38 -9 -68q-7 -32 -18.5 -73.5t-20.5 -67.5l-91 -264q-48 -126 -99 -126q-49 0 -49 112z" />
<glyph unicode="(" horiz-adv-x="688" d="M214 489q0 99 24 212q32 153 99 282.5t151.5 230.5t173 171.5t167.5 107.5t131 37q66 -4 66 -34q0 -3 -1 -7q-5 -26 -26.5 -43t-73.5 -44q-48 -25 -110.5 -79.5t-127 -140.5t-120.5 -205.5t-89 -275.5q-29 -135 -29 -243q0 -16 1 -32q5 -120 33 -206t67 -140.5t77 -79.5 q41 -27 55 -44q10 -12 10 -29q0 -7 -2 -15q-9 -40 -82 -40q-53 0 -116 37t-121.5 107.5t-100 171.5t-53.5 230q-3 34 -3 71z" />
<glyph unicode=")" horiz-adv-x="731" d="M-27 -96q0 4 1 8q5 27 26.5 44t73.5 44q48 25 110.5 79.5t127 140.5t120.5 205.5t89 275.5q29 135 29 243q0 16 -1 32q-5 120 -33 206t-67 140.5t-77 79.5q-41 27 -55 44q-10 12 -10 28q0 7 2 15q8 37 82 41q53 0 116 -37t121.5 -107.5t100 -171.5t53.5 -231q3 -34 3 -71 q0 -99 -24 -211q-32 -154 -99 -283t-151.5 -230t-173 -171.5t-167.5 -107.5t-131 -37q-66 0 -66 32z" />
<glyph unicode="*" horiz-adv-x="877" d="M261 1061q0 8 2 16q7 30 35 57t75 27q4 0 47 -2l164 -11l-112 128q-21 29 -21 56q0 7 1 14q6 30 33.5 52.5t59.5 22.5q21 0 40.5 -14t31.5 -45l65 -175l134 186q23 31 47.5 45t45.5 14q30 0 47 -21q12 -15 12 -36q0 -9 -2 -19q-6 -31 -45 -66l-157 -140l189 27q15 2 28 2 q47 0 67 -21q15 -17 15 -37q0 -5 -1 -11q-6 -28 -36.5 -52.5t-79.5 -24.5q-10 0 -22 1l-188 22l122 -142q14 -17 18 -35q2 -9 2 -18q0 -8 -2 -17q-6 -31 -35 -53.5t-60 -22.5q-20 0 -37.5 11.5t-28.5 39.5l-72 189l-132 -190q-22 -31 -45 -45t-44 -14q-33 0 -54 23 q-15 18 -15 40q0 8 2 17q6 32 37 56l189 157l-233 -51q-11 -2 -21 -2q-38 0 -54 24q-12 17 -12 38z" />
<glyph unicode="+" horiz-adv-x="772" d="M109 674q0 7 2 15q8 34 42 62.5t91 29.5l209 -1l43 209q13 57 47.5 85t68.5 28t54 -29q13 -18 13 -46q0 -17 -5 -38l-53 -209l217 -1q55 -2 79 -23q19 -18 19 -38q0 -6 -1 -11q-6 -29 -37 -52.5t-85 -26.5l-233 -10l-59 -231q-14 -53 -43 -79t-58 -26q-27 0 -43 29 q-9 17 -9 44q0 18 4 40l45 217l-211 -9q-55 0 -78 26q-19 20 -19 45z" />
<glyph unicode="," horiz-adv-x="403" d="M-158 -424q0 8 2 16q4 18 14.5 33t26.5 32q68 68 112.5 142.5t63.5 160.5q4 22 4 41v7q-1 21 -4 42q-3 20 -4 40q-1 6 -1 12q0 14 4 30q16 76 73.5 115.5t128.5 39.5q46 0 71 -19.5t35 -46.5t10.5 -53t-2.5 -42q-21 -98 -89 -205.5t-155 -205.5t-168 -169 q-27 -25 -57 -25t-50 20q-15 14 -15 35z" />
<glyph unicode="-" horiz-adv-x="857" d="M153 673q0 8 2 16q7 34 40.5 62.5t91.5 29.5l594 -2q55 -2 79 -23q19 -18 19 -38q0 -6 -1 -11q-6 -29 -37 -52.5t-85 -26.5l-607 -25q-55 0 -78 26q-18 20 -18 44z" />
<glyph unicode="." horiz-adv-x="334" d="M25 91q0 20 4 41q16 76 74 115.5t125 39.5q48 0 76 -24t38 -61q5 -18 5 -37t-5 -39q-15 -74 -70 -120t-126 -46q-68 0 -100 51q-21 36 -21 80z" />
<glyph unicode="/" horiz-adv-x="622" d="M40 29q0 10 3 22q3 17 11 36l578 1245q29 59 79 86t95 27q39 0 62 -24q16 -17 16 -44q0 -11 -3 -25q-5 -23 -19 -50l-666 -1247q-25 -44 -52 -64.5t-52 -20.5q-32 0 -46 32q-6 12 -6 27z" />
<glyph unicode="0" horiz-adv-x="1147" d="M250 439q0 120 30 270q55 251 156 413.5t223.5 241.5t236.5 79q120 0 208 -87.5t107 -257.5q6 -47 6 -100q0 -139 -38 -317q-63 -241 -164 -398.5t-216.5 -234t-224.5 -76.5q-113 0 -198 84t-115 249q-11 62 -11 134zM488 411q0 -28 2 -52q8 -116 44.5 -169.5t90.5 -53.5 q100 0 221 151.5t186 401.5q31 161 31 284v21q-3 130 -51 201.5t-117 71.5q-64 0 -135 -61.5t-136.5 -195t-111.5 -349.5q-24 -147 -24 -250z" />
<glyph unicode="1" horiz-adv-x="843" d="M254 1053q0 12 3 25q11 50 45 82t92 58l391 186q61 28 94 28q31 0 39 -28q4 -14 4 -33q0 -21 -5 -49l-202 -1201q-16 -74 -63.5 -112.5t-99.5 -38.5t-87 35q-24 24 -24 66q0 20 6 44l295 1120l-294 -185q-89 -54 -137 -54q-38 0 -50 24q-7 15 -7 33z" />
<glyph unicode="2" horiz-adv-x="1013" d="M173 34q0 10 3 23q10 44 43.5 89t83 92.5t108.5 98.5q63 56 129.5 119.5t126.5 136t105.5 157t67.5 184.5q14 66 19 132q2 27 2 52q0 36 -4 67q-8 53 -32.5 85.5t-70.5 32.5q-73 0 -113 -41t-64 -121t-49 -195q-11 -55 -49 -95.5t-97 -40.5q-30 0 -54 15.5t-35 46.5 q-6 17 -6 38q0 19 5 41q30 140 96.5 250.5t170.5 174.5t247 64q116 0 190 -64t100 -172q13 -52 13 -110q0 -63 -15 -132q-26 -121 -99 -238t-171.5 -222t-205.5 -191.5t-205 -148.5l371 43q43 7 88 7q29 0 53.5 -10.5t35.5 -35.5q6 -13 6 -32q0 -16 -4 -35q-10 -44 -35 -72 t-59.5 -41t-70.5 -13q-47 0 -95 1l-468 19q-41 1 -54 15q-8 9 -8 26z" />
<glyph unicode="3" horiz-adv-x="917" d="M145 196q0 15 3 30q11 53 43.5 79t68.5 26q33 0 55 -13.5t38 -39.5q13 -23 23 -52q13 -41 37 -74.5t80 -37.5q66 0 110.5 40.5t61.5 120.5q7 32 7 62q0 57 -25 108q-39 79 -111 141q-40 37 -47 64q-4 16 -4 30q0 10 2 19q6 28 28 55.5t84 67.5q91 59 143 132.5t74 176.5 q6 30 6 58q0 12 -1 23q-5 36 -28 57.5t-69 21.5q-63 0 -101.5 -36t-59.5 -89.5t-32 -105.5q-12 -59 -48.5 -88t-73.5 -29q-40 0 -68 31q-19 20 -19 55q0 17 4 36q36 169 161 268t290 99q82 0 149 -29.5t99 -92.5q19 -37 19 -88q0 -34 -8 -73q-25 -117 -112.5 -218 t-215.5 -178q56 -43 105 -109.5t74 -149.5q14 -47 14 -95q0 -36 -8 -74q-26 -124 -92 -201.5t-155 -114t-183 -36.5q-84 0 -161.5 36.5t-122.5 94.5q-34 43 -34 92z" />
<glyph unicode="4" horiz-adv-x="1005" d="M233 486q0 30 8 70q5 25 14 53l170 597q14 49 39.5 95.5t61 78t79.5 31.5q56 0 72 -29q10 -22 10 -49q0 -19 -5 -41q-7 -34 -21 -68l-246 -631l296 -9l191 720q8 31 18.5 55t28.5 38t49 14q34 0 44 -25q8 -19 8 -44q0 -7 -1 -15q-2 -34 -8 -62l-118 -688l80 -3 q39 -2 52 -19q9 -13 9 -29q0 -5 -1 -11q-5 -23 -24 -40t-62 -22l-77 -8l-6 -40q-5 -25 -10 -60q-14 -93 -29 -165q-10 -48 -28 -95.5t-52.5 -78.5t-94.5 -31q-53 0 -73 29q-19 28 -19 67v4q1 43 11 87q12 55 28 112l28 100l12 47l-246 -26q-51 -6 -103 -7q-85 0 -85 98z" />
<glyph unicode="5" d="M164 242q0 24 2 50q1 23 6 47q7 30 21.5 57t41.5 44t71 17q43 0 62 -15.5t21 -41.5l1 -13q0 -21 -5 -46q-16 -73 -19 -129q-1 -8 -1 -15q0 -45 22 -73q26 -32 100 -32q63 0 112.5 48.5t83.5 124.5t51 158q18 82 18 140q0 18 -2 33q-7 67 -37.5 97t-76.5 30 q-57 0 -129 -33q-53 -25 -93 -25q-49 0 -75 32q-16 20 -16 53q0 19 5 42q4 23 22 64l114 269q30 77 73.5 140.5t119.5 70.5q210 11 372 11q36 0 65 -12.5t42 -40.5q8 -16 8 -38q0 -16 -4 -34q-9 -43 -30.5 -67.5t-50 -35t-58.5 -10.5q-58 0 -110 11l-240 43l-123 -328 q103 32 181 32q113 0 174.5 -62t75.5 -166q5 -36 5 -75q0 -73 -17 -155q-19 -86 -58.5 -166.5t-101.5 -144t-146.5 -101.5t-191.5 -38q-171 6 -234 95q-51 73 -51 188z" />
<glyph unicode="6" horiz-adv-x="962" d="M211 287q0 100 24 212q33 155 106 315t162.5 293.5t178.5 216.5t154 83q37 0 52 -28q9 -17 9 -39q0 -15 -4 -33q-12 -59 -58 -124.5t-109 -143.5t-130 -171.5t-123 -206t-85 -249.5q-8 -36 -8 -73q0 -26 4 -53q18 78 51 158t84 148.5t122 111t165 42.5q91 0 142.5 -55 t64.5 -142q6 -36 6 -73q0 -54 -12 -110q-23 -107 -84 -199.5t-157.5 -149.5t-225.5 -57q-122 0 -193.5 43t-103.5 118q-31 72 -32 166zM473 213q0 -44 12 -72q24 -59 75 -59q42 0 92 38t93 111t67 179q12 59 12 101q0 39 -10 65q-21 53 -67 53q-44 0 -97 -38t-98.5 -108 t-65.5 -164q-13 -61 -13 -106z" />
<glyph unicode="7" horiz-adv-x="811" d="M134 -26q0 14 3 30q11 50 44 98l668 1050l-249 -28q-42 -5 -98 -10.5t-94 -5.5q-52 0 -79 28q-20 20 -20 52q0 14 4 30q11 53 35 81t56.5 38.5t69.5 10.5q49 0 100 -11q9 -2 17 -3l249 -39q97 -15 130 -42q25 -20 25 -53q0 -10 -2 -21q-6 -26 -22 -60t-39 -77l-508 -974 q-26 -51 -54.5 -88t-66.5 -57.5t-91 -20.5q-42 0 -64 26q-14 17 -14 46z" />
<glyph unicode="8" horiz-adv-x="986" d="M175 238q0 40 10 86q18 85 76.5 166t134 146.5t148.5 107.5q-66 40 -99.5 98.5t-40.5 124.5q-3 26 -3 50q0 41 8 79q29 133 137.5 224t246.5 91q92 0 165 -30.5t107 -99.5q19 -40 19 -96q0 -40 -10 -89q-21 -95 -101.5 -204t-183.5 -173q49 -45 89 -107.5t59 -136.5 q10 -40 10 -81q0 -35 -7 -70q-25 -117 -97 -194.5t-166 -116t-191 -38.5q-96 0 -173 39t-115 116q-23 47 -23 108zM382 233q0 -26 9 -47q16 -36 49.5 -54t73.5 -18q62 0 105 30.5t69.5 80t38.5 107.5q10 45 10 90q0 34 -6 67q-13 77 -62 128q-97 -54 -179 -148.5 t-103 -194.5q-5 -22 -5 -41zM585 1019q0 -38 8 -71q17 -70 75 -126q82 56 129.5 126.5t67.5 166.5q7 30 7 55q0 38 -17 63q-27 39 -91 39t-108 -39.5t-60 -117.5q-11 -52 -11 -96z" />
<glyph unicode="9" horiz-adv-x="996" d="M278 836q0 52 12 109q18 84 73.5 177t153 157t241.5 69q154 0 227.5 -71t82.5 -204q2 -27 2 -55q0 -115 -32 -264q-43 -204 -167.5 -435t-255.5 -353q-34 -29 -77.5 -48t-77.5 -19q-28 0 -44 15q-11 10 -11 30q0 8 2 19q15 68 59.5 139.5t104.5 153.5q84 114 169.5 261.5 t137.5 345.5q-41 -82 -97 -143.5t-128.5 -95.5t-164.5 -34q-88 0 -138.5 48.5t-65.5 128.5q-6 33 -6 69zM451 828q0 -41 14 -69q24 -51 78 -51q74 0 144.5 58.5t122.5 144.5t70 169q4 20 4 36q0 41 -24 64q-35 33 -96 33q-62 0 -113 -29.5t-90 -76.5t-65 -102t-37 -107 q-8 -38 -8 -70z" />
<glyph unicode=":" horiz-adv-x="482" d="M118 91q0 20 4 41q16 76 74 115.5t125 39.5q48 0 76 -24t38 -61q5 -18 5 -37t-5 -39q-15 -74 -70 -120t-126 -46q-68 0 -100 51q-21 36 -21 80zM303 962q0 20 5 42q16 76 73.5 115.5t125.5 39.5q47 0 75.5 -24t37.5 -61q5 -20 5 -40q0 -18 -4 -36q-16 -74 -71 -120.5 t-126 -46.5q-68 0 -99 52q-22 35 -22 79z" />
<glyph unicode=";" horiz-adv-x="526" d="M-86 -424q0 8 2 16q4 18 14.5 33t26.5 32q68 68 112.5 142.5t63.5 160.5q4 22 4 41v7q-1 21 -4 42q-3 20 -4 40q-1 6 -1 12q0 14 4 30q16 76 73.5 115.5t128.5 39.5q46 0 71 -19.5t35 -46.5t10.5 -53t-2.5 -42q-21 -98 -89 -205.5t-155 -205.5t-168 -169q-27 -25 -57 -25 t-50 20q-15 14 -15 35zM315 962q0 20 5 42q16 76 73.5 115.5t125.5 39.5q47 0 75.5 -24t37.5 -61q5 -20 5 -40q0 -18 -4 -36q-16 -74 -71 -120.5t-126 -46.5q-68 0 -99 52q-22 35 -22 79z" />
<glyph unicode="&#x3c;" horiz-adv-x="913" d="M133 681q0 10 2 20q15 69 110 102l629 236q18 6 47.5 15t46.5 10q35 0 53 -25q12 -15 12 -41q0 -14 -4 -32q-11 -49 -50 -79t-102 -48l-456 -133l425 -215q30 -16 40 -38q7 -16 7 -31q0 -7 -1 -13q-8 -35 -46 -56q-18 -9 -40 -10q-23 0 -50 11l-556 249q-67 25 -67 78z " />
<glyph unicode="=" horiz-adv-x="913" d="M145 536q0 7 2 15q8 35 41.5 63t91.5 30l594 -3q55 -1 79 -23q19 -18 19 -38q0 -6 -1 -11q-6 -28 -37 -51.5t-85 -27.5l-607 -25q-55 0 -78 26q-19 20 -19 45zM204 803q0 6 1 13q7 29 35 51t79 25l609 28q59 0 83 -26q19 -19 19 -45q0 -7 -2 -15q-8 -34 -41.5 -63 t-88.5 -29h-614q-46 0 -65 23q-15 17 -15 38z" />
<glyph unicode="&#x3e;" horiz-adv-x="930" d="M168 396q0 6 1 13q5 22 24.5 44t56.5 38l516 215l-399 133q-56 18 -82 48q-19 22 -19 53q0 12 3 26q11 49 39.5 73.5t62.5 24.5q17 -1 43 -10t41 -15l528 -236q69 -28 69 -82q0 -9 -2 -20q-14 -68 -107 -98l-662 -249q-31 -11 -54 -11q-22 1 -36 10q-23 17 -23 43z" />
<glyph unicode="?" horiz-adv-x="938" d="M278 910q0 19 5 41q29 140 95.5 250.5t171 174.5t246.5 64q116 0 193.5 -48.5t106.5 -140.5q15 -47 15 -105q0 -56 -14 -121q-19 -89 -68.5 -159.5t-112 -127.5t-123.5 -105q-65 -51 -112 -96t-57 -90q-5 -25 -15.5 -48t-29 -37.5t-48.5 -14.5q-41 0 -53 24q-8 15 -8 34 q0 12 3 25q14 63 58.5 119.5t100.5 114.5q44 46 87 96.5t76 108t48 127.5q18 84 18 151v7q-1 69 -28.5 109t-88.5 40q-72 0 -112 -41t-64.5 -121t-48.5 -195q-12 -55 -50 -95.5t-97 -40.5q-29 0 -53 15.5t-35 46.5q-6 17 -6 38zM321 90q0 20 5 42q16 76 74 115.5t125 39.5 q48 0 76 -24t37 -61q5 -20 5 -40q0 -18 -4 -36q-16 -74 -71 -120t-125 -46q-69 0 -100 51q-22 35 -22 79z" />
<glyph unicode="@" horiz-adv-x="2032" d="M152 218q0 111 24 240q44 199 162 375.5t289.5 313t370 215t392.5 78.5q148 0 279.5 -37t231 -117.5t155.5 -209.5q41 -101 47 -215q1 -19 1 -38q0 -96 -21 -194q-45 -213 -168.5 -369.5t-301 -242t-384.5 -85.5q-64 0 -79 35q-9 19 -9 45q0 24 7 53l9 42 q-48 -33 -111 -55t-125 -22q-53 0 -93 25t-58 70q-10 27 -10 58q0 23 5 49q23 107 109 171t199 64q39 0 79 -11t68 -30q3 16 9 44q11 49 22.5 116t15.5 132q1 16 1 30q0 46 -10 80q-13 45 -54 45q-46 0 -77.5 -29t-52 -78.5t-33.5 -111.5q-8 -39 -34.5 -66.5t-67.5 -27.5 q-31 0 -52 24q-14 16 -14 43q0 14 4 31q33 156 133.5 236t236.5 80q103 0 149.5 -67.5t51.5 -188.5q1 -20 1 -41q0 -106 -21 -242q-25 -163 -65 -353q226 29 377.5 177.5t198.5 369.5q18 81 18 162q0 15 -1 30q-4 95 -38 179q-46 107 -130.5 172.5t-194.5 94.5t-233 29 q-174 0 -339.5 -66t-304.5 -181.5t-235.5 -267t-134.5 -325.5q-19 -98 -19 -182q0 -137 51 -239q83 -163 266 -240.5t424 -77.5q149 0 304.5 25t306.5 84q65 26 106 26q40 0 56 -21q11 -15 11 -36q0 -9 -2 -19q-9 -38 -45.5 -75.5t-102.5 -64.5q-168 -66 -339.5 -94.5 t-337.5 -28.5q-312 0 -524 104.5t-298 315.5q-51 124 -51 285zM935 198q0 -19 8 -35q12 -24 39 -24q49 0 90.5 18t70 38t39.5 30q10 51 19 97q-13 12 -42.5 26t-79.5 14q-59 0 -94 -42t-48 -100q-2 -12 -2 -22z" />
<glyph unicode="A" horiz-adv-x="925" d="M0 25q0 15 4 33q8 37 27 79.5t38 79.5l4 10l526 1071q24 48 54.5 73t65 33t70.5 8q53 0 80.5 -23t38.5 -59.5t12 -79.5v-21q0 -31 -2 -62l-47 -1045q-1 -5 -1 -11q0 -18 -1.5 -37.5t-3.5 -28.5q-7 -34 -27.5 -52t-56.5 -18q-41 0 -53.5 21t-12.5 51l-8 319l-349 -57 l-81 -205q-16 -44 -39 -81t-59.5 -59.5t-93.5 -22.5q-48 0 -70 32q-15 21 -15 52zM413 449l290 77l-15 618z" />
<glyph unicode="B" horiz-adv-x="1018" d="M199 151q0 20 3 43l102 766q21 173 28 209q14 64 55 107.5t99 71.5t123 43.5t128 21t112 5.5q81 0 153 -19.5t122.5 -63.5t70.5 -116q10 -34 10 -75q0 -45 -12 -99q-30 -140 -154 -272t-330 -251q75 -39 114 -102q26 -42 26 -97q0 -28 -7 -60q-21 -96 -90 -162 t-160.5 -99.5t-178.5 -33.5q-110 0 -167 55q-47 44 -47 128zM370 214q0 -34 20 -51q27 -23 82 -23q90 0 150 42.5t71 95.5q2 9 2 17q0 32 -26 63q-33 38 -119 59q-17 4 -39.5 14t-37.5 32q-10 14 -10 35q0 11 3 25q9 45 41.5 69.5t79.5 46.5q87 45 179 113.5t163.5 152 t89.5 171.5q6 30 6 56q0 33 -11 58q-20 42 -66 61t-107 19q-51 0 -100.5 -11t-87 -41.5t-50.5 -91.5l-230 -884q-3 -15 -3 -28z" />
<glyph unicode="C" horiz-adv-x="1019" d="M152 366v16q0 108 24 224q20 95 60.5 202t101 209t140.5 185.5t178.5 133.5t216.5 50q80 0 131.5 -32t81.5 -86q38 -64 45 -180q3 -39 3 -73q0 -69 -11 -121q-10 -47 -34.5 -78.5t-55 -47t-60.5 -15.5q-59 0 -80 40q-13 26 -13 59q0 17 4 37q10 46 27 110q19 72 33 135 q4 21 4 40q0 28 -10 50q-17 37 -57 37q-88 0 -160 -59t-129 -154.5t-98 -211t-66 -230.5q-18 -86 -20 -173v-15q0 -78 19 -144q21 -72 70.5 -115.5t134.5 -43.5q43 0 75.5 13t59 32t49.5 40q28 24 54.5 41.5t57.5 17.5t48 -22q12 -15 12 -35q0 -8 -2 -17q-13 -61 -80 -110 t-163 -77.5t-195 -28.5q-140 0 -225.5 52t-126.5 141t-44 204z" />
<glyph unicode="D" horiz-adv-x="1194" d="M172 133q0 32 7 71l152 952q8 51 12 67q12 60 61 98t116.5 59.5t138 30t127.5 8.5q199 0 329.5 -72.5t180.5 -212.5q27 -76 27 -169q0 -78 -19 -169q-41 -192 -166 -372q-82 -122 -194.5 -225t-245 -167.5t-271.5 -64.5q-45 0 -100.5 8.5t-98.5 33.5q-11 6 -20 14 q-36 38 -36 110zM361 242q0 -25 10 -36q18 -20 98 -20q113 0 216 59t186.5 154t141.5 209.5t82 224.5q17 82 17 158v8q0 78 -34 139t-111.5 96.5t-212.5 35.5q-65 0 -103.5 -19.5t-52.5 -72.5l-210 -804l-6 -24q-9 -33 -16 -66q-5 -25 -5 -42z" />
<glyph unicode="E" horiz-adv-x="890" d="M189 118q0 37 9 92l132 925q8 64 12 81q9 45 36 72.5t65.5 42t84.5 17.5l457 41q22 1 43 1q41 0 73 -12t47 -39q9 -16 9 -40q0 -13 -3 -30q-14 -64 -51.5 -93t-105.5 -29q-23 0 -56 5l-339 39l-150 -607l198 40q40 6 71 6q39 0 65 -26q19 -19 19 -47q0 -9 -2 -20 q-8 -39 -46.5 -72.5t-111.5 -36.5l-232 -2l-65 -268l353 65q45 8 88 8q39 0 57 -27q12 -18 12 -44q0 -15 -4 -32q-14 -67 -60.5 -99.5t-113.5 -32.5l-355 18q-94 0 -121 36q-15 20 -15 68z" />
<glyph unicode="F" horiz-adv-x="931" d="M170 41q0 5 1 11l148 1027q12 89 18 114q14 69 51.5 104.5t93 51t125.5 20.5l393 33q18 1 28 1q60 0 97 -31q28 -24 28 -62q0 -11 -3 -24q-14 -63 -54.5 -102t-107.5 -39q-35 0 -72 7l-313 55l-151 -616l235 23q42 3 82 3q31 0 71 -7t66 -29q19 -16 19 -43q0 -10 -2 -21 q-9 -44 -42.5 -65.5t-73.5 -29.5q-35 -6 -66 -6q-26 0 -53 2l-274 18l-94 -380q-6 -28 -30 -50q-28 -23 -59 -23q-29 0 -47 20q-14 16 -14 38z" />
<glyph unicode="G" horiz-adv-x="1078" d="M153 366v23q0 105 24 217q31 147 98 291t163.5 261t216.5 188t256 71q100 0 158 -46.5t83.5 -120t25.5 -159.5t-17 -166q-10 -47 -35 -78.5t-57 -47t-62 -15.5q-46 0 -66.5 22.5t-22.5 59.5q-1 9 -1 18q0 30 8 64q11 54 26 108q14 52 24 99q5 25 5 49q0 22 -4 42 q-9 43 -57 46q-88 0 -163.5 -59.5t-137 -158.5t-107 -221t-71.5 -247q-20 -92 -21 -180v-7q0 -84 24 -152q25 -70 81 -112t150 -42q60 0 93.5 32.5t46.5 91.5l21 104q2 8 2 14q0 7 -3 12q-6 9 -28 12l-129 18q-44 6 -66 32q-15 17 -15 45q0 14 4 31q7 36 38.5 64.5 t80.5 28.5q34 0 75 -16l110 -44q85 -34 119 -64q24 -22 24 -59q0 -13 -3 -28q-5 -24 -17 -53l-32 -83q-37 -90 -90.5 -146t-115.5 -85.5t-124.5 -40t-116.5 -10.5q-139 0 -225 52t-127 141t-43 204z" />
<glyph unicode="H" horiz-adv-x="1152" d="M178 29v9q1 32 6 61l160 1127q3 18 7 36q9 45 28 85t51.5 65t82.5 25q54 0 79.5 -24t29.5 -64q1 -11 1 -23q0 -29 -7 -63q-13 -60 -28 -119l-143 -603l482 59l197 704q6 25 18.5 52t32.5 47t50 20q32 0 45 -17t14 -41v-8q0 -21 -4 -43l-207 -1141q-3 -18 -7 -37 q-11 -49 -29.5 -91.5t-51.5 -68.5t-87 -26q-56 0 -81.5 21t-29.5 60q-1 9 -1 18q0 32 8 72q5 23 12 47l66 236l-463 -16l-77 -325q-5 -25 -16 -49t-30.5 -40.5t-51.5 -16.5q-35 0 -46 24q-10 21 -10 48z" />
<glyph unicode="I" horiz-adv-x="460" d="M159 27v8q0 21 4 47l146 929l15 101q7 56 19 112q9 44 26.5 86.5t50.5 71.5t89 29q62 0 85 -31q20 -28 20 -71v-8q-2 -47 -12 -95q-15 -72 -42 -166q-9 -35 -16 -59l-219 -860q-8 -29 -19.5 -62.5t-32.5 -58.5t-56 -25q-32 0 -45 14t-13 38z" />
<glyph unicode="J" horiz-adv-x="560" d="M-38 39q0 7 2 15q7 34 30.5 53.5t52.5 19.5q60 0 107.5 39t83.5 101t62 133t43.5 138.5t27.5 115.5q18 83 27.5 143.5t15.5 121.5l29 280q3 30 9 58q9 40 27 74t51.5 55t86.5 21q65 0 86 -52q13 -32 13 -87q0 -31 -4 -69q-13 -104 -46 -263q-28 -127 -66.5 -261.5 t-90.5 -258t-120 -221.5t-153 -156t-189 -58q-43 0 -67 19q-18 15 -18 39z" />
<glyph unicode="K" horiz-adv-x="922" d="M166 46v10q1 34 8 80l157 1018q5 38 13 77q10 46 27 86.5t49.5 65.5t86.5 25q58 0 83 -22.5t28 -60.5q1 -9 1 -19q0 -29 -7 -63q-14 -62 -30 -120q-9 -31 -17 -63l-250 -990q-8 -35 -29 -61.5t-64 -26.5q-34 0 -46 19q-10 17 -10 45zM444 508q0 7 1 14q3 14 11 27 l387 678q51 93 97 138.5t114 45.5q52 0 82 -18q22 -14 22 -43q0 -11 -3 -24q-9 -42 -29 -76t-49 -73l-467 -645l186 -306q16 -25 31 -54t23 -63q4 -16 4 -33t-4 -35q-4 -19 -17 -40.5t-39.5 -37.5t-69.5 -16q-54 0 -79.5 23t-36.5 60l-160 454q-4 12 -4 24z" />
<glyph unicode="L" horiz-adv-x="702" d="M174 113q0 28 6 63l138 889q18 121 25 154q9 47 28 85.5t51 62.5t81 24q52 0 78.5 -20.5t32.5 -55.5q3 -15 3 -31q0 -22 -5 -45q-12 -53 -59 -232l-218 -842l252 39q54 6 90 6q34 0 62.5 -7.5t42.5 -26.5q10 -13 10 -33q0 -9 -2 -20q-11 -51 -50 -77t-88.5 -35t-96.5 -9 h-252q-90 0 -115 44q-14 26 -14 67z" />
<glyph unicode="M" horiz-adv-x="1584" d="M145 24q0 8 1 17q3 35 10 64l177 929q18 90 30 145q13 63 36 107t64.5 67.5t108.5 26.5q101 0 136 -68t43 -164l101 -748l476 865q18 35 45 73.5t64 66.5t86 28q42 0 62.5 -27.5t26.5 -69.5q4 -28 4 -58q0 -15 -1 -31q-2 -46 -13 -152l-89 -928q-7 -60 -15 -96 q-12 -55 -56 -93.5t-103 -38.5q-68 0 -93 30q-25 29 -25 73t10 89l178 872l-454 -723q-45 -73 -63.5 -97.5t-42 -40t-56.5 -15.5q-38 0 -55 28t-24 68l-146 759l-262 -902q-8 -30 -20 -58.5t-33.5 -48t-57.5 -19.5q-34 0 -43 26q-7 20 -7 44z" />
<glyph unicode="N" horiz-adv-x="1171" d="M115 75q0 25 7 56q10 44 38 140l280 1044q6 21 17.5 42.5t29.5 36t43 14.5q49 0 65 -46l334 -979l108 781q5 46 14 88t27.5 75.5t52.5 53t90 19.5q58 0 89 -32q21 -23 20 -59q0 -14 -2 -31q-18 -88 -41 -177l-232 -963q-9 -38 -24.5 -72t-41 -56t-63.5 -22 q-49 0 -79.5 36t-50 86t-31.5 97l-229 783l-124 -749q-8 -49 -19 -100q-9 -44 -29 -81t-53 -59.5t-80 -22.5q-56 0 -82.5 19t-31.5 53q-2 12 -2 25z" />
<glyph unicode="O" horiz-adv-x="1166" d="M170 476v9q1 97 20 185q21 98 59 204t95 204t134 176.5t175 125.5t220 47q129 0 213 -51.5t126.5 -143.5t46.5 -216v-29q0 -112 -27 -240q-33 -154 -97.5 -295.5t-154.5 -252t-201 -175t-236 -64.5q-103 0 -174.5 45t-115.5 120.5t-64 168.5q-19 89 -19 182zM362 395 q0 -61 12 -117q17 -74 64 -121.5t137 -47.5q75 0 152 52t145 138.5t118.5 193.5t74.5 216q26 125 26 227q0 17 -1 33q-5 115 -53.5 180.5t-146.5 65.5q-91 0 -164.5 -41.5t-130.5 -110t-98.5 -151.5t-70 -169t-43.5 -160q-15 -68 -20 -150q-1 -19 -1 -38z" />
<glyph unicode="P" horiz-adv-x="933" d="M136 25q0 15 4 33l176 1022q13 77 25 133q19 88 69 134.5t139.5 63t223.5 16.5q113 0 191.5 -44t111.5 -129q18 -47 18 -106q0 -45 -11 -98q-37 -172 -139 -309.5t-247.5 -229.5t-317.5 -130l-87 -320q-6 -24 -16.5 -47.5t-29 -39t-49.5 -15.5q-44 0 -55 30q-6 16 -6 36z M441 602q96 0 200 66t184 171.5t105 222.5q6 30 6 57q0 28 -6 52q-12 49 -57 78t-131 29q-23 0 -60.5 -4t-62.5 -11z" />
<glyph unicode="Q" horiz-adv-x="1179" d="M170 476v9q2 97 20 185q21 98 59 204t95 204t133.5 176.5t175 125.5t219.5 47q130 0 214 -51.5t126.5 -143.5t46.5 -216v-29q0 -112 -27 -240q-33 -154 -97.5 -295.5t-154.5 -251.5q-15 -19 -31 -36l76 -141q15 -27 26 -62q6 -19 6 -41q0 -17 -4 -36q-9 -45 -44 -68.5 t-83 -23.5q-58 0 -88.5 30.5t-42.5 75.5l-32 118q-104 -56 -220 -56q-103 0 -174.5 45t-115.5 120.5t-64 168.5q-19 89 -19 182zM362 395q0 -61 12 -117q16 -74 63.5 -121.5t137.5 -47.5q74 0 149 50l-44 162q-18 58 -18 83q0 5 1 9q12 58 80 59q40 0 74 -60l46 -88l11 -22 q67 86 117 191q51 107 74 216q27 126 27 228q0 17 -1 33q-6 114 -54.5 179.5t-147.5 65.5q-91 0 -163.5 -41.5t-130 -110t-99.5 -151.5t-69.5 -169t-43.5 -160q-15 -68 -20 -149q-1 -20 -1 -39z" />
<glyph unicode="R" horiz-adv-x="979" d="M152 41q0 15 4 31l196 1047q16 86 22 115q12 57 61 97t114 64.5t130.5 36t111.5 11.5q135 0 224.5 -42.5t123.5 -128.5q19 -48 19 -109q0 -49 -12 -106q-26 -126 -96 -233t-170.5 -188.5t-221.5 -129.5l178 -332q16 -27 27 -61q6 -19 6 -41q0 -18 -4 -37 q-10 -45 -44.5 -68.5t-82.5 -23.5q-58 0 -88.5 30.5t-42.5 76.5l-132 485q-2 9 -2 18q0 6 1 12q10 44 58 68q92 39 183.5 100t161.5 144t92 188q7 32 7 61q0 59 -30 102q-44 63 -149 63q-88 0 -145 -18l-344 -1200q-9 -37 -30.5 -65.5t-66.5 -29.5q-43 1 -53 29q-6 16 -6 34 z" />
<glyph unicode="S" horiz-adv-x="909" d="M120 167q0 14 3 29q12 53 44 79.5t69 26.5q32 0 54 -14t39 -40q12 -22 22 -49q13 -39 37.5 -71.5t82.5 -35.5q47 0 88.5 14.5t71 46t40.5 81.5q3 14 3 27q0 28 -13 52q-19 34 -56 64.5t-83 61.5q-52 35 -104.5 78t-92.5 101t-55 138q-6 32 -6 69q0 55 14 121 q17 83 55 164.5t97.5 148.5t142.5 108t191 41q171 -6 232 -102q49 -76 49 -194q0 -29 -3 -60q-1 -24 -7 -49q-6 -31 -21 -59.5t-42.5 -46.5t-70.5 -18t-62 16t-22 44v11q0 23 6 51q8 34 19 71t18 71q5 21 5 41q0 9 -1 17q-3 28 -26 46t-75 22q-63 0 -108 -24t-76 -63 t-49.5 -84.5t-27.5 -88.5q-10 -49 -10 -89q0 -29 5 -54q12 -59 44 -103.5t76 -79t91 -65.5q60 -38 110 -81.5t75 -102.5q14 -34 14 -78q0 -33 -8 -71q-23 -108 -90 -184.5t-163.5 -117t-206.5 -40.5q-85 0 -162.5 36.5t-121.5 94.5q-35 44 -35 93z" />
<glyph unicode="T" horiz-adv-x="819" d="M259 75q0 22 5 46q11 53 27 107l274 1000l-251 9q-36 3 -44 25q-5 14 -5 28q0 9 2 18q7 34 32 50.5t57 22.5t61 8l474 31q42 3 82 3q56 0 89 -23q25 -18 34 -40q6 -15 6 -30q0 -7 -1 -14q-9 -40 -42.5 -61.5t-75 -29t-72.5 -7.5l-197 6l-153 -954q-12 -66 -22 -115 q-11 -51 -28 -95.5t-51 -72t-96 -27.5q-44 0 -69 23t-33 59q-3 16 -3 33z" />
<glyph unicode="U" horiz-adv-x="1162" d="M228 442q0 88 9 179q12 121 31 232q20 114 39 201q10 47 24 103t37.5 108.5t59.5 87t88 34.5q123 -2 123 -114q0 -28 -8 -63q-8 -39 -20 -81q-45 -169 -87 -336q-27 -109 -51 -218q-16 -79 -23 -159q-2 -29 -2 -55q0 -49 7 -92q10 -67 42 -107.5t91 -40.5q71 0 128 48 t100.5 124.5t76 164t54 168.5t33.5 139q33 161 56 327q17 125 31 193q9 38 25 69t46.5 49.5t80.5 18.5t73 -19.5t25 -54.5q1 -8 1 -16q0 -29 -8 -64q-16 -78 -50 -190q-52 -174 -99 -325q-29 -98 -66 -206.5t-88 -211.5t-120 -186.5t-162 -134t-215 -50.5q-102 0 -162 57 t-88 151.5t-31 211.5q-1 29 -1 58z" />
<glyph unicode="V" horiz-adv-x="1080" d="M320 1253q0 37 5 62q22 102 169 102q127 -4 127 -153l-9 -209l-35 -826l482 1017q17 37 41 75t55.5 64.5t70.5 26.5q43 0 67 -20q16 -14 16 -41q0 -13 -3 -28q-6 -29 -30 -76.5t-46 -86.5l-560 -1048q-30 -57 -58 -87t-53.5 -40.5t-49.5 -10.5q-21 0 -42 6.5t-35.5 28.5 t-17.5 67l-92 1122q-2 30 -2 55z" />
<glyph unicode="W" horiz-adv-x="1591" d="M319 1213q0 53 9 94q29 134 147 135q146 -1 146 -157q0 -10 -1 -21l-106 -1035l355 753q32 66 64 98t64 41.5t64 9.5q35 0 67 -11t51 -44q17 -31 17 -87v-12l-19 -686l407 955q15 38 39.5 76t56.5 64.5t72 26.5q48 0 60 -29q7 -16 7 -37q0 -16 -4 -34q-9 -39 -28 -81.5 t-37 -76.5l-480 -981q-28 -57 -56 -87.5t-54.5 -40.5t-50.5 -10q-21 0 -41 7t-34.5 29t-19.5 66l-68 617l-339 -643q-30 -57 -58 -87t-54 -40.5t-49 -10.5q-22 0 -41.5 7t-35 29t-19.5 66z" />
<glyph unicode="X" horiz-adv-x="982" d="M51 -25q0 6 1 13q5 23 18 48.5t27 46.5l424 658l-188 524q-9 25 -13 53q-2 12 -2 23q0 16 4 32q6 31 26 49t46.5 26t52.5 8q51 0 76 -24t33 -64l88 -436l266 394q42 65 84 96.5t107 31.5q43 0 69 -25q20 -20 20 -48q0 -8 -1 -16q-11 -48 -48 -98l-428 -581l221 -461 q15 -30 26 -64q6 -20 6 -41q0 -16 -3 -32q-7 -29 -29 -48.5t-52 -29t-59 -9.5q-44 0 -78 27t-46 73l-108 419l-366 -500q-13 -17 -31 -38t-39 -36.5t-42 -15.5q-41 0 -53 17q-9 12 -9 28z" />
<glyph unicode="Y" horiz-adv-x="932" d="M296 1299q0 19 3 37q10 40 40.5 66.5t94.5 26.5q71 0 109 -36.5t46 -120.5l53 -529l324 537q19 34 43.5 66t59 53t86.5 21q47 0 59 -22q8 -14 8 -33q0 -10 -2 -21q-7 -33 -27.5 -67.5t-38.5 -58.5l-421 -559q-27 -35 -54 -53l-42 -403q-3 -51 -14 -105q-10 -44 -29 -83 t-54 -63t-92 -24q-51 0 -76 18.5t-31 46.5q-3 14 -3 28q0 15 3 29q7 33 24 91l145 455q-20 12 -30 42l-178 608q-6 27 -6 53z" />
<glyph unicode="Z" horiz-adv-x="849" d="M55 107q0 9 2 18q8 38 37.5 83.5t65.5 91.5l638 882l-316 -34q-49 -4 -82 -4q-52 0 -79 28q-19 19 -19 52q0 13 3 29q18 77 55 104t73 27q51 -1 94 -6l434 -45q89 -9 120 -37q25 -22 25 -50q0 -7 -2 -15q-7 -38 -42 -83t-79 -94l-725 -866l456 21q36 0 65 -13t42 -41 q8 -16 8 -38q0 -15 -4 -34q-9 -43 -30.5 -67.5t-50 -34.5t-58.5 -10q-45 0 -85 6l-445 55q-64 9 -85 33q-16 18 -16 42z" />
<glyph unicode="[" horiz-adv-x="578" d="M107 -120q0 15 3 32l258 1488q11 51 35 78t64 36.5t94 9.5h186q37 0 50 -28q8 -18 8 -39q0 -11 -2 -24q-8 -38 -34.5 -63.5t-68.5 -25.5l-131 15l-298 -1401l136 19q45 0 65 -27q15 -20 15 -46q0 -10 -2 -21q-7 -33 -33 -59.5t-72 -26.5h-183q-90 0 -90 83z" />
<glyph unicode="\" horiz-adv-x="622" d="M316 1320q0 17 3 32q10 45 43 69t72 24q46 0 84 -27t42 -86l49 -1245q0 -19 -4 -36q-6 -29 -24 -49q-28 -32 -60 -32q-25 0 -43.5 20.5t-23.5 64.5l-137 1247q-1 9 -1 18z" />
<glyph unicode="]" horiz-adv-x="578" d="M54 -138q0 12 3 26q8 38 34.5 63.5t68.5 25.5l131 -15l298 1401l-136 -19q-45 0 -66 27q-14 19 -14 45q0 11 2 22q7 33 33 59.5t72 26.5h183q89 0 89 -81q0 -16 -3 -34l-257 -1488q-11 -51 -35 -78t-64 -36.5t-94 -9.5h-186q-38 0 -51 28q-8 17 -8 37z" />
<glyph unicode="^" horiz-adv-x="831" d="M257 869q0 7 1 14q8 38 39 79l308 402q22 29 46 52.5t54 23.5q32 0 48 -26t27 -56l153 -370q14 -34 16 -61q1 -10 1 -20q0 -16 -3 -29q-5 -23 -21 -37.5t-36.5 -21t-38.5 -6.5q-27 0 -52.5 18.5t-37.5 56.5l-95 360l-232 -366q-26 -36 -52.5 -51.5t-48.5 -15.5 q-40 0 -61 18q-15 14 -15 36z" />
<glyph unicode="_" horiz-adv-x="857" d="M-35 -209q0 7 2 15q8 35 41.5 63t91.5 30l593 -3q56 -1 80 -23q19 -18 19 -38q0 -6 -1 -11q-6 -28 -37 -51.5t-85 -27.5l-607 -25q-55 0 -79 26q-18 20 -18 45z" />
<glyph unicode="`" horiz-adv-x="422" d="M458 1813q0 12 2 23q8 40 37 59t65 20q39 0 69.5 -24.5t36.5 -74.5l20 -203v-10q0 -20 -3 -35q-7 -31 -27.5 -47.5t-44.5 -16.5q-26 0 -49 14.5t-34 45.5l-63 196q-9 29 -9 53z" />
<glyph unicode="a" d="M135 313q0 33 8 71q33 154 157 246t287 92q55 0 113.5 -16t98.5 -43q42 241 47 377q1 20 1 37q0 108 -26 154q-31 54 -96 54q-55 0 -88 -22.5t-51.5 -59.5t-27.5 -80q-10 -48 -15 -97q-5 -44 -12 -80q-12 -55 -50 -95t-97 -40q-29 0 -53.5 15.5t-34.5 46.5q-6 16 -6 37 q0 19 5 42q16 77 70 178.5t119 164.5q52 54 117.5 86t145.5 32q115 0 182 -59t96.5 -158.5t31.5 -224.5v-38q0 -107 -14 -223q-16 -136 -41 -267t-48 -240q-10 -48 -28 -94.5t-50 -77t-86 -30.5q-55 0 -76 29q-19 26 -19 65v7q1 42 9 86l3 16q-68 -49 -159 -80.5t-181 -31.5 q-76 0 -133.5 36t-83.5 102q-15 38 -15 83zM377 335q0 -28 12 -50q18 -35 66 -35q71 0 131 25.5t101 54.5t56 43q15 74 28 140q-18 18 -61 37.5t-115 19.5q-66 0 -107.5 -27.5t-68 -74t-38.5 -101.5q-4 -17 -4 -32z" />
<glyph unicode="b" horiz-adv-x="1010" d="M257 180q0 14 1 28l54 872q2 49 14 103q17 79 75 128t136.5 75.5t160 36t145.5 9.5q81 0 152.5 -20t122 -64t70.5 -115q10 -35 10 -77q0 -44 -11 -97q-14 -65 -61.5 -157.5t-136 -189t-224.5 -177.5q75 -38 114 -101q26 -42 26 -97q0 -28 -7 -60q-21 -96 -90 -162 t-160.5 -99.5t-178.5 -33.5q-84 0 -131.5 28t-65.5 78q-15 40 -15 92zM426 228q0 -36 22 -52q28 -22 80 -22q90 0 150 42.5t71 94.5q2 9 2 18q0 32 -26 63q-33 38 -119 59q-17 4 -39.5 14t-37.5 31q-10 14 -10 36q0 11 3 25q9 45 42 69q34 25 79 47q86 45 163 113.5 t132.5 152t74.5 171.5q6 30 6 56q0 33 -11 57q-20 43 -66 62t-108 19q-54 0 -104 -12t-85.5 -43t-47.5 -89l-168 -884q-3 -15 -3 -28z" />
<glyph unicode="c" horiz-adv-x="966" d="M168 400v9q0 110 25 227q19 88 58 193t96 208t130 188.5t161.5 137.5t188.5 52q80 0 132 -32t81 -85q38 -65 46 -181q3 -37 3 -70q0 -71 -12 -123q-10 -48 -34.5 -79.5t-55 -47t-59.5 -15.5q-59 0 -80 41q-13 25 -13 57q0 18 4 38q10 47 27 110q19 72 32 135q4 21 4 40 q0 28 -10 50q-17 37 -57 37q-62 0 -117 -54t-101 -136.5t-81.5 -173t-58.5 -169.5t-32 -121t-15 -104q-3 -39 -3 -79q0 -25 1 -50q2 -67 18 -125.5t50 -96t90 -37.5q43 0 76 13t59.5 32.5t49.5 39.5q27 24 53.5 41.5t58.5 17.5q30 0 47 -21q13 -16 13 -37q0 -8 -2 -16 q-12 -56 -61.5 -97t-115 -67t-130.5 -38.5t-108 -12.5q-129 0 -207 53.5t-114 143.5t-37 204z" />
<glyph unicode="d" horiz-adv-x="1124" d="M195 130q0 37 9 82l127 986q2 16 6 32q12 60 61 98t116 59.5t138 30t128 8.5q299 0 409 -162q70 -103 70 -261q0 -91 -23 -200q-23 -108 -71.5 -222t-119 -219.5t-161 -189.5t-198.5 -134t-231 -50q-45 0 -101 5t-99.5 26t-55.5 68q-4 20 -4 43zM379 219q0 -26 11 -38 q18 -19 98 -19q113 0 201.5 59t154 154t109 209.5t67.5 224.5q18 87 20 170v6q0 80 -26 145q-27 67 -90.5 107t-175.5 40q-65 0 -103.5 -19.5t-52.5 -72.5l-208 -925q-5 -24 -5 -41z" />
<glyph unicode="e" horiz-adv-x="969" d="M169 391v16q0 102 24 214q20 96 55 203t87.5 208.5t125 184t166.5 132.5t213 50q234 0 234 -305q0 -104 -27 -243q-27 -128 -102 -173q-59 -35 -127 -35q-26 0 -54 3l-304 38q-10 -38 -15 -63q-9 -41 -14 -100q-3 -33 -3 -67q0 -27 2 -55q4 -62 20.5 -116t51 -88 t91.5 -34q42 0 75 13t59.5 32t49.5 40q28 24 54.5 41.5t57.5 17.5t48 -22q12 -16 12 -35q0 -8 -2 -17q-12 -57 -61.5 -97.5t-114.5 -67t-130 -39t-108 -12.5q-129 0 -208.5 49t-116.5 133t-39 194zM494 798l324 -2q47 224 47 343q0 136 -61 136q-57 0 -103 -45t-83.5 -117 t-68 -154.5t-55.5 -160.5z" />
<glyph unicode="f" horiz-adv-x="849" d="M159 57v9l190 1096q2 23 7 45q14 65 51.5 100.5t93.5 52.5t126 23l362 33q17 1 28 1q60 0 96 -31q28 -23 28 -61q0 -12 -3 -25q-13 -63 -54 -102t-107 -39q-36 0 -72 7l-282 55l-170 -623q214 33 274 33q31 0 70.5 -7t66.5 -29q19 -16 19 -43q0 -10 -2 -21 q-10 -44 -43 -65.5t-73.5 -28.5t-74.5 -7q-65 0 -276 24l-105 -384q-7 -29 -31 -50q-28 -23 -58 -23t-48 20q-13 17 -13 40z" />
<glyph unicode="g" horiz-adv-x="1088" d="M167 385q0 113 26 236q31 146 96.5 290t159.5 261t212 188t254 71q100 0 158 -46.5t83 -120.5q26 -72 26 -156v-4q-1 -86 -17 -165q-14 -61 -51.5 -101t-105.5 -40q-55 3 -76 39q-12 19 -12 54q0 30 9 71q11 53 26 108q14 52 24 99q5 25 5 49q0 21 -4 42q-9 43 -57 45 q-88 0 -163.5 -59t-137 -158t-107 -221t-71.5 -247q-20 -92 -21 -180v-7q0 -84 24 -152q25 -70 81 -112.5t150 -42.5q60 0 93.5 33t45.5 92l36 169l-100 -34q-48 -16 -81 -16q-50 0 -69 28q-13 20 -13 44q0 10 2 21q10 50 43 75.5t80 32.5l193 29q39 6 80 6q94 -2 94 -80 q0 -17 -4 -37q-7 -31 -20 -67q-29 -79 -59 -157q-37 -90 -90.5 -146t-115.5 -85.5t-124.5 -40t-116.5 -10.5q-139 0 -223 52t-123 141q-39 91 -39 209z" />
<glyph unicode="h" horiz-adv-x="1151" d="M105 54v15q0 33 7 69q4 18 9 36l319 1127q8 29 20 61.5t33.5 56.5t57.5 24q31 0 43.5 -16.5t13.5 -40.5v-8q0 -20 -4 -41l-148 -781l486 54l91 622q4 24 9 48q10 51 30 89.5t55 60t91 21.5q54 0 76 -26.5t22 -68.5v-7q0 -40 -10 -85l-287 -1178q-6 -26 -17.5 -50.5 t-31.5 -41t-51 -16.5q-30 0 -42 19.5t-12.5 46.5t3.5 52l47 324l-488 -18l-27 -146q-10 -59 -22 -119q-10 -47 -31 -86.5t-57 -63.5t-90 -24q-49 0 -71 25.5t-24 65.5z" />
<glyph unicode="i" horiz-adv-x="475" d="M126 85v4q0 43 10 87q12 55 28 112l28 101l250 929q8 31 18.5 55t29.5 38t51 14q35 0 46 -25q8 -21 8 -48v-11q-3 -33 -8 -62l-156 -920q-13 -93 -29 -165q-10 -48 -28 -95.5t-53.5 -78.5t-98.5 -31q-55 0 -76 29q-20 28 -20 67z" />
<glyph unicode="j" horiz-adv-x="577" d="M-24 96q0 22 6 51q11 52 57.5 83.5t126.5 31.5q84 0 139 51.5t90 137.5t57 192q21 97 32 199t19 198q7 80 14.5 150t18.5 125q10 46 30.5 76.5t68.5 30.5q36 0 47 -26q8 -20 8 -44q0 -9 -1 -18q-3 -35 -9 -62q-16 -76 -23 -170t-12 -199q-5 -120 -15 -244t-34 -239 q-26 -121 -78.5 -217.5t-144.5 -153t-233 -57.5q-82 0 -118 19q-27 14 -40 46q-6 16 -6 39z" />
<glyph unicode="k" horiz-adv-x="958" d="M128 100q0 40 10 85q8 40 19 78l277 1018q11 45 24.5 80t34 54.5t54.5 19.5q43 0 53 -26q6 -16 6 -35q0 -13 -3 -27l-182 -1054q-8 -58 -21 -119q-9 -45 -28 -82.5t-54 -60t-93 -22.5q-54 0 -75.5 25t-21.5 66zM563 848q0 8 2 16q4 20 18 38l353 454q28 37 63 60t89 23 q43 0 62.5 -15.5t23.5 -37.5q2 -11 2 -21t-2 -20q-8 -35 -29.5 -68t-49 -62.5t-54.5 -54.5l-315 -305l192 -646q13 -39 19 -73q2 -12 2 -25q0 -23 -6 -51q-10 -48 -47.5 -66.5t-90.5 -18.5q-67 0 -94 45.5t-38 138.5l-99 678q-1 6 -1 11z" />
<glyph unicode="l" horiz-adv-x="719" d="M197 146q0 26 6 59l151 976q4 33 11 66q10 47 29 86t51 62.5t81 23.5q52 0 78.5 -20.5t32.5 -55.5q3 -15 3 -31q0 -21 -5 -45q-12 -53 -27 -108l-250 -966l245 8q50 0 99 -5.5t79 -30.5q21 -18 21 -49q0 -12 -3 -26q-11 -52 -48 -72q-47 -23 -107 -23q-37 0 -73 5 l-245 30q-88 9 -113 49q-16 24 -16 67z" />
<glyph unicode="m" horiz-adv-x="1827" d="M184 74q0 15 3 34l190 1191q13 60 59 90.5t100 30.5q57 0 90 -30q23 -23 23 -61q0 -14 -3 -31l-123 -479q73 184 151.5 317.5t164.5 207t183 73.5q75 0 120 -33t66.5 -87.5t25.5 -121.5q1 -21 1 -41q0 -47 -6 -95q-8 -70 -21 -131q71 157 143.5 271t151 176t167.5 62 q94 0 143 -64.5t65 -171.5q10 -69 10 -149q0 -42 -3 -88q-9 -131 -32 -267q-20 -117 -43 -224q-31 -142 -57 -245q-9 -37 -15 -65q-18 -67 -68 -102t-102 -35t-85 33q-22 22 -22 62q0 18 5 40q8 32 33 125t55 220q18 76 35 155q11 53 22 107q27 135 43 252q11 87 11 150 q0 22 -1 40q-4 74 -39 74q-57 0 -116 -60.5t-116 -158.5t-108.5 -215t-93.5 -234t-71 -214.5t-41 -153.5q-18 -67 -68 -102t-102 -35t-84 33q-22 22 -22 62q0 18 5 40q7 30 32.5 116t56 203.5t59.5 241.5q7 31 13 61q19 91 32 172q14 87 14 149q0 14 -1 27q-3 68 -37 68 q-56 0 -120.5 -67t-131 -175.5t-203 -449.5t-162.5 -463q-15 -57 -43 -86t-76 -29q-28 0 -45 28q-12 19 -12 52z" />
<glyph unicode="n" horiz-adv-x="1174" d="M185 74q0 15 3 34l190 1191q11 60 58 90.5t101 30.5q57 0 90 -30q23 -22 23 -58q0 -16 -4 -34l-123 -479q81 172 171 306.5t187.5 213t203.5 78.5q90 0 137 -59t61 -159q9 -59 9 -128q0 -45 -4 -95q-9 -123 -33 -254q-13 -75 -29 -148q-11 -52 -23 -103 q-29 -121 -53 -216q-17 -66 -28 -112q-18 -67 -68 -102t-102 -35t-84 33q-22 22 -22 62q0 18 5 40q11 46 34 126.5t55 207.5t63 264q8 36 15 72q20 96 35 183q19 116 19 191q0 79 -32 79q-58 0 -128 -65.5t-143 -172.5t-229.5 -437t-188.5 -480q-13 -57 -42 -86t-67 -29 q-28 0 -45 28q-12 19 -12 52z" />
<glyph unicode="o" horiz-adv-x="1146" d="M170 407q0 106 27 231q32 153 96.5 294.5t155 252.5t201 175.5t236.5 64.5q103 0 174.5 -45.5t115.5 -121t64 -168.5q18 -85 18 -172v-18q-1 -98 -19 -185q-21 -99 -58.5 -201.5t-93.5 -196t-132 -167.5t-173.5 -117.5t-218.5 -43.5q-173 0 -267.5 81.5t-117.5 227.5 q-8 52 -8 109zM339 464q0 -21 1 -41q7 -107 57 -165t148 -58q91 0 164 38.5t129 102.5t96.5 142.5t68 161t43.5 156.5q14 68 19 150q1 20 1 39q0 61 -12 117q-16 73 -63 121t-137 48q-76 0 -152.5 -52t-144.5 -138.5t-119 -193.5t-74 -217q-25 -118 -25 -211z" />
<glyph unicode="p" horiz-adv-x="959" d="M107 71q0 42 9 86q13 56 29 112l258 956q17 71 60.5 124.5t130.5 72.5q99 21 205 22q61 0 118 -10q78 -14 135 -55.5t80 -118.5q12 -37 12 -84q0 -52 -14 -115q-35 -164 -138 -294t-249.5 -217t-316.5 -122l-14 -87q-14 -94 -29 -166q-10 -48 -28.5 -95.5t-54 -78.5 t-97.5 -31q-56 0 -76 29t-20 72zM452 581q74 14 140 45q138 68 225 183t115 248q6 28 6 53q0 29 -9 52q-17 42 -56.5 63t-93.5 21q-111 0 -221 -38z" />
<glyph unicode="q" horiz-adv-x="1146" d="M170 407q0 106 27 231q32 153 96.5 294.5t154.5 252.5t201 175.5t237 64.5q103 0 174.5 -45.5t115 -121t64.5 -168.5q19 -89 19 -181v-9q-2 -98 -20 -185q-21 -99 -59 -201.5t-93.5 -196t-131.5 -167.5q-30 -29 -63 -54l86 -294q8 -31 10 -37q5 -14 9 -30q2 -8 2 -15 q0 -8 -2 -15q-7 -32 -27.5 -44.5t-38.5 -12.5q-35 0 -55.5 18.5t-35.5 47.5l-26 49l-129 238q-58 -12 -122 -12q-173 0 -267.5 81.5t-117.5 227.5q-8 52 -8 109zM339 460q0 -19 1 -37q7 -107 57 -165t149 -58q91 0 163.5 38.5t128.5 102.5t96.5 142.5t68.5 161t43 156.5 q15 68 20 150q1 19 1 37q0 62 -13 119q-16 73 -63 121t-137 48q-76 0 -153 -52t-144.5 -138.5t-118 -193.5t-74.5 -217q-25 -121 -25 -215z" />
<glyph unicode="r" horiz-adv-x="967" d="M130 98v13q0 34 8 79q12 55 29 112l257 955q18 72 61 125.5t131 72.5q99 20 204 21q62 0 119 -10q77 -14 134 -55.5t81 -118.5q11 -36 11 -82q0 -52 -14 -117q-68 -323 -412 -521l153 -517q4 -14 8 -30q2 -8 2 -15q0 -8 -2 -15q-6 -27 -27 -42t-38 -15q-35 0 -56 18.5 t-36 47.5l-223 416q-16 27 -27 62q-6 19 -6 41q0 18 4 37q7 35 33 55t60 34q305 134 370 440q6 27 6 51q0 30 -10 54q-17 42 -56.5 63t-93.5 21q-110 0 -220 -38l-147 -867q-13 -94 -28 -166q-10 -48 -28.5 -95t-54 -78t-97.5 -31q-46 0 -70 28.5t-25 66.5z" />
<glyph unicode="s" horiz-adv-x="959" d="M179 310q0 28 2 57q1 23 6 46q7 30 21.5 57t41.5 44t71 17q43 0 62 -15.5t22 -41.5v-12q0 -21 -5 -47q-7 -32 -18 -67t-18 -67q-5 -22 -5 -42q0 -29 10 -52q17 -40 50 -61.5t70 -21.5q57 0 98.5 30t68 77.5t39.5 104.5q7 36 7 68q0 75 -40 131q-56 78 -142 144 q-57 46 -106 97t-74 117q-14 37 -14 81q0 36 9 77q41 194 164.5 302.5t318.5 108.5q83 0 150 -37.5t103 -95.5q26 -42 26 -85q0 -16 -4 -32q-11 -53 -43.5 -79.5t-68.5 -26.5q-33 0 -55 14t-38 40q-13 23 -23 52q-13 41 -37 75.5t-80 36.5q-61 0 -108.5 -44.5t-68.5 -144.5 q-8 -36 -8 -67q0 -37 11 -66q20 -53 61.5 -93t92.5 -77q45 -34 88 -72.5t74 -90.5t41 -125q3 -22 3 -48q0 -56 -15 -127q-22 -103 -77 -189t-151 -137t-240 -51q-115 4 -176.5 60.5t-81.5 145.5q-14 63 -14 132z" />
<glyph unicode="t" horiz-adv-x="821" d="M265 1270q0 14 4 32q8 37 37.5 60t66.5 34t69 13l586 28q43 0 68 -20q19 -15 19 -42q0 -9 -2 -19q-5 -24 -22.5 -44.5t-55.5 -26.5l-279 -40l-177 -1073q-11 -52 -28 -96.5t-51 -71.5t-96 -27q-44 0 -69 23t-33 59q-3 16 -3 33q0 22 5 45q11 54 27 107l266 979l-133 -19 l-57 -8q-19 -3 -36 -3q-19 0 -36 3q-36 6 -56 30q-14 16 -14 44z" />
<glyph unicode="u" horiz-adv-x="1173" d="M211 335q0 44 4 93q9 123 33 254q13 73 28 143q12 55 24 108q29 121 54 216q17 66 28 112q18 67 67.5 102t102.5 35q52 0 84 -33q22 -23 22 -62q0 -18 -5 -40q-4 -17 -12 -42q-18 -62 -46.5 -161.5t-58.5 -217.5q-25 -99 -46 -197q-29 -140 -43 -257q-5 -49 -5 -89 q0 -39 5 -70q11 -61 53 -61q57 0 121.5 62.5t129 161.5t157.5 334q93 234 159 544q9 43 27 78.5t50 57.5t83 22q62 0 85 -32q20 -28 20 -70v-8q-2 -47 -12 -95q-15 -72 -42 -166l-235 -920q-7 -28 -18 -61.5t-33 -59t-57 -25.5q-32 0 -45 14.5t-13 38.5v8q0 21 4 46l65 410 q-56 -96 -115 -188t-124 -167.5t-136.5 -121t-151.5 -45.5q-91 0 -137.5 59.5t-61.5 159.5q-9 60 -9 130z" />
<glyph unicode="v" horiz-adv-x="1023" d="M317 1295q0 25 4 42q10 49 42.5 69t75.5 20q39 0 59.5 -26.5t28.5 -64.5t8 -75l19 -1017l347 826l80 209q25 70 67.5 111.5t115.5 41.5q84 0 112 -35q22 -27 22 -58q0 -10 -2 -20q-6 -29 -23 -64l-621 -1164q-23 -45 -46.5 -67t-47 -28.5t-45.5 -6.5q-24 0 -45 10.5 t-36 40.5t-21 87l-92 1134q-2 19 -2 35z" />
<glyph unicode="w" horiz-adv-x="1512" d="M313 1254q0 44 5 73q9 43 36 71t69 28q40 0 62 -26t30 -64q6 -30 6 -61v-15l-61 -955l298 810q25 66 58 99.5t70.5 44.5t72.5 11q32 0 61 -9.5t47.5 -42t19.5 -98.5l10 -877l333 1035q22 68 68.5 120t129.5 52q122 0 122 -87q0 -15 -4 -34q-9 -42 -37 -102l-514 -1137 q-26 -44 -49.5 -66t-46 -29t-44.5 -7q-23 0 -45.5 10t-37.5 40t-19 88l-39 767l-356 -741q-22 -45 -46 -67t-48 -28.5t-46 -6.5q-23 0 -45 10t-37.5 40t-19.5 88l-1 1006q-2 33 -2 60z" />
<glyph unicode="x" horiz-adv-x="919" d="M9 38q0 10 3 21q5 27 21.5 55.5t35.5 53.5l412 526l-106 536q-4 21 -7 47q-1 7 -1 14q0 18 4 34q5 24 25 41.5t60 17.5q21 0 35.5 -15.5t24 -36.5t14.5 -38l115 -378l286 422q31 45 76.5 72.5t90.5 27.5q28 0 54 -10t40 -29q10 -14 10 -32q0 -8 -2 -17 q-8 -39 -33.5 -73.5t-53.5 -64.5l-417 -462l180 -584q10 -32 10 -63q0 -18 -3 -35q-8 -39 -37.5 -64.5t-89.5 -25.5q-65 0 -93.5 32t-42.5 97l-98 395l-274 -437q-24 -40 -60 -64.5t-87 -24.5q-26 0 -49 8t-35 26q-8 11 -8 28z" />
<glyph unicode="y" horiz-adv-x="845" d="M280 1337q0 18 4 36q7 31 29 53.5t69 22.5q51 0 77.5 -21t37 -53t13.5 -67l65 -537l278 530q44 84 97.5 120.5t124.5 36.5q63 0 83 -27q14 -19 14 -46q0 -10 -2 -21q-10 -43 -41 -90l-436 -607q-23 -30 -49 -43l-48 -455q-7 -57 -15 -90q-6 -29 -24 -57.5t-51 -47 t-83 -18.5q-57 0 -82 24.5t-27 63.5q-1 10 -1 19q0 30 7 63q12 54 30 106l130 403q-20 17 -32 53l-152 559q-7 24 -13 58q-3 16 -3 32z" />
<glyph unicode="z" horiz-adv-x="860" d="M72 138q0 8 2 17q8 38 43 82.5t79 93.5l699 896l-285 -37q-42 -5 -98 -10.5t-94 -5.5q-52 0 -79 27q-19 20 -19 53q0 13 3 29q18 77 55 104t73 27q21 -1 49 -2.5t45 -3.5l384 -45q89 -10 120 -38q25 -22 25 -50q0 -7 -2 -15q-8 -37 -38 -82.5t-65 -91.5l-595 -891l241 36 q22 4 54 6t63 2q36 0 65 -13t42 -41q8 -16 8 -38q0 -15 -4 -34q-9 -43 -30.5 -67.5t-50 -35t-58.5 -10.5q-31 0 -85 7l-445 55q-64 8 -86 33q-16 19 -16 43z" />
<glyph unicode="{" horiz-adv-x="689" d="M217 684q0 8 2 17q6 28 28.5 49.5t57.5 21.5q46 0 86.5 47.5t71 123t48.5 160.5q31 145 73.5 230.5t91 128t98.5 55t96 12.5q66 0 66 -32q0 -4 -1 -8q-5 -26 -21 -37.5t-36 -18.5q-23 -8 -43.5 -23.5t-29.5 -54.5l-63 -252q-33 -153 -122 -257t-235 -145 q128 -42 173 -146q26 -61 26 -138q0 -55 -13 -119l-44 -252q-3 -14 -3 -25q0 -19 9 -29q14 -16 33 -24q17 -7 28 -19q8 -7 8 -21q0 -7 -2 -16q-8 -37 -82 -40q-46 0 -90.5 12.5t-75 55t-36.5 127.5q-1 16 -1 34q0 79 25 197q19 86 21 161v19q0 63 -17 104q-20 47 -69 47 q-36 0 -49 22q-9 15 -9 33z" />
<glyph unicode="|" horiz-adv-x="463" d="M113 -260q0 15 2 32l95 687l8 74q5 36 12 78q13 61 35 131q7 25 12 44l172 635q5 21 15 46t29.5 43.5t55.5 18.5q32 0 45 -10.5t15 -28.5q1 -7 1 -15q0 -12 -2 -25l-94 -687l-10 -74q-4 -42 -13 -86q-11 -54 -33 -123q-8 -26 -12 -44l-171 -635q-7 -21 -16.5 -46 t-29 -43.5t-54.5 -18.5q-33 0 -46.5 10.5t-15.5 27.5v9z" />
<glyph unicode="}" horiz-adv-x="689" d="M50 -94q0 3 1 6q6 26 22 37.5t36 18.5q23 8 43.5 23.5t29.5 54.5l63 252q33 153 122 257t235 146q-128 41 -173 145q-26 61 -26 138q0 55 13 119l44 252q3 14 3 25q0 20 -9 30q-14 15 -34 23q-16 7 -28 19q-7 7 -7 21q0 7 2 16q8 40 82 40q46 0 90.5 -12.5t75 -55 t36.5 -127.5q1 -14 1 -29q0 -81 -26 -202q-18 -85 -19 -161v-7q0 -70 19 -115q20 -48 66 -48q36 0 49 -21q9 -15 9 -33q0 -8 -2 -17q-6 -28 -28.5 -50t-58.5 -22q-49 0 -88.5 -47t-69 -122.5t-48.5 -161.5q-31 -145 -73 -230.5t-90.5 -128t-98.5 -55t-97 -12.5q-66 3 -66 34 z" />
<glyph unicode="~" horiz-adv-x="955" d="M195 579q0 8 2 16q2 9 6 19q19 42 48 88.5t66.5 88t80.5 68.5t91 27q101 0 172 -119q62 -99 108 -99q41 0 153 174q28 43 77 44q61 -1 61 -52q0 -10 -2 -22q-4 -16 -14 -32q-23 -35 -58.5 -84t-78.5 -96.5t-87.5 -80t-85.5 -32.5q-104 0 -198 131q-54 87 -84 87 q-40 0 -113 -128q-27 -54 -83 -56q-42 1 -57 37q-4 10 -4 21z" />
<glyph unicode="&#xa1;" horiz-adv-x="428" d="M112 95v8q3 51 14 102q11 54 29 124t31 115l132 447q2 8 5 17q7 30 19.5 62.5t33 56.5t53.5 24q32 0 44 -15t12 -41q0 -25 -4 -58l-60 -525l-16 -107q-8 -60 -20 -119q-10 -47 -28 -92.5t-51.5 -76t-89.5 -30.5q-62 0 -84 33q-20 30 -20 75zM340 1252q0 17 4 35 q14 67 64.5 109.5t114.5 42.5q63 0 91 -48q20 -32 20 -73q0 -17 -4 -37q-15 -69 -68 -105t-114 -36q-44 0 -69.5 21.5t-34.5 55.5q-4 17 -4 35z" />
<glyph unicode="&#xa2;" horiz-adv-x="966" d="M168 401v8q0 110 25 227q19 88 58 193t95.5 208t130.5 188.5t162 137.5q55 32 114 45l20 80q6 21 13.5 46t21 43.5t35.5 18.5q19 0 27 -10q6 -10 6 -25v-4q0 -18 -4 -40l-17 -103q61 -5 104 -31q52 -32 81 -85q38 -65 46 -181q3 -37 3 -70q0 -71 -12 -123 q-10 -48 -34 -79.5t-55 -47t-61 -15.5q-59 0 -79 41q-13 25 -13 57q0 18 4 38q10 47 27 110q19 72 32 135q5 22 5 40q0 29 -11 51q-17 36 -57 36h-1l-76 -458l-12 -74q-6 -42 -15 -86q-12 -54 -30 -122q-7 -26 -11 -44l-90 -362q34 2 62 13q33 13 59.5 32.5t49.5 39.5 q27 24 53.5 41.5t57.5 17.5t48 -21q12 -16 12 -36q0 -8 -2 -17q-11 -56 -60.5 -97t-115 -67t-130.5 -38q-38 -8 -69 -11l-32 -128q-5 -21 -13 -46t-21.5 -43.5t-34.5 -18.5q-20 0 -27 10.5t-7 28.5q0 17 5 40l26 159q-84 10 -142 50q-78 53 -114 143t-37 205zM427 447 q0 -22 1 -44q2 -67 18 -125q15 -55 46 -91l56 342l12 74q6 36 14 77q13 61 31 131q7 25 12 44l92 372q-51 -52 -93 -127q-46 -83 -81 -173.5t-58 -169.5t-32 -121t-14 -104q-4 -41 -4 -85z" />
<glyph unicode="&#xa3;" horiz-adv-x="1009" d="M171 34q0 10 3 23q6 29 20.5 55t33.5 54q23 33 48.5 77.5t51.5 110.5q21 55 39 131l-94 -4q-51 0 -71 22q-15 17 -15 39q0 6 1 13q6 29 35.5 53.5t75.5 24.5h89v17q-1 64 -6 130q-6 75 -6 156q0 71 17 150q24 116 86 192.5t142.5 114.5t163.5 38q165 0 248 -98 q58 -69 58 -172q0 -45 -11 -96q-13 -61 -54 -92t-81 -31q-38 0 -61 30q-15 19 -15 51q0 16 4 36q11 53 13 107v4q0 51 -22 85q-23 36 -86 36q-46 0 -78 -21.5t-52 -58t-30 -80.5q-21 -101 -23 -188q-1 -35 -1 -69q0 -51 2 -98q1 -47 1 -93v-50h224q39 0 55 -19 q13 -16 13 -35q0 -4 -1 -9q-6 -25 -30 -43.5t-67 -21.5l-211 -10q-16 -75 -55 -156q-39 -84 -115 -178l371 43q43 7 88 7q30 0 54.5 -10t34.5 -35q6 -14 6 -33q0 -15 -4 -34q-10 -45 -34.5 -72.5t-59 -40.5t-71.5 -13l-563 19q-40 2 -53 16q-8 9 -8 26z" />
<glyph unicode="&#xa4;" horiz-adv-x="1087" d="M152 379q0 6 1 12q5 21 27.5 46t70.5 50l127 66q-11 28 -12 62v16q0 28 5 57q18 82 72 154l-80 41q-30 15 -41 43q-7 18 -7 37q0 10 2 20q7 34 28 59.5t51 26.5h2q28 0 60 -29l98 -94q105 62 214 62q58 0 108.5 -15.5t87.5 -47.5l118 80q35 24 61 33.5t45 9.5 q27 0 36 -21q5 -13 5 -29q0 -10 -2 -21q-7 -32 -31.5 -64.5t-61.5 -48.5l-110 -41q4 -15 5 -32q2 -15 2 -31q0 -28 -6 -56q-17 -81 -74 -158l96 -92q23 -25 23 -53q0 -7 -2 -15q-7 -32 -34.5 -57t-60.5 -25q-35 0 -66 42l-64 97q-97 -65 -204 -65q-114 0 -195 57l-149 -100 q-40 -26 -75 -26q-33 0 -54 18q-16 13 -16 32zM493 653q0 -60 41 -91q53 -39 133 -39q85 0 157 66q63 63 78 135q5 20 5 38q0 30 -13 52q-19 35 -59 52.5t-91 17.5q-84 0 -155.5 -53t-92.5 -142q-3 -19 -3 -36z" />
<glyph unicode="&#xa5;" horiz-adv-x="1058" d="M200 376q0 7 2 15q8 35 41.5 63t91.5 30l194 -1l31 99h-222q-46 0 -66 23q-14 17 -14 37q0 7 1 14q7 29 35 51t79 25l131 6l-148 508q-6 26 -6 51q0 20 4 39q9 40 40 66.5t94 26.5q71 0 109 -36.5t46 -120.5l54 -525h2l321 533q19 34 43.5 66t59 53t86.5 21q47 0 59 -22 q8 -15 8 -34q0 -9 -2 -20q-7 -33 -27 -67.5t-39 -58.5l-349 -464l123 6q60 0 83 -25q18 -19 18 -44q0 -8 -2 -17q-7 -34 -40.5 -63t-88.5 -29h-222l-10 -100l208 -1q56 -1 80 -23q19 -18 19 -38q0 -6 -1 -11q-6 -28 -37 -51.5t-85 -27.5l-201 -8l-12 -119q-3 -51 -14 -105 q-10 -44 -29 -83t-54 -63t-92 -24q-51 0 -75.5 18.5t-31.5 46.5q-3 14 -3 28q0 15 3 29q7 33 24 91l55 171l-177 -7q-55 0 -79 26q-18 20 -18 45z" />
<glyph unicode="&#xa6;" horiz-adv-x="403" d="M133 275q0 13 2 28q4 22 16 47q4 9 7 16l86 230q2 8 8.5 17t23.5 16t53 7q32 0 46.5 -4t19 -10.5t4.5 -14.5l-1 -249v-27q1 -6 1 -12q0 -9 -2 -19q-4 -20 -17 -45q-4 -9 -6 -16l-85 -230q-4 -7 -10 -16t-23 -16t-52 -7q-33 0 -48 4t-19 10q-3 5 -3 12v3l1 249zM301 1065 q0 13 2 29q4 22 17 47q3 9 6 16l86 230q2 8 8.5 17t23.5 15.5t53 6.5q32 0 47 -3.5t19 -10t4 -14.5l-1 -249v-27q1 -6 1 -12q0 -9 -2 -19q-4 -20 -17 -45q-4 -9 -6 -16l-85 -230q-4 -8 -10 -17t-23 -15.5t-52 -6.5q-33 0 -48 4t-19 10q-3 5 -3 12v3l1 249z" />
<glyph unicode="&#xa7;" horiz-adv-x="1004" d="M87 -149q0 11 2 21q10 45 42 80t74 35q19 0 38.5 -8t37.5 -27q47 -51 108.5 -85.5t132.5 -36.5q46 0 94 14.5t100 57.5q32 28 49.5 63t25.5 72q4 18 4 35q0 37 -20 65q-28 40 -82.5 71t-121.5 60q-70 31 -139.5 70t-123.5 95.5t-76 139.5q-11 39 -11 87q0 54 14 118 q16 76 61 145q-8 32 -8 68t8 76q19 91 70.5 159t123.5 114t154.5 69t165.5 23q79 0 165 -22t146 -70q35 -33 35 -73q0 -11 -3 -22q-9 -47 -44.5 -84.5t-76.5 -37.5q-35 0 -63 48q-36 63 -98 85t-160 22q-57 0 -113 -26t-97.5 -73.5t-55.5 -111.5q-4 -22 -4 -42q0 -42 20 -73 q30 -45 88 -79t129 -65q69 -31 136 -68.5t118 -91t72 -131.5q11 -37 11 -83q0 -49 -13 -108q-17 -80 -63 -153q9 -31 9 -66q0 -33 -8 -70q-21 -99 -71.5 -167.5t-121.5 -109.5t-154.5 -59.5t-171.5 -18.5q-72 0 -152 20.5t-138 63.5q-28 22 -38 50q-6 18 -6 35zM380 739 q0 -84 66 -144q78 -71 193 -134q118 -64 211 -147q5 25 5 47q0 44 -21 77q-32 49 -91.5 91t-130.5 83q-62 35 -121.5 74.5t-107.5 87.5q-3 -18 -3 -35z" />
<glyph unicode="&#xa8;" horiz-adv-x="721" d="M414 1605q0 15 3 30q14 62 60 101t105 39q58 0 84 -44q18 -30 18 -65q0 -17 -4 -36q-13 -64 -61.5 -97t-105.5 -33q-40 0 -63.5 20t-31.5 51q-4 17 -4 34zM731 1605q0 15 3 30q13 62 59.5 101t105.5 39q58 0 84 -44q18 -29 18 -65q0 -17 -4 -36q-13 -64 -62 -97t-105 -33 q-40 0 -63.5 20t-31.5 51q-4 17 -4 34z" />
<glyph unicode="&#xa9;" horiz-adv-x="1472" d="M195 528q0 79 19 167q29 135 90 255t159 212.5t235.5 146t319.5 53.5q158 0 267 -55t171.5 -147.5t80.5 -208.5q7 -46 7 -94q0 -72 -16 -147q-43 -200 -152.5 -349.5t-287 -232.5t-423.5 -83q-175 0 -289.5 85.5t-157.5 232.5q-23 77 -23 165zM292 551q0 -35 4 -68 q11 -101 58 -178t129.5 -121.5t201.5 -44.5q193 0 346.5 59.5t257 185.5t145.5 326q14 65 14 127q0 88 -28 172q-50 131 -161 195t-261 64q-282 0 -457 -148.5t-233 -424.5q-16 -75 -16 -144zM500 547q0 55 12 113q16 72 53.5 155.5t97.5 156.5t142 120t187 47 q56 0 93.5 -19.5t59.5 -52.5q28 -40 36 -111q4 -32 4 -59q0 -34 -6 -60q-10 -44 -41 -65.5t-63 -21.5q-41 0 -57 25q-11 16 -11 36q0 11 3 22q6 29 16 68q12 44 21 83q2 12 2 22q0 19 -8 34q-13 22 -42 22q-61 0 -111.5 -36t-89 -95t-65.5 -130t-41 -141q-11 -50 -11 -99 q0 -21 2 -42q6 -70 44.5 -116t118.5 -46q45 0 75.5 16.5t53.5 35.5q19 15 37.5 26t41.5 11q21 0 34 -14q9 -10 9 -23q0 -4 -1 -9q-8 -37 -54.5 -67t-114 -48t-138.5 -18q-132 0 -199.5 55.5t-82.5 144.5q-7 39 -7 80z" />
<glyph unicode="&#xaa;" horiz-adv-x="869" d="M189 574q0 24 6 51q26 121 132 193.5t247 72.5q49 0 99.5 -12t85.5 -34q33 190 35 298v20q0 91 -25 130q-28 43 -84 43q-47 0 -76 -18t-44 -47t-22 -63q-8 -38 -12 -77q-3 -35 -9 -62q-9 -44 -41.5 -76t-83.5 -32q-25 0 -46.5 12.5t-31.5 37.5q-6 13 -6 31q0 14 4 31 q13 61 58 141t101 130q44 42 100.5 67t125.5 25q100 0 159 -46t86.5 -124.5t31.5 -177.5q1 -25 1 -50q0 -76 -9 -156q-12 -107 -31.5 -210.5t-37.5 -189.5q-8 -38 -23 -74.5t-42 -60.5t-74 -24q-48 0 -66 23q-18 21 -18 52q0 35 6 72l3 13q-59 -39 -137.5 -63.5 t-155.5 -24.5q-66 0 -117 28t-74 80q-15 32 -15 71zM399 587q0 -22 11 -41q16 -27 58 -27q62 0 113.5 20t86.5 43t48 34q12 58 22 111q-16 14 -54 29.5t-100 15.5q-58 0 -93 -22t-57.5 -58.5t-31.5 -80.5q-3 -12 -3 -24z" />
<glyph unicode="&#xab;" horiz-adv-x="741" d="M218 692q0 6 1 11q5 19 19 36l248 266q15 18 31.5 26t31.5 8q24 0 39 -17q11 -13 11 -31q0 -6 -1 -12q-4 -17 -18 -37l-160 -239l59 -238q3 -12 3 -24q0 -7 -1 -13q-6 -25 -28.5 -42.5t-46.5 -17.5q-15 0 -27.5 8t-20.5 26l-135 266q-5 12 -5 24zM500 690q0 6 1 13 q4 19 18 36l249 266q15 18 31.5 26t30.5 8q24 0 40 -17q11 -13 11 -29q0 -7 -2 -14q-3 -17 -17 -37l-160 -239l58 -238q4 -12 4 -23q0 -7 -2 -14q-5 -25 -27.5 -42.5t-46.5 -17.5q-15 0 -28 8t-21 26l-135 266q-4 11 -4 22z" />
<glyph unicode="&#xac;" horiz-adv-x="857" d="M152 674q0 7 2 15q8 34 42 62.5t91 29.5l564 -2q114 0 114 -83q0 -16 -4 -35q-2 -16 -12 -42l-31 -102q-34 -98 -105 -98q-55 0 -55 63q0 17 4 39l22 104l-535 -22q-55 0 -78 26q-19 20 -19 45z" />
<glyph unicode="&#xad;" horiz-adv-x="857" d="M153 673q0 8 2 16q7 34 40.5 62.5t91.5 29.5l594 -2q55 -2 79 -23q19 -18 19 -38q0 -6 -1 -11q-6 -29 -37 -52.5t-85 -26.5l-607 -25q-55 0 -78 26q-18 20 -18 44z" />
<glyph unicode="&#xae;" horiz-adv-x="1450" d="M199 528q0 79 19 167q29 135 90 255t159 212.5t235.5 146t319.5 53.5q158 0 267 -55t171.5 -147.5t80.5 -208.5q7 -46 7 -94q0 -72 -16 -147q-43 -200 -152.5 -349.5t-287 -232.5t-423.5 -83q-175 0 -289.5 85.5t-157.5 232.5q-23 77 -23 165zM296 547q0 -33 3 -64 q12 -101 59 -178t129.5 -121.5t200.5 -44.5q194 0 347.5 59.5t257 185.5t145.5 326q14 64 14 126q0 89 -28 173q-50 131 -161 195t-261 64q-282 0 -457 -148.5t-233 -424.5q-16 -77 -16 -148zM554 326q0 8 2 16l123 676q7 33 40 56.5t78 37.5t90.5 20.5t77.5 6.5 q142 0 212 -55q52 -42 52 -115q0 -25 -6 -54q-23 -110 -112.5 -194t-215.5 -126l133 -193q12 -16 21 -36q5 -12 5 -27q0 -8 -2 -18q-6 -26 -29.5 -40t-57.5 -14q-40 0 -62.5 18t-31.5 44q-102 273 -104 282q-2 6 -2 11q0 4 1 7q5 25 38 39q63 23 125.5 58.5t109.5 84 t60 109.5q3 16 3 30q0 38 -23 64q-33 37 -106 37q-61 0 -101 -10l-210 -698q-6 -22 -20 -38.5t-46 -17.5q-30 1 -37 17q-5 10 -5 22z" />
<glyph unicode="&#xaf;" horiz-adv-x="857" d="M375 1720q0 7 2 15q7 34 41 62.5t92 29.5l593 -2q56 -2 80 -23q19 -18 19 -40q0 -4 -1 -9q-6 -29 -37 -52.5t-85 -26.5l-607 -25q-56 0 -79 26q-18 20 -18 45z" />
<glyph unicode="&#xb0;" horiz-adv-x="671" d="M295 1022q0 35 8 70q14 69 57 132t111.5 102.5t159.5 39.5q87 0 137.5 -35.5t66.5 -93.5q9 -31 9 -65q0 -28 -6 -57q-16 -75 -61 -146.5t-114.5 -118t-156.5 -46.5t-137 42.5t-66 108.5q-8 33 -8 67zM440 1038q0 -22 4 -43q8 -37 32.5 -61t70.5 -24q80 0 129 66 q35 47 55 128q5 28 5 50q0 41 -16 66q-26 41 -94 41q-39 0 -73 -16t-61 -51q-35 -48 -46 -102q-6 -27 -6 -54z" />
<glyph unicode="&#xb1;" horiz-adv-x="772" d="M-18 70q0 8 2 16q7 34 40.5 62.5t91.5 29.5l594 -2q55 -2 79 -23q19 -18 19 -38q0 -6 -1 -11q-6 -29 -37 -52.5t-85 -26.5l-607 -25q-55 0 -78 26q-18 20 -18 44zM109 674q0 7 2 15q8 34 42 62.5t91 29.5l209 -1l43 209q13 57 47.5 85t68.5 28t54 -29q13 -18 13 -46 q0 -17 -5 -38l-53 -209l217 -1q55 -2 79 -23q19 -18 19 -38q0 -6 -1 -11q-6 -29 -37 -52.5t-85 -26.5l-233 -10l-59 -231q-14 -53 -43 -79t-58 -26q-27 0 -43 29q-9 17 -9 44q0 18 4 40l45 217l-211 -9q-55 0 -78 26q-19 20 -19 45z" />
<glyph unicode="&#xb2;" horiz-adv-x="711" d="M231 574q0 8 2 16q6 31 29.5 60.5t56.5 59t71 61.5q40 33 81.5 70t78.5 79t64.5 90.5t40.5 105.5q8 39 10 77q1 14 1 27q0 22 -3 40q-5 30 -17 44t-30 14q-32 0 -50.5 -18t-32.5 -63t-29 -113q-8 -39 -39.5 -70.5t-84.5 -31.5q-27 0 -48.5 12.5t-30.5 36.5q-5 13 -5 29 q0 13 3 27q18 87 62.5 157.5t119.5 113t177 42.5q84 0 138.5 -42.5t73.5 -111.5q10 -35 10 -75q0 -37 -9 -78q-16 -76 -63.5 -148.5t-112 -137t-195.5 -165.5l152 17q30 4 61 4q25 0 47 -8.5t32 -28.5q6 -12 6 -27q0 -11 -3 -24q-6 -31 -27 -53t-50 -32t-59 -10q-31 0 -62 1 l-305 11q-37 1 -51 15q-10 11 -10 27z" />
<glyph unicode="&#xb3;" horiz-adv-x="648" d="M209 668q0 10 2 20q8 39 37.5 61.5t64.5 22.5q29 0 48 -11t33 -31q10 -15 17 -34q8 -22 20.5 -37.5t36.5 -17.5q29 0 49.5 17.5t29.5 58.5q3 15 3 30q0 34 -16 64q-24 43 -69 79q-30 25 -36 45q-4 12 -4 23q0 7 2 14q4 21 21.5 41.5t61.5 47.5q53 32 83 72t43 98 q3 15 3 28q0 7 -1 14q-3 18 -12.5 26t-29.5 8q-28 0 -45 -15t-29 -44t-19 -60q-9 -42 -40.5 -66t-67.5 -24q-37 0 -62 25q-17 18 -17 46q0 11 2 23q23 108 111.5 174t207.5 66q60 0 109 -20t74 -63q16 -27 16 -64q0 -20 -5 -43q-16 -75 -76 -139.5t-118 -97.5q17 -12 51 -54 t52 -95q12 -32 12 -65q0 -21 -5 -43q-17 -80 -64 -131.5t-111 -75.5t-131 -24q-61 0 -116.5 23.5t-89.5 62.5q-26 31 -26 65z" />
<glyph unicode="&#xb4;" horiz-adv-x="422" d="M401 1551q0 8 2 17q5 19 17 45l106 203q27 50 68 74.5t80 24.5q36 -1 57 -20q14 -14 14 -38q0 -10 -2 -21q-7 -32 -40 -76l-146 -196q-24 -31 -53.5 -45.5t-55.5 -14.5q-23 0 -37 17q-10 11 -10 30z" />
<glyph unicode="&#xb6;" horiz-adv-x="1185" d="M253 801q0 60 15 132q17 80 46.5 156.5t87.5 145.5q60 69 134 108.5t154 55t159 15.5h473q39 0 61 -27q15 -20 15 -46q0 -10 -2 -20q-8 -35 -35.5 -60.5t-62.5 -31.5l-239 -1387q-16 -75 -70 -114t-112 -39q-60 0 -100 39q-29 27 -29 74q0 19 5 42l381 1384h-173 l-357 -1411q-18 -64 -53 -96t-71 -32t-56 34q-12 19 -12 51q0 22 6 51l140 661q-175 22 -254 133q-51 72 -51 182zM444 843q0 -57 22 -93q38 -61 132 -77l116 548q-49 -7 -95.5 -27.5t-81.5 -60.5q-36 -43 -54 -97t-28 -103q-11 -50 -11 -90z" />
<glyph unicode="&#xb7;" horiz-adv-x="508" d="M152 691q0 17 4 35q14 64 63 97.5t106 33.5q41 0 65 -20t32 -52q4 -15 4 -32q0 -16 -4 -33q-13 -62 -60 -101.5t-107 -39.5q-58 0 -84 44q-19 30 -19 68z" />
<glyph unicode="&#xb8;" horiz-adv-x="444" d="M-16 -415q0 10 2 22q6 29 28 51.5t57 22.5q12 0 38.5 3t49.5 10.5t26 22.5q1 5 1 10q0 18 -13 30q-17 16 -40 29q-22 12 -38 26q-12 11 -12 26q0 4 1 8q3 15 17 32.5t29 33.5l91 96q32 32 52.5 40t34.5 8q28 0 28 -26q0 -6 -2 -14q-4 -22 -23 -47l-87 -111q45 -26 70 -68 q18 -29 18 -64q0 -16 -4 -34q-3 -13 -8 -26q-23 -50 -66 -78.5t-95 -40.5t-99 -12q-56 2 -56 50z" />
<glyph unicode="&#xb9;" horiz-adv-x="600" d="M271 1183q0 8 2 16q8 37 35 60.5t69 41.5l252 111q46 20 75 20q37 0 45 -25q5 -14 5 -32q0 -14 -3 -29l-119 -720q-11 -52 -49.5 -81.5t-84.5 -29.5q-45 0 -74 27q-21 20 -21 53q0 12 3 27l169 626l-139 -80q-65 -37 -106 -37q-39 0 -51 21q-8 15 -8 31z" />
<glyph unicode="&#xba;" horiz-adv-x="912" d="M215 709v9q1 74 15 139q16 74 44.5 154t71.5 153.5t101 133t132 94.5t165 35q97 0 160.5 -39t95.5 -108t34 -162v-22q0 -84 -20 -181q-24 -115 -73 -221.5t-116.5 -189.5t-151 -132t-177.5 -49q-78 0 -131.5 34.5t-87 91t-48.5 126.5q-14 66 -14 134zM360 649 q0 -45 9 -86q12 -56 47.5 -92t103.5 -36q57 0 114.5 39.5t108.5 104.5t89.5 145.5t55.5 162.5q20 94 20 170q0 13 -1 26q-3 86 -39.5 135.5t-110.5 49.5q-69 0 -124 -31.5t-98 -83t-74.5 -114t-52.5 -127t-33 -120.5q-11 -51 -14 -112q-1 -15 -1 -31z" />
<glyph unicode="&#xbb;" horiz-adv-x="742" d="M159 416q0 6 1 12q4 17 18 37l160 238l-59 239q-3 13 -3 24q0 7 1 13q6 25 28.5 42.5t46.5 17.5q15 0 27.5 -8t20.5 -26l135 -266q5 -12 5 -25q0 -5 -1 -11q-5 -18 -19 -35l-248 -266q-15 -18 -31.5 -26t-31.5 -8q-24 0 -39 17q-11 14 -11 31zM441 416q0 6 1 12 q4 17 18 37l160 238l-59 239q-4 12 -4 23q0 7 2 14q5 25 27.5 42.5t46.5 17.5q15 0 28 -8t21 -26l135 -266q4 -11 4 -22q0 -7 -1 -14q-4 -18 -18 -35l-248 -266q-16 -18 -32 -26t-31 -8q-24 0 -39 17q-11 14 -11 31z" />
<glyph unicode="&#xbc;" horiz-adv-x="1681" d="M271 1183q0 8 2 16q8 37 35 60.5t69 41.5l252 111q46 20 75 20q37 0 45 -25q5 -14 5 -32q0 -14 -3 -29l-119 -720q-11 -52 -49.5 -81.5t-84.5 -29.5q-45 0 -74 27q-21 20 -21 53q0 12 3 27l169 626l-139 -80q-65 -37 -106 -37q-39 0 -51 21q-8 15 -8 31zM428 116v6 q0 9 2 19q6 30 33 70l756 1083q36 54 78 84t103 30q30 0 48 -18q12 -13 12 -36q0 -10 -2 -22q-8 -39 -55 -101l-821 -1069q-35 -44 -65.5 -63.5t-52.5 -19.5q-32 0 -36 37zM1128 325q0 20 5 44q4 15 9 33l104 358q9 32 27 62.5t47.5 55t70.5 24.5q50 0 67 -28q9 -17 9 -38 q0 -13 -3 -26q-5 -21 -14 -43l-144 -357l138 -3l111 412q5 19 13.5 37t27.5 32t50 14q38 0 48 -22q9 -21 9 -41v-4q-2 -22 -5 -40l-66 -394l28 -1q37 -2 50 -19q11 -13 11 -28q0 -5 -1 -9q-5 -20 -24 -36.5t-58 -20.5l-26 -2l-1 -6q-2 -15 -5 -35q-8 -57 -18 -101 q-6 -30 -18.5 -61.5t-42 -56.5t-80.5 -25q-48 0 -65.5 23.5t-17.5 52.5t6 57q7 33 17 68l17 60l1 4l-128 -12q-34 -4 -70 -5q-79 0 -79 77z" />
<glyph unicode="&#xbd;" horiz-adv-x="1686" d="M271 1183q0 8 2 16q8 37 35 60.5t69 41.5l252 111q46 20 75 20q37 0 45 -25q5 -14 5 -32q0 -14 -3 -29l-119 -720q-11 -52 -49.5 -81.5t-84.5 -29.5q-45 0 -74 27q-21 20 -21 53q0 12 3 27l169 626l-139 -80q-65 -37 -106 -37q-39 0 -51 21q-8 15 -8 31zM428 116v6 q0 9 2 19q6 30 33 70l756 1083q36 54 78 84t103 30q30 0 48 -18q12 -13 12 -36q0 -10 -2 -22q-8 -39 -55 -101l-821 -1069q-35 -44 -65.5 -63.5t-52.5 -19.5q-32 0 -36 37zM1095 54q0 8 2 16q7 31 30.5 60.5t56 59t71.5 61.5q40 33 81.5 70t78.5 79t64.5 90.5t39.5 105.5 q8 39 11 77q1 14 1 27q0 22 -3 40q-6 30 -17.5 44t-29.5 14q-33 0 -51.5 -18t-32.5 -63t-28 -113q-9 -39 -40.5 -70.5t-83.5 -31.5q-27 0 -48.5 12.5t-31.5 36.5q-5 13 -5 29q0 13 3 27q19 87 63.5 157.5t119 113t176.5 42.5q85 0 139 -42.5t73 -111.5q11 -36 11 -77 q0 -36 -9 -76q-16 -76 -64 -148.5t-112.5 -137t-195.5 -165.5l152 17q30 4 62 4q25 0 46.5 -8.5t31.5 -28.5q6 -12 6 -29q0 -10 -2 -22q-7 -31 -28 -53t-50 -32t-58 -10q-31 0 -63 1l-304 11q-37 1 -52 15q-10 11 -10 27z" />
<glyph unicode="&#xbe;" horiz-adv-x="1729" d="M209 668q0 10 2 20q8 39 37.5 61.5t64.5 22.5q29 0 48 -11t33 -31q10 -15 17 -34q8 -22 20.5 -37.5t36.5 -17.5q29 0 49.5 17.5t29.5 58.5q3 15 3 30q0 34 -16 64q-24 43 -69 79q-30 25 -36 45q-4 12 -4 23q0 7 2 14q4 21 21.5 41.5t61.5 47.5q53 32 83 72t43 98 q3 15 3 28q0 7 -1 14q-3 18 -12.5 26t-29.5 8q-28 0 -45 -15t-29 -44t-19 -60q-9 -42 -40.5 -66t-67.5 -24q-37 0 -62 25q-17 18 -17 46q0 11 2 23q23 108 111.5 174t207.5 66q60 0 109 -20t74 -63q16 -27 16 -64q0 -20 -5 -43q-16 -75 -76 -139.5t-118 -97.5q17 -12 51 -54 t52 -95q12 -32 12 -65q0 -21 -5 -43q-17 -80 -64 -131.5t-111 -75.5t-131 -24q-61 0 -116.5 23.5t-89.5 62.5q-26 31 -26 65zM476 116v6q0 9 2 19q6 30 33 70l756 1083q36 54 78 84t103 30q30 0 48 -18q12 -13 12 -36q0 -10 -2 -22q-8 -39 -55 -101l-821 -1069 q-35 -44 -65.5 -63.5t-52.5 -19.5q-32 0 -36 37zM1176 325q0 20 5 44q4 15 9 33l104 358q9 32 27 62.5t47.5 55t70.5 24.5q50 0 67 -28q9 -17 9 -38q0 -13 -3 -26q-5 -21 -14 -43l-144 -357l138 -3l111 412q5 19 13.5 37t27.5 32t50 14q38 0 48 -22q9 -21 9 -41v-4 q-2 -22 -5 -40l-66 -394l28 -1q37 -2 50 -19q11 -13 11 -28q0 -5 -1 -9q-5 -20 -24 -36.5t-58 -20.5l-26 -2l-1 -6q-2 -15 -5 -35q-8 -57 -18 -101q-6 -30 -18.5 -61.5t-42 -56.5t-80.5 -25q-48 0 -65.5 23.5t-17.5 52.5t6 57q7 33 17 68l17 60l1 4l-128 -12q-34 -4 -70 -5 q-79 0 -79 77z" />
<glyph unicode="&#xbf;" horiz-adv-x="938" d="M145 252q0 56 14 121q19 89 68.5 159.5t112.5 127.5t124 105q65 51 112 96t57 90q5 25 15.5 48t29 37.5t48.5 14.5q40 0 52 -24q8 -14 8 -33q0 -12 -3 -26q-13 -63 -57.5 -119.5t-101.5 -114.5q-44 -46 -86.5 -96.5t-76 -108t-48.5 -127.5q-17 -83 -18 -150 q0 -75 29 -117q27 -40 89 -40q72 0 112 41t64 121t49 195q12 55 49.5 95.5t96.5 40.5q30 0 54 -15.5t35 -46.5q6 -17 6 -38q0 -19 -5 -41q-30 -140 -96.5 -250.5t-170.5 -174.5t-247 -64q-116 0 -193 48.5t-107 140.5q-15 47 -15 105zM614 1236q0 18 4 36q15 74 70.5 120 t125.5 46q68 0 100 -51q21 -36 21 -80q0 -20 -4 -41q-16 -76 -74 -115.5t-125 -39.5q-48 0 -76 24t-37 61q-5 19 -5 40z" />
<glyph unicode="&#xc0;" horiz-adv-x="925" d="M0 25q0 15 4 33q8 37 27 79.5t38 79.5l4 10l526 1071q24 48 54.5 73t65 33t70.5 8q53 0 80.5 -23t38.5 -59.5t12 -79.5v-21q0 -31 -2 -62l-47 -1045q-1 -5 -1 -11q0 -18 -1.5 -37.5t-3.5 -28.5q-7 -34 -27.5 -52t-56.5 -18q-41 0 -53.5 21t-12.5 51l-8 319l-349 -57 l-81 -205q-16 -44 -39 -81t-59.5 -59.5t-93.5 -22.5q-48 0 -70 32q-15 21 -15 52zM413 449l290 77l-15 618zM624 1812q0 12 2 23q8 40 37 59t65 20q39 0 69.5 -24.5t36.5 -74.5l20 -203v-10q0 -20 -3 -35q-7 -31 -28 -47.5t-44 -16.5q-26 0 -49 14.5t-34 45.5l-63 196 q-9 29 -9 53z" />
<glyph unicode="&#xc1;" horiz-adv-x="925" d="M0 25q0 15 4 33q8 37 27 79.5t38 79.5l4 10l526 1071q24 48 54.5 73t65 33t70.5 8q53 0 80.5 -23t38.5 -59.5t12 -79.5v-21q0 -31 -2 -62l-47 -1045q-1 -5 -1 -11q0 -18 -1.5 -37.5t-3.5 -28.5q-7 -34 -27.5 -52t-56.5 -18q-41 0 -53.5 21t-12.5 51l-8 319l-349 -57 l-81 -205q-16 -44 -39 -81t-59.5 -59.5t-93.5 -22.5q-48 0 -70 32q-15 21 -15 52zM413 449l290 77l-15 618zM661 1550q0 8 2 17q4 19 17 45l106 203q27 50 68 74.5t80 24.5q36 -1 56 -20q15 -14 15 -39q0 -9 -2 -20q-7 -32 -40 -76l-146 -196q-25 -31 -54 -45.5t-55 -14.5 q-23 0 -37 17q-10 11 -10 30z" />
<glyph unicode="&#xc2;" horiz-adv-x="925" d="M0 25q0 15 4 33q8 37 27 79.5t38 79.5l4 10l526 1071q24 48 54.5 73t65 33t70.5 8q53 0 80.5 -23t38.5 -59.5t12 -79.5v-21q0 -31 -2 -62l-47 -1045q-1 -5 -1 -11q0 -18 -1.5 -37.5t-3.5 -28.5q-7 -34 -27.5 -52t-56.5 -18q-41 0 -53.5 21t-12.5 51l-8 319l-349 -57 l-81 -205q-16 -44 -39 -81t-59.5 -59.5t-93.5 -22.5q-48 0 -70 32q-15 21 -15 52zM413 449l290 77l-15 618zM475 1545q0 8 2 18q5 27 27 58l117 158q53 71 99 93t102 23q57 0 97 -23t63 -95l51 -159q5 -17 5 -31q0 -10 -2 -18q-7 -33 -32 -54t-55 -21q-35 0 -62 44l-98 181 l-170 -176q-26 -26 -50.5 -37.5t-43.5 -11.5q-26 0 -40 20q-10 13 -10 31z" />
<glyph unicode="&#xc3;" horiz-adv-x="925" d="M0 25q0 15 4 33q8 37 27 79.5t38 79.5l4 10l526 1071q24 48 54.5 73t65 33t70.5 8q53 0 80.5 -23t38.5 -59.5t12 -79.5v-21q0 -31 -2 -62l-47 -1045q-1 -5 -1 -11q0 -18 -1.5 -37.5t-3.5 -28.5q-7 -34 -27.5 -52t-56.5 -18q-41 0 -53.5 21t-12.5 51l-8 319l-349 -57 l-81 -205q-16 -44 -39 -81t-59.5 -59.5t-93.5 -22.5q-48 0 -70 32q-15 21 -15 52zM413 449l290 77l-15 618zM506 1640q0 22 4 45q7 32 30 54q25 25 58 27h3q28 0 45 -18q16 -16 16 -42v-8q-3 -26 -3 -35q18 7 82 41q52 30 107 51q35 13 68 13q85 -4 111 -79q9 -30 9 -62 q0 -24 -5 -49q-6 -32 -26 -55q-29 -28 -66 -28q-25 0 -42 16t-17 43v17q0 15 -1 47q-18 -5 -44 -18.5t-53 -27.5q-49 -30 -105 -51q-31 -12 -61 -12q-81 4 -103 75q-7 27 -7 56z" />
<glyph unicode="&#xc4;" horiz-adv-x="925" d="M0 25q0 15 4 33q8 37 27 79.5t38 79.5l4 10l526 1071q24 48 54.5 73t65 33t70.5 8q53 0 80.5 -23t38.5 -59.5t12 -79.5v-21q0 -31 -2 -62l-47 -1045q-1 -5 -1 -11q0 -18 -1.5 -37.5t-3.5 -28.5q-7 -34 -27.5 -52t-56.5 -18q-41 0 -53.5 21t-12.5 51l-8 319l-349 -57 l-81 -205q-16 -44 -39 -81t-59.5 -59.5t-93.5 -22.5q-48 0 -70 32q-15 21 -15 52zM413 449l290 77l-15 618zM523 1601q0 16 3 32q13 62 59 101t106 39q57 0 84 -43q18 -30 18 -67q0 -17 -4 -35q-14 -63 -62.5 -96.5t-104.5 -33.5q-41 0 -64.5 20t-31.5 51q-3 16 -3 32z M839 1604q0 15 3 30q14 62 60 101t105 39q58 0 84 -44q19 -30 19 -67q0 -16 -4 -34q-14 -64 -62.5 -97t-105.5 -33q-40 0 -63.5 20t-31.5 51q-4 17 -4 34z" />
<glyph unicode="&#xc5;" horiz-adv-x="925" d="M0 25q0 15 4 33q8 37 27 79.5t38 79.5l4 10l526 1071q24 48 54.5 73t65 33t70.5 8q53 0 80.5 -23t38.5 -59.5t12 -79.5v-21q0 -31 -2 -62l-47 -1045q-1 -5 -1 -11q0 -18 -1.5 -37.5t-3.5 -28.5q-7 -34 -27.5 -52t-56.5 -18q-41 0 -53.5 21t-12.5 51l-8 319l-349 -57 l-81 -205q-16 -44 -39 -81t-59.5 -59.5t-93.5 -22.5q-48 0 -70 32q-15 21 -15 52zM413 449l290 77l-15 618zM617 1606q0 18 4 37q16 75 85 128t151 53q81 0 128 -53q34 -39 34 -91q0 -18 -4 -37q-16 -75 -85 -128t-150 -53q-82 0 -128 53q-35 40 -35 91zM747 1617 q0 -22 9 -39q15 -27 43 -27t53.5 27t33.5 65q3 14 3 26q0 22 -9 39q-14 27 -42 27t-54 -27t-34 -65q-3 -14 -3 -26z" />
<glyph unicode="&#xc6;" horiz-adv-x="1261" d="M-1 25q0 15 4 33q8 37 26.5 79.5t37.5 79.5q3 5 5 10l519 964q84 154 309 157l456 41q22 1 43 1q41 0 73 -12t47 -38q9 -17 9 -40q0 -14 -3 -31q-14 -64 -51 -93t-105 -29q-23 0 -57 5l-338 39l-151 -607l199 40q40 6 71 6q39 0 65 -26q19 -19 19 -47q0 -9 -2 -20 q-8 -39 -46.5 -72.5t-111.5 -36.5l-232 -2l-65 -268l352 65q46 8 88 8q40 0 58 -27q12 -18 12 -44q0 -15 -4 -32q-14 -67 -61 -99.5t-114 -32.5l-355 18q-94 0 -120 36q-16 20 -16 70q0 37 9 90l19 137l-231 -38l-81 -205q-16 -44 -39 -81t-59.5 -59.5t-94.5 -22.5 q-48 0 -69 32q-15 21 -15 52zM412 449l198 53l77 535z" />
<glyph unicode="&#xc7;" horiz-adv-x="1019" d="M153 366v23q0 105 24 217q20 95 60.5 202t101 209t140 185.5t179 133.5t216.5 50q80 0 131.5 -32t81.5 -86q38 -64 46 -180q3 -37 3 -70q0 -71 -12 -124q-10 -47 -34.5 -78.5t-55.5 -47t-60 -15.5q-59 0 -80 41q-13 25 -13 57q0 18 4 38q10 46 27 110q19 72 32 135 q5 22 5 42q0 27 -10 49q-17 36 -57 36q-87 0 -159.5 -59t-130 -154.5t-98 -211t-64.5 -230.5q-18 -86 -20 -173v-16q0 -78 18 -143q21 -72 70.5 -115.5t133.5 -43.5q43 0 76 13t59.5 32t50.5 40q27 24 53.5 41.5t57.5 17.5t48 -21q12 -16 12 -36q0 -8 -2 -17 q-13 -61 -80 -110t-163 -77q-82 -25 -166 -28l-75 -96q46 -26 71 -68q17 -29 17 -65q0 -16 -3 -33q-3 -13 -9 -26q-22 -50 -65 -78.5t-95 -40.5t-99 -12q-57 3 -57 50q0 10 3 22q6 29 28 51.5t57 22.5q12 0 38 3t49.5 10.5t26.5 22.5q2 6 2 12q0 17 -14 29q-18 15 -41 28 q-22 12 -37 26q-12 11 -12 25q0 5 1 10q3 14 16.5 31.5t29.5 33.5l45 48q-77 12 -132 45q-85 52 -126 141t-44 204z" />
<glyph unicode="&#xc8;" horiz-adv-x="890" d="M189 118q0 37 9 92l132 925q8 64 12 81q9 45 36 72.5t65.5 42t84.5 17.5l457 41q22 1 43 1q41 0 73 -12t47 -39q9 -16 9 -40q0 -13 -3 -30q-14 -64 -51.5 -93t-105.5 -29q-23 0 -56 5l-339 39l-150 -607l198 40q40 6 71 6q39 0 65 -26q19 -19 19 -47q0 -9 -2 -20 q-8 -39 -46.5 -72.5t-111.5 -36.5l-232 -2l-65 -268l353 65q45 8 88 8q39 0 57 -27q12 -18 12 -44q0 -15 -4 -32q-14 -67 -60.5 -99.5t-113.5 -32.5l-355 18q-94 0 -121 36q-15 20 -15 68zM683 1812q0 12 2 23q9 40 37.5 59t64.5 20q39 0 69.5 -24.5t37.5 -74.5l19 -203v-10 q0 -20 -3 -35q-6 -31 -27 -47.5t-45 -16.5q-25 0 -48.5 14.5t-34.5 45.5l-63 196q-9 29 -9 53z" />
<glyph unicode="&#xc9;" horiz-adv-x="890" d="M189 118q0 37 9 92l132 925q8 64 12 81q9 45 36 72.5t65.5 42t84.5 17.5l457 41q22 1 43 1q41 0 73 -12t47 -39q9 -16 9 -40q0 -13 -3 -30q-14 -64 -51.5 -93t-105.5 -29q-23 0 -56 5l-339 39l-150 -607l198 40q40 6 71 6q39 0 65 -26q19 -19 19 -47q0 -9 -2 -20 q-8 -39 -46.5 -72.5t-111.5 -36.5l-232 -2l-65 -268l353 65q45 8 88 8q39 0 57 -27q12 -18 12 -44q0 -15 -4 -32q-14 -67 -60.5 -99.5t-113.5 -32.5l-355 18q-94 0 -121 36q-15 20 -15 68zM721 1548q0 9 2 19q4 19 16 45l106 203q27 50 68.5 74.5t79.5 24.5q36 -1 57 -20 q14 -14 14 -38q0 -10 -2 -21q-7 -32 -39 -76l-147 -196q-24 -31 -53.5 -45.5t-54.5 -14.5q-24 0 -38 17q-9 11 -9 28z" />
<glyph unicode="&#xca;" horiz-adv-x="890" d="M189 118q0 37 9 92l132 925q8 64 12 81q9 45 36 72.5t65.5 42t84.5 17.5l457 41q22 1 43 1q41 0 73 -12t47 -39q9 -16 9 -40q0 -13 -3 -30q-14 -64 -51.5 -93t-105.5 -29q-23 0 -56 5l-339 39l-150 -607l198 40q40 6 71 6q39 0 65 -26q19 -19 19 -47q0 -9 -2 -20 q-8 -39 -46.5 -72.5t-111.5 -36.5l-232 -2l-65 -268l353 65q45 8 88 8q39 0 57 -27q12 -18 12 -44q0 -15 -4 -32q-14 -67 -60.5 -99.5t-113.5 -32.5l-355 18q-94 0 -121 36q-15 20 -15 68zM534 1546q0 8 2 17q6 27 28 58l117 158q52 71 98 93t103 23q56 0 96.5 -23t63.5 -95 l50 -159q6 -17 6 -33q0 -8 -2 -16q-7 -33 -32 -54t-55 -21q-36 0 -63 44l-98 181l-169 -176q-27 -26 -51 -37.5t-44 -11.5q-26 0 -40 20q-10 13 -10 32z" />
<glyph unicode="&#xcb;" horiz-adv-x="890" d="M189 118q0 37 9 92l132 925q8 64 12 81q9 45 36 72.5t65.5 42t84.5 17.5l457 41q22 1 43 1q41 0 73 -12t47 -39q9 -16 9 -40q0 -13 -3 -30q-14 -64 -51.5 -93t-105.5 -29q-23 0 -56 5l-339 39l-150 -607l198 40q40 6 71 6q39 0 65 -26q19 -19 19 -47q0 -9 -2 -20 q-8 -39 -46.5 -72.5t-111.5 -36.5l-232 -2l-65 -268l353 65q45 8 88 8q39 0 57 -27q12 -18 12 -44q0 -15 -4 -32q-14 -67 -60.5 -99.5t-113.5 -32.5l-355 18q-94 0 -121 36q-15 20 -15 68zM537 1604q0 15 3 30q13 62 59.5 101t105.5 39q58 0 84 -44q18 -30 18 -65 q0 -17 -4 -36q-13 -64 -61.5 -97t-105.5 -33q-40 0 -63.5 20t-31.5 51q-4 17 -4 34zM854 1604q0 15 3 30q13 62 59.5 101t105.5 39q57 0 84 -44q18 -29 18 -66q0 -17 -4 -35q-14 -64 -62.5 -97t-104.5 -33q-41 0 -64.5 20t-30.5 51q-4 17 -4 34z" />
<glyph unicode="&#xcc;" horiz-adv-x="460" d="M159 27v8q0 21 4 47l146 929l15 101q7 56 19 112q9 44 26.5 86.5t50.5 71.5t89 29q62 0 85 -31q20 -28 20 -71v-8q-2 -47 -12 -95q-15 -72 -42 -166q-9 -35 -16 -59l-219 -860q-8 -29 -19.5 -62.5t-32.5 -58.5t-56 -25q-32 0 -45 14t-13 38zM414 1812q0 12 2 23 q9 40 37.5 59t64.5 20q39 0 69.5 -24.5t37.5 -74.5l19 -203v-10q0 -20 -3 -35q-6 -31 -27 -47.5t-45 -16.5q-25 0 -48.5 14.5t-34.5 45.5l-63 196q-9 29 -9 53z" />
<glyph unicode="&#xcd;" horiz-adv-x="460" d="M159 27v8q0 21 4 47l146 929l15 101q7 56 19 112q9 44 26.5 86.5t50.5 71.5t89 29q62 0 85 -31q20 -28 20 -71v-8q-2 -47 -12 -95q-15 -72 -42 -166q-9 -35 -16 -59l-219 -860q-8 -29 -19.5 -62.5t-32.5 -58.5t-56 -25q-32 0 -45 14t-13 38zM452 1548q0 9 2 19 q4 19 16 45l106 203q27 50 68.5 74.5t79.5 24.5q36 -1 57 -20q14 -14 14 -38q0 -10 -2 -21q-7 -32 -39 -76l-147 -196q-24 -31 -53.5 -45.5t-54.5 -14.5q-24 0 -38 17q-9 11 -9 28z" />
<glyph unicode="&#xce;" horiz-adv-x="460" d="M159 27v8q0 21 4 47l146 929l15 101q7 56 19 112q9 44 26.5 86.5t50.5 71.5t89 29q62 0 85 -31q20 -28 20 -71v-8q-2 -47 -12 -95q-15 -72 -42 -166q-9 -35 -16 -59l-219 -860q-8 -29 -19.5 -62.5t-32.5 -58.5t-56 -25q-32 0 -45 14t-13 38zM265 1546q0 8 2 17 q6 27 28 58l117 158q52 71 98 93t103 23q56 0 96.5 -23t63.5 -95l50 -159q6 -17 6 -33q0 -8 -2 -16q-7 -33 -32 -54t-55 -21q-36 0 -63 44l-98 181l-169 -176q-27 -26 -51 -37.5t-44 -11.5q-26 0 -40 20q-10 13 -10 32z" />
<glyph unicode="&#xcf;" horiz-adv-x="460" d="M159 27v8q0 21 4 47l146 929l15 101q7 56 19 112q9 44 26.5 86.5t50.5 71.5t89 29q62 0 85 -31q20 -28 20 -71v-8q-2 -47 -12 -95q-15 -72 -42 -166q-9 -35 -16 -59l-219 -860q-8 -29 -19.5 -62.5t-32.5 -58.5t-56 -25q-32 0 -45 14t-13 38zM268 1604q0 15 3 30 q13 62 59.5 101t105.5 39q58 0 84 -44q18 -30 18 -65q0 -17 -4 -36q-13 -64 -61.5 -97t-105.5 -33q-40 0 -63.5 20t-31.5 51q-4 17 -4 34zM585 1604q0 15 3 30q13 62 59.5 101t105.5 39q57 0 84 -44q18 -29 18 -66q0 -17 -4 -35q-14 -64 -62.5 -97t-104.5 -33 q-41 0 -64.5 20t-30.5 51q-4 17 -4 34z" />
<glyph unicode="&#xd0;" horiz-adv-x="1194" d="M134 694q0 7 1 13q6 28 34 51t75 24h28l60 374q8 51 11 67q13 60 61.5 98t116 59.5t138.5 30t127 8.5q200 0 330.5 -72.5t180.5 -211.5q26 -75 26 -168q0 -79 -19 -171q-41 -192 -166 -372q-82 -122 -195 -225t-245 -167.5t-271 -64.5q-45 0 -100 8.5t-98 33.5 q-12 6 -20 14q-37 38 -37 111q0 32 7 70l70 434l-36 -2q-45 0 -64 22q-15 16 -15 36zM360 243q0 -26 11 -37q19 -20 99 -20q113 0 215.5 59t186 154t142 209.5t81.5 224.5q18 83 18 158v8q-1 78 -35 139t-111.5 96.5t-212.5 35.5q-65 0 -103 -19.5t-53 -72.5l-103 -397 l236 -1q46 -1 65 -18q15 -14 15 -32q0 -4 -1 -9q-5 -23 -30 -42t-69 -22l-251 -11l-72 -272l-6 -24q-10 -33 -17 -66q-5 -24 -5 -41z" />
<glyph unicode="&#xd1;" horiz-adv-x="1171" d="M115 75q0 25 7 56q10 44 38 140l280 1044q6 21 17.5 42.5t29.5 36t43 14.5q49 0 65 -46l334 -979l108 781q5 46 14 88t27.5 75.5t52.5 53t90 19.5q58 0 89 -32q21 -23 21 -59q0 -14 -3 -31q-18 -88 -41 -177l-232 -963q-9 -38 -24.5 -72t-41 -56t-63.5 -22 q-49 0 -79.5 36t-50 86t-31.5 97l-229 783l-124 -749q-8 -49 -19 -100q-9 -44 -29 -81t-53 -59.5t-80 -22.5q-56 0 -82.5 19t-31.5 53q-2 12 -2 25zM657 1637q0 24 5 48q6 32 29 54q25 25 59 27h3q28 0 44 -18q16 -16 16 -42v-8q-2 -26 -2 -35q17 7 82 41q51 30 107 51 q34 13 67 13q85 -4 112 -79q9 -31 9 -63q0 -23 -5 -48q-7 -32 -27 -55q-29 -28 -66 -28q-25 0 -41 16q-18 16 -18 43v17q0 15 -1 47q-18 -5 -43.5 -18.5t-52.5 -27.5q-50 -30 -105 -51q-32 -12 -62 -12q-81 4 -103 75q-7 26 -7 53z" />
<glyph unicode="&#xd2;" horiz-adv-x="1166" d="M170 476v9q1 97 20 185q21 98 59 204t95 204t134 176.5t175 125.5t220 47q129 0 213 -51.5t126.5 -143.5t46.5 -216v-29q0 -112 -27 -240q-33 -154 -97.5 -295.5t-154.5 -252t-201 -175t-236 -64.5q-103 0 -174.5 45t-115.5 120.5t-64 168.5q-19 89 -19 182zM362 395 q0 -61 12 -117q17 -74 64 -121.5t137 -47.5q75 0 152 52t145 138.5t118.5 193.5t74.5 216q26 125 26 227q0 17 -1 33q-5 115 -53.5 180.5t-146.5 65.5q-91 0 -164.5 -41.5t-130.5 -110t-98.5 -151.5t-70 -169t-43.5 -160q-15 -68 -20 -150q-1 -19 -1 -38zM760 1812 q0 12 2 23q9 40 37.5 59t64.5 20q39 0 69.5 -24.5t37.5 -74.5l19 -203v-10q0 -20 -3 -35q-6 -31 -27 -47.5t-45 -16.5q-25 0 -48.5 14.5t-34.5 45.5l-63 196q-9 29 -9 53z" />
<glyph unicode="&#xd3;" horiz-adv-x="1166" d="M170 476v9q1 97 20 185q21 98 59 204t95 204t134 176.5t175 125.5t220 47q129 0 213 -51.5t126.5 -143.5t46.5 -216v-29q0 -112 -27 -240q-33 -154 -97.5 -295.5t-154.5 -252t-201 -175t-236 -64.5q-103 0 -174.5 45t-115.5 120.5t-64 168.5q-19 89 -19 182zM362 395 q0 -61 12 -117q17 -74 64 -121.5t137 -47.5q75 0 152 52t145 138.5t118.5 193.5t74.5 216q26 125 26 227q0 17 -1 33q-5 115 -53.5 180.5t-146.5 65.5q-91 0 -164.5 -41.5t-130.5 -110t-98.5 -151.5t-70 -169t-43.5 -160q-15 -68 -20 -150q-1 -19 -1 -38zM798 1548q0 9 2 19 q4 19 16 45l106 203q27 50 68.5 74.5t79.5 24.5q36 -1 57 -20q14 -14 14 -38q0 -10 -2 -21q-7 -32 -39 -76l-147 -196q-24 -31 -53.5 -45.5t-54.5 -14.5q-24 0 -38 17q-9 11 -9 28z" />
<glyph unicode="&#xd4;" horiz-adv-x="1166" d="M170 476v9q1 97 20 185q21 98 59 204t95 204t134 176.5t175 125.5t220 47q129 0 213 -51.5t126.5 -143.5t46.5 -216v-29q0 -112 -27 -240q-33 -154 -97.5 -295.5t-154.5 -252t-201 -175t-236 -64.5q-103 0 -174.5 45t-115.5 120.5t-64 168.5q-19 89 -19 182zM362 395 q0 -61 12 -117q17 -74 64 -121.5t137 -47.5q75 0 152 52t145 138.5t118.5 193.5t74.5 216q26 125 26 227q0 17 -1 33q-5 115 -53.5 180.5t-146.5 65.5q-91 0 -164.5 -41.5t-130.5 -110t-98.5 -151.5t-70 -169t-43.5 -160q-15 -68 -20 -150q-1 -19 -1 -38zM611 1546q0 8 2 17 q6 27 28 58l117 158q52 71 98 93t103 23q56 0 96.5 -23t63.5 -95l50 -159q6 -17 6 -33q0 -8 -2 -16q-7 -33 -32 -54t-55 -21q-36 0 -63 44l-98 181l-169 -176q-27 -26 -51 -37.5t-44 -11.5q-26 0 -40 20q-10 13 -10 32z" />
<glyph unicode="&#xd5;" horiz-adv-x="1166" d="M170 476v9q1 97 20 185q21 98 59 204t95 204t134 176.5t175 125.5t220 47q129 0 213 -51.5t126.5 -143.5t46.5 -216v-29q0 -112 -27 -240q-33 -154 -97.5 -295.5t-154.5 -252t-201 -175t-236 -64.5q-103 0 -174.5 45t-115.5 120.5t-64 168.5q-19 89 -19 182zM362 395 q0 -61 12 -117q17 -74 64 -121.5t137 -47.5q75 0 152 52t145 138.5t118.5 193.5t74.5 216q26 125 26 227q0 17 -1 33q-5 115 -53.5 180.5t-146.5 65.5q-91 0 -164.5 -41.5t-130.5 -110t-98.5 -151.5t-70 -169t-43.5 -160q-15 -68 -20 -150q-1 -19 -1 -38zM642 1637 q0 24 5 48q6 32 29 54q25 25 59 27h3q28 0 44 -18q16 -16 16 -42v-8q-2 -26 -2 -35q17 7 82 41q51 30 107 51q34 13 67 13q85 -4 112 -79q9 -31 9 -63q0 -23 -5 -48q-7 -32 -27 -55q-29 -28 -66 -28q-25 0 -41 16q-18 16 -18 43v17q0 15 -1 47q-18 -5 -43.5 -18.5 t-52.5 -27.5q-50 -30 -105 -51q-32 -12 -62 -12q-81 4 -103 75q-7 26 -7 53z" />
<glyph unicode="&#xd6;" horiz-adv-x="1166" d="M170 476v9q1 97 20 185q21 98 59 204t95 204t134 176.5t175 125.5t220 47q129 0 213 -51.5t126.5 -143.5t46.5 -216v-29q0 -112 -27 -240q-33 -154 -97.5 -295.5t-154.5 -252t-201 -175t-236 -64.5q-103 0 -174.5 45t-115.5 120.5t-64 168.5q-19 89 -19 182zM362 395 q0 -61 12 -117q17 -74 64 -121.5t137 -47.5q75 0 152 52t145 138.5t118.5 193.5t74.5 216q26 125 26 227q0 17 -1 33q-5 115 -53.5 180.5t-146.5 65.5q-91 0 -164.5 -41.5t-130.5 -110t-98.5 -151.5t-70 -169t-43.5 -160q-15 -68 -20 -150q-1 -19 -1 -38zM614 1604 q0 15 3 30q13 62 59.5 101t105.5 39q58 0 84 -44q18 -30 18 -65q0 -17 -4 -36q-13 -64 -61.5 -97t-105.5 -33q-40 0 -63.5 20t-31.5 51q-4 17 -4 34zM931 1604q0 15 3 30q13 62 59.5 101t105.5 39q57 0 84 -44q18 -29 18 -66q0 -17 -4 -35q-14 -64 -62.5 -97t-104.5 -33 q-41 0 -64.5 20t-30.5 51q-4 17 -4 34z" />
<glyph unicode="&#xd7;" horiz-adv-x="892" d="M151 370q0 11 3 23q8 40 56 82l268 220l-173 238q-22 34 -22 64q0 5 1 11q8 35 31 55q18 15 43 15q7 0 14 -1q35 -4 67 -43l179 -225l275 225q48 39 85 43q7 1 14 1q25 0 37 -15q10 -13 10 -32q0 -11 -3 -23q-9 -35 -53 -75l-274 -238l175 -220q24 -33 24 -65 q0 -9 -2 -17q-9 -39 -39 -64q-27 -22 -62 -22q-41 0 -75 41l-162 224l-258 -224q-52 -41 -93 -41q-35 0 -52 22q-14 17 -14 41z" />
<glyph unicode="&#xd8;" horiz-adv-x="1166" d="M170 476v9q2 97 20 185q21 98 59 204t95 204t133.5 176.5t175 125.5t219.5 47q62 0 114 -12l14 30q26 51 70 75t84 24q34 0 54 -21q14 -15 14 -40q0 -10 -2 -21q-4 -20 -17 -44l-51 -96q37 -39 61 -90q42 -92 46 -216v-29q0 -112 -27 -240q-33 -154 -97.5 -295.5 t-154.5 -252t-201 -175t-236 -64.5q-59 0 -108 15l-43 -81q-21 -39 -44.5 -57t-45.5 -18q-28 0 -42 28q-5 10 -5 23q0 9 3 20q3 15 10 32l56 116q-42 37 -71 88q-44 75 -64 168q-19 89 -19 182zM362 395q0 -61 12 -117q9 -42 29 -76l486 1013q-91 0 -163.5 -41.5t-130 -110 t-99.5 -151.5t-69.5 -169t-43.5 -160q-15 -68 -20 -149q-1 -20 -1 -39zM511 116q29 -7 64 -7q75 0 152 52t145 138.5t119 193.5t74 216q27 126 27 228q0 17 -1 33q-5 97 -41 160z" />
<glyph unicode="&#xd9;" horiz-adv-x="1162" d="M228 442q0 88 9 179q12 121 31 232q20 114 39 201q10 47 24 103t37.5 108.5t59.5 87t88 34.5q123 -2 123 -114q0 -28 -8 -63q-8 -39 -20 -81q-45 -169 -87 -336q-27 -109 -51 -218q-16 -79 -23 -159q-2 -29 -2 -55q0 -49 7 -92q10 -67 42 -107.5t91 -40.5q71 0 128 48 t100.5 124.5t76 164t54 168.5t33.5 139q33 161 56 327q17 125 31 193q9 38 25 69t46.5 49.5t80.5 18.5t73 -19.5t25 -54.5q1 -8 1 -16q0 -29 -8 -64q-16 -78 -50 -190q-52 -174 -99 -325q-29 -98 -66 -206.5t-88 -211.5t-120 -186.5t-162 -134t-215 -50.5q-102 0 -162 57 t-88 151.5t-31 211.5q-1 29 -1 58zM762 1812q0 12 2 23q8 40 37 59t65 20q39 0 69.5 -24.5t36.5 -74.5l20 -203v-10q0 -20 -3 -35q-7 -31 -28 -47.5t-44 -16.5q-26 0 -49 14.5t-34 45.5l-63 196q-9 29 -9 53z" />
<glyph unicode="&#xda;" horiz-adv-x="1162" d="M228 442q0 88 9 179q12 121 31 232q20 114 39 201q10 47 24 103t37.5 108.5t59.5 87t88 34.5q123 -2 123 -114q0 -28 -8 -63q-8 -39 -20 -81q-45 -169 -87 -336q-27 -109 -51 -218q-16 -79 -23 -159q-2 -29 -2 -55q0 -49 7 -92q10 -67 42 -107.5t91 -40.5q71 0 128 48 t100.5 124.5t76 164t54 168.5t33.5 139q33 161 56 327q17 125 31 193q9 38 25 69t46.5 49.5t80.5 18.5t73 -19.5t25 -54.5q1 -8 1 -16q0 -29 -8 -64q-16 -78 -50 -190q-52 -174 -99 -325q-29 -98 -66 -206.5t-88 -211.5t-120 -186.5t-162 -134t-215 -50.5q-102 0 -162 57 t-88 151.5t-31 211.5q-1 29 -1 58zM799 1550q0 8 2 17q4 19 17 45l106 203q27 50 68 74.5t80 24.5q36 -1 56 -20q15 -14 15 -39q0 -9 -2 -20q-7 -32 -40 -76l-146 -196q-25 -31 -54 -45.5t-55 -14.5q-23 0 -37 17q-10 11 -10 30z" />
<glyph unicode="&#xdb;" horiz-adv-x="1162" d="M228 442q0 88 9 179q12 121 31 232q20 114 39 201q10 47 24 103t37.5 108.5t59.5 87t88 34.5q123 -2 123 -114q0 -28 -8 -63q-8 -39 -20 -81q-45 -169 -87 -336q-27 -109 -51 -218q-16 -79 -23 -159q-2 -29 -2 -55q0 -49 7 -92q10 -67 42 -107.5t91 -40.5q71 0 128 48 t100.5 124.5t76 164t54 168.5t33.5 139q33 161 56 327q17 125 31 193q9 38 25 69t46.5 49.5t80.5 18.5t73 -19.5t25 -54.5q1 -8 1 -16q0 -29 -8 -64q-16 -78 -50 -190q-52 -174 -99 -325q-29 -98 -66 -206.5t-88 -211.5t-120 -186.5t-162 -134t-215 -50.5q-102 0 -162 57 t-88 151.5t-31 211.5q-1 29 -1 58zM613 1545q0 8 2 18q5 27 27 58l117 158q53 71 99 93t102 23q57 0 97 -23t63 -95l51 -159q5 -17 5 -31q0 -10 -2 -18q-7 -33 -32 -54t-55 -21q-35 0 -62 44l-98 181l-170 -176q-26 -26 -50.5 -37.5t-43.5 -11.5q-26 0 -40 20q-10 13 -10 31 z" />
<glyph unicode="&#xdc;" horiz-adv-x="1162" d="M228 442q0 88 9 179q12 121 31 232q20 114 39 201q10 47 24 103t37.5 108.5t59.5 87t88 34.5q123 -2 123 -114q0 -28 -8 -63q-8 -39 -20 -81q-45 -169 -87 -336q-27 -109 -51 -218q-16 -79 -23 -159q-2 -29 -2 -55q0 -49 7 -92q10 -67 42 -107.5t91 -40.5q71 0 128 48 t100.5 124.5t76 164t54 168.5t33.5 139q33 161 56 327q17 125 31 193q9 38 25 69t46.5 49.5t80.5 18.5t73 -19.5t25 -54.5q1 -8 1 -16q0 -29 -8 -64q-16 -78 -50 -190q-52 -174 -99 -325q-29 -98 -66 -206.5t-88 -211.5t-120 -186.5t-162 -134t-215 -50.5q-102 0 -162 57 t-88 151.5t-31 211.5q-1 29 -1 58zM616 1602q0 16 3 32q13 62 59 101t106 39q57 0 84 -44q18 -30 18 -66q0 -17 -4 -35q-14 -64 -62.5 -97t-104.5 -33q-41 0 -64.5 20t-31.5 51q-3 16 -3 32zM932 1604q0 15 3 30q14 62 60 101t105 39q58 0 84 -44q19 -30 19 -67 q0 -16 -4 -34q-14 -64 -62.5 -97t-105.5 -33q-40 0 -63.5 20t-31.5 51q-4 17 -4 34z" />
<glyph unicode="&#xdd;" horiz-adv-x="932" d="M296 1299q0 19 3 37q10 40 40.5 66.5t94.5 26.5q71 0 109 -36.5t46 -120.5l53 -529l324 537q19 34 43.5 66t59 53t86.5 21q47 0 59 -22q8 -14 8 -33q0 -10 -2 -21q-7 -33 -27.5 -67.5t-38.5 -58.5l-421 -559q-27 -35 -54 -53l-42 -403q-3 -51 -14 -105q-10 -44 -29 -83 t-54 -63t-92 -24q-51 0 -76 18.5t-31 46.5q-3 14 -3 28q0 15 3 29q7 33 24 91l145 455q-20 12 -30 42l-178 608q-6 27 -6 53zM712 1550q0 8 2 17q4 19 17 45l106 203q27 50 68 74.5t80 24.5q36 -1 56 -20q15 -14 15 -39q0 -9 -2 -20q-7 -32 -40 -76l-146 -196 q-25 -31 -54 -45.5t-55 -14.5q-23 0 -37 17q-10 11 -10 30z" />
<glyph unicode="&#xde;" horiz-adv-x="933" d="M94 -174q0 15 3 32l246 1366q10 44 27 86.5t50 71.5t89 29q62 0 84 -31q21 -29 21 -71v-7q-1 -40 -8 -79q56 4 125 4q113 0 191.5 -44t111.5 -128q18 -48 18 -106q0 -46 -11 -99q-37 -172 -139 -309.5t-247.5 -229.5t-318.5 -130l-87 -320q-6 -24 -16.5 -47.5t-29 -39 t-48.5 -15.5q-44 0 -55 30q-6 17 -6 37zM398 402q96 0 200 66t184 171.5t105 222.5q7 31 7 59q0 26 -6 50q-12 49 -57 78t-132 29q-22 0 -60 -4t-63 -11z" />
<glyph unicode="&#xdf;" horiz-adv-x="1177" d="M103 68q0 23 6 49q6 22 15 51l210 735q27 94 69.5 191.5t105 180.5t150 135t204.5 52q163 0 241 -91q54 -63 54 -161q0 -44 -11 -95q-16 -73 -46 -128.5t-66 -98.5t-71 -79q-38 -38 -66 -73.5t-36 -74.5q-2 -9 -2 -17q0 -22 13 -40q19 -25 52.5 -47t75.5 -44t84 -48.5 t74.5 -60.5t47.5 -79q8 -24 8 -52q0 -24 -6 -52q-22 -104 -87 -170.5t-153 -98t-179 -31.5q-95 0 -180 27t-138 78q-21 23 -21 52q0 10 2 20q7 32 33 59q37 33 78 34q33 -1 56 -21q24 -23 73.5 -45t102.5 -22q45 0 81.5 17.5t47.5 67.5q1 5 1 9q0 22 -22 44 q-27 27 -62.5 49.5t-59.5 34.5l-6 4q-53 28 -99.5 65.5t-70.5 90.5q-14 31 -14 70q0 28 7 60q10 51 36 91t60.5 73.5t72.5 66.5q41 35 80 73.5t69 85.5t43 110q7 32 7 59q0 47 -21 79q-33 52 -112 52q-47 0 -95.5 -23t-88.5 -79t-62 -156l-171 -923q-18 -88 -71.5 -132.5 t-112.5 -44.5t-101 43q-29 29 -29 78z" />
<glyph unicode="&#xe0;" d="M135 313q0 33 8 71q33 154 157 246t287 92q55 0 113.5 -16t98.5 -43q42 241 47 377q1 20 1 37q0 108 -26 154q-31 54 -96 54q-55 0 -88 -22.5t-51.5 -59.5t-27.5 -80q-10 -48 -15 -97q-5 -44 -12 -80q-12 -55 -50 -95t-97 -40q-29 0 -53.5 15.5t-34.5 46.5q-6 16 -6 37 q0 19 5 42q16 77 70 178.5t119 164.5q52 54 117.5 86t145.5 32q115 0 182 -59t96.5 -158.5t31.5 -224.5v-38q0 -107 -14 -223q-16 -136 -41 -267t-48 -240q-10 -48 -28 -94.5t-50 -77t-86 -30.5q-55 0 -76 29q-19 26 -19 65v7q1 42 9 86l3 16q-68 -49 -159 -80.5t-181 -31.5 q-76 0 -133.5 36t-83.5 102q-15 38 -15 83zM377 335q0 -28 12 -50q18 -35 66 -35q71 0 131 25.5t101 54.5t56 43q15 74 28 140q-18 18 -61 37.5t-115 19.5q-66 0 -107.5 -27.5t-68 -74t-38.5 -101.5q-4 -17 -4 -32zM686 1813q0 12 2 23q8 40 37 59t65 20q39 0 69.5 -24.5 t36.5 -74.5l20 -203v-10q0 -20 -3 -35q-7 -31 -27.5 -47.5t-44.5 -16.5q-26 0 -49 14.5t-34 45.5l-63 196q-9 29 -9 53z" />
<glyph unicode="&#xe1;" d="M135 313q0 33 8 71q33 154 157 246t287 92q55 0 113.5 -16t98.5 -43q42 241 47 377q1 20 1 37q0 108 -26 154q-31 54 -96 54q-55 0 -88 -22.5t-51.5 -59.5t-27.5 -80q-10 -48 -15 -97q-5 -44 -12 -80q-12 -55 -50 -95t-97 -40q-29 0 -53.5 15.5t-34.5 46.5q-6 16 -6 37 q0 19 5 42q16 77 70 178.5t119 164.5q52 54 117.5 86t145.5 32q115 0 182 -59t96.5 -158.5t31.5 -224.5v-38q0 -107 -14 -223q-16 -136 -41 -267t-48 -240q-10 -48 -28 -94.5t-50 -77t-86 -30.5q-55 0 -76 29q-19 26 -19 65v7q1 42 9 86l3 16q-68 -49 -159 -80.5t-181 -31.5 q-76 0 -133.5 36t-83.5 102q-15 38 -15 83zM377 335q0 -28 12 -50q18 -35 66 -35q71 0 131 25.5t101 54.5t56 43q15 74 28 140q-18 18 -61 37.5t-115 19.5q-66 0 -107.5 -27.5t-68 -74t-38.5 -101.5q-4 -17 -4 -32zM723 1551q0 8 2 17q5 19 17 45l106 203q27 50 68 74.5 t80 24.5q36 -1 57 -20q14 -14 14 -38q0 -10 -2 -21q-7 -32 -40 -76l-146 -196q-24 -31 -53.5 -45.5t-55.5 -14.5q-23 0 -37 17q-10 11 -10 30z" />
<glyph unicode="&#xe2;" d="M135 313q0 33 8 71q33 154 157 246t287 92q55 0 113.5 -16t98.5 -43q42 241 47 377q1 20 1 37q0 108 -26 154q-31 54 -96 54q-55 0 -88 -22.5t-51.5 -59.5t-27.5 -80q-10 -48 -15 -97q-5 -44 -12 -80q-12 -55 -50 -95t-97 -40q-29 0 -53.5 15.5t-34.5 46.5q-6 16 -6 37 q0 19 5 42q16 77 70 178.5t119 164.5q52 54 117.5 86t145.5 32q115 0 182 -59t96.5 -158.5t31.5 -224.5v-38q0 -107 -14 -223q-16 -136 -41 -267t-48 -240q-10 -48 -28 -94.5t-50 -77t-86 -30.5q-55 0 -76 29q-19 26 -19 65v7q1 42 9 86l3 16q-68 -49 -159 -80.5t-181 -31.5 q-76 0 -133.5 36t-83.5 102q-15 38 -15 83zM377 335q0 -28 12 -50q18 -35 66 -35q71 0 131 25.5t101 54.5t56 43q15 74 28 140q-18 18 -61 37.5t-115 19.5q-66 0 -107.5 -27.5t-68 -74t-38.5 -101.5q-4 -17 -4 -32zM537 1547q0 8 2 17q6 27 28 58l117 158q52 71 98 93 t102 23q57 0 97 -23t63 -95l51 -159q5 -18 5 -34q0 -8 -1 -15q-8 -33 -33 -54t-55 -21q-35 0 -62 44l-98 181l-170 -176q-26 -26 -50 -37.5t-44 -11.5q-26 0 -40 20q-10 13 -10 32z" />
<glyph unicode="&#xe3;" d="M135 313q0 33 8 71q33 154 157 246t287 92q55 0 113.5 -16t98.5 -43q42 241 47 377q1 20 1 37q0 108 -26 154q-31 54 -96 54q-55 0 -88 -22.5t-51.5 -59.5t-27.5 -80q-10 -48 -15 -97q-5 -44 -12 -80q-12 -55 -50 -95t-97 -40q-29 0 -53.5 15.5t-34.5 46.5q-6 16 -6 37 q0 19 5 42q16 77 70 178.5t119 164.5q52 54 117.5 86t145.5 32q115 0 182 -59t96.5 -158.5t31.5 -224.5v-38q0 -107 -14 -223q-16 -136 -41 -267t-48 -240q-10 -48 -28 -94.5t-50 -77t-86 -30.5q-55 0 -76 29q-19 26 -19 65v7q1 42 9 86l3 16q-68 -49 -159 -80.5t-181 -31.5 q-76 0 -133.5 36t-83.5 102q-15 38 -15 83zM377 335q0 -28 12 -50q18 -35 66 -35q71 0 131 25.5t101 54.5t56 43q15 74 28 140q-18 18 -61 37.5t-115 19.5q-66 0 -107.5 -27.5t-68 -74t-38.5 -101.5q-4 -17 -4 -32zM568 1641q0 22 4 45q7 32 30 54q25 25 59 27h3 q28 0 44 -18q16 -16 16 -42v-8q-2 -26 -2 -35q17 7 81 41q52 30 107 51q35 13 68 13q85 -4 111 -79q9 -31 9 -65q0 -22 -4 -46q-7 -32 -27 -55q-29 -28 -66 -28q-25 0 -42 16t-17 43v17q0 15 -1 47q-18 -5 -44 -18.5t-53 -27.5q-49 -30 -104 -51q-32 -12 -62 -12 q-81 4 -103 75q-7 27 -7 56z" />
<glyph unicode="&#xe4;" d="M135 313q0 33 8 71q33 154 157 246t287 92q55 0 113.5 -16t98.5 -43q42 241 47 377q1 20 1 37q0 108 -26 154q-31 54 -96 54q-55 0 -88 -22.5t-51.5 -59.5t-27.5 -80q-10 -48 -15 -97q-5 -44 -12 -80q-12 -55 -50 -95t-97 -40q-29 0 -53.5 15.5t-34.5 46.5q-6 16 -6 37 q0 19 5 42q16 77 70 178.5t119 164.5q52 54 117.5 86t145.5 32q115 0 182 -59t96.5 -158.5t31.5 -224.5v-38q0 -107 -14 -223q-16 -136 -41 -267t-48 -240q-10 -48 -28 -94.5t-50 -77t-86 -30.5q-55 0 -76 29q-19 26 -19 65v7q1 42 9 86l3 16q-68 -49 -159 -80.5t-181 -31.5 q-76 0 -133.5 36t-83.5 102q-15 38 -15 83zM377 335q0 -28 12 -50q18 -35 66 -35q71 0 131 25.5t101 54.5t56 43q15 74 28 140q-18 18 -61 37.5t-115 19.5q-66 0 -107.5 -27.5t-68 -74t-38.5 -101.5q-4 -17 -4 -32zM540 1605q0 15 3 30q13 62 59.5 101t105.5 39q57 0 84 -44 q18 -30 18 -66q0 -17 -4 -35q-14 -64 -62.5 -97t-104.5 -33q-41 0 -64.5 20t-30.5 51q-4 17 -4 34zM857 1603q0 16 3 32q13 62 59 101t106 39q57 0 84 -44q18 -29 18 -66q0 -17 -4 -35q-14 -64 -62.5 -97t-104.5 -33q-41 0 -64.5 20t-31.5 51q-3 16 -3 32z" />
<glyph unicode="&#xe5;" d="M135 313q0 33 8 71q33 154 157 246t287 92q55 0 113.5 -16t98.5 -43q42 241 47 377q1 20 1 37q0 108 -26 154q-31 54 -96 54q-55 0 -88 -22.5t-51.5 -59.5t-27.5 -80q-10 -48 -15 -97q-5 -44 -12 -80q-12 -55 -50 -95t-97 -40q-29 0 -53.5 15.5t-34.5 46.5q-6 16 -6 37 q0 19 5 42q16 77 70 178.5t119 164.5q52 54 117.5 86t145.5 32q115 0 182 -59t96.5 -158.5t31.5 -224.5v-38q0 -107 -14 -223q-16 -136 -41 -267t-48 -240q-10 -48 -28 -94.5t-50 -77t-86 -30.5q-55 0 -76 29q-19 26 -19 65v7q1 42 9 86l3 16q-68 -49 -159 -80.5t-181 -31.5 q-76 0 -133.5 36t-83.5 102q-15 38 -15 83zM377 335q0 -28 12 -50q18 -35 66 -35q71 0 131 25.5t101 54.5t56 43q15 74 28 140q-18 18 -61 37.5t-115 19.5q-66 0 -107.5 -27.5t-68 -74t-38.5 -101.5q-4 -17 -4 -32zM635 1607q0 18 4 37q16 75 85 128t150 53q82 0 128 -53 q35 -40 35 -91q0 -18 -4 -37q-16 -75 -85 -128t-151 -53q-81 0 -128 53q-34 39 -34 91zM765 1618q0 -22 9 -39q14 -27 42 -27t54 27t34 65q3 14 3 26q0 22 -9 39q-14 27 -43 27q-28 0 -53.5 -27t-33.5 -65q-3 -14 -3 -26z" />
<glyph unicode="&#xe6;" horiz-adv-x="1526" d="M135 313q0 33 8 71q32 154 156.5 246t286.5 92q56 0 115 -16q35 -10 63 -23q17 68 41 141q14 42 30 84q9 75 11 133q1 19 1 36q0 108 -27 154q-31 54 -96 54q-54 0 -87 -22.5t-51.5 -59.5t-27.5 -80q-11 -48 -15 -97q-4 -44 -12 -80q-12 -55 -50 -95t-97 -40 q-30 0 -53.5 15.5t-34.5 46.5q-7 17 -7 39q0 18 5 40q17 77 71 178.5t119 164.5q53 54 118 86t145 32q115 0 182 -59q38 -34 87 -139q0 1 1 2q72 82 166.5 132t213.5 50q234 0 234 -305q0 -104 -27 -243q-27 -128 -102 -173q-58 -35 -127 -35q-26 0 -54 3l-304 38 q-10 -38 -15 -63q-9 -41 -14 -100q-3 -33 -3 -66q0 -27 2 -55q4 -63 21 -117t51 -88t91 -34q42 0 75.5 13t60 32t48.5 40q27 24 54 41.5t59 17.5q30 0 47 -22q12 -16 12 -36q0 -8 -2 -16q-12 -57 -61 -97.5t-114.5 -67t-130.5 -39t-108 -12.5q-129 0 -208.5 49t-116.5 133 q-8 17 -14 35q-127 -82 -203 -108q-91 -32 -180 -32q-76 0 -134 36t-84 102q-15 38 -15 83zM377 335q0 -28 12 -50q18 -35 66 -35q71 0 131 25.5t101 54.5q25 18 40 30q-1 15 -1 31v13q0 65 9 134q-11 6 -25 13q-43 19 -115 19q-67 0 -108 -27.5t-67.5 -74t-38.5 -101.5 q-4 -17 -4 -32zM1052 798l323 -2q47 224 47 343q0 136 -61 136q-57 0 -103 -45t-84 -117t-68 -154.5t-54 -160.5z" />
<glyph unicode="&#xe7;" horiz-adv-x="966" d="M168 401v8q0 110 25 227q19 88 58 193t95.5 208t130.5 188.5t162 137.5t189 52q79 0 131 -32t81 -85q38 -65 46 -181q3 -37 3 -70q0 -71 -12 -123q-10 -48 -34 -79.5t-55 -47t-61 -15.5q-59 0 -79 41q-13 25 -13 57q0 18 4 38q10 47 27 110q19 72 32 135q5 22 5 40 q0 29 -11 51q-17 36 -57 36q-62 0 -117.5 -54t-101.5 -136.5t-81 -173t-58 -169.5t-32 -121t-14 -104q-4 -41 -4 -85q0 -22 1 -44q2 -67 18.5 -125.5t50 -96t90.5 -37.5q42 0 75 13t59.5 32.5t49.5 39.5q27 24 53.5 41.5t57.5 17.5t48 -21q12 -16 12 -36q0 -8 -2 -17 q-11 -56 -60.5 -97t-115 -67t-130.5 -38q-38 -8 -69 -11l-77 -99q44 -27 70 -68q18 -29 18 -64q0 -16 -4 -34q-3 -13 -9 -27q-22 -49 -64.5 -77.5t-94.5 -40.5t-99 -12q-58 2 -58 50q0 10 3 22q6 29 28 51.5t58 22.5q12 0 38 2.5t49 10.5t26 23q1 5 1 10q0 18 -13 30 q-17 16 -40 29q-23 12 -38 26q-12 11 -12 25q0 4 1 9q3 15 16.5 32.5t29.5 33.5l47 50q-71 12 -122 47q-78 53 -114 143t-37 205z" />
<glyph unicode="&#xe8;" horiz-adv-x="969" d="M169 391v16q0 102 24 214q20 96 55 203t87.5 208.5t125 184t166.5 132.5t213 50q234 0 234 -305q0 -104 -27 -243q-27 -128 -102 -173q-59 -35 -127 -35q-26 0 -54 3l-304 38q-10 -38 -15 -63q-9 -41 -14 -100q-3 -33 -3 -67q0 -27 2 -55q4 -62 20.5 -116t51 -88 t91.5 -34q42 0 75 13t59.5 32t49.5 40q28 24 54.5 41.5t57.5 17.5t48 -22q12 -16 12 -35q0 -8 -2 -17q-12 -57 -61.5 -97.5t-114.5 -67t-130 -39t-108 -12.5q-129 0 -208.5 49t-116.5 133t-39 194zM494 798l324 -2q47 224 47 343q0 136 -61 136q-57 0 -103 -45t-83.5 -117 t-68 -154.5t-55.5 -160.5zM679 1815q0 11 2 21q9 40 37.5 59t65.5 20q38 0 69 -24.5t37 -74.5l19 -203q1 -9 1 -17q0 -15 -3 -28q-7 -31 -28 -47.5t-44 -16.5q-26 0 -49.5 14.5t-34.5 45.5l-63 196q-9 30 -9 55z" />
<glyph unicode="&#xe9;" horiz-adv-x="969" d="M169 391v16q0 102 24 214q20 96 55 203t87.5 208.5t125 184t166.5 132.5t213 50q234 0 234 -305q0 -104 -27 -243q-27 -128 -102 -173q-59 -35 -127 -35q-26 0 -54 3l-304 38q-10 -38 -15 -63q-9 -41 -14 -100q-3 -33 -3 -67q0 -27 2 -55q4 -62 20.5 -116t51 -88 t91.5 -34q42 0 75 13t59.5 32t49.5 40q28 24 54.5 41.5t57.5 17.5t48 -22q12 -16 12 -35q0 -8 -2 -17q-12 -57 -61.5 -97.5t-114.5 -67t-130 -39t-108 -12.5q-129 0 -208.5 49t-116.5 133t-39 194zM494 798l324 -2q47 224 47 343q0 136 -61 136q-57 0 -103 -45t-83.5 -117 t-68 -154.5t-55.5 -160.5zM717 1549q0 9 2 19q4 19 16 45l106 203q28 50 69 74.5t79 24.5q36 -1 57 -20q15 -13 15 -37q0 -10 -3 -22q-7 -32 -39 -76l-147 -196q-24 -31 -53 -45.5t-55 -14.5q-24 0 -38 17q-9 11 -9 28z" />
<glyph unicode="&#xea;" horiz-adv-x="969" d="M169 391v16q0 102 24 214q20 96 55 203t87.5 208.5t125 184t166.5 132.5t213 50q234 0 234 -305q0 -104 -27 -243q-27 -128 -102 -173q-59 -35 -127 -35q-26 0 -54 3l-304 38q-10 -38 -15 -63q-9 -41 -14 -100q-3 -33 -3 -67q0 -27 2 -55q4 -62 20.5 -116t51 -88 t91.5 -34q42 0 75 13t59.5 32t49.5 40q28 24 54.5 41.5t57.5 17.5t48 -22q12 -16 12 -35q0 -8 -2 -17q-12 -57 -61.5 -97.5t-114.5 -67t-130 -39t-108 -12.5q-129 0 -208.5 49t-116.5 133t-39 194zM494 798l324 -2q47 224 47 343q0 136 -61 136q-57 0 -103 -45t-83.5 -117 t-68 -154.5t-55.5 -160.5zM531 1545q0 9 2 19q5 27 27 58l117 158q52 71 98.5 93t102.5 23q56 0 96.5 -23t63.5 -95l50 -159q6 -17 6 -33q0 -8 -2 -16q-7 -33 -32 -54t-55 -21q-36 0 -62 44l-99 181l-169 -176q-26 -26 -50.5 -37.5t-44.5 -11.5q-26 0 -40 20q-9 13 -9 30z " />
<glyph unicode="&#xeb;" horiz-adv-x="969" d="M169 391v16q0 102 24 214q20 96 55 203t87.5 208.5t125 184t166.5 132.5t213 50q234 0 234 -305q0 -104 -27 -243q-27 -128 -102 -173q-59 -35 -127 -35q-26 0 -54 3l-304 38q-10 -38 -15 -63q-9 -41 -14 -100q-3 -33 -3 -67q0 -27 2 -55q4 -62 20.5 -116t51 -88 t91.5 -34q42 0 75 13t59.5 32t49.5 40q28 24 54.5 41.5t57.5 17.5t48 -22q12 -16 12 -35q0 -8 -2 -17q-12 -57 -61.5 -97.5t-114.5 -67t-130 -39t-108 -12.5q-129 0 -208.5 49t-116.5 133t-39 194zM494 798l324 -2q47 224 47 343q0 136 -61 136q-57 0 -103 -45t-83.5 -117 t-68 -154.5t-55.5 -160.5zM533 1605q0 15 3 30q14 62 60 101t105 39q58 0 84 -44q18 -30 18 -65q0 -17 -4 -36q-13 -64 -61.5 -97t-105.5 -33q-40 0 -63.5 20t-31.5 51q-4 17 -4 34zM850 1605q0 15 3 30q13 62 59.5 101t105.5 39q58 0 84 -44q18 -29 18 -65q0 -17 -4 -36 q-13 -64 -62 -97t-105 -33q-40 0 -63.5 20t-31.5 51q-4 17 -4 34z" />
<glyph unicode="&#xec;" horiz-adv-x="475" d="M126 85v4q0 43 10 87q12 55 28 112l28 101l250 929q8 31 18.5 55t29.5 38t51 14q35 0 46 -25q8 -21 8 -48v-11q-3 -33 -8 -62l-156 -920q-13 -93 -29 -165q-10 -48 -28 -95.5t-53.5 -78.5t-98.5 -31q-55 0 -76 29q-20 28 -20 67zM429 1815q0 11 2 21q9 40 37.5 59 t65.5 20q38 0 69 -24.5t37 -74.5l19 -203q1 -9 1 -17q0 -15 -3 -28q-7 -31 -28 -47.5t-44 -16.5q-26 0 -49.5 14.5t-34.5 45.5l-63 196q-9 30 -9 55z" />
<glyph unicode="&#xed;" horiz-adv-x="475" d="M126 85v4q0 43 10 87q12 55 28 112l28 101l250 929q8 31 18.5 55t29.5 38t51 14q35 0 46 -25q8 -21 8 -48v-11q-3 -33 -8 -62l-156 -920q-13 -93 -29 -165q-10 -48 -28 -95.5t-53.5 -78.5t-98.5 -31q-55 0 -76 29q-20 28 -20 67zM467 1549q0 9 2 19q4 19 16 45l106 203 q28 50 69 74.5t79 24.5q36 -1 57 -20q15 -13 15 -37q0 -10 -3 -22q-7 -32 -39 -76l-147 -196q-24 -31 -53 -45.5t-55 -14.5q-24 0 -38 17q-9 11 -9 28z" />
<glyph unicode="&#xee;" horiz-adv-x="475" d="M126 85v4q0 43 10 87q12 55 28 112l28 101l250 929q8 31 18.5 55t29.5 38t51 14q35 0 46 -25q8 -21 8 -48v-11q-3 -33 -8 -62l-156 -920q-13 -93 -29 -165q-10 -48 -28 -95.5t-53.5 -78.5t-98.5 -31q-55 0 -76 29q-20 28 -20 67zM281 1545q0 9 2 19q5 27 27 58l117 158 q52 71 98.5 93t102.5 23q56 0 96.5 -23t63.5 -95l50 -159q6 -17 6 -33q0 -8 -2 -16q-7 -33 -32 -54t-55 -21q-36 0 -62 44l-99 181l-169 -176q-26 -26 -50.5 -37.5t-44.5 -11.5q-26 0 -40 20q-9 13 -9 30z" />
<glyph unicode="&#xef;" horiz-adv-x="475" d="M126 85v4q0 43 10 87q12 55 28 112l28 101l250 929q8 31 18.5 55t29.5 38t51 14q35 0 46 -25q8 -21 8 -48v-11q-3 -33 -8 -62l-156 -920q-13 -93 -29 -165q-10 -48 -28 -95.5t-53.5 -78.5t-98.5 -31q-55 0 -76 29q-20 28 -20 67zM283 1605q0 15 3 30q14 62 60 101t105 39 q58 0 84 -44q18 -30 18 -65q0 -17 -4 -36q-13 -64 -61.5 -97t-105.5 -33q-40 0 -63.5 20t-31.5 51q-4 17 -4 34zM600 1605q0 15 3 30q13 62 59.5 101t105.5 39q58 0 84 -44q18 -29 18 -65q0 -17 -4 -36q-13 -64 -62 -97t-105 -33q-40 0 -63.5 20t-31.5 51q-4 17 -4 34z" />
<glyph unicode="&#xf0;" horiz-adv-x="1124" d="M142 690q0 6 1 13q7 30 35.5 54t77.5 25h21l54 416q2 16 5 32q13 60 62 98t116 59.5t138 30t128 8.5q299 0 409 -162q70 -103 70 -261q0 -91 -23 -200q-23 -108 -71.5 -222t-119 -219.5t-161 -189.5t-199 -134t-230.5 -50q-46 0 -101.5 5t-99 26t-55.5 68q-4 20 -4 43 q0 37 9 82l54 419l-34 -1q-47 0 -67 22q-15 17 -15 38zM379 219q0 -26 11 -37q17 -20 97 -20q113 0 202 59t154.5 154t109.5 209.5t67 224.5q18 87 20 171v6q0 79 -26 144q-27 67 -90.5 107t-175.5 40q-65 0 -103.5 -19.5t-52.5 -72.5l-91 -404l262 -1q48 -1 68 -19 q17 -15 17 -34q0 -4 -1 -9q-5 -24 -32 -44t-73 -23l-272 -11l-86 -380q-5 -24 -5 -41z" />
<glyph unicode="&#xf1;" horiz-adv-x="1174" d="M185 74q0 15 3 34l190 1191q11 60 58 90.5t101 30.5q57 0 90 -30q23 -22 23 -58q0 -16 -4 -34l-123 -479q81 172 171 306.5t187.5 213t203.5 78.5q90 0 137 -59t61 -159q9 -59 9 -128q0 -45 -4 -95q-9 -123 -33 -254q-13 -75 -29 -148q-11 -52 -23 -103 q-29 -121 -53 -216q-17 -66 -28 -112q-18 -67 -68 -102t-102 -35t-84 33q-22 22 -22 62q0 18 5 40q11 46 34 126.5t55 207.5t63 264q8 36 15 72q20 96 35 183q19 119 18.5 194.5t-31.5 75.5q-58 0 -128 -65.5t-143 -172.5t-229.5 -437t-188.5 -480q-13 -57 -42 -86t-67 -29 q-28 0 -45 28q-12 19 -12 52zM684 1639q0 23 5 47q7 32 29 54q26 25 59 27h3q28 0 44 -18q17 -17 17 -44v-6q-3 -26 -3 -35q18 7 82 41q51 30 107 51q35 13 68 13q85 -4 111 -79q9 -31 9 -63q0 -23 -5 -48q-7 -32 -27 -55q-29 -28 -66 -28q-25 0 -41 16q-18 17 -18 46v3 q1 5 1 20q0 14 -1 38q-18 -5 -44 -18.5t-53 -27.5q-50 -30 -105 -51q-32 -12 -62 -12q-81 4 -103 75q-7 26 -7 54z" />
<glyph unicode="&#xf2;" horiz-adv-x="1146" d="M170 407q0 106 27 231q32 153 96.5 294.5t155 252.5t201 175.5t236.5 64.5q103 0 174.5 -45.5t115.5 -121t64 -168.5q18 -85 18 -172v-18q-1 -98 -19 -185q-21 -99 -58.5 -201.5t-93.5 -196t-132 -167.5t-173.5 -117.5t-218.5 -43.5q-173 0 -267.5 81.5t-117.5 227.5 q-8 52 -8 109zM339 464q0 -21 1 -41q7 -107 57 -165t148 -58q91 0 164 38.5t129 102.5t96.5 142.5t68 161t43.5 156.5q14 68 19 150q1 20 1 39q0 61 -12 117q-16 73 -63 121t-137 48q-76 0 -152.5 -52t-144.5 -138.5t-119 -193.5t-74 -217q-25 -118 -25 -211zM774 1813 q0 12 2 23q8 40 37 59t65 20q39 0 69.5 -24.5t36.5 -74.5l20 -203v-10q0 -20 -3 -35q-7 -31 -27.5 -47.5t-44.5 -16.5q-26 0 -49 14.5t-34 45.5l-63 196q-9 29 -9 53z" />
<glyph unicode="&#xf3;" horiz-adv-x="1146" d="M170 407q0 106 27 231q32 153 96.5 294.5t155 252.5t201 175.5t236.5 64.5q103 0 174.5 -45.5t115.5 -121t64 -168.5q18 -85 18 -172v-18q-1 -98 -19 -185q-21 -99 -58.5 -201.5t-93.5 -196t-132 -167.5t-173.5 -117.5t-218.5 -43.5q-173 0 -267.5 81.5t-117.5 227.5 q-8 52 -8 109zM339 464q0 -21 1 -41q7 -107 57 -165t148 -58q91 0 164 38.5t129 102.5t96.5 142.5t68 161t43.5 156.5q14 68 19 150q1 20 1 39q0 61 -12 117q-16 73 -63 121t-137 48q-76 0 -152.5 -52t-144.5 -138.5t-119 -193.5t-74 -217q-25 -118 -25 -211zM811 1551 q0 8 2 17q5 19 17 45l106 203q27 50 68 74.5t80 24.5q36 -1 57 -20q14 -14 14 -38q0 -10 -2 -21q-7 -32 -40 -76l-146 -196q-24 -31 -53.5 -45.5t-55.5 -14.5q-23 0 -37 17q-10 11 -10 30z" />
<glyph unicode="&#xf4;" horiz-adv-x="1146" d="M170 407q0 106 27 231q32 153 96.5 294.5t155 252.5t201 175.5t236.5 64.5q103 0 174.5 -45.5t115.5 -121t64 -168.5q18 -85 18 -172v-18q-1 -98 -19 -185q-21 -99 -58.5 -201.5t-93.5 -196t-132 -167.5t-173.5 -117.5t-218.5 -43.5q-173 0 -267.5 81.5t-117.5 227.5 q-8 52 -8 109zM339 464q0 -21 1 -41q7 -107 57 -165t148 -58q91 0 164 38.5t129 102.5t96.5 142.5t68 161t43.5 156.5q14 68 19 150q1 20 1 39q0 61 -12 117q-16 73 -63 121t-137 48q-76 0 -152.5 -52t-144.5 -138.5t-119 -193.5t-74 -217q-25 -118 -25 -211zM625 1547 q0 8 2 17q6 27 28 58l117 158q52 71 98 93t102 23q57 0 97 -23t63 -95l51 -159q5 -18 5 -34q0 -8 -1 -15q-8 -33 -33 -54t-55 -21q-35 0 -62 44l-98 181l-170 -176q-26 -26 -50 -37.5t-44 -11.5q-26 0 -40 20q-10 13 -10 32z" />
<glyph unicode="&#xf5;" horiz-adv-x="1146" d="M170 407q0 106 27 231q32 153 96.5 294.5t155 252.5t201 175.5t236.5 64.5q103 0 174.5 -45.5t115.5 -121t64 -168.5q18 -85 18 -172v-18q-1 -98 -19 -185q-21 -99 -58.5 -201.5t-93.5 -196t-132 -167.5t-173.5 -117.5t-218.5 -43.5q-173 0 -267.5 81.5t-117.5 227.5 q-8 52 -8 109zM339 464q0 -21 1 -41q7 -107 57 -165t148 -58q91 0 164 38.5t129 102.5t96.5 142.5t68 161t43.5 156.5q14 68 19 150q1 20 1 39q0 61 -12 117q-16 73 -63 121t-137 48q-76 0 -152.5 -52t-144.5 -138.5t-119 -193.5t-74 -217q-25 -118 -25 -211zM656 1641 q0 22 4 45q7 32 30 54q25 25 59 27h3q28 0 44 -18q16 -16 16 -42v-8q-2 -26 -2 -35q17 7 81 41q52 30 107 51q35 13 68 13q85 -4 111 -79q9 -31 9 -65q0 -22 -4 -46q-7 -32 -27 -55q-29 -28 -66 -28q-25 0 -42 16t-17 43v17q0 15 -1 47q-18 -5 -44 -18.5t-53 -27.5 q-49 -30 -104 -51q-32 -12 -62 -12q-81 4 -103 75q-7 27 -7 56z" />
<glyph unicode="&#xf6;" horiz-adv-x="1146" d="M170 407q0 106 27 231q32 153 96.5 294.5t155 252.5t201 175.5t236.5 64.5q103 0 174.5 -45.5t115.5 -121t64 -168.5q18 -85 18 -172v-18q-1 -98 -19 -185q-21 -99 -58.5 -201.5t-93.5 -196t-132 -167.5t-173.5 -117.5t-218.5 -43.5q-173 0 -267.5 81.5t-117.5 227.5 q-8 52 -8 109zM339 464q0 -21 1 -41q7 -107 57 -165t148 -58q91 0 164 38.5t129 102.5t96.5 142.5t68 161t43.5 156.5q14 68 19 150q1 20 1 39q0 61 -12 117q-16 73 -63 121t-137 48q-76 0 -152.5 -52t-144.5 -138.5t-119 -193.5t-74 -217q-25 -118 -25 -211zM628 1605 q0 15 3 30q13 62 59.5 101t105.5 39q57 0 84 -44q18 -30 18 -66q0 -17 -4 -35q-14 -64 -62.5 -97t-104.5 -33q-41 0 -64.5 20t-30.5 51q-4 17 -4 34zM945 1603q0 16 3 32q13 62 59 101t106 39q57 0 84 -44q18 -29 18 -66q0 -17 -4 -35q-14 -64 -62.5 -97t-104.5 -33 q-41 0 -64.5 20t-31.5 51q-3 16 -3 32z" />
<glyph unicode="&#xf7;" horiz-adv-x="960" d="M215 673q0 8 2 16q7 34 40.5 62.5t91.5 29.5l594 -2q55 -2 79 -23q19 -18 19 -38q0 -6 -1 -11q-6 -29 -37 -52.5t-85 -26.5l-607 -25q-55 0 -78 26q-18 20 -18 44zM374 223q0 20 5 42q16 75 74 114.5t125 39.5q48 0 76 -23.5t37 -60.5q5 -20 5 -40q0 -18 -4 -37 q-16 -73 -71 -119.5t-125 -46.5q-69 0 -100 52q-22 35 -22 79zM560 1095q0 20 4 41q16 76 74 115.5t125 39.5q48 0 76 -23.5t37 -60.5q5 -19 5 -40q0 -18 -4 -37q-15 -74 -70 -120t-126 -46q-68 0 -100 52q-21 36 -21 79z" />
<glyph unicode="&#xf8;" horiz-adv-x="1146" d="M170 407q0 106 27 231q32 153 96.5 294.5t154.5 252.5t201 175.5t237 64.5q43 0 81 -8l13 28q26 51 70 75t84 24q34 0 54 -21q14 -15 14 -40q0 -10 -2 -21q-4 -20 -17 -44l-52 -98q25 -28 45 -61q43 -76 64 -169q19 -89 19 -181v-9q-2 -98 -20 -185q-21 -99 -59 -201.5 t-93.5 -196t-131.5 -167.5t-173.5 -117.5t-218.5 -43.5q-73 0 -132 15l-59 -110q-21 -39 -44.5 -57t-45.5 -18q-28 0 -42 28q-5 10 -5 23q0 9 3 20q3 15 10 32l65 135q-9 6 -18 14q-94 81 -117 227q-8 52 -8 109zM339 460q0 -19 1 -37q7 -107 57 -165q4 -5 8 -9l492 1024 q-20 3 -43 3q-76 0 -153 -52t-144.5 -138.5t-118 -193.5t-74.5 -217q-25 -121 -25 -215zM535 200h11q91 0 163.5 38.5t128.5 102.5t96.5 142.5t68.5 161t43 156.5q15 68 20 150q1 19 1 37q0 62 -13 119q-5 23 -13 43z" />
<glyph unicode="&#xf9;" horiz-adv-x="1173" d="M211 335q0 44 4 93q9 123 33 254q13 73 28 143q12 55 24 108q29 121 54 216q17 66 28 112q18 67 67.5 102t102.5 35q52 0 84 -33q22 -23 22 -62q0 -18 -5 -40q-4 -17 -12 -42q-18 -62 -46.5 -161.5t-58.5 -217.5q-25 -99 -46 -197q-29 -140 -43 -257q-5 -49 -5 -89 q0 -39 5 -70q11 -61 53 -61q57 0 121.5 62.5t129 161.5t157.5 334q93 234 159 544q9 43 27 78.5t50 57.5t83 22q62 0 85 -32q20 -28 20 -70v-8q-2 -47 -12 -95q-15 -72 -42 -166l-235 -920q-7 -28 -18.5 -61.5t-33 -59t-56.5 -25.5q-32 0 -45 14.5t-13 38.5v8q0 21 4 46 l65 410q-56 -96 -115 -188t-124 -167.5t-136.5 -121t-151.5 -45.5q-91 0 -137.5 59.5t-61.5 159.5q-9 60 -9 130zM780 1815q0 11 2 21q9 40 37.5 59t65.5 20q38 0 69 -24.5t37 -74.5l19 -203q1 -9 1 -17q0 -15 -3 -28q-7 -31 -28 -47.5t-44 -16.5q-26 0 -49.5 14.5 t-34.5 45.5l-63 196q-9 30 -9 55z" />
<glyph unicode="&#xfa;" horiz-adv-x="1173" d="M211 335q0 44 4 93q9 123 33 254q13 73 28 143q12 55 24 108q29 121 54 216q17 66 28 112q18 67 67.5 102t102.5 35q52 0 84 -33q22 -23 22 -62q0 -18 -5 -40q-4 -17 -12 -42q-18 -62 -46.5 -161.5t-58.5 -217.5q-25 -99 -46 -197q-29 -140 -43 -257q-5 -49 -5 -89 q0 -39 5 -70q11 -61 53 -61q57 0 121.5 62.5t129 161.5t157.5 334q93 234 159 544q9 43 27 78.5t50 57.5t83 22q62 0 85 -32q20 -28 20 -70v-8q-2 -47 -12 -95q-15 -72 -42 -166l-235 -920q-7 -28 -18.5 -61.5t-33 -59t-56.5 -25.5q-32 0 -45 14.5t-13 38.5v8q0 21 4 46 l65 410q-56 -96 -115 -188t-124 -167.5t-136.5 -121t-151.5 -45.5q-91 0 -137.5 59.5t-61.5 159.5q-9 60 -9 130zM818 1549q0 9 2 19q4 19 16 45l106 203q28 50 69 74.5t79 24.5q36 -1 57 -20q15 -13 15 -37q0 -10 -3 -22q-7 -32 -39 -76l-147 -196q-24 -31 -53 -45.5 t-55 -14.5q-24 0 -38 17q-9 11 -9 28z" />
<glyph unicode="&#xfb;" horiz-adv-x="1173" d="M211 335q0 44 4 93q9 123 33 254q13 73 28 143q12 55 24 108q29 121 54 216q17 66 28 112q18 67 67.5 102t102.5 35q52 0 84 -33q22 -23 22 -62q0 -18 -5 -40q-4 -17 -12 -42q-18 -62 -46.5 -161.5t-58.5 -217.5q-25 -99 -46 -197q-29 -140 -43 -257q-5 -49 -5 -89 q0 -39 5 -70q11 -61 53 -61q57 0 121.5 62.5t129 161.5t157.5 334q93 234 159 544q9 43 27 78.5t50 57.5t83 22q62 0 85 -32q20 -28 20 -70v-8q-2 -47 -12 -95q-15 -72 -42 -166l-235 -920q-7 -28 -18.5 -61.5t-33 -59t-56.5 -25.5q-32 0 -45 14.5t-13 38.5v8q0 21 4 46 l65 410q-56 -96 -115 -188t-124 -167.5t-136.5 -121t-151.5 -45.5q-91 0 -137.5 59.5t-61.5 159.5q-9 60 -9 130zM632 1545q0 9 2 19q5 27 27 58l117 158q52 71 98.5 93t102.5 23q56 0 96.5 -23t63.5 -95l50 -159q6 -17 6 -33q0 -8 -2 -16q-7 -33 -32 -54t-55 -21 q-36 0 -62 44l-99 181l-169 -176q-26 -26 -50.5 -37.5t-44.5 -11.5q-26 0 -40 20q-9 13 -9 30z" />
<glyph unicode="&#xfc;" horiz-adv-x="1173" d="M211 335q0 44 4 93q9 123 33 254q13 73 28 143q12 55 24 108q29 121 54 216q17 66 28 112q18 67 67.5 102t102.5 35q52 0 84 -33q22 -23 22 -62q0 -18 -5 -40q-4 -17 -12 -42q-18 -62 -46.5 -161.5t-58.5 -217.5q-25 -99 -46 -197q-29 -140 -43 -257q-5 -49 -5 -89 q0 -39 5 -70q11 -61 53 -61q57 0 121.5 62.5t129 161.5t157.5 334q93 234 159 544q9 43 27 78.5t50 57.5t83 22q62 0 85 -32q20 -28 20 -70v-8q-2 -47 -12 -95q-15 -72 -42 -166l-235 -920q-7 -28 -18.5 -61.5t-33 -59t-56.5 -25.5q-32 0 -45 14.5t-13 38.5v8q0 21 4 46 l65 410q-56 -96 -115 -188t-124 -167.5t-136.5 -121t-151.5 -45.5q-91 0 -137.5 59.5t-61.5 159.5q-9 60 -9 130zM634 1605q0 15 3 30q14 62 60 101t105 39q58 0 84 -44q18 -30 18 -65q0 -17 -4 -36q-13 -64 -61.5 -97t-105.5 -33q-40 0 -63.5 20t-31.5 51q-4 17 -4 34z M951 1605q0 15 3 30q13 62 59.5 101t105.5 39q58 0 84 -44q18 -29 18 -65q0 -17 -4 -36q-13 -64 -62 -97t-105 -33q-40 0 -63.5 20t-31.5 51q-4 17 -4 34z" />
<glyph unicode="&#xfd;" horiz-adv-x="845" d="M280 1337q0 18 4 36q7 31 29 53.5t69 22.5q51 0 77.5 -21t37 -53t13.5 -67l65 -537l278 530q44 84 97.5 120.5t124.5 36.5q63 0 83 -27q14 -19 14 -46q0 -10 -2 -21q-10 -43 -41 -90l-436 -607q-23 -30 -49 -43l-48 -455q-7 -57 -15 -90q-6 -29 -24 -57.5t-51 -47 t-83 -18.5q-57 0 -82 24.5t-27 63.5q-1 10 -1 19q0 30 7 63q12 54 30 106l130 403q-20 17 -32 53l-152 559q-7 24 -13 58q-3 16 -3 32zM673 1551q0 8 2 17q5 19 17 45l106 203q27 50 68 74.5t80 24.5q36 -1 57 -20q14 -14 14 -38q0 -10 -2 -21q-7 -32 -40 -76l-146 -196 q-24 -31 -53.5 -45.5t-55.5 -14.5q-23 0 -37 17q-10 11 -10 30z" />
<glyph unicode="&#xfe;" horiz-adv-x="959" d="M107 71q0 42 9 86q12 56 28 112q141 425 183 617q36 172 80 542q5 34 12 67q11 47 29 85.5t50 62.5t80 24q53 0 79.5 -21t32.5 -55q2 -14 2 -29q0 -22 -5 -47q-8 -39 -19 -80q64 8 131 9q61 0 118 -10q78 -14 134.5 -55.5t80.5 -118.5q11 -37 11 -84q0 -51 -13 -115 q-35 -164 -138.5 -294t-250 -217t-315.5 -122l-15 -87q-12 -94 -28 -166q-10 -48 -28 -95.5t-53.5 -78.5t-98.5 -31q-55 0 -75.5 29t-20.5 72zM451 581q74 14 140 45q139 68 226 183t116 248q6 27 6 51q0 30 -10 54q-17 42 -56.5 63t-93.5 21q-83 0 -165 -21 q-71 -180 -105 -335q-26 -124 -58 -309z" />
<glyph unicode="&#xff;" horiz-adv-x="845" d="M280 1337q0 18 4 36q7 31 29 53.5t69 22.5q51 0 77.5 -21t37 -53t13.5 -67l65 -537l278 530q44 84 97.5 120.5t124.5 36.5q63 0 83 -27q14 -19 14 -46q0 -10 -2 -21q-10 -43 -41 -90l-436 -607q-23 -30 -49 -43l-48 -455q-7 -57 -15 -90q-6 -29 -24 -57.5t-51 -47 t-83 -18.5q-57 0 -82 24.5t-27 63.5q-1 10 -1 19q0 30 7 63q12 54 30 106l130 403q-20 17 -32 53l-152 559q-7 24 -13 58q-3 16 -3 32zM490 1605q0 15 3 30q13 62 59.5 101t105.5 39q57 0 84 -44q18 -30 18 -66q0 -17 -4 -35q-14 -64 -62.5 -97t-104.5 -33q-41 0 -64.5 20 t-30.5 51q-4 17 -4 34zM807 1603q0 16 3 32q13 62 59 101t106 39q57 0 84 -44q18 -29 18 -66q0 -17 -4 -35q-14 -64 -62.5 -97t-104.5 -33q-41 0 -64.5 20t-31.5 51q-3 16 -3 32z" />
<glyph unicode="&#x2c6;" horiz-adv-x="698" d="M401 1547q0 8 2 17q6 27 28 58l117 158q52 71 98 93t102 23q57 0 97 -23t63 -95l51 -159q5 -18 5 -34q0 -8 -1 -15q-8 -33 -33 -54t-55 -21q-35 0 -62 44l-98 181l-170 -176q-26 -26 -50 -37.5t-44 -11.5q-26 0 -40 20q-10 13 -10 32z" />
<glyph unicode="&#x2dc;" horiz-adv-x="684" d="M424 1641q0 22 4 45q7 32 30 54q25 25 59 27h3q28 0 44 -18q16 -16 16 -42v-8q-2 -26 -2 -35q17 7 81 41q52 30 107 51q35 13 68 13q85 -4 111 -79q9 -31 9 -65q0 -22 -4 -46q-7 -32 -27 -55q-29 -28 -66 -28q-25 0 -42 16t-17 43v17q0 15 -1 47q-18 -5 -44 -18.5 t-53 -27.5q-49 -30 -104 -51q-32 -12 -62 -12q-81 4 -103 75q-7 27 -7 56z" />
<glyph unicode="&#x2000;" horiz-adv-x="957" />
<glyph unicode="&#x2001;" horiz-adv-x="1915" />
<glyph unicode="&#x2002;" horiz-adv-x="957" />
<glyph unicode="&#x2003;" horiz-adv-x="1915" />
<glyph unicode="&#x2004;" horiz-adv-x="638" />
<glyph unicode="&#x2005;" horiz-adv-x="478" />
<glyph unicode="&#x2006;" horiz-adv-x="319" />
<glyph unicode="&#x2007;" horiz-adv-x="319" />
<glyph unicode="&#x2008;" horiz-adv-x="239" />
<glyph unicode="&#x2009;" horiz-adv-x="383" />
<glyph unicode="&#x200a;" horiz-adv-x="106" />
<glyph unicode="&#x2010;" horiz-adv-x="857" d="M153 673q0 8 2 16q7 34 40.5 62.5t91.5 29.5l594 -2q55 -2 79 -23q19 -18 19 -38q0 -6 -1 -11q-6 -29 -37 -52.5t-85 -26.5l-607 -25q-55 0 -78 26q-18 20 -18 44z" />
<glyph unicode="&#x2011;" horiz-adv-x="857" d="M153 673q0 8 2 16q7 34 40.5 62.5t91.5 29.5l594 -2q55 -2 79 -23q19 -18 19 -38q0 -6 -1 -11q-6 -29 -37 -52.5t-85 -26.5l-607 -25q-55 0 -78 26q-18 20 -18 44z" />
<glyph unicode="&#x2012;" horiz-adv-x="857" d="M153 673q0 8 2 16q7 34 40.5 62.5t91.5 29.5l594 -2q55 -2 79 -23q19 -18 19 -38q0 -6 -1 -11q-6 -29 -37 -52.5t-85 -26.5l-607 -25q-55 0 -78 26q-18 20 -18 44z" />
<glyph unicode="&#x2013;" horiz-adv-x="1253" d="M157 697q0 9 2 19q7 34 35.5 62.5t74.5 29.5l967 -3q45 -1 63 -22q14 -16 14 -36q0 -7 -2 -14q-6 -28 -31.5 -51.5t-69.5 -26.5l-979 -25q-44 0 -62 26q-12 18 -12 41z" />
<glyph unicode="&#x2014;" horiz-adv-x="1945" d="M157 697q0 9 2 19q7 34 35.5 62.5t74.5 29.5l1750 -3q45 -1 63 -22q14 -16 14 -36q0 -7 -2 -14q-6 -28 -31.5 -51.5t-69.5 -26.5l-1762 -25q-44 0 -62 26q-12 18 -12 41z" />
<glyph unicode="&#x2018;" horiz-adv-x="403" d="M118 855v12q0 18 2 30q21 98 89 205.5t155 205t168 169.5q27 25 57 25t50 -20q15 -15 15 -36q0 -7 -2 -15q-3 -18 -14 -33t-27 -32q-67 -69 -112 -143t-63 -161q-5 -21 -5 -41v-6q2 -22 5 -42t4 -40v-7q0 -17 -4 -36q-16 -76 -73.5 -115t-128.5 -39q-46 0 -70.5 19 t-35 46.5t-10.5 53.5z" />
<glyph unicode="&#x2019;" horiz-adv-x="403" d="M100 793q0 7 1 14q4 18 14.5 33t27.5 32q67 69 112 143t63 161q4 21 4 40v7q-1 22 -4 42t-4 40v7q0 17 4 36q16 76 73 115t128 39q46 0 71 -19t35 -46.5t11 -53.5v-10q0 -19 -3 -32q-21 -98 -89 -205.5t-154.5 -205t-168.5 -169.5q-27 -25 -57 -25t-50 20q-14 15 -14 37z " />
<glyph unicode="&#x201a;" horiz-adv-x="403" d="M-158 -424q0 8 2 16q4 18 14.5 33t26.5 32q68 68 112.5 142.5t63.5 160.5q4 22 4 41v7q-1 21 -4 42q-3 20 -4 40q-1 6 -1 12q0 14 4 30q16 76 73.5 115.5t128.5 39.5q46 0 71 -19.5t35 -46.5t10.5 -53t-2.5 -42q-21 -98 -89 -205.5t-155 -205.5t-168 -169 q-27 -25 -57 -25t-50 20q-15 14 -15 35z" />
<glyph unicode="&#x201c;" horiz-adv-x="824" d="M118 855v10q0 19 3 32q20 98 88.5 205.5t155 205t168.5 169.5q27 25 57 25t49 -20q15 -15 15 -37q0 -7 -1 -14q-4 -18 -14.5 -33t-27.5 -32q-67 -69 -112 -143t-63 -161q-4 -19 -4 -36v-11q1 -22 4 -42t4 -40v-7q0 -17 -4 -36q-16 -76 -73 -115t-128 -39q-46 0 -71 19 t-35 46.5t-11 53.5zM540 855v12q0 18 2 30q21 98 89 205.5t155 205t168 169.5q27 25 57 25t50 -20q15 -14 15 -35q0 -8 -2 -16q-4 -18 -14.5 -33t-26.5 -32q-68 -69 -112.5 -143t-63.5 -161q-4 -21 -4 -40v-7q1 -22 4 -42t4 -40q1 -6 1 -12q0 -14 -4 -30 q-16 -76 -73.5 -115.5t-128.5 -39.5q-46 0 -71 19t-35 46.5t-10 53.5z" />
<glyph unicode="&#x201d;" horiz-adv-x="832" d="M100 792q0 7 2 15q3 18 14 33t27 32q67 69 112 143t63 161q5 21 5 41v6q-2 22 -5 42t-4 40v7q0 17 4 36q16 76 73 115t128 39q47 0 71.5 -19t35 -46.5t10.5 -53.5v-12q0 -18 -2 -30q-21 -98 -89.5 -205.5t-155 -205t-167.5 -169.5q-27 -25 -57 -25t-50 20q-15 15 -15 36z M529 792q0 7 2 15q4 18 14.5 33.5t27.5 31.5q67 69 111.5 143.5t63.5 160.5q4 21 4 40v7q-1 22 -4 43q-3 19 -4 39v8q0 17 3 35q17 76 74 115t128 39q46 0 71 -19t35 -46t10.5 -53.5t-2.5 -41.5q-21 -99 -89 -206.5t-154.5 -205t-168.5 -169.5q-27 -24 -57 -24t-50 19 q-15 15 -15 36z" />
<glyph unicode="&#x201e;" horiz-adv-x="832" d="M-138 -327q0 7 2 15q4 18 14.5 33t26.5 32q67 69 112 143t64 161q4 21 4 40v7q-2 22 -5 42l-4 40v7q0 17 4 36q16 76 73.5 115t128.5 39q46 0 71 -19t35 -46.5t10 -53.5v-12q0 -18 -2 -30q-21 -98 -89 -205.5t-155 -205t-168 -169.5q-27 -25 -57 -25t-50 20 q-15 15 -15 36zM292 -326q0 7 1 14q4 18 14.5 33.5t27.5 31.5q67 69 112 143.5t63 160.5q4 21 4 40v7q-1 22 -4 43q-3 19 -4 39v7q0 18 4 36q16 76 73 115t128 39q46 0 71 -19t35 -46t11 -54v-10q0 -19 -3 -31q-21 -99 -89 -206.5t-154.5 -205t-168.5 -169.5 q-27 -24 -57 -24t-50 19q-14 15 -14 37z" />
<glyph unicode="&#x2022;" horiz-adv-x="750" d="M214 640q0 39 9 81q31 147 143.5 223.5t242.5 76.5q94 0 148 -46t72 -118q10 -38 10 -77q0 -35 -8 -71q-30 -143 -137 -233t-244 -90q-133 0 -194 101q-42 69 -42 153z" />
<glyph unicode="&#x2026;" horiz-adv-x="2048" d="M25 90q0 20 5 42q16 76 74 115.5t125 39.5q48 0 76 -24t37 -61q5 -20 5 -40q0 -18 -4 -36q-16 -74 -71 -120t-125 -46q-68 0 -100 51q-22 35 -22 79zM708 90q0 20 5 42q16 76 74 115.5t125 39.5q48 0 76 -24t37 -61q5 -20 5 -40q0 -18 -4 -36q-16 -74 -71 -120t-125 -46 q-68 0 -100 51q-22 35 -22 79zM1391 90q0 20 5 42q16 76 74 115.5t125 39.5q48 0 76 -24t37 -61q5 -20 5 -40q0 -18 -4 -36q-16 -74 -71 -120t-125 -46q-68 0 -100 51q-22 35 -22 79z" />
<glyph unicode="&#x202f;" horiz-adv-x="383" />
<glyph unicode="&#x2039;" horiz-adv-x="460" d="M218 692q0 6 1 11q5 19 19 36l248 266q15 18 31.5 26t31.5 8q24 0 39 -17q11 -13 11 -31q0 -6 -1 -12q-4 -17 -18 -37l-160 -239l59 -238q3 -12 3 -24q0 -7 -1 -13q-6 -25 -28.5 -42.5t-46.5 -17.5q-15 0 -27.5 8t-20.5 26l-135 266q-5 12 -5 24z" />
<glyph unicode="&#x203a;" horiz-adv-x="460" d="M159 416q0 6 1 12q4 17 18 37l160 238l-59 239q-3 13 -3 24q0 7 1 13q6 25 28.5 42.5t46.5 17.5q15 0 27.5 -8t20.5 -26l135 -266q5 -12 5 -25q0 -5 -1 -11q-5 -18 -19 -35l-248 -266q-15 -18 -31.5 -26t-31.5 -8q-24 0 -39 17q-11 14 -11 31z" />
<glyph unicode="&#x205f;" horiz-adv-x="478" />
<glyph unicode="&#x20ac;" horiz-adv-x="966" d="M43 455q0 6 1 13q7 30 35.5 54t77.5 25h21q5 41 14 83h-31q-39 0 -56 20q-13 14 -13 31q0 6 2 13q6 24 29.5 42.5t66.5 21.5l37 2q11 33 24 69q39 105 95.5 208t130.5 188.5t162 137.5t189 52q79 0 131 -32t81 -85q38 -65 46 -181q3 -37 3 -70q0 -71 -12 -123 q-10 -48 -34 -79.5t-55 -47t-61 -15.5q-59 0 -79 41q-13 25 -13 57q0 18 4 38q10 47 27 110q19 72 32 135q5 22 5 40q0 29 -11 51q-17 36 -57 36q-62 0 -117.5 -54t-101.5 -136.5t-81 -172.5q-32 -83 -54 -156l227 11q51 0 72 -22q15 -16 15 -37q0 -7 -2 -15 q-6 -29 -34.5 -53.5t-75.5 -24.5h-239q-7 -36 -12 -85l231 -1q46 -1 67 -19q17 -15 17 -33q0 -5 -1 -9q-5 -24 -32 -44t-73 -23l-214 -9l1 -4q2 -67 18.5 -125.5t50 -96t90.5 -37.5q42 0 75 13t59.5 32.5t49.5 39.5q27 24 53.5 41.5t57.5 17.5t48 -21q12 -16 12 -36 q0 -8 -2 -17q-11 -56 -60.5 -97t-115 -67t-130 -38.5t-107.5 -12.5q-129 0 -207.5 53.5t-114.5 143.5q-36 89 -37 201l-43 -2q-47 0 -67 22q-15 17 -15 38z" />
<glyph unicode="&#x2122;" horiz-adv-x="1082" d="M281 1371q0 4 1 7q3 14 14.5 21t26 9.5t28.5 3.5l220 12q20 2 38 2q27 0 42 -10q12 -7 17 -16q3 -6 3 -12q0 -4 -1 -7q-3 -16 -18.5 -25t-35 -12t-33.5 -3l-92 2l-61 -395q-4 -27 -9 -47q-4 -21 -11.5 -39.5t-23 -30t-44.5 -11.5q-20 0 -32 9.5t-16 24.5q-2 9 -2 18 q0 7 1 15q5 22 12 44l117 414l-117 4q-17 1 -21 10q-3 6 -3 12zM610 858v5q1 14 4 27l72 384q8 37 13 60q5 26 15.5 44t29.5 28t50 11q47 0 64 -28t22 -68l55 -310l212 359q8 14 20.5 30t29.5 27.5t39 11.5q20 0 29.5 -11.5t13.5 -28.5q2 -13 2 -28v-9q0 -19 -4 -63 l-32 -384q-2 -25 -5 -40q-5 -23 -25 -39t-48 -16q-32 0 -44 12.5t-12 31.5q0 18 4 36l73 361l-203 -299q-21 -31 -29 -41t-19 -16.5t-27 -6.5q-17 0 -25 11.5t-12 28.5l-77 314l-111 -373q-4 -12 -9.5 -24t-15 -20t-26.5 -8q-16 0 -20 10q-4 9 -4 21z" />
<glyph unicode="&#x25fc;" horiz-adv-x="1440" d="M0 0v1440h1440v-1440h-1440z" />
</font>
</defs>
</svg>
