<?xml version="1.0" encoding="utf-8"?>
<!-- Generator: Adobe Illustrator 19.2.1, SVG Export Plug-In . SVG Version: 6.00 Build 0)  -->
<svg version="1.1" id="Capa_1" xmlns="http://www.w3.org/2000/svg" xmlns:xlink="http://www.w3.org/1999/xlink" x="0px" y="0px"
	 viewBox="0 0 819.1 565" style="enable-background:new 0 0 819.1 565;" xml:space="preserve">
<style type="text/css">
	.st0{fill:#FFFFFF;}
</style>
<g>
	<g>
		<path class="st0" d="M213.4,103.2c-100.4,39.7-199.6,88.6-142,270.7c23.2,73.4,113,110.5,334.9,65.9
			c71.4-14.4,192.4-46.3,238.8-62.7c31.6-11.2,70.9-41.5,76.6-124.5C704.7,110.2,616.5,79.4,613,77.7
			C506.5,24.8,297.6,69.9,213.4,103.2"/>
	</g>
	<g>
		<g>
			<g>
				<path class="st0" d="M417.7,475.3c4.6,17.7,7.1,35.7,7.4,53.9c0.1,7.7,12.1,7.7,12,0c-0.3-19.3-3-38.5-7.9-57.1
					C427.3,464.7,415.7,467.8,417.7,475.3L417.7,475.3z"/>
			</g>
		</g>
		<g>
			<g>
				<path class="st0" d="M530.6,434c10.3,11.6,20.7,23.3,31,34.9c5.1,5.8,13.6-2.7,8.5-8.5c-10.3-11.6-20.7-23.3-31-34.9
					C534,419.7,525.5,428.2,530.6,434L530.6,434z"/>
			</g>
		</g>
		<g>
			<g>
				<path class="st0" d="M654.6,407.5c5,6,10,12,15,18c2.1,2.5,6.3,2.1,8.5,0c2.5-2.5,2.1-6,0-8.5c-5-6-10-12-15-18
					c-2.1-2.5-6.3-2.1-8.5,0C652.1,401.5,652.5,405,654.6,407.5L654.6,407.5z"/>
			</g>
		</g>
		<g>
			<g>
				<path class="st0" d="M730.4,344.5c15.6,9.9,32.4,17.9,49.9,23.8c7.3,2.5,10.5-9.1,3.2-11.6c-16.6-5.7-32.2-13.3-47-22.6
					C729.9,330,723.9,340.4,730.4,344.5L730.4,344.5z"/>
			</g>
		</g>
		<g>
			<g>
				<path class="st0" d="M757.6,235.2c18,5,36,10,54,15c7.5,2.1,10.6-9.5,3.2-11.6c-18-5-36-10-54-15
					C753.4,221.6,750.2,233.2,757.6,235.2L757.6,235.2z"/>
			</g>
		</g>
		<g>
			<g>
				<path class="st0" d="M760.9,142.1c15-6.1,29.9-12.2,44.9-18.3c7.1-2.9,4-14.5-3.2-11.6c-15,6.1-29.9,12.2-44.9,18.3
					C750.6,133.4,753.7,145,760.9,142.1L760.9,142.1z"/>
			</g>
		</g>
		<g>
			<g>
				<path class="st0" d="M706,89.9c8.3-14.1,19.1-26.3,32-36.4c6.1-4.8-2.5-13.2-8.5-8.5c-13.6,10.7-25,23.9-33.8,38.8
					C691.7,90.5,702.1,96.5,706,89.9L706,89.9z"/>
			</g>
		</g>
		<g>
			<g>
				<path class="st0" d="M628.7,49.4c2.5-8,5.1-16,7.6-24c2.3-7.4-9.2-10.5-11.6-3.2c-2.5,8-5.1,16-7.6,24
					C614.8,53.6,626.4,56.8,628.7,49.4L628.7,49.4z"/>
			</g>
		</g>
		<g>
			<g>
				<path class="st0" d="M46.6,74.2c13.1,9.4,26.2,18.8,39.2,28.2c6.3,4.5,12.3-5.9,6.1-10.4c-13.1-9.4-26.2-18.8-39.2-28.2
					C46.4,59.4,40.4,69.8,46.6,74.2L46.6,74.2z"/>
			</g>
		</g>
		<g>
			<g>
				<path class="st0" d="M2.1,143.5c9.2,7.4,19.1,13.8,29.7,18.9c6.9,3.4,13-7,6.1-10.4c-9.7-4.7-18.9-10.3-27.3-17
					C4.6,130.3-4,138.7,2.1,143.5L2.1,143.5z"/>
			</g>
		</g>
		<g>
			<g>
				<path class="st0" d="M7.8,252.5c4,2,8,4,12,6c2.9,1.4,6.5,0.8,8.2-2.2c1.6-2.7,0.8-6.8-2.2-8.2c-4-2-8-4-12-6
					c-2.9-1.4-6.5-0.8-8.2,2.2C4.1,246.9,4.9,251,7.8,252.5L7.8,252.5z"/>
			</g>
		</g>
		<g>
			<g>
				<path class="st0" d="M9.4,401.5c7.5-2,15-4.1,22.5-6.1c7.4-2,4.3-13.6-3.2-11.6c-7.5,2-15,4.1-22.5,6.1
					C-1.3,391.9,1.9,403.5,9.4,401.5L9.4,401.5z"/>
			</g>
		</g>
		<g>
			<g>
				<path class="st0" d="M52.6,529c15.3-18.2,32.3-34.8,50.9-49.6c6-4.8-2.5-13.3-8.5-8.5c-18.6,14.8-35.6,31.4-50.9,49.6
					C39.2,526.4,47.6,535,52.6,529L52.6,529z"/>
			</g>
		</g>
		<g>
			<g>
				<path class="st0" d="M201,560.8c7.2-23.6,19-45.6,34.8-64.6c4.9-5.9-3.5-14.4-8.5-8.5c-17.2,20.6-30,44.2-37.9,69.9
					C187.1,565,198.7,568.2,201,560.8L201,560.8z"/>
			</g>
		</g>
		<g>
			<g>
				<path class="st0" d="M348.6,547.2c-2.4-24.9-3.6-49.9-3.4-75c0.1-7.7-11.9-7.7-12,0c-0.2,25,1,50,3.4,75
					C337.3,554.8,349.4,554.9,348.6,547.2L348.6,547.2z"/>
			</g>
		</g>
		<g>
			<g>
				<path class="st0" d="M149.3,36.8c11.8,9.6,22,20.8,30.3,33.6c4.2,6.4,14.6,0.4,10.4-6.1c-8.9-13.6-19.6-25.7-32.2-36
					C151.8,23.4,143.3,31.9,149.3,36.8L149.3,36.8z"/>
			</g>
		</g>
		<g>
			<g>
				<path class="st0" d="M277.8,17.8c0.9,7,1.9,14,2.8,21c0.4,3.2,2.4,6,6,6c2.9,0,6.4-2.8,6-6c-0.9-7-1.9-14-2.8-21
					c-0.4-3.2-2.4-6-6-6C280.9,11.8,277.3,14.6,277.8,17.8L277.8,17.8z"/>
			</g>
		</g>
		<g>
			<g>
				<path class="st0" d="M384.3,5.8c0.4,9.5,0,19-1.4,28.4c-1.1,7.6,10.4,10.8,11.6,3.2c1.6-10.5,2.2-21,1.8-31.6
					C395.9-1.9,383.9-1.9,384.3,5.8L384.3,5.8z"/>
			</g>
		</g>
		<g>
			<g>
				<path class="st0" d="M474.5,22.2c-0.5,2.5-1,5-1.5,7.5c-0.6,3.1,0.9,6.6,4.2,7.4c3,0.7,6.7-0.9,7.4-4.2c0.5-2.5,1-5,1.5-7.5
					c0.6-3.1-0.9-6.6-4.2-7.4C478.9,17.3,475.2,18.9,474.5,22.2L474.5,22.2z"/>
			</g>
		</g>
		<g>
			<g>
				<path class="st0" d="M553.2,13.3c-3.3,6.1-5.1,12.6-5.5,19.5c-0.4,7.7,11.6,7.7,12,0c0.3-4.8,1.6-9.3,3.9-13.4
					C567.2,12.6,556.8,6.5,553.2,13.3L553.2,13.3z"/>
			</g>
		</g>
	</g>
</g>
</svg>
