<?xml version="1.0" encoding="utf-8"?>
<!-- Generator: Adobe Illustrator 19.2.1, SVG Export Plug-In . SVG Version: 6.00 Build 0)  -->
<svg version="1.1" id="Capa_1" xmlns="http://www.w3.org/2000/svg" xmlns:xlink="http://www.w3.org/1999/xlink" x="0px" y="0px"
	 viewBox="0 0 400 550" style="enable-background:new 0 0 400 550;" xml:space="preserve">
<style type="text/css">
	.st0{fill:rgba(0,0,0,.3);}
	.st1{fill:#29ABE2;}
	.st2{fill:#00FF00;}
	.st3{fill:#FF00FF;}
	.st4{fill:#2E3192;}
	.st5{fill:#FFFFFF;}
	.st6{fill:#1D1D1B;}
	.st7{fill:#FFFF00;}
	.st8{fill:#ED1E79;}
	.st9{fill:#00FFFF;}
	.st10{fill:#E5007E;}
	.st11{fill:none;}
	.st12{font-family:'Quicksand-Bold';}
	.st13{font-size:41px;}
</style>
<g>
	<g>
		<ellipse class="st0" cx="158" cy="506.9" rx="134.8" ry="18.7"/>
		<g>
			<path class="st1" d="M82.7,507.7c0,0-32,8.1-40.6,3c3.8-11.5,23.9-12.4,23.9-12.4L35.3,164.2l34.5,41.7c0,0,53.6-10.7,92.7-10
				c39.1,0.8,80.4,10.7,80.4,10.7l34.8-42.5l-23.6,336.1c0,0,21.9,6.6,17.8,11.4c-26.3,2.4-36-2.8-36-2.8s22-62.9-76.7-65.8
				c-23.4-0.7-42.7,7.5-54.2,14.8C72.9,478.2,82.7,507.7,82.7,507.7z"/>
			<path class="st1" d="M262,375.1c16.9-2.4,30.7,0.3,28,11.1c-4.4,12.8-74.2,6-74,12.6c0.2,5.4,10,4.5,10,4.5s-9.8,1-9.8,4.2
				c0,4.4,9.8,3,9.8,3s-8.5,1.9-7.1,6.1c1.7,5,79.4-7.6,78.8-29.3c-0.5-19.2-34.9-25.3-34.9-25.3L262,375.1z"/>
			<polygon class="st2" points="40.9,180.6 46.6,217.8 65,209 			"/>
			<polyline class="st2" points="267.1,216.5 272.6,179.7 248.4,208.4 			"/>
			<g>
				<g>
					<path class="st3" d="M45.5,226.8c1.1,1.6,1.6,3.2,2.1,5.1c0.7,2.6,4.7,1.5,4-1.1c-0.5-2.2-1.2-4.3-2.5-6.1
						c-0.7-0.9-1.8-1.4-2.9-0.8C45.3,224.5,44.8,225.9,45.5,226.8L45.5,226.8z"/>
				</g>
			</g>
			<g>
				<g>
					<path class="st3" d="M54.6,221c0.5,1.6,0.6,3.2,1,4.8c0.7,2.6,4.7,1.5,4-1.1c-0.4-1.6-0.5-3.2-1-4.8c-0.4-1.1-1.4-1.8-2.6-1.5
						C55,218.7,54.3,219.9,54.6,221L54.6,221z"/>
				</g>
			</g>
			<g>
				<g>
					<path class="st3" d="M63.7,216.4c0.4,2,0.9,4,1.8,5.8c0.5,1,1.9,1.3,2.9,0.8c1-0.6,1.2-1.8,0.8-2.9c-0.7-1.5-1-3.2-1.3-4.8
						c-0.2-1.1-1.5-1.7-2.6-1.5C64,214.2,63.5,215.3,63.7,216.4L63.7,216.4z"/>
				</g>
			</g>
			<g>
				<g>
					<path class="st3" d="M75.1,212.5c0.1,1.6,0.1,3.1,0.3,4.7c0.1,1.1,0.9,2.1,2.1,2.1c1,0,2.2-1,2.1-2.1c-0.2-1.5-0.2-3.1-0.3-4.7
						c-0.1-1.1-0.9-2.1-2.1-2.1C76.1,210.4,75,211.4,75.1,212.5L75.1,212.5z"/>
				</g>
			</g>
			<g>
				<g>
					<path class="st3" d="M45.9,241.9c0,2.3,0.2,4.6,1.3,6.6c1.3,2.4,4.9,0.3,3.6-2.1c-0.7-1.4-0.7-3-0.7-4.5
						C50.1,239.2,45.9,239.2,45.9,241.9L45.9,241.9z"/>
				</g>
			</g>
			<g>
				<g>
					<path class="st3" d="M54.3,235.5c0.1,1,0.1,2.1,0.1,3.1c0,1.1,1,2.1,2.1,2.1c1.1-0.1,2.1-0.9,2.1-2.1c0-1,0-2.1-0.1-3.1
						c-0.1-1.1-0.9-2.1-2.1-2.1C55.4,233.4,54.2,234.3,54.3,235.5L54.3,235.5z"/>
				</g>
			</g>
			<g>
				<g>
					<path class="st3" d="M62.3,230.9c-0.1,2,0.3,4,1.4,5.7c1.5,2.2,5.1,0.1,3.6-2.1c-0.8-1.2-0.9-2.2-0.8-3.6
						c0.1-1.1-1-2.1-2.1-2.1C63.2,228.8,62.4,229.8,62.3,230.9L62.3,230.9z"/>
				</g>
			</g>
			<g>
				<g>
					<path class="st3" d="M73.5,226.8c0,1.5,0,3,0,4.5c0,2.7,4.2,2.7,4.2,0c0-1.5,0-3,0-4.5C77.7,224.1,73.5,224.1,73.5,226.8
						L73.5,226.8z"/>
				</g>
			</g>
			<g>
				<g>
					<path class="st3" d="M73.7,241.9c0.1,1.2,0.2,2.4,0.2,3.7c0,1.1,1,2.1,2.1,2.1c1.1,0,2.1-1,2.1-2.1c0-1.2-0.1-2.4-0.2-3.7
						c-0.1-1.1-0.9-2.1-2.1-2.1C74.8,239.8,73.6,240.8,73.7,241.9L73.7,241.9z"/>
				</g>
			</g>
			<g>
				<g>
					<path class="st3" d="M62.2,243.7c0.2,1,0.3,2,0.6,3c0.2,1.1,1.5,1.8,2.6,1.5c1.1-0.4,1.7-1.4,1.5-2.6c-0.2-1-0.3-2-0.6-3
						c-0.2-1.1-1.5-1.8-2.6-1.5C62.5,241.5,61.9,242.5,62.2,243.7L62.2,243.7z"/>
				</g>
			</g>
			<g>
				<g>
					<path class="st3" d="M53.7,248c0.2,1.2,0.3,2.4,0.7,3.5c0.3,1.1,1.5,1.8,2.6,1.5c1.1-0.3,1.8-1.5,1.5-2.6
						c-0.3-1.2-0.5-2.4-0.7-3.5c-0.2-1.1-1.6-1.7-2.6-1.5C54,245.8,53.5,246.9,53.7,248L53.7,248z"/>
				</g>
			</g>
			<g>
				<g>
					<path class="st3" d="M48,261.8c0,1.7,0.6,3.3,1,5c0.6,2.6,4.7,1.5,4-1.1c-0.3-1.3-0.8-2.5-0.8-3.9
						C52.1,259.1,47.9,259.1,48,261.8L48,261.8z"/>
				</g>
			</g>
			<g>
				<g>
					<path class="st3" d="M61.4,257.6c0.1,1.5,0.2,3,0.2,4.4c0,2.7,4.2,2.7,4.2,0c0-1.5-0.1-3-0.2-4.4c-0.1-1.1-0.9-2.1-2.1-2.1
						C62.4,255.5,61.3,256.4,61.4,257.6L61.4,257.6z"/>
				</g>
			</g>
			<g>
				<g>
					<path class="st3" d="M70.4,255.6c0.1,1.5,0.1,3,0.3,4.5c0.1,1.1,0.9,2.1,2.1,2.1c1,0,2.2-1,2.1-2.1c-0.2-1.5-0.2-3-0.3-4.5
						c-0.1-1.1-0.9-2.1-2.1-2.1C71.4,253.5,70.3,254.4,70.4,255.6L70.4,255.6z"/>
				</g>
			</g>
			<g>
				<g>
					<path class="st3" d="M56,272.6c0.7,1.5,0.9,3.2,1.2,4.7c0.6,2.6,4.7,1.5,4-1.1c-0.5-2-0.8-3.9-1.7-5.7c-0.5-1-1.9-1.3-2.9-0.8
						C55.8,270.3,55.6,271.6,56,272.6L56,272.6z"/>
				</g>
			</g>
			<g>
				<g>
					<path class="st3" d="M67,269.3c0.2,1.8,0.2,3.6,0.2,5.4c0,2.7,4.2,2.7,4.2,0c0-1.8,0-3.6-0.2-5.4c-0.1-1.1-0.9-2.1-2.1-2.1
						C68,267.2,66.8,268.2,67,269.3L67,269.3z"/>
				</g>
			</g>
			<g>
				<g>
					<path class="st3" d="M77.6,268.8c0.5,1.6,1,3.1,1.3,4.7c0.2,1.1,1.5,1.8,2.6,1.5c1.1-0.3,1.7-1.5,1.5-2.6
						c-0.4-1.6-0.9-3.1-1.3-4.7C80.9,265.1,76.8,266.2,77.6,268.8L77.6,268.8z"/>
				</g>
			</g>
			<g>
				<g>
					<path class="st3" d="M49,280.4c0.7,2.2,1,4.6,1.7,6.9c0.7,2.6,4.8,1.5,4-1.1c-0.6-2.3-0.9-4.6-1.7-6.9
						C52.2,276.8,48.1,277.8,49,280.4L49,280.4z"/>
				</g>
			</g>
			<g>
				<g>
					<path class="st3" d="M63.2,283.2c0.1,1.3,0.2,2.7,0.2,4c0,2.7,4.2,2.7,4.2,0c0-1.3-0.1-2.7-0.2-4c-0.1-1.1-0.9-2.1-2.1-2.1
						C64.2,281.1,63.1,282,63.2,283.2L63.2,283.2z"/>
				</g>
			</g>
			<g>
				<g>
					<path class="st3" d="M75,281.5c0.5,1.9,0.7,3.8,0.7,5.8c0,2.7,4.2,2.7,4.2,0c0-2.3-0.3-4.6-0.9-6.9
						C78.4,277.8,74.4,278.9,75,281.5L75,281.5z"/>
				</g>
			</g>
			<g>
				<g>
					<path class="st3" d="M57.5,294.9c0.1,2.6,0.8,5.1,0.8,7.8c0,2.7,4.1,2.7,4.2,0c0-2.6-0.7-5.2-0.8-7.8
						C61.7,292.3,57.5,292.2,57.5,294.9L57.5,294.9z"/>
				</g>
			</g>
			<g>
				<g>
					<path class="st3" d="M71.5,294.8c-0.7,2.2-0.2,4.4,0,6.5c0.1,1.1,0.9,2.1,2.1,2.1c1,0,2.2-1,2.1-2.1c-0.2-1.8-0.7-3.7-0.2-5.4
						C76.3,293.4,72.3,292.3,71.5,294.8L71.5,294.8z"/>
				</g>
			</g>
			<g>
				<g>
					<path class="st3" d="M50.7,304.8c0.5,2.8,1.4,5.4,2.5,8c1.1,2.5,4.7,0.3,3.6-2.1c-1-2.3-1.7-4.6-2.1-7
						C54.3,301.1,50.3,302.2,50.7,304.8L50.7,304.8z"/>
				</g>
			</g>
			<g>
				<g>
					<path class="st3" d="M66.7,308.8c-0.6,1.7-0.6,3.6-0.6,5.4c0,2.7,4.2,2.7,4.2,0c0-1.5,0-2.9,0.5-4.3
						C71.6,307.4,67.6,306.3,66.7,308.8L66.7,308.8z"/>
				</g>
			</g>
			<g>
				<g>
					<path class="st3" d="M57.5,319.1c0.3,2.1,0.4,4.2,1.3,6.2c0.4,1,2,1.3,2.9,0.8c1.1-0.6,1.2-1.8,0.8-2.9c-0.5-1.2-0.5-2.7-0.7-4
						c-0.1-1.1-0.9-2.1-2.1-2.1C58.6,317,57.4,318,57.5,319.1L57.5,319.1z"/>
				</g>
			</g>
			<g>
				<g>
					<path class="st3" d="M54,332.8c0.6,2,1.4,4,2.1,6c0.9,2.5,4.9,1.4,4-1.1c-0.7-2-1.5-3.9-2.1-6C57.3,329.1,53.2,330.2,54,332.8
						L54,332.8z"/>
				</g>
			</g>
			<g>
				<g>
					<path class="st3" d="M68.5,322.6c0,2.1,0,4.2,0,6.3c0,2.7,4.2,2.7,4.2,0c0-2.1,0-4.2,0-6.3C72.7,319.9,68.5,319.9,68.5,322.6
						L68.5,322.6z"/>
				</g>
			</g>
			<g>
				<g>
					<path class="st3" d="M67.7,339.6c0,2.2,0.3,4.5,0.6,6.7c0.2,1.1,1.6,1.7,2.6,1.5c1.2-0.3,1.6-1.5,1.5-2.6
						c-0.3-1.8-0.5-3.7-0.5-5.5C71.9,337,67.7,336.9,67.7,339.6L67.7,339.6z"/>
				</g>
			</g>
			<g>
				<g>
					<path class="st3" d="M60.9,346.3c0.4,1.6,0.8,3.2,1,4.9c0.2,1.1,1.6,1.7,2.6,1.5c1.2-0.3,1.6-1.5,1.5-2.6
						c-0.2-1.6-0.6-3.3-1-4.9C64.3,342.6,60.3,343.7,60.9,346.3L60.9,346.3z"/>
				</g>
			</g>
			<g>
				<g>
					<path class="st3" d="M54.5,354.3c0.5,2.4,1.1,4.7,1.7,7.1c0.6,2.6,4.7,1.5,4-1.1c-0.6-2.4-1.2-4.7-1.7-7.1
						C58,350.5,54,351.6,54.5,354.3L54.5,354.3z"/>
				</g>
			</g>
			<g>
				<g>
					<path class="st3" d="M67.5,357.8c0.6,2.3,1.2,4.5,2,6.8c0.9,2.5,4.9,1.4,4-1.1c-0.8-2.2-1.4-4.5-2-6.8
						C70.8,354.1,66.7,355.2,67.5,357.8L67.5,357.8z"/>
				</g>
			</g>
			<g>
				<g>
					<path class="st3" d="M81,356.2c0.6,1.9,0.8,4,1.2,6c0.6,2.6,4.6,1.5,4-1.1c-0.4-2-0.6-4-1.2-6C84.2,352.5,80.2,353.6,81,356.2
						L81,356.2z"/>
				</g>
			</g>
			<g>
				<g>
					<path class="st3" d="M56.2,367.3c0,0,0.1,0.3,0.1,0.3c0.1,0-0.1-0.4,0,0c0,0.4,0.1,0.7,0.2,1.1c0.2,1.1,1.5,1.8,2.6,1.5
						c1.1-0.4,1.7-1.4,1.5-2.6c0,0-0.1-0.3-0.1-0.3c-0.1,0,0.1,0.4,0,0c0-0.4-0.1-0.7-0.2-1.1c-0.2-1.1-1.5-1.8-2.6-1.5
						C56.5,365.1,55.9,366.1,56.2,367.3L56.2,367.3z"/>
				</g>
			</g>
			<g>
				<g>
					<path class="st3" d="M59.4,390.3c0.5,2.2,0.8,4.5,1.1,6.8c0.2,1.1,1.6,1.7,2.6,1.5c1.2-0.3,1.6-1.5,1.5-2.6
						c-0.3-2.3-0.6-4.5-1.1-6.8C62.8,386.6,58.8,387.7,59.4,390.3L59.4,390.3z"/>
				</g>
			</g>
			<g>
				<g>
					<path class="st3" d="M74.7,392.9c0.1,1.3-0.1,2.6-0.1,3.9c0,2.7,4.2,2.7,4.2,0c0-1.3,0.2-2.6,0.1-3.9c-0.1-1.1-0.9-2.1-2.1-2.1
						C75.7,390.8,74.7,391.8,74.7,392.9L74.7,392.9z"/>
				</g>
			</g>
			<g>
				<g>
					<path class="st3" d="M85,394.3c0.2,1.3,0.6,2.6,0.9,4c0.2,1.1,1.6,1.7,2.6,1.5c1.2-0.3,1.7-1.5,1.5-2.6c-0.2-1.3-0.6-2.6-0.9-4
						c-0.2-1.1-1.6-1.7-2.6-1.5C85.3,392.1,84.8,393.2,85,394.3L85,394.3z"/>
				</g>
			</g>
			<g>
				<g>
					<path class="st3" d="M96.4,393.7c0.3,1.1,0.6,2.2,0.9,3.3c0.3,1,1.5,1.8,2.6,1.5c1.1-0.3,1.8-1.4,1.5-2.6
						c-0.3-1.1-0.6-2.2-0.9-3.3c-0.3-1-1.5-1.8-2.6-1.5C96.8,391.4,96.1,392.5,96.4,393.7L96.4,393.7z"/>
				</g>
			</g>
			<g>
				<g>
					<path class="st3" d="M67.7,401.6c0.1,1.5,0.2,3,0.3,4.4c0.1,1.1,0.9,2.1,2.1,2.1c1.1,0,2.2-1,2.1-2.1c-0.1-1.5-0.2-3-0.3-4.4
						c-0.1-1.1-0.9-2.1-2.1-2.1C68.8,399.6,67.7,400.5,67.7,401.6L67.7,401.6z"/>
				</g>
			</g>
			<g>
				<g>
					<path class="st3" d="M61.6,412.4c0.2,1.2,0.5,2.5,0.8,3.7c0.3,1.1,1.5,1.8,2.6,1.5c1.1-0.3,1.8-1.5,1.5-2.6
						c-0.3-1.2-0.6-2.4-0.8-3.7c-0.2-1.1-1.6-1.7-2.6-1.5C61.9,410.2,61.4,411.3,61.6,412.4L61.6,412.4z"/>
				</g>
			</g>
			<g>
				<g>
					<path class="st3" d="M63.3,430.3c0.1,0.9,0.2,1.8,0.2,2.8c0,1.1,1,2.1,2.1,2.1c1.1-0.1,2.1-0.9,2.1-2.1c0-0.9-0.1-1.9-0.2-2.8
						c-0.1-1.1-0.9-2.1-2.1-2.1C64.4,428.2,63.2,429.1,63.3,430.3L63.3,430.3z"/>
				</g>
			</g>
			<g>
				<g>
					<path class="st3" d="M70.3,417.6c0,2.4,0.5,4.8,1,7.1c0.6,2.6,4.6,1.5,4-1.1c-0.4-2-0.8-4-0.8-6
						C74.4,414.9,70.3,414.9,70.3,417.6L70.3,417.6z"/>
				</g>
			</g>
			<g>
				<g>
					<path class="st3" d="M79.7,405.1c-0.1,1.6,0,3.2,0,4.8c0,2.7,4.2,2.7,4.2,0c0-1.6-0.1-3.2,0-4.8c0.1-1.1-1-2.1-2.1-2.1
						C80.6,403,79.8,404,79.7,405.1L79.7,405.1z"/>
				</g>
			</g>
			<g>
				<g>
					<path class="st3" d="M81.4,422.1c0.1,2.2,0.4,4.4,0.9,6.5c0.6,2.6,4.6,1.5,4-1.1c-0.4-1.8-0.6-3.6-0.7-5.4
						C85.4,419.4,81.2,419.4,81.4,422.1L81.4,422.1z"/>
				</g>
			</g>
			<g>
				<g>
					<path class="st3" d="M87.6,411.4c0.4,1.8,0.9,3.7,1.2,5.5c0.2,1.1,1.6,1.7,2.6,1.5c1.2-0.3,1.7-1.5,1.5-2.6
						c-0.3-1.9-0.8-3.7-1.2-5.5C91,407.7,86.9,408.8,87.6,411.4L87.6,411.4z"/>
				</g>
			</g>
			<g>
				<g>
					<path class="st3" d="M93.1,402.6c0.5,1.4,1,2.9,1.3,4.3c0.6,2.6,4.7,1.5,4-1.1c-0.4-1.5-0.9-2.9-1.3-4.3
						C96.3,399,92.3,400.1,93.1,402.6L93.1,402.6z"/>
				</g>
			</g>
			<g>
				<g>
					<path class="st3" d="M96.2,420.1c0.2,1.6,0.3,3.2,0.8,4.8c0.7,2.6,4.8,1.5,4-1.1c-0.4-1.6-0.6-3.2-0.8-4.8
						c-0.2-1.1-1.6-1.7-2.6-1.5C96.5,417.8,96.1,418.9,96.2,420.1L96.2,420.1z"/>
				</g>
			</g>
			<g>
				<g>
					<path class="st3" d="M103.3,407.7c0.3,2.4,0.7,4.8,1.6,7.1c0.9,2.5,5,1.4,4-1.1c-0.9-2.3-1.2-4.7-1.6-7.1
						c-0.2-1.1-1.6-1.7-2.6-1.5C103.6,405.5,103.2,406.6,103.3,407.7L103.3,407.7z"/>
				</g>
			</g>
			<g>
				<g>
					<path class="st3" d="M115.8,416.1c0,1.7,0,3.4,0,5.1c0,2.7,4.2,2.7,4.2,0c0-1.7,0-3.4,0-5.1C120,413.4,115.8,413.4,115.8,416.1
						L115.8,416.1z"/>
				</g>
			</g>
			<g>
				<g>
					<path class="st3" d="M107.1,424.1c0.2,2.3,0.5,4.7,0.9,7c0.2,1.1,1.6,1.7,2.6,1.5c1.2-0.3,1.6-1.5,1.5-2.6
						c-0.3-2-0.5-3.9-0.7-5.9c-0.1-1.1-0.9-2.1-2.1-2.1C108.2,422,107,422.9,107.1,424.1L107.1,424.1z"/>
				</g>
			</g>
			<g>
				<g>
					<path class="st3" d="M90.3,431c0.2,1.6,0.3,3.3,0.4,4.9c0.1,1.1,0.9,2.1,2.1,2.1c1.1,0,2.2-1,2.1-2.1c-0.1-1.6-0.2-3.3-0.4-4.9
						c-0.1-1.1-0.9-2.1-2.1-2.1C91.3,428.9,90.1,429.9,90.3,431L90.3,431z"/>
				</g>
			</g>
			<g>
				<g>
					<path class="st3" d="M73.3,433.7c0,1.6,0,3.1,0,4.7c0,2.7,4.2,2.7,4.2,0c0-1.6,0-3.1,0-4.7C77.5,431,73.3,431,73.3,433.7
						L73.3,433.7z"/>
				</g>
			</g>
			<g>
				<g>
					<path class="st3" d="M66.5,447.5c0.1,1.8,0.2,3.6,0.5,5.3c0.2,1.1,1.5,1.7,2.6,1.5c1.2-0.3,1.7-1.5,1.5-2.6
						c-0.3-1.4-0.3-2.8-0.4-4.2c-0.1-1.1-0.9-2.1-2.1-2.1C67.5,445.4,66.4,446.3,66.5,447.5L66.5,447.5z"/>
				</g>
			</g>
			<g>
				<g>
					<path class="st3" d="M83.2,442.5c0.1,1.7,0,3.4,0,5.1c0,2.7,4.2,2.7,4.2,0c0-1.7,0.1-3.4,0-5.1C87.2,439.8,83,439.8,83.2,442.5
						L83.2,442.5z"/>
				</g>
			</g>
			<g>
				<g>
					<path class="st3" d="M76.2,453.6c0,1.4,0.1,2.9,0.2,4.3c0.1,1.1,0.9,2.1,2.1,2.1c1.1,0,2.2-1,2.1-2.1c-0.1-1.4-0.2-2.9-0.2-4.3
						C80.3,450.9,76.2,450.9,76.2,453.6L76.2,453.6z"/>
				</g>
			</g>
			<g>
				<g>
					<path class="st3" d="M66.8,466.2c0.4,2.6-0.2,5.1,1,7.6c1.1,2.4,4.7,0.3,3.6-2.1c-0.4-0.8-0.3-2-0.3-2.9c0-1.2-0.1-2.4-0.3-3.7
						C70.4,462.4,66.4,463.6,66.8,466.2L66.8,466.2z"/>
				</g>
			</g>
			<g>
				<g>
					<path class="st3" d="M77.1,471.1c-0.3,1.3-0.6,2.6-0.9,3.9c-0.3,1.1,0.4,2.3,1.5,2.6c1.1,0.3,2.3-0.4,2.6-1.5
						c0.3-1.3,0.6-2.6,0.9-3.9c0.3-1.1-0.4-2.3-1.5-2.6C78.6,469.3,77.4,470,77.1,471.1L77.1,471.1z"/>
				</g>
			</g>
			<g>
				<g>
					<path class="st3" d="M70.4,485.1c0,1.7,0.1,3.5,0.3,5.2c0.1,1.1,0.9,2.1,2.1,2.1c1,0,2.2-1,2.1-2.1c-0.2-1.7-0.3-3.5-0.3-5.2
						C74.6,482.4,70.4,482.4,70.4,485.1L70.4,485.1z"/>
				</g>
			</g>
			<g>
				<g>
					<path class="st3" d="M84.4,458.7c0.2,2,0.1,3.9,0.1,5.9c0,2.7,4.2,2.7,4.2,0c0-2,0.1-3.9-0.1-5.9c-0.1-1.1-0.9-2.1-2.1-2.1
						C85.4,456.6,84.3,457.5,84.4,458.7L84.4,458.7z"/>
				</g>
			</g>
			<g>
				<g>
					<path class="st3" d="M93,445.8c0.1,1.9,0.3,3.8,0.4,5.7c0.2,2.7,4.4,2.7,4.2,0c-0.1-1.9-0.3-3.8-0.4-5.7
						C97,443.1,92.9,443.1,93,445.8L93,445.8z"/>
				</g>
			</g>
			<g>
				<g>
					<path class="st3" d="M100.4,435.7c0.2,1.3,0.7,2.6,0.8,3.9c0.1,1.1,0.9,2.1,2.1,2.1c1.1,0,2.2-1,2.1-2.1c-0.2-1.7-0.7-3.3-1-5
						c-0.2-1.1-1.6-1.7-2.6-1.5C100.7,433.5,100.2,434.6,100.4,435.7L100.4,435.7z"/>
				</g>
			</g>
			<g>
				<g>
					<path class="st3" d="M101.4,451.3c0.2,0.5-0.1-0.4,0.1,0.1c0.1,0.2,0.1,0.3,0.2,0.5c0.1,0.3,0.2,0.6,0.2,1
						c0.2,1.1,1.6,1.8,2.6,1.5c1.2-0.4,1.7-1.4,1.5-2.6c-0.2-0.9-0.5-1.8-0.9-2.6c-0.5-1-2-1.3-2.9-0.8
						C101.2,449.1,100.9,450.2,101.4,451.3L101.4,451.3z"/>
				</g>
			</g>
			<g>
				<g>
					<path class="st3" d="M110.1,440.3c0.3,2.1,0.6,4.2,0.9,6.3c0.2,1.1,1.6,1.7,2.6,1.5c1.2-0.3,1.6-1.5,1.5-2.6
						c-0.3-2.1-0.6-4.2-0.9-6.3c-0.2-1.1-1.6-1.7-2.6-1.5C110.3,438,109.9,439.1,110.1,440.3L110.1,440.3z"/>
				</g>
			</g>
			<g>
				<g>
					<path class="st3" d="M116.7,430.2c0.4,1.5,0.6,2.9,0.7,4.4c0.1,1.1,0.9,2.1,2.1,2.1c1.1,0,2.2-1,2.1-2.1
						c-0.1-1.9-0.4-3.7-0.9-5.5C120.1,426.4,116.1,427.5,116.7,430.2L116.7,430.2z"/>
				</g>
			</g>
			<g>
				<g>
					<path class="st3" d="M125.4,420.2c-0.2,1.9,0.4,3.7,0.6,5.5c0.1,1.1,0.9,2.1,2.1,2.1c1.1,0,2.2-1,2.1-2.1
						c-0.2-1.9-0.7-3.7-0.6-5.5c0.1-1.1-1-2.1-2.1-2.1C126.3,418.1,125.5,419,125.4,420.2L125.4,420.2z"/>
				</g>
			</g>
			<g>
				<g>
					<path class="st3" d="M125.5,436.8c0.4,1.5,0.4,2.9,0.4,4.4c0,2.7,4.2,2.7,4.2,0c0-1.9,0-3.7-0.5-5.5
						C128.8,433.1,124.8,434.2,125.5,436.8L125.5,436.8z"/>
				</g>
			</g>
			<g>
				<g>
					<path class="st3" d="M134.9,429.5c0.2,1.2,0.5,2.4,0.7,3.7c0.2,1.1,1.5,1.8,2.6,1.5c1.1-0.4,1.7-1.4,1.5-2.6
						c-0.1-0.5-0.2-1-0.3-1.4c-0.1-0.2-0.1-0.4-0.2-0.7c0-0.1-0.1-0.8-0.1-0.4c-0.1-1.1-0.9-2.1-2.1-2.1
						C135.9,427.4,134.7,428.3,134.9,429.5L134.9,429.5z"/>
				</g>
			</g>
			<g>
				<g>
					<path class="st3" d="M145.7,425.8c0,0.1-0.1,0.9,0,0.4c0,0.2-0.1,0.5-0.1,0.7c-0.2,1.1,0.3,2.3,1.5,2.6c1,0.2,2.3-0.3,2.6-1.5
						c0.1-0.7,0.3-1.5,0.3-2.2c0-1.1-1-2.1-2.1-2.1C146.7,423.8,145.7,424.7,145.7,425.8L145.7,425.8z"/>
				</g>
			</g>
			<g>
				<g>
					<path class="st3" d="M144.6,433.8c0.1,1,0.2,2,0.3,3c0.1,1.1,0.9,2.1,2.1,2.1c1,0,2.2-0.9,2.1-2.1c-0.1-1-0.2-2-0.3-3
						c-0.1-1.1-0.9-2.1-2.1-2.1C145.7,431.8,144.5,432.7,144.6,433.8L144.6,433.8z"/>
				</g>
			</g>
			<g>
				<g>
					<path class="st3" d="M155.1,428.7c0.4,1.6,0.2,3.2,0.1,4.8c0,2.7,4.2,2.7,4.2,0c0-2,0.2-3.9-0.3-5.9
						C158.5,425,154.5,426.1,155.1,428.7L155.1,428.7z"/>
				</g>
			</g>
			<g>
				<g>
					<path class="st3" d="M164.6,433.8c0,1.1,0,2.2,0,3.3c0,1.1,1,2.1,2.1,2.1c1.1-0.1,2.1-0.9,2.1-2.1c0-1.1,0-2.2,0-3.3
						c0-1.1-1-2.1-2.1-2.1C165.5,431.8,164.6,432.6,164.6,433.8L164.6,433.8z"/>
				</g>
			</g>
			<g>
				<g>
					<path class="st3" d="M172.2,425.1c-0.2,1.8-0.2,3.6-0.2,5.4c0,2.7,4.2,2.7,4.2,0c0-1.8,0-3.6,0.2-5.4c0.1-1.1-1.1-2.1-2.1-2.1
						C173.1,423,172.4,423.9,172.2,425.1L172.2,425.1z"/>
				</g>
			</g>
			<g>
				<g>
					<path class="st3" d="M178.1,435.1c0,1.6,0,3.2,0.1,4.8c0.1,1.1,0.9,2.1,2.1,2.1c1.1,0,2.2-1,2.1-2.1c-0.1-1.6-0.1-3.2-0.1-4.8
						C182.3,432.5,178.1,432.5,178.1,435.1L178.1,435.1z"/>
				</g>
			</g>
			<g>
				<g>
					<path class="st3" d="M187.1,422.8c-0.3,1.8-0.5,3.6-1.2,5.3c-0.4,1,0.5,2.3,1.5,2.6c1.2,0.3,2.1-0.4,2.6-1.5
						c0.7-1.7,0.9-3.5,1.2-5.3c0.2-1.1-0.3-2.3-1.5-2.6C188.6,421.1,187.3,421.7,187.1,422.8L187.1,422.8z"/>
				</g>
			</g>
			<g>
				<g>
					<path class="st3" d="M190.6,431.9c0,1.1-0.1,2.2-0.2,3.3c-0.1,1.1,1,2.1,2.1,2.1c1.2-0.1,2-0.9,2.1-2.1
						c0.1-1.1,0.2-2.2,0.2-3.3c0-1.1-1-2.1-2.1-2.1C191.6,429.9,190.7,430.8,190.6,431.9L190.6,431.9z"/>
				</g>
			</g>
			<g>
				<g>
					<path class="st3" d="M198.3,438.6c0,2-0.5,4-0.8,6c-0.1,1.1,1.1,2.1,2.1,2.1c1.2,0,2-1,2.1-2.1c0.2-2,0.7-4,0.8-6
						C202.5,435.9,198.4,435.9,198.3,438.6L198.3,438.6z"/>
				</g>
			</g>
			<g>
				<g>
					<path class="st3" d="M198.7,423.3c-0.1,1.6-0.6,3.1-0.7,4.8c-0.1,2.7,4.1,2.7,4.2,0c0-1.6,0.5-3.2,0.7-4.8
						c0.1-1.1-1-2.1-2.1-2.1C199.6,421.2,198.8,422.1,198.7,423.3L198.7,423.3z"/>
				</g>
			</g>
			<g>
				<g>
					<path class="st3" d="M206.2,431.9c0,2.2,0.8,4.2,1.1,6.3c0.1,1.1,0.9,2.1,2.1,2.1c1,0,2.2-1,2.1-2.1c-0.3-2.1-1.1-4.2-1.1-6.3
						C210.4,429.2,206.2,429.2,206.2,431.9L206.2,431.9z"/>
				</g>
			</g>
			<g>
				<g>
					<path class="st3" d="M213.1,442.6c0,2,0.2,4.1,0.3,6.1c0.2,2.7,4.3,2.7,4.2,0c-0.1-2-0.3-4.1-0.3-6.1
						C217.2,439.9,213,439.9,213.1,442.6L213.1,442.6z"/>
				</g>
			</g>
			<g>
				<g>
					<path class="st3" d="M213.2,425.3c0,1.8,0.4,3.6,0.9,5.3c0.7,2.6,4.8,1.5,4-1.1c-0.4-1.4-0.7-2.8-0.7-4.2
						C217.3,422.6,213.1,422.6,213.2,425.3L213.2,425.3z"/>
				</g>
			</g>
			<g>
				<g>
					<path class="st3" d="M220.6,436c0.5,1.4,0.8,2.9,1.1,4.3c0.2,1.1,1.5,1.8,2.6,1.5c1.1-0.3,1.7-1.5,1.5-2.6
						c-0.3-1.5-0.6-2.9-1.1-4.3c-0.4-1.1-1.4-1.8-2.6-1.5C221,433.7,220.2,435,220.6,436L220.6,436z"/>
				</g>
			</g>
			<g>
				<g>
					<path class="st3" d="M223.4,449c0.1,2.1,0.4,4.3,0.4,6.4c0,2.7,4.2,2.7,4.2,0c0-2.2-0.3-4.3-0.4-6.4
						C227.4,446.3,223.2,446.3,223.4,449L223.4,449z"/>
				</g>
			</g>
			<g>
				<g>
					<path class="st3" d="M231.1,442.1c0.5,2.7,1.2,5.3,1.9,7.9c0.7,2.6,4.7,1.5,4-1.1c-0.7-2.6-1.4-5.2-1.9-7.9
						C234.7,438.4,230.6,439.5,231.1,442.1L231.1,442.1z"/>
				</g>
			</g>
			<g>
				<g>
					<path class="st3" d="M237.9,453.3c0.2,1.7,0.1,3.3,0.1,5c0,2.7,4.2,2.7,4.2,0c0-1.7,0.1-3.3-0.1-5c-0.1-1.1-0.9-2.1-2.1-2.1
						C239,451.2,237.8,452.2,237.9,453.3L237.9,453.3z"/>
				</g>
			</g>
			<g>
				<g>
					<path class="st3" d="M237.5,434.7c0.1,1.9,0.5,3.8,0.7,5.8c0.2,2.7,4.4,2.7,4.2,0c-0.1-1.9-0.5-3.8-0.7-5.8
						C241.5,432,237.3,432,237.5,434.7L237.5,434.7z"/>
				</g>
			</g>
			<g>
				<g>
					<path class="st3" d="M247.9,442.2c0.2,2.2,0.3,4.4,0.4,6.7c0.1,2.7,4.3,2.7,4.2,0c-0.1-2.2-0.2-4.4-0.4-6.7
						c-0.1-1.1-0.9-2.1-2.1-2.1C248.9,440.2,247.8,441.1,247.9,442.2L247.9,442.2z"/>
				</g>
			</g>
			<g>
				<g>
					<path class="st3" d="M248.9,458.2c0.2,2.1,0.8,4.2,0.9,6.3c0.1,2.7,4.2,2.7,4.2,0c-0.1-2.2-0.7-4.2-0.9-6.3
						C252.9,455.6,248.7,455.5,248.9,458.2L248.9,458.2z"/>
				</g>
			</g>
			<g>
				<g>
					<path class="st3" d="M232.1,464.5c0.6,1.1,0.9,2.2,1.1,3.4c0.2,1.1,1.6,1.7,2.6,1.5c1.2-0.3,1.7-1.5,1.5-2.6
						c-0.3-1.5-0.8-3-1.5-4.4c-0.5-1-1.9-1.3-2.9-0.8C231.8,462.2,231.6,463.5,232.1,464.5L232.1,464.5z"/>
				</g>
			</g>
			<g>
				<g>
					<path class="st3" d="M242.6,467.9c0,2.5-0.3,5-0.3,7.5c0,2.7,4.2,2.7,4.2,0c0-2.5,0.3-5,0.3-7.5
						C246.8,465.2,242.6,465.2,242.6,467.9L242.6,467.9z"/>
				</g>
			</g>
			<g>
				<g>
					<path class="st3" d="M250,481.8c0,1.2,0,2.4-0.1,3.5c-0.2,1.1,0.3,2.2,1.5,2.6c1,0.3,2.4-0.3,2.6-1.5c0.2-1.6,0.3-3.1,0.3-4.7
						C254.2,479.2,250,479.1,250,481.8L250,481.8z"/>
				</g>
			</g>
			<g>
				<g>
					<path class="st3" d="M239.2,484.4c0.4,1.9,0.8,3.8,1.2,5.7c0.6,2.6,4.6,1.5,4-1.1c-0.4-1.9-0.8-3.8-1.2-5.7
						C242.6,480.7,238.6,481.8,239.2,484.4L239.2,484.4z"/>
				</g>
			</g>
			<g>
				<g>
					<path class="st3" d="M246.7,495.9c0,0.1-0.1,0.9,0,0.5c0,0.2-0.1,0.4-0.1,0.6c-0.1,0.6-0.2,1.2-0.3,1.8
						c-0.1,1.1,1.1,2.1,2.1,2.1c1.3-0.1,1.9-0.9,2.1-2.1c0,0.4,0.1-0.4,0.1-0.5c0-0.2,0.1-0.4,0.1-0.6c0.1-0.6,0.2-1.2,0.2-1.8
						c0-1.1-1-2.1-2.1-2.1C247.6,493.9,246.7,494.8,246.7,495.9L246.7,495.9z"/>
				</g>
			</g>
			<g>
				<g>
					<path class="st3" d="M227.9,426.7c0.5,2.1,0.3,4.2,0.5,6.3c0.2,2.7,4.4,2.7,4.2,0c-0.2-2.5-0.1-5-0.6-7.4
						C231.3,423,227.3,424.1,227.9,426.7L227.9,426.7z"/>
				</g>
			</g>
			<g>
				<g>
					<path class="st3" d="M248.7,424.9c0.2,1.9-0.2,3.8-0.3,5.7c-0.1,1.1,1,2.1,2.1,2.1c1.2,0,2-1,2.1-2.1c0.1-1.9,0.5-3.8,0.3-5.7
						c-0.1-1.1-0.9-2.1-2.1-2.1C249.7,422.9,248.6,423.8,248.7,424.9L248.7,424.9z"/>
				</g>
			</g>
			<g>
				<g>
					<path class="st3" d="M238.6,418.8c0,1.5,0,3,0,4.5c0,2.7,4.2,2.7,4.2,0c0-1.5,0-3,0-4.5C242.7,416.1,238.6,416.1,238.6,418.8
						L238.6,418.8z"/>
				</g>
			</g>
			<g>
				<g>
					<path class="st3" d="M208.2,414.2c0,1.3-0.6,2.6-0.9,3.9c-0.3,1.1,0.3,2.3,1.5,2.6c1.1,0.3,2.3-0.4,2.6-1.5
						c0.4-1.7,1-3.2,1.1-5C212.4,411.5,208.2,411.5,208.2,414.2L208.2,414.2z"/>
				</g>
			</g>
			<g>
				<g>
					<path class="st3" d="M221.1,420.2c0.1,1,0.1,1.9,0.1,2.9c0,1.1,1,2.1,2.1,2.1c1.1-0.1,2.1-0.9,2.1-2.1c0-1,0-1.9-0.1-2.9
						c-0.1-1.1-0.9-2.1-2.1-2.1C222.2,418.1,221,419,221.1,420.2L221.1,420.2z"/>
				</g>
			</g>
			<g>
				<g>
					<path class="st3" d="M259.8,391.6c0.2-2.2,0.5-4.4,0.8-6.7c0.2-1.1-0.3-2.2-1.5-2.6c-1-0.3-2.4,0.3-2.6,1.5
						c-0.4,2.6-0.7,5.2-1,7.8C255.4,394.2,259.6,394.2,259.8,391.6L259.8,391.6z"/>
				</g>
			</g>
			<g>
				<g>
					<path class="st3" d="M244.8,385c0.1,1.7-0.2,3.3-0.2,5c0,2.7,4.1,2.7,4.2,0c0-1.7,0.3-3.3,0.2-5
						C248.8,382.3,244.6,382.3,244.8,385L244.8,385z"/>
				</g>
			</g>
			<g>
				<g>
					<path class="st3" d="M228.6,384.6c0.2,1.6-0.5,3.2-0.4,4.8c0.1,2.7,4.3,2.7,4.2,0c-0.1-1.6,0.6-3.1,0.4-4.8
						c-0.1-1.1-0.9-2.1-2.1-2.1C229.6,382.5,228.5,383.4,228.6,384.6L228.6,384.6z"/>
				</g>
			</g>
			<g>
				<g>
					<path class="st3" d="M237.5,379.6c0,1.6,0,3.2,0,4.8c0,2.7,4.2,2.7,4.2,0c0-1.6,0-3.2,0-4.8
						C241.6,376.9,237.5,376.9,237.5,379.6L237.5,379.6z"/>
				</g>
			</g>
			<g>
				<g>
					<path class="st3" d="M228,370.6c-0.4,1.2-0.9,2.2-1.1,3.4c-0.2,1.1,0.3,2.3,1.5,2.6c1,0.2,2.3-0.3,2.6-1.5
						c0.2-1.2,0.7-2.3,1.1-3.4c0.3-1-0.4-2.3-1.5-2.6C229.4,368.9,228.3,369.5,228,370.6L228,370.6z"/>
				</g>
			</g>
			<g>
				<g>
					<path class="st3" d="M219.2,382.3c0.1,2.3,0,4.6,0,6.9c0,2.7,4.2,2.7,4.2,0c0-2.3,0.1-4.6,0-6.9
						C223.2,379.7,219,379.6,219.2,382.3L219.2,382.3z"/>
				</g>
			</g>
			<g>
				<g>
					<path class="st3" d="M250.2,372.1c0.1,1.4,0.1,2.8,0.1,4.2c0,2.7,4.2,2.7,4.2,0c0-1.4,0-2.8-0.1-4.2c-0.1-1.1-0.9-2.1-2.1-2.1
						C251.2,370,250.1,371,250.2,372.1L250.2,372.1z"/>
				</g>
			</g>
			<g>
				<g>
					<path class="st3" d="M239.2,367.1c0,1.1-0.1,2.1-0.2,3.2c-0.1,1.1,1,2.1,2.1,2.1c1.2-0.1,2-0.9,2.1-2.1
						c0.1-1.1,0.2-2.1,0.2-3.2c0-1.1-1-2.1-2.1-2.1C240.2,365.1,239.2,366,239.2,367.1L239.2,367.1z"/>
				</g>
			</g>
			<g>
				<g>
					<path class="st3" d="M256.9,362c0.5,1.4,0.7,2.9,0.8,4.4c0.1,1.1,0.9,2.1,2.1,2.1c1.1,0,2.2-1,2.1-2.1c-0.1-1.9-0.4-3.8-1-5.5
						C260.1,358.4,256.1,359.5,256.9,362L256.9,362z"/>
				</g>
			</g>
			<g>
				<g>
					<path class="st3" d="M248.3,357.3c0,2,0,4.1-0.1,6.1c-0.1,2.7,4,2.7,4.2,0c0.1-2,0.1-4.1,0.1-6.1
						C252.5,354.6,248.3,354.6,248.3,357.3L248.3,357.3z"/>
				</g>
			</g>
			<g>
				<g>
					<path class="st3" d="M233.9,358.3c-0.5,1.5-1.1,2.8-1.4,4.3c-0.6,2.6,3.4,3.7,4,1.1c0.4-1.5,1-2.9,1.4-4.3
						C238.7,356.8,234.7,355.7,233.9,358.3L233.9,358.3z"/>
				</g>
			</g>
			<g>
				<g>
					<path class="st3" d="M241,351c0,1.7-0.2,3.3-0.3,5c-0.1,1.1,1,2.1,2.1,2.1c1.2,0,2-1,2.1-2.1c0.1-1.7,0.3-3.3,0.3-5
						C245.2,348.3,241,348.3,241,351L241,351z"/>
				</g>
			</g>
			<g>
				<g>
					<path class="st3" d="M230.3,343.4c0.5,2,0.2,4.2,0.8,6.2c0.8,2.6,4.8,1.5,4-1.1c-0.6-2-0.3-4.2-0.8-6.2
						C233.7,339.7,229.7,340.8,230.3,343.4L230.3,343.4z"/>
				</g>
			</g>
			<g>
				<g>
					<path class="st3" d="M257.4,346.3c-0.1,1.4-0.1,2.8-0.1,4.2c0,2.7,4.2,2.7,4.2,0c0-1.4,0-2.8,0.1-4.2c0.1-1.1-1-2.1-2.1-2.1
						C258.3,344.2,257.5,345.2,257.4,346.3L257.4,346.3z"/>
				</g>
			</g>
			<g>
				<g>
					<path class="st3" d="M250.4,341.6c0.3,1.7,0.5,3.5,0.7,5.2c0.1,1.1,0.9,2.1,2.1,2.1c1,0,2.2-1,2.1-2.1
						c-0.2-2.1-0.5-4.2-0.9-6.3c-0.2-1.1-1.6-1.7-2.6-1.5C250.7,339.4,250.2,340.5,250.4,341.6L250.4,341.6z"/>
				</g>
			</g>
			<g>
				<g>
					<path class="st3" d="M241.1,336.1c0.1,1.5-0.5,2.9-0.7,4.4c-0.2,1.1,0.3,2.3,1.5,2.6c1,0.3,2.4-0.3,2.6-1.5
						c0.3-1.9,0.9-3.7,0.9-5.5C245.2,333.4,241,333.4,241.1,336.1L241.1,336.1z"/>
				</g>
			</g>
			<g>
				<g>
					<path class="st3" d="M234.1,328.2c0.1,1.6,0.1,3.1,0.1,4.7c0,2.7,4.2,2.7,4.2,0c0-1.6,0-3.1-0.1-4.7c-0.1-1.1-0.9-2.1-2.1-2.1
						C235.1,326.1,234.1,327.1,234.1,328.2L234.1,328.2z"/>
				</g>
			</g>
			<g>
				<g>
					<path class="st3" d="M248.9,325.9c-0.1,1.6-0.1,3.1-0.1,4.7c0,2.7,4.2,2.7,4.2,0c0-1.6,0-3.1,0.1-4.7c0.1-1.1-1-2.1-2.1-2.1
						C249.8,323.8,249,324.8,248.9,325.9L248.9,325.9z"/>
				</g>
			</g>
			<g>
				<g>
					<path class="st3" d="M258.4,331.2c0.5,2,0.4,4,0.4,6c0,2.7,4.2,2.7,4.2,0c0-2.4,0-4.8-0.5-7.1
						C261.8,327.5,257.8,328.6,258.4,331.2L258.4,331.2z"/>
				</g>
			</g>
			<g>
				<g>
					<path class="st3" d="M256,315c-0.1,2-0.3,3.9-0.3,5.9c0,2.7,4.2,2.7,4.2,0c0-2,0.2-3.9,0.3-5.9
						C260.3,312.3,256.1,312.3,256,315L256,315z"/>
				</g>
			</g>
			<g>
				<g>
					<path class="st3" d="M240.9,316c0.5,2.1,0.6,4.2,0.7,6.3c0.1,2.7,4.3,2.7,4.2,0c-0.1-2.5-0.3-5-0.9-7.4
						C244.3,312.3,240.2,313.4,240.9,316L240.9,316z"/>
				</g>
			</g>
			<g>
				<g>
					<path class="st3" d="M248,308.5c0.3,1.9,0.8,3.8,1.4,5.7c0.4,1.1,1.4,1.8,2.6,1.5c1-0.3,1.8-1.5,1.5-2.6
						c-0.7-1.8-1.1-3.7-1.4-5.7c-0.2-1.1-1.6-1.7-2.6-1.5C248.2,306.2,247.8,307.4,248,308.5L248,308.5z"/>
				</g>
			</g>
			<g>
				<g>
					<path class="st3" d="M259.6,301.1c0.5,1.6,0.9,3.1,1,4.8c0.1,1.1,0.9,2.1,2.1,2.1c1.1,0,2.2-1,2.1-2.1c-0.2-2-0.6-4-1.2-5.9
						C262.8,297.5,258.8,298.6,259.6,301.1L259.6,301.1z"/>
				</g>
			</g>
			<g>
				<g>
					<path class="st3" d="M251.7,294.8c0.9,1.8,0.9,4.1,1.3,6c0.5,2.6,4.6,1.5,4-1.1c-0.5-2.4-0.7-4.8-1.8-7
						C254.1,290.2,250.5,292.4,251.7,294.8L251.7,294.8z"/>
				</g>
			</g>
			<g>
				<g>
					<path class="st3" d="M241.2,294c0.1,2.5,0.1,5,0.4,7.4c0.1,1.1,0.9,2.1,2.1,2.1c1,0,2.2-1,2.1-2.1c-0.3-2.5-0.3-4.9-0.4-7.4
						C245.3,291.4,241.1,291.4,241.2,294L241.2,294z"/>
				</g>
			</g>
			<g>
				<g>
					<path class="st3" d="M261.7,281.6c0.2,2.2,0,4.4,0,6.5c0,2.7,4.2,2.7,4.2,0c0-2.2,0.2-4.4,0-6.5
						C265.7,279,261.5,278.9,261.7,281.6L261.7,281.6z"/>
				</g>
			</g>
			<g>
				<g>
					<path class="st3" d="M247.9,280.1c0,1.6,0,3.1,0,4.7c0,2.7,4.2,2.7,4.2,0c0-1.6,0-3.1,0-4.7
						C252.1,277.4,247.9,277.4,247.9,280.1L247.9,280.1z"/>
				</g>
			</g>
			<g>
				<g>
					<path class="st3" d="M255.4,274c0.1,1.6,0,3.2,0,4.8c0,2.7,4.2,2.7,4.2,0c0-1.6,0.1-3.2,0-4.8c-0.1-1.1-0.9-2.1-2.1-2.1
						C256.4,271.9,255.4,272.8,255.4,274L255.4,274z"/>
				</g>
			</g>
			<g>
				<g>
					<path class="st3" d="M262.9,264.3c0.4,1.1,0.5,2.2,0.6,3.3c0.1,1.1,0.9,2.1,2.1,2.1c1.1,0,2.2-1,2.1-2.1
						c-0.1-1.5-0.3-3-0.7-4.4c-0.3-1.1-1.5-1.8-2.6-1.5C263.3,262,262.6,263.2,262.9,264.3L262.9,264.3z"/>
				</g>
			</g>
			<g>
				<g>
					<path class="st3" d="M246.1,259.7c0.2,2.8,0,5.6,0.4,8.4c0.2,1.1,1.6,1.7,2.6,1.5c1.2-0.3,1.6-1.5,1.5-2.6
						c-0.4-2.4-0.1-4.9-0.3-7.3C250.1,257,245.9,257,246.1,259.7L246.1,259.7z"/>
				</g>
			</g>
			<g>
				<g>
					<path class="st3" d="M253.1,255.9c0.6,2.1,1.1,4.2,1.8,6.3c0.8,2.6,4.8,1.5,4-1.1c-0.7-2.1-1.2-4.2-1.8-6.3
						C256.4,252.2,252.4,253.3,253.1,255.9L253.1,255.9z"/>
				</g>
			</g>
			<g>
				<g>
					<path class="st3" d="M262.7,243.7c0.2,1.9,0.2,3.8,0,5.8c-0.1,1.1,1,2.1,2.1,2.1c1.2,0,2-1,2.1-2.1c0.2-1.9,0.2-3.8,0-5.8
						c-0.1-1.1-0.9-2.1-2.1-2.1C263.8,241.6,262.6,242.6,262.7,243.7L262.7,243.7z"/>
				</g>
			</g>
			<g>
				<g>
					<path class="st3" d="M246.3,240.6c0,2.4,0.1,4.8,0.2,7.2c0.1,2.7,4.3,2.7,4.2,0c-0.1-2.4-0.2-4.8-0.2-7.2
						C250.5,237.9,246.3,237.9,246.3,240.6L246.3,240.6z"/>
				</g>
			</g>
			<g>
				<g>
					<path class="st3" d="M255.8,235.6c0.1,2.3,0.9,4.6,0.5,6.9c-0.2,1.1,0.3,2.2,1.5,2.6c1,0.3,2.4-0.3,2.6-1.5
						c0.4-2.7-0.3-5.3-0.4-8C259.9,232.9,255.7,232.9,255.8,235.6L255.8,235.6z"/>
				</g>
			</g>
			<g>
				<g>
					<path class="st3" d="M266.3,227.2c0.2,1.6,0.1,3.2,0.1,4.8c0,2.7,4.2,2.7,4.2,0c0-1.6,0.1-3.2-0.1-4.8
						c-0.1-1.1-0.9-2.1-2.1-2.1C267.4,225.1,266.2,226,266.3,227.2L266.3,227.2z"/>
				</g>
			</g>
			<g>
				<g>
					<path class="st3" d="M248.4,224.7c0.4,2.2,0.4,4.5,1.8,6.4c0.7,0.9,1.8,1.4,2.9,0.8c0.9-0.5,1.4-1.9,0.8-2.9
						c-1.1-1.5-1-3.6-1.3-5.4c-0.2-1.1-1.6-1.7-2.6-1.5C248.7,222.5,248.2,223.6,248.4,224.7L248.4,224.7z"/>
				</g>
			</g>
			<g>
				<g>
					<path class="st3" d="M236.7,224.5c0,1.8,0,3.7,0,5.5c0,2.7,4.2,2.7,4.2,0c0-1.8,0-3.7,0-5.5
						C240.9,221.8,236.7,221.8,236.7,224.5L236.7,224.5z"/>
				</g>
			</g>
			<g>
				<g>
					<path class="st3" d="M258.6,219.7c-0.1,1.7,0.2,3.4,0.6,5.1c0.7,2.6,4.8,1.5,4-1.1c-0.4-1.3-0.6-2.6-0.5-4
						c0.1-1.1-1-2.1-2.1-2.1C259.5,217.6,258.7,218.6,258.6,219.7L258.6,219.7z"/>
				</g>
			</g>
			<g>
				<g>
					<path class="st3" d="M242.2,213.9c0,1.3-0.3,2.5-0.6,3.8c-0.3,1.1,0.3,2.3,1.5,2.6c1.1,0.3,2.3-0.4,2.6-1.5
						c0.4-1.6,0.7-3.2,0.7-4.9C246.5,211.2,242.3,211.2,242.2,213.9L242.2,213.9z"/>
				</g>
			</g>
			<g>
				<g>
					<path class="st3" d="M229.8,211.7c0.1,1.9,0.1,3.8,0.1,5.7c0,2.7,4.2,2.7,4.2,0c0-1.9,0-3.8-0.1-5.7
						C233.8,209.1,229.7,209,229.8,211.7L229.8,211.7z"/>
				</g>
			</g>
			<g>
				<g>
					<path class="st3" d="M225.1,224.5c0.3,1.5,0.6,3.1,0.8,4.7c0.1,1.1,0.9,2.1,2.1,2.1c1,0,2.2-1,2.1-2.1c-0.3-1.9-0.6-3.9-1-5.8
						c-0.2-1.1-1.5-1.7-2.6-1.5C225.4,222.2,224.9,223.4,225.1,224.5L225.1,224.5z"/>
				</g>
			</g>
			<path class="st0" d="M216,416.1c0.5,3.5,3.7,4.1,5.4,4.4c9.6,1.9,30.9-6.5,37.8,5.5c0.1-1.8,0.5-7.6,1-14.3
				c-3.1,0.8-13.9,4.2-31.1,5.8c-1.2,0.1-10.6,1.5-10.3-1.6c0.1-4.1,6.8-5,6.9-5.3c0,0-9,1.2-9.3-2.7c-0.6-3.6,9.2-4.1,9.2-4.4
				c-0.7,0-9.8,1-9.4-5c0.9-4.1,45.3-3.5,45.3-4.1c0.4-5.1,0.6-8.8,0.6-8.8s-9.1,8-22.9,8.6c-0.8,0-8.7,0.3-9.5,0.4
				c-1.7,0.2-9.7,0.8-9.7,0.8c-0.9,0.6-5.2-0.1-5.2,4c0,4.6,6.3,3.7,5.4,4.2c-1.1,0.6-5.1,0.6-5.1,4c0.1,5.6,9.9,2.9,7.5,3.6
				C219.8,412.1,215.6,412.3,216,416.1z"/>
			<path class="st0" d="M99.5,388.8c-0.5,3.5-3.7,4.1-5.4,4.4c-9.6,1.9-30.2-6.5-37.2,5.5c-0.1-1.8-0.8-7.5-1.3-14.2
				c3.1,0.8,12.7,2.8,29.8,5c1.2,0.1,12.2,0.8,12-1.8c-0.1-4.1-6.8-4.9-6.8-5.3c0,0,8.6,0.6,8.9-3c0.6-3.6-8.6-4-8.6-4.3
				c0.7,0,9.1,0.8,8.7-5.1c-0.6-3.6-45.4-2.4-45.5-3.1c-0.5-5.1-0.9-8.7-0.9-8.7s8.4,7.4,22.3,8c0.8,0,9.5,0.2,10.3,0.3
				c1.7,0.2,9.7,0.7,9.7,0.7c0.9,0.6,5.3-0.3,5.3,3.8c0,4.6-5.8,4-4.8,4.5c1.1,0.6,4.6,1.2,4.5,4.7c-0.1,5.6-8.1,1.9-5.7,2.6
				C97.4,383.8,99.9,385,99.5,388.8z"/>
			<path class="st0" d="M153.3,443.1c0,0-56.5-5.4-69.7,19.6c-12.1,24.3-0.9,44.9-0.9,44.9s-7.4-21,9.7-39.3
				C114.7,443.3,153.3,443.1,153.3,443.1z"/>
			<path class="st0" d="M161.3,443.1c0,0,62.4-5.5,75.6,19.6c12.1,24.3-0.9,46.1-0.9,46.1s8.5-23.1-7.4-41.9
				C206.2,441.9,161.3,443.1,161.3,443.1z"/>
			<g>
				<g>
					<path class="st4" d="M98.3,374.5c2.7,0,2.7-4.2,0-4.2C95.6,370.4,95.6,374.5,98.3,374.5L98.3,374.5z"/>
				</g>
			</g>
			<path class="st5" d="M227.2,366.5c-9.8,36.8-21.8,61.8-68.5,61.9c-45.7,0.1-60.2-36.5-74-85c-6.3-22,15.6-93.2,28.2-106.1
				c16.3-16.5,14.2-2.4,41.1-2.4c26.9,0,75.8-17.6,90,0C258.3,252.6,233.1,344.4,227.2,366.5z"/>
			<path class="st6" d="M151.5,278.6c0,24.8,19.4,45,43.3,45c23.9,0,43.3-20.1,43.3-45c0-24.8-19.4-44.9-43.3-44.9
				C170.9,233.6,151.5,253.7,151.5,278.6z"/>
			<ellipse class="st5" cx="194.3" cy="277.2" rx="21.4" ry="22"/>
			<path class="st6" d="M184.1,275.7c0,5.5,4.4,10,9.7,10c5.4,0,9.7-4.5,9.7-10c0-5.5-4.4-10-9.7-10
				C188.5,265.7,184.1,270.2,184.1,275.7z"/>
			<ellipse class="st6" cx="202.4" cy="289.8" rx="4" ry="4.1"/>
			<path class="st7" d="M167.1,328.8c1,6.7-3,10.6-7.4,10.4c-4.4-0.1-8-3.3-7.8-8.9c0.2-5.3,3.1-11.3,7.2-16.4
				C159.1,313.9,166.2,322.7,167.1,328.8z"/>
			<path class="st6" d="M206.4,386.7c0,19.2-25.4,31-47.5,31c-22.1,0-46.5-11.8-46.5-31c0-19.2,25.1-38.8,47.2-38.8
				C181.7,347.9,206.4,367.5,206.4,386.7z"/>
			<path class="st5" d="M164.2,351.6c0.3,1.4,2.2,12.5,2.2,12.5s5.6-8.2,7.1-10.5C172.9,352.5,166.5,350.5,164.2,351.6z"/>
			<path class="st5" d="M175.5,354.5c-0.2,2-1.8,17.7-1.8,17.7s10.8-8.9,13.7-11.4C186.8,359.1,179.1,354,175.5,354.5z"/>
			<path class="st5" d="M188.7,362.1c-0.2,0.8-2.1,7.2-2.1,7.2s5.1-2.8,6.5-3.7C193,364.8,190.2,362.1,188.7,362.1z"/>
			<path class="st5" d="M176.8,412.4c-0.6-0.6-5.9-4.8-5.9-4.8s0.1,5.9,0.2,7.5C171.7,415.3,176,413.7,176.8,412.4z"/>
			<path class="st5" d="M189.8,406.8c-1.4-1.4-16.3-21.2-16.3-21.2s6.8,21.9,7,25.7C184.2,410.8,187.3,409.3,189.8,406.8z"/>

				<ellipse transform="matrix(0.1545 -0.988 0.988 0.1545 -233.8075 396.6429)" class="st8" cx="114.8" cy="334.9" rx="6.1" ry="6.1"/>

				<ellipse transform="matrix(0.1545 -0.988 0.988 0.1545 -153.7486 494.0604)" class="st8" cx="211.8" cy="336.9" rx="5.1" ry="5.1"/>
			<path class="st1" d="M53.1,347.9c-16.9-2-30.7,1.1-27.7,11.8c4.8,12.7,74.3,4.1,74.3,10.7c0,5.4-9.8,4.7-9.8,4.7s9.8,0.7,9.9,3.9
				c0.1,4.4-9.7,3.3-9.7,3.3s8.6,1.7,7.2,5.9c-1.6,5-79.6-5.6-79.6-27.2c0-19.2,34.2-26.2,34.2-26.2L53.1,347.9z"/>
			<g>
				<g>
					<path class="st3" d="M48.3,338.1c-1.3,0-2.5,0.2-3.7,0.5c-1.3,0.4-0.7,2.4,0.6,2c1-0.3,2.1-0.4,3.2-0.4
						C49.6,340.2,49.6,338.1,48.3,338.1L48.3,338.1z"/>
				</g>
			</g>
			<g>
				<g>
					<path class="st3" d="M48.9,342c-1,0-1.9,0-2.8,0.2c-0.6,0.1-0.9,0.8-0.7,1.3c0.2,0.6,0.7,0.8,1.3,0.7c0.8-0.1,1.5-0.1,2.3-0.1
						C50.2,344.1,50.2,342,48.9,342L48.9,342z"/>
				</g>
			</g>
			<g>
				<g>
					<path class="st3" d="M42.3,341c-0.4,0.1-0.8,0.1-1.2,0.3c-0.5,0.2-0.9,0.7-0.7,1.3c0.1,0.5,0.8,0.9,1.3,0.7
						c0.4-0.2,0.8-0.2,1.2-0.3C44.2,342.6,43.6,340.6,42.3,341L42.3,341z"/>
				</g>
			</g>
			<g>
				<g>
					<path class="st3" d="M36.4,341.4c-0.4,0.4-0.9,0.6-1.3,0.9c-1.1,0.7-0.1,2.5,1.1,1.8c0.6-0.4,1.2-0.7,1.7-1.2
						C38.9,342,37.4,340.5,36.4,341.4L36.4,341.4z"/>
				</g>
			</g>
			<g>
				<g>
					<path class="st3" d="M38.8,344.1c-0.6,0-1.2,0.2-1.7,0.4c-0.5,0.2-0.6,1-0.4,1.4c0.3,0.5,0.9,0.6,1.4,0.4
						c0.2-0.1,0.4-0.1,0.7-0.2C40.2,346.2,40.2,344.1,38.8,344.1L38.8,344.1z"/>
				</g>
			</g>
			<g>
				<g>
					<path class="st3" d="M32.3,344.8c-0.8,0.2-1.5,0.4-2.2,0.9c-0.5,0.3-0.7,0.9-0.4,1.4c0.3,0.5,1,0.7,1.4,0.4
						c0.5-0.4,1.1-0.5,1.7-0.6c0.6-0.1,0.9-0.8,0.7-1.3C33.4,344.9,32.8,344.6,32.3,344.8L32.3,344.8z"/>
				</g>
			</g>
			<g>
				<g>
					<path class="st3" d="M26.1,347c-0.3,0.2-0.5,0.4-0.8,0.6c-1.2,0.6-0.1,2.4,1.1,1.8c0.5-0.2,0.9-0.6,1.3-0.9
						C28.6,347.5,27.1,346.1,26.1,347L26.1,347z"/>
				</g>
			</g>
			<g>
				<g>
					<path class="st3" d="M23.7,351.6c-0.1,0.4-0.3,0.8-0.4,1.2c-0.4,1.3,1.6,1.8,2,0.6c0.1-0.4,0.3-0.8,0.4-1.2
						C26.2,350.9,24.2,350.4,23.7,351.6L23.7,351.6z"/>
				</g>
			</g>
			<g>
				<g>
					<path class="st3" d="M20,354.6c-0.1,0.6-0.3,1.2-0.5,1.8c-0.3,1.3,1.7,1.9,2,0.6c0.2-0.6,0.3-1.2,0.5-1.8
						C22.3,353.9,20.3,353.3,20,354.6L20,354.6z"/>
				</g>
			</g>
			<g>
				<g>
					<path class="st3" d="M22.2,358.8c0.1,0.6,0.3,1.2,0.4,1.8c0.3,1.3,2.3,0.8,2-0.6c-0.1-0.6-0.3-1.2-0.4-1.8
						C23.9,356.9,21.9,357.5,22.2,358.8L22.2,358.8z"/>
				</g>
			</g>
			<g>
				<g>
					<path class="st3" d="M19.5,362.6c0.3,0.6,0.7,1.2,1.2,1.7c0.9,1,2.4-0.5,1.5-1.5c-0.4-0.4-0.6-0.8-0.9-1.3
						C20.7,360.4,18.9,361.5,19.5,362.6L19.5,362.6z"/>
				</g>
			</g>
			<g>
				<g>
					<path class="st3" d="M24.9,365.3c0.3,0.3,0.6,0.5,0.9,0.8c1,0.9,2.5-0.6,1.5-1.5c-0.3-0.3-0.6-0.5-0.9-0.8
						C25.4,362.9,23.9,364.3,24.9,365.3L24.9,365.3z"/>
				</g>
			</g>
			<g>
				<g>
					<path class="st3" d="M24.5,369.3c0.6,0.4,1.2,0.9,1.8,1.2c1.2,0.6,2.3-1.2,1.1-1.8c-0.6-0.3-1.2-0.8-1.8-1.2
						c-0.5-0.3-1.2-0.1-1.4,0.4C23.8,368.4,24.1,369,24.5,369.3L24.5,369.3z"/>
				</g>
			</g>
			<g>
				<g>
					<path class="st3" d="M30.2,367.6c0.8,0.2,1.7,0.2,2.5,0.2c1.3,0,1.3-2.1,0-2.1c-0.7,0-1.3,0-2-0.1c-0.6-0.1-1.1,0.2-1.3,0.7
						C29.3,366.8,29.6,367.5,30.2,367.6L30.2,367.6z"/>
				</g>
			</g>
			<g>
				<g>
					<path class="st3" d="M30.2,370.7c0.6,0.3,1.2,0.5,1.9,0.7c1.3,0.3,1.9-1.7,0.6-2c-0.5-0.1-0.9-0.3-1.4-0.5
						c-0.5-0.2-1.1-0.1-1.4,0.4C29.6,369.7,29.7,370.4,30.2,370.7L30.2,370.7z"/>
				</g>
			</g>
			<g>
				<g>
					<path class="st3" d="M31.2,373.8c1.1,0.9,2.5,1.2,3.9,1.2c1.3,0,1.3-2.1,0-2.1c-0.8,0-1.7-0.1-2.4-0.6c-0.4-0.3-1-0.4-1.5,0
						C30.8,372.7,30.8,373.5,31.2,373.8L31.2,373.8z"/>
				</g>
			</g>
			<g>
				<g>
					<path class="st3" d="M35.6,371.8c0.9,0.3,1.8,0.3,2.7,0.3c1.3,0,1.3-2.1,0-2.1c-0.7,0-1.4,0-2.1-0.3c-0.5-0.2-1.1,0.2-1.3,0.7
						C34.7,371.1,35,371.6,35.6,371.8L35.6,371.8z"/>
				</g>
			</g>
			<g>
				<g>
					<path class="st3" d="M38.3,369.1c0.7,0.2,1.5,0.2,2.2,0.2c1.3,0,1.3-2.1,0-2.1c-0.6,0-1.1,0-1.7-0.1
						C37.5,366.8,36.9,368.8,38.3,369.1L38.3,369.1z"/>
				</g>
			</g>
			<g>
				<g>
					<path class="st3" d="M41,376.5c0.6,0.2,1.3,0.2,1.9,0.2c1.3,0,1.3-2.1,0-2.1c-0.5,0-0.9,0-1.4-0.1
						C40.2,374.1,39.7,376.1,41,376.5L41,376.5z"/>
				</g>
			</g>
			<g>
				<g>
					<path class="st3" d="M42.5,373.3c0.5,0.1,1,0.2,1.5,0.2c1.3,0,1.3-2.1,0-2.1c-0.3,0-0.6,0-0.9-0.1
						C41.7,370.9,41.2,373,42.5,373.3L42.5,373.3z"/>
				</g>
			</g>
			<g>
				<g>
					<path class="st3" d="M44.6,370.3c0.6,0.2,1.2,0.2,1.8,0.2c1.3,0,1.3-2.1,0-2.1c-0.4,0-0.8,0-1.2-0.1
						C43.8,367.9,43.3,370,44.6,370.3L44.6,370.3z"/>
				</g>
			</g>
			<g>
				<g>
					<path class="st3" d="M46.4,376.5c0.6,0.2,1.3,0.2,1.9,0.2c1.3,0,1.3-2.1,0-2.1c-0.5,0-0.9,0-1.4-0.1
						C45.6,374.1,45.1,376.1,46.4,376.5L46.4,376.5z"/>
				</g>
			</g>
			<g>
				<g>
					<path class="st3" d="M49.9,373.4c0.2,0,0.3,0,0.5,0c1.3,0,1.3-2.1,0-2.1c-0.2,0-0.3,0-0.5,0C48.6,371.3,48.6,373.4,49.9,373.4
						L49.9,373.4z"/>
				</g>
			</g>
			<g>
				<g>
					<path class="st3" d="M50.4,379.3c1.1,0.2,2.2,0.2,3.3,0.2c1.3,0,1.3-2.1,0-2.1c-0.9,0-1.8,0-2.7-0.1c-0.6-0.1-1.1,0.1-1.3,0.7
						C49.5,378.5,49.8,379.2,50.4,379.3L50.4,379.3z"/>
				</g>
			</g>
			<g>
				<g>
					<path class="st3" d="M54.3,375.9c0.6,0,1.2,0.1,1.8,0.1c1.3,0,1.3-2.1,0-2.1c-0.6,0-1.2-0.1-1.8-0.1
						C52.9,373.8,52.9,375.9,54.3,375.9L54.3,375.9z"/>
				</g>
			</g>
			<g>
				<g>
					<path class="st3" d="M53.6,370.6c0.6,0.2,1.2,0.3,1.8,0.3c1.3,0,1.3-2,0-2.1c-0.4,0-0.8-0.1-1.2-0.3
						C52.8,368.2,52.3,370.2,53.6,370.6L53.6,370.6z"/>
				</g>
			</g>
			<g>
				<g>
					<path class="st3" d="M57.9,373.2c0.5,0.1,1.1,0.2,1.6,0.3c1.3,0.3,1.9-1.7,0.6-2c-0.5-0.1-1.1-0.2-1.6-0.3
						C57.2,370.9,56.6,372.9,57.9,373.2L57.9,373.2z"/>
				</g>
			</g>
			<g>
				<g>
					<path class="st3" d="M58.2,379c0.6,0.1,1.2,0.3,1.8,0.4c1.3,0.3,1.9-1.7,0.6-2c-0.6-0.1-1.2-0.3-1.8-0.4
						C57.5,376.7,56.9,378.7,58.2,379L58.2,379z"/>
				</g>
			</g>
			<g>
				<g>
					<path class="st3" d="M63,376.7c0.5,0,0.9,0,1.4,0.1c1.3,0.4,1.8-1.6,0.6-2c-0.6-0.2-1.3-0.2-1.9-0.2
						C61.6,374.6,61.6,376.7,63,376.7L63,376.7z"/>
				</g>
			</g>
			<g>
				<g>
					<path class="st3" d="M62.6,370.8c0.9,0.5,2,0.7,3.1,0.7c1.3,0,1.3-2.1,0-2.1c-0.7,0-1.4-0.1-2-0.5
						C62.5,368.4,61.4,370.2,62.6,370.8L62.6,370.8z"/>
				</g>
			</g>
			<g>
				<g>
					<path class="st3" d="M64.7,381.1c0.8,0.1,1.6,0.2,2.4,0.2c1.3,0,1.3-2.1,0-2.1c-0.6,0-1.2,0-1.8-0.1c-0.6-0.1-1.1,0.2-1.3,0.7
						C63.8,380.4,64.1,381,64.7,381.1L64.7,381.1z"/>
				</g>
			</g>
			<g>
				<g>
					<path class="st3" d="M68.3,375.1c0.7,0.2,1.4,0.2,2.1,0.2c1.3,0,1.3-2.1,0-2.1c-0.5,0-1,0-1.5-0.1
						C67.5,372.8,66.9,374.8,68.3,375.1L68.3,375.1z"/>
				</g>
			</g>
			<g>
				<g>
					<path class="st3" d="M69.4,378.8c0.6,0.4,1.3,0.6,2,0.6c1.3,0,1.3-2.1,0-2.1c-0.4,0-0.7-0.1-1-0.3
						C69.3,376.2,68.2,378.1,69.4,378.8L69.4,378.8z"/>
				</g>
			</g>
			<g>
				<g>
					<path class="st3" d="M74.1,377.2c0.6,0.1,1.2,0.2,1.8,0.3c1.3,0.3,1.9-1.7,0.6-2c-0.6-0.1-1.2-0.2-1.8-0.3
						C73.4,374.9,72.8,376.9,74.1,377.2L74.1,377.2z"/>
				</g>
			</g>
			<g>
				<g>
					<path class="st3" d="M72.7,372c0.5,0.4,1.1,0.7,1.8,0.9c1.3,0.4,1.9-1.7,0.6-2c-0.5-0.1-0.9-0.4-1.3-0.6
						c-0.5-0.3-1.2-0.1-1.4,0.4C72,371.1,72.2,371.7,72.7,372L72.7,372z"/>
				</g>
			</g>
			<g>
				<g>
					<path class="st3" d="M75.3,381.9c0.5,0,1,0,1.5,0c1.3,0,1.3-2.1,0-2.1c-0.5,0-1,0-1.5,0C73.9,379.8,73.9,381.9,75.3,381.9
						L75.3,381.9z"/>
				</g>
			</g>
			<g>
				<g>
					<path class="st3" d="M79.1,375.4c0.7,0.1,1.4,0.2,2.1,0.3c0.6,0.1,1.1-0.2,1.3-0.7c0.1-0.5-0.2-1.2-0.7-1.3
						c-0.7-0.1-1.4-0.2-2.1-0.3c-0.6-0.1-1.1,0.2-1.3,0.7C78.2,374.7,78.5,375.3,79.1,375.4L79.1,375.4z"/>
				</g>
			</g>
			<g>
				<g>
					<path class="st3" d="M80.4,379.9c0.4,0.2,0.8,0.2,1.2,0.2c1.3,0,1.3-2.1,0-2.1c-0.2,0-0.4,0-0.6-0.1c-0.5-0.2-1.2,0.2-1.3,0.7
						C79.5,379.2,79.9,379.7,80.4,379.9L80.4,379.9z"/>
				</g>
			</g>
			<g>
				<g>
					<path class="st3" d="M84.5,378.3c0.5,0.3,1,0.5,1.6,0.6c0.6,0.1,1-0.5,1-1c0-0.6-0.5-1-1-1c0.2,0-0.1-0.1-0.1-0.1
						c-0.1-0.1-0.3-0.1-0.4-0.2C84.4,375.9,83.3,377.7,84.5,378.3L84.5,378.3z"/>
				</g>
			</g>
			<g>
				<g>
					<path class="st3" d="M267.1,367.1c1.1,0,2.1,0.1,3.2,0.4c1.3,0.4,1.9-1.7,0.6-2c-1.2-0.3-2.5-0.5-3.7-0.5
						C265.8,365,265.8,367.1,267.1,367.1L267.1,367.1z"/>
				</g>
			</g>
			<g>
				<g>
					<path class="st3" d="M266.5,371c0.8,0,1.5,0,2.3,0.1c0.6,0.1,1.1-0.1,1.3-0.7c0.1-0.5-0.2-1.2-0.7-1.3
						c-0.9-0.1-1.9-0.2-2.8-0.2C265.2,368.9,265.2,371,266.5,371L266.5,371z"/>
				</g>
			</g>
			<g>
				<g>
					<path class="st3" d="M272.5,370c0.4,0.1,0.8,0.1,1.2,0.3c0.5,0.2,1.2-0.2,1.3-0.7c0.2-0.6-0.2-1.1-0.7-1.3
						c-0.4-0.2-0.8-0.2-1.2-0.3C271.8,367.6,271.3,369.6,272.5,370L272.5,370z"/>
				</g>
			</g>
			<g>
				<g>
					<path class="st3" d="M277.5,369.8c0.5,0.5,1.1,0.8,1.7,1.2c1.1,0.7,2.2-1.1,1.1-1.8c-0.4-0.3-0.9-0.5-1.3-0.9
						C278,367.4,276.5,368.9,277.5,369.8L277.5,369.8z"/>
				</g>
			</g>
			<g>
				<g>
					<path class="st3" d="M276.6,373.1c0.2,0,0.5,0.1,0.7,0.2c0.5,0.2,1.1,0.1,1.4-0.4c0.3-0.5,0.1-1.2-0.4-1.4
						c-0.6-0.3-1.1-0.4-1.7-0.4C275.2,371,275.2,373.1,276.6,373.1L276.6,373.1z"/>
				</g>
			</g>
			<g>
				<g>
					<path class="st3" d="M282.6,373.7c0.6,0.1,1.2,0.3,1.7,0.6c0.5,0.3,1.2,0.1,1.4-0.4c0.3-0.5,0.1-1.1-0.4-1.4
						c-0.7-0.5-1.4-0.7-2.2-0.9c-0.6-0.1-1.1,0.2-1.3,0.7C281.7,372.9,282,373.6,282.6,373.7L282.6,373.7z"/>
				</g>
			</g>
			<g>
				<g>
					<path class="st3" d="M287.8,375.4c0.4,0.4,0.8,0.7,1.3,0.9c1.2,0.6,2.2-1.2,1.1-1.8c-0.3-0.2-0.6-0.3-0.8-0.6
						C288.3,373,286.9,374.5,287.8,375.4L287.8,375.4z"/>
				</g>
			</g>
			<g>
				<g>
					<path class="st3" d="M289.7,379.1c0.1,0.4,0.3,0.8,0.4,1.2c0.2,0.5,0.7,0.9,1.3,0.7c0.5-0.1,0.9-0.8,0.7-1.3
						c-0.1-0.4-0.3-0.8-0.4-1.2c-0.2-0.5-0.7-0.9-1.3-0.7C289.9,378,289.5,378.6,289.7,379.1L289.7,379.1z"/>
				</g>
			</g>
			<g>
				<g>
					<path class="st3" d="M293.4,382.1c0.1,0.6,0.3,1.2,0.5,1.8c0.3,1.3,2.3,0.8,2-0.6c-0.2-0.6-0.3-1.2-0.5-1.8
						C295.1,380.3,293.1,380.8,293.4,382.1L293.4,382.1z"/>
				</g>
			</g>
			<g>
				<g>
					<path class="st3" d="M291.2,385.2c-0.1,0.6-0.3,1.2-0.4,1.8c-0.3,1.3,1.7,1.9,2,0.6c0.1-0.6,0.3-1.2,0.4-1.8
						C293.5,384.4,291.5,383.9,291.2,385.2L291.2,385.2z"/>
				</g>
			</g>
			<g>
				<g>
					<path class="st3" d="M294.1,388.5c-0.2,0.5-0.5,0.9-0.9,1.3c-0.9,1,0.5,2.4,1.5,1.5c0.5-0.5,0.9-1.1,1.2-1.7
						C296.5,388.4,294.7,387.3,294.1,388.5L294.1,388.5z"/>
				</g>
			</g>
			<g>
				<g>
					<path class="st3" d="M289,390.7c-0.3,0.3-0.6,0.5-0.9,0.8c-1,0.9,0.5,2.4,1.5,1.5c0.3-0.3,0.6-0.5,0.9-0.8
						C291.5,391.3,290,389.8,289,390.7L289,390.7z"/>
				</g>
			</g>
			<g>
				<g>
					<path class="st3" d="M289.8,394.4c-0.6,0.4-1.2,0.9-1.8,1.2c-1.2,0.6-0.1,2.4,1.1,1.8c0.6-0.3,1.2-0.8,1.8-1.2
						c0.5-0.3,0.7-0.9,0.4-1.4C291,394.4,290.3,394.1,289.8,394.4L289.8,394.4z"/>
				</g>
			</g>
			<g>
				<g>
					<path class="st3" d="M284.7,392.5c-0.6,0.1-1.3,0.1-2,0.1c-1.3,0-1.3,2.1,0,2.1c0.9,0,1.7,0,2.5-0.2c0.6-0.1,0.9-0.8,0.7-1.3
						C285.8,392.7,285.3,392.4,284.7,392.5L284.7,392.5z"/>
				</g>
			</g>
			<g>
				<g>
					<path class="st3" d="M284.1,395.8c-0.5,0.2-0.9,0.4-1.4,0.5c-1.3,0.3-0.8,2.4,0.6,2c0.7-0.2,1.3-0.4,1.9-0.7
						c0.5-0.2,0.6-1,0.4-1.4C285.3,395.7,284.7,395.5,284.1,395.8L284.1,395.8z"/>
				</g>
			</g>
			<g>
				<g>
					<path class="st3" d="M282.7,399.3c-0.7,0.5-1.6,0.6-2.4,0.6c-1.3,0-1.3,2.1,0,2.1c1.4,0,2.7-0.3,3.9-1.2c0.4-0.3,0.4-1.1,0-1.5
						C283.8,398.8,283.2,398.9,282.7,399.3L282.7,399.3z"/>
				</g>
			</g>
			<g>
				<g>
					<path class="st3" d="M279.3,396.7c-0.7,0.3-1.4,0.3-2.1,0.3c-1.3,0-1.3,2.1,0,2.1c0.9,0,1.8,0,2.7-0.3c0.5-0.2,0.9-0.7,0.7-1.3
						C280.4,397,279.8,396.5,279.3,396.7L279.3,396.7z"/>
				</g>
			</g>
			<g>
				<g>
					<path class="st3" d="M276.6,394c-0.5,0.1-1.1,0.1-1.7,0.1c-1.3,0-1.3,2.1,0,2.1c0.7,0,1.5,0,2.2-0.2
						C278.5,395.8,277.9,393.7,276.6,394L276.6,394z"/>
				</g>
			</g>
			<g>
				<g>
					<path class="st3" d="M273.9,401.4c-0.4,0.1-0.9,0.1-1.4,0.1c-1.3,0-1.3,2.1,0,2.1c0.6,0,1.3,0,1.9-0.2
						C275.7,403,275.2,401,273.9,401.4L273.9,401.4z"/>
				</g>
			</g>
			<g>
				<g>
					<path class="st3" d="M272.4,398.2c-0.3,0.1-0.6,0.1-0.9,0.1c-1.3,0-1.3,2.1,0,2.1c0.5,0,1,0,1.5-0.2
						C274.2,399.9,273.7,397.9,272.4,398.2L272.4,398.2z"/>
				</g>
			</g>
			<g>
				<g>
					<path class="st3" d="M270.3,395.2c-0.4,0.1-0.8,0.1-1.2,0.1c-1.3,0-1.3,2.1,0,2.1c0.6,0,1.2,0,1.8-0.2
						C272.1,396.9,271.6,394.9,270.3,395.2L270.3,395.2z"/>
				</g>
			</g>
			<g>
				<g>
					<path class="st3" d="M268.5,401.4c-0.4,0.1-0.9,0.1-1.4,0.1c-1.3,0-1.3,2.1,0,2.1c0.6,0,1.3,0,1.9-0.2
						C270.3,403,269.8,401,268.5,401.4L268.5,401.4z"/>
				</g>
			</g>
			<g>
				<g>
					<path class="st3" d="M265.5,398.2c-0.2,0-0.3,0-0.5,0c-1.3,0-1.3,2.1,0,2.1c0.1,0,0.3,0,0.5,0
						C266.8,400.3,266.8,398.2,265.5,398.2L265.5,398.2z"/>
				</g>
			</g>
			<g>
				<g>
					<path class="st3" d="M264.4,404.2c-0.9,0.1-1.8,0.1-2.7,0.1c-1.3,0-1.3,2.1,0,2.1c1.1,0,2.2,0,3.3-0.2c0.6-0.1,0.9-0.8,0.7-1.3
						C265.6,404.4,265,404.2,264.4,404.2L264.4,404.2z"/>
				</g>
			</g>
			<g>
				<g>
					<path class="st3" d="M261.1,400.8c-0.6,0-1.2,0.1-1.8,0.1c-1.3,0-1.3,2.1,0,2.1c0.6,0,1.2-0.1,1.8-0.1
						C262.5,402.8,262.5,400.7,261.1,400.8L261.1,400.8z"/>
				</g>
			</g>
			<g>
				<g>
					<path class="st3" d="M261.3,395.5c-0.4,0.1-0.8,0.2-1.2,0.3c-1.3,0-1.3,2.1,0,2.1c0.6,0,1.2-0.2,1.8-0.3
						C263.1,397.1,262.6,395.1,261.3,395.5L261.3,395.5z"/>
				</g>
			</g>
			<g>
				<g>
					<path class="st3" d="M256.9,398.1c-0.5,0.1-1.1,0.2-1.6,0.3c-1.3,0.3-0.8,2.3,0.6,2c0.5-0.1,1.1-0.2,1.6-0.3
						C258.8,399.8,258.3,397.8,256.9,398.1L256.9,398.1z"/>
				</g>
			</g>
			<g>
				<g>
					<path class="st3" d="M256.6,403.9c-0.6,0.1-1.2,0.3-1.8,0.4c-1.3,0.3-0.8,2.3,0.6,2c0.6-0.1,1.2-0.3,1.8-0.4
						C258.5,405.6,258,403.6,256.6,403.9L256.6,403.9z"/>
				</g>
			</g>
			<g>
				<g>
					<path class="st3" d="M252.4,401.5c-0.6,0-1.3,0-1.9,0.2c-1.3,0.4-0.7,2.4,0.6,2c0.4-0.1,0.9-0.1,1.4-0.1
						C253.8,403.6,253.8,401.5,252.4,401.5L252.4,401.5z"/>
				</g>
			</g>
			<g>
				<g>
					<path class="st3" d="M251.7,395.9c-0.6,0.4-1.3,0.4-2,0.5c-1.3,0-1.3,2.1,0,2.1c1.1,0,2.1-0.2,3.1-0.7
						C254,397.1,252.9,395.3,251.7,395.9L251.7,395.9z"/>
				</g>
			</g>
			<g>
				<g>
					<path class="st3" d="M250.2,406c-0.6,0.1-1.2,0.1-1.8,0.1c-1.3,0-1.3,2.1,0,2.1c0.8,0,1.6,0,2.4-0.2c0.6-0.1,0.9-0.8,0.7-1.3
						C251.3,406.2,250.8,405.9,250.2,406L250.2,406z"/>
				</g>
			</g>
			<g>
				<g>
					<path class="st3" d="M246.6,400c-0.5,0.1-1,0.1-1.5,0.1c-1.3,0-1.3,2.1,0,2.1c0.7,0,1.4,0,2.1-0.2
						C248.5,401.8,247.9,399.7,246.6,400L246.6,400z"/>
				</g>
			</g>
			<g>
				<g>
					<path class="st3" d="M245,403.9c-0.3,0.2-0.6,0.3-1,0.3c-1.3,0-1.3,2.1,0,2.1c0.7,0,1.4-0.2,2-0.6
						C247.2,405,246.1,403.2,245,403.9L245,403.9z"/>
				</g>
			</g>
			<g>
				<g>
					<path class="st3" d="M240.7,402.1c-0.6,0.1-1.2,0.2-1.8,0.3c-1.3,0.3-0.8,2.3,0.6,2c0.6-0.1,1.2-0.2,1.8-0.3
						C242.6,403.9,242.1,401.8,240.7,402.1L240.7,402.1z"/>
				</g>
			</g>
			<g>
				<g>
					<path class="st3" d="M241.7,397.1c-0.4,0.3-0.8,0.5-1.3,0.6c-1.3,0.4-0.7,2.4,0.6,2c0.6-0.2,1.2-0.5,1.8-0.9
						c0.5-0.3,0.7-0.9,0.4-1.4C242.9,397.1,242.2,396.8,241.7,397.1L241.7,397.1z"/>
				</g>
			</g>
			<g>
				<g>
					<path class="st3" d="M240.1,406.8c-0.5,0-1,0-1.5,0c-1.3,0-1.3,2.1,0,2.1c0.5,0,1,0,1.5,0C241.5,408.8,241.5,406.8,240.1,406.8
						L240.1,406.8z"/>
				</g>
			</g>
			<g>
				<g>
					<path class="st3" d="M235.8,400.3c-0.7,0.1-1.4,0.2-2.1,0.3c-0.6,0.1-0.9,0.8-0.7,1.3c0.2,0.6,0.7,0.8,1.3,0.7
						c0.7-0.1,1.4-0.2,2.1-0.3c0.6-0.1,0.9-0.8,0.7-1.3C236.9,400.5,236.4,400.2,235.8,400.3L235.8,400.3z"/>
				</g>
			</g>
			<g>
				<g>
					<path class="st3" d="M234.4,404.8c-0.2,0.1-0.4,0.1-0.6,0.1c-1.3,0-1.3,2.1,0,2.1c0.4,0,0.8,0,1.2-0.2c0.5-0.2,0.9-0.7,0.7-1.3
						C235.6,405.1,235,404.6,234.4,404.8L234.4,404.8z"/>
				</g>
			</g>
			<g>
				<g>
					<path class="st3" d="M229.8,403.4c-0.1,0.1-0.3,0.1-0.4,0.2c-0.1,0-0.3,0.1-0.1,0.1c-0.6,0.1-1,0.4-1,1c0,0.5,0.5,1.1,1,1
						c0.6-0.1,1.1-0.3,1.6-0.6C232.1,404.6,231,402.8,229.8,403.4L229.8,403.4z"/>
				</g>
			</g>
			<path class="st0" d="M51.2,335.8l1,12.1c0,0-9.9-1.1-17.8,0.5C30.8,348.9,51.2,335.8,51.2,335.8z"/>
			<path class="st0" d="M263.7,362.8l-0.7,12.1c0,0,9.7-1.4,17.7,0.2C284.1,375.5,263.7,362.8,263.7,362.8z"/>
			<path class="st9" d="M235.7,198.3c-5.2-22-29.3-41.8-76.4-43.9c-47.1-2.1-77.4,50.2-77.4,50.2s-0.6,90.5-12.1,159.5
				c13.6,2.1,67.3-91.9,67.3-91.9s-0.4,25.6-10.1,41.7C147.9,318.1,240.9,220.3,235.7,198.3z"/>
			<g>
				<path class="st10" d="M219.2,226.2c1.3-3.2-0.3-5.5-2.5-6c-2.2-0.4-4.3,0.7-4.8,3.5c-0.5,2.6,0.2,5.9,1.7,8.9
					C213.6,232.6,218.1,229.1,219.2,226.2z"/>
				<path class="st10" d="M202.4,222c0.7-3.4-1.3-5.4-3.5-5.4c-2.2,0-4.1,1.5-4.1,4.3c0,2.7,1.3,5.8,3.2,8.5
					C198,229.3,201.8,225,202.4,222z"/>
				<path class="st10" d="M184.9,222.2c-0.3-3.4-2.7-4.9-4.8-4.3c-2.2,0.6-3.6,2.5-2.8,5.2c0.7,2.6,2.8,5.2,5.4,7.3
					C182.7,230.4,185.2,225.3,184.9,222.2z"/>
			</g>
			<path class="st0" d="M69.8,364.1c10.9-16.5,71.8-103.4,78-160.2c1.6,2,12.9,39-0.8,77.7c7.3,2.2,53.9-30.1,83.8-66.8
				c0,1.5-69.8,108.5-103.9,99c10.3-22.1,9.4-32.3,9.4-32.3S81,367.6,69.8,364.1z"/>
		</g>
	</g>
	<g>
		<g>
			<path class="st1" d="M237.1,24.6c-45.6,0.8-150.9-10.1-128.7,49.6c8.3,22.5,104.1,19.7,125.3,21c7.4,0.4,12.6,24.4,13.5,24.4
				c0,0,5.9-23.6,9.6-23.6c29.3-0.5,94.1,0.6,106.7-14.7c3.1-3.8,12-8.5,11.7-23.7c-0.2-10.4-6.5-20.1-7.3-20.9
				C355.3,23.4,275.4,24,237.1,24.6"/>
		</g>
		<g>

				<rect x="91.1" y="43.8" transform="matrix(1 -8.007180e-03 8.007180e-03 1 -0.6212 1.8972)" class="st11" width="291" height="69.5"/>
			<text transform="matrix(1 -8.009920e-03 8.010000e-03 1 126.4227 75.0054)" class="st5 st12 st13">Gradebook</text>
		</g>
	</g>
</g>
</svg>
