<?xml version="1.0" encoding="utf-8"?>
<!-- Generator: Adobe Illustrator 19.2.1, SVG Export Plug-In . SVG Version: 6.00 Build 0)  -->
<svg version="1.1" id="Capa_1" xmlns="http://www.w3.org/2000/svg" xmlns:xlink="http://www.w3.org/1999/xlink" x="0px" y="0px"
	 viewBox="0 0 700 1000" style="enable-background:new 0 0 700 1000;" xml:space="preserve">
<style type="text/css">
	.st0{fill:rgba(0,0,0,.3);}
	.st1{fill:#ED1E79;}
	.st2{fill:#FCEE21;}
	.st3{fill:#FF00FF;}
	.st4{fill:#D4145A;}
	.st5{fill:#FFFFFF;}
	.st6{fill:#FFFF00;}
	.st7{fill:#1D1D1B;}
	.st8{fill:#29ABE2;}
	.st9{fill:#C69C6D;}
	.st10{fill:none;}
	.st11{font-family:'Quicksand-Bold';}
	.st12{font-size:41px;}
</style>
<g>
	<ellipse class="st0" cx="332.6" cy="854.1" rx="134.8" ry="18.7"/>
	<path class="st1" d="M169.7,598.9C156.4,585,43.8,514,158.6,18.7c1-2.6,1.1-9.6,8.9-8.6c8,0.8,3.9,22.3-0.1,32.3
		c7.2-12,9.2-35.3,21.9-33.2c12.7,2.1,5.1,31,4,39c2.5-3.8,6.1-33.6,16.7-33.3c3.5,0.5,8.8,0.3,3.9,19.4
		c-160,548.7-37.2,531.1-37.2,531.1s31.2-100.5,155.9-98.5c124.7,2,147.5,85.7,157.2,99c115.5-10.6-44.3-500.2-54.9-534.5
		c-2.2-10.3-0.1-12.8,4.6-14.8c7.2-1.3,16.2,24.8,16.8,27.6c-6-26.5-3.3-32.1,3.8-33.9c7.1-1.8,13.6,14.3,20.6,30.4
		c-4.3-17.9-5-29.1,1.3-30.1c6.3-1.1,10.3,11.6,10.3,11.6s136,474.3,5.5,576.7c20.2,109-23,240.5-23,240.5s34.1-1.3,29.1,13.8
		c-5,15.1-55.2,0-55.2,0s15.7-14.8,5.4-26c-13-11.8-67.1-19.6-117.3-20c-134.5,3.4-121.6,27.9-121.2,31.8c0.4,3.8,2.7,7.9,8.7,14.5
		c-4.2,1.2-58.3,17.4-63.2-0.3s35.5-15,35.5-15S144.2,713.7,169.7,598.9z"/>
	<path class="st2" d="M216,531.8c-24.5-7.8-19.6-76.7-16.2-76.8c3.5-0.2,59.1-8.8,79.9,34.1C233.6,502,225,523.9,216,531.8z"/>
	<path class="st2" d="M448.9,531.8c24.5-7.8,19.6-76.7,16.2-76.8c-3.5-0.2-59.1-8.8-79.9,34.1C431.3,502,439.9,523.9,448.9,531.8z"
		/>
	<path class="st3" d="M218.9,517.3c-16.6-5.3-13.3-51.9-10.9-52c2.3-0.1,40-5.9,54.1,23.1C230.8,497.2,225,512,218.9,517.3z"/>
	<path class="st3" d="M445.5,516.2c16.6-5.3,13.3-51.9,10.9-52c-2.3-0.1-40-5.9-54.1,23.1C433.6,496.1,439.4,510.9,445.5,516.2z"/>
	<g>
		<path class="st4" d="M326.8,480.2"/>
		<g>
			<path class="st4" d="M326.8,483.7c4.4,0,4.4-6.9,0-6.9C322.4,476.8,322.4,483.7,326.8,483.7L326.8,483.7z"/>
		</g>
	</g>
	<g>
		<path class="st4" d="M312.4,475.2"/>
		<g>
			<path class="st4" d="M312.4,478.7c4.4,0,4.4-6.9,0-6.9C308,471.8,308,478.7,312.4,478.7L312.4,478.7z"/>
		</g>
	</g>
	<g>
		<path class="st4" d="M295.3,476.3"/>
		<g>
			<path class="st4" d="M295.3,479.8c4.4,0,4.4-6.9,0-6.9C290.8,472.9,290.8,479.8,295.3,479.8L295.3,479.8z"/>
		</g>
	</g>
	<g>
		<path class="st4" d="M282.5,480.2"/>
		<g>
			<path class="st4" d="M282.5,483.7c4.4,0,4.4-6.9,0-6.9C278.1,476.8,278.1,483.7,282.5,483.7L282.5,483.7z"/>
		</g>
	</g>
	<g>
		<path class="st4" d="M203.8,533.4"/>
		<g>
			<path class="st4" d="M203.8,536.9c4.4,0,4.4-6.9,0-6.9C199.4,530,199.4,536.9,203.8,536.9L203.8,536.9z"/>
		</g>
	</g>
	<g>
		<path class="st4" d="M192.8,547.8"/>
		<g>
			<path class="st4" d="M192.8,551.3c4.4,0,4.4-6.9,0-6.9C188.3,544.4,188.3,551.3,192.8,551.3L192.8,551.3z"/>
		</g>
	</g>
	<g>
		<path class="st4" d="M185,566.7"/>
		<g>
			<path class="st4" d="M185,570.1c4.4,0,4.4-6.9,0-6.9C180.6,563.2,180.6,570.1,185,570.1L185,570.1z"/>
		</g>
	</g>
	<g>
		<path class="st4" d="M171.5,586.6"/>
		<g>
			<path class="st4" d="M171.5,590c4.4,0,4.4-6.9,0-6.9C167,583.1,167,590,171.5,590L171.5,590z"/>
		</g>
	</g>
	<g>
		<path class="st4" d="M167,607.7"/>
		<g>
			<path class="st4" d="M167,611.1c4.4,0,4.4-6.9,0-6.9C162.6,604.2,162.6,611.1,167,611.1L167,611.1z"/>
		</g>
	</g>
	<g>
		<path class="st4" d="M164.8,629.8"/>
		<g>
			<path class="st4" d="M164.8,633.3c4.4,0,4.4-6.9,0-6.9C160.4,626.4,160.4,633.3,164.8,633.3L164.8,633.3z"/>
		</g>
	</g>
	<g>
		<path class="st4" d="M162.6,654.2"/>
		<g>
			<path class="st4" d="M162.6,657.6c4.4,0,4.4-6.9,0-6.9C158.2,650.7,158.2,657.6,162.6,657.6L162.6,657.6z"/>
		</g>
	</g>
	<g>
		<path class="st4" d="M163.7,677.5"/>
		<g>
			<path class="st4" d="M163.7,680.9c4.4,0,4.4-6.9,0-6.9C159.3,674,159.3,680.9,163.7,680.9L163.7,680.9z"/>
		</g>
	</g>
	<g>
		<path class="st4" d="M163.2,698"/>
		<g>
			<path class="st4" d="M163.2,701.4c4.4,0,4.4-6.9,0-6.9C158.7,694.5,158.7,701.4,163.2,701.4L163.2,701.4z"/>
		</g>
	</g>
	<g>
		<path class="st4" d="M167,721.2"/>
		<g>
			<path class="st4" d="M167,724.7c4.4,0,4.4-6.9,0-6.9C162.6,717.8,162.6,724.7,167,724.7L167,724.7z"/>
		</g>
	</g>
	<g>
		<path class="st4" d="M171.5,743.4"/>
		<g>
			<path class="st4" d="M171.5,746.8c4.4,0,4.4-6.9,0-6.9C167,739.9,167,746.8,171.5,746.8L171.5,746.8z"/>
		</g>
	</g>
	<g>
		<path class="st4" d="M185.6,767.8"/>
		<g>
			<path class="st4" d="M185.6,771.2c4.4,0,4.4-6.9,0-6.9C181.1,764.3,181.1,771.2,185.6,771.2L185.6,771.2z"/>
		</g>
	</g>
	<g>
		<path class="st4" d="M191.1,793.2"/>
		<g>
			<path class="st4" d="M191.1,796.7c4.4,0,4.4-6.9,0-6.9C186.7,789.8,186.7,796.7,191.1,796.7L191.1,796.7z"/>
		</g>
	</g>
	<g>
		<path class="st4" d="M197.8,818.2"/>
		<g>
			<path class="st4" d="M197.8,821.6c4.4,0,4.4-6.9,0-6.9C193.3,814.7,193.3,821.6,197.8,821.6L197.8,821.6z"/>
		</g>
	</g>
	<g>
		<path class="st4" d="M203.3,836.5"/>
		<g>
			<path class="st4" d="M203.3,839.9c4.4,0,4.4-6.9,0-6.9C198.9,833,198.8,839.9,203.3,839.9L203.3,839.9z"/>
		</g>
	</g>
	<g>
		<path class="st4" d="M319.1,490.2"/>
		<g>
			<path class="st4" d="M319.1,493.6c4.4,0,4.4-6.9,0-6.9C314.6,486.7,314.6,493.6,319.1,493.6L319.1,493.6z"/>
		</g>
	</g>
	<g>
		<path class="st4" d="M305.8,488.5"/>
		<g>
			<path class="st4" d="M305.8,492c4.4,0,4.4-6.9,0-6.9C301.3,485.1,301.3,492,305.8,492L305.8,492z"/>
		</g>
	</g>
	<g>
		<path class="st4" d="M292.5,490.8"/>
		<g>
			<path class="st4" d="M292.5,494.2c4.4,0,4.4-6.9,0-6.9C288.1,487.3,288,494.2,292.5,494.2L292.5,494.2z"/>
		</g>
	</g>
	<g>
		<path class="st4" d="M275.9,496.3"/>
		<g>
			<path class="st4" d="M275.9,499.7c4.4,0,4.4-6.9,0-6.9C271.4,492.8,271.4,499.7,275.9,499.7L275.9,499.7z"/>
		</g>
	</g>
	<g>
		<path class="st4" d="M257,505.2"/>
		<g>
			<path class="st4" d="M257,508.6c4.4,0,4.4-6.9,0-6.9C252.6,501.7,252.6,508.6,257,508.6L257,508.6z"/>
		</g>
	</g>
	<g>
		<path class="st4" d="M240.4,514.6"/>
		<g>
			<path class="st4" d="M240.4,518c4.4,0,4.4-6.9,0-6.9C236,511.1,236,518,240.4,518L240.4,518z"/>
		</g>
	</g>
	<g>
		<path class="st4" d="M230.4,527.3"/>
		<g>
			<path class="st4" d="M230.4,530.8c4.4,0,4.4-6.9,0-6.9C226,523.9,226,530.8,230.4,530.8L230.4,530.8z"/>
		</g>
	</g>
	<g>
		<path class="st4" d="M219.4,539"/>
		<g>
			<path class="st4" d="M219.4,542.4c4.4,0,4.4-6.9,0-6.9C214.9,535.5,214.9,542.4,219.4,542.4L219.4,542.4z"/>
		</g>
	</g>
	<g>
		<path class="st4" d="M207.2,546.7"/>
		<g>
			<path class="st4" d="M207.2,550.2c4.4,0,4.4-6.9,0-6.9C202.7,543.3,202.7,550.2,207.2,550.2L207.2,550.2z"/>
		</g>
	</g>
	<g>
		<path class="st4" d="M199.4,562.8"/>
		<g>
			<path class="st4" d="M199.4,566.2c4.4,0,4.4-6.9,0-6.9C195,559.3,195,566.2,199.4,566.2L199.4,566.2z"/>
		</g>
	</g>
	<g>
		<path class="st4" d="M195,580"/>
		<g>
			<path class="st4" d="M195,583.4c4.4,0,4.4-6.9,0-6.9C190.5,576.5,190.5,583.4,195,583.4L195,583.4z"/>
		</g>
	</g>
	<g>
		<path class="st4" d="M216,558.3"/>
		<g>
			<path class="st4" d="M216,561.8c4.4,0,4.4-6.9,0-6.9C211.6,554.9,211.6,561.8,216,561.8L216,561.8z"/>
		</g>
	</g>
	<g>
		<path class="st4" d="M188.3,598.8"/>
		<g>
			<path class="st4" d="M188.3,602.2c4.4,0,4.4-6.9,0-6.9C183.9,595.3,183.9,602.2,188.3,602.2L188.3,602.2z"/>
		</g>
	</g>
	<g>
		<path class="st4" d="M184.5,620.9"/>
		<g>
			<path class="st4" d="M184.5,624.4c4.4,0,4.4-6.9,0-6.9C180,617.5,180,624.4,184.5,624.4L184.5,624.4z"/>
		</g>
	</g>
	<g>
		<path class="st4" d="M172.6,642.6"/>
		<g>
			<path class="st4" d="M172.6,646c4.4,0,4.4-6.9,0-6.9C168.1,639.1,168.1,646,172.6,646L172.6,646z"/>
		</g>
	</g>
	<g>
		<path class="st4" d="M182.2,665.3"/>
		<g>
			<path class="st4" d="M182.2,668.7c4.4,0,4.4-6.9,0-6.9C177.8,661.8,177.8,668.7,182.2,668.7L182.2,668.7z"/>
		</g>
	</g>
	<g>
		<path class="st4" d="M173.1,688"/>
		<g>
			<path class="st4" d="M173.1,691.4c4.4,0,4.4-6.9,0-6.9C168.7,684.5,168.7,691.4,173.1,691.4L173.1,691.4z"/>
		</g>
	</g>
	<g>
		<path class="st4" d="M185,708.5"/>
		<g>
			<path class="st4" d="M185,711.9c4.4,0,4.4-6.9,0-6.9C180.6,705,180.6,711.9,185,711.9L185,711.9z"/>
		</g>
	</g>
	<g>
		<path class="st4" d="M188.3,730.1"/>
		<g>
			<path class="st4" d="M188.3,733.5c4.4,0,4.4-6.9,0-6.9C183.9,726.6,183.9,733.5,188.3,733.5L188.3,733.5z"/>
		</g>
	</g>
	<g>
		<path class="st4" d="M192.2,754.5c0.6-0.6,0.6-0.6,0.6-1.1"/>
		<g>
			<path class="st4" d="M194.7,756.9c1-1,1.6-2.1,1.6-3.5c0-1.8-1.6-3.5-3.5-3.5c-1.9,0.1-3.4,1.5-3.4,3.5c0,0.1,0,0.2,0,0.3
				c0-0.3,0.1-0.6,0.1-0.9c0,0.1,0,0.1-0.1,0.2c0.1-0.3,0.2-0.5,0.3-0.8c0,0.1-0.1,0.1-0.1,0.1c0.2-0.2,0.4-0.5,0.5-0.7
				c-0.1,0.1-0.3,0.3-0.4,0.4c-1.3,1.3-1.4,3.6,0,4.9C191.1,758.2,193.3,758.3,194.7,756.9L194.7,756.9z"/>
		</g>
	</g>
	<g>
		<path class="st4" d="M199.4,776.6"/>
		<g>
			<path class="st4" d="M199.4,780.1c4.4,0,4.4-6.9,0-6.9C195,773.2,195,780.1,199.4,780.1L199.4,780.1z"/>
		</g>
	</g>
	<g>
		<path class="st4" d="M205,802.7"/>
		<g>
			<path class="st4" d="M205,806.1c4.4,0,4.4-6.9,0-6.9C200.5,799.2,200.5,806.1,205,806.1L205,806.1z"/>
		</g>
	</g>
	<g>
		<path class="st4" d="M212.7,821.5"/>
		<g>
			<path class="st4" d="M212.7,825c4.4,0,4.4-6.9,0-6.9C208.3,818.1,208.3,825,212.7,825L212.7,825z"/>
		</g>
	</g>
	<g>
		<path class="st4" d="M207.2,577.7"/>
		<g>
			<path class="st4" d="M207.2,581.2c4.4,0,4.4-6.9,0-6.9C202.7,574.3,202.7,581.2,207.2,581.2L207.2,581.2z"/>
		</g>
	</g>
	<g>
		<line class="st4" x1="202.7" y1="597.7" x2="202.7" y2="597.1"/>
		<g>
			<path class="st4" d="M206.2,597.7c0-0.2,0-0.4,0-0.6c0-1.8-1.6-3.5-3.4-3.5c-1.9,0.1-3.4,1.5-3.4,3.5c0,0.2,0,0.4,0,0.6
				c0,1.8,1.6,3.5,3.4,3.5C204.6,601,206.2,599.6,206.2,597.7L206.2,597.7z"/>
		</g>
	</g>
	<g>
		<path class="st4" d="M197.8,617.1"/>
		<g>
			<path class="st4" d="M197.8,620.5c4.4,0,4.4-6.9,0-6.9C193.3,613.6,193.3,620.5,197.8,620.5L197.8,620.5z"/>
		</g>
	</g>
	<g>
		<path class="st4" d="M196.1,637"/>
		<g>
			<path class="st4" d="M196.1,640.5c4.4,0,4.4-6.9,0-6.9C191.7,633.6,191.6,640.5,196.1,640.5L196.1,640.5z"/>
		</g>
	</g>
	<g>
		<path class="st4" d="M194.4,655.9"/>
		<g>
			<path class="st4" d="M194.4,659.3c4.4,0,4.4-6.9,0-6.9C190,652.4,190,659.3,194.4,659.3L194.4,659.3z"/>
		</g>
	</g>
	<g>
		<path class="st4" d="M195,678"/>
		<g>
			<path class="st4" d="M195,681.5c4.4,0,4.4-6.9,0-6.9C190.5,674.6,190.5,681.5,195,681.5L195,681.5z"/>
		</g>
	</g>
	<g>
		<path class="st4" d="M195,698.5"/>
		<g>
			<path class="st4" d="M195,702c4.4,0,4.4-6.9,0-6.9C190.5,695.1,190.5,702,195,702L195,702z"/>
		</g>
	</g>
	<g>
		<path class="st4" d="M200,720.7"/>
		<g>
			<path class="st4" d="M200,724.1c4.4,0,4.4-6.9,0-6.9C195.5,717.2,195.5,724.1,200,724.1L200,724.1z"/>
		</g>
	</g>
	<g>
		<path class="st4" d="M204.4,740.6"/>
		<g>
			<path class="st4" d="M204.4,744.1c4.4,0,4.4-6.9,0-6.9C200,737.2,200,744.1,204.4,744.1L204.4,744.1z"/>
		</g>
	</g>
	<g>
		<path class="st4" d="M207.7,761.1"/>
		<g>
			<path class="st4" d="M207.7,764.6c4.4,0,4.4-6.9,0-6.9C203.3,757.7,203.3,764.6,207.7,764.6L207.7,764.6z"/>
		</g>
	</g>
	<g>
		<path class="st4" d="M213.8,786"/>
		<g>
			<path class="st4" d="M213.8,789.5c4.4,0,4.4-6.9,0-6.9C209.4,782.6,209.4,789.5,213.8,789.5L213.8,789.5z"/>
		</g>
	</g>
	<g>
		<path class="st4" d="M219.4,808.2"/>
		<g>
			<path class="st4" d="M219.4,811.7c4.4,0,4.4-6.9,0-6.9C214.9,804.8,214.9,811.7,219.4,811.7L219.4,811.7z"/>
		</g>
	</g>
	<g>
		<path class="st4" d="M208.8,704.6"/>
		<g>
			<path class="st4" d="M208.8,708.1c4.4,0,4.4-6.9,0-6.9C204.4,701.2,204.4,708.1,208.8,708.1L208.8,708.1z"/>
		</g>
	</g>
	<g>
		<path class="st4" d="M214.9,727.9"/>
		<g>
			<path class="st4" d="M214.9,731.3c4.4,0,4.4-6.9,0-6.9C210.5,724.4,210.5,731.3,214.9,731.3L214.9,731.3z"/>
		</g>
	</g>
	<g>
		<path class="st4" d="M219.4,748.4"/>
		<g>
			<path class="st4" d="M219.4,751.8c4.4,0,4.4-6.9,0-6.9C214.9,744.9,214.9,751.8,219.4,751.8L219.4,751.8z"/>
		</g>
	</g>
	<g>
		<path class="st4" d="M223.8,768.9"/>
		<g>
			<path class="st4" d="M223.8,772.3c4.4,0,4.4-6.9,0-6.9C219.4,765.4,219.3,772.3,223.8,772.3L223.8,772.3z"/>
		</g>
	</g>
	<g>
		<path class="st4" d="M228.8,794.9"/>
		<g>
			<path class="st4" d="M228.8,798.4c4.4,0,4.4-6.9,0-6.9C224.3,791.5,224.3,798.4,228.8,798.4L228.8,798.4z"/>
		</g>
	</g>
	<g>
		<path class="st4" d="M233.8,813.2"/>
		<g>
			<path class="st4" d="M233.8,816.6c4.4,0,4.4-6.9,0-6.9C229.3,809.7,229.3,816.6,233.8,816.6L233.8,816.6z"/>
		</g>
	</g>
	<g>
		<path class="st4" d="M230.4,735.1"/>
		<g>
			<path class="st4" d="M230.4,738.5c4.4,0,4.4-6.9,0-6.9C226,731.6,226,738.5,230.4,738.5L230.4,738.5z"/>
		</g>
	</g>
	<g>
		<path class="st4" d="M234.9,755"/>
		<g>
			<path class="st4" d="M234.9,758.5c4.4,0,4.4-6.9,0-6.9C230.4,751.6,230.4,758.5,234.9,758.5L234.9,758.5z"/>
		</g>
	</g>
	<g>
		<path class="st4" d="M237.1,779.4"/>
		<g>
			<path class="st4" d="M237.1,782.8c4.4,0,4.4-6.9,0-6.9C232.6,775.9,232.6,782.8,237.1,782.8L237.1,782.8z"/>
		</g>
	</g>
	<g>
		<path class="st4" d="M242.6,802.7"/>
		<g>
			<path class="st4" d="M242.6,806.1c4.4,0,4.4-6.9,0-6.9C238.2,799.2,238.2,806.1,242.6,806.1L242.6,806.1z"/>
		</g>
	</g>
	<g>
		<path class="st4" d="M247.1,746.2"/>
		<g>
			<path class="st4" d="M247.1,749.6c4.4,0,4.4-6.9,0-6.9C242.6,742.7,242.6,749.6,247.1,749.6L247.1,749.6z"/>
		</g>
	</g>
	<g>
		<path class="st4" d="M249.3,768.3"/>
		<g>
			<path class="st4" d="M249.3,771.8c4.4,0,4.4-6.9,0-6.9C244.8,764.9,244.8,771.8,249.3,771.8L249.3,771.8z"/>
		</g>
	</g>
	<g>
		<path class="st4" d="M251.5,789.4"/>
		<g>
			<path class="st4" d="M251.5,792.8c4.4,0,4.4-6.9,0-6.9C247.1,785.9,247,792.8,251.5,792.8L251.5,792.8z"/>
		</g>
	</g>
	<g>
		<path class="st4" d="M256.5,806"/>
		<g>
			<path class="st4" d="M256.5,809.4c4.4,0,4.4-6.9,0-6.9C252,802.5,252,809.4,256.5,809.4L256.5,809.4z"/>
		</g>
	</g>
	<g>
		<path class="st4" d="M260.4,755.6"/>
		<g>
			<path class="st4" d="M260.4,759c4.4,0,4.4-6.9,0-6.9C255.9,752.1,255.9,759,260.4,759L260.4,759z"/>
		</g>
	</g>
	<g>
		<path class="st4" d="M262,775.5"/>
		<g>
			<path class="st4" d="M262,779c4.4,0,4.4-6.9,0-6.9C257.6,772.1,257.6,779,262,779L262,779z"/>
		</g>
	</g>
	<g>
		<path class="st4" d="M268.7,796"/>
		<g>
			<path class="st4" d="M268.7,799.5c4.4,0,4.4-6.9,0-6.9C264.2,792.6,264.2,799.5,268.7,799.5L268.7,799.5z"/>
		</g>
	</g>
	<g>
		<path class="st4" d="M273.7,766.7"/>
		<g>
			<path class="st4" d="M273.7,770.1c4.4,0,4.4-6.9,0-6.9C269.2,763.2,269.2,770.1,273.7,770.1L273.7,770.1z"/>
		</g>
	</g>
	<g>
		<path class="st4" d="M277.5,783.8"/>
		<g>
			<path class="st4" d="M277.5,787.3c4.4,0,4.4-6.9,0-6.9C273.1,780.4,273.1,787.3,277.5,787.3L277.5,787.3z"/>
		</g>
	</g>
	<g>
		<path class="st4" d="M280.3,806"/>
		<g>
			<path class="st4" d="M280.3,809.4c4.4,0,4.4-6.9,0-6.9C275.9,802.5,275.9,809.4,280.3,809.4L280.3,809.4z"/>
		</g>
	</g>
	<g>
		<path class="st4" d="M288.6,758.9"/>
		<g>
			<path class="st4" d="M288.6,762.3c4.4,0,4.4-6.9,0-6.9C284.2,755.4,284.2,762.3,288.6,762.3L288.6,762.3z"/>
		</g>
	</g>
	<g>
		<path class="st4" d="M287.5,774.4"/>
		<g>
			<path class="st4" d="M287.5,777.9c4.4,0,4.4-6.9,0-6.9C283.1,771,283.1,777.9,287.5,777.9L287.5,777.9z"/>
		</g>
	</g>
	<g>
		<path class="st4" d="M291.4,792.1"/>
		<g>
			<path class="st4" d="M291.4,795.6c4.4,0,4.4-6.9,0-6.9C286.9,788.7,286.9,795.6,291.4,795.6L291.4,795.6z"/>
		</g>
	</g>
	<g>
		<path class="st4" d="M302.5,802.1"/>
		<g>
			<path class="st4" d="M302.5,805.6c4.4,0,4.4-6.9,0-6.9C298,798.7,298,805.6,302.5,805.6L302.5,805.6z"/>
		</g>
	</g>
	<g>
		<path class="st4" d="M303,783.3"/>
		<g>
			<path class="st4" d="M303,786.7c4.4,0,4.4-6.9,0-6.9C298.6,779.8,298.6,786.7,303,786.7L303,786.7z"/>
		</g>
	</g>
	<g>
		<path class="st4" d="M304.1,765.5"/>
		<g>
			<path class="st4" d="M304.1,769c4.4,0,4.4-6.9,0-6.9C299.7,762.1,299.7,769,304.1,769L304.1,769z"/>
		</g>
	</g>
	<g>
		<path class="st4" d="M315.8,777.2"/>
		<g>
			<path class="st4" d="M315.8,780.6c4.4,0,4.4-6.9,0-6.9C311.3,773.7,311.3,780.6,315.8,780.6L315.8,780.6z"/>
		</g>
	</g>
	<g>
		<path class="st4" d="M315.8,796"/>
		<g>
			<path class="st4" d="M315.8,799.5c4.4,0,4.4-6.9,0-6.9C311.3,792.6,311.3,799.5,315.8,799.5L315.8,799.5z"/>
		</g>
	</g>
	<g>
		<path class="st4" d="M325.7,764.4"/>
		<g>
			<path class="st4" d="M325.7,767.9c4.4,0,4.4-6.9,0-6.9C321.3,761,321.3,767.9,325.7,767.9L325.7,767.9z"/>
		</g>
	</g>
	<g>
		<path class="st4" d="M327.9,786"/>
		<g>
			<path class="st4" d="M327.9,789.5c4.4,0,4.4-6.9,0-6.9C323.5,782.6,323.5,789.5,327.9,789.5L327.9,789.5z"/>
		</g>
	</g>
	<g>
		<path class="st4" d="M327.4,803.8"/>
		<g>
			<path class="st4" d="M327.4,807.2c4.4,0,4.4-6.9,0-6.9C323,800.3,322.9,807.2,327.4,807.2L327.4,807.2z"/>
		</g>
	</g>
	<g>
		<path class="st4" d="M335.7,776.1"/>
		<g>
			<path class="st4" d="M335.7,779.5c4.4,0,4.4-6.9,0-6.9C331.3,772.6,331.3,779.5,335.7,779.5L335.7,779.5z"/>
		</g>
	</g>
	<g>
		<path class="st4" d="M339,797.7"/>
		<g>
			<path class="st4" d="M339,801.1c4.4,0,4.4-6.9,0-6.9C334.6,794.2,334.6,801.1,339,801.1L339,801.1z"/>
		</g>
	</g>
	<g>
		<path class="st4" d="M346.8,762.8"/>
		<g>
			<path class="st4" d="M346.8,766.2c4.4,0,4.4-6.9,0-6.9C342.3,759.3,342.3,766.2,346.8,766.2L346.8,766.2z"/>
		</g>
	</g>
	<g>
		<path class="st4" d="M349,785.5"/>
		<g>
			<path class="st4" d="M349,788.9c4.4,0,4.4-6.9,0-6.9C344.6,782,344.6,788.9,349,788.9L349,788.9z"/>
		</g>
	</g>
	<g>
		<path class="st4" d="M352.3,802.1"/>
		<g>
			<path class="st4" d="M352.3,805.6c4.4,0,4.4-6.9,0-6.9C347.9,798.7,347.9,805.6,352.3,805.6L352.3,805.6z"/>
		</g>
	</g>
	<g>
		<path class="st4" d="M356.8,773.3"/>
		<g>
			<path class="st4" d="M356.8,776.8c4.4,0,4.4-6.9,0-6.9C352.3,769.9,352.3,776.8,356.8,776.8L356.8,776.8z"/>
		</g>
	</g>
	<g>
		<path class="st4" d="M361.7,791"/>
		<g>
			<path class="st4" d="M361.7,794.5c4.4,0,4.4-6.9,0-6.9C357.3,787.6,357.3,794.5,361.7,794.5L361.7,794.5z"/>
		</g>
	</g>
	<g>
		<path class="st4" d="M366.2,762.8"/>
		<g>
			<path class="st4" d="M366.2,766.2c4.4,0,4.4-6.9,0-6.9C361.7,759.3,361.7,766.2,366.2,766.2L366.2,766.2z"/>
		</g>
	</g>
	<g>
		<path class="st4" d="M371.2,780.5"/>
		<g>
			<path class="st4" d="M371.2,784c4.4,0,4.4-6.9,0-6.9C366.7,777.1,366.7,784,371.2,784L371.2,784z"/>
		</g>
	</g>
	<g>
		<path class="st4" d="M373.4,803.2"/>
		<g>
			<path class="st4" d="M373.4,806.7c4.4,0,4.4-6.9,0-6.9C368.9,799.8,368.9,806.7,373.4,806.7L373.4,806.7z"/>
		</g>
	</g>
	<g>
		<path class="st4" d="M381.1,765"/>
		<g>
			<path class="st4" d="M381.1,768.4c4.4,0,4.4-6.9,0-6.9C376.7,761.5,376.7,768.4,381.1,768.4L381.1,768.4z"/>
		</g>
	</g>
	<g>
		<path class="st4" d="M383.9,787.7"/>
		<g>
			<path class="st4" d="M383.9,791.2c4.4,0,4.4-6.9,0-6.9C379.5,784.3,379.5,791.2,383.9,791.2L383.9,791.2z"/>
		</g>
	</g>
	<g>
		<path class="st4" d="M393.4,775.8"/>
		<g>
			<path class="st4" d="M393.4,779.3c4.4,0,4.4-6.9,0-6.9C388.9,772.4,388.9,779.3,393.4,779.3L393.4,779.3z"/>
		</g>
	</g>
	<g>
		<path class="st4" d="M396.1,798.4"/>
		<g>
			<path class="st4" d="M396.1,801.9c4.4,0,4.4-6.9,0-6.9C391.6,795,391.6,801.9,396.1,801.9L396.1,801.9z"/>
		</g>
	</g>
	<g>
		<path class="st4" d="M398.7,757.4"/>
		<g>
			<path class="st4" d="M398.7,760.9c4.4,0,4.4-6.9,0-6.9C394.3,754,394.3,760.9,398.7,760.9L398.7,760.9z"/>
		</g>
	</g>
	<g>
		<path class="st4" d="M404.9,785.4"/>
		<g>
			<path class="st4" d="M404.9,788.8c4.4,0,4.4-6.9,0-6.9C400.4,781.9,400.4,788.8,404.9,788.8L404.9,788.8z"/>
		</g>
	</g>
	<g>
		<path class="st4" d="M409.1,808.4"/>
		<g>
			<path class="st4" d="M409.1,811.8c4.4,0,4.4-6.9,0-6.9C404.7,804.9,404.6,811.8,409.1,811.8L409.1,811.8z"/>
		</g>
	</g>
	<g>
		<path class="st4" d="M412.9,767"/>
		<g>
			<path class="st4" d="M412.9,770.4c4.4,0,4.4-6.9,0-6.9C408.5,763.5,408.5,770.4,412.9,770.4L412.9,770.4z"/>
		</g>
	</g>
	<g>
		<path class="st4" d="M417.1,795.4"/>
		<g>
			<path class="st4" d="M417.1,798.8c4.4,0,4.4-6.9,0-6.9C412.7,791.9,412.7,798.8,417.1,798.8L417.1,798.8z"/>
		</g>
	</g>
	<g>
		<path class="st4" d="M411.4,749.7"/>
		<g>
			<path class="st4" d="M411.4,753.2c4.4,0,4.4-6.9,0-6.9C407,746.3,406.9,753.2,411.4,753.2L411.4,753.2z"/>
		</g>
	</g>
	<g>
		<path class="st4" d="M426,755.1"/>
		<g>
			<path class="st4" d="M426,758.6c4.4,0,4.4-6.9,0-6.9C421.5,751.7,421.5,758.6,426,758.6L426,758.6z"/>
		</g>
	</g>
	<g>
		<path class="st4" d="M425.6,779.6"/>
		<g>
			<path class="st4" d="M425.6,783.1c4.4,0,4.4-6.9,0-6.9C421.1,776.2,421.1,783.1,425.6,783.1L425.6,783.1z"/>
		</g>
	</g>
	<g>
		<path class="st4" d="M427.5,808.8"/>
		<g>
			<path class="st4" d="M427.5,812.2c4.4,0,4.4-6.9,0-6.9C423.1,805.3,423,812.2,427.5,812.2L427.5,812.2z"/>
		</g>
	</g>
	<g>
		<path class="st4" d="M437.5,793.8"/>
		<g>
			<path class="st4" d="M437.5,797.3c4.4,0,4.4-6.9,0-6.9C433,790.4,433,797.3,437.5,797.3L437.5,797.3z"/>
		</g>
	</g>
	<g>
		<path class="st4" d="M439,767.4"/>
		<g>
			<path class="st4" d="M439,770.8c4.4,0,4.4-6.9,0-6.9C434.6,763.9,434.5,770.8,439,770.8L439,770.8z"/>
		</g>
	</g>
	<g>
		<path class="st4" d="M437.5,741.7"/>
		<g>
			<path class="st4" d="M437.5,745.1c4.4,0,4.4-6.9,0-6.9C433,738.2,433,745.1,437.5,745.1L437.5,745.1z"/>
		</g>
	</g>
	<g>
		<path class="st4" d="M445.9,726.4"/>
		<g>
			<path class="st4" d="M445.9,729.8c4.4,0,4.4-6.9,0-6.9C441.5,722.9,441.4,729.8,445.9,729.8L445.9,729.8z"/>
		</g>
	</g>
	<g>
		<path class="st4" d="M448.2,752"/>
		<g>
			<path class="st4" d="M448.2,755.5c4.4,0,4.4-6.9,0-6.9C443.8,748.6,443.7,755.5,448.2,755.5L448.2,755.5z"/>
		</g>
	</g>
	<g>
		<path class="st4" d="M449.7,781.6"/>
		<g>
			<path class="st4" d="M449.7,785c4.4,0,4.4-6.9,0-6.9C445.3,778.1,445.3,785,449.7,785L449.7,785z"/>
		</g>
	</g>
	<g>
		<path class="st4" d="M444,807.2"/>
		<g>
			<path class="st4" d="M444,810.7c4.4,0,4.4-6.9,0-6.9C439.5,803.8,439.5,810.7,444,810.7L444,810.7z"/>
		</g>
	</g>
	<g>
		<path class="st4" d="M454.7,819.5"/>
		<g>
			<path class="st4" d="M454.7,823c4.4,0,4.4-6.9,0-6.9C450.3,816.1,450.3,823,454.7,823L454.7,823z"/>
		</g>
	</g>
	<g>
		<path class="st4" d="M457,800.7c0.4,0,0.4,0,0.8-0.4"/>
		<g>
			<path class="st4" d="M457,804.2c1.3,0,2.3-0.5,3.2-1.4c1.3-1.3,1.4-3.6,0-4.9c-1.4-1.3-3.5-1.4-4.9,0c-0.1,0.1-0.2,0.2-0.3,0.3
				c0.2-0.2,0.5-0.4,0.7-0.5c0,0-0.1,0.1-0.1,0.1c0.3-0.1,0.5-0.2,0.8-0.3c0,0,0,0-0.1,0c0.3,0,0.6-0.1,0.9-0.1c-0.1,0-0.2,0-0.3,0
				c-1.8,0-3.5,1.6-3.5,3.5C453.6,802.6,455.1,804.2,457,804.2L457,804.2z"/>
		</g>
	</g>
	<g>
		<path class="st4" d="M459.7,768.1"/>
		<g>
			<path class="st4" d="M459.7,771.6c4.4,0,4.4-6.9,0-6.9C455.3,764.7,455.2,771.6,459.7,771.6L459.7,771.6z"/>
		</g>
	</g>
	<g>
		<path class="st4" d="M459.7,737.5"/>
		<g>
			<path class="st4" d="M459.7,740.9c4.4,0,4.4-6.9,0-6.9C455.3,734,455.2,740.9,459.7,740.9L459.7,740.9z"/>
		</g>
	</g>
	<g>
		<path class="st4" d="M459.7,706.4"/>
		<g>
			<path class="st4" d="M459.7,709.9c4.4,0,4.4-6.9,0-6.9C455.3,703,455.2,709.9,459.7,709.9L459.7,709.9z"/>
		</g>
	</g>
	<g>
		<path class="st4" d="M458.2,837.1"/>
		<g>
			<path class="st4" d="M458.2,840.6c4.4,0,4.4-6.9,0-6.9C453.8,833.7,453.8,840.6,458.2,840.6L458.2,840.6z"/>
		</g>
	</g>
	<g>
		<path class="st4" d="M461.7,815.3"/>
		<g>
			<path class="st4" d="M461.7,818.7c4.4,0,4.4-6.9,0-6.9C457.2,811.8,457.2,818.7,461.7,818.7L461.7,818.7z"/>
		</g>
	</g>
	<g>
		<path class="st4" d="M461.7,788.1"/>
		<g>
			<path class="st4" d="M461.7,791.5c4.4,0,4.4-6.9,0-6.9C457.2,784.6,457.2,791.5,461.7,791.5L461.7,791.5z"/>
		</g>
	</g>
	<g>
		<path class="st4" d="M461.3,756.3"/>
		<g>
			<path class="st4" d="M461.3,759.7c4.4,0,4.4-6.9,0-6.9C456.8,752.8,456.8,759.7,461.3,759.7L461.3,759.7z"/>
		</g>
	</g>
	<g>
		<path class="st4" d="M461.7,723.7"/>
		<g>
			<path class="st4" d="M461.7,727.1c4.4,0,4.4-6.9,0-6.9C457.2,720.2,457.2,727.1,461.7,727.1L461.7,727.1z"/>
		</g>
	</g>
	<g>
		<path class="st4" d="M459.7,720.2"/>
		<g>
			<path class="st4" d="M459.7,723.7c4.4,0,4.4-6.9,0-6.9C455.3,716.8,455.2,723.7,459.7,723.7L459.7,723.7z"/>
		</g>
	</g>
	<g>
		<path class="st4" d="M462.4,694.5"/>
		<g>
			<path class="st4" d="M462.4,698c4.4,0,4.4-6.9,0-6.9C458,691.1,458,698,462.4,698L462.4,698z"/>
		</g>
	</g>
	<g>
		<path class="st4" d="M461.3,670"/>
		<g>
			<path class="st4" d="M461.3,673.5c4.4,0,4.4-6.9,0-6.9C456.8,666.6,456.8,673.5,461.3,673.5L461.3,673.5z"/>
		</g>
	</g>
	<g>
		<path class="st4" d="M472,683.4"/>
		<g>
			<path class="st4" d="M472,686.9c4.4,0,4.4-6.9,0-6.9C467.6,680,467.6,686.9,472,686.9L472,686.9z"/>
		</g>
	</g>
	<g>
		<path class="st4" d="M470.9,709.5"/>
		<g>
			<path class="st4" d="M470.9,712.9c4.4,0,4.4-6.9,0-6.9C466.4,706,466.4,712.9,470.9,712.9L470.9,712.9z"/>
		</g>
	</g>
	<g>
		<path class="st4" d="M470.5,740.9"/>
		<g>
			<path class="st4" d="M470.5,744.4c4.4,0,4.4-6.9,0-6.9C466,737.5,466,744.4,470.5,744.4L470.5,744.4z"/>
		</g>
	</g>
	<g>
		<path class="st4" d="M470.9,771.6"/>
		<g>
			<path class="st4" d="M470.9,775c4.4,0,4.4-6.9,0-6.9C466.4,768.1,466.4,775,470.9,775L470.9,775z"/>
		</g>
	</g>
	<g>
		<path class="st4" d="M469.7,800.7"/>
		<g>
			<path class="st4" d="M469.7,804.2c4.4,0,4.4-6.9,0-6.9C465.3,797.3,465.3,804.2,469.7,804.2L469.7,804.2z"/>
		</g>
	</g>
	<g>
		<path class="st4" d="M415.7,772.5"/>
		<g>
			<path class="st4" d="M415.7,776c4.4,0,4.4-6.9,0-6.9C411.2,769.1,411.2,776,415.7,776L415.7,776z"/>
		</g>
	</g>
	<g>
		<path class="st4" d="M419.9,742.3"/>
		<g>
			<path class="st4" d="M419.9,745.7c4.4,0,4.4-6.9,0-6.9C415.4,738.8,415.4,745.7,419.9,745.7L419.9,745.7z"/>
		</g>
	</g>
	<g>
		<path class="st4" d="M420.6,714.7"/>
		<g>
			<path class="st4" d="M420.6,718.1c4.4,0,4.4-6.9,0-6.9C416.2,711.2,416.2,718.1,420.6,718.1L420.6,718.1z"/>
		</g>
	</g>
	<g>
		<path class="st4" d="M423.3,688.2"/>
		<g>
			<path class="st4" d="M423.3,691.7c4.4,0,4.4-6.9,0-6.9C418.9,684.8,418.9,691.7,423.3,691.7L423.3,691.7z"/>
		</g>
	</g>
	<g>
		<path class="st4" d="M326.7,498.7c0.4,0.4,0.4,0.4,0.4,0.4"/>
		<g>
			<path class="st4" d="M324.2,501.1c0.1,0.1,0.3,0.3,0.4,0.4c1.3,1.3,3.6,1.4,4.9,0c1.3-1.4,1.4-3.5,0-4.9
				c-0.1-0.1-0.3-0.3-0.4-0.4c-1.3-1.3-3.6-1.4-4.9,0C323,497.6,322.9,499.7,324.2,501.1L324.2,501.1z"/>
		</g>
	</g>
	<g>
		<path class="st4" d="M334.3,508.6"/>
		<g>
			<path class="st4" d="M334.3,512.1c4.4,0,4.4-6.9,0-6.9C329.9,505.2,329.9,512.1,334.3,512.1L334.3,512.1z"/>
		</g>
	</g>
	<g>
		<path class="st4" d="M346.2,498.7"/>
		<g>
			<path class="st4" d="M346.2,502.1c4.4,0,4.4-6.9,0-6.9C341.8,495.2,341.8,502.1,346.2,502.1L346.2,502.1z"/>
		</g>
	</g>
	<g>
		<path class="st4" d="M361.9,494.1"/>
		<g>
			<path class="st4" d="M361.9,497.5c4.4,0,4.4-6.9,0-6.9C357.5,490.6,357.5,497.5,361.9,497.5L361.9,497.5z"/>
		</g>
	</g>
	<g>
		<path class="st4" d="M378,495.2"/>
		<g>
			<path class="st4" d="M378,498.7c4.4,0,4.4-6.9,0-6.9C373.6,491.8,373.6,498.7,378,498.7L378,498.7z"/>
		</g>
	</g>
	<g>
		<path class="st4" d="M398,499.4"/>
		<g>
			<path class="st4" d="M398,502.9c4.4,0,4.4-6.9,0-6.9C393.5,496,393.5,502.9,398,502.9L398,502.9z"/>
		</g>
	</g>
	<g>
		<path class="st4" d="M412.2,507.9"/>
		<g>
			<path class="st4" d="M412.2,511.3c4.4,0,4.4-6.9,0-6.9C407.7,504.4,407.7,511.3,412.2,511.3L412.2,511.3z"/>
		</g>
	</g>
	<g>
		<path class="st4" d="M428.3,520.5"/>
		<g>
			<path class="st4" d="M428.3,524c4.4,0,4.4-6.9,0-6.9C423.8,517.1,423.8,524,428.3,524L428.3,524z"/>
		</g>
	</g>
	<g>
		<path class="st4" d="M440.1,535.5"/>
		<g>
			<path class="st4" d="M440.1,538.9c4.4,0,4.4-6.9,0-6.9C435.7,532,435.7,538.9,440.1,538.9L440.1,538.9z"/>
		</g>
	</g>
	<g>
		<path class="st4" d="M449.3,549.6"/>
		<g>
			<path class="st4" d="M449.3,553.1c4.4,0,4.4-6.9,0-6.9C444.9,546.2,444.9,553.1,449.3,553.1L449.3,553.1z"/>
		</g>
	</g>
	<g>
		<path class="st4" d="M461.6,570.7"/>
		<g>
			<path class="st4" d="M461.6,574.2c4.4,0,4.4-6.9,0-6.9C457.2,567.3,457.2,574.2,461.6,574.2L461.6,574.2z"/>
		</g>
	</g>
	<g>
		<path class="st4" d="M460.5,596.4"/>
		<g>
			<path class="st4" d="M460.5,599.9c4.4,0,4.4-6.9,0-6.9C456.1,593,456.1,599.9,460.5,599.9L460.5,599.9z"/>
		</g>
	</g>
	<g>
		<path class="st4" d="M463.2,615.6"/>
		<g>
			<path class="st4" d="M463.2,619c4.4,0,4.4-6.9,0-6.9C458.8,612.1,458.7,619,463.2,619L463.2,619z"/>
		</g>
	</g>
	<g>
		<path class="st4" d="M464.7,643.2"/>
		<g>
			<path class="st4" d="M464.7,646.6c4.4,0,4.4-6.9,0-6.9C460.3,639.7,460.3,646.6,464.7,646.6L464.7,646.6z"/>
		</g>
	</g>
	<g>
		<path class="st4" d="M411.4,678.6"/>
		<g>
			<path class="st4" d="M411.4,682.1c4.4,0,4.4-6.9,0-6.9C407,675.2,407,682.1,411.4,682.1L411.4,682.1z"/>
		</g>
	</g>
	<g>
		<path class="st4" d="M411.4,649.5"/>
		<g>
			<path class="st4" d="M411.4,653c4.4,0,4.4-6.9,0-6.9C407,646,407,653,411.4,653L411.4,653z"/>
		</g>
	</g>
	<g>
		<path class="st4" d="M410.7,623.8"/>
		<g>
			<path class="st4" d="M410.7,627.3c4.4,0,4.4-6.9,0-6.9C406.2,620.4,406.2,627.3,410.7,627.3L410.7,627.3z"/>
		</g>
	</g>
	<g>
		<path class="st4" d="M469.3,581.5"/>
		<g>
			<path class="st4" d="M469.3,584.9c4.4,0,4.4-6.9,0-6.9C464.9,578,464.9,584.9,469.3,584.9L469.3,584.9z"/>
		</g>
	</g>
	<g>
		<path class="st4" d="M458.2,555"/>
		<g>
			<path class="st4" d="M458.2,558.5c4.4,0,4.4-6.9,0-6.9C453.8,551.6,453.8,558.5,458.2,558.5L458.2,558.5z"/>
		</g>
	</g>
	<g>
		<path class="st4" d="M457,537.4"/>
		<g>
			<path class="st4" d="M457,540.8c4.4,0,4.4-6.9,0-6.9C452.6,533.9,452.6,540.8,457,540.8L457,540.8z"/>
		</g>
	</g>
	<g>
		<path class="st4" d="M460.9,541.2"/>
		<g>
			<path class="st4" d="M460.9,544.7c4.4,0,4.4-6.9,0-6.9C456.5,537.8,456.4,544.7,460.9,544.7L460.9,544.7z"/>
		</g>
	</g>
	<g>
		<path class="st4" d="M471.2,565.7"/>
		<g>
			<path class="st4" d="M471.2,569.2c4.4,0,4.4-6.9,0-6.9C466.8,562.3,466.8,569.2,471.2,569.2L471.2,569.2z"/>
		</g>
	</g>
	<g>
		<path class="st4" d="M416.8,608.9"/>
		<g>
			<path class="st4" d="M416.8,612.3c4.4,0,4.4-6.9,0-6.9C412.4,605.4,412.4,612.3,416.8,612.3L416.8,612.3z"/>
		</g>
	</g>
	<g>
		<path class="st4" d="M421.8,637.6"/>
		<g>
			<path class="st4" d="M421.8,641.1c4.4,0,4.4-6.9,0-6.9C417.3,634.2,417.3,641.1,421.8,641.1L421.8,641.1z"/>
		</g>
	</g>
	<g>
		<path class="st4" d="M421.8,663.7"/>
		<g>
			<path class="st4" d="M421.8,667.1c4.4,0,4.4-6.9,0-6.9C417.3,660.2,417.3,667.1,421.8,667.1L421.8,667.1z"/>
		</g>
	</g>
	<g>
		<path class="st4" d="M337,491.4"/>
		<g>
			<path class="st4" d="M337,494.8c4.4,0,4.4-6.9,0-6.9C332.6,487.9,332.6,494.8,337,494.8L337,494.8z"/>
		</g>
	</g>
	<g>
		<path class="st4" d="M350.1,484.1"/>
		<g>
			<path class="st4" d="M350.1,487.5c4.4,0,4.4-6.9,0-6.9C345.6,480.6,345.6,487.5,350.1,487.5L350.1,487.5z"/>
		</g>
	</g>
	<g>
		<path class="st4" d="M370,482.6"/>
		<g>
			<path class="st4" d="M370,486c4.4,0,4.4-6.9,0-6.9C365.6,479.1,365.5,486,370,486L370,486z"/>
		</g>
	</g>
	<g>
		<path class="st4" d="M383.4,480.6"/>
		<g>
			<path class="st4" d="M383.4,484.1c4.4,0,4.4-6.9,0-6.9C379,477.2,379,484.1,383.4,484.1L383.4,484.1z"/>
		</g>
	</g>
	<g>
		<path class="st4" d="M360,474.9"/>
		<g>
			<path class="st4" d="M360,478.3c4.4,0,4.4-6.9,0-6.9C355.6,471.4,355.6,478.3,360,478.3L360,478.3z"/>
		</g>
	</g>
	<g>
		<path class="st4" d="M341.6,474.5"/>
		<g>
			<path class="st4" d="M341.6,478c4.4,0,4.4-6.9,0-6.9C337.2,471.1,337.2,478,341.6,478L341.6,478z"/>
		</g>
	</g>
	<g>
		<g>
			<path class="st4" d="M170.5,55"/>
			<g>
				<path class="st4" d="M170.5,58.5c4.4,0,4.4-6.9,0-6.9C166.1,51.6,166,58.5,170.5,58.5L170.5,58.5z"/>
			</g>
		</g>
		<g>
			<path class="st4" d="M155.9,64.3"/>
			<g>
				<path class="st4" d="M155.9,67.8c4.4,0,4.4-6.9,0-6.9C151.5,60.9,151.5,67.8,155.9,67.8L155.9,67.8z"/>
			</g>
		</g>
		<g>
			<path class="st4" d="M178.5,69"/>
			<g>
				<path class="st4" d="M178.5,72.4c4.4,0,4.4-6.9,0-6.9C174,65.5,174,72.4,178.5,72.4L178.5,72.4z"/>
			</g>
		</g>
		<g>
			<path class="st4" d="M147.3,81.6"/>
			<g>
				<path class="st4" d="M147.3,85c4.4,0,4.4-6.9,0-6.9C142.8,78.1,142.8,85,147.3,85L147.3,85z"/>
			</g>
		</g>
		<g>
			<path class="st4" d="M166.5,78.9"/>
			<g>
				<path class="st4" d="M166.5,82.4c4.4,0,4.4-6.9,0-6.9C162.1,75.5,162.1,82.4,166.5,82.4L166.5,82.4z"/>
			</g>
		</g>
		<g>
			<path class="st4" d="M179.1,90.2"/>
			<g>
				<path class="st4" d="M179.1,93.6c4.4,0,4.4-6.9,0-6.9C174.7,86.7,174.7,93.6,179.1,93.6L179.1,93.6z"/>
			</g>
		</g>
		<g>
			<path class="st4" d="M153.3,96.8"/>
			<g>
				<path class="st4" d="M153.3,100.3c4.4,0,4.4-6.9,0-6.9C148.8,93.4,148.8,100.3,153.3,100.3L153.3,100.3z"/>
			</g>
		</g>
		<g>
			<path class="st4" d="M167.8,100.8"/>
			<g>
				<path class="st4" d="M167.8,104.2c4.4,0,4.4-6.9,0-6.9C163.4,97.3,163.4,104.2,167.8,104.2L167.8,104.2z"/>
			</g>
		</g>
		<g>
			<path class="st4" d="M142,113.4"/>
			<g>
				<path class="st4" d="M142,116.8c4.4,0,4.4-6.9,0-6.9C137.5,109.9,137.5,116.8,142,116.8L142,116.8z"/>
			</g>
		</g>
		<g>
			<path class="st4" d="M156.6,112.7"/>
			<g>
				<path class="st4" d="M156.6,116.2c4.4,0,4.4-6.9,0-6.9C152.1,109.3,152.1,116.2,156.6,116.2L156.6,116.2z"/>
			</g>
		</g>
		<g>
			<path class="st4" d="M171.2,118.7"/>
			<g>
				<path class="st4" d="M171.2,122.1c4.4,0,4.4-6.9,0-6.9C166.7,115.2,166.7,122.1,171.2,122.1L171.2,122.1z"/>
			</g>
		</g>
		<g>
			<path class="st4" d="M149.3,126.6"/>
			<g>
				<path class="st4" d="M149.3,130.1c4.4,0,4.4-6.9,0-6.9C144.8,123.2,144.8,130.1,149.3,130.1L149.3,130.1z"/>
			</g>
		</g>
		<g>
			<path class="st4" d="M159.9,130"/>
			<g>
				<path class="st4" d="M159.9,133.4c4.4,0,4.4-6.9,0-6.9C155.4,126.5,155.4,133.4,159.9,133.4L159.9,133.4z"/>
			</g>
		</g>
		<g>
			<path class="st4" d="M136.7,137.9"/>
			<g>
				<path class="st4" d="M136.7,141.4c4.4,0,4.4-6.9,0-6.9C132.2,134.5,132.2,141.4,136.7,141.4L136.7,141.4z"/>
			</g>
		</g>
		<g>
			<path class="st4" d="M147.9,145.2"/>
			<g>
				<path class="st4" d="M147.9,148.7c4.4,0,4.4-6.9,0-6.9C143.5,141.8,143.5,148.7,147.9,148.7L147.9,148.7z"/>
			</g>
		</g>
		<g>
			<path class="st4" d="M164.5,145.2"/>
			<g>
				<path class="st4" d="M164.5,148.7c4.4,0,4.4-6.9,0-6.9C160.1,141.8,160.1,148.7,164.5,148.7L164.5,148.7z"/>
			</g>
		</g>
		<g>
			<path class="st4" d="M136.7,157.2"/>
			<g>
				<path class="st4" d="M136.7,160.6c4.4,0,4.4-6.9,0-6.9C132.2,153.7,132.2,160.6,136.7,160.6L136.7,160.6z"/>
			</g>
		</g>
		<g>
			<path class="st4" d="M155.9,159.8"/>
			<g>
				<path class="st4" d="M155.9,163.3c4.4,0,4.4-6.9,0-6.9C151.5,156.4,151.5,163.3,155.9,163.3L155.9,163.3z"/>
			</g>
		</g>
		<g>
			<path class="st4" d="M127.4,175.7"/>
			<g>
				<path class="st4" d="M127.4,179.2c4.4,0,4.4-6.9,0-6.9C123,172.3,122.9,179.2,127.4,179.2L127.4,179.2z"/>
			</g>
		</g>
		<g>
			<path class="st4" d="M144,172.4"/>
			<g>
				<path class="st4" d="M144,175.9c4.4,0,4.4-6.9,0-6.9C139.5,169,139.5,175.9,144,175.9L144,175.9z"/>
			</g>
		</g>
		<g>
			<path class="st4" d="M155.9,181"/>
			<g>
				<path class="st4" d="M155.9,184.5c4.4,0,4.4-6.9,0-6.9C151.5,177.6,151.5,184.5,155.9,184.5L155.9,184.5z"/>
			</g>
		</g>
		<g>
			<path class="st4" d="M138.7,189.6"/>
			<g>
				<path class="st4" d="M138.7,193.1c4.4,0,4.4-6.9,0-6.9C134.2,186.2,134.2,193.1,138.7,193.1L138.7,193.1z"/>
			</g>
		</g>
		<g>
			<path class="st4" d="M124.7,198.9"/>
			<g>
				<path class="st4" d="M124.7,202.4c4.4,0,4.4-6.9,0-6.9C120.3,195.5,120.3,202.4,124.7,202.4L124.7,202.4z"/>
			</g>
		</g>
		<g>
			<path class="st4" d="M149.3,202.2"/>
			<g>
				<path class="st4" d="M149.3,205.7c4.4,0,4.4-6.9,0-6.9C144.8,198.8,144.8,205.7,149.3,205.7L149.3,205.7z"/>
			</g>
		</g>
		<g>
			<path class="st4" d="M136.7,210.9"/>
			<g>
				<path class="st4" d="M136.7,214.3c4.4,0,4.4-6.9,0-6.9C132.2,207.4,132.2,214.3,136.7,214.3L136.7,214.3z"/>
			</g>
		</g>
		<g>
			<path class="st4" d="M122.7,226.1"/>
			<g>
				<path class="st4" d="M122.7,229.6c4.4,0,4.4-6.9,0-6.9C118.3,222.7,118.3,229.6,122.7,229.6L122.7,229.6z"/>
			</g>
		</g>
		<g>
			<path class="st4" d="M142,228.1"/>
			<g>
				<path class="st4" d="M142,231.6c4.4,0,4.4-6.9,0-6.9C137.5,224.7,137.5,231.6,142,231.6L142,231.6z"/>
			</g>
		</g>
		<g>
			<path class="st4" d="M131.4,240.7"/>
			<g>
				<path class="st4" d="M131.4,244.2c4.4,0,4.4-6.9,0-6.9C126.9,237.3,126.9,244.2,131.4,244.2L131.4,244.2z"/>
			</g>
		</g>
		<g>
			<path class="st4" d="M118.8,252"/>
			<g>
				<path class="st4" d="M118.8,255.4c4.4,0,4.4-6.9,0-6.9C114.3,248.5,114.3,255.4,118.8,255.4L118.8,255.4z"/>
			</g>
		</g>
		<g>
			<path class="st4" d="M137.3,256"/>
			<g>
				<path class="st4" d="M137.3,259.4c4.4,0,4.4-6.9,0-6.9C132.9,252.5,132.9,259.4,137.3,259.4L137.3,259.4z"/>
			</g>
		</g>
		<g>
			<path class="st4" d="M124.1,267.2"/>
			<g>
				<path class="st4" d="M124.1,270.7c4.4,0,4.4-6.9,0-6.9C119.6,263.8,119.6,270.7,124.1,270.7L124.1,270.7z"/>
			</g>
		</g>
		<g>
			<path class="st4" d="M116.1,283.8"/>
			<g>
				<path class="st4" d="M116.1,287.3c4.4,0,4.4-6.9,0-6.9C111.7,280.4,111.7,287.3,116.1,287.3L116.1,287.3z"/>
			</g>
		</g>
		<g>
			<path class="st4" d="M130.7,285.1"/>
			<g>
				<path class="st4" d="M130.7,288.6c4.4,0,4.4-6.9,0-6.9C126.3,281.7,126.3,288.6,130.7,288.6L130.7,288.6z"/>
			</g>
		</g>
		<g>
			<path class="st4" d="M122.7,300.4"/>
			<g>
				<path class="st4" d="M122.7,303.8c4.4,0,4.4-6.9,0-6.9C118.3,296.9,118.3,303.8,122.7,303.8L122.7,303.8z"/>
			</g>
		</g>
		<g>
			<path class="st4" d="M112.8,312.3"/>
			<g>
				<path class="st4" d="M112.8,315.8c4.4,0,4.4-6.9,0-6.9C108.4,308.9,108.4,315.8,112.8,315.8L112.8,315.8z"/>
			</g>
		</g>
		<g>
			<path class="st4" d="M124.7,318.3"/>
			<g>
				<path class="st4" d="M124.7,321.7c4.4,0,4.4-6.9,0-6.9C120.3,314.8,120.3,321.7,124.7,321.7L124.7,321.7z"/>
			</g>
		</g>
		<g>
			<path class="st4" d="M114.1,333.5"/>
			<g>
				<path class="st4" d="M114.1,337c4.4,0,4.4-6.9,0-6.9C109.7,330.1,109.7,337,114.1,337L114.1,337z"/>
			</g>
		</g>
		<g>
			<path class="st4" d="M107.5,350.1"/>
			<g>
				<path class="st4" d="M107.5,353.6c4.4,0,4.4-6.9,0-6.9C103.1,346.7,103,353.6,107.5,353.6L107.5,353.6z"/>
			</g>
		</g>
		<g>
			<path class="st4" d="M123.4,344.8"/>
			<g>
				<path class="st4" d="M123.4,348.3c4.4,0,4.4-6.9,0-6.9C119,341.4,119,348.3,123.4,348.3L123.4,348.3z"/>
			</g>
		</g>
		<g>
			<path class="st4" d="M115.5,362.1"/>
			<g>
				<path class="st4" d="M115.5,365.5c4.4,0,4.4-6.9,0-6.9C111,358.6,111,365.5,115.5,365.5L115.5,365.5z"/>
			</g>
		</g>
		<g>
			<path class="st4" d="M107.5,378.6"/>
			<g>
				<path class="st4" d="M107.5,382.1c4.4,0,4.4-6.9,0-6.9C103.1,375.2,103,382.1,107.5,382.1L107.5,382.1z"/>
			</g>
		</g>
		<g>
			<path class="st4" d="M118.1,381.3"/>
			<g>
				<path class="st4" d="M118.1,384.7c4.4,0,4.4-6.9,0-6.9C113.7,377.8,113.7,384.7,118.1,384.7L118.1,384.7z"/>
			</g>
		</g>
		<g>
			<path class="st4" d="M112.8,395.9"/>
			<g>
				<path class="st4" d="M112.8,399.3c4.4,0,4.4-6.9,0-6.9C108.4,392.4,108.4,399.3,112.8,399.3L112.8,399.3z"/>
			</g>
		</g>
		<g>
			<path class="st4" d="M108.8,411.8"/>
			<g>
				<path class="st4" d="M108.8,415.2c4.4,0,4.4-6.9,0-6.9C104.4,408.3,104.4,415.2,108.8,415.2L108.8,415.2z"/>
			</g>
		</g>
		<g>
			<path class="st4" d="M116.1,419.8"/>
			<g>
				<path class="st4" d="M116.1,423.2c4.4,0,4.4-6.9,0-6.9C111.7,416.3,111.7,423.2,116.1,423.2L116.1,423.2z"/>
			</g>
		</g>
		<g>
			<path class="st4" d="M111.5,436.3"/>
			<g>
				<path class="st4" d="M111.5,439.8c4.4,0,4.4-6.9,0-6.9C107,432.9,107,439.8,111.5,439.8L111.5,439.8z"/>
			</g>
		</g>
		<g>
			<path class="st4" d="M114.8,453.6"/>
			<g>
				<path class="st4" d="M114.8,457c4.4,0,4.4-6.9,0-6.9C110.4,450.1,110.3,457,114.8,457L114.8,457z"/>
			</g>
		</g>
		<g>
			<path class="st4" d="M115.5,472.1"/>
			<g>
				<path class="st4" d="M115.5,475.6c4.4,0,4.4-6.9,0-6.9C111,468.7,111,475.6,115.5,475.6L115.5,475.6z"/>
			</g>
		</g>
		<g>
			<path class="st4" d="M116.8,489.4"/>
			<g>
				<path class="st4" d="M116.8,492.8c4.4,0,4.4-6.9,0-6.9C112.3,485.9,112.3,492.8,116.8,492.8L116.8,492.8z"/>
			</g>
		</g>
		<g>
			<path class="st4" d="M119.4,507.9"/>
			<g>
				<path class="st4" d="M119.4,511.4c4.4,0,4.4-6.9,0-6.9C115,504.5,115,511.4,119.4,511.4L119.4,511.4z"/>
			</g>
		</g>
		<g>
			<path class="st4" d="M124.7,530.5"/>
			<g>
				<path class="st4" d="M124.7,533.9c4.4,0,4.4-6.9,0-6.9C120.3,527,120.3,533.9,124.7,533.9L124.7,533.9z"/>
			</g>
		</g>
		<g>
			<path class="st4" d="M133.4,547.7"/>
			<g>
				<path class="st4" d="M133.4,551.2c4.4,0,4.4-6.9,0-6.9C128.9,544.3,128.9,551.2,133.4,551.2L133.4,551.2z"/>
			</g>
		</g>
		<g>
			<path class="st4" d="M140.7,563.7"/>
			<g>
				<path class="st4" d="M140.7,567.1c4.4,0,4.4-6.9,0-6.9C136.2,560.2,136.2,567.1,140.7,567.1L140.7,567.1z"/>
			</g>
		</g>
		<g>
			<path class="st4" d="M147.9,576.9"/>
			<g>
				<path class="st4" d="M147.9,580.4c4.4,0,4.4-6.9,0-6.9C143.5,573.5,143.5,580.4,147.9,580.4L147.9,580.4z"/>
			</g>
		</g>
		<g>
			<path class="st4" d="M157.9,570.9"/>
			<g>
				<path class="st4" d="M157.9,574.4c4.4,0,4.4-6.9,0-6.9C153.5,567.5,153.4,574.4,157.9,574.4L157.9,574.4z"/>
			</g>
		</g>
		<g>
			<path class="st4" d="M157.9,584.2"/>
			<g>
				<path class="st4" d="M157.9,587.7c4.4,0,4.4-6.9,0-6.9C153.5,580.8,153.4,587.7,157.9,587.7L157.9,587.7z"/>
			</g>
		</g>
		<g>
			<path class="st4" d="M459.4,54.7"/>
			<g>
				<path class="st4" d="M459.4,58.2c4.4,0,4.4-6.9,0-6.9C454.9,51.3,454.9,58.2,459.4,58.2L459.4,58.2z"/>
			</g>
		</g>
		<g>
			<path class="st4" d="M474.4,63.4"/>
			<g>
				<path class="st4" d="M474.4,66.8c4.4,0,4.4-6.9,0-6.9C469.9,59.9,469.9,66.8,474.4,66.8L474.4,66.8z"/>
			</g>
		</g>
		<g>
			<path class="st4" d="M452,69"/>
			<g>
				<path class="st4" d="M452,72.4c4.4,0,4.4-6.9,0-6.9C447.6,65.5,447.6,72.4,452,72.4L452,72.4z"/>
			</g>
		</g>
		<g>
			<path class="st4" d="M483.7,80.2"/>
			<g>
				<path class="st4" d="M483.7,83.7c4.4,0,4.4-6.9,0-6.9C479.3,76.8,479.3,83.7,483.7,83.7L483.7,83.7z"/>
			</g>
		</g>
		<g>
			<path class="st4" d="M464.4,78.4"/>
			<g>
				<path class="st4" d="M464.4,81.9c4.4,0,4.4-6.9,0-6.9C459.9,75,459.9,81.9,464.4,81.9L464.4,81.9z"/>
			</g>
		</g>
		<g>
			<path class="st4" d="M452.3,90.2"/>
			<g>
				<path class="st4" d="M452.3,93.7c4.4,0,4.4-6.9,0-6.9C447.8,86.8,447.8,93.7,452.3,93.7L452.3,93.7z"/>
			</g>
		</g>
		<g>
			<path class="st4" d="M478.4,95.7"/>
			<g>
				<path class="st4" d="M478.4,99.2c4.4,0,4.4-6.9,0-6.9C474,92.3,473.9,99.2,478.4,99.2L478.4,99.2z"/>
			</g>
		</g>
		<g>
			<path class="st4" d="M464,100.3"/>
			<g>
				<path class="st4" d="M464,103.8c4.4,0,4.4-6.9,0-6.9C459.5,96.9,459.5,103.8,464,103.8L464,103.8z"/>
			</g>
		</g>
		<g>
			<path class="st4" d="M490.4,111.8"/>
			<g>
				<path class="st4" d="M490.4,115.3c4.4,0,4.4-6.9,0-6.9C485.9,108.4,485.9,115.3,490.4,115.3L490.4,115.3z"/>
			</g>
		</g>
		<g>
			<path class="st4" d="M475.8,111.8"/>
			<g>
				<path class="st4" d="M475.8,115.2c4.4,0,4.4-6.9,0-6.9C471.3,108.3,471.3,115.2,475.8,115.2L475.8,115.2z"/>
			</g>
		</g>
		<g>
			<path class="st4" d="M461.4,118.4"/>
			<g>
				<path class="st4" d="M461.4,121.8c4.4,0,4.4-6.9,0-6.9C457,114.9,457,121.8,461.4,121.8L461.4,121.8z"/>
			</g>
		</g>
		<g>
			<path class="st4" d="M483.6,125.4"/>
			<g>
				<path class="st4" d="M483.6,128.8c4.4,0,4.4-6.9,0-6.9C479.2,121.9,479.2,128.8,483.6,128.8L483.6,128.8z"/>
			</g>
		</g>
		<g>
			<path class="st4" d="M496.7,136.1"/>
			<g>
				<path class="st4" d="M496.7,139.6c4.4,0,4.4-6.9,0-6.9C492.3,132.7,492.3,139.6,496.7,139.6L496.7,139.6z"/>
			</g>
		</g>
		<g>
			<path class="st4" d="M485.8,143.9"/>
			<g>
				<path class="st4" d="M485.8,147.3c4.4,0,4.4-6.9,0-6.9C481.3,140.4,481.3,147.3,485.8,147.3L485.8,147.3z"/>
			</g>
		</g>
		<g>
			<path class="st4" d="M469.2,144.6"/>
			<g>
				<path class="st4" d="M469.2,148c4.4,0,4.4-6.9,0-6.9C464.8,141.1,464.8,148,469.2,148L469.2,148z"/>
			</g>
		</g>
		<g>
			<path class="st4" d="M497.5,155.3"/>
			<g>
				<path class="st4" d="M497.5,158.8c4.4,0,4.4-6.9,0-6.9C493.1,151.9,493.1,158.8,497.5,158.8L497.5,158.8z"/>
			</g>
		</g>
		<g>
			<path class="st4" d="M478.4,158.8"/>
			<g>
				<path class="st4" d="M478.4,162.2c4.4,0,4.4-6.9,0-6.9C474,155.3,474,162.2,478.4,162.2L478.4,162.2z"/>
			</g>
		</g>
		<g>
			<path class="st4" d="M507.6,173.5"/>
			<g>
				<path class="st4" d="M507.6,176.9c4.4,0,4.4-6.9,0-6.9C503.2,170,503.2,176.9,507.6,176.9L507.6,176.9z"/>
			</g>
		</g>
		<g>
			<path class="st4" d="M490.9,170.9"/>
			<g>
				<path class="st4" d="M490.9,174.3c4.4,0,4.4-6.9,0-6.9C486.5,167.4,486.5,174.3,490.9,174.3L490.9,174.3z"/>
			</g>
		</g>
		<g>
			<path class="st4" d="M479.3,180"/>
			<g>
				<path class="st4" d="M479.3,183.4c4.4,0,4.4-6.9,0-6.9C474.9,176.5,474.9,183.4,479.3,183.4L479.3,183.4z"/>
			</g>
		</g>
		<g>
			<path class="st4" d="M496.9,187.9"/>
			<g>
				<path class="st4" d="M496.9,191.3c4.4,0,4.4-6.9,0-6.9C492.5,184.4,492.5,191.3,496.9,191.3L496.9,191.3z"/>
			</g>
		</g>
		<g>
			<path class="st4" d="M511.2,196.6"/>
			<g>
				<path class="st4" d="M511.2,200c4.4,0,4.4-6.9,0-6.9C506.8,193.1,506.8,200,511.2,200L511.2,200z"/>
			</g>
		</g>
		<g>
			<path class="st4" d="M486.9,200.9"/>
			<g>
				<path class="st4" d="M486.9,204.4c4.4,0,4.4-6.9,0-6.9C482.4,197.5,482.4,204.4,486.9,204.4L486.9,204.4z"/>
			</g>
		</g>
		<g>
			<path class="st4" d="M499.8,209"/>
			<g>
				<path class="st4" d="M499.8,212.4c4.4,0,4.4-6.9,0-6.9C495.4,205.5,495.4,212.4,499.8,212.4L499.8,212.4z"/>
			</g>
		</g>
		<g>
			<path class="st4" d="M514.4,223.6"/>
			<g>
				<path class="st4" d="M514.4,227.1c4.4,0,4.4-6.9,0-6.9C510,220.2,509.9,227.1,514.4,227.1L514.4,227.1z"/>
			</g>
		</g>
		<g>
			<path class="st4" d="M495.3,226.4"/>
			<g>
				<path class="st4" d="M495.3,229.9c4.4,0,4.4-6.9,0-6.9C490.8,223,490.8,229.9,495.3,229.9L495.3,229.9z"/>
			</g>
		</g>
		<g>
			<path class="st4" d="M506.4,238.6"/>
			<g>
				<path class="st4" d="M506.4,242c4.4,0,4.4-6.9,0-6.9C502,235.1,502,242,506.4,242L506.4,242z"/>
			</g>
		</g>
		<g>
			<path class="st4" d="M519.5,249.3"/>
			<g>
				<path class="st4" d="M519.5,252.7c4.4,0,4.4-6.9,0-6.9C515,245.8,515,252.7,519.5,252.7L519.5,252.7z"/>
			</g>
		</g>
		<g>
			<path class="st4" d="M501.1,254.1"/>
			<g>
				<path class="st4" d="M501.1,257.5c4.4,0,4.4-6.9,0-6.9C496.7,250.6,496.6,257.5,501.1,257.5L501.1,257.5z"/>
			</g>
		</g>
		<g>
			<path class="st4" d="M514.8,264.8"/>
			<g>
				<path class="st4" d="M514.8,268.2c4.4,0,4.4-6.9,0-6.9C510.4,261.3,510.4,268.2,514.8,268.2L514.8,268.2z"/>
			</g>
		</g>
		<g>
			<path class="st4" d="M523.5,281"/>
			<g>
				<path class="st4" d="M523.5,284.4c4.4,0,4.4-6.9,0-6.9C519,277.5,519,284.4,523.5,284.4L523.5,284.4z"/>
			</g>
		</g>
		<g>
			<path class="st4" d="M509,282.9"/>
			<g>
				<path class="st4" d="M509,286.4c4.4,0,4.4-6.9,0-6.9C504.5,279.5,504.5,286.4,509,286.4L509,286.4z"/>
			</g>
		</g>
		<g>
			<path class="st4" d="M517.6,297.8"/>
			<g>
				<path class="st4" d="M517.6,301.3c4.4,0,4.4-6.9,0-6.9C513.1,294.4,513.1,301.3,517.6,301.3L517.6,301.3z"/>
			</g>
		</g>
		<g>
			<path class="st4" d="M528,309.3"/>
			<g>
				<path class="st4" d="M528,312.8c4.4,0,4.4-6.9,0-6.9C523.6,305.9,523.6,312.8,528,312.8L528,312.8z"/>
			</g>
		</g>
		<g>
			<path class="st4" d="M516.3,315.8"/>
			<g>
				<path class="st4" d="M516.3,319.3c4.4,0,4.4-6.9,0-6.9C511.9,312.4,511.9,319.3,516.3,319.3L516.3,319.3z"/>
			</g>
		</g>
		<g>
			<path class="st4" d="M527.6,330.6"/>
			<g>
				<path class="st4" d="M527.6,334c4.4,0,4.4-6.9,0-6.9C523.2,327.1,523.2,334,527.6,334L527.6,334z"/>
			</g>
		</g>
		<g>
			<path class="st4" d="M534.9,346.9"/>
			<g>
				<path class="st4" d="M534.9,350.3c4.4,0,4.4-6.9,0-6.9C530.5,343.4,530.5,350.3,534.9,350.3L534.9,350.3z"/>
			</g>
		</g>
		<g>
			<path class="st4" d="M518.8,342.2"/>
			<g>
				<path class="st4" d="M518.8,345.7c4.4,0,4.4-6.9,0-6.9C514.4,338.8,514.4,345.7,518.8,345.7L518.8,345.7z"/>
			</g>
		</g>
		<g>
			<path class="st4" d="M527.5,359.1"/>
			<g>
				<path class="st4" d="M527.5,362.6c4.4,0,4.4-6.9,0-6.9C523.1,355.7,523,362.6,527.5,362.6L527.5,362.6z"/>
			</g>
		</g>
		<g>
			<path class="st4" d="M536.2,375.4"/>
			<g>
				<path class="st4" d="M536.2,378.8c4.4,0,4.4-6.9,0-6.9C531.7,371.9,531.7,378.8,536.2,378.8L536.2,378.8z"/>
			</g>
		</g>
		<g>
			<path class="st4" d="M525.7,378.5"/>
			<g>
				<path class="st4" d="M525.7,381.9c4.4,0,4.4-6.9,0-6.9C521.2,375,521.2,381.9,525.7,381.9L525.7,381.9z"/>
			</g>
		</g>
		<g>
			<path class="st4" d="M531.6,392.8"/>
			<g>
				<path class="st4" d="M531.6,396.3c4.4,0,4.4-6.9,0-6.9C527.1,389.4,527.1,396.3,531.6,396.3L531.6,396.3z"/>
			</g>
		</g>
		<g>
			<path class="st4" d="M536.2,408.5"/>
			<g>
				<path class="st4" d="M536.2,412c4.4,0,4.4-6.9,0-6.9C531.8,405.1,531.8,412,536.2,412L536.2,412z"/>
			</g>
		</g>
		<g>
			<path class="st4" d="M529.3,416.8"/>
			<g>
				<path class="st4" d="M529.3,420.3c4.4,0,4.4-6.9,0-6.9C524.9,413.4,524.8,420.3,529.3,420.3L529.3,420.3z"/>
			</g>
		</g>
		<g>
			<path class="st4" d="M534.6,433.2"/>
			<g>
				<path class="st4" d="M534.6,436.6c4.4,0,4.4-6.9,0-6.9C530.2,429.7,530.2,436.6,534.6,436.6L534.6,436.6z"/>
			</g>
		</g>
		<g>
			<path class="st4" d="M532.1,450.5"/>
			<g>
				<path class="st4" d="M532.1,454c4.4,0,4.4-6.9,0-6.9C527.6,447.1,527.6,454,532.1,454L532.1,454z"/>
			</g>
		</g>
		<g>
			<path class="st4" d="M532.2,469.1"/>
			<g>
				<path class="st4" d="M532.2,472.6c4.4,0,4.4-6.9,0-6.9C527.8,465.7,527.8,472.6,532.2,472.6L532.2,472.6z"/>
			</g>
		</g>
		<g>
			<path class="st4" d="M531.6,486.4"/>
			<g>
				<path class="st4" d="M531.6,489.8c4.4,0,4.4-6.9,0-6.9C527.2,482.9,527.2,489.8,531.6,489.8L531.6,489.8z"/>
			</g>
		</g>
		<g>
			<path class="st4" d="M529.8,505.1"/>
			<g>
				<path class="st4" d="M529.8,508.5c4.4,0,4.4-6.9,0-6.9C525.3,501.6,525.3,508.5,529.8,508.5L529.8,508.5z"/>
			</g>
		</g>
		<g>
			<path class="st4" d="M525.4,527.8"/>
			<g>
				<path class="st4" d="M525.4,531.3c4.4,0,4.4-6.9,0-6.9C521,524.4,521,531.3,525.4,531.3L525.4,531.3z"/>
			</g>
		</g>
		<g>
			<path class="st4" d="M517.5,545.4"/>
			<g>
				<path class="st4" d="M517.5,548.9c4.4,0,4.4-6.9,0-6.9C513.1,542,513.1,548.9,517.5,548.9L517.5,548.9z"/>
			</g>
		</g>
		<g>
			<path class="st4" d="M510.9,561.6"/>
			<g>
				<path class="st4" d="M510.9,565.1c4.4,0,4.4-6.9,0-6.9C506.5,558.2,506.5,565.1,510.9,565.1L510.9,565.1z"/>
			</g>
		</g>
		<g>
			<path class="st4" d="M504.2,575.2"/>
			<g>
				<path class="st4" d="M504.2,578.6c4.4,0,4.4-6.9,0-6.9C499.8,571.7,499.8,578.6,504.2,578.6L504.2,578.6z"/>
			</g>
		</g>
		<g>
			<path class="st4" d="M494,569.6"/>
			<g>
				<path class="st4" d="M494,573.1c4.4,0,4.4-6.9,0-6.9C489.6,566.2,489.6,573.1,494,573.1L494,573.1z"/>
			</g>
		</g>
		<g>
			<path class="st4" d="M494.6,582.9"/>
			<g>
				<path class="st4" d="M494.6,586.3c4.4,0,4.4-6.9,0-6.9C490.1,579.4,490.1,586.3,494.6,586.3L494.6,586.3z"/>
			</g>
		</g>
	</g>
	<path class="st0" d="M334.7,807.3c0,0-96.1-6.1-119.2,11.9c-21.4,17.5,9.1,34.3,9.1,34.3s-25.2-22,7.3-33.4
		C261.8,808.5,334.7,807.3,334.7,807.3z"/>
	<path class="st0" d="M339,807.3c0,0,96.1-6.1,119.2,11.9c21.4,17.5-9.1,34.3-9.1,34.3s25.2-22-7.3-33.4
		C411.9,808.5,339,807.3,339,807.3z"/>
	<path class="st0" d="M168.9,565.4c-0.4,1.7-6,23.5-6.9,32.5c-0.3,1.2-33.2-36.6-33.9-89C138.7,567.2,166.5,565.8,168.9,565.4z"/>
	<path class="st0" d="M418.1,583.4c0.4,1.7,5.4,16.8,7.9,32.7c2-2.5,31.1-36.6,31.7-89C449.3,586.9,418.8,582.8,418.1,583.4z"/>
	<path class="st5" d="M465.8,633.4c2.2,53.7,8.4,129-141.6,129c-116.3,0-127.3-73.8-127.3-134.5c0-55.9,42.5-124.1,99.2-125.8
		c27-0.8,32.5,15.3,36.9,19.5c2.5-4.6,9.8-19.6,38.6-19.2C418.7,501,462.8,559.7,465.8,633.4z"/>
	<path class="st6" d="M253.8,668.7c-0.9,5.5-6,9.3-11.5,8.4c-5.5-0.9-9.3-6-8.4-11.5c0.9-5.5,6-9.3,11.5-8.4
		C250.9,658,254.7,663.2,253.8,668.7z"/>
	<path class="st6" d="M427.1,666.2c-0.7,4.6-5.1,7.8-9.7,7.1c-4.6-0.7-7.8-5.1-7.1-9.7c0.7-4.6,5-7.8,9.7-7.1
		C424.6,657.2,427.8,661.6,427.1,666.2z"/>
	<path class="st7" d="M327.8,594.3c0,28.4-22.2,51.5-49.6,51.5c-27.4,0-49.6-23.1-49.6-51.5c0-28.4,22.2-51.5,49.6-51.5
		C305.6,542.8,327.8,565.9,327.8,594.3z"/>
	<path class="st5" d="M303.4,592.7c0,13.9-11,25.2-24.5,25.2c-13.5,0-24.5-11.3-24.5-25.2c0-13.9,11-25.2,24.5-25.2
		C292.4,567.5,303.4,578.8,303.4,592.7z"/>
	<path class="st7" d="M290.5,591c0,6.3-5,11.5-11.2,11.5c-6.2,0-11.2-5.1-11.2-11.5c0-6.3,5-11.5,11.2-11.5
		C285.5,579.5,290.5,584.7,290.5,591z"/>
	<path class="st7" d="M274.1,607.2c0,2.6-2,4.7-4.6,4.7c-2.5,0-4.6-2.1-4.6-4.7c0-2.6,2.1-4.7,4.6-4.7
		C272.1,602.5,274.1,604.6,274.1,607.2z"/>
	<g>
		<path class="st8" d="M249.9,532.2c-1.4-3.7,0.3-6.3,2.8-6.9c2.5-0.5,4.9,0.8,5.5,4c0.6,3-0.3,6.8-1.9,10.2
			C256.4,539.6,251.2,535.5,249.9,532.2z"/>
		<path class="st8" d="M269.2,527.4c-0.7-3.9,1.4-6.2,4-6.2c2.6,0,4.7,1.7,4.7,4.9c0,3.1-1.5,6.6-3.7,9.7
			C274.2,535.8,269.9,530.9,269.2,527.4z"/>
		<path class="st8" d="M289.2,527.7c0.3-3.9,3.1-5.6,5.5-4.9c2.5,0.6,4.1,2.9,3.2,6c-0.8,3-3.2,6-6.2,8.3
			C291.8,537.1,288.9,531.2,289.2,527.7z"/>
	</g>
	<path class="st7" d="M334.5,594.1c0,28.4,22.2,51.5,49.6,51.5c27.4,0,49.6-23.1,49.6-51.5c0-28.4-22.2-51.5-49.6-51.5
		C356.7,542.6,334.5,565.7,334.5,594.1z"/>
	<path class="st5" d="M359,592.5c0,13.9,11,25.2,24.5,25.2c13.5,0,24.5-11.3,24.5-25.2c0-13.9-11-25.2-24.5-25.2
		C369.9,567.4,359,578.6,359,592.5z"/>
	<path class="st7" d="M371.8,590.8c0,6.3,5,11.5,11.2,11.5c6.2,0,11.2-5.1,11.2-11.5c0-6.3-5-11.5-11.2-11.5
		C376.8,579.4,371.8,584.5,371.8,590.8z"/>
	<path class="st7" d="M388.2,607c0,2.6,2,4.7,4.6,4.7c2.5,0,4.6-2.1,4.6-4.7c0-2.6-2.1-4.7-4.6-4.7
		C390.2,602.3,388.2,604.4,388.2,607z"/>
	<g>
		<path class="st8" d="M412.4,532.1c1.4-3.7-0.3-6.3-2.8-6.9c-2.5-0.5-4.9,0.8-5.5,4c-0.6,3,0.3,6.8,1.9,10.2
			C406,539.4,411.1,535.4,412.4,532.1z"/>
		<path class="st8" d="M393.1,527.2c0.8-3.9-1.4-6.2-4-6.2c-2.6,0-4.7,1.7-4.7,4.9c0,3.1,1.5,6.6,3.7,9.7
			C388.1,535.6,392.5,530.7,393.1,527.2z"/>
		<path class="st8" d="M373.1,527.5c-0.3-3.9-3.1-5.6-5.5-4.9c-2.5,0.6-4.1,2.9-3.2,6c0.8,3,3.2,5.9,6.2,8.3
			C370.5,536.9,373.4,531,373.1,527.5z"/>
	</g>
	<path class="st9" d="M343.3,656.9c1.9,10.8-4.3,17.1-11.4,17.1c-7.1,0-13-4.9-12.9-13.8c0.1-8.6,4.5-18.3,10.8-26.7
		C329.7,633.4,341.6,647.3,343.3,656.9z"/>
	<path class="st7" d="M379,718.5c0,14.8-19.9,26.8-44.5,26.8c-24.6,0-44.5-12-44.5-26.8c0-14.8,19.9-26.8,44.5-26.8
		C359.1,691.7,379,703.7,379,718.5z"/>
	<path class="st5" d="M322.6,696c1.8,2.7,10.6,40.8,10.6,40.8s7.8-33.6,9.5-40.8C339.8,694.1,329.5,692.8,322.6,696z"/>
	<path class="st8" d="M687.5,793.7c0,0-92.6,25.1-140.2,24.2s-172.9-28-207-28S160,820,112.6,815.5C65.2,811,4.3,794.6,4.3,794.6
		L0,768.8c0,0,71.3,20.6,111.2,20.6s178.8-19.9,229.9-20.6c51.2-0.7,149.9,20.1,206.1,21.1c56.2,0.9,146.1-21.1,146.1-21.1
		L687.5,793.7z"/>
	<g>
		<g>

				<image style="overflow:visible;opacity:0.3;" width="270" height="125" xlink:href="FE76B85BF9D16257.png"  transform="matrix(1 0 0 1 209 867)">
			</image>
			<g>
				<g>
					<path class="st1" d="M334.7,971.7c-41.4-1.2-128.8,11.1-119.8-46.4c4.5-28.8,99.5-24.2,118.6-25.4c6.7-0.4,10.5-27,11.3-27
						c0,0,8.7,26.4,12.1,26.4c12.9,0,77.4,6.3,82.7,8.1c10,3.5,19.4,10.3,19.5,28.4c0.1,11.7-2.5,19.3-6.1,23.4
						C440.7,972.9,369.4,972.7,334.7,971.7"/>
				</g>
			</g>
		</g>
		<g>
			<rect x="228.7" y="918.9" class="st10" width="211.6" height="72"/>
			<text transform="matrix(1 0 0 1 255.013 949.2482)" class="st5 st11 st12">Prepare</text>
		</g>
	</g>
</g>
</svg>
