<?xml version="1.0" encoding="utf-8"?>
<!-- Generator: Adobe Illustrator 19.2.1, SVG Export Plug-In . SVG Version: 6.00 Build 0)  -->
<svg version="1.1" id="Capa_1" xmlns="http://www.w3.org/2000/svg" xmlns:xlink="http://www.w3.org/1999/xlink" x="0px" y="0px"
	 viewBox="0 0 592.6 786" style="enable-background:new 0 0 592.6 786;" xml:space="preserve">
<style type="text/css">
	.st0{opacity:0.4;fill:#C7C7C7;}
	.st1{fill:#F6AB3B;}
	.st2{fill:#EC5A24;}
	.st3{fill:#F7E921;}
	.st4{fill:#E1E1E1;stroke:#FFFF00;stroke-miterlimit:10;}
	.st5{fill:none;stroke:#FFFF00;stroke-miterlimit:10;}
	.st6{fill:#E1E1E1;}
	.st7{fill:#FFFFFF;}
	.st8{fill:#1D1D1B;}
	.st9{fill:#FF41D1;}
	.st10{fill:#65C3CB;}
	.st11{fill:#00FFFF;}
</style>
<ellipse class="st0" cx="296.3" cy="663.8" rx="296.3" ry="122.2"/>
<path class="st1" d="M276.8,755.1c0,0-93.4-5-159.3-33.9c-29.5-13.9-58.4-36.4-68.5-48.6c-32.6-39.4-38.1-78.8-30.4-150.9
	c18.5-172,98.9-470.9,248.2-481.1c178.3,0,256.4,290.5,278.6,458.5c9,67.7,11.3,140.1-33.5,187.2c-6.9,7.2,39.8,28.5,48.4,30.3
	c3.4-13.6,6.6-19.7,15-16.2c9.2,5.5,5.4,22.6-8.1,30c-21.1-4.4-57.5-20.4-96.6-27.6c0,0-59.1,2.7-100.3,1.8
	c-55.8,1.9-72.7,3.6-87.2,3.8c-30.2,0.5-47.5,2.7-102.9-3.8c69.8,35.6,90,35.6,90,35.6s6-19.5,16.6-11.1
	C293.4,740.3,276.8,755.1,276.8,755.1z"/>
<path class="st2" d="M175.5,156.5C166.2,166.8,90.7,73.6,141,0c17.7,69.9,74.9,108.2,74.9,108.2S186.7,126.7,175.5,156.5z"/>
<path class="st2" d="M406.6,142.1c7.9,8.7,72.1-70.5,29.3-133.1c-15,59.4-63.6,92-63.6,92S397.1,116.7,406.6,142.1z"/>
<g>
	<g>
		<path class="st3" d="M262.1,54.5c-4.6,0.8-9.1,2.1-13.2,4.4c-0.8,0.5-0.1,1.8,0.8,1.3c4-2.3,8.4-3.5,12.8-4.3
			C263.4,55.8,263,54.3,262.1,54.5L262.1,54.5z"/>
	</g>
</g>
<g>
	<g>
		<path class="st3" d="M233.1,66.1c-3.9,0.8-7.6,2.4-11,4.4c-0.8,0.5-0.1,1.8,0.8,1.3c3.4-2,6.9-3.5,10.7-4.3
			C234.5,67.3,234.1,65.9,233.1,66.1L233.1,66.1z"/>
	</g>
</g>
<g>
	<g>
		<path class="st3" d="M205.3,81.4c-1.2,1.2-2.4,2.4-3.6,3.6c-0.7,0.7,0.4,1.7,1.1,1.1c1.2-1.2,2.4-2.4,3.6-3.6
			C207.1,81.8,206,80.8,205.3,81.4L205.3,81.4z"/>
	</g>
</g>
<g>
	<g>
		<path class="st3" d="M262.8,77.6c-3.5,1.4-7.2,2.2-10.9,2.9c-0.9,0.2-0.5,1.6,0.4,1.4c3.7-0.7,7.3-1.5,10.9-2.9
			C264.1,78.7,263.7,77.3,262.8,77.6L262.8,77.6z"/>
	</g>
</g>
<g>
	<g>
		<path class="st3" d="M230.8,87.8c-2.8,1.5-5.1,3.7-7.4,5.9c-0.7,0.7,0.4,1.7,1.1,1.1c2.2-2.2,4.3-4.2,7.1-5.7
			C232.4,88.7,231.6,87.4,230.8,87.8L230.8,87.8z"/>
	</g>
</g>
<g>
	<g>
		<path class="st3" d="M147.3,147.5c-1.5,2.1-3.6,3.7-5.1,5.8c-0.6,0.8,0.7,1.5,1.3,0.8c1.5-2.1,3.6-3.7,5.1-5.8
			C149.1,147.4,147.8,146.7,147.3,147.5L147.3,147.5z"/>
	</g>
</g>
<g>
	<g>
		<path class="st3" d="M133.5,171.5c-0.8,2.9-2.1,5.5-4.1,7.6c-0.7,0.7,0.4,1.8,1.1,1.1c2.2-2.3,3.7-5.2,4.5-8.3
			C135.2,171,133.7,170.6,133.5,171.5L133.5,171.5z"/>
	</g>
</g>
<g>
	<g>
		<path class="st3" d="M122.9,201.5c-2.3,1.7-3.1,4.4-4,7c-0.3,0.9,1.1,1.3,1.4,0.4c0.7-2.2,1.3-4.7,3.3-6.1
			C124.5,202.2,123.7,200.9,122.9,201.5L122.9,201.5z"/>
	</g>
</g>
<g>
	<g>
		<path class="st3" d="M108.9,230.7c-1.4,2.9-2.9,5.8-3.7,8.9c-0.2,0.9,1.2,1.3,1.4,0.4c0.8-3,2.2-5.7,3.5-8.5
			C110.7,230.6,109.4,229.8,108.9,230.7L108.9,230.7z"/>
	</g>
</g>
<g>
	<g>
		<path class="st3" d="M95.9,260.4c-1.9,2.5-3.6,5.1-5.1,8c-0.4,0.9,0.9,1.6,1.3,0.8c1.4-2.8,3.2-5.4,5.1-8
			C97.8,260.4,96.5,259.6,95.9,260.4L95.9,260.4z"/>
	</g>
</g>
<g>
	<g>
		<path class="st3" d="M84.2,293.8c-0.7,2.1-0.8,4.4-1.4,6.5c-0.3,0.9,1.2,1.3,1.4,0.4c0.7-2.1,0.8-4.4,1.4-6.5
			C86,293.3,84.5,292.9,84.2,293.8L84.2,293.8z"/>
	</g>
</g>
<g>
	<g>
		<path class="st3" d="M76.4,325.5c-1.5,2.3-2.3,4.8-3,7.4c-0.2,0.9,1.2,1.3,1.4,0.4c0.6-2.5,1.4-4.9,2.8-7.1
			C78.2,325.5,76.9,324.7,76.4,325.5L76.4,325.5z"/>
	</g>
</g>
<g>
	<g>
		<path class="st3" d="M65.4,358.5c0,1.8,0.1,3.8-0.6,5.4c-0.4,0.9,0.9,1.6,1.3,0.8c0.9-1.9,0.8-4.1,0.8-6.2
			C66.9,357.5,65.4,357.5,65.4,358.5L65.4,358.5z"/>
	</g>
</g>
<g>
	<g>
		<path class="st3" d="M56,386.5c-0.8,2.6-0.7,5.4-0.7,8.2c0,1,1.5,1,1.5,0c0-2.6-0.1-5.3,0.7-7.8C57.7,386,56.3,385.6,56,386.5
			L56,386.5z"/>
	</g>
</g>
<g>
	<g>
		<path class="st3" d="M61.2,416c1.4,2.2,2.9,4.3,4.3,6.5c0.5,0.8,1.8,0,1.3-0.8c-1.4-2.2-2.9-4.3-4.3-6.5
			C61.9,414.5,60.6,415.2,61.2,416L61.2,416z"/>
	</g>
</g>
<g>
	<g>
		<path class="st3" d="M73.5,445.7c1.5,3.1,2.8,6.3,4.3,9.4c0.4,0.9,1.7,0.1,1.3-0.8c-1.5-3.1-2.8-6.3-4.3-9.4
			C74.3,444.1,73,444.8,73.5,445.7L73.5,445.7z"/>
	</g>
</g>
<g>
	<g>
		<path class="st3" d="M87.2,473.9c1.4,2.8,3.3,5.3,5.1,8c0.5,0.8,1.8,0,1.3-0.8c-1.8-2.6-3.6-5.2-5.1-8
			C88.1,472.3,86.8,473.1,87.2,473.9L87.2,473.9z"/>
	</g>
</g>
<g>
	<g>
		<path class="st3" d="M103.1,499.3c0.9,1.7,2.4,3.1,3.7,4.5c0.7,0.7,1.7-0.4,1.1-1.1c-1.3-1.3-2.6-2.6-3.5-4.2
			C104,497.6,102.7,498.4,103.1,499.3L103.1,499.3z"/>
	</g>
</g>
<g>
	<g>
		<path class="st3" d="M124.4,517.6c1.5,0.8,2.8,2.1,4.3,2.9c0.9,0.5,1.6-0.8,0.8-1.3c-1.5-0.8-2.8-2.1-4.3-2.9
			C124.3,515.9,123.5,517.2,124.4,517.6L124.4,517.6z"/>
	</g>
</g>
<g>
	<g>
		<path class="st3" d="M149,526.3c2.7,2,5.7,2.9,9.1,3c1,0,1-1.5,0-1.5c-3.1,0-5.8-1-8.3-2.8C149,524.4,148.2,525.7,149,526.3
			L149,526.3z"/>
	</g>
</g>
<g>
	<g>
		<path class="st3" d="M174.7,530.7c1.7,0,3.4,0,5.1,0c1,0,1-1.5,0-1.5c-1.7,0-3.4,0-5.1,0C173.8,529.2,173.7,530.7,174.7,530.7
			L174.7,530.7z"/>
	</g>
</g>
<g>
	<g>
		<path class="st3" d="M200,537.3c2.2,0,4.3,0,6.5,0c1,0,1-1.5,0-1.5c-2.2,0-4.3,0-6.5,0C199.1,535.8,199.1,537.3,200,537.3
			L200,537.3z"/>
	</g>
</g>
<g>
	<g>
		<path class="st3" d="M222.7,538.5c0.8,0.7,1.7,0.9,2.7,0.9c1,0,1-1.5,0-1.5c-0.6,0-1.2,0-1.6-0.5C223,536.8,222,537.8,222.7,538.5
			L222.7,538.5z"/>
	</g>
</g>
<g>
	<g>
		<path class="st3" d="M48.8,422c-0.7,2.4-0.7,4.9-1.4,7.2c-0.3,0.9,1.2,1.3,1.4,0.4c0.7-2.4,0.7-4.9,1.4-7.2
			C50.5,421.4,49.1,421,48.8,422L48.8,422z"/>
	</g>
</g>
<g>
	<g>
		<path class="st3" d="M41.5,452.8c0.6,1.8,0.7,3.7,0.7,5.6c0,1,1.5,1,1.5,0c0-2-0.1-4-0.7-6C42.7,451.4,41.3,451.8,41.5,452.8
			L41.5,452.8z"/>
	</g>
</g>
<g>
	<g>
		<path class="st3" d="M37.9,480.1c0,1.4,0,2.9,0,4.3c0,1,1.5,1,1.5,0c0-1.4,0-2.9,0-4.3C39.4,479.1,37.9,479.1,37.9,480.1
			L37.9,480.1z"/>
	</g>
</g>
<g>
	<g>
		<path class="st3" d="M31.4,505.4c0,1.9,0,3.9,0,5.8c0,1,1.5,1,1.5,0c0-1.9,0-3.9,0-5.8C32.9,504.4,31.4,504.4,31.4,505.4
			L31.4,505.4z"/>
	</g>
</g>
<g>
	<g>
		<path class="st3" d="M30.7,540.9c0,1.4,0,2.9,0,4.3c0,1,1.5,1,1.5,0c0-1.4,0-2.9,0-4.3C32.2,539.9,30.7,539.9,30.7,540.9
			L30.7,540.9z"/>
	</g>
</g>
<g>
	<g>
		<path class="st3" d="M28.5,565.5c0,1.9,0,3.9,0,5.8c0,1,1.5,1,1.5,0c0-1.9,0-3.9,0-5.8C30,564.5,28.5,564.5,28.5,565.5L28.5,565.5
			z"/>
	</g>
</g>
<g>
	<g>
		<path class="st3" d="M31.4,595.1c0,3.6,0.7,7.2,2.3,10.5c0.4,0.9,1.7,0.1,1.3-0.8c-1.5-3.1-2-6.4-2.1-9.8
			C32.9,594.2,31.4,594.2,31.4,595.1L31.4,595.1z"/>
	</g>
</g>
<g>
	<g>
		<path class="st3" d="M38,625.2c1.3,1.9,2.4,3.9,3.6,5.8c0.5,0.8,1.8,0.1,1.3-0.8c-1.3-1.9-2.4-3.9-3.6-5.8
			C38.8,623.6,37.5,624.4,38,625.2L38,625.2z"/>
	</g>
</g>
<g>
	<g>
		<path class="st3" d="M53.1,648.2c0.7,2.7,1.9,5.5,3.8,7.6c0.7,0.7,1.7-0.4,1.1-1.1c-1.8-1.9-2.8-4.4-3.4-6.9
			C54.3,646.8,52.9,647.2,53.1,648.2L53.1,648.2z"/>
	</g>
</g>
<g>
	<g>
		<path class="st3" d="M70.7,669.5c2.9,2.8,6,5.2,9.7,6.7c0.9,0.4,1.3-1.1,0.4-1.4c-3.5-1.4-6.4-3.7-9.1-6.3
			C71.1,667.8,70,668.8,70.7,669.5L70.7,669.5z"/>
	</g>
</g>
<g>
	<g>
		<path class="st3" d="M96.3,684.9c2.7,0.7,5.3,2.1,8.2,2.2c1,0,1-1.5,0-1.5c-2.7-0.1-5.2-1.4-7.8-2.1
			C95.8,683.2,95.4,684.6,96.3,684.9L96.3,684.9z"/>
	</g>
</g>
<g>
	<g>
		<path class="st3" d="M126.9,695c3.1,0,6.3,0,9.4,0c1,0,1-1.5,0-1.5c-3.1,0-6.3,0-9.4,0C126,693.5,126,695,126.9,695L126.9,695z"/>
	</g>
</g>
<g>
	<g>
		<path class="st3" d="M53.8,467.7c0,2.4,0,4.8,0,7.2c0,1,1.5,1,1.5,0c0-2.4,0-4.8,0-7.2C55.3,466.8,53.8,466.8,53.8,467.7
			L53.8,467.7z"/>
	</g>
</g>
<g>
	<g>
		<path class="st3" d="M53.1,497.6c0.6,2.1,0.6,4,0,6.1c-0.3,0.9,1.2,1.3,1.4,0.4c0.7-2.3,0.7-4.6,0-6.9
			C54.3,496.3,52.8,496.7,53.1,497.6L53.1,497.6z"/>
	</g>
</g>
<g>
	<g>
		<path class="st3" d="M46,523.1c-0.8,1.7-0.8,3.6-0.8,5.4c0,1,1.5,1,1.5,0c0-1.6,0-3.2,0.6-4.7C47.7,523,46.4,522.2,46,523.1
			L46,523.1z"/>
	</g>
</g>
<g>
	<g>
		<path class="st3" d="M46.7,556.4c0.6,1.3,0.6,2.6,0.6,4c0,1,1.5,1,1.5,0c0-1.7-0.1-3.2-0.8-4.7C47.6,554.8,46.3,555.6,46.7,556.4
			L46.7,556.4z"/>
	</g>
</g>
<g>
	<g>
		<path class="st3" d="M43.8,578.9c0.7,1.4,0.6,3.1,0.6,4.7c0,1,1.5,1,1.5,0c0-1.9,0-3.7-0.8-5.4C44.7,577.2,43.4,578,43.8,578.9
			L43.8,578.9z"/>
	</g>
</g>
<g>
	<g>
		<path class="st3" d="M49,610.1c1.3,1.4,1.9,3.2,2.8,4.9c0.4,0.9,1.7,0.1,1.3-0.8c-0.9-1.8-1.6-3.7-3-5.2
			C49.4,608.4,48.3,609.4,49,610.1L49,610.1z"/>
	</g>
</g>
<g>
	<g>
		<path class="st3" d="M61.3,631.1c1.2,1.2,2,2.7,2.8,4.2c0.4,0.9,1.7,0.1,1.3-0.8c-0.8-1.6-1.7-3.2-3-4.5
			C61.7,629.4,60.6,630.4,61.3,631.1L61.3,631.1z"/>
	</g>
</g>
<g>
	<g>
		<path class="st3" d="M72.3,650.8c2.1,1.5,3.7,3.6,5.8,5.1c0.8,0.6,1.5-0.7,0.8-1.3c-2.1-1.5-3.7-3.6-5.8-5.1
			C72.2,648.9,71.5,650.2,72.3,650.8L72.3,650.8z"/>
	</g>
</g>
<g>
	<g>
		<path class="st3" d="M95.9,663.5c1.4,2.8,3.1,5.3,6.2,6.1c0.9,0.3,1.3-1.2,0.4-1.4c-2.7-0.8-4.1-3-5.3-5.4
			C96.8,661.9,95.5,662.7,95.9,663.5L95.9,663.5z"/>
	</g>
</g>
<g>
	<g>
		<path class="st3" d="M121.7,676.2c1.8,0.6,3.9,0.6,5.6,1.4c0.9,0.4,1.6-0.9,0.8-1.3c-1.9-0.9-4-0.9-6-1.5
			C121.2,674.5,120.8,675.9,121.7,676.2L121.7,676.2z"/>
	</g>
</g>
<g>
	<g>
		<path class="st3" d="M155,684.9c2,0.7,3.8,1.5,5.8,2.2c0.9,0.3,1.3-1.1,0.4-1.4c-2-0.7-3.8-1.5-5.8-2.2
			C154.5,683.1,154.1,684.6,155,684.9L155,684.9z"/>
	</g>
</g>
<g>
	<g>
		<path class="st3" d="M102.1,703.5c3.4,0.8,6.9,0.7,10.3,0.7c1,0,1-1.5,0-1.5c-3.3,0-6.7,0-9.9-0.7
			C101.6,701.8,101.2,703.2,102.1,703.5L102.1,703.5z"/>
	</g>
</g>
<g>
	<g>
		<path class="st3" d="M69.8,486.8c0.5,1.6,0.7,3.2,0.7,4.9c0,1,1.5,1,1.5,0c0-1.8-0.2-3.5-0.7-5.3
			C70.9,485.5,69.5,485.8,69.8,486.8L69.8,486.8z"/>
	</g>
</g>
<g>
	<g>
		<path class="st3" d="M63.2,516.2c0,1.7-0.7,3.4-0.7,5.1c0,1,1.5,1,1.5,0c0-1.7,0.7-3.3,0.7-5.1C64.7,515.3,63.2,515.3,63.2,516.2
			L63.2,516.2z"/>
	</g>
</g>
<g>
	<g>
		<path class="st3" d="M62.5,537.2c0,2.2,0,4.3,0,6.5c0,1,1.5,1,1.5,0c0-2.2,0-4.3,0-6.5C64,536.3,62.5,536.3,62.5,537.2L62.5,537.2
			z"/>
	</g>
</g>
<g>
	<g>
		<path class="st3" d="M60.3,567.6c0,1.7,0,3.4,0,5.1c0,1,1.5,1,1.5,0c0-1.7,0-3.4,0-5.1C61.8,566.7,60.3,566.7,60.3,567.6
			L60.3,567.6z"/>
	</g>
</g>
<g>
	<g>
		<path class="st3" d="M61.1,593c0,1.9,0,3.9,0,5.8c0,1,1.5,1,1.5,0c0-1.9,0-3.9,0-5.8C62.6,592,61.1,592,61.1,593L61.1,593z"/>
	</g>
</g>
<g>
	<g>
		<path class="st3" d="M71.9,615.4c0,1.5,0.6,3,1.7,4.2c0.7,0.7,1.7-0.4,1.1-1.1c-0.8-0.8-1.2-2-1.2-3.1
			C73.4,614.4,71.9,614.4,71.9,615.4L71.9,615.4z"/>
	</g>
</g>
<g>
	<g>
		<path class="st3" d="M85.9,636.9c1.2,1.2,2.4,2.4,3.6,3.6c0.7,0.7,1.7-0.4,1.1-1.1c-1.2-1.2-2.4-2.4-3.6-3.6
			C86.3,635.2,85.2,636.2,85.9,636.9L85.9,636.9z"/>
	</g>
</g>
<g>
	<g>
		<path class="st3" d="M101.7,645.5c2,2.7,4.3,5.2,7.7,6.1c0.9,0.3,1.3-1.2,0.4-1.4c-2.9-0.8-5-3.1-6.8-5.4
			C102.4,643.9,101.1,644.7,101.7,645.5L101.7,645.5z"/>
	</g>
</g>
<g>
	<g>
		<path class="st3" d="M132.2,658.6c1.3,1.3,2.9,1.5,4.5,2.3c0.9,0.4,1.6-0.9,0.8-1.3c-1.4-0.7-3-0.9-4.2-2.1
			C132.6,656.9,131.5,658,132.2,658.6L132.2,658.6z"/>
	</g>
</g>
<g>
	<g>
		<path class="st3" d="M153.7,669.7c2.2,0,4.3,0,6.5,0c1,0,1-1.5,0-1.5c-2.2,0-4.3,0-6.5,0C152.8,668.2,152.8,669.7,153.7,669.7
			L153.7,669.7z"/>
	</g>
</g>
<g>
	<g>
		<path class="st3" d="M184.5,679c1.6,0.7,3.5,0.7,5.1,1.4c0.9,0.4,1.6-0.9,0.8-1.3c-1.6-0.7-3.5-0.7-5.1-1.4
			C184.4,677.3,183.6,678.6,184.5,679L184.5,679z"/>
	</g>
</g>
<g>
	<g>
		<path class="st3" d="M85,509.5c-0.6,2.6-0.7,5.4-1.4,8c-0.3,0.9,1.2,1.3,1.4,0.4c0.8-2.6,0.8-5.3,1.4-8
			C86.6,509,85.2,508.6,85,509.5L85,509.5z"/>
	</g>
</g>
<g>
	<g>
		<path class="st3" d="M79.9,540.7c-0.6,2-0.7,3.9-0.7,6c0,1,1.5,1,1.5,0c0-1.9,0.1-3.7,0.7-5.6C81.6,540.1,80.2,539.7,79.9,540.7
			L79.9,540.7z"/>
	</g>
</g>
<g>
	<g>
		<path class="st3" d="M78.4,563.3c0,1.9,0,3.9,0,5.8c0,1,1.5,1,1.5,0c0-1.9,0-3.9,0-5.8C79.9,562.3,78.4,562.3,78.4,563.3
			L78.4,563.3z"/>
	</g>
</g>
<g>
	<g>
		<path class="st3" d="M78.5,585.9c0.6,2.1,0.7,4.2,0.7,6.3c0,1,1.5,1,1.5,0c0-2.3-0.1-4.5-0.8-6.7C79.6,584.6,78.2,585,78.5,585.9
			L78.5,585.9z"/>
	</g>
</g>
<g>
	<g>
		<path class="st3" d="M90.8,609.8c0.7,2.1,2.1,4.1,2.1,6.3c0,1,1.5,1,1.5,0c-0.1-2.4-1.4-4.5-2.2-6.7
			C91.9,608.5,90.4,608.9,90.8,609.8L90.8,609.8z"/>
	</g>
</g>
<g>
	<g>
		<path class="st3" d="M112.7,628.2c2.2,2.2,4.3,4.3,6.5,6.5c0.7,0.7,1.7-0.4,1.1-1.1c-2.2-2.2-4.3-4.3-6.5-6.5
			C113,626.5,112,627.6,112.7,628.2L112.7,628.2z"/>
	</g>
</g>
<g>
	<g>
		<path class="st3" d="M139.4,640.5c0.9,0.8,2,1.3,2.9,2.2c0.7,0.7,1.8-0.4,1.1-1.1c-0.9-0.8-2-1.3-2.9-2.2
			C139.8,638.8,138.7,639.9,139.4,640.5L139.4,640.5z"/>
	</g>
</g>
<g>
	<g>
		<path class="st3" d="M158.4,648.6c3.3,1.6,6.9,2.2,10.5,2.3c1,0,1-1.5,0-1.5c-3.4,0-6.7-0.6-9.8-2.1
			C158.3,646.9,157.5,648.2,158.4,648.6L158.4,648.6z"/>
	</g>
</g>
<g>
	<g>
		<path class="st3" d="M185.2,655.1c2.8,1.3,5.9,1.5,8.9,2.2c0.9,0.2,1.3-1.2,0.4-1.4c-2.9-0.7-5.8-0.8-8.5-2.1
			C185.1,653.4,184.3,654.7,185.2,655.1L185.2,655.1z"/>
	</g>
</g>
<g>
	<g>
		<path class="st3" d="M76.2,383.4c0.7-1.4,0.8-3,1.4-4.3c0.4-0.9-0.9-1.6-1.3-0.8c-0.7,1.4-0.8,3-1.4,4.3
			C74.5,383.6,75.8,384.3,76.2,383.4L76.2,383.4z"/>
	</g>
</g>
<g>
	<g>
		<path class="st3" d="M82.8,358.7c0.7-3.5,2-6.8,3.5-10c0.4-0.9-0.9-1.6-1.3-0.8c-1.6,3.3-2.9,6.7-3.7,10.3
			C81.1,359.2,82.6,359.6,82.8,358.7L82.8,358.7z"/>
	</g>
</g>
<g>
	<g>
		<path class="st3" d="M94.3,321.9c0.7-1.6,0.7-3.5,1.4-5.1c0.4-0.9-0.9-1.6-1.3-0.8c-0.7,1.6-0.7,3.5-1.4,5.1
			C92.6,322,93.9,322.8,94.3,321.9L94.3,321.9z"/>
	</g>
</g>
<g>
	<g>
		<path class="st3" d="M103.1,295.7c1.3-3.8,2.8-7.6,3.6-11.6c0.2-0.9-1.2-1.3-1.4-0.4c-0.8,4-2.3,7.7-3.6,11.6
			C101.3,296.2,102.8,296.6,103.1,295.7L103.1,295.7z"/>
	</g>
</g>
<g>
	<g>
		<path class="st3" d="M115,262.1c2.1-1.4,3.2-3.2,4-5.5c0.3-0.9-1.1-1.3-1.4-0.4c-0.7,1.9-1.6,3.4-3.3,4.6
			C113.5,261.4,114.2,262.7,115,262.1L115,262.1z"/>
	</g>
</g>
<g>
	<g>
		<path class="st3" d="M123.7,233.2c2-1.4,3.8-3,5.8-4.3c0.8-0.5,0-1.8-0.8-1.3c-2,1.4-3.8,3-5.8,4.3
			C122.2,232.4,122.9,233.7,123.7,233.2L123.7,233.2z"/>
	</g>
</g>
<g>
	<g>
		<path class="st3" d="M137.6,201.9c2.5-2.6,4.3-5.5,5.3-9c0.2-0.9-1.2-1.3-1.4-0.4c-0.9,3.3-2.5,6-4.9,8.4
			C135.9,201.6,136.9,202.6,137.6,201.9L137.6,201.9z"/>
	</g>
</g>
<g>
	<g>
		<path class="st3" d="M155.9,171.9c0.7-2.4,0.7-4.9,0.7-7.4c0-1-1.5-1-1.5,0c0,2.4,0,4.8-0.7,7
			C154.2,172.5,155.6,172.8,155.9,171.9L155.9,171.9z"/>
	</g>
</g>
<g>
	<g>
		<path class="st3" d="M242.9,103c2.6-0.6,5.4-0.7,8-1.4c0.9-0.3,0.5-1.7-0.4-1.4c-2.6,0.8-5.3,0.8-8,1.4
			C241.6,101.7,242,103.2,242.9,103L242.9,103z"/>
	</g>
</g>
<g>
	<g>
		<path class="st3" d="M213.5,123.9c3.3-2,6.4-4.2,10-5.7c0.9-0.4,0.5-1.8-0.4-1.4c-3.7,1.5-6.9,3.8-10.3,5.9
			C211.9,123.1,212.6,124.4,213.5,123.9L213.5,123.9z"/>
	</g>
</g>
<g>
	<g>
		<path class="st3" d="M191.7,144.1c2.6-1.4,4.8-3.4,7.2-5.1c0.8-0.5,0-1.8-0.8-1.3c-2.4,1.7-4.6,3.7-7.2,5.1
			C190.1,143.3,190.9,144.6,191.7,144.1L191.7,144.1z"/>
	</g>
</g>
<g>
	<g>
		<path class="st3" d="M158.7,196c2.1-2.7,4.7-4.7,7.1-7.1c0.7-0.7-0.4-1.7-1.1-1.1c-2.5,2.5-5.2,4.6-7.4,7.4
			C156.8,196,158.1,196.7,158.7,196L158.7,196z"/>
	</g>
</g>
<g>
	<g>
		<path class="st3" d="M153.8,218.4c-0.7,1.4-1.4,2.9-2.2,4.3c-0.4,0.9,0.9,1.6,1.3,0.8c0.7-1.4,1.4-2.9,2.2-4.3
			C155.5,218.3,154.2,217.5,153.8,218.4L153.8,218.4z"/>
	</g>
</g>
<g>
	<g>
		<path class="st3" d="M180.5,172.6c1.5-4.1,4.8-6.8,8.3-9c0.8-0.5,0.1-1.8-0.8-1.3c-3.9,2.4-7.4,5.4-9,9.9
			C178.7,173.2,180.2,173.6,180.5,172.6L180.5,172.6z"/>
	</g>
</g>
<g>
	<g>
		<path class="st3" d="M212.2,148.4c2.7-2.6,5.3-5.2,8.5-7.1c0.8-0.5,0.1-1.8-0.8-1.3c-3.3,2-6.1,4.6-8.8,7.4
			C210.4,148,211.5,149.1,212.2,148.4L212.2,148.4z"/>
	</g>
</g>
<g>
	<g>
		<path class="st3" d="M241,126.1c2.9-1.4,5.8-2,9-2.1c1,0,1-1.5,0-1.5c-3.5,0-6.7,0.8-9.8,2.3C239.3,125.2,240.1,126.5,241,126.1
			L241,126.1z"/>
	</g>
</g>
<g>
	<g>
		<path class="st3" d="M267,118.1c1.3,0.6,2.6,0.8,4,0.8c1,0,1-1.5,0-1.5c-1.1,0-2.2-0.1-3.2-0.6C266.9,116.4,266.1,117.7,267,118.1
			L267,118.1z"/>
	</g>
</g>
<g>
	<g>
		<path class="st3" d="M265.4,98.4c0.7,0.6,1.5,0.8,2.2,1.4c0.7,0.7,1.8-0.4,1.1-1.1c-0.7-0.6-1.5-0.8-2.2-1.4
			C265.7,96.7,264.7,97.8,265.4,98.4L265.4,98.4z"/>
	</g>
</g>
<g>
	<g>
		<path class="st3" d="M258.9,138.4c3.4-1.2,6.6-0.7,9.6,1.4c0.8,0.6,1.5-0.7,0.8-1.3c-3.2-2.3-7-2.9-10.7-1.5
			C257.6,137.3,258,138.8,258.9,138.4L258.9,138.4z"/>
	</g>
</g>
<g>
	<g>
		<path class="st3" d="M231,153.4c2.1-2.1,4.8-3.4,7.6-4.1c0.9-0.2,0.5-1.7-0.4-1.4c-3.1,0.8-6,2.3-8.3,4.5
			C229.2,153,230.3,154.1,231,153.4L231,153.4z"/>
	</g>
</g>
<g>
	<g>
		<path class="st3" d="M199.7,176c2.1-1.4,4.4-2.3,6.5-3.6c0.8-0.5,0.1-1.8-0.8-1.3c-2.1,1.4-4.4,2.3-6.5,3.6
			C198.1,175.2,198.9,176.5,199.7,176L199.7,176z"/>
	</g>
</g>
<g>
	<g>
		<path class="st3" d="M181.2,193.5c1.8,0,3.4-0.9,4.3-2.5c0.5-0.9-0.8-1.6-1.3-0.8c-0.6,1.1-1.7,1.8-3,1.8
			C180.3,192,180.3,193.5,181.2,193.5L181.2,193.5z"/>
	</g>
</g>
<g>
	<g>
		<path class="st3" d="M223.4,172.4c3.2-0.6,6.3-1.4,9.4-2.2c0.9-0.2,0.5-1.7-0.4-1.4c-3.1,0.8-6.3,1.5-9.4,2.2
			C222.1,171.2,222.5,172.6,223.4,172.4L223.4,172.4z"/>
	</g>
</g>
<g>
	<g>
		<path class="st3" d="M250.9,160.9c2.8-0.6,5.6-0.7,8.5-0.7c1,0,1-1.5,0-1.5c-3,0-6,0.1-8.9,0.7C249.6,159.6,250,161.1,250.9,160.9
			L250.9,160.9z"/>
	</g>
</g>
<g>
	<g>
		<path class="st3" d="M277,161.4c0.8,0.9,1.3,2,2.2,2.9c0.7,0.7,1.7-0.4,1.1-1.1c-0.8-0.9-1.3-2-2.2-2.9
			C277.4,159.6,276.3,160.7,277,161.4L277,161.4z"/>
	</g>
</g>
<g>
	<g>
		<path class="st3" d="M138.7,244.3c-2.1,2.2-3.5,4.9-5.2,7.4c-0.5,0.8,0.8,1.6,1.3,0.8c1.6-2.4,2.9-5,4.9-7.1
			C140.5,244.7,139.4,243.6,138.7,244.3L138.7,244.3z"/>
	</g>
</g>
<g>
	<g>
		<path class="st3" d="M121.1,275.2c0,1.6-0.6,3.3-1.3,4.7c-0.4,0.9,0.9,1.6,1.3,0.8c0.8-1.7,1.5-3.6,1.6-5.4
			C122.7,274.3,121.2,274.3,121.1,275.2L121.1,275.2z"/>
	</g>
</g>
<g>
	<g>
		<path class="st3" d="M117.5,304c-0.8,2.5-2,4.8-2.9,7.2c-0.3,0.9,1.1,1.3,1.4,0.4c0.9-2.5,2-4.8,2.9-7.2
			C119.3,303.5,117.9,303.1,117.5,304L117.5,304z"/>
	</g>
</g>
<g>
	<g>
		<path class="st3" d="M111,329.5c-0.1,2.8-1.3,5.3-2.8,7.6c-0.5,0.8,0.8,1.6,1.3,0.8c1.6-2.5,2.9-5.3,3-8.3
			C112.5,328.5,111,328.5,111,329.5L111,329.5z"/>
	</g>
</g>
<g>
	<g>
		<path class="st3" d="M100.2,364.6c-1.4,2.3-2.1,4.9-3,7.4c-0.3,0.9,1.1,1.3,1.4,0.4c0.8-2.4,1.4-4.9,2.8-7.1
			C102.1,364.5,100.8,363.8,100.2,364.6L100.2,364.6z"/>
	</g>
</g>
<g>
	<g>
		<path class="st3" d="M87.2,392.8c-1.4,2.7-2.9,5.2-3.7,8.1c-0.3,0.9,1.2,1.3,1.4,0.4c0.8-2.8,2.2-5.2,3.5-7.8
			C88.9,392.7,87.7,392,87.2,392.8L87.2,392.8z"/>
	</g>
</g>
<g>
	<g>
		<path class="st3" d="M87.1,420.7c0,1.4,0,2.7-0.6,4c-0.4,0.9,0.9,1.6,1.3,0.8c0.7-1.5,0.8-3.1,0.8-4.7
			C88.6,419.7,87.1,419.7,87.1,420.7L87.1,420.7z"/>
	</g>
</g>
<g>
	<g>
		<path class="st3" d="M108.9,388.7c-1.5,3.8-2.8,7.7-4.3,11.6c-0.4,0.9,1.1,1.3,1.4,0.4c1.5-3.8,2.8-7.7,4.3-11.6
			C110.7,388.2,109.2,387.8,108.9,388.7L108.9,388.7z"/>
	</g>
</g>
<g>
	<g>
		<path class="st3" d="M120.4,354.8c-0.1,2.2-0.7,4.3-1.4,6.3c-0.3,0.9,1.1,1.3,1.4,0.4c0.7-2.2,1.4-4.4,1.5-6.7
			C121.9,353.9,120.4,353.9,120.4,354.8L120.4,354.8z"/>
	</g>
</g>
<g>
	<g>
		<path class="st3" d="M128.4,380c-0.7,2.9-1.4,5.8-2.2,8.7c-0.2,0.9,1.2,1.3,1.4,0.4c0.7-2.9,1.4-5.8,2.2-8.7
			C130.1,379.4,128.6,379,128.4,380L128.4,380z"/>
	</g>
</g>
<g>
	<g>
		<path class="st3" d="M93.7,441.5c-0.6,2.4-1.4,4.8-2.2,7.2c-0.3,0.9,1.1,1.3,1.4,0.4c0.8-2.4,1.5-4.8,2.2-7.2
			C95.3,441,93.9,440.6,93.7,441.5L93.7,441.5z"/>
	</g>
</g>
<g>
	<g>
		<path class="st3" d="M116.8,414c-1.4,4.3-2.9,8.7-4.3,13c-0.3,0.9,1.1,1.3,1.4,0.4c1.4-4.3,2.9-8.7,4.3-13
			C118.6,413.5,117.1,413.1,116.8,414L116.8,414z"/>
	</g>
</g>
<g>
	<g>
		<path class="st3" d="M136.4,402.1c0.6,2.5,0.7,5.1-0.6,7.4c-0.5,0.8,0.8,1.6,1.3,0.8c1.6-2.6,1.5-5.6,0.8-8.5
			C137.6,400.7,136.1,401.1,136.4,402.1L136.4,402.1z"/>
	</g>
</g>
<g>
	<g>
		<path class="st3" d="M129.1,429.6c0.6,3.6-0.1,7.1-1.4,10.5c-0.3,0.9,1.1,1.3,1.4,0.4c1.4-3.7,2.1-7.3,1.4-11.3
			C130.4,428.2,129,428.6,129.1,429.6L129.1,429.6z"/>
	</g>
</g>
<g>
	<g>
		<path class="st3" d="M110.3,449.7c-0.1,2.9-0.7,5.7-1.4,8.5c-0.2,0.9,1.2,1.3,1.4,0.4c0.7-2.9,1.4-5.9,1.5-8.9
			C111.8,448.7,110.3,448.7,110.3,449.7L110.3,449.7z"/>
	</g>
</g>
<g>
	<g>
		<path class="st3" d="M124,467.7c0,2.2,0,4.3,0,6.5c0,1,1.5,1,1.5,0c0-2.2,0-4.3,0-6.5C125.5,466.8,124,466.8,124,467.7L124,467.7z
			"/>
	</g>
</g>
<g>
	<g>
		<path class="st3" d="M107.4,476.4c0,1,0,1.9,0,2.9c0,1,1.5,1,1.5,0c0-1,0-1.9,0-2.9C108.9,475.5,107.4,475.5,107.4,476.4
			L107.4,476.4z"/>
	</g>
</g>
<g>
	<g>
		<path class="st3" d="M148.7,425.2c0.6,2.1,0.6,4,0,6.1c-0.3,0.9,1.2,1.3,1.4,0.4c0.7-2.3,0.7-4.6,0-6.9
			C149.8,423.9,148.4,424.3,148.7,425.2L148.7,425.2z"/>
	</g>
</g>
<g>
	<g>
		<path class="st3" d="M140.7,449.7c0,3.8,0,7.6-0.7,11.4c-0.2,0.9,1.3,1.3,1.4,0.4c0.7-3.9,0.8-7.8,0.8-11.8
			C142.2,448.7,140.7,448.7,140.7,449.7L140.7,449.7z"/>
	</g>
</g>
<g>
	<g>
		<path class="st3" d="M129.9,489.1c-1.6,2.5-2.2,5.4-2.3,8.3c0,1,1.5,1,1.5,0c0-2.7,0.6-5.3,2.1-7.6
			C131.7,489,130.4,488.3,129.9,489.1L129.9,489.1z"/>
	</g>
</g>
<g>
	<g>
		<path class="st3" d="M150.1,477.9c-0.1,3.3-1.3,6.1-2.8,9c-0.4,0.9,0.9,1.6,1.3,0.8c1.6-3.1,2.9-6.2,3-9.8
			C151.6,476.9,150.1,476.9,150.1,477.9L150.1,477.9z"/>
	</g>
</g>
<g>
	<g>
		<path class="st3" d="M162.4,450.9c-0.7,2.1-0.8,4.4-1.4,6.5c-0.3,0.9,1.2,1.3,1.4,0.4c0.7-2.1,0.8-4.4,1.4-6.5
			C164.1,450.4,162.7,450,162.4,450.9L162.4,450.9z"/>
	</g>
</g>
<g>
	<g>
		<path class="st3" d="M171.3,469.4c-2.2,2.3-3.1,5.3-3.1,8.5c0,1,1.5,1,1.5,0c0-2.8,0.7-5.4,2.7-7.4
			C173,469.7,172,468.7,171.3,469.4L171.3,469.4z"/>
	</g>
</g>
<g>
	<g>
		<path class="st3" d="M176.9,454.7c1,0,1-1.5,0-1.5C175.9,453.2,175.9,454.7,176.9,454.7L176.9,454.7z"/>
	</g>
</g>
<g>
	<g>
		<path class="st3" d="M162.4,493.8c0,2.4-0.7,4.8-1.4,7c-0.3,0.9,1.1,1.3,1.4,0.4c0.8-2.4,1.4-4.9,1.5-7.4
			C163.9,492.8,162.4,492.8,162.4,493.8L162.4,493.8z"/>
	</g>
</g>
<g>
	<g>
		<path class="st3" d="M145,503.4c0.7,2.2,0.7,4.6,0,6.8c-0.3,0.9,1.2,1.3,1.4,0.4c0.8-2.5,0.8-5.2,0-7.6
			C146.2,502.1,144.8,502.5,145,503.4L145,503.4z"/>
	</g>
</g>
<g>
	<g>
		<path class="st3" d="M174.7,507.6c0,1.6,0.1,3.2-0.6,4.7c-0.4,0.9,0.9,1.6,1.3,0.8c0.8-1.7,0.8-3.6,0.8-5.4
			C176.2,506.6,174.7,506.6,174.7,507.6L174.7,507.6z"/>
	</g>
</g>
<g>
	<g>
		<path class="st3" d="M182.7,485.1c0,2.4,0,4.8,0,7.2c0,1,1.5,1,1.5,0c0-2.4,0-4.8,0-7.2C184.2,484.2,182.7,484.2,182.7,485.1
			L182.7,485.1z"/>
	</g>
</g>
<g>
	<g>
		<path class="st3" d="M190.6,464.1c0,1-0.7,1.9-0.7,2.9c0,1,1.5,1,1.5,0c0-1,0.7-1.9,0.7-2.9C192.2,463.2,190.7,463.2,190.6,464.1
			L190.6,464.1z"/>
	</g>
</g>
<g>
	<g>
		<path class="st3" d="M202.9,477.2c0,2.9,0,5.7-0.7,8.5c-0.2,0.9,1.2,1.3,1.4,0.4c0.7-2.9,0.7-5.9,0.7-8.9
			C204.4,476.2,202.9,476.2,202.9,477.2L202.9,477.2z"/>
	</g>
</g>
<g>
	<g>
		<path class="st3" d="M195.7,502.7c0.6,1.8,0.7,3.7,0.7,5.6c0,1,1.5,1,1.5,0c0-2-0.1-4-0.8-6C196.9,501.4,195.4,501.8,195.7,502.7
			L195.7,502.7z"/>
	</g>
</g>
<g>
	<g>
		<path class="st3" d="M215.2,490.9c0,2.7,0,5.3,0,8c0,1,1.5,1,1.5,0c0-2.7,0-5.3,0-8C216.7,489.9,215.2,489.9,215.2,490.9
			L215.2,490.9z"/>
	</g>
</g>
<g>
	<g>
		<path class="st3" d="M231.9,485.8c0,1.2,0,2.4,0,3.6c0,1,1.5,1,1.5,0c0-1.2,0-2.4,0-3.6C233.4,484.9,231.9,484.9,231.9,485.8
			L231.9,485.8z"/>
	</g>
</g>
<g>
	<g>
		<path class="st3" d="M229.1,504.3c0.6,1.3,0.6,2.6,0.6,4c0,1,1.5,1,1.5,0c0-1.7-0.1-3.2-0.8-4.7
			C230,502.7,228.7,503.4,229.1,504.3L229.1,504.3z"/>
	</g>
</g>
<g>
	<g>
		<path class="st3" d="M216,514.8c1,0,1-1.5,0-1.5C215,513.3,215,514.8,216,514.8L216,514.8z"/>
	</g>
</g>
<g>
	<g>
		<path class="st3" d="M98,524.9c0,2.9-0.1,5.7-1.3,8.3c-0.4,0.9,0.9,1.6,1.3,0.8c1.4-2.9,1.5-5.9,1.5-9.1C99.5,524,98,524,98,524.9
			L98,524.9z"/>
	</g>
</g>
<g>
	<g>
		<path class="st3" d="M95.1,554.6c0,1.4,0,2.9,0,4.3c0,1,1.5,1,1.5,0c0-1.4,0-2.9,0-4.3C96.6,553.6,95.1,553.6,95.1,554.6
			L95.1,554.6z"/>
	</g>
</g>
<g>
	<g>
		<path class="st3" d="M95.8,579.2c0,2.2,0,4.3,0,6.5c0,1,1.5,1,1.5,0c0-2.2,0-4.3,0-6.5C97.3,578.2,95.8,578.2,95.8,579.2
			L95.8,579.2z"/>
	</g>
</g>
<g>
	<g>
		<path class="st3" d="M106,601.1c0.9,2.4,2.3,4.6,3.7,6.7c0.5,0.8,1.8,0,1.3-0.8c-1.3-2-2.7-4-3.5-6.3
			C107.1,599.8,105.6,600.2,106,601.1L106,601.1z"/>
	</g>
</g>
<g>
	<g>
		<path class="st3" d="M126.4,618.1c2.3,2.2,5.2,3.7,8.3,4.5c0.9,0.2,1.3-1.2,0.4-1.4c-2.9-0.8-5.5-2.1-7.6-4.2
			C126.8,616.4,125.7,617.4,126.4,618.1L126.4,618.1z"/>
	</g>
</g>
<g>
	<g>
		<path class="st3" d="M153.3,626.9c1.4,0.7,2.9,1.4,4.3,2.2c0.9,0.4,1.6-0.9,0.8-1.3c-1.4-0.7-2.9-1.4-4.3-2.2
			C153.2,625.2,152.5,626.5,153.3,626.9L153.3,626.9z"/>
	</g>
</g>
<g>
	<g>
		<path class="st3" d="M178.3,635.7c3.3,0,6.6,0.1,9.9,0.7c0.9,0.2,1.3-1.3,0.4-1.4c-3.4-0.6-6.9-0.8-10.3-0.8
			C177.4,634.2,177.4,635.7,178.3,635.7L178.3,635.7z"/>
	</g>
</g>
<g>
	<g>
		<path class="st3" d="M114,540.5c-1.5,2.3-2.3,4.8-3,7.4c-0.2,0.9,1.2,1.3,1.4,0.4c0.6-2.5,1.4-4.9,2.8-7.1
			C115.8,540.4,114.5,539.7,114,540.5L114,540.5z"/>
	</g>
</g>
<g>
	<g>
		<path class="st3" d="M113.2,567.6c0,2.2,0,4.3,0,6.5c0,1,1.5,1,1.5,0c0-2.2,0-4.3,0-6.5C114.7,566.7,113.2,566.7,113.2,567.6
			L113.2,567.6z"/>
	</g>
</g>
<g>
	<g>
		<path class="st3" d="M122,592.6c0.7,1.4,1.4,2.9,2.2,4.3c0.4,0.9,1.7,0.1,1.3-0.8c-0.7-1.4-1.4-2.9-2.2-4.3
			C122.8,591,121.5,591.8,122,592.6L122,592.6z"/>
	</g>
</g>
<g>
	<g>
		<path class="st3" d="M134.9,541.4c-0.6,1.8-1.9,3.2-2.8,4.9c-0.4,0.9,0.8,1.6,1.3,0.8c0.9-1.8,2.3-3.3,3-5.2
			C136.7,540.9,135.2,540.5,134.9,541.4L134.9,541.4z"/>
	</g>
</g>
<g>
	<g>
		<path class="st3" d="M131.3,563.3c0,3.1,0,6.3,0,9.4c0,1,1.5,1,1.5,0c0-3.1,0-6.3,0-9.4C132.8,562.3,131.3,562.3,131.3,563.3
			L131.3,563.3z"/>
	</g>
</g>
<g>
	<g>
		<path class="st3" d="M137.8,590.8c0.1,3,0.7,6,1.5,8.9c0.2,0.9,1.7,0.5,1.4-0.4c-0.7-2.8-1.4-5.6-1.4-8.5
			C139.3,589.8,137.8,589.8,137.8,590.8L137.8,590.8z"/>
	</g>
</g>
<g>
	<g>
		<path class="st3" d="M153,551.9c0.6,2.6,0.7,5.1,0.7,7.8c0,1,1.5,1,1.5,0c0-2.8-0.1-5.5-0.7-8.2C154.2,550.6,152.8,551,153,551.9
			L153,551.9z"/>
	</g>
</g>
<g>
	<g>
		<path class="st3" d="M153,578.7c0.6,1.9,0.8,3.9,1.4,5.8c0.3,0.9,1.7,0.5,1.4-0.4c-0.6-1.9-0.8-3.9-1.4-5.8
			C154.2,577.4,152.7,577.8,153,578.7L153,578.7z"/>
	</g>
</g>
<g>
	<g>
		<path class="st3" d="M154.5,604.2c0.8,1.5,2.1,2.8,2.9,4.3c0.5,0.9,1.7,0.1,1.3-0.8c-0.8-1.5-2.1-2.8-2.9-4.3
			C155.4,602.6,154.1,603.3,154.5,604.2L154.5,604.2z"/>
	</g>
</g>
<g>
	<g>
		<path class="st3" d="M170.3,562.6c0,3.6,0,7.2,0,10.9c0,1,1.5,1,1.5,0c0-3.6,0-7.2,0-10.9C171.8,561.6,170.3,561.6,170.3,562.6
			L170.3,562.6z"/>
	</g>
</g>
<g>
	<g>
		<path class="st3" d="M170.4,592.6c0.8,1.7,1.3,3.5,1.3,5.4c0,1,1.5,1,1.5,0c0-2.2-0.6-4.2-1.6-6.2
			C171.3,591,170,591.8,170.4,592.6L170.4,592.6z"/>
	</g>
</g>
<g>
	<g>
		<path class="st3" d="M174.1,616.5c0.7,1.4,2,2,3,3c0.7,0.7,1.8-0.4,1.1-1.1c-1-0.9-2.1-1.5-2.8-2.7
			C174.9,614.9,173.6,615.6,174.1,616.5L174.1,616.5z"/>
	</g>
</g>
<g>
	<g>
		<path class="st3" d="M193.5,563.5c0.8,2.5,0.7,5.2,0.7,7.8c0,1,1.5,1,1.5,0c0-2.7,0.1-5.5-0.7-8.2
			C194.7,562.2,193.3,562.6,193.5,563.5L193.5,563.5z"/>
	</g>
</g>
<g>
	<g>
		<path class="st3" d="M187,584.3c0,2.9,0,5.8,0,8.7c0,1,1.5,1,1.5,0c0-2.9,0-5.8,0-8.7C188.5,583.3,187,583.3,187,584.3L187,584.3z
			"/>
	</g>
</g>
<g>
	<g>
		<path class="st3" d="M195.7,610.5c0.6,1.9,0.8,3.9,1.4,5.8c0.3,0.9,1.7,0.5,1.4-0.4c-0.6-1.9-0.8-3.9-1.4-5.8
			C196.9,609.2,195.4,609.6,195.7,610.5L195.7,610.5z"/>
	</g>
</g>
<g>
	<g>
		<path class="st3" d="M215.2,569.3c0.6,1.8,0.7,3.7,0.7,5.6c0,1,1.5,1,1.5,0c0-2-0.1-4-0.8-6C216.4,568,215,568.4,215.2,569.3
			L215.2,569.3z"/>
	</g>
</g>
<g>
	<g>
		<path class="st3" d="M210.2,591c0.6,1.8,1.4,3.6,1.4,5.6c0,1,1.5,1,1.5,0c0-2.1-0.8-4-1.5-6C211.3,589.7,209.9,590.1,210.2,591
			L210.2,591z"/>
	</g>
</g>
<g>
	<g>
		<path class="st3" d="M210.9,618.5c0.6,2.8,0.7,5.6,0.7,8.5c0,1,1.5,1,1.5,0c0-3-0.1-6-0.7-8.9
			C212.1,617.2,210.7,617.6,210.9,618.5L210.9,618.5z"/>
	</g>
</g>
<g>
	<g>
		<path class="st3" d="M208,643.8c0.7,1.9,2,3.4,3,5.2c0.4,0.9,1.7,0.1,1.3-0.8c-0.9-1.7-2.2-3.1-2.8-4.9
			C209.1,642.5,207.7,642.9,208,643.8L208,643.8z"/>
	</g>
</g>
<g>
	<g>
		<path class="st3" d="M208.7,666.3c0.6,2.1,0.7,4.2,0.7,6.3c0,1,1.5,1,1.5,0c0-2.3-0.1-4.5-0.7-6.7
			C209.9,664.9,208.4,665.3,208.7,666.3L208.7,666.3z"/>
	</g>
</g>
<g>
	<g>
		<path class="st3" d="M206.6,690.3c0.6,1.2,0.9,2.4,1.4,3.6c0.4,0.9,1.7,0.1,1.3-0.8c-0.6-1.2-0.9-2.4-1.4-3.6
			C207.5,688.7,206.2,689.5,206.6,690.3L206.6,690.3z"/>
	</g>
</g>
<g>
	<g>
		<path class="st3" d="M246.4,494c0.6,2.8,0.7,5.6,0.7,8.5c0,1,1.5,1,1.5,0c0-3-0.1-6-0.7-8.9C247.6,492.7,246.2,493.1,246.4,494
			L246.4,494z"/>
	</g>
</g>
<g>
	<g>
		<path class="st3" d="M232.6,572c1,0,1-1.5,0-1.5C231.7,570.5,231.6,572,232.6,572L232.6,572z"/>
	</g>
</g>
<g>
	<g>
		<path class="st3" d="M226.8,590.3c0.6,2.1,0.7,4.2,0.7,6.3c0,1,1.5,1,1.5,0c0-2.3-0.1-4.5-0.7-6.7
			C228,588.9,226.5,589.3,226.8,590.3L226.8,590.3z"/>
	</g>
</g>
<g>
	<g>
		<path class="st3" d="M227.6,614.9c0.6,1.8,0.7,3.7,0.7,5.6c0,1,1.5,1,1.5,0c0-2-0.1-4-0.7-6C228.7,613.6,227.3,613.9,227.6,614.9
			L227.6,614.9z"/>
	</g>
</g>
<g>
	<g>
		<path class="st3" d="M228.4,638.9c0.6,1.3,0.6,2.6,0.6,4c0,1,1.5,1,1.5,0c0-1.7-0.1-3.2-0.8-4.7
			C229.2,637.3,227.9,638.1,228.4,638.9L228.4,638.9z"/>
	</g>
</g>
<g>
	<g>
		<path class="st3" d="M228.2,663.2c0,3.3,0,6.7-0.7,9.9c-0.2,0.9,1.2,1.3,1.4,0.4c0.8-3.4,0.7-6.9,0.7-10.3
			C229.7,662.2,228.2,662.2,228.2,663.2L228.2,663.2z"/>
	</g>
</g>
<g>
	<g>
		<path class="st3" d="M228.4,694.7c0.7,1.4,0.8,2.9,1.4,4.3c0.4,0.9,1.7,0.1,1.3-0.8c-0.7-1.4-0.8-2.9-1.4-4.3
			C229.2,693,227.9,693.8,228.4,694.7L228.4,694.7z"/>
	</g>
</g>
<g>
	<g>
		<path class="st3" d="M246.4,572.5c-0.6,2.7-0.1,5.1,0.7,7.6c0.3,0.9,1.8,0.5,1.4-0.4c-0.8-2.3-1.3-4.4-0.7-6.8
			C248,572,246.6,571.6,246.4,572.5L246.4,572.5z"/>
	</g>
</g>
<g>
	<g>
		<path class="st3" d="M246.4,606.9c0.6,2.8,0.7,5.6,0.7,8.5c0,1,1.5,1,1.5,0c0-3-0.1-6-0.7-8.9C247.6,605.6,246.2,606,246.4,606.9
			L246.4,606.9z"/>
	</g>
</g>
<g>
	<g>
		<path class="st3" d="M247.1,636.4c0,2.9,0,5.8,0,8.7c0,1,1.5,1,1.5,0c0-2.9,0-5.8,0-8.7C248.6,635.4,247.1,635.4,247.1,636.4
			L247.1,636.4z"/>
	</g>
</g>
<g>
	<g>
		<path class="st3" d="M247.8,667.5c1,0,1-1.5,0-1.5C246.9,666,246.8,667.5,247.8,667.5L247.8,667.5z"/>
	</g>
</g>
<g>
	<g>
		<path class="st3" d="M246.3,664.6c0,5.1-0.1,10.2-0.7,15.2c-0.1,1,1.4,0.9,1.5,0c0.7-5,0.7-10.1,0.7-15.2
			C247.8,663.7,246.3,663.6,246.3,664.6L246.3,664.6z"/>
	</g>
</g>
<g>
	<g>
		<path class="st3" d="M245.6,697.2c0,2.4,0.7,4.8,0.7,7.2c0,1,1.5,1,1.5,0c0-2.4-0.7-4.8-0.7-7.2
			C247.1,696.2,245.6,696.2,245.6,697.2L245.6,697.2z"/>
	</g>
</g>
<g>
	<g>
		<path class="st3" d="M265.9,499.6c0,3.1,0,6.3,0,9.4c0,1,1.5,1,1.5,0c0-3.1,0-6.3,0-9.4C267.4,498.6,265.9,498.6,265.9,499.6
			L265.9,499.6z"/>
	</g>
</g>
<g>
	<g>
		<path class="st3" d="M267.3,526.4c0,3.1,0,6.3,0,9.4c0,1,1.5,1,1.5,0c0-3.1,0-6.3,0-9.4C268.8,525.4,267.3,525.4,267.3,526.4
			L267.3,526.4z"/>
	</g>
</g>
<g>
	<g>
		<path class="st3" d="M263,553.2c0,3.1,0,6.3,0,9.4c0,1,1.5,1,1.5,0c0-3.1,0-6.3,0-9.4C264.5,552.2,263,552.2,263,553.2L263,553.2z
			"/>
	</g>
</g>
<g>
	<g>
		<path class="st3" d="M263.7,583.4c-0.8,3.4-0.7,6.9-0.7,10.3c0,1,1.5,1,1.5,0c0-3.3,0-6.7,0.7-9.9
			C265.4,582.8,264,582.4,263.7,583.4L263.7,583.4z"/>
	</g>
</g>
<g>
	<g>
		<path class="st3" d="M265.9,618.3c0,2.9,0,5.7-0.7,8.5c-0.2,0.9,1.2,1.3,1.4,0.4c0.7-2.9,0.8-5.9,0.8-8.9
			C267.4,617.3,265.9,617.3,265.9,618.3L265.9,618.3z"/>
	</g>
</g>
<g>
	<g>
		<path class="st3" d="M265.2,648c0,2.9,0,5.8,0,8.7c0,1,1.5,1,1.5,0c0-2.9,0-5.8,0-8.7C266.7,647,265.2,647,265.2,648L265.2,648z"
			/>
	</g>
</g>
<g>
	<g>
		<path class="st3" d="M265.9,679.8c0,2.7,0,5.3,0,8c0,1,1.5,1,1.5,0c0-2.7,0-5.3,0-8C267.4,678.9,265.9,678.8,265.9,679.8
			L265.9,679.8z"/>
	</g>
</g>
<g>
	<g>
		<path class="st3" d="M265.9,700.4c0,0.2,0,0.5,0,0.7c0,1,1.5,1,1.5,0c0-0.2,0-0.5,0-0.7C267.4,699.5,265.9,699.5,265.9,700.4
			L265.9,700.4z"/>
	</g>
</g>
<g>
	<g>
		<path class="st3" d="M282.5,509c0,1.9,0,3.9,0,5.8c0,1,1.5,1,1.5,0c0-1.9,0-3.9,0-5.8C284,508,282.5,508,282.5,509L282.5,509z"/>
	</g>
</g>
<g>
	<g>
		<path class="st3" d="M284,541.6c0,3.2-0.7,6.3-0.7,9.4c0,1,1.5,1,1.5,0c0.1-3.2,0.7-6.3,0.7-9.4C285.5,540.6,284,540.6,284,541.6
			L284,541.6z"/>
	</g>
</g>
<g>
	<g>
		<path class="st3" d="M280.4,570c0.6,2.8,0.7,5.6,0.7,8.5c0,1,1.5,1,1.5,0c0-3-0.1-6-0.7-8.9C281.6,568.7,280.2,569.1,280.4,570
			L280.4,570z"/>
	</g>
</g>
<g>
	<g>
		<path class="st3" d="M281.1,599.3c-0.7,2.9-0.8,5.8-1.4,8.7c-0.2,0.9,1.2,1.3,1.4,0.4c0.7-2.9,0.8-5.8,1.4-8.7
			C282.8,598.7,281.3,598.3,281.1,599.3L281.1,599.3z"/>
	</g>
</g>
<g>
	<g>
		<path class="st3" d="M282.6,625.7c0.6,2.8,0,5.5-0.7,8.3c-0.2,0.9,1.2,1.3,1.4,0.4c0.8-3,1.4-6,0.7-9.1
			C283.8,624.4,282.4,624.8,282.6,625.7L282.6,625.7z"/>
	</g>
</g>
<g>
	<g>
		<path class="st3" d="M283.3,658.1c0,2.9,0,5.7-0.7,8.5c-0.2,0.9,1.2,1.3,1.4,0.4c0.7-2.9,0.7-5.9,0.7-8.9
			C284.8,657.1,283.3,657.1,283.3,658.1L283.3,658.1z"/>
	</g>
</g>
<g>
	<g>
		<path class="st3" d="M283.3,689.9c0,2.6,0.1,5.3-0.7,7.8c-0.3,0.9,1.2,1.3,1.4,0.4c0.8-2.6,0.7-5.4,0.7-8.2
			C284.8,689,283.3,689,283.3,689.9L283.3,689.9z"/>
	</g>
</g>
<g>
	<g>
		<path class="st3" d="M321.1,61.1c4.5,0.8,8.9,2,12.8,4.3c0.8,0.5,1.6-0.8,0.8-1.3c-4.1-2.3-8.6-3.6-13.2-4.4
			C320.5,59.5,320.1,60.9,321.1,61.1L321.1,61.1z"/>
	</g>
</g>
<g>
	<g>
		<path class="st3" d="M350,72.7c3.8,0.8,7.3,2.3,10.7,4.3c0.8,0.5,1.6-0.8,0.8-1.3c-3.5-2-7.1-3.6-11-4.4
			C349.5,71,349.1,72.5,350,72.7L350,72.7z"/>
	</g>
</g>
<g>
	<g>
		<path class="st3" d="M377.2,87.7c1.2,1.2,2.4,2.4,3.6,3.6c0.7,0.7,1.7-0.4,1.1-1.1c-1.2-1.2-2.4-2.4-3.6-3.6
			C377.6,86,376.5,87,377.2,87.7L377.2,87.7z"/>
	</g>
</g>
<g>
	<g>
		<path class="st3" d="M320.3,84.3c3.5,1.4,7.2,2.2,10.9,2.9c0.9,0.2,1.3-1.3,0.4-1.4c-3.7-0.7-7.3-1.5-10.9-2.9
			C319.8,82.5,319.4,83.9,320.3,84.3L320.3,84.3z"/>
	</g>
</g>
<g>
	<g>
		<path class="st3" d="M352,94.3c2.7,1.4,4.9,3.5,7.1,5.7c0.7,0.7,1.7-0.4,1.1-1.1c-2.3-2.2-4.5-4.4-7.4-5.9
			C351.9,92.6,351.1,93.9,352,94.3L352,94.3z"/>
	</g>
</g>
<g>
	<g>
		<path class="st3" d="M530.7,503.9c-0.7,2.3-0.7,4.6,0,6.9c0.3,0.9,1.7,0.5,1.4-0.4c-0.6-2.1-0.6-4,0-6.1
			C532.4,503.4,531,503,530.7,503.9L530.7,503.9z"/>
	</g>
</g>
<g>
	<g>
		<path class="st3" d="M536.3,529c0.7,1.4,0.6,3.1,0.6,4.7c0,1,1.5,1,1.5,0c0-1.9,0-3.7-0.8-5.4C537.2,527.4,535.9,528.2,536.3,529
			L536.3,529z"/>
	</g>
</g>
<g>
	<g>
		<path class="st3" d="M538.5,563.8c-0.7,1.5-0.8,3.1-0.8,4.7c0,1,1.5,1,1.5,0c0-1.4,0-2.7,0.6-4
			C540.2,563.7,538.9,562.9,538.5,563.8L538.5,563.8z"/>
	</g>
</g>
<g>
	<g>
		<path class="st3" d="M541.4,586.2c-0.8,1.7-0.8,3.6-0.8,5.4c0,1,1.5,1,1.5,0c0-1.6,0-3.2,0.6-4.7
			C543.1,586.1,541.8,585.4,541.4,586.2L541.4,586.2z"/>
	</g>
</g>
<g>
	<g>
		<path class="st3" d="M536.4,617.2c-1.4,1.5-2.1,3.4-3,5.2c-0.4,0.9,0.9,1.6,1.3,0.8c0.8-1.7,1.5-3.5,2.8-4.9
			C538.2,617.6,537.1,616.5,536.4,617.2L536.4,617.2z"/>
	</g>
</g>
<g>
	<g>
		<path class="st3" d="M524.1,638.2c-1.3,1.3-2.2,2.8-3,4.5c-0.4,0.9,0.9,1.6,1.3,0.8c0.8-1.5,1.6-3,2.8-4.2
			C525.9,638.6,524.8,637.5,524.1,638.2L524.1,638.2z"/>
	</g>
</g>
<g>
	<g>
		<path class="st3" d="M513.4,657.6c-2.1,1.5-3.7,3.6-5.8,5.1c-0.8,0.5,0,1.8,0.8,1.3c2.1-1.5,3.7-3.6,5.8-5.1
			C515,658.4,514.2,657.1,513.4,657.6L513.4,657.6z"/>
	</g>
</g>
<g>
	<g>
		<path class="st3" d="M489.3,670.9c-1.2,2.4-2.6,4.7-5.3,5.4c-0.9,0.3-0.5,1.7,0.4,1.4c3.1-0.9,4.8-3.4,6.2-6.1
			C491,670.8,489.7,670.1,489.3,670.9L489.3,670.9z"/>
	</g>
</g>
<g>
	<g>
		<path class="st3" d="M464.4,682.9c-2,0.6-4.1,0.7-6,1.5c-0.9,0.4-0.1,1.7,0.8,1.3c1.7-0.8,3.8-0.8,5.6-1.4
			C465.7,684,465.3,682.6,464.4,682.9L464.4,682.9z"/>
	</g>
</g>
<g>
	<g>
		<path class="st3" d="M431.1,691.6c-2,0.7-3.8,1.5-5.8,2.2c-0.9,0.3-0.5,1.8,0.4,1.4c2-0.7,3.8-1.5,5.8-2.2
			C432.4,692.7,432,691.2,431.1,691.6L431.1,691.6z"/>
	</g>
</g>
<g>
	<g>
		<path class="st3" d="M518.8,521.4c0,1.7,0.7,3.4,0.7,5.1c0,1,1.5,1,1.5,0c0-1.7-0.7-3.3-0.7-5.1
			C520.3,520.5,518.8,520.5,518.8,521.4L518.8,521.4z"/>
	</g>
</g>
<g>
	<g>
		<path class="st3" d="M522.5,545.4c0,2.2,0,4.3,0,6.5c0,1,1.5,1,1.5,0c0-2.2,0-4.3,0-6.5C524,544.4,522.5,544.4,522.5,545.4
			L522.5,545.4z"/>
	</g>
</g>
<g>
	<g>
		<path class="st3" d="M524.6,575.8c0,1.7,0,3.4,0,5.1c0,1,1.5,1,1.5,0c0-1.7,0-3.4,0-5.1C526.1,574.8,524.6,574.8,524.6,575.8
			L524.6,575.8z"/>
	</g>
</g>
<g>
	<g>
		<path class="st3" d="M523.9,601.1c0,1.9,0,3.9,0,5.8c0,1,1.5,1,1.5,0c0-1.9,0-3.9,0-5.8C525.4,600.1,523.9,600.1,523.9,601.1
			L523.9,601.1z"/>
	</g>
</g>
<g>
	<g>
		<path class="st3" d="M513.1,623.5c0,1.1-0.5,2.3-1.2,3.1c-0.7,0.7,0.4,1.8,1.1,1.1c1.1-1.1,1.6-2.6,1.7-4.2
			C514.6,622.6,513.1,622.6,513.1,623.5L513.1,623.5z"/>
	</g>
</g>
<g>
	<g>
		<path class="st3" d="M499.5,644c-1.2,1.2-2.4,2.4-3.6,3.6c-0.7,0.7,0.4,1.7,1.1,1.1c1.2-1.2,2.4-2.4,3.6-3.6
			C501.3,644.4,500.2,643.3,499.5,644L499.5,644z"/>
	</g>
</g>
<g>
	<g>
		<path class="st3" d="M483.5,652.8c-1.8,2.4-3.8,4.6-6.8,5.4c-0.9,0.3-0.5,1.7,0.4,1.4c3.3-0.9,5.7-3.5,7.7-6.1
			C485.4,652.8,484.1,652.1,483.5,652.8L483.5,652.8z"/>
	</g>
</g>
<g>
	<g>
		<path class="st3" d="M453.2,665.7c-1.2,1.1-2.8,1.4-4.2,2.1c-0.9,0.4-0.1,1.7,0.8,1.3c1.6-0.8,3.2-1,4.5-2.3
			C455,666.1,453.9,665,453.2,665.7L453.2,665.7z"/>
	</g>
</g>
<g>
	<g>
		<path class="st3" d="M432.8,676.3c-2.2,0-4.3,0-6.5,0c-1,0-1,1.5,0,1.5c2.2,0,4.3,0,6.5,0C433.7,677.8,433.7,676.3,432.8,676.3
			L432.8,676.3z"/>
	</g>
</g>
<g>
	<g>
		<path class="st3" d="M401.3,685.8c-1.6,0.7-3.5,0.7-5.1,1.5c-0.9,0.4-0.1,1.7,0.8,1.3c1.6-0.7,3.4-0.7,5.1-1.5
			C402.9,686.7,402.1,685.4,401.3,685.8L401.3,685.8z"/>
	</g>
</g>
<g>
	<g>
		<path class="st3" d="M505.1,549.2c0.6,1.9,0.7,3.7,0.7,5.6c0,1,1.5,1,1.5,0c0-2.1-0.1-4-0.7-6
			C506.3,547.9,504.8,548.3,505.1,549.2L505.1,549.2z"/>
	</g>
</g>
<g>
	<g>
		<path class="st3" d="M506.6,571.4c0,1.9,0,3.9,0,5.8c0,1,1.5,1,1.5,0c0-1.9,0-3.9,0-5.8C508.1,570.4,506.6,570.4,506.6,571.4
			L506.6,571.4z"/>
	</g>
</g>
<g>
	<g>
		<path class="st3" d="M506.6,593.7c-0.7,2.2-0.8,4.4-0.8,6.7c0,1,1.5,1,1.5,0c0-2.1,0.1-4.2,0.7-6.3
			C508.3,593.1,506.9,592.7,506.6,593.7L506.6,593.7z"/>
	</g>
</g>
<g>
	<g>
		<path class="st3" d="M494.3,617.5c-0.8,2.2-2.1,4.3-2.2,6.7c0,1,1.5,1,1.5,0c0.1-2.2,1.4-4.2,2.1-6.3
			C496,617,494.6,616.6,494.3,617.5L494.3,617.5z"/>
	</g>
</g>
<g>
	<g>
		<path class="st3" d="M472.8,635.3c-2.2,2.2-4.3,4.3-6.5,6.5c-0.7,0.7,0.4,1.7,1.1,1.1c2.2-2.2,4.3-4.3,6.5-6.5
			C474.5,635.7,473.4,634.6,472.8,635.3L472.8,635.3z"/>
	</g>
</g>
<g>
	<g>
		<path class="st3" d="M446,647.6c-0.9,0.8-2,1.3-2.9,2.2c-0.7,0.7,0.4,1.7,1.1,1.1c0.9-0.8,2-1.3,2.9-2.2
			C447.7,648,446.7,646.9,446,647.6L446,647.6z"/>
	</g>
</g>
<g>
	<g>
		<path class="st3" d="M427.3,655.4c-3.1,1.5-6.4,2-9.8,2.1c-1,0-1,1.5,0,1.5c3.6,0,7.2-0.7,10.5-2.3
			C428.9,656.3,428.2,655,427.3,655.4L427.3,655.4z"/>
	</g>
</g>
<g>
	<g>
		<path class="st3" d="M400.5,662c-2.7,1.3-5.6,1.4-8.5,2.1c-0.9,0.2-0.5,1.7,0.4,1.4c3-0.7,6-0.9,8.9-2.2
			C402.2,662.8,401.4,661.6,400.5,662L400.5,662z"/>
	</g>
</g>
<g>
	<g>
		<path class="st3" d="M508.6,387.9c-0.7-1.4-0.8-2.9-1.4-4.3c-0.4-0.9-1.7-0.1-1.3,0.8c0.7,1.4,0.8,2.9,1.4,4.3
			C507.7,389.5,509,388.7,508.6,387.9L508.6,387.9z"/>
	</g>
</g>
<g>
	<g>
		<path class="st3" d="M502.2,363.4c-0.8-3.6-2.1-7-3.7-10.3c-0.4-0.9-1.7-0.1-1.3,0.8c1.6,3.2,2.8,6.5,3.5,10
			C501,364.8,502.4,364.4,502.2,363.4L502.2,363.4z"/>
	</g>
</g>
<g>
	<g>
		<path class="st3" d="M490.5,326.4c-0.7-1.6-0.7-3.4-1.4-5.1c-0.4-0.9-1.7-0.1-1.3,0.8c0.7,1.6,0.7,3.4,1.4,5.1
			C489.6,328,490.9,327.2,490.5,326.4L490.5,326.4z"/>
	</g>
</g>
<g>
	<g>
		<path class="st3" d="M481.9,300.5c-1.3-3.8-2.8-7.6-3.6-11.6c-0.2-0.9-1.6-0.5-1.4,0.4c0.8,4,2.3,7.7,3.6,11.6
			C480.8,301.8,482.2,301.4,481.9,300.5L481.9,300.5z"/>
	</g>
</g>
<g>
	<g>
		<path class="st3" d="M469.3,266c-1.7-1.2-2.6-2.7-3.3-4.6c-0.3-0.9-1.8-0.5-1.4,0.4c0.8,2.3,1.9,4.1,4,5.5
			C469.3,267.9,470.1,266.6,469.3,266L469.3,266z"/>
	</g>
</g>
<g>
	<g>
		<path class="st3" d="M460.6,237.1c-2-1.4-3.8-3-5.8-4.3c-0.8-0.5-1.6,0.8-0.8,1.3c2,1.4,3.8,3,5.8,4.3
			C460.6,238.9,461.4,237.6,460.6,237.1L460.6,237.1z"/>
	</g>
</g>
<g>
	<g>
		<path class="st3" d="M447,206.1c-2.3-2.4-4-5.1-4.9-8.4c-0.2-0.9-1.7-0.5-1.4,0.4c0.9,3.5,2.8,6.4,5.3,9
			C446.6,207.8,447.7,206.7,447,206.1L447,206.1z"/>
	</g>
</g>
<g>
	<g>
		<path class="st3" d="M429.1,176.7c-0.7-2.3-0.7-4.7-0.7-7c0-1-1.5-1-1.5,0c0,2.5,0,5,0.7,7.4C427.9,178,429.4,177.6,429.1,176.7
			L429.1,176.7z"/>
	</g>
</g>
<g>
	<g>
		<path class="st3" d="M341,106.7c-2.6-0.6-5.4-0.7-8-1.4c-0.9-0.3-1.3,1.2-0.4,1.4c2.6,0.8,5.3,0.8,8,1.4
			C341.5,108.4,341.9,106.9,341,106.7L341,106.7z"/>
	</g>
</g>
<g>
	<g>
		<path class="st3" d="M370.8,127.8c-3.4-2.1-6.6-4.3-10.3-5.9c-0.9-0.4-1.3,1.1-0.4,1.4c3.5,1.5,6.7,3.7,10,5.7
			C370.9,129.6,371.7,128.3,370.8,127.8L370.8,127.8z"/>
	</g>
</g>
<g>
	<g>
		<path class="st3" d="M392.6,148c-2.6-1.4-4.8-3.4-7.2-5.1c-0.8-0.5-1.6,0.8-0.8,1.3c2.4,1.7,4.6,3.7,7.2,5.1
			C392.7,149.8,393.4,148.5,392.6,148L392.6,148z"/>
	</g>
</g>
<g>
	<g>
		<path class="st3" d="M426.1,200.4c-2.1-2.8-4.9-4.9-7.4-7.4c-0.7-0.7-1.7,0.4-1.1,1.1c2.4,2.4,5.1,4.4,7.1,7.1
			C425.4,201.9,426.7,201.2,426.1,200.4L426.1,200.4z"/>
	</g>
</g>
<g>
	<g>
		<path class="st3" d="M428.4,224.3c0.7,1.4,1.4,2.9,2.2,4.3c0.4,0.9,1.7,0.1,1.3-0.8c-0.7-1.4-1.4-2.9-2.2-4.3
			C429.3,222.7,428,223.5,428.4,224.3L428.4,224.3z"/>
	</g>
</g>
<g>
	<g>
		<path class="st3" d="M404.5,177.4c-1.6-4.4-5.1-7.5-9-9.9c-0.8-0.5-1.6,0.8-0.8,1.3c3.6,2.2,6.9,4.9,8.3,9
			C403.4,178.7,404.8,178.3,404.5,177.4L404.5,177.4z"/>
	</g>
</g>
<g>
	<g>
		<path class="st3" d="M372.4,152.5c-2.7-2.7-5.5-5.3-8.8-7.4c-0.8-0.5-1.6,0.8-0.8,1.3c3.2,2,5.9,4.5,8.5,7.1
			C372.1,154.2,373.1,153.2,372.4,152.5L372.4,152.5z"/>
	</g>
</g>
<g>
	<g>
		<path class="st3" d="M343.3,129.9c-3.1-1.5-6.3-2.2-9.8-2.3c-1,0-1,1.5,0,1.5c3.2,0,6.2,0.7,9,2.1
			C343.5,131.7,344.2,130.4,343.3,129.9L343.3,129.9z"/>
	</g>
</g>
<g>
	<g>
		<path class="st3" d="M315.8,122c-1,0.5-2.1,0.6-3.2,0.6c-1,0-1,1.5,0,1.5c1.4,0,2.7-0.2,4-0.8C317.4,122.9,316.7,121.6,315.8,122
			L315.8,122z"/>
	</g>
</g>
<g>
	<g>
		<path class="st3" d="M317.1,102.6c-0.6,0.6-1.5,0.8-2.2,1.4c-0.7,0.7,0.4,1.7,1.1,1.1c0.6-0.6,1.5-0.8,2.2-1.4
			C318.9,103,317.8,101.9,317.1,102.6L317.1,102.6z"/>
	</g>
</g>
<g>
	<g>
		<path class="st3" d="M325.1,142.2c-3.7-1.4-7.5-0.8-10.7,1.5c-0.8,0.6,0,1.9,0.8,1.3c2.9-2.1,6.2-2.6,9.6-1.4
			C325.6,143.9,326,142.5,325.1,142.2L325.1,142.2z"/>
	</g>
</g>
<g>
	<g>
		<path class="st3" d="M353.6,157.6c-2.3-2.2-5.2-3.7-8.3-4.5c-0.9-0.2-1.3,1.2-0.4,1.4c2.9,0.8,5.5,2.1,7.6,4.1
			C353.3,159.3,354.3,158.2,353.6,157.6L353.6,157.6z"/>
	</g>
</g>
<g>
	<g>
		<path class="st3" d="M402.3,197.2c-1.3,0-2.4-0.7-3-1.8c-0.5-0.9-1.8-0.1-1.3,0.8c0.9,1.6,2.5,2.5,4.3,2.5
			C403.3,198.7,403.3,197.2,402.3,197.2L402.3,197.2z"/>
	</g>
</g>
<g>
	<g>
		<path class="st3" d="M333,164.6c-2.9-0.7-5.9-0.7-8.9-0.7c-1,0-1,1.5,0,1.5c2.9,0,5.7,0,8.5,0.7C333.6,166.3,334,164.8,333,164.6
			L333,164.6z"/>
	</g>
</g>
<g>
	<g>
		<path class="st3" d="M305.5,165.5c-0.8,0.9-1.3,2-2.2,2.9c-0.7,0.7,0.4,1.8,1.1,1.1c0.8-0.9,1.3-2,2.2-2.9
			C307.2,165.9,306.2,164.8,305.5,165.5L305.5,165.5z"/>
	</g>
</g>
<g>
	<g>
		<path class="st3" d="M443.8,250.5c2,2.1,3.4,4.7,4.9,7.1c0.5,0.8,1.8,0.1,1.3-0.8c-1.7-2.5-3.1-5.2-5.2-7.4
			C444.2,248.8,443.1,249.8,443.8,250.5L443.8,250.5z"/>
	</g>
</g>
<g>
	<g>
		<path class="st3" d="M460.9,280.4c0.1,1.9,0.7,3.8,1.6,5.4c0.4,0.9,1.7,0.1,1.3-0.8c-0.7-1.4-1.3-3.1-1.3-4.7
			C462.4,279.4,460.9,279.4,460.9,280.4L460.9,280.4z"/>
	</g>
</g>
<g>
	<g>
		<path class="st3" d="M464.6,309.6c0.8,2.5,2,4.8,2.9,7.2c0.3,0.9,1.8,0.5,1.4-0.4c-0.9-2.5-2-4.8-2.9-7.2
			C465.7,308.3,464.2,308.6,464.6,309.6L464.6,309.6z"/>
	</g>
</g>
<g>
	<g>
		<path class="st3" d="M471,334.7c0.1,3.1,1.4,5.8,3,8.3c0.5,0.8,1.8,0.1,1.3-0.8c-1.5-2.3-2.7-4.8-2.8-7.6
			C472.5,333.7,471,333.7,471,334.7L471,334.7z"/>
	</g>
</g>
<g>
	<g>
		<path class="st3" d="M482,370.5c1.4,2.2,2,4.6,2.8,7.1c0.3,0.9,1.7,0.5,1.4-0.4c-0.8-2.5-1.5-5.1-3-7.4
			C482.8,369,481.5,369.7,482,370.5L482,370.5z"/>
	</g>
</g>
<g>
	<g>
		<path class="st3" d="M495,398.8c1.3,2.6,2.8,5,3.5,7.8c0.3,0.9,1.7,0.5,1.4-0.4c-0.8-2.9-2.3-5.5-3.7-8.1
			C495.9,397.1,494.6,397.9,495,398.8L495,398.8z"/>
	</g>
</g>
<g>
	<g>
		<path class="st3" d="M494.9,425.9c0,1.7,0.1,3.2,0.8,4.7c0.4,0.9,1.7,0.1,1.3-0.8c-0.6-1.3-0.6-2.6-0.6-4
			C496.4,424.9,494.9,424.9,494.9,425.9L494.9,425.9z"/>
	</g>
</g>
<g>
	<g>
		<path class="st3" d="M473.2,394.2c1.5,3.8,2.8,7.7,4.3,11.6c0.4,0.9,1.8,0.5,1.4-0.4c-1.5-3.8-2.8-7.7-4.3-11.6
			C474.3,393,472.9,393.3,473.2,394.2L473.2,394.2z"/>
	</g>
</g>
<g>
	<g>
		<path class="st3" d="M461.6,360c0.1,2.3,0.7,4.5,1.5,6.7c0.3,0.9,1.8,0.5,1.4-0.4c-0.7-2.1-1.4-4.1-1.4-6.3
			C463.1,359.1,461.6,359.1,461.6,360L461.6,360z"/>
	</g>
</g>
<g>
	<g>
		<path class="st3" d="M453.7,385.6c0.7,2.9,1.4,5.8,2.2,8.7c0.2,0.9,1.7,0.5,1.4-0.4c-0.7-2.9-1.4-5.8-2.2-8.7
			C454.9,384.2,453.5,384.6,453.7,385.6L453.7,385.6z"/>
	</g>
</g>
<g>
	<g>
		<path class="st3" d="M488.4,447.1c0.6,2.4,1.4,4.8,2.2,7.2c0.3,0.9,1.8,0.5,1.4-0.4c-0.8-2.4-1.5-4.8-2.2-7.2
			C489.7,445.7,488.2,446.1,488.4,447.1L488.4,447.1z"/>
	</g>
</g>
<g>
	<g>
		<path class="st3" d="M465.3,419.6c1.4,4.3,2.9,8.7,4.3,13c0.3,0.9,1.8,0.5,1.4-0.4c-1.4-4.3-2.9-8.7-4.3-13
			C466.4,418.3,465,418.7,465.3,419.6L465.3,419.6z"/>
	</g>
</g>
<g>
	<g>
		<path class="st3" d="M453,434.4c-0.7,3.9,0,7.6,1.4,11.3c0.3,0.9,1.8,0.5,1.4-0.4c-1.3-3.4-2.1-6.8-1.4-10.5
			C454.6,433.8,453.1,433.4,453,434.4L453,434.4z"/>
	</g>
</g>
<g>
	<g>
		<path class="st3" d="M471.8,454.8c0.1,3,0.7,6,1.5,8.9c0.2,0.9,1.7,0.5,1.4-0.4c-0.7-2.8-1.4-5.6-1.4-8.5
			C473.3,453.9,471.8,453.9,471.8,454.8L471.8,454.8z"/>
	</g>
</g>
<g>
	<g>
		<path class="st3" d="M458,472.9c0,2.2,0,4.3,0,6.5c0,1,1.5,1,1.5,0c0-2.2,0-4.3,0-6.5C459.5,472,458,472,458,472.9L458,472.9z"/>
	</g>
</g>
<g>
	<g>
		<path class="st3" d="M474.7,481.6c0,1,0,1.9,0,2.9c0,1,1.5,1,1.5,0c0-1,0-1.9,0-2.9C476.2,480.7,474.7,480.7,474.7,481.6
			L474.7,481.6z"/>
	</g>
</g>
<g>
	<g>
		<path class="st3" d="M441.4,454.8c0,3.9,0,7.9,0.8,11.8c0.2,0.9,1.6,0.5,1.4-0.4c-0.7-3.8-0.7-7.6-0.7-11.4
			C442.9,453.9,441.4,453.9,441.4,454.8L441.4,454.8z"/>
	</g>
</g>
<g>
	<g>
		<path class="st3" d="M433.4,480.5c0.1,3.6,1.4,6.7,3,9.8c0.4,0.9,1.7,0.1,1.3-0.8c-1.4-2.9-2.7-5.7-2.8-9
			C434.9,479.6,433.4,479.6,433.4,480.5L433.4,480.5z"/>
	</g>
</g>
<g>
	<g>
		<path class="st3" d="M419.7,456.5c0.7,2.1,0.8,4.4,1.4,6.5c0.3,0.9,1.7,0.5,1.4-0.4c-0.7-2.1-0.8-4.4-1.4-6.5
			C420.8,455.2,419.4,455.6,419.7,456.5L419.7,456.5z"/>
	</g>
</g>
<g>
	<g>
		<path class="st3" d="M411.2,475.6c2,2.1,2.6,4.6,2.7,7.4c0,1,1.5,1,1.5,0c0-3.2-0.9-6.1-3.1-8.5
			C411.6,473.9,410.5,474.9,411.2,475.6L411.2,475.6z"/>
	</g>
</g>
<g>
	<g>
		<path class="st3" d="M419.7,499c0.1,2.5,0.7,5,1.5,7.4c0.3,0.9,1.7,0.5,1.4-0.4c-0.7-2.3-1.4-4.6-1.4-7
			C421.1,498,419.6,498,419.7,499L419.7,499z"/>
	</g>
</g>
<g>
	<g>
		<path class="st3" d="M407.4,512.7c0,1.9,0,3.7,0.8,5.4c0.4,0.9,1.7,0.1,1.3-0.8c-0.7-1.5-0.6-3.1-0.6-4.7
			C408.9,511.8,407.4,511.8,407.4,512.7L407.4,512.7z"/>
	</g>
</g>
<g>
	<g>
		<path class="st3" d="M399.4,490.3c0,2.4,0,4.8,0,7.2c0,1,1.5,1,1.5,0c0-2.4,0-4.8,0-7.2C400.9,489.3,399.4,489.3,399.4,490.3
			L399.4,490.3z"/>
	</g>
</g>
<g>
	<g>
		<path class="st3" d="M382.4,483.4c0,3,0.1,6,0.7,8.9c0.2,0.9,1.7,0.5,1.4-0.4c-0.6-2.8-0.7-5.6-0.7-8.5
			C383.9,482.5,382.4,482.5,382.4,483.4L382.4,483.4z"/>
	</g>
</g>
<g>
	<g>
		<path class="st3" d="M386.4,507.5c-0.6,2-0.8,4-0.8,6c0,1,1.5,1,1.5,0c0-1.9,0.1-3.8,0.7-5.6C388.1,507,386.7,506.6,386.4,507.5
			L386.4,507.5z"/>
	</g>
</g>
<g>
	<g>
		<path class="st3" d="M366.8,496.1c0,2.7,0,5.3,0,8c0,1,1.5,1,1.5,0c0-2.7,0-5.3,0-8C368.3,495.1,366.8,495.1,366.8,496.1
			L366.8,496.1z"/>
	</g>
</g>
<g>
	<g>
		<path class="st3" d="M350.2,491c0,1.2,0,2.4,0,3.6c0,1,1.5,1,1.5,0c0-1.2,0-2.4,0-3.6C351.7,490.1,350.2,490.1,350.2,491
			L350.2,491z"/>
	</g>
</g>
<g>
	<g>
		<path class="st3" d="M353.2,508.7c-0.7,1.5-0.8,3.1-0.8,4.7c0,1,1.5,1,1.5,0c0-1.4,0-2.7,0.6-4
			C354.9,508.6,353.6,507.9,353.2,508.7L353.2,508.7z"/>
	</g>
</g>
<g>
	<g>
		<path class="st3" d="M367.6,520c1,0,1-1.5,0-1.5C366.6,518.5,366.6,520,367.6,520L367.6,520z"/>
	</g>
</g>
<g>
	<g>
		<path class="st3" d="M484.1,530.1c0,3.2,0.2,6.1,1.5,9.1c0.4,0.9,1.7,0.1,1.3-0.8c-1.2-2.6-1.3-5.4-1.3-8.3
			C485.6,529.2,484.1,529.1,484.1,530.1L484.1,530.1z"/>
	</g>
</g>
<g>
	<g>
		<path class="st3" d="M489.9,562.7c0,1.4,0,2.9,0,4.3c0,1,1.5,1,1.5,0c0-1.4,0-2.9,0-4.3C491.4,561.8,489.9,561.8,489.9,562.7
			L489.9,562.7z"/>
	</g>
</g>
<g>
	<g>
		<path class="st3" d="M489.2,587.3c0,2.2,0,4.3,0,6.5c0,1,1.5,1,1.5,0c0-2.2,0-4.3,0-6.5C490.7,586.4,489.2,586.4,489.2,587.3
			L489.2,587.3z"/>
	</g>
</g>
<g>
	<g>
		<path class="st3" d="M479.1,608.8c-0.8,2.3-2.2,4.3-3.5,6.3c-0.5,0.8,0.8,1.6,1.3,0.8c1.4-2.1,2.8-4.3,3.7-6.7
			C480.8,608.3,479.4,607.9,479.1,608.8L479.1,608.8z"/>
	</g>
</g>
<g>
	<g>
		<path class="st3" d="M459,625.2c-2.1,2.1-4.8,3.4-7.6,4.2c-0.9,0.2-0.5,1.7,0.4,1.4c3.1-0.8,6-2.3,8.3-4.5
			C460.8,625.6,459.7,624.5,459,625.2L459,625.2z"/>
	</g>
</g>
<g>
	<g>
		<path class="st3" d="M432.4,633.7c-1.4,0.7-2.9,1.4-4.3,2.2c-0.9,0.4-0.1,1.7,0.8,1.3c1.4-0.7,2.9-1.4,4.3-2.2
			C434,634.6,433.2,633.3,432.4,633.7L432.4,633.7z"/>
	</g>
</g>
<g>
	<g>
		<path class="st3" d="M408.1,642.3c-3.5,0-6.9,0.1-10.3,0.8c-0.9,0.2-0.5,1.6,0.4,1.4c3.3-0.6,6.6-0.7,9.9-0.7
			C409.1,643.8,409.1,642.3,408.1,642.3L408.1,642.3z"/>
	</g>
</g>
<g>
	<g>
		<path class="st3" d="M471.2,549.4c1.4,2.2,2.2,4.6,2.8,7.1c0.2,0.9,1.7,0.5,1.4-0.4c-0.7-2.6-1.5-5.1-3-7.4
			C472,547.8,470.7,548.5,471.2,549.4L471.2,549.4z"/>
	</g>
</g>
<g>
	<g>
		<path class="st3" d="M471.8,575.8c0,2.2,0,4.3,0,6.5c0,1,1.5,1,1.5,0c0-2.2,0-4.3,0-6.5C473.3,574.8,471.8,574.8,471.8,575.8
			L471.8,575.8z"/>
	</g>
</g>
<g>
	<g>
		<path class="st3" d="M463.2,600c-0.7,1.4-1.4,2.9-2.2,4.3c-0.4,0.9,0.9,1.6,1.3,0.8c0.7-1.4,1.4-2.9,2.2-4.3
			C465,599.9,463.7,599.1,463.2,600L463.2,600z"/>
	</g>
</g>
<g>
	<g>
		<path class="st3" d="M450.1,549.9c0.7,1.9,2,3.4,3,5.2c0.4,0.9,1.7,0.1,1.3-0.8c-0.9-1.7-2.2-3.1-2.8-4.9
			C451.3,548.6,449.8,549,450.1,549.9L450.1,549.9z"/>
	</g>
</g>
<g>
	<g>
		<path class="st3" d="M453.7,571.4c0,3.1,0,6.3,0,9.4c0,1,1.5,1,1.5,0c0-3.1,0-6.3,0-9.4C455.2,570.4,453.7,570.4,453.7,571.4
			L453.7,571.4z"/>
	</g>
</g>
<g>
	<g>
		<path class="st3" d="M447.2,598.9c-0.1,2.9-0.7,5.7-1.4,8.5c-0.2,0.9,1.2,1.3,1.4,0.4c0.7-2.9,1.4-5.9,1.5-8.9
			C448.7,598,447.2,598,447.2,598.9L447.2,598.9z"/>
	</g>
</g>
<g>
	<g>
		<path class="st3" d="M432,559.6c-0.6,2.7-0.7,5.4-0.7,8.2c0,1,1.5,1,1.5,0c0-2.6,0.1-5.2,0.7-7.8
			C433.7,559.1,432.3,558.7,432,559.6L432,559.6z"/>
	</g>
</g>
<g>
	<g>
		<path class="st3" d="M432,586.4c-0.6,1.9-0.8,3.9-1.4,5.8c-0.3,0.9,1.2,1.3,1.4,0.4c0.6-1.9,0.8-3.9,1.4-5.8
			C433.8,585.9,432.3,585.5,432,586.4L432,586.4z"/>
	</g>
</g>
<g>
	<g>
		<path class="st3" d="M430.7,611.6c-0.8,1.5-2.1,2.8-2.9,4.3c-0.4,0.9,0.8,1.6,1.3,0.8c0.8-1.5,2.1-2.8,2.9-4.3
			C432.4,611.5,431.1,610.7,430.7,611.6L430.7,611.6z"/>
	</g>
</g>
<g>
	<g>
		<path class="st3" d="M414.6,570.7c0,3.6,0,7.2,0,10.9c0,1,1.5,1,1.5,0c0-3.6,0-7.2,0-10.9C416.1,569.7,414.6,569.7,414.6,570.7
			L414.6,570.7z"/>
	</g>
</g>
<g>
	<g>
		<path class="st3" d="M414.7,600c-0.9,1.9-1.5,4-1.6,6.2c0,1,1.5,1,1.5,0c0-1.9,0.5-3.7,1.3-5.4C416.5,599.9,415.2,599.1,414.7,600
			L414.7,600z"/>
	</g>
</g>
<g>
	<g>
		<path class="st3" d="M411.1,623.9c-0.6,1.2-1.8,1.8-2.8,2.7c-0.7,0.7,0.4,1.7,1.1,1.1c1.1-1,2.3-1.7,3-3
			C412.9,623.8,411.6,623,411.1,623.9L411.1,623.9z"/>
	</g>
</g>
<g>
	<g>
		<path class="st3" d="M388.6,568.3c-0.8,2.6-0.7,5.4-0.7,8.2c0,1,1.5,1,1.5,0c0-2.6-0.1-5.3,0.7-7.8
			C390.3,567.8,388.8,567.4,388.6,568.3L388.6,568.3z"/>
	</g>
</g>
<g>
	<g>
		<path class="st3" d="M395.1,589.5c0,2.9,0,5.8,0,8.7c0,1,1.5,1,1.5,0c0-2.9,0-5.8,0-8.7C396.6,588.5,395.1,588.5,395.1,589.5
			L395.1,589.5z"/>
	</g>
</g>
<g>
	<g>
		<path class="st3" d="M386.4,615.3c-0.6,1.9-0.8,3.9-1.4,5.8c-0.3,0.9,1.2,1.3,1.4,0.4c0.6-1.9,0.8-3.9,1.4-5.8
			C388.1,614.8,386.7,614.4,386.4,615.3L386.4,615.3z"/>
	</g>
</g>
<g>
	<g>
		<path class="st3" d="M366.9,574.1c-0.6,2-0.8,4-0.8,6c0,1,1.5,1,1.5,0c0-1.9,0.1-3.8,0.7-5.6C368.6,573.5,367.1,573.1,366.9,574.1
			L366.9,574.1z"/>
	</g>
</g>
<g>
	<g>
		<path class="st3" d="M371.9,595.8c-0.7,2-1.4,3.9-1.5,6c0,1,1.5,1,1.5,0c0-2,0.8-3.7,1.4-5.6C373.7,595.3,372.2,594.9,371.9,595.8
			L371.9,595.8z"/>
	</g>
</g>
<g>
	<g>
		<path class="st3" d="M371.2,623.3c-0.7,2.9-0.7,5.9-0.7,8.9c0,1,1.5,1,1.5,0c0-2.9,0-5.7,0.7-8.5
			C372.9,622.7,371.4,622.3,371.2,623.3L371.2,623.3z"/>
	</g>
</g>
<g>
	<g>
		<path class="st3" d="M374.1,648.6c-0.6,1.8-1.9,3.2-2.8,4.9c-0.4,0.9,0.8,1.6,1.3,0.8c0.9-1.8,2.3-3.3,3-5.2
			C375.9,648.1,374.4,647.7,374.1,648.6L374.1,648.6z"/>
	</g>
</g>
<g>
	<g>
		<path class="st3" d="M373.4,671.1c-0.7,2.2-0.7,4.4-0.7,6.7c0,1,1.5,1,1.5,0c0-2.1,0.1-4.2,0.7-6.3
			C375.1,670.5,373.7,670.1,373.4,671.1L373.4,671.1z"/>
	</g>
</g>
<g>
	<g>
		<path class="st3" d="M375.6,694.8c-0.6,1.2-0.9,2.4-1.4,3.6c-0.4,0.9,0.9,1.6,1.3,0.8c0.6-1.2,0.9-2.4,1.4-3.6
			C377.3,694.6,376,693.9,375.6,694.8L375.6,694.8z"/>
	</g>
</g>
<g>
	<g>
		<path class="st3" d="M335.7,498.8c-0.7,2.9-0.7,5.9-0.7,8.9c0,1,1.5,1,1.5,0c0-2.9,0-5.7,0.7-8.5
			C337.4,498.3,335.9,497.8,335.7,498.8L335.7,498.8z"/>
	</g>
</g>
<g>
	<g>
		<path class="st3" d="M350.9,577.2c1,0,1-1.5,0-1.5C350,575.7,350,577.2,350.9,577.2L350.9,577.2z"/>
	</g>
</g>
<g>
	<g>
		<path class="st3" d="M355.3,595.1c-0.7,2.2-0.7,4.4-0.7,6.7c0,1,1.5,1,1.5,0c0-2.1,0.1-4.2,0.7-6.3
			C357,594.5,355.6,594.1,355.3,595.1L355.3,595.1z"/>
	</g>
</g>
<g>
	<g>
		<path class="st3" d="M354.5,619.7c-0.6,2-0.7,4-0.7,6c0,1,1.5,1,1.5,0c0-1.9,0.1-3.8,0.7-5.6C356.3,619.1,354.8,618.7,354.5,619.7
			L354.5,619.7z"/>
	</g>
</g>
<g>
	<g>
		<path class="st3" d="M353.9,643.4c-0.7,1.5-0.8,3.1-0.8,4.7c0,1,1.5,1,1.5,0c0-1.4,0-2.7,0.6-4
			C355.6,643.3,354.3,642.5,353.9,643.4L353.9,643.4z"/>
	</g>
</g>
<g>
	<g>
		<path class="st3" d="M353.8,668.4c0,3.5,0,6.9,0.7,10.3c0.2,0.9,1.7,0.5,1.4-0.4c-0.7-3.3-0.7-6.6-0.7-9.9
			C355.3,667.4,353.8,667.4,353.8,668.4L353.8,668.4z"/>
	</g>
</g>
<g>
	<g>
		<path class="st3" d="M351,692.6c-0.7,1.4-0.8,3-1.4,4.3c-0.4,0.9,0.9,1.6,1.3,0.8c0.7-1.4,0.8-3,1.4-4.3
			C352.7,692.5,351.4,691.7,351,692.6L351,692.6z"/>
	</g>
</g>
<g>
	<g>
		<path class="st3" d="M335.7,578.1c0.5,2.4,0,4.5-0.7,6.8c-0.3,0.9,1.1,1.3,1.4,0.4c0.9-2.6,1.3-5,0.7-7.6
			C337,576.7,335.5,577.1,335.7,578.1L335.7,578.1z"/>
	</g>
</g>
<g>
	<g>
		<path class="st3" d="M335.7,611.7c-0.7,2.9-0.7,5.9-0.7,8.9c0,1,1.5,1,1.5,0c0-2.9,0-5.7,0.7-8.5
			C337.4,611.2,335.9,610.8,335.7,611.7L335.7,611.7z"/>
	</g>
</g>
<g>
	<g>
		<path class="st3" d="M335,641.6c0,2.9,0,5.8,0,8.7c0,1,1.5,1,1.5,0c0-2.9,0-5.8,0-8.7C336.5,640.6,335,640.6,335,641.6L335,641.6z
			"/>
	</g>
</g>
<g>
	<g>
		<path class="st3" d="M335.7,672.7c1,0,1-1.5,0-1.5C334.8,671.2,334.8,672.7,335.7,672.7L335.7,672.7z"/>
	</g>
</g>
<g>
	<g>
		<path class="st3" d="M335.7,669.8c0,5.1,0.1,10.2,0.7,15.2c0.1,0.9,1.6,1,1.5,0c-0.7-5-0.7-10.1-0.7-15.2
			C337.2,668.8,335.7,668.8,335.7,669.8L335.7,669.8z"/>
	</g>
</g>
<g>
	<g>
		<path class="st3" d="M316.2,504.8c0,3.1,0,6.3,0,9.4c0,1,1.5,1,1.5,0c0-3.1,0-6.3,0-9.4C317.7,503.8,316.2,503.8,316.2,504.8
			L316.2,504.8z"/>
	</g>
</g>
<g>
	<g>
		<path class="st3" d="M314.7,531.6c0,3.1,0,6.3,0,9.4c0,1,1.5,1,1.5,0c0-3.1,0-6.3,0-9.4C316.2,530.6,314.7,530.6,314.7,531.6
			L314.7,531.6z"/>
	</g>
</g>
<g>
	<g>
		<path class="st3" d="M319.1,558.3c0,3.1,0,6.3,0,9.4c0,1,1.5,1,1.5,0c0-3.1,0-6.3,0-9.4C320.6,557.4,319.1,557.4,319.1,558.3
			L319.1,558.3z"/>
	</g>
</g>
<g>
	<g>
		<path class="st3" d="M318.4,588.9c0.7,3.3,0.7,6.6,0.7,9.9c0,1,1.5,1,1.5,0c0-3.5,0-6.9-0.7-10.3
			C319.6,587.6,318.1,588,318.4,588.9L318.4,588.9z"/>
	</g>
</g>
<g>
	<g>
		<path class="st3" d="M316.2,623.5c0,3,0.1,6,0.8,8.9c0.2,0.9,1.7,0.5,1.4-0.4c-0.7-2.8-0.7-5.6-0.7-8.5
			C317.7,622.5,316.2,622.5,316.2,623.5L316.2,623.5z"/>
	</g>
</g>
<g>
	<g>
		<path class="st3" d="M316.9,653.2c0,2.9,0,5.8,0,8.7c0,1,1.5,1,1.5,0c0-2.9,0-5.8,0-8.7C318.4,652.2,316.9,652.2,316.9,653.2
			L316.9,653.2z"/>
	</g>
</g>
<g>
	<g>
		<path class="st3" d="M319.1,687.8c0,2.7,0,5.3,0,8c0,1,1.5,1,1.5,0c0-2.7,0-5.3,0-8C320.6,686.8,319.1,686.8,319.1,687.8
			L319.1,687.8z"/>
	</g>
</g>
<g>
	<g>
		<path class="st3" d="M299.5,514.2c0,1.9,0,3.9,0,5.8c0,1,1.5,1,1.5,0c0-1.9,0-3.9,0-5.8C301,513.2,299.5,513.2,299.5,514.2
			L299.5,514.2z"/>
	</g>
</g>
<g>
	<g>
		<path class="st3" d="M298.1,546.8c0,3.2,0.7,6.3,0.7,9.4c0,1,1.5,1,1.5,0c-0.1-3.1-0.7-6.3-0.7-9.4
			C299.6,545.8,298.1,545.8,298.1,546.8L298.1,546.8z"/>
	</g>
</g>
<g>
	<g>
		<path class="st3" d="M301.7,574.8c-0.7,2.9-0.7,5.9-0.7,8.9c0,1,1.5,1,1.5,0c0-2.9,0-5.7,0.7-8.5
			C303.4,574.2,301.9,573.8,301.7,574.8L301.7,574.8z"/>
	</g>
</g>
<g>
	<g>
		<path class="st3" d="M301,604.9c0.7,2.9,0.8,5.8,1.4,8.7c0.2,0.9,1.7,0.5,1.4-0.4c-0.7-2.9-0.8-5.8-1.4-8.7
			C302.2,603.5,300.8,603.9,301,604.9L301,604.9z"/>
	</g>
</g>
<g>
	<g>
		<path class="st3" d="M299.5,630.5c-0.7,3.1,0,6.1,0.7,9.1c0.2,0.9,1.7,0.5,1.4-0.4c-0.7-2.7-1.3-5.5-0.7-8.3
			C301.2,630,299.7,629.6,299.5,630.5L299.5,630.5z"/>
	</g>
</g>
<g>
	<g>
		<path class="st3" d="M298.8,663.3c0,3,0.1,6,0.7,8.9c0.2,0.9,1.7,0.5,1.4-0.4c-0.6-2.8-0.7-5.6-0.7-8.5
			C300.3,662.3,298.8,662.3,298.8,663.3L298.8,663.3z"/>
	</g>
</g>
<g>
	<g>
		<path class="st3" d="M296.9,692.1c0,2.7-0.1,5.5,0.7,8.2c0.3,0.9,1.7,0.5,1.4-0.4c-0.8-2.5-0.7-5.2-0.7-7.8
			C298.4,691.1,296.9,691.1,296.9,692.1L296.9,692.1z"/>
	</g>
</g>
<g>
	<g>
		<path class="st3" d="M288.9,54.5c2.6,0.6,5.3,0.8,8,1.4c0.9,0.2,1.3-1.2,0.4-1.4c-2.6-0.6-5.3-0.8-8-1.4
			C288.3,52.8,287.9,54.3,288.9,54.5L288.9,54.5z"/>
	</g>
</g>
<g>
	<g>
		<path class="st3" d="M294.7,72.6c2.4,0.8,4.8,1.4,7.2,2.2c0.9,0.3,1.3-1.1,0.4-1.4c-2.4-0.8-4.8-1.4-7.2-2.2
			C294.1,70.8,293.7,72.3,294.7,72.6L294.7,72.6z"/>
	</g>
</g>
<g>
	<g>
		<path class="st3" d="M292,93.6c2.9,0.1,5.7,0.7,8.5,1.4c0.9,0.2,1.3-1.2,0.4-1.4c-2.9-0.7-5.9-1.4-8.9-1.5
			C291,92.1,291,93.6,292,93.6L292,93.6z"/>
	</g>
</g>
<g>
	<g>
		<path class="st3" d="M292,115.3c1.4,0,2.9,0,4.3,0c1,0,1-1.5,0-1.5c-1.4,0-2.9,0-4.3,0C291,113.8,291,115.3,292,115.3L292,115.3z"
			/>
	</g>
</g>
<g>
	<g>
		<path class="st3" d="M295.6,136.3c0.6,0,1.2-0.1,1.8-0.3c0.3-0.1,0.7-0.4,1.1-0.4c1,0,1-1.5,0-1.5c-1,0-1.9,0.7-2.9,0.7
			C294.6,134.8,294.6,136.3,295.6,136.3L295.6,136.3z"/>
	</g>
</g>
<g>
	<g>
		<path class="st3" d="M298.5,151.5c1,0,1-1.5,0-1.5C297.5,150,297.5,151.5,298.5,151.5L298.5,151.5z"/>
	</g>
</g>
<g>
	<g>
		<path class="st3" d="M378.4,116.6c2.5,1.8,5.2,3.7,7,6.2c0.6,0.8,1.9,0,1.3-0.8c-1.9-2.8-4.8-4.8-7.5-6.8
			C378.4,114.8,377.7,116.1,378.4,116.6L378.4,116.6z"/>
	</g>
</g>
<g>
	<g>
		<path class="st3" d="M410.7,154c0.7,1.4,0.6,3.1,0.6,4.7c0,1,1.5,1,1.5,0c0-1.9,0-3.7-0.8-5.4C411.6,152.4,410.3,153.1,410.7,154
			L410.7,154z"/>
	</g>
</g>
<g>
	<g>
		<path class="st3" d="M440.4,221.3c-0.6,1.3-0.8,2.5-0.8,4c0,1,1.5,1,1.5,0c0-1.2,0.1-2.2,0.6-3.2
			C442.1,221.2,440.8,220.4,440.4,221.3L440.4,221.3z"/>
	</g>
</g>
<g>
	<g>
		<path class="st3" d="M513.4,415.1c0.8,4.4,2.1,8.6,2.9,13c0.2,0.9,1.6,0.5,1.4-0.4c-0.8-4.4-2.1-8.6-2.9-13
			C514.7,413.8,513.3,414.2,513.4,415.1L513.4,415.1z"/>
	</g>
</g>
<g>
	<g>
		<path class="st3" d="M508.4,449.9c0.7,3,0.7,6.1,0.7,9.2c0,1,1.5,1,1.5,0c0-3.2,0-6.5-0.7-9.6
			C509.6,448.5,508.2,448.9,508.4,449.9L508.4,449.9z"/>
	</g>
</g>
<g>
	<g>
		<path class="st3" d="M495.3,476.4c0,2.4,0,4.8,0,7.2c0,1,1.5,1,1.5,0c0-2.4,0-4.8,0-7.2C496.8,475.5,495.3,475.5,495.3,476.4
			L495.3,476.4z"/>
	</g>
</g>
<g>
	<g>
		<path class="st3" d="M337.6,523.7c0.6,4.5,0.7,9,0.7,13.6c0,1,1.5,1,1.5,0c0-4.7-0.1-9.3-0.8-14
			C338.9,522.3,337.4,522.7,337.6,523.7L337.6,523.7z"/>
	</g>
</g>
<g>
	<g>
		<path class="st3" d="M343.5,556.6c0.5,0.6,0.5,1.6,0.5,2.4c0,1,1.5,1,1.5,0c0-1.2-0.1-2.5-0.9-3.4
			C344,554.8,342.9,555.9,343.5,556.6L343.5,556.6z"/>
	</g>
</g>
<g>
	<g>
		<path class="st3" d="M356.4,538.9c0.7,3.8,0.7,7.6,0.7,11.4c0,1,1.5,1,1.5,0c0-3.9,0-7.9-0.8-11.8
			C357.7,537.5,356.2,537.9,356.4,538.9L356.4,538.9z"/>
	</g>
</g>
<g>
	<g>
		<path class="st3" d="M378.1,540.9c0,3.4,0,6.8,0,10.1c0,1,1.5,1,1.5,0c0-3.4,0-6.8,0-10.1C379.6,539.9,378.1,539.9,378.1,540.9
			L378.1,540.9z"/>
	</g>
</g>
<g>
	<g>
		<path class="st3" d="M396.2,530.2c0.6,2.1,0.7,4.2,0.7,6.3c0,1,1.5,1,1.5,0c0-2.3-0.1-4.5-0.7-6.7
			C397.4,528.9,395.9,529.3,396.2,530.2L396.2,530.2z"/>
	</g>
</g>
<g>
	<g>
		<path class="st3" d="M400.6,552.8c0.8,1.7,1.3,3.5,1.3,5.4c0,1,1.5,1,1.5,0c0-2.2-0.6-4.2-1.6-6.2
			C401.5,551.2,400.2,551.9,400.6,552.8L400.6,552.8z"/>
	</g>
</g>
<g>
	<g>
		<path class="st3" d="M418.7,534c1.3,2.6,2,5.4,2.1,8.3c0,1,1.5,1,1.5,0c-0.1-3.2-0.9-6.2-2.3-9.1
			C419.6,532.4,418.3,533.1,418.7,534L418.7,534z"/>
	</g>
</g>
<g>
	<g>
		<path class="st3" d="M436.7,538.7c1,0,1-1.5,0-1.5C435.8,537.2,435.8,538.7,436.7,538.7L436.7,538.7z"/>
	</g>
</g>
<g>
	<g>
		<path class="st3" d="M465.7,535.1c1,0,1-1.5,0-1.5C464.7,533.6,464.7,535.1,465.7,535.1L465.7,535.1z"/>
	</g>
</g>
<g>
	<g>
		<path class="st3" d="M454.1,217.3c1,0,1-1.5,0-1.5C453.1,215.8,453.1,217.3,454.1,217.3L454.1,217.3z"/>
	</g>
</g>
<g>
	<g>
		<path class="st3" d="M472.9,253.5c1,0,1-1.5,0-1.5C471.9,252,471.9,253.5,472.9,253.5L472.9,253.5z"/>
	</g>
</g>
<g>
	<g>
		<path class="st3" d="M366.3,167.4c2.9,0.7,5.8,0.8,8.7,1.4c0.9,0.2,1.3-1.2,0.4-1.4c-2.9-0.7-5.8-0.8-8.7-1.4
			C365.8,165.7,365.4,167.2,366.3,167.4L366.3,167.4z"/>
	</g>
</g>
<g>
	<g>
		<path class="st3" d="M193.3,526.4c2.2,0.7,4.4,0.7,6.7,0.7c1,0,1-1.5,0-1.5c-2.1,0-4.2-0.1-6.3-0.7
			C192.8,524.6,192.4,526.1,193.3,526.4L193.3,526.4z"/>
	</g>
</g>
<g>
	<g>
		<path class="st3" d="M184.5,542.9c1.7,0.8,3.6,0.8,5.4,0.8c1,0,1-1.5,0-1.5c-1.6,0-3.2,0-4.7-0.6
			C184.4,541.3,183.6,542.5,184.5,542.9L184.5,542.9z"/>
	</g>
</g>
<g>
	<g>
		<path class="st3" d="M211.2,547.3c1.5,0.7,3.1,0.8,4.7,0.8c1,0,1-1.5,0-1.5c-1.4,0-2.7,0-4-0.6
			C211.1,545.6,210.4,546.9,211.2,547.3L211.2,547.3z"/>
	</g>
</g>
<g>
	<g>
		<path class="st3" d="M214.5,529.3c1.2,0,2.4,0,3.6,0c1,0,1-1.5,0-1.5c-1.2,0-2.4,0-3.6,0C213.6,527.8,213.6,529.3,214.5,529.3
			L214.5,529.3z"/>
	</g>
</g>
<g>
	<g>
		<path class="st3" d="M456.1,508.3c1.7,0.6,3.5,0.7,5.3,0.7c1,0,1-1.5,0-1.5c-1.7,0-3.3-0.2-4.9-0.7
			C455.5,506.5,455.1,508,456.1,508.3L456.1,508.3z"/>
	</g>
</g>
<g>
	<g>
		<path class="st3" d="M455,517.5c0.8,0.7,1.7,0.9,2.7,0.9c1,0,1-1.5,0-1.5c-0.6,0-1.2,0-1.6-0.5C455.4,515.8,454.3,516.8,455,517.5
			L455,517.5z"/>
	</g>
</g>
<g>
	<g>
		<path class="st3" d="M465.7,523.5c0.7,0,1.4,0,2.2,0c1,0,1-1.5,0-1.5c-0.7,0-1.4,0-2.2,0C464.7,522,464.7,523.5,465.7,523.5
			L465.7,523.5z"/>
	</g>
</g>
<g>
	<g>
		<path class="st3" d="M470.7,514.1c1.4,0,2.9,0,4.3,0c1,0,1-1.5,0-1.5c-1.4,0-2.9,0-4.3,0C469.8,512.6,469.8,514.1,470.7,514.1
			L470.7,514.1z"/>
	</g>
</g>
<g>
	<g>
		<path class="st3" d="M487.6,508.8c1.2,1,2.3,0.2,3.2-0.7c0.7-0.7-0.4-1.7-1.1-1.1c-0.3,0.3-0.8,1-1.1,0.7
			C487.9,507.1,486.8,508.2,487.6,508.8L487.6,508.8z"/>
	</g>
</g>
<g>
	<g>
		<path class="st3" d="M488.1,518.4c0.5,0,1,0,1.4,0c1,0,1-1.5,0-1.5c-0.5,0-1,0-1.4,0C487.1,516.9,487.1,518.4,488.1,518.4
			L488.1,518.4z"/>
	</g>
</g>
<g>
	<g>
		<path class="st3" d="M503.1,510.3c0.7-0.7,1.6-0.9,1.7-2c0.1-1-1.4-1-1.5,0c0,0,0.1,0,0,0.1c-0.1,0.1-0.2,0.1-0.3,0.2
			c-0.3,0.2-0.6,0.4-0.9,0.7C501.4,509.9,502.4,510.9,503.1,510.3L503.1,510.3z"/>
	</g>
</g>
<g>
	<g>
		<path class="st3" d="M509.1,501.1c1.3,0,2.5,0,3.4-0.9c0.7-0.7-0.4-1.7-1.1-1.1c-0.6,0.6-1.5,0.5-2.4,0.5
			C508.1,499.6,508.1,501.1,509.1,501.1L509.1,501.1z"/>
	</g>
</g>
<g>
	<g>
		<path class="st3" d="M520.3,502.4c1.4-0.7,2.4-1.7,3.2-3.2c0.4-0.9-0.9-1.6-1.3-0.8c-0.6,1.2-1.4,2-2.6,2.6
			C518.7,501.6,519.5,502.9,520.3,502.4L520.3,502.4z"/>
	</g>
</g>
<g>
	<g>
		<path class="st3" d="M524,489.4c0.6-0.3,1.2-0.7,1.6-1.3c0.4-0.6,0.6-1.2,0.9-1.8c0.4-0.9-0.9-1.6-1.3-0.8
			c-0.3,0.5-0.5,1.1-0.8,1.6c-0.3,0.5-0.7,0.8-1.1,1C522.3,488.5,523.1,489.8,524,489.4L524,489.4z"/>
	</g>
</g>
<g>
	<g>
		<path class="st3" d="M530.8,470.6c0,0.7,0,1.4,0,2.2c0,1,1.5,1,1.5,0c0-0.7,0-1.4,0-2.2C532.3,469.7,530.8,469.7,530.8,470.6
			L530.8,470.6z"/>
	</g>
</g>
<g>
	<g>
		<path class="st3" d="M129.5,706.5c1.1,1.4,2.2,2.8,3.1,4.4c0.5,0.8,1.8,0.1,1.3-0.8c-1-1.7-2.1-3.2-3.3-4.7
			C130,704.7,128.9,705.7,129.5,706.5L129.5,706.5z"/>
	</g>
</g>
<g>
	<g>
		<path class="st3" d="M162.6,703.3c0.4,0.9,0.8,1.8,1.1,2.8c0.2,0.9,1.6,0.5,1.4-0.4c-0.2-1.1-0.7-2.1-1.2-3.1
			C163.5,701.7,162.2,702.5,162.6,703.3L162.6,703.3z"/>
	</g>
</g>
<g>
	<g>
		<path class="st3" d="M138.7,721.2c1.7,1.5,2.7,3.6,4.3,5.2c0.7,0.7,1.7-0.4,1.1-1.1c-1.6-1.6-2.6-3.7-4.3-5.2
			C139.1,719.5,138,720.5,138.7,721.2L138.7,721.2z"/>
	</g>
</g>
<g>
	<g>
		<path class="st3" d="M160.6,730.2c0.7,1.3,1.5,2.6,2.4,3.8c0.6,0.8,1.7-0.3,1.1-1.1c-0.8-1.1-1.5-2.3-2.1-3.5
			C161.5,728.6,160.2,729.3,160.6,730.2L160.6,730.2z"/>
	</g>
</g>
<g>
	<g>
		<path class="st3" d="M175,729c1.1,0.9,2.3,1.8,3.4,2.7c0.7,0.6,1.8-0.5,1.1-1.1c-1.1-0.9-2.3-1.8-3.4-2.7
			C175.3,727.3,174.3,728.4,175,729L175,729z"/>
	</g>
</g>
<g>
	<g>
		<path class="st3" d="M149.7,711c0.2,1.5,0.5,3,0.9,4.5c0.3,0.9,1.7,0.5,1.4-0.4c-0.4-1.5-0.7-3-0.9-4.5
			C151,709.7,149.5,710.1,149.7,711L149.7,711z"/>
	</g>
</g>
<g>
	<g>
		<path class="st3" d="M159.8,715.8c0.6,1.3,0.9,2.7,1.1,4.1c0.1,1,1.6,0.5,1.4-0.4c-0.2-1.6-0.5-3.1-1.2-4.5
			C160.6,714.2,159.3,714.9,159.8,715.8L159.8,715.8z"/>
	</g>
</g>
<g>
	<g>
		<path class="st3" d="M173.3,712.6c0,1.8,0.5,3.4,1.5,4.9c0.5,0.8,1.8,0.1,1.3-0.8c-0.8-1.3-1.2-2.6-1.3-4.1
			C174.8,711.6,173.3,711.6,173.3,712.6L173.3,712.6z"/>
	</g>
</g>
<g>
	<g>
		<path class="st3" d="M195.8,694.7c0.7,2,1.6,3.9,2.8,5.6c0.5,0.8,1.8,0,1.3-0.8c-1.1-1.6-1.9-3.4-2.6-5.3
			C196.9,693.4,195.5,693.8,195.8,694.7L195.8,694.7z"/>
	</g>
</g>
<g>
	<g>
		<path class="st3" d="M149.2,696.6c0.9,0.7,1.5,1.5,2.3,2.3c0.7,0.7,1.7-0.4,1.1-1.1c-0.7-0.8-1.4-1.6-2.3-2.3
			c-0.3-0.2-0.7-0.3-1.1,0C148.9,695.8,148.8,696.3,149.2,696.6L149.2,696.6z"/>
	</g>
</g>
<g>
	<g>
		<path class="st3" d="M260,744.4c1,0,1-1.5,0-1.5C259,742.9,259,744.4,260,744.4L260,744.4z"/>
	</g>
</g>
<g>
	<g>
		<path class="st3" d="M186.6,719.7c2.7,1,5.4,2,8.1,3c0.9,0.3,1.3-1.1,0.4-1.4c-2.7-1-5.4-2-8.1-3
			C186.1,717.9,185.7,719.3,186.6,719.7L186.6,719.7z"/>
	</g>
</g>
<g>
	<g>
		<path class="st3" d="M189.3,730.2c1.8,0.7,3.6,1.4,5.5,2.1c0.9,0.4,1.3-1.1,0.4-1.4c-1.8-0.7-3.6-1.4-5.5-2.1
			C188.8,728.4,188.4,729.9,189.3,730.2L189.3,730.2z"/>
	</g>
</g>
<g>
	<g>
		<path class="st3" d="M206.1,740.1c2.6,0.9,5.2,1.4,7.9,1.6c1,0.1,1-1.4,0-1.5c-2.6-0.1-5-0.6-7.5-1.5
			C205.6,738.4,205.2,739.8,206.1,740.1L206.1,740.1z"/>
	</g>
</g>
<g>
	<g>
		<path class="st3" d="M208.2,728.5c2,1.1,4,2.2,6,3.3c0.8,0.5,1.6-0.8,0.8-1.3c-2-1.1-4-2.2-6-3.3
			C208.1,726.8,207.3,728.1,208.2,728.5L208.2,728.5z"/>
	</g>
</g>
<g>
	<g>
		<path class="st3" d="M229.1,742.2c1.3,0.2,2.5,0.4,3.8,0.6c0.9,0.1,1.4-1.3,0.4-1.4c-1.3-0.2-2.5-0.4-3.8-0.6
			C228.5,740.7,228.1,742.1,229.1,742.2L229.1,742.2z"/>
	</g>
</g>
<g>
	<g>
		<path class="st3" d="M117.1,713.8c0.5,0.4,1.1,0.7,1.6,1.1c0.8,0.5,1.6-0.8,0.8-1.3c-0.5-0.4-1.1-0.7-1.6-1.1
			C117.1,712,116.3,713.3,117.1,713.8L117.1,713.8z"/>
	</g>
</g>
<g>
	<g>
		<path class="st3" d="M80.7,687c1.7,1.3,3.4,2.5,5.3,3.6c0.8,0.5,1.6-0.8,0.8-1.3c-1.8-1.1-3.6-2.3-5.3-3.6
			C80.7,685.1,79.9,686.4,80.7,687L80.7,687z"/>
	</g>
</g>
<g>
	<g>
		<path class="st3" d="M472.3,693.1c2.1-0.9,4.4-1.5,6.7-1.6c1-0.1,1-1.6,0-1.5c-2.6,0.2-5.1,0.8-7.4,1.8
			C470.6,692.2,471.4,693.5,472.3,693.1L472.3,693.1z"/>
	</g>
</g>
<g>
	<g>
		<path class="st3" d="M496.2,685.3c2.4-1.3,4.9-2.7,7.3-4c0.8-0.5,0.1-1.8-0.8-1.3c-2.4,1.3-4.9,2.7-7.3,4
			C494.6,684.5,495.3,685.8,496.2,685.3L496.2,685.3z"/>
	</g>
</g>
<g>
	<g>
		<path class="st3" d="M506,702.4c2.5,0.4,4.8,1.3,6.9,2.6c0.8,0.5,1.6-0.8,0.8-1.3c-2.2-1.4-4.7-2.3-7.3-2.8
			C505.5,700.8,505.1,702.3,506,702.4L506,702.4z"/>
	</g>
</g>
<g>
	<g>
		<path class="st3" d="M524.4,707.2c1.8,0.9,3.6,1.9,5.4,2.8c0.9,0.4,1.6-0.8,0.8-1.3c-1.8-0.9-3.6-1.9-5.4-2.8
			C524.3,705.4,523.6,706.7,524.4,707.2L524.4,707.2z"/>
	</g>
</g>
<g>
	<g>
		<path class="st3" d="M490.4,701.7c1.6,1.4,3.4,2.2,5.4,2.4c1,0.1,0.9-1.4,0-1.5c-1.6-0.2-3.1-0.9-4.4-2
			C490.8,700,489.7,701,490.4,701.7L490.4,701.7z"/>
	</g>
</g>
<g>
	<g>
		<path class="st3" d="M533.8,715.5c2.6,0.4,5.2,1.2,7.7,2.1c0.9,0.4,1.3-1.1,0.4-1.4c-2.5-1-5-1.7-7.7-2.1
			C533.3,713.9,532.9,715.3,533.8,715.5L533.8,715.5z"/>
	</g>
</g>
<g>
	<g>
		<path class="st3" d="M550.5,721c1.1,0.7,2.2,1.4,3.3,2.1c0.8,0.5,1.6-0.8,0.8-1.3c-1.1-0.7-2.2-1.4-3.3-2.1
			C550.5,719.2,549.7,720.5,550.5,721L550.5,721z"/>
	</g>
</g>
<g>
	<g>
		<path class="st3" d="M242.7,739.6c0.8,2.2,2.2,4.1,4.2,5.3c0.8,0.5,1.6-0.8,0.8-1.3c-1.7-1-2.9-2.6-3.6-4.4
			C243.8,738.2,242.3,738.6,242.7,739.6L242.7,739.6z"/>
	</g>
</g>
<g>
	<g>
		<path class="st3" d="M221.8,731.8c0.4,0.2,0.7,0.4,1.1,0.5c0.9,0.4,1.6-0.9,0.8-1.3c-0.4-0.2-0.7-0.4-1.1-0.5
			C221.7,730.1,220.9,731.4,221.8,731.8L221.8,731.8z"/>
	</g>
</g>
<g>
	<g>
		<path class="st3" d="M440.9,697.3c3.9-0.9,7.9-1.3,11.9-1.1c1,0,1-1.5,0-1.5c-4.2-0.2-8.3,0.2-12.3,1.2
			C439.6,696,440,697.5,440.9,697.3L440.9,697.3z"/>
	</g>
</g>
<g>
	<g>
		<path class="st3" d="M392.3,699.2c3.3,0.3,6.5,0.1,9.8-0.5c0.9-0.2,0.5-1.6-0.4-1.4c-3.1,0.6-6.2,0.8-9.4,0.5
			C391.4,697.7,391.4,699.2,392.3,699.2L392.3,699.2z"/>
	</g>
</g>
<g>
	<g>
		<path class="st3" d="M463.5,671.8c1.8,0.3,3.4,0,5-0.7c0.9-0.4,0.1-1.7-0.8-1.3c-1.2,0.5-2.6,0.7-3.9,0.5
			C462.9,670.3,462.5,671.7,463.5,671.8L463.5,671.8z"/>
	</g>
</g>
<g>
	<g>
		<path class="st3" d="M460.7,655.9c0.8-0.2,1.7-0.4,2.5-0.6c0.9-0.2,0.5-1.7-0.4-1.4c-0.8,0.2-1.7,0.4-2.5,0.6
			C459.3,654.7,459.7,656.1,460.7,655.9L460.7,655.9z"/>
	</g>
</g>
<g>
	<g>
		<path class="st3" d="M407.6,671.9c2.4,0.1,4.7-0.6,6.8-2c0.8-0.5,0-1.8-0.8-1.3c-1.8,1.2-3.8,1.8-6,1.8
			C406.6,670.3,406.6,671.8,407.6,671.9L407.6,671.9z"/>
	</g>
</g>
<g>
	<g>
		<path class="st3" d="M525,653.4c-1.9,1.8-3.3,4.1-4,6.7c-0.3,0.9,1.2,1.3,1.4,0.4c0.6-2.3,1.9-4.4,3.6-6
			C526.7,653.8,525.7,652.8,525,653.4L525,653.4z"/>
	</g>
</g>
<path class="st4" d="M69.7,407.5c36.1,144.3,167.5,97.2,193,106.9c6.1,1.1,7.5,6,7.6,6.5c0.3,9.7-12.1,11.8-12.1,11.8
	s9.8,2.7,10.7,7.8c1,5.6-4.7,8.4-4.7,8.4s-5.9,2.3-9,1.2c0,0,11,2.1,5.5,11.5c-12.5,18.6-81.9,9.7-131.4-21
	c-36.9-22.9-57.3-61.3-63.3-90.3c5.4,4.8,16.4,43,45,66.6c34.8,28.7,132.1,53.4,142.3,43.3c4.5-9-11.1-12.9-11.1-12.9
	s18.9,2.7,17.8-7.5c-0.6-6-17.6-6.6-17.6-6.6s23.6-6.2,17.9-12C234.1,494.6,109.5,583,69.7,407.5z"/>
<path class="st5" d="M67.5,387.3c7.8,62.5,39.6,108.3,62.3,121c35.1,22.8,130.2-0.9,130.1,12.5c-0.1,10.9-21.1,11.2-21.1,11.2
	s19.7,1.4,19.8,7.9c0.2,8.8-19.5,6.6-19.5,6.6s17.2,3.3,14.4,11.8c-3.2,10-124.9-5.5-163.3-64.3c-20.2-30.9-26-51.6-26-51.6"/>
<path class="st6" d="M527.5,447.7c-19.7,79.7-84,34.6-102.8,40.8c-4.4,0.6-7.7,3.3-6.6,8c-0.5,7,9.5,9.1,9.5,9.1s-8,3.5-8.8,7.2
	c-1.4,6.8,2.8,7.8,2.8,7.8s5.4,2.1,7.7,1.5c0,0-8.3,4.7-4.6,11.7c8.5,13.8,61.3,8.5,95.2-16.2c15.1-11,17.5-24,17-38.1
	c-1.6,5.1-5.5,26.7-21.7,34.7c-29.2,14.4-79.1,25.1-86.2,17.5c-3-6.7,9.1-10.4,9.1-10.4s-13.8-1.3-12.8-8.6
	c0.6-4.3,10.2-7.3,10.2-7.3s-11.2-0.2-11.5-11.1C423.6,481,525.2,536.7,527.5,447.7z"/>
<path class="st5" d="M527.2,444.4c1.8,13.7-0.7,36.1-17.7,47.7c-35.1,22.8-84.8-9.8-84.7,3.6c0.1,10.9,19.7,9.5,19.7,9.5
	s-19.7,1.4-19.8,7.9c-0.2,8.8,19.5,6.6,19.5,6.6s-17.2,3.3-14.4,11.8c3.2,10,76.8-5.9,94.6-24.6c11.6-12.3,11.5-30.3,11.5-30.3"/>
<path class="st6" d="M149.4,687.2c0,0,25.3,13.6,31,17.5c9.5,3.4,80,4.9,121.3,3.1C186.7,697.9,149.4,687.2,149.4,687.2z"/>
<path class="st6" d="M471.2,702.3c0,0,24.8-6.5,31.3-12.3c-1.7,10.5,1.3,12.4,50.2,36.5C496.9,707.3,471.2,702.3,471.2,702.3z"/>
<path class="st7" d="M468.3,318.3c2.8,62.6-35,169.9-160.3,171.7C179,492,127.2,392.4,127.2,321.6c0-65.2,53.9-144.6,125.8-146.6
	c34.2-0.9,41.2,17.9,46.8,22.8c3.2-5.3,12.5-22.9,48.9-22.3C408.4,173.8,464.5,232.5,468.3,318.3z"/>
<path class="st8" d="M294.2,299.1c0,38.5-30.1,69.7-67.1,69.7c-37.1,0-67.1-31.2-67.1-69.7c0-38.5,30.1-69.7,67.1-69.7
	C264.2,229.4,294.2,260.6,294.2,299.1z"/>
<path class="st7" d="M261.2,296.9c0,18.8-14.9,34.1-33.2,34.1c-18.3,0-33.2-15.3-33.2-34.1c0-18.8,14.9-34.1,33.2-34.1
	C246.3,262.8,261.2,278.1,261.2,296.9z"/>
<path class="st8" d="M243.7,294.6c0,8.6-6.8,15.5-15.1,15.5c-8.3,0-15.1-6.9-15.1-15.5c0-8.6,6.8-15.5,15.1-15.5
	C237,279.1,243.7,286,243.7,294.6z"/>
<path class="st8" d="M221.6,316.5c0,3.5-2.8,6.4-6.2,6.4c-3.4,0-6.2-2.9-6.2-6.4c0-3.5,2.8-6.4,6.2-6.4
	C218.8,310.1,221.6,313,221.6,316.5z"/>
<g>
	<path class="st9" d="M183.5,221.6c-2.6-4.7-0.7-8.6,2.6-9.7c3.3-1.1,6.8,0.2,8.1,4.4c1.3,4,0.8,9.1-0.8,14
		C193.4,230.3,185.8,225.8,183.5,221.6z"/>
	<path class="st9" d="M208.5,211.7c-1.7-5.1,0.9-8.6,4.3-9.1c3.4-0.5,6.6,1.5,7.2,5.8c0.5,4.1-0.9,9.1-3.3,13.7
		C216.7,222.1,210,216.3,208.5,211.7z"/>
	<path class="st9" d="M235.4,208.6c-0.3-5.3,3.1-8,6.6-7.6c3.4,0.4,6,3.2,5.4,7.5c-0.6,4.1-3.3,8.5-6.8,12.3
		C240.6,220.8,235.7,213.4,235.4,208.6z"/>
</g>
<path class="st8" d="M332.5,293.5c0,31.6,24.7,57.2,55.1,57.2c30.4,0,55.1-25.6,55.1-57.2c0-31.6-24.7-57.2-55.1-57.2
	C357.2,236.3,332.5,261.9,332.5,293.5z"/>
<path class="st7" d="M359.6,291.7c0,15.5,12.2,28,27.2,28c15,0,27.2-12.5,27.2-28c0-15.5-12.2-28-27.2-28
	C371.8,263.7,359.6,276.2,359.6,291.7z"/>
<path class="st8" d="M374,289.8c0,7,5.5,12.7,12.4,12.7c6.9,0,12.4-5.7,12.4-12.7c0-7-5.5-12.7-12.4-12.7
	C379.5,277.1,374,282.8,374,289.8z"/>
<path class="st8" d="M392.1,307.8c0,2.9,2.3,5.2,5.1,5.2c2.8,0,5.1-2.3,5.1-5.2c0-2.9-2.3-5.2-5.1-5.2
	C394.4,302.5,392.1,304.9,392.1,307.8z"/>
<g>
	<path class="st9" d="M426.8,231.2c2.6-3.5,1.5-6.9-1-8.2c-2.6-1.3-5.5-0.6-7.1,2.7c-1.5,3.1-1.7,7.3-0.9,11.5
		C417.8,237.2,424.5,234.4,426.8,231.2z"/>
	<path class="st9" d="M407.6,220.4c1.9-3.9,0.3-7.1-2.5-7.9c-2.7-0.8-5.6,0.4-6.5,3.9c-0.9,3.3-0.3,7.5,1.2,11.5
		C399.8,227.9,405.9,224,407.6,220.4z"/>
	<path class="st9" d="M386,214.9c0.8-4.3-1.6-6.9-4.5-6.9c-2.8,0-5.2,1.9-5.2,5.5c0,3.4,1.7,7.3,4.2,10.7
		C380.5,224.2,385.3,218.8,386,214.9z"/>
</g>
<path class="st10" d="M331.2,358.8c1.8,10-4,16-10.7,16c-6.6,0-12.1-4.6-12-12.9c0.1-8,4.2-17,10-24.9
	C318.6,337,329.6,349.9,331.2,358.8z"/>
<path d="M296.4,435.4c0,0,9.8,2.6,23.2,1.4c16-1.4,24-6.1,24-6.1s-1,25.4-21.1,27.3S296.4,435.4,296.4,435.4z"/>
<polygon class="st7" points="302.3,438.5 310.4,439.2 308.3,447.2 "/>
<polyline class="st7" points="330.4,437.3 338.4,435.4 334.8,444.4 "/>
<circle class="st11" cx="210.9" cy="403.8" r="12.5"/>
<circle class="st11" cx="411.4" cy="387.3" r="12.5"/>
<g>
	<path class="st11" d="M379.8,101c0,0,0.9,0.2,2.5,0.4c0.8,0.2,1.7,0.3,2.9,0.5c1.1,0.2,2.3,0.4,3.7,0.5c1.4,0.2,2.8,0.3,4.4,0.5
		c1.6,0.2,3.2,0.2,4.9,0.4c1.7,0.1,3.5,0.2,5.3,0.3c1.8,0.1,3.6,0.1,5.5,0.2c3.7,0.1,7.3,0.1,10.8,0.1c3.4,0,6.6,0,9.4,0
		c2.8,0,5,0.1,6.7,0.1c1.6,0.1,2.5,0.1,2.5,0.1s-3.7,0.1-9.2,0.4c-2.7,0.1-6,0.2-9.4,0.3c-3.4,0.1-7.1,0.1-10.8,0
		c-1.8-0.1-3.7-0.1-5.5-0.2c-1.8-0.1-3.6-0.2-5.3-0.3c-1.7-0.2-3.4-0.3-4.9-0.5c-1.6-0.2-3-0.4-4.4-0.7c-1.4-0.2-2.6-0.5-3.7-0.7
		c-1.1-0.2-2-0.4-2.8-0.6C380.7,101.3,379.8,101,379.8,101z"/>
</g>
<g>
	<path class="st11" d="M392.8,87.7c0,0,0.9,0,2.3,0c0.7,0,1.6,0,2.7,0c1,0,2.2-0.1,3.5-0.1c1.3,0,2.6-0.2,4.1-0.3
		c1.5-0.1,3-0.3,4.6-0.5c1.6-0.2,3.2-0.4,4.9-0.6c1.7-0.2,3.3-0.5,5-0.8c3.3-0.6,6.7-1.2,9.8-1.8c3.1-0.6,6.1-1.1,8.6-1.6
		c2.5-0.5,4.6-0.8,6.1-1.1c1.5-0.2,2.3-0.4,2.3-0.4s-3.3,0.8-8.3,2c-2.5,0.6-5.4,1.3-8.5,1.9c-3.1,0.7-6.5,1.3-9.8,1.9
		c-1.7,0.3-3.4,0.5-5,0.7c-1.7,0.2-3.3,0.4-4.9,0.6c-1.6,0.1-3.1,0.3-4.6,0.3c-1.5,0.1-2.9,0.1-4.1,0.1c-1.3,0-2.5,0-3.5-0.1
		c-1,0-1.9-0.1-2.7-0.1C393.7,87.8,392.8,87.7,392.8,87.7z"/>
</g>
<g>
	<path class="st11" d="M412.2,67.2c0,0,0.6,0,1.6-0.1c0.5,0,1.2-0.1,1.9-0.2c0.7-0.1,1.5-0.2,2.4-0.3c0.4-0.1,0.9-0.1,1.4-0.2
		c0.5-0.1,1-0.2,1.5-0.3c1-0.2,2-0.5,3.1-0.7c2.2-0.6,4.4-1.2,6.7-1.9c2.3-0.7,4.5-1.5,6.6-2.3c2.1-0.7,4.1-1.4,5.8-2
		c1.7-0.6,3.1-1,4.1-1.4c1-0.3,1.6-0.5,1.6-0.5s-0.5,0.2-1.5,0.7c-1,0.4-2.3,1-4,1.7c-1.7,0.7-3.6,1.5-5.6,2.3
		c-2.1,0.8-4.3,1.6-6.6,2.4c-1.1,0.4-2.3,0.7-3.4,1c-1.1,0.3-2.3,0.6-3.4,0.8c-1.1,0.2-2.2,0.4-3.2,0.6c-0.5,0.1-1,0.1-1.5,0.2
		c-0.5,0-0.9,0.1-1.4,0.1c-0.9,0.1-1.7,0.1-2.5,0.1c-0.7,0-1.4,0-1.9,0C412.8,67.3,412.2,67.2,412.2,67.2z"/>
</g>
<g>
	<path class="st11" d="M422.6,45.8c0,0,0.4,0,1.2,0c0.4,0,0.8,0,1.3,0c0.5-0.1,1.1-0.1,1.7-0.1c0.6-0.1,1.3-0.1,2-0.3
		c0.3-0.1,0.7-0.2,1.1-0.2c0.4-0.1,0.7-0.2,1.1-0.3c0.8-0.2,1.5-0.5,2.3-0.8c0.8-0.3,1.5-0.7,2.2-1.1c0.7-0.4,1.5-0.8,2.2-1.2
		c0.7-0.4,1.4-0.8,2.1-1.3c1.3-0.9,2.6-1.7,3.6-2.3c1.1-0.7,2-1.2,2.6-1.6c0.7-0.4,1-0.6,1-0.6s-1.3,1-3.3,2.6
		c-1,0.8-2.2,1.7-3.5,2.6c-0.7,0.5-1.3,0.9-2.1,1.4c-0.7,0.4-1.5,0.9-2.2,1.3c-0.8,0.4-1.6,0.7-2.3,1.1c-0.4,0.2-0.8,0.3-1.2,0.4
		c-0.4,0.1-0.8,0.3-1.2,0.3c-0.4,0.1-0.8,0.2-1.2,0.3c-0.4,0.1-0.8,0.1-1.1,0.2c-0.7,0.1-1.4,0.1-2.1,0.2c-0.6,0-1.2,0-1.8,0
		c-0.5,0-1-0.1-1.3-0.1C423,45.9,422.6,45.8,422.6,45.8z"/>
</g>
<g>
	<path class="st11" d="M399.3,119.9c0,0,0.4,0.2,1,0.6c0.3,0.2,0.7,0.5,1.1,0.7c0.5,0.2,0.9,0.5,1.5,0.8c0.6,0.3,1.2,0.6,1.8,0.8
		c0.3,0.1,0.7,0.3,1,0.4c0.4,0.1,0.7,0.2,1.1,0.3c0.7,0.2,1.5,0.4,2.3,0.5c0.8,0.1,1.6,0.3,2.5,0.3c0.8,0.1,1.7,0.1,2.5,0.2
		c0.8,0,1.6,0.1,2.4,0.1c1.6,0,3.1,0,4.3,0c1.3,0,2.3,0.1,3.1,0.1c0.7,0.1,1.2,0.1,1.2,0.1s-1.7,0.1-4.2,0.4
		c-1.3,0.1-2.7,0.2-4.3,0.3c-0.8,0-1.6,0.1-2.5,0c-0.8,0-1.7-0.1-2.6-0.1c-0.9-0.1-1.7-0.2-2.5-0.4c-0.4-0.1-0.8-0.2-1.2-0.3
		c-0.4-0.1-0.8-0.2-1.2-0.4c-0.4-0.1-0.8-0.3-1.1-0.4c-0.4-0.2-0.7-0.3-1-0.5c-0.7-0.3-1.3-0.7-1.8-1c-0.6-0.3-1-0.7-1.4-1
		c-0.4-0.3-0.8-0.6-1-0.9C399.6,120.2,399.3,119.9,399.3,119.9z"/>
</g>
<g>
	<g>
		<path class="st11" d="M203.7,104.3c0,0-1,0.2-2.6,0.7c-0.8,0.2-1.9,0.4-3,0.7c-1.2,0.3-2.5,0.5-4,0.8c-1.5,0.3-3.1,0.5-4.7,0.7
			c-1.7,0.2-3.5,0.4-5.3,0.6c-1.9,0.1-3.8,0.3-5.7,0.4c-1.9,0.1-3.9,0.2-5.9,0.2c-4,0-7.9,0-11.6,0c-3.7-0.1-7.2-0.2-10.1-0.3
			c-5.9-0.2-9.9-0.4-9.9-0.4s1,0,2.7-0.1c1.7,0,4.2-0.1,7.2-0.1c3,0,6.4,0,10.1,0c3.7,0,7.6,0,11.6-0.1c2,0,3.9-0.1,5.9-0.2
			c1.9-0.1,3.8-0.2,5.7-0.3c1.8-0.2,3.6-0.3,5.3-0.4c1.7-0.2,3.3-0.3,4.7-0.5c1.5-0.2,2.8-0.4,4-0.6c1.2-0.2,2.2-0.3,3.1-0.5
			C202.7,104.4,203.7,104.3,203.7,104.3z"/>
	</g>
	<g>
		<path class="st11" d="M189.7,89.9c0,0-0.9,0.1-2.5,0.2c-0.8,0.1-1.8,0.1-2.9,0.2c-1.1,0-2.4,0.1-3.8,0.1c-1.4,0-2.9-0.1-4.4-0.1
			c-1.6,0-3.2-0.2-5-0.4c-1.7-0.2-3.5-0.4-5.3-0.6c-1.8-0.2-3.6-0.5-5.4-0.8c-3.6-0.6-7.2-1.4-10.6-2.1c-3.4-0.7-6.5-1.5-9.2-2.1
			c-5.4-1.3-8.9-2.1-8.9-2.1s0.9,0.1,2.5,0.4c1.6,0.3,3.8,0.6,6.5,1.1c2.7,0.5,5.8,1.1,9.2,1.8c3.4,0.7,7,1.3,10.6,1.9
			c1.8,0.3,3.6,0.6,5.4,0.9c1.8,0.3,3.5,0.5,5.2,0.7c1.7,0.1,3.3,0.4,4.9,0.5c1.6,0.1,3,0.2,4.4,0.3c1.4,0.1,2.6,0.1,3.7,0.1
			c1.1,0,2.1,0.1,2.9,0C188.7,89.9,189.7,89.9,189.7,89.9z"/>
	</g>
	<g>
		<path class="st11" d="M168.8,67.9c0,0-0.6,0-1.8,0.1c-0.6,0-1.2,0-2,0c-0.8,0-1.7,0-2.6-0.1c-0.5,0-1-0.1-1.5-0.1
			c-0.5-0.1-1.1-0.1-1.6-0.2c-1.1-0.1-2.2-0.4-3.4-0.6c-1.2-0.3-2.4-0.5-3.6-0.9c-1.2-0.3-2.5-0.7-3.7-1.1c-2.4-0.8-4.9-1.7-7.1-2.6
			c-2.2-0.9-4.3-1.8-6.1-2.5c-3.5-1.5-5.9-2.5-5.9-2.5s0.6,0.2,1.7,0.5c1.1,0.3,2.6,0.8,4.4,1.5c1.8,0.6,3.9,1.4,6.2,2.2
			c1.1,0.4,2.3,0.8,3.5,1.2c1.2,0.4,2.4,0.8,3.6,1.2c1.2,0.4,2.4,0.8,3.6,1.1c1.2,0.4,2.4,0.7,3.6,1c1.2,0.2,2.3,0.6,3.4,0.7
			c0.5,0.1,1.1,0.2,1.6,0.3c0.5,0.1,1,0.1,1.5,0.2c0.9,0.2,1.8,0.2,2.6,0.3c0.8,0.1,1.5,0.2,2,0.2C168.1,67.8,168.8,67.9,168.8,67.9
			z"/>
	</g>
	<g>
		<path class="st11" d="M157.6,44.8c0,0-0.5,0.1-1.2,0.2c-0.4,0-0.9,0.1-1.4,0.2c-0.6,0-1.2,0.1-1.9,0c-0.7-0.1-1.4,0-2.2-0.2
			c-0.4-0.1-0.8-0.1-1.2-0.2c-0.4-0.1-0.8-0.2-1.2-0.3c-0.4-0.1-0.9-0.2-1.3-0.4c-0.4-0.1-0.9-0.3-1.3-0.5c-0.8-0.4-1.7-0.7-2.5-1.1
			c-0.8-0.4-1.6-0.9-2.4-1.4c-0.8-0.5-1.5-1-2.2-1.5c-1.4-1-2.7-2-3.8-2.8c-2.2-1.7-3.6-2.8-3.6-2.8s0.4,0.2,1.1,0.6
			c0.7,0.4,1.7,1,2.8,1.7c1.1,0.7,2.5,1.6,3.9,2.5c0.7,0.5,1.5,0.9,2.2,1.4c0.8,0.4,1.5,0.9,2.3,1.3c0.8,0.4,1.6,0.8,2.4,1.1
			c0.8,0.3,1.6,0.7,2.4,0.9c0.4,0.1,0.8,0.2,1.2,0.3c0.4,0.1,0.8,0.2,1.2,0.3c0.7,0.2,1.5,0.2,2.2,0.3c0.7,0.1,1.3,0.1,1.8,0.1
			c0.5,0.1,1,0,1.4,0C157.2,44.8,157.6,44.8,157.6,44.8z"/>
	</g>
	<g>
		<path class="st11" d="M182.7,124.6c0,0-0.3,0.3-0.9,0.8c-0.3,0.3-0.7,0.6-1.1,0.9c-0.5,0.3-1,0.7-1.6,1.1c-0.6,0.3-1.2,0.8-2,1.1
			c-0.4,0.2-0.7,0.3-1.1,0.5c-0.4,0.2-0.8,0.3-1.2,0.4c-0.4,0.2-0.8,0.3-1.3,0.4c-0.4,0.1-0.9,0.2-1.3,0.3c-0.9,0.2-1.8,0.3-2.7,0.4
			c-0.9,0.1-1.8,0.1-2.8,0.2c-0.9,0-1.8,0-2.7,0c-1.7-0.1-3.3-0.2-4.7-0.3c-2.7-0.2-4.6-0.4-4.6-0.4s0.5,0,1.3-0.1
			c0.8,0,1.9-0.1,3.3-0.1c1.4,0,3,0,4.7,0c0.9,0,1.7,0,2.6-0.1c0.9,0,1.8-0.1,2.7-0.2c0.9-0.1,1.8-0.2,2.7-0.4
			c0.9-0.2,1.7-0.3,2.5-0.6c0.4-0.1,0.8-0.2,1.2-0.4c0.4-0.1,0.8-0.3,1.1-0.4c0.7-0.2,1.4-0.6,2-0.9c0.6-0.3,1.1-0.6,1.6-0.9
			c0.5-0.3,0.9-0.5,1.2-0.8C182.3,124.8,182.7,124.6,182.7,124.6z"/>
	</g>
</g>
</svg>
