<?xml version="1.0" encoding="utf-8"?>
<!-- Generator: Adobe Illustrator 19.2.1, SVG Export Plug-In . SVG Version: 6.00 Build 0)  -->
<svg version="1.1" id="Capa_1" xmlns="http://www.w3.org/2000/svg" xmlns:xlink="http://www.w3.org/1999/xlink" x="0px" y="0px"
	 viewBox="0 0 431 310.3" style="enable-background:new 0 0 431 310.3;" xml:space="preserve">
<style type="text/css">
	.st0{fill:#009245;}
	.st1{fill:none;stroke:#A0DBA8;stroke-miterlimit:10;}
	.st2{fill:#39B54A;}
	.st3{fill:#FFC6EB;}
	.st4{fill:#C69C6D;}
	.st5{fill:none;stroke:#EBDBCB;stroke-miterlimit:10;}
	.st6{opacity:0.3;fill:#4D4D4D;}
	.st7{fill:#FFFFFF;}
	.st8{fill:#1D1D1B;}
	.st9{fill:#F7931E;}
	.st10{fill:#FBB03B;}
	.st11{fill:#ED1E79;}
	.st12{fill:#FFFFFF;stroke:#333333;stroke-miterlimit:10;}
	.st13{fill:#E6E6E6;stroke:#333333;stroke-linejoin:round;stroke-miterlimit:10;}
</style>
<g>
	<g>
		<path class="st0" d="M430.5,295.2c-173.2,63.5-299.4-91-325.2-135.7c-3.5-6.1-5.8-9.1-2.7-12c3.6-3.3,10,4,10,4
			s-10.6-10.4-6.1-15.1c4.5-4.7,12,5.1,12,5.1s-5.7-9-1.6-12.2c5.3-4.2,12.7,9.9,12.7,9.9s65.1,100.5,103.1,100.9
			c-45.7-38.4-93.9-102.9,10.3-133.5c0,0-3.7,10.5,0,0c43.8-125.1,124.1-10,154.9,21.9C369.5,44.1,411,28.8,414.5,27.6
			c0.2-0.1,0.3-0.2,0.4-0.2c6-1.6,12.7-3.1,13.8-2.3c7.1,5-9.5,11.4-9.5,11.4s10.2-2.4,10.3,3.3c0.1,5.8-6.4,5.8-6.4,5.8
			s5.7,1.9,5.7,7.1c0,5.2-8,2.4-8,2.4s-8.7,18.3,9.8,68C430.6,168.9,431.2,258.1,430.5,295.2z"/>
		<g>
			<g>
				<g>
					<path class="st1" d="M120.7,153.9"/>
				</g>
			</g>
			<g>
				<g>
					<path class="st2" d="M242.1,112.3c-1.8,0-3.7,0-5.5,0c-1.6,0-1.6,2.5,0,2.5c1.8,0,3.7,0,5.5,0
						C243.7,114.8,243.7,112.3,242.1,112.3L242.1,112.3z"/>
				</g>
			</g>
			<g>
				<g>
					<path class="st2" d="M230.7,116.3c-2.3,0.4-4.6,1.1-6.8,2c-1.5,0.6-0.8,3,0.7,2.4c2.2-0.9,4.5-1.5,6.8-2
						C232.9,118.4,232.2,116,230.7,116.3L230.7,116.3z"/>
				</g>
			</g>
			<g>
				<g>
					<path class="st2" d="M217.7,121.6c-2.4,0.9-4.5,2.1-6.5,3.8c-1.2,1,0.6,2.8,1.8,1.8c1.6-1.4,3.4-2.4,5.4-3.2
						C219.8,123.4,219.2,121,217.7,121.6L217.7,121.6z"/>
				</g>
			</g>
			<g>
				<g>
					<path class="st2" d="M205.9,129.3c-1.8,0.7-3.4,1.7-4.8,3c-1.2,1.1,0.6,2.9,1.8,1.8c1.1-1,2.3-1.8,3.7-2.3
						C208.1,131.1,207.4,128.7,205.9,129.3L205.9,129.3z"/>
				</g>
			</g>
			<g>
				<g>
					<path class="st2" d="M191.3,186.2c0.6,2.2,1.9,4.1,3.7,5.5c0.5,0.4,1.4,0.1,1.7-0.4c0.4-0.6,0.1-1.3-0.4-1.7
						c-1.3-1-2.2-2.4-2.6-4C193.3,184,190.9,184.6,191.3,186.2L191.3,186.2z"/>
				</g>
			</g>
			<g>
				<g>
					<path class="st2" d="M198,197.2c1,1.4,2.1,2.7,3.4,3.8c0.5,0.4,1.3,0.5,1.8,0c0.4-0.4,0.5-1.3,0-1.8c-1.2-1-2.2-2.1-3-3.3
						C199.3,194.6,197.1,195.8,198,197.2L198,197.2z"/>
				</g>
			</g>
			<g>
				<g>
					<path class="st2" d="M206.2,208.3c1.1,1.9,2.4,3.7,4.1,5.1c1.2,1.1,3-0.7,1.8-1.8c-1.5-1.3-2.7-2.9-3.7-4.6
						C207.5,205.6,205.4,206.8,206.2,208.3L206.2,208.3z"/>
				</g>
			</g>
			<g>
				<g>
					<path class="st2" d="M214.6,217.9c1.4,1.2,2.8,2.5,4.1,3.7c1.2,1.1,3-0.7,1.8-1.8c-1.4-1.2-2.8-2.5-4.1-3.7
						C215.1,215,213.4,216.8,214.6,217.9L214.6,217.9z"/>
				</g>
			</g>
			<g>
				<g>
					<path class="st2" d="M228.5,229.7c1.2,1.5,2.7,2.7,4.5,3.4c0.6,0.3,1.3,0.2,1.7-0.4c0.3-0.5,0.2-1.4-0.4-1.7
						c-1.6-0.7-2.9-1.7-4-3.1c-0.4-0.5-1.3-0.4-1.8,0C227.9,228.4,228,229.2,228.5,229.7L228.5,229.7z"/>
				</g>
			</g>
			<g>
				<g>
					<path class="st2" d="M236.7,239.7c2,1.8,4.1,3.4,6.2,5c1.3,1,2.5-1.2,1.3-2.2c-2-1.5-3.9-3-5.7-4.6
						C237.2,236.8,235.5,238.6,236.7,239.7L236.7,239.7z"/>
				</g>
			</g>
			<g>
				<g>
					<path class="st2" d="M248.9,250.9c1.4,1.4,3,2.4,4.9,3.1c0.6,0.3,1.4-0.3,1.5-0.9c0.2-0.7-0.3-1.3-0.9-1.5
						c-1.4-0.6-2.7-1.4-3.8-2.5C249.5,248,247.7,249.8,248.9,250.9L248.9,250.9z"/>
				</g>
			</g>
			<g>
				<g>
					<path class="st2" d="M261.4,258.3c1.6,2,3.9,3.3,6.4,3.7c1.6,0.2,2.3-2.2,0.7-2.4c-2.1-0.3-3.9-1.3-5.3-3
						C262.1,255.2,260.4,257,261.4,258.3L261.4,258.3z"/>
				</g>
			</g>
			<g>
				<g>
					<path class="st2" d="M275.6,267.7c1.6,0.4,3.2,0.9,4.9,1.3c1.6,0.4,2.2-2,0.7-2.4c-1.6-0.4-3.2-0.9-4.9-1.3
						C274.7,264.8,274,267.3,275.6,267.7L275.6,267.7z"/>
				</g>
			</g>
			<g>
				<g>
					<path class="st2" d="M286.3,272.6c2.2,0.6,4.5,0.9,6.8,0.6c1.6-0.1,1.6-2.6,0-2.5c-2.1,0.2-4.1,0-6.2-0.6
						C285.4,269.8,284.7,272.2,286.3,272.6L286.3,272.6z"/>
				</g>
			</g>
			<g>
				<g>
					<path class="st2" d="M302.6,277.2c1.7,0.3,3.5,0.6,5.2,1c1.6,0.3,2.2-2.1,0.7-2.4c-1.7-0.3-3.5-0.6-5.2-1
						C301.6,274.5,301,276.9,302.6,277.2L302.6,277.2z"/>
				</g>
			</g>
			<g>
				<g>
					<path class="st2" d="M314.3,279.4c1.8,0.3,3.7,0.5,5.5,0.4c1.6-0.1,1.6-2.6,0-2.5c-1.6,0.1-3.3,0-4.9-0.3
						C313.4,276.7,312.7,279.2,314.3,279.4L314.3,279.4z"/>
				</g>
			</g>
			<g>
				<g>
					<path class="st2" d="M330.2,281.4c1.8,0,3.7,0,5.5,0c1.6,0,1.6-2.5,0-2.5c-1.8,0-3.7,0-5.5,0
						C328.6,278.9,328.6,281.4,330.2,281.4L330.2,281.4z"/>
				</g>
			</g>
			<g>
				<g>
					<path class="st2" d="M344.9,281.8c0.8,0,1.5,0,2.3,0c1.6,0,1.6-2.5,0-2.5c-0.8,0-1.5,0-2.3,0
						C343.3,279.3,343.3,281.8,344.9,281.8L344.9,281.8z"/>
				</g>
			</g>
			<g>
				<g>
					<path class="st2" d="M358.5,282.4c1.6,0.1,3.3-0.1,4.9-0.4c1.6-0.3,0.9-2.7-0.7-2.4c-1.4,0.3-2.8,0.4-4.2,0.3
						C356.9,279.9,356.9,282.4,358.5,282.4L358.5,282.4z"/>
				</g>
			</g>
			<g>
				<g>
					<path class="st2" d="M370.2,281.7c2.7,0.1,5.4,0,8.1-0.3c1.6-0.2,1.6-2.7,0-2.5c-2.7,0.4-5.4,0.5-8.1,0.3
						C368.6,279.2,368.6,281.7,370.2,281.7L370.2,281.7z"/>
				</g>
			</g>
			<g>
				<g>
					<path class="st2" d="M388.1,280.3c1.7-0.2,3.5-0.4,5.2-0.6c1.6-0.2,1.6-2.7,0-2.5c-1.7,0.2-3.5,0.4-5.2,0.6
						C386.5,278,386.5,280.5,388.1,280.3L388.1,280.3z"/>
				</g>
			</g>
			<g>
				<g>
					<path class="st2" d="M402.5,278.9c1.6-0.4,3.2-0.7,4.9-1.1c1.6-0.4,0.9-2.8-0.7-2.4c-1.6,0.4-3.2,0.7-4.9,1.1
						C400.3,276.8,400.9,279.2,402.5,278.9L402.5,278.9z"/>
				</g>
			</g>
			<g>
				<g>
					<path class="st2" d="M413.8,276.6c2.3-0.2,4.4-0.8,6.5-1.8c1.4-0.7,0.2-2.9-1.3-2.2c-1.6,0.8-3.4,1.4-5.2,1.5
						C412.3,274.2,412.2,276.7,413.8,276.6L413.8,276.6z"/>
				</g>
			</g>
			<g>
				<g>
					<path class="st2" d="M429.1,269.5c-1.4,0.3-2.8,0.7-4.2,1c-1.6,0.4-0.9,2.8,0.7,2.4c1.4-0.3,2.8-0.7,4.2-1
						C431.3,271.5,430.7,269.1,429.1,269.5L429.1,269.5z"/>
				</g>
			</g>
			<g>
				<g>
					<path class="st2" d="M199.1,189.8c1.5,1.1,3,2.2,4.6,3.3c1.3,0.9,2.6-1.2,1.3-2.2c-1.5-1.1-3-2.2-4.6-3.3
						C199.1,186.7,197.8,188.9,199.1,189.8L199.1,189.8z"/>
				</g>
			</g>
			<g>
				<g>
					<path class="st2" d="M206.7,199.4c1.7,1.7,3.5,3.1,5.5,4.4c1.4,0.9,2.6-1.3,1.3-2.2c-1.8-1.1-3.5-2.5-5-4
						C207.3,196.5,205.5,198.3,206.7,199.4L206.7,199.4z"/>
				</g>
			</g>
			<g>
				<g>
					<path class="st2" d="M214,210.8c1.2,0.4,2.2,1.1,2.9,2.3c0.8,1.4,3,0.1,2.2-1.3c-1-1.7-2.5-2.9-4.4-3.4
						C213.2,208,212.5,210.4,214,210.8L214,210.8z"/>
				</g>
			</g>
			<g>
				<g>
					<path class="st2" d="M223.8,220.5c1.5,0.5,2.7,1.5,3.7,2.6c1,1.2,2.8-0.6,1.8-1.8c-1.3-1.5-2.9-2.6-4.8-3.3
						C223,217.5,222.3,220,223.8,220.5L223.8,220.5z"/>
				</g>
			</g>
			<g>
				<g>
					<path class="st2" d="M237.6,230.6c0.7,0.7,1.3,1.3,2,2c1.1,1.1,2.9-0.6,1.8-1.8c-0.7-0.7-1.3-1.3-2-2
						C238.2,227.7,236.4,229.5,237.6,230.6L237.6,230.6z"/>
				</g>
			</g>
			<g>
				<g>
					<path class="st2" d="M246.8,240.1c1.1,1.6,2.4,3,4,4.1c0.6,0.4,1.4,0.1,1.7-0.4c0.4-0.6,0.1-1.3-0.4-1.7
						c-1.2-0.9-2.3-2-3.1-3.2C248.1,237.5,245.9,238.8,246.8,240.1L246.8,240.1z"/>
				</g>
			</g>
			<g>
				<g>
					<path class="st2" d="M257.7,250.2c1.6,0.6,3.3,1.3,4.9,1.9c1.5,0.6,2.1-1.8,0.7-2.4c-1.6-0.6-3.3-1.3-4.9-1.9
						C256.8,247.2,256.2,249.6,257.7,250.2L257.7,250.2z"/>
				</g>
			</g>
			<g>
				<g>
					<path class="st2" d="M271,257.8c1.8,0.9,3.7,1.8,5.5,2.7c1.4,0.7,2.7-1.5,1.3-2.2c-1.8-0.9-3.7-1.8-5.5-2.7
						C270.8,255,269.6,257.1,271,257.8L271,257.8z"/>
				</g>
			</g>
			<g>
				<g>
					<path class="st2" d="M283.4,263.3c1.4,0.7,2.9,1.2,4.5,1.5c1.6,0.3,2.2-2.1,0.7-2.4c-1.4-0.2-2.7-0.6-3.9-1.3
						C283.2,260.4,282,262.6,283.4,263.3L283.4,263.3z"/>
				</g>
			</g>
			<g>
				<g>
					<path class="st2" d="M294.4,266.3c2.3,1.5,4.8,2.3,7.5,2.4c1.6,0.1,1.6-2.4,0-2.5c-2.3-0.1-4.3-0.8-6.2-2.1
						C294.3,263.3,293.1,265.4,294.4,266.3L294.4,266.3z"/>
				</g>
			</g>
			<g>
				<g>
					<path class="st2" d="M308.1,270.5c1.7,0.9,3.6,1.3,5.5,1.1c1.6-0.1,1.6-2.6,0-2.5c-1.5,0.1-2.9-0.1-4.3-0.8
						C307.9,267.6,306.7,269.8,308.1,270.5L308.1,270.5z"/>
				</g>
			</g>
			<g>
				<g>
					<path class="st2" d="M320.8,274.6c2.2,0,4.3,0,6.5,0c1.6,0,1.6-2.5,0-2.5c-2.2,0-4.3,0-6.5,0
						C319.2,272.1,319.2,274.6,320.8,274.6L320.8,274.6z"/>
				</g>
			</g>
			<g>
				<g>
					<path class="st2" d="M335.1,275.3c2.4-0.2,4.8-0.1,7.2,0.2c1.6,0.2,1.6-2.3,0-2.5c-2.4-0.3-4.8-0.4-7.2-0.2
						C333.5,272.9,333.5,275.4,335.1,275.3L335.1,275.3z"/>
				</g>
			</g>
			<g>
				<g>
					<path class="st2" d="M348.4,276.2c1.9-0.1,3.7-0.1,5.5,0.3c1.6,0.3,2.3-2.1,0.7-2.4c-2.1-0.3-4.1-0.5-6.2-0.3
						C346.8,273.8,346.8,276.3,348.4,276.2L348.4,276.2z"/>
				</g>
			</g>
			<g>
				<g>
					<path class="st2" d="M362.4,276.9c1.8,0,3.7,0,5.5,0c1.6,0,1.6-2.5,0-2.5c-1.8,0-3.7,0-5.5,0
						C360.8,274.4,360.8,276.9,362.4,276.9L362.4,276.9z"/>
				</g>
			</g>
			<g>
				<g>
					<path class="st2" d="M376.4,276.4c1.9-0.3,3.9-0.3,5.9-0.2c1.6,0.1,1.6-2.4,0-2.5c-2.2-0.2-4.3-0.1-6.5,0.3
						C374.2,274.2,374.8,276.6,376.4,276.4L376.4,276.4z"/>
				</g>
			</g>
			<g>
				<g>
					<path class="st2" d="M390.4,274.9c2.2-0.1,4.3-0.2,6.5-0.3c1.6-0.1,1.6-2.6,0-2.5c-2.2,0.1-4.3,0.2-6.5,0.3
						C388.8,272.5,388.8,275,390.4,274.9L390.4,274.9z"/>
				</g>
			</g>
			<g>
				<g>
					<path class="st2" d="M403.4,272.3c1.9,0.1,3.7-0.1,5.5-0.7c1.5-0.5,0.9-2.9-0.7-2.4c-1.6,0.5-3.2,0.7-4.9,0.6
						C401.8,269.7,401.8,272.2,403.4,272.3L403.4,272.3z"/>
				</g>
			</g>
			<g>
				<g>
					<path class="st2" d="M415.5,270c1.7,0,3.4-0.5,4.9-1.4c1.4-0.9,0.1-3-1.3-2.2c-1.1,0.7-2.3,1.1-3.6,1.1
						C413.9,267.6,413.9,270.1,415.5,270L415.5,270z"/>
				</g>
			</g>
			<g>
				<g>
					<path class="st2" d="M316.6,268.7c1.3,0.2,2.6,0.5,3.9,0.7c0.7,0.1,1.3-0.2,1.5-0.9c0.2-0.6-0.2-1.4-0.9-1.5
						c-1.3-0.2-2.6-0.5-3.9-0.7c-0.7-0.1-1.3,0.2-1.5,0.9C315.5,267.7,315.9,268.6,316.6,268.7L316.6,268.7z"/>
				</g>
			</g>
			<g>
				<g>
					<path class="st2" d="M327,269.4c2.7,0,5.4,0,8.1,0c1.6,0,1.6-2.5,0-2.5c-2.7,0-5.4,0-8.1,0C325.4,266.9,325.4,269.4,327,269.4
						L327,269.4z"/>
				</g>
			</g>
			<g>
				<g>
					<path class="st2" d="M342.3,270.3c1.5,0.1,3,0.2,4.6,0.4c1.6,0.1,1.6-2.4,0-2.5c-1.5-0.1-3-0.2-4.6-0.4
						C340.7,267.7,340.7,270.2,342.3,270.3L342.3,270.3z"/>
				</g>
			</g>
			<g>
				<g>
					<path class="st2" d="M355,270.4c1.4,0.1,2.8,0.2,4.2,0.4c1.6,0.1,1.6-2.4,0-2.5c-1.4-0.1-2.8-0.2-4.2-0.4
						C353.3,267.8,353.4,270.3,355,270.4L355,270.4z"/>
				</g>
			</g>
			<g>
				<g>
					<path class="st2" d="M367,272c2.4,0,4.8,0,7.2,0c1.6,0,1.6-2.5,0-2.5c-2.4,0-4.8,0-7.2,0C365.4,269.5,365.4,272,367,272
						L367,272z"/>
				</g>
			</g>
			<g>
				<g>
					<path class="st2" d="M382.3,271.3c1.7-0.5,3.5-1.1,5.2-1.6c1.5-0.5,0.9-2.9-0.7-2.4c-1.7,0.5-3.5,1.1-5.2,1.6
						C380.1,269.3,380.7,271.8,382.3,271.3L382.3,271.3z"/>
				</g>
			</g>
			<g>
				<g>
					<path class="st2" d="M394,268.6c1.5-0.3,3-0.6,4.6-0.9c1.6-0.3,0.9-2.7-0.7-2.4c-1.5,0.3-3,0.6-4.6,0.9
						C391.7,266.5,392.4,268.9,394,268.6L394,268.6z"/>
				</g>
			</g>
			<g>
				<g>
					<path class="st2" d="M408,266.3c2.2-0.2,4.4-0.5,6.5-0.7c1.6-0.2,1.6-2.7,0-2.5c-2.2,0.2-4.4,0.5-6.5,0.7
						C406.4,264,406.4,266.5,408,266.3L408,266.3z"/>
				</g>
			</g>
			<g>
				<g>
					<path class="st2" d="M422.6,264.8c2.2,0.2,4.4,0,6.5-0.7c1.5-0.5,0.9-2.9-0.7-2.4c-1.9,0.6-3.9,0.8-5.9,0.6
						C421,262.2,421,264.7,422.6,264.8L422.6,264.8z"/>
				</g>
			</g>
			<g>
				<g>
					<path class="st2" d="M345.2,265.5c2.1,0,4.1,0,6.2,0c1.6,0,1.6-2.5,0-2.5c-2.1,0-4.1,0-6.2,0
						C343.6,263,343.6,265.5,345.2,265.5L345.2,265.5z"/>
				</g>
			</g>
			<g>
				<g>
					<path class="st2" d="M361.5,266c2.1-0.3,4.1-0.4,6.2-0.2c1.6,0.1,1.6-2.4,0-2.5c-2.3-0.2-4.6,0-6.8,0.3
						C359.2,263.9,359.9,266.3,361.5,266L361.5,266z"/>
				</g>
			</g>
			<g>
				<g>
					<path class="st2" d="M374.1,266.1c2,0,3.9,0,5.9,0c1.6,0,1.6-2.5,0-2.5c-2,0-3.9,0-5.9,0C372.5,263.6,372.5,266.1,374.1,266.1
						L374.1,266.1z"/>
				</g>
			</g>
			<g>
				<g>
					<path class="st2" d="M386.5,263.8c2.2,0.1,4.3,0.1,6.5-0.2c1.6-0.2,1.6-2.7,0-2.5c-2.2,0.3-4.3,0.3-6.5,0.2
						C384.9,261.2,384.9,263.7,386.5,263.8L386.5,263.8z"/>
				</g>
			</g>
			<g>
				<g>
					<path class="st2" d="M400.5,261.6c2.4,0.1,4.8-0.2,7.2-1.1c1.5-0.5,0.9-3-0.7-2.4c-2.1,0.8-4.2,1.1-6.5,1
						C398.9,259,398.9,261.5,400.5,261.6L400.5,261.6z"/>
				</g>
			</g>
			<g>
				<g>
					<path class="st2" d="M415.5,260.2c1.4-0.2,2.8-0.4,4.2-0.6c0.7-0.1,1-0.9,0.9-1.5c-0.2-0.7-0.9-1-1.5-0.9
						c-1.4,0.2-2.8,0.4-4.2,0.6c-0.7,0.1-1,0.9-0.9,1.5C414.1,260,414.8,260.3,415.5,260.2L415.5,260.2z"/>
				</g>
			</g>
			<g>
				<g>
					<path class="st2" d="M425.2,257.7c1.7-0.1,3.3-0.5,4.9-1c1.5-0.5,0.9-3-0.7-2.4c-1.4,0.5-2.8,0.8-4.2,1
						C423.6,255.4,423.6,257.9,425.2,257.7L425.2,257.7z"/>
				</g>
			</g>
			<g>
				<g>
					<path class="st2" d="M359.2,259.6c0.7,0,1.3,0,2,0c1.6,0,1.6-2.5,0-2.5c-0.7,0-1.3,0-2,0C357.6,257.1,357.6,259.6,359.2,259.6
						L359.2,259.6z"/>
				</g>
			</g>
			<g>
				<g>
					<path class="st2" d="M368,259.5c1.6,0.8,3.2,1,4.9,0.7c0.7-0.1,1-0.9,0.9-1.5c-0.2-0.7-0.9-1-1.5-0.9c-1,0.2-2,0-2.9-0.5
						C367.8,256.6,366.5,258.8,368,259.5L368,259.5z"/>
				</g>
			</g>
			<g>
				<g>
					<path class="st2" d="M378,258.8c2,0.2,3.9,0.3,5.9,0.2c1.6-0.1,1.6-2.6,0-2.5c-2,0.1-3.9,0.1-5.9-0.2
						C376.4,256.1,376.5,258.6,378,258.8L378,258.8z"/>
				</g>
			</g>
			<g>
				<g>
					<path class="st2" d="M392.7,257c1.6,0,3.3,0,4.9,0c1.6,0,1.6-2.5,0-2.5c-1.6,0-3.3,0-4.9,0C391.1,254.5,391.1,257,392.7,257
						L392.7,257z"/>
				</g>
			</g>
			<g>
				<g>
					<path class="st2" d="M404.1,255.1c1.2,0,2.4,0,3.6,0c1.6,0,1.6-2.5,0-2.5c-1.2,0-2.4,0-3.6,0
						C402.5,252.6,402.5,255.1,404.1,255.1L404.1,255.1z"/>
				</g>
			</g>
			<g>
				<g>
					<path class="st2" d="M412.9,254.1c1.5,0.2,3.1,0.1,4.6-0.3c1.6-0.4,0.9-2.8-0.7-2.4c-1.3,0.3-2.6,0.4-3.9,0.2
						c-0.7-0.1-1.2,0.6-1.2,1.2C411.6,253.6,412.2,254,412.9,254.1L412.9,254.1z"/>
				</g>
			</g>
			<g>
				<g>
					<path class="st2" d="M423.9,253.4c0.7-0.3,1.5-0.4,2.3-0.2c0.7,0.1,1.3-0.2,1.5-0.9c0.2-0.6-0.2-1.4-0.9-1.5
						c-1.2-0.2-2.4-0.2-3.6,0.2C421.7,251.5,422.4,253.9,423.9,253.4L423.9,253.4z"/>
				</g>
			</g>
			<g>
				<g>
					<path class="st2" d="M370.6,253.5c1.2,0,2.4,0,3.6,0c1.6,0,1.6-2.5,0-2.5c-1.2,0-2.4,0-3.6,0C369,251,369,253.5,370.6,253.5
						L370.6,253.5z"/>
				</g>
			</g>
			<g>
				<g>
					<path class="st2" d="M301.9,102.2c2.1,0.6,4.3,0.9,6.5,0.9c1.6,0,1.6-2.5,0-2.5c-2,0-3.9-0.3-5.9-0.8
						C301,99.4,300.3,101.8,301.9,102.2L301.9,102.2z"/>
				</g>
			</g>
			<g>
				<g>
					<path class="st2" d="M313.3,103.9c1.9,1.1,4,1.8,6.1,2.2c1.6,0.3,2.2-2.1,0.7-2.4c-2-0.3-3.8-1-5.5-1.9
						C313.2,101,311.9,103.1,313.3,103.9L313.3,103.9z"/>
				</g>
			</g>
			<g>
				<g>
					<path class="st2" d="M328.2,108.7c1.8,0.7,3.5,1.4,5.3,2.2c1.5,0.6,2.1-1.8,0.7-2.4c-1.8-0.7-3.5-1.4-5.3-2.2
						C327.4,105.7,326.8,108.1,328.2,108.7L328.2,108.7z"/>
				</g>
			</g>
			<g>
				<g>
					<path class="st2" d="M342.2,114.2c2,0.7,3.9,1.5,5.9,2.2c1.5,0.6,2.2-1.8,0.7-2.4c-2-0.7-3.9-1.5-5.9-2.2
						C341.4,111.2,340.7,113.7,342.2,114.2L342.2,114.2z"/>
				</g>
			</g>
			<g>
				<g>
					<path class="st2" d="M353.7,119.5c1.1,0.6,2.2,1.2,3.3,1.9c1.4,0.8,2.7-1.4,1.3-2.2c-1.1-0.6-2.2-1.2-3.3-1.9
						C353.5,116.6,352.3,118.8,353.7,119.5L353.7,119.5z"/>
				</g>
			</g>
			<g>
				<g>
					<path class="st2" d="M363.1,127.5c1.4,0.5,2.4,1.5,3,2.8c0.7,1.4,2.9,0.2,2.2-1.3c-0.9-1.9-2.6-3.2-4.5-3.9
						C362.2,124.5,361.6,126.9,363.1,127.5L363.1,127.5z"/>
				</g>
			</g>
			<g>
				<g>
					<path class="st2" d="M374.2,135.4c0.6,2.1,2.1,3.7,4.2,4.4c0.6,0.2,1.4-0.3,1.5-0.9c0.2-0.7-0.2-1.3-0.9-1.5
						c-1.2-0.5-2.1-1.5-2.4-2.7C376.1,133.2,373.7,133.9,374.2,135.4L374.2,135.4z"/>
				</g>
			</g>
			<g>
				<g>
					<path class="st2" d="M383.2,147.7c0.9,1.2,1.7,2.4,2.6,3.6c0.4,0.5,1.1,0.8,1.7,0.4c0.5-0.3,0.8-1.2,0.4-1.7
						c-0.9-1.2-1.7-2.4-2.6-3.6c-0.4-0.5-1.1-0.8-1.7-0.4C383.1,146.3,382.8,147.2,383.2,147.7L383.2,147.7z"/>
				</g>
			</g>
			<g>
				<g>
					<path class="st2" d="M390.5,156.9c0.3,1.4,0.8,2.7,1.5,3.9c0.8,1.4,3,0.1,2.2-1.3c-0.6-1-1-2.1-1.2-3.3
						C392.6,154.6,390.2,155.3,390.5,156.9L390.5,156.9z"/>
				</g>
			</g>
			<g>
				<g>
					<path class="st2" d="M394.2,167.6c0.8,1.5,1.5,3,2.3,4.6c0.7,1.4,2.9,0.2,2.2-1.3c-0.8-1.5-1.5-3-2.3-4.6
						C395.6,164.9,393.5,166.2,394.2,167.6L394.2,167.6z"/>
				</g>
			</g>
			<g>
				<g>
					<path class="st2" d="M400.7,180.9c0.6,1.2,1.1,2.4,1.7,3.6c0.3,0.6,1.2,0.8,1.7,0.4c0.6-0.4,0.7-1.1,0.4-1.7
						c-0.6-1.2-1.1-2.4-1.7-3.6c-0.3-0.6-1.2-0.8-1.7-0.4C400.5,179.6,400.4,180.3,400.7,180.9L400.7,180.9z"/>
				</g>
			</g>
			<g>
				<g>
					<path class="st2" d="M405.3,191.7c0.4,0.8,0.8,1.5,1.3,2.3c0.8,1.4,2.9,0.1,2.2-1.3c-0.4-0.8-0.8-1.5-1.3-2.3
						C406.7,189,404.5,190.3,405.3,191.7L405.3,191.7z"/>
				</g>
			</g>
			<g>
				<g>
					<path class="st2" d="M410.8,200.8c1.1,1.6,2.6,2.9,4.3,3.7c1.4,0.7,2.7-1.5,1.3-2.2c-1.4-0.7-2.6-1.6-3.4-2.8
						C412.1,198.2,409.9,199.5,410.8,200.8L410.8,200.8z"/>
				</g>
			</g>
			<g>
				<g>
					<path class="st2" d="M420.3,206.2c1.8,0.8,3.7,1.5,5.5,2.3c1.5,0.6,2.1-1.8,0.7-2.4c-1.8-0.8-3.7-1.5-5.5-2.3
						C419.5,203.2,418.9,205.6,420.3,206.2L420.3,206.2z"/>
				</g>
			</g>
			<g>
				<g>
					<path class="st2" d="M398.1,188.4c0.8,1.6,1.5,3.2,2.3,4.9c0.7,1.5,2.8,0.2,2.2-1.3c-0.8-1.6-1.5-3.2-2.3-4.9
						C399.6,185.7,397.4,187,398.1,188.4L398.1,188.4z"/>
				</g>
			</g>
			<g>
				<g>
					<path class="st2" d="M402,198.2c1.2,2.3,2.9,4.2,5,5.7c1.3,0.9,2.6-1.2,1.3-2.2c-1.8-1.2-3.1-2.9-4.1-4.8
						C403.5,195.5,401.3,196.7,402,198.2L402,198.2z"/>
				</g>
			</g>
			<g>
				<g>
					<path class="st2" d="M412.6,209.2c1.7,1.7,4,2.7,6.4,2.6c1.6,0,1.6-2.5,0-2.5c-1.8,0-3.4-0.6-4.7-1.9
						C413.3,206.3,411.5,208,412.6,209.2L412.6,209.2z"/>
				</g>
			</g>
			<g>
				<g>
					<path class="st2" d="M423.9,213.7c0.7,0.1,1.3,0.2,2,0.3c0.7,0.1,1.3-0.2,1.5-0.9c0.2-0.6-0.2-1.4-0.9-1.5
						c-0.7-0.1-1.3-0.2-2-0.3c-0.7-0.1-1.3,0.2-1.5,0.9C422.9,212.8,423.3,213.6,423.9,213.7L423.9,213.7z"/>
				</g>
			</g>
			<g>
				<g>
					<path class="st2" d="M399.2,206.8c0.8,0.4,1.5,0.9,2.3,1.3c1.4,0.8,2.7-1.3,1.3-2.2c-0.8-0.4-1.5-0.9-2.3-1.3
						C399.1,203.8,397.8,206,399.2,206.8L399.2,206.8z"/>
				</g>
			</g>
			<g>
				<g>
					<path class="st2" d="M406,211.8c1.6,0.4,3.1,1,4.6,1.8c1.4,0.8,2.7-1.4,1.3-2.2c-1.6-0.9-3.4-1.6-5.2-2
						C405.1,209,404.5,211.4,406,211.8L406,211.8z"/>
				</g>
			</g>
			<g>
				<g>
					<path class="st2" d="M416.1,216.6c1.7,0.2,3.3,0.5,4.8,1.1c1.5,0.5,2.2-1.9,0.7-2.4c-1.8-0.6-3.6-1-5.5-1.2
						C414.5,214,414.5,216.5,416.1,216.6L416.1,216.6z"/>
				</g>
			</g>
			<g>
				<g>
					<path class="st2" d="M426.5,219.6c0.8,0,1.5,0,2.3,0c1.6,0,1.6-2.5,0-2.5c-0.8,0-1.5,0-2.3,0
						C424.9,217.1,424.9,219.6,426.5,219.6L426.5,219.6z"/>
				</g>
			</g>
			<g>
				<g>
					<path class="st2" d="M397.6,215.2c1.9,0.8,3.8,1.5,5.8,2.1c1.6,0.4,2.2-2,0.7-2.4c-1.8-0.5-3.5-1.1-5.2-1.8
						C397.4,212.4,396.1,214.6,397.6,215.2L397.6,215.2z"/>
				</g>
			</g>
			<g>
				<g>
					<path class="st2" d="M407.4,219.8c1.8,0.6,3.6,1.3,5.4,1.9c1.5,0.5,2.2-1.9,0.7-2.4c-1.8-0.6-3.6-1.3-5.4-1.9
						C406.5,216.8,405.9,219.3,407.4,219.8L407.4,219.8z"/>
				</g>
			</g>
			<g>
				<g>
					<path class="st2" d="M420.4,224.2c2-0.1,3.9-0.1,5.9,0.2c1.6,0.2,2.3-2.2,0.7-2.4c-2.2-0.3-4.3-0.5-6.5-0.3
						C418.8,221.8,418.7,224.3,420.4,224.2L420.4,224.2z"/>
				</g>
			</g>
			<g>
				<g>
					<path class="st2" d="M396.7,222.8c1.4,1.3,3.2,2.3,5.1,2.7c1.6,0.3,2.2-2.1,0.7-2.4c-1.5-0.3-2.9-0.9-4-2
						C397.3,219.9,395.5,221.7,396.7,222.8L396.7,222.8z"/>
				</g>
			</g>
			<g>
				<g>
					<path class="st2" d="M409.7,226.9c1.9,0.7,3.8,1.2,5.7,1.7c1.6,0.4,2.2-2.1,0.7-2.4c-2-0.4-3.9-1-5.7-1.7
						C408.8,223.9,408.2,226.3,409.7,226.9L409.7,226.9z"/>
				</g>
			</g>
			<g>
				<g>
					<path class="st2" d="M421.7,229.3c1.6,0.1,3.2,0.3,4.9,0.4c1.6,0.1,1.6-2.4,0-2.5c-1.6-0.1-3.2-0.3-4.9-0.4
						C420.1,226.7,420.1,229.2,421.7,229.3L421.7,229.3z"/>
				</g>
			</g>
			<g>
				<g>
					<path class="st2" d="M390.7,229.1c1,0.3,2,0.6,3,0.9c1.5,0.5,2.2-1.9,0.7-2.4c-1-0.3-2-0.6-3-0.9
						C389.8,226.2,389.2,228.6,390.7,229.1L390.7,229.1z"/>
				</g>
			</g>
			<g>
				<g>
					<path class="st2" d="M400.8,231.3c1.8,0.1,3.7,0.3,5.5,0.4c1.6,0.1,1.6-2.4,0-2.5c-1.8-0.1-3.7-0.3-5.5-0.4
						C399.2,228.7,399.2,231.2,400.8,231.3L400.8,231.3z"/>
				</g>
			</g>
			<g>
				<g>
					<path class="st2" d="M413.5,234.9c2.2,0,4.3,0,6.5,0c1.6,0,1.6-2.5,0-2.5c-2.2,0-4.3,0-6.5,0
						C411.9,232.4,411.9,234.9,413.5,234.9L413.5,234.9z"/>
				</g>
			</g>
			<g>
				<g>
					<path class="st2" d="M425.2,235.2c0.4,0,0.9,0,1.3,0c1.6,0,1.6-2.5,0-2.5c-0.4,0-0.9,0-1.3,0
						C423.6,232.7,423.6,235.2,425.2,235.2L425.2,235.2z"/>
				</g>
			</g>
			<g>
				<g>
					<path class="st2" d="M391.4,235.2c1.6,0.6,3.2,0.9,4.9,1c1.6,0.1,1.6-2.4,0-2.5c-1.5-0.1-2.9-0.4-4.2-0.9
						C390.5,232.3,389.9,234.7,391.4,235.2L391.4,235.2z"/>
				</g>
			</g>
			<g>
				<g>
					<path class="st2" d="M403.1,237.8c1.7,0.2,3.5,0.4,5.2,0.7c1.6,0.2,1.6-2.3,0-2.5c-1.7-0.2-3.5-0.4-5.2-0.7
						C401.5,235.1,401.5,237.6,403.1,237.8L403.1,237.8z"/>
				</g>
			</g>
			<g>
				<g>
					<path class="st2" d="M417.7,239.2c2,0.2,3.9,0.4,5.9,0.6c1.6,0.2,1.6-2.4,0-2.5c-2-0.2-3.9-0.4-5.9-0.6
						C416.1,236.6,416.1,239.1,417.7,239.2L417.7,239.2z"/>
				</g>
			</g>
			<g>
				<g>
					<path class="st2" d="M384.6,239c1.8,0.8,3.6,1,5.5,0.7c1.6-0.3,0.9-2.7-0.7-2.4c-1.2,0.2-2.5,0.1-3.6-0.4
						C384.4,236.2,383.1,238.4,384.6,239L384.6,239z"/>
				</g>
			</g>
			<g>
				<g>
					<path class="st2" d="M396,242.7c1.5,0.2,3,0.4,4.6,0.6c0.7,0.1,1.2-0.6,1.2-1.2c0-0.7-0.6-1.2-1.2-1.2c-1.5-0.2-3-0.4-4.6-0.6
						c-0.7-0.1-1.2,0.6-1.2,1.2C394.7,242.2,395.3,242.6,396,242.7L396,242.7z"/>
				</g>
			</g>
			<g>
				<g>
					<path class="st2" d="M410.3,244c2.2,0,4.3,0,6.5,0c1.6,0,1.6-2.5,0-2.5c-2.2,0-4.3,0-6.5,0C408.7,241.5,408.7,244,410.3,244
						L410.3,244z"/>
				</g>
			</g>
			<g>
				<g>
					<path class="st2" d="M424.6,246c0.7,0,1.3,0,2,0c1.6,0,1.6-2.5,0-2.5c-0.7,0-1.3,0-2,0C423,243.5,423,246,424.6,246L424.6,246z
						"/>
				</g>
			</g>
			<g>
				<g>
					<path class="st2" d="M379.7,245c1.1,0.2,2.2,0.4,3.3,0.6c0.7,0.1,1.3-0.2,1.5-0.9c0.2-0.6-0.2-1.4-0.9-1.5
						c-1.1-0.2-2.2-0.4-3.3-0.6c-0.7-0.1-1.3,0.2-1.5,0.9C378.6,244.1,379,244.9,379.7,245L379.7,245z"/>
				</g>
			</g>
			<g>
				<g>
					<path class="st2" d="M386.8,246.3c1.7,0.4,3.5,0.7,5.2,1.1c1.6,0.3,2.2-2.1,0.7-2.4c-1.7-0.4-3.5-0.7-5.2-1.1
						C385.9,243.5,385.3,245.9,386.8,246.3L386.8,246.3z"/>
				</g>
			</g>
			<g>
				<g>
					<path class="st2" d="M399.9,249.2c1.4,0,2.8,0,4.2,0c1.6,0,1.6-2.5,0-2.5c-1.4,0-2.8,0-4.2,0
						C398.2,246.7,398.2,249.2,399.9,249.2L399.9,249.2z"/>
				</g>
			</g>
			<g>
				<g>
					<path class="st2" d="M414.8,248.9c1.2,0.1,2.4,0.2,3.6,0.4c0.7,0.1,1.2-0.6,1.2-1.2c0-0.7-0.6-1.2-1.2-1.2
						c-1.2-0.1-2.4-0.2-3.6-0.4c-0.7-0.1-1.2,0.6-1.2,1.2C413.6,248.4,414.1,248.8,414.8,248.9L414.8,248.9z"/>
				</g>
			</g>
			<g>
				<g>
					<path class="st2" d="M379.3,251.3c1.5,0.1,3.1,0.3,4.6,0.4c1.6,0.1,1.6-2.4,0-2.5c-1.5-0.1-3.1-0.3-4.6-0.4
						C377.7,248.7,377.7,251.2,379.3,251.3L379.3,251.3z"/>
				</g>
			</g>
			<g>
				<g>
					<path class="st2" d="M390.7,252.2c0.7,0,1.3,0,2,0c1.6,0,1.6-2.5,0-2.5c-0.7,0-1.3,0-2,0C389.1,249.7,389.1,252.2,390.7,252.2
						L390.7,252.2z"/>
				</g>
			</g>
			<g>
				<g>
					<path class="st2" d="M239.1,118.5c-2.1,0.3-4.1,0.8-6.2,1.4c-1.5,0.4-0.9,2.9,0.7,2.4c2-0.6,4.1-1,6.2-1.4
						C241.4,120.6,240.7,118.2,239.1,118.5L239.1,118.5z"/>
				</g>
			</g>
			<g>
				<g>
					<path class="st2" d="M225.8,123.7c-2,0.5-3.9,1.1-5.9,1.6c-1.5,0.4-0.9,2.8,0.7,2.4c2-0.5,3.9-1.1,5.9-1.6
						C228,125.7,227.3,123.3,225.8,123.7L225.8,123.7z"/>
				</g>
			</g>
			<g>
				<g>
					<path class="st2" d="M213.8,131.4c-1,0.7-1.7,1.7-1.9,3c-0.1,0.7,0.2,1.3,0.9,1.5c0.6,0.2,1.4-0.2,1.5-0.9
						c0.1-0.6,0.4-1.2,0.8-1.5c0.5-0.4,0.8-1.1,0.4-1.7C215.2,131.3,214.3,131,213.8,131.4L213.8,131.4z"/>
				</g>
			</g>
			<g>
				<g>
					<path class="st2" d="M223.1,130.5c-2.2,0.8-4.2,2.2-5.7,4.1c-0.4,0.5-0.5,1.2,0,1.8c0.4,0.4,1.4,0.5,1.8,0
						c1.2-1.5,2.7-2.7,4.6-3.4C225.3,132.4,224.6,129.9,223.1,130.5L223.1,130.5z"/>
				</g>
			</g>
			<g>
				<g>
					<path class="st2" d="M230.3,129.7c1.6-0.4,3.1-0.9,4.6-1.6c1.4-0.7,0.2-2.9-1.3-2.2c-1.3,0.6-2.6,1.1-4,1.4
						C228.1,127.7,228.8,130.1,230.3,129.7L230.3,129.7z"/>
				</g>
			</g>
			<g>
				<g>
					<path class="st2" d="M243.4,124.3c1.2-0.1,2.4-0.3,3.6-0.4c0.7-0.1,1.2-0.5,1.2-1.2c0-0.6-0.6-1.3-1.2-1.2
						c-1.2,0.1-2.4,0.3-3.6,0.4c-0.7,0.1-1.2,0.5-1.2,1.2C242.1,123.7,242.7,124.4,243.4,124.3L243.4,124.3z"/>
				</g>
			</g>
			<g>
				<g>
					<path class="st2" d="M242,126.5c-1.3,0.4-2.5,0.8-3.8,1.2c-1.5,0.5-0.9,2.9,0.7,2.4c1.3-0.4,2.5-0.8,3.8-1.2
						C244.2,128.5,243.5,126,242,126.5L242,126.5z"/>
				</g>
			</g>
			<g>
				<g>
					<path class="st2" d="M231,132.5c-2.1-0.3-4.2,0.5-5.8,2c-1.2,1.1,0.6,2.9,1.8,1.8c1.1-1.1,2.5-1.4,4-1.2
						c0.7,0.1,1.2-0.6,1.2-1.2C232.2,133,231.7,132.6,231,132.5L231,132.5z"/>
				</g>
			</g>
			<g>
				<g>
					<path class="st2" d="M220.2,140.9c-1.7,0.7-3.2,1.7-4.4,3c-1.1,1.2,0.7,3,1.8,1.8c0.9-1,2-1.9,3.3-2.4c0.6-0.3,1.1-0.8,0.9-1.5
						C221.6,141.2,220.8,140.7,220.2,140.9L220.2,140.9z"/>
				</g>
			</g>
			<g>
				<g>
					<path class="st2" d="M204.7,182.9c0.3,1.4,1.1,2.5,2.2,3.3c0.5,0.4,1.4,0.1,1.7-0.4c0.4-0.6,0.1-1.3-0.4-1.7
						c-0.6-0.4-0.9-1.1-1.1-1.8c-0.1-0.7-0.9-1-1.5-0.9C204.9,181.6,204.6,182.2,204.7,182.9L204.7,182.9z"/>
				</g>
			</g>
			<g>
				<g>
					<path class="st2" d="M209.7,191.7c0.7,1.6,1.8,2.9,3.2,3.9c0.5,0.4,1.4,0.1,1.7-0.4c0.4-0.6,0.1-1.3-0.4-1.7
						c-1-0.8-1.8-1.8-2.3-3c-0.3-0.6-1.2-0.8-1.7-0.4C209.5,190.4,209.4,191.1,209.7,191.7L209.7,191.7z"/>
				</g>
			</g>
			<g>
				<g>
					<path class="st2" d="M215.9,202.7c1.2,1.6,2.7,2.9,4.4,4c1.4,0.9,2.6-1.3,1.3-2.2c-1.3-0.8-2.5-1.9-3.5-3.1
						c-0.4-0.5-1.1-0.8-1.7-0.4C215.8,201.3,215.5,202.2,215.9,202.7L215.9,202.7z"/>
				</g>
			</g>
			<g>
				<g>
					<path class="st2" d="M224.8,212.1c0.8,0.9,1.5,1.7,2.3,2.6c0.4,0.5,1.3,0.5,1.8,0c0.5-0.5,0.4-1.3,0-1.8
						c-0.8-0.9-1.5-1.7-2.3-2.6c-0.4-0.5-1.3-0.5-1.8,0C224.3,210.9,224.4,211.6,224.8,212.1L224.8,212.1z"/>
				</g>
			</g>
			<g>
				<g>
					<path class="st2" d="M232.1,219.9c1.1,0.9,2.2,1.7,3.3,2.6c0.5,0.4,1.3,0.5,1.8,0c0.4-0.4,0.5-1.3,0-1.8
						c-1.1-0.9-2.2-1.7-3.3-2.6c-0.5-0.4-1.3-0.5-1.8,0C231.6,218.6,231.5,219.5,232.1,219.9L232.1,219.9z"/>
				</g>
			</g>
			<g>
				<g>
					<path class="st2" d="M242.5,228.3c1.7,1.7,3.5,3.5,5.2,5.2c1.1,1.1,2.9-0.6,1.8-1.8c-1.7-1.7-3.5-3.5-5.2-5.2
						C243.1,225.4,241.4,227.2,242.5,228.3L242.5,228.3z"/>
				</g>
			</g>
			<g>
				<g>
					<path class="st2" d="M253.5,240.4c1,0.8,2,1.5,2.9,2.3c0.5,0.4,1.2,0.5,1.8,0c0.4-0.4,0.5-1.4,0-1.8c-1-0.8-2-1.5-2.9-2.3
						c-0.5-0.4-1.2-0.5-1.8,0C253.1,239.1,253,240,253.5,240.4L253.5,240.4z"/>
				</g>
			</g>
			<g>
				<g>
					<path class="st2" d="M237.4,218.3c0.8,1.3,1.9,2.4,3.3,3.1c0.6,0.3,1.3,0.2,1.7-0.4c0.3-0.5,0.2-1.4-0.4-1.7
						c-1-0.5-1.9-1.2-2.5-2.2C238.8,215.7,236.6,216.9,237.4,218.3L237.4,218.3z"/>
				</g>
			</g>
			<g>
				<g>
					<path class="st2" d="M231.4,211.1c0.2,0.2,0.4,0.4,0.7,0.7c1.1,1.1,2.9-0.6,1.8-1.8c-0.2-0.2-0.4-0.4-0.7-0.7
						C232,208.2,230.3,210,231.4,211.1L231.4,211.1z"/>
				</g>
			</g>
			<g>
				<g>
					<path class="st2" d="M222.6,203c1.1,1.1,2.2,2.2,3.2,3.3c1.1,1.1,2.9-0.6,1.8-1.8c-1.1-1.1-2.2-2.2-3.2-3.3
						C223.3,200,221.5,201.8,222.6,203L222.6,203z"/>
				</g>
			</g>
			<g>
				<g>
					<path class="st2" d="M216.4,192.6c0.9,0.7,1.6,1.6,2,2.7c0.2,0.6,0.8,1.1,1.5,0.9c0.6-0.2,1.1-0.9,0.9-1.5
						c-0.5-1.5-1.4-2.8-2.6-3.8c-0.5-0.4-1.3-0.5-1.8,0C216,191.2,215.9,192.1,216.4,192.6L216.4,192.6z"/>
				</g>
			</g>
			<g>
				<g>
					<path class="st2" d="M212.5,181.3c0.2,1.3,0.7,2.5,1.6,3.5c1.1,1.1,2.9-0.6,1.8-1.8c-0.5-0.5-0.8-1.1-0.9-1.7
						c-0.1-0.7-0.5-1.2-1.2-1.2C213.1,180,212.4,180.6,212.5,181.3L212.5,181.3z"/>
				</g>
			</g>
			<g>
				<g>
					<path class="st2" d="M223.3,143.5c-0.4,1.1-0.9,2.2-1.3,3.3c-0.3,0.6,0.3,1.4,0.9,1.5c0.7,0.2,1.3-0.2,1.5-0.9
						c0.4-1.1,0.9-2.2,1.3-3.3c0.3-0.6-0.3-1.4-0.9-1.5C224.1,142.5,223.5,142.9,223.3,143.5L223.3,143.5z"/>
				</g>
			</g>
			<g>
				<g>
					<path class="st2" d="M221.6,156.5c-0.1,1.9,0,3.7,0.3,5.5c0.3,1.6,2.7,0.9,2.4-0.7c-0.3-1.6-0.4-3.2-0.3-4.9
						C224.2,154.9,221.7,155,221.6,156.5L221.6,156.5z"/>
				</g>
			</g>
			<g>
				<g>
					<path class="st2" d="M222.9,171.9c0.3,1.6,0.8,3.1,1.5,4.5c0.7,1.4,2.9,0.2,2.2-1.3c-0.6-1.2-1-2.6-1.2-3.9
						C225.1,169.6,222.6,170.3,222.9,171.9L222.9,171.9z"/>
				</g>
			</g>
			<g>
				<g>
					<path class="st2" d="M225.2,186.2c0.2,1.2,0.8,2.3,1.6,3.2c1.1,1.2,2.9-0.6,1.8-1.8c-0.6-0.6-0.8-1.3-0.9-2.1
						c-0.1-0.7-0.9-1-1.5-0.9C225.4,184.8,225.2,185.5,225.2,186.2L225.2,186.2z"/>
				</g>
			</g>
			<g>
				<g>
					<path class="st2" d="M229.5,197.5c0.5,1.8,1.4,3.4,2.6,4.8c0.4,0.5,1.3,0.4,1.8,0c0.5-0.5,0.4-1.2,0-1.8
						c-0.9-1.1-1.5-2.4-1.9-3.7C231.4,195.3,229,196,229.5,197.5L229.5,197.5z"/>
				</g>
			</g>
			<g>
				<g>
					<path class="st2" d="M223.5,192.7c0,1.5,0.7,2.8,1.9,3.7c0.6,0.4,1.4,0.1,1.7-0.4c0.4-0.6,0.1-1.3-0.4-1.7
						c-0.5-0.3-0.7-0.9-0.7-1.5C226.1,191.1,223.6,191.1,223.5,192.7L223.5,192.7z"/>
				</g>
			</g>
			<g>
				<g>
					<path class="st2" d="M217.6,181.3c0.2,1.7,0.7,3.3,1.6,4.8c0.8,1.4,3,0.1,2.2-1.3c-0.7-1.1-1.1-2.3-1.2-3.6
						C220,179.7,217.5,179.7,217.6,181.3L217.6,181.3z"/>
				</g>
			</g>
			<g>
				<g>
					<path class="st2" d="M217.4,164c0,1.6,0,3.3,0,4.9c0,1.6,2.5,1.6,2.5,0c0-1.6,0-3.3,0-4.9C219.9,162.4,217.4,162.4,217.4,164
						L217.4,164z"/>
				</g>
			</g>
			<g>
				<g>
					<path class="st2" d="M217.1,150.7c-0.4,1.4-0.9,2.8-1.3,4.2c-0.5,1.5,1.9,2.2,2.4,0.7c0.4-1.4,0.9-2.8,1.3-4.2
						C220,149.8,217.6,149.2,217.1,150.7L217.1,150.7z"/>
				</g>
			</g>
			<g>
				<g>
					<path class="st2" d="M212.1,170.6c0.7,1.9,1.3,3.9,2,5.8c0.5,1.5,2.9,0.9,2.4-0.7c-0.7-1.9-1.3-3.9-2-5.8
						C214,168.4,211.6,169,212.1,170.6L212.1,170.6z"/>
				</g>
			</g>
			<g>
				<g>
					<path class="st2" d="M254.3,120.4c0.5-1.7,1.1-3.5,1.6-5.2c0.5-1.5-1.9-2.2-2.4-0.7c-0.5,1.7-1.1,3.5-1.6,5.2
						C251.4,121.3,253.8,122,254.3,120.4L254.3,120.4z"/>
				</g>
			</g>
			<g>
				<g>
					<path class="st2" d="M259.2,108.9c1.3-1.9,3-3.4,5-4.5c1.4-0.8,0.2-2.9-1.3-2.2c-2.4,1.3-4.4,3.1-5.9,5.4
						C256.2,109,258.4,110.3,259.2,108.9L259.2,108.9z"/>
				</g>
			</g>
			<g>
				<g>
					<path class="st2" d="M271.4,101.6c1.9-0.5,3.9-1,5.8-1.5c1.6-0.4,0.9-2.8-0.7-2.4c-1.9,0.5-3.9,1-5.8,1.5
						C269.1,99.5,269.8,102,271.4,101.6L271.4,101.6z"/>
				</g>
			</g>
			<g>
				<g>
					<path class="st2" d="M286.3,99.5c2.1,0.2,4.1,0.5,6.2,0.7c1.6,0.2,1.6-2.3,0-2.5c-2.1-0.2-4.1-0.5-6.2-0.7
						C284.7,96.8,284.7,99.3,286.3,99.5L286.3,99.5z"/>
				</g>
			</g>
			<g>
				<g>
					<path class="st2" d="M249.3,115.2c1-2.1,2.3-4,3.9-5.7c1.1-1.2-0.7-2.9-1.8-1.8c-1.8,1.8-3.2,3.9-4.3,6.2
						C246.5,115.4,248.6,116.7,249.3,115.2L249.3,115.2z"/>
				</g>
			</g>
			<g>
				<g>
					<path class="st2" d="M258.1,102c1.8-1.9,3.8-3.5,6.1-4.9c1.4-0.8,0.1-3-1.3-2.2c-2.4,1.5-4.6,3.2-6.6,5.2
						C255.2,101.4,257,103.2,258.1,102L258.1,102z"/>
				</g>
			</g>
			<g>
				<g>
					<path class="st2" d="M273.3,95.6c2.3-0.8,4.7-1.1,7.2-0.9c1.6,0.1,1.6-2.4,0-2.5c-2.7-0.2-5.3,0.1-7.8,1
						C271.1,93.7,271.8,96.1,273.3,95.6L273.3,95.6z"/>
				</g>
			</g>
			<g>
				<g>
					<path class="st2" d="M292.8,95.6c1.8,0.2,3.7,0.5,5.5,0.7c1.6,0.2,1.6-2.3,0-2.5c-1.8-0.2-3.7-0.5-5.5-0.7
						C291.2,92.9,291.2,95.4,292.8,95.6L292.8,95.6z"/>
				</g>
			</g>
			<g>
				<g>
					<path class="st2" d="M306.1,97.6c2.1,0.6,4.3,0.8,6.5,0.7c1.6-0.1,1.6-2.6,0-2.5c-2,0.1-3.9-0.1-5.8-0.6
						C305.3,94.7,304.6,97.1,306.1,97.6L306.1,97.6z"/>
				</g>
			</g>
			<g>
				<g>
					<path class="st2" d="M321.1,100.5c2.2,0.9,4.3,1.7,6.5,2.6c1.5,0.6,2.1-1.8,0.7-2.4c-2.2-0.9-4.3-1.7-6.5-2.6
						C320.3,97.5,319.6,99.9,321.1,100.5L321.1,100.5z"/>
				</g>
			</g>
			<g>
				<g>
					<path class="st2" d="M335.7,105.7c1.7,0.7,3.5,1.3,5.2,2c1.5,0.6,2.2-1.8,0.7-2.4c-1.7-0.7-3.5-1.3-5.2-2
						C334.9,102.7,334.3,105.1,335.7,105.7L335.7,105.7z"/>
				</g>
			</g>
			<g>
				<g>
					<path class="st2" d="M348.8,111.6c1.6,0,3.2,0.4,4.6,1c1.5,0.7,2.7-1.5,1.3-2.2c-1.9-0.8-3.8-1.3-5.9-1.4
						C347.2,109.1,347.2,111.6,348.8,111.6L348.8,111.6z"/>
				</g>
			</g>
			<g>
				<g>
					<path class="st2" d="M361.1,119c1.6,1.2,3.3,2.4,4.9,3.6c1.3,0.9,2.6-1.2,1.3-2.2c-1.6-1.2-3.3-2.4-4.9-3.6
						C361.1,115.9,359.8,118,361.1,119L361.1,119z"/>
				</g>
			</g>
			<g>
				<g>
					<path class="st2" d="M371.3,127.2c0.7,0.5,1.3,1.1,2,1.6c0.5,0.4,1.3,0.5,1.8,0c0.4-0.4,0.5-1.3,0-1.8c-0.7-0.5-1.3-1.1-2-1.6
						c-0.5-0.4-1.3-0.5-1.8,0C370.9,125.9,370.8,126.8,371.3,127.2L371.3,127.2z"/>
				</g>
			</g>
			<g>
				<g>
					<path class="st2" d="M382.1,137.6c1.2,0.9,2.1,2,2.7,3.3c0.7,1.4,2.9,0.2,2.2-1.3c-0.8-1.5-1.8-2.8-3.1-3.8
						c-0.5-0.4-1.3-0.5-1.8,0C381.6,136.2,381.5,137.1,382.1,137.6L382.1,137.6z"/>
				</g>
			</g>
			<g>
				<g>
					<path class="st2" d="M390.7,147.7c0.6,1.1,1.3,2.2,1.9,3.3c0.8,1.4,3,0.1,2.2-1.3c-0.6-1.1-1.3-2.2-1.9-3.3
						C392,145.1,389.8,146.3,390.7,147.7L390.7,147.7z"/>
				</g>
			</g>
			<g>
				<g>
					<path class="st2" d="M397.4,159.5c0.7,1.4,1.7,2.7,2.9,3.8c1.2,1.1,3-0.7,1.8-1.8c-1-1-1.8-2-2.5-3.3
						C398.9,156.8,396.7,158,397.4,159.5L397.4,159.5z"/>
				</g>
			</g>
			<g>
				<g>
					<path class="st2" d="M401,170.5c0.6,1.1,1.3,2.2,1.9,3.3c0.8,1.4,3,0.1,2.2-1.3c-0.6-1.1-1.3-2.2-1.9-3.3
						C402.4,167.9,400.2,169.1,401,170.5L401,170.5z"/>
				</g>
			</g>
			<g>
				<g>
					<path class="st2" d="M406.9,183.2c0.5,1.1,0.9,2.1,1.4,3.2c0.3,0.6,1.2,0.8,1.7,0.4c0.6-0.4,0.7-1.1,0.4-1.7
						c-0.5-1.1-0.9-2.1-1.4-3.2c-0.3-0.6-1.2-0.8-1.7-0.4C406.7,181.9,406.6,182.6,406.9,183.2L406.9,183.2z"/>
				</g>
			</g>
			<g>
				<g>
					<path class="st2" d="M412.7,192.5c1,0.8,1.9,1.5,2.9,2.3c0.5,0.4,1.3,0.5,1.8,0c0.4-0.4,0.5-1.3,0-1.8c-1-0.8-1.9-1.5-2.9-2.3
						c-0.5-0.4-1.3-0.5-1.8,0C412.2,191.2,412.1,192.1,412.7,192.5L412.7,192.5z"/>
				</g>
			</g>
			<g>
				<g>
					<path class="st2" d="M417.9,197.6c1.1,1.5,2.6,2.6,4.4,3.1c1.6,0.4,2.2-2,0.7-2.4c-1.1-0.3-2.2-0.9-2.9-1.9
						c-0.4-0.5-1.1-0.8-1.7-0.4C417.8,196.2,417.5,197,417.9,197.6L417.9,197.6z"/>
				</g>
			</g>
			<g>
				<g>
					<path class="st2" d="M427.5,202c1.6,0,1.6-2.5,0-2.5C425.9,199.5,425.9,202,427.5,202L427.5,202z"/>
				</g>
			</g>
			<g>
				<g>
					<path class="st2" d="M408.7,175.8c1,0.8,1.7,2,2,3.2c0.4,1.6,2.8,0.9,2.4-0.7c-0.5-1.9-1.6-3.5-3.2-4.7
						c-0.5-0.4-1.4-0.1-1.7,0.4C407.9,174.7,408.2,175.4,408.7,175.8L408.7,175.8z"/>
				</g>
			</g>
			<g>
				<g>
					<path class="st2" d="M415.2,186.1c0.8,0.8,1.5,1.5,2.3,2.3c1.1,1.1,2.9-0.6,1.8-1.8c-0.8-0.8-1.5-1.5-2.3-2.3
						C415.9,183.2,414.1,184.9,415.2,186.1L415.2,186.1z"/>
				</g>
			</g>
			<g>
				<g>
					<path class="st2" d="M422.6,194.2c0.7,0.3,1.3,0.6,2,0.9c0.6,0.3,1.3,0.2,1.7-0.4c0.3-0.5,0.2-1.4-0.4-1.7
						c-0.7-0.3-1.3-0.6-2-0.9c-0.6-0.3-1.3-0.2-1.7,0.4C421.8,193,422,193.9,422.6,194.2L422.6,194.2z"/>
				</g>
			</g>
			<g>
				<g>
					<path class="st2" d="M420.9,183.9c0.6,1.2,1.6,2.1,2.7,2.7c0.6,0.3,1.4,0.2,1.7-0.4c0.3-0.6,0.2-1.4-0.4-1.7
						c-0.8-0.4-1.4-1-1.8-1.8c-0.3-0.6-1.1-0.8-1.7-0.4C420.7,182.5,420.6,183.3,420.9,183.9L420.9,183.9z"/>
				</g>
			</g>
			<g>
				<g>
					<path class="st2" d="M414.1,176c0.8,1.5,2.1,2.5,3.7,3.2c0.6,0.3,1.4-0.3,1.5-0.9c0.2-0.7-0.2-1.3-0.9-1.5
						c-1-0.4-1.7-1.1-2.2-2C415.4,173.4,413.3,174.6,414.1,176L414.1,176z"/>
				</g>
			</g>
			<g>
				<g>
					<path class="st2" d="M405.1,164.6c1.1,1.3,2,2.7,2.7,4.3c0.6,1.5,2.8,0.2,2.2-1.3c-0.8-1.8-1.8-3.4-3.1-4.8
						C405.8,161.7,404,163.4,405.1,164.6L405.1,164.6z"/>
				</g>
			</g>
			<g>
				<g>
					<path class="st2" d="M399.3,152.2c0.9,0.7,1.8,1.5,2.7,2.2c0.5,0.4,1.3,0.5,1.8,0c0.4-0.4,0.5-1.3,0-1.8
						c-0.9-0.7-1.8-1.5-2.7-2.2c-0.5-0.4-1.3-0.5-1.8,0C398.9,150.9,398.8,151.8,399.3,152.2L399.3,152.2z"/>
				</g>
			</g>
			<g>
				<g>
					<path class="st2" d="M389.5,137.9c1.1,1.2,2.2,2.4,3.3,3.5c1.1,1.2,2.9-0.6,1.8-1.8c-1.1-1.2-2.2-2.4-3.3-3.5
						C390.2,135,388.4,136.7,389.5,137.9L389.5,137.9z"/>
				</g>
			</g>
			<g>
				<g>
					<path class="st2" d="M379.3,128.7c1.5,1.1,3,2.2,4.5,3.3c1.3,0.9,2.6-1.2,1.3-2.2c-1.5-1.1-3-2.2-4.5-3.3
						C379.3,125.6,378,127.8,379.3,128.7L379.3,128.7z"/>
				</g>
			</g>
			<g>
				<g>
					<path class="st2" d="M369.6,118c1.5,0.9,3.1,1.8,4.6,2.8c1.4,0.8,2.6-1.3,1.3-2.2c-1.5-0.9-3.1-1.8-4.6-2.8
						C369.5,115,368.2,117.1,369.6,118L369.6,118z"/>
				</g>
			</g>
			<g>
				<g>
					<path class="st2" d="M358,110.3c1.5,1.7,3.5,2.8,5.8,3.2c1.6,0.2,2.3-2.2,0.7-2.4c-1.9-0.3-3.4-1.1-4.7-2.5
						C358.7,107.3,356.9,109.1,358,110.3L358,110.3z"/>
				</g>
			</g>
			<g>
				<g>
					<path class="st2" d="M344.5,104.4c1.9,0.6,3.8,1.2,5.6,2c1.5,0.6,2.7-1.5,1.3-2.2c-2-0.9-4.1-1.6-6.2-2.2
						C343.7,101.5,343,103.9,344.5,104.4L344.5,104.4z"/>
				</g>
			</g>
			<g>
				<g>
					<path class="st2" d="M330.9,98.2c1.6,0.2,3.1,0.8,4.5,1.6c1.4,0.8,2.6-1.3,1.3-2.2c-1.8-1.1-3.7-1.7-5.8-1.9
						C329.3,95.5,329.3,98,330.9,98.2L330.9,98.2z"/>
				</g>
			</g>
			<g>
				<g>
					<path class="st2" d="M319.2,95c1.3-0.2,2.7,0.1,3.9,0.6c0.6,0.3,1.4-0.3,1.5-0.9c0.2-0.7-0.3-1.3-0.9-1.5
						c-1.7-0.7-3.4-0.8-5.2-0.6c-0.7,0.1-1,0.9-0.9,1.5C317.8,94.8,318.5,95.1,319.2,95L319.2,95z"/>
				</g>
			</g>
			<g>
				<g>
					<path class="st2" d="M250.8,104.1c1-1.8,2.1-3.4,3.5-4.9c1.1-1.2-0.7-2.9-1.8-1.8c-1.5,1.6-2.9,3.4-3.9,5.4
						C247.9,104.2,250,105.5,250.8,104.1L250.8,104.1z"/>
				</g>
			</g>
			<g>
				<g>
					<path class="st2" d="M263.1,92.4c1.9-1.6,4.1-2.6,6.6-3c1.6-0.3,0.9-2.7-0.7-2.4c-2.9,0.5-5.5,1.7-7.7,3.6
						C260.1,91.7,261.9,93.4,263.1,92.4L263.1,92.4z"/>
				</g>
			</g>
			<g>
				<g>
					<path class="st2" d="M278.8,89.5c1.8,0,3.7,0,5.5,0c1.6,0,1.6-2.5,0-2.5c-1.8,0-3.7,0-5.5,0C277.2,87,277.2,89.5,278.8,89.5
						L278.8,89.5z"/>
				</g>
			</g>
			<g>
				<g>
					<path class="st2" d="M253.1,93.5c2-1.4,3.9-2.8,5.9-4.2c1.3-0.9,0-3.1-1.3-2.2c-2,1.4-3.9,2.8-5.9,4.2
						C250.6,92.3,251.8,94.5,253.1,93.5L253.1,93.5z"/>
				</g>
			</g>
			<g>
				<g>
					<path class="st2" d="M267.1,84.3c2-0.2,3.9-0.3,5.9-0.5c1.6-0.1,1.6-2.6,0-2.5c-2,0.2-3.9,0.3-5.9,0.5
						C265.5,81.9,265.5,84.4,267.1,84.3L267.1,84.3z"/>
				</g>
			</g>
			<g>
				<g>
					<path class="st2" d="M257.9,82.9c1.6-1.8,3.1-3.7,4.4-5.8c0.9-1.3-1.3-2.6-2.2-1.3c-1.2,1.9-2.6,3.6-4,5.3
						C255,82.3,256.8,84.1,257.9,82.9L257.9,82.9z"/>
				</g>
			</g>
			<g>
				<g>
					<path class="st2" d="M266.7,71.2c1.3-1.4,2.7-2.8,4.2-3.9c0.5-0.4,0.4-1.3,0-1.8c-0.5-0.5-1.2-0.4-1.8,0
						c-1.5,1.2-2.9,2.5-4.2,3.9C263.9,70.6,265.6,72.4,266.7,71.2L266.7,71.2z"/>
				</g>
			</g>
			<g>
				<g>
					<path class="st2" d="M276.9,62.3c1.1-1.3,2.5-2.2,4.2-2.7c1.6-0.4,0.9-2.8-0.7-2.4c-2.1,0.5-3.9,1.7-5.3,3.3
						C274.1,61.7,275.8,63.5,276.9,62.3L276.9,62.3z"/>
				</g>
			</g>
			<g>
				<g>
					<path class="st2" d="M266.5,79.3c1.9-0.9,3.6-2.1,5-3.6c1.1-1.2-0.7-2.9-1.8-1.8c-1.3,1.4-2.8,2.4-4.5,3.2
						C263.8,77.9,265,80,266.5,79.3L266.5,79.3z"/>
				</g>
			</g>
			<g>
				<g>
					<path class="st2" d="M275.8,70.6c1.3-1,2.8-1.8,4.4-2.3c1.5-0.5,0.9-2.9-0.7-2.4c-1.8,0.6-3.4,1.5-5,2.6
						C273.2,69.4,274.5,71.6,275.8,70.6L275.8,70.6z"/>
				</g>
			</g>
			<g>
				<g>
					<path class="st2" d="M330.6,69.8c1.4,1,2.8,2,4.2,2.9c1.3,0.9,2.6-1.2,1.3-2.2c-1.4-1-2.8-2-4.2-2.9
						C330.5,66.7,329.3,68.9,330.6,69.8L330.6,69.8z"/>
				</g>
			</g>
			<g>
				<g>
					<path class="st2" d="M340.1,77.3c1.8,1.6,3.7,3.1,5.7,4.5c1.3,0.9,2.6-1.2,1.3-2.2c-1.8-1.3-3.5-2.7-5.2-4.1
						C340.7,74.5,338.9,76.3,340.1,77.3L340.1,77.3z"/>
				</g>
			</g>
			<g>
				<g>
					<path class="st2" d="M352.1,89.6c1.1,0.7,2.2,1.5,3.3,2.2c1.3,0.9,2.6-1.3,1.3-2.2c-1.1-0.7-2.2-1.5-3.3-2.2
						C352,86.5,350.7,88.7,352.1,89.6L352.1,89.6z"/>
				</g>
			</g>
			<g>
				<g>
					<path class="st2" d="M359.8,96.6c0.7,1.1,1.4,2.2,2.2,3.3c0.9,1.3,3,0.1,2.2-1.3c-0.7-1.1-1.4-2.2-2.2-3.3
						C361.1,94,358.9,95.3,359.8,96.6L359.8,96.6z"/>
				</g>
			</g>
			<g>
				<g>
					<path class="st2" d="M369,107.1c1.5,0.9,2.8,1.9,3.9,3.1c1.1,1.2,2.9-0.6,1.8-1.8c-1.3-1.4-2.8-2.5-4.4-3.5
						C368.9,104.1,367.6,106.3,369,107.1L369,107.1z"/>
				</g>
			</g>
			<g>
				<g>
					<path class="st2" d="M377.8,115.8c1.4,1.7,3,3.2,4.8,4.4c1.3,0.9,2.6-1.3,1.3-2.2c-1.6-1.1-3.1-2.5-4.3-4
						c-0.4-0.5-1.3-0.4-1.8,0C377.3,114.5,377.4,115.3,377.8,115.8L377.8,115.8z"/>
				</g>
			</g>
			<g>
				<g>
					<path class="st2" d="M386.4,125.6c0.8,1.4,1.7,2.7,2.9,3.7c1.2,1.1,2.9-0.7,1.8-1.8c-1-1-1.8-2-2.5-3.2
						C387.8,123,385.6,124.2,386.4,125.6L386.4,125.6z"/>
				</g>
			</g>
			<g>
				<g>
					<path class="st2" d="M395.6,136.1c1.1,0.6,2.1,1.4,2.8,2.5c0.4,0.5,1.1,0.8,1.7,0.4c0.5-0.3,0.8-1.2,0.4-1.7
						c-1-1.4-2.2-2.5-3.7-3.4C395.5,133.2,394.2,135.4,395.6,136.1L395.6,136.1z"/>
				</g>
			</g>
			<g>
				<g>
					<path class="st2" d="M404.1,142.9c0.8,2.4,2.4,4.3,4.6,5.5c1.4,0.8,2.7-1.4,1.3-2.2c-1.6-0.9-2.9-2.3-3.5-4
						C405.9,140.8,403.5,141.4,404.1,142.9L404.1,142.9z"/>
				</g>
			</g>
			<g>
				<g>
					<path class="st2" d="M412.1,153.3c1,1.7,2.4,3,4.1,3.9c1.4,0.7,2.7-1.4,1.3-2.2c-1.4-0.7-2.5-1.7-3.2-3
						C413.4,150.7,411.2,151.9,412.1,153.3L412.1,153.3z"/>
				</g>
			</g>
			<g>
				<g>
					<path class="st2" d="M421.1,163.3c1.5,1.2,3.1,2.2,4.8,3.1c1.4,0.8,2.7-1.4,1.3-2.2c-1.5-0.8-2.9-1.7-4.3-2.8
						c-0.5-0.4-1.2-0.5-1.8,0C420.7,161.9,420.6,162.9,421.1,163.3L421.1,163.3z"/>
				</g>
			</g>
			<g>
				<g>
					<path class="st2" d="M423.5,171.2c0.8,1,1.8,1.6,3,1.6c1.6,0,1.6-2.5,0-2.5c-0.3,0-0.7-0.1-0.9-0.4c-0.4-0.5-1.1-0.8-1.7-0.4
						C423.4,169.8,423.1,170.6,423.5,171.2L423.5,171.2z"/>
				</g>
			</g>
			<g>
				<g>
					<path class="st2" d="M413.1,161.7c0.9,1.5,2,2.7,3.4,3.7c0.5,0.4,1.4,0.1,1.7-0.4c0.4-0.6,0.1-1.3-0.4-1.7
						c-1-0.8-1.8-1.7-2.5-2.8C414.4,159.1,412.3,160.3,413.1,161.7L413.1,161.7z"/>
				</g>
			</g>
			<g>
				<g>
					<path class="st2" d="M405.7,155.2c0.8,0.9,1.5,1.7,2.3,2.6c0.5,0.5,1.3,0.5,1.8,0c0.5-0.5,0.5-1.3,0-1.8
						c-0.8-0.9-1.5-1.7-2.3-2.6c-0.5-0.5-1.3-0.5-1.8,0C405.2,153.9,405.3,154.7,405.7,155.2L405.7,155.2z"/>
				</g>
			</g>
			<g>
				<g>
					<path class="st2" d="M397.8,145.1c0.8,1.2,1.8,2.2,3,3.1c0.5,0.4,1.4,0.1,1.7-0.4c0.4-0.6,0.1-1.3-0.4-1.7
						c-0.8-0.6-1.5-1.3-2.1-2.2c-0.4-0.6-1.1-0.8-1.7-0.4C397.7,143.7,397.4,144.6,397.8,145.1L397.8,145.1z"/>
				</g>
			</g>
			<g>
				<g>
					<path class="st2" d="M414.9,171.3c1.2,0.9,2.4,1.7,3.6,2.6c0.5,0.4,1.4,0.1,1.7-0.4c0.4-0.6,0.1-1.3-0.4-1.7
						c-1.2-0.9-2.4-1.7-3.6-2.6c-0.5-0.4-1.4-0.1-1.7,0.4C414,170.2,414.3,170.9,414.9,171.3L414.9,171.3z"/>
				</g>
			</g>
			<g>
				<g>
					<path class="st2" d="M424,178.6c0.7,0.5,1.3,1.1,2,1.6c0.5,0.4,1.3,0.5,1.8,0c0.4-0.4,0.5-1.3,0-1.8c-0.7-0.5-1.3-1.1-2-1.6
						c-0.5-0.4-1.3-0.5-1.8,0C423.6,177.3,423.5,178.2,424,178.6L424,178.6z"/>
				</g>
			</g>
			<g>
				<g>
					<path class="st2" d="M331.6,76.9c1.1,0.5,2.1,1.2,3,2.1c1.1,1.1,2.9-0.6,1.8-1.8c-1-1-2.2-1.9-3.5-2.5
						c-0.6-0.3-1.4-0.2-1.7,0.4C330.8,75.7,330.9,76.6,331.6,76.9L331.6,76.9z"/>
				</g>
			</g>
			<g>
				<g>
					<path class="st2" d="M342.6,87.1c0.9,0.3,1.7,0.9,2.4,1.6c1.1,1.2,2.9-0.6,1.8-1.8c-1-1-2.2-1.8-3.5-2.3
						c-0.6-0.2-1.4,0.3-1.5,0.9C341.5,86.3,341.9,86.9,342.6,87.1L342.6,87.1z"/>
				</g>
			</g>
			<g>
				<g>
					<path class="st2" d="M349.6,95.2c1.1,1.2,2.3,2.5,3.4,3.7c1.1,1.2,2.9-0.6,1.8-1.8c-1.1-1.2-2.3-2.5-3.4-3.7
						C350.2,92.3,348.5,94.1,349.6,95.2L349.6,95.2z"/>
				</g>
			</g>
			<g>
				<g>
					<path class="st2" d="M358.2,104.6c0.8,0.5,1.5,1.1,2.3,1.6c0.6,0.4,1.4,0.1,1.7-0.4c0.4-0.6,0.1-1.3-0.4-1.7
						c-0.8-0.5-1.5-1.1-2.3-1.6c-0.6-0.4-1.4-0.1-1.7,0.4C357.4,103.5,357.6,104.2,358.2,104.6L358.2,104.6z"/>
				</g>
			</g>
			<g>
				<g>
					<path class="st2" d="M340,96.8c1.5,0.8,3,1.5,4.6,2.3c1.4,0.7,2.7-1.4,1.3-2.2c-1.5-0.8-3-1.5-4.6-2.3
						C339.8,93.9,338.6,96.1,340,96.8L340,96.8z"/>
				</g>
			</g>
			<g>
				<g>
					<path class="st2" d="M335.5,88c1.8,0.9,3.3,2.2,4.6,3.8c1,1.3,2.8-0.5,1.8-1.8c-1.4-1.7-3.1-3.2-5.1-4.1
						C335.3,85.1,334,87.3,335.5,88L335.5,88z"/>
				</g>
			</g>
			<g>
				<g>
					<path class="st2" d="M328,82.8c1.4,0.8,2.8,1.5,4.2,2.3c1.4,0.8,2.7-1.4,1.3-2.2c-1.4-0.8-2.8-1.5-4.2-2.3
						C327.8,79.9,326.5,82,328,82.8L328,82.8z"/>
				</g>
			</g>
			<g>
				<g>
					<path class="st2" d="M328.9,90.9c1.2,0.7,2.4,1.4,3.6,2.2c1.4,0.8,2.6-1.3,1.3-2.2c-1.2-0.7-2.4-1.4-3.6-2.2
						C328.8,88,327.5,90.1,328.9,90.9L328.9,90.9z"/>
				</g>
			</g>
			<g>
				<g>
					<path class="st2" d="M412.9,41.4c-1.2,1.3-2.3,2.6-3.5,4c-1.1,1.2,0.7,3,1.8,1.8c1.2-1.3,2.3-2.6,3.5-4
						C415.7,42,414,40.2,412.9,41.4L412.9,41.4z"/>
				</g>
			</g>
			<g>
				<g>
					<path class="st2" d="M405.2,52.4c-0.4,1.8-0.9,3.7-1.3,5.5c-0.4,1.6,2,2.2,2.4,0.7c0.4-1.8,0.9-3.7,1.3-5.5
						C407.9,51.5,405.5,50.9,405.2,52.4L405.2,52.4z"/>
				</g>
			</g>
			<g>
				<g>
					<path class="st2" d="M402.5,68c0,1.4,0.2,2.9,0.7,4.2c0.5,1.5,2.9,0.9,2.4-0.7c-0.4-1.2-0.6-2.3-0.6-3.6
						C405,66.4,402.5,66.4,402.5,68L402.5,68z"/>
				</g>
			</g>
			<g>
				<g>
					<path class="st2" d="M402.3,80.4c0.6,2.5,1.2,5,1.8,7.5c0.4,1.6,2.8,0.9,2.4-0.7c-0.6-2.5-1.2-5-1.8-7.5
						C404.4,78.2,402,78.8,402.3,80.4L402.3,80.4z"/>
				</g>
			</g>
			<g>
				<g>
					<path class="st2" d="M405.1,96c-0.2,2-0.1,3.9,0.2,5.9c0.2,1.6,2.6,0.9,2.4-0.7c-0.3-1.7-0.3-3.5-0.1-5.2
						C407.8,94.4,405.3,94.4,405.1,96L405.1,96z"/>
				</g>
			</g>
			<g>
				<g>
					<path class="st2" d="M407.4,111.7c0.8,1.9,1.7,3.7,2.8,5.5c0.9,1.4,3,0.1,2.2-1.3c-1-1.5-1.9-3.2-2.6-4.9
						C409.2,109.6,406.7,110.2,407.4,111.7L407.4,111.7z"/>
				</g>
			</g>
			<g>
				<g>
					<path class="st2" d="M413.2,126.6c0.4,1.4,1.1,2.6,2,3.8c0.4,0.5,1.3,0.4,1.8,0c0.5-0.5,0.4-1.2,0-1.8
						c-0.6-0.8-1.1-1.7-1.3-2.7C415.2,124.4,412.8,125.1,413.2,126.6L413.2,126.6z"/>
				</g>
			</g>
			<g>
				<g>
					<path class="st2" d="M418.7,137.7c0.5,1.6,1.2,3.1,2.2,4.5c0.4,0.5,1.1,0.8,1.7,0.4c0.5-0.3,0.9-1.2,0.4-1.7
						c-0.9-1.2-1.6-2.4-2-3.9C420.7,135.5,418.3,136.2,418.7,137.7L418.7,137.7z"/>
				</g>
			</g>
			<g>
				<g>
					<path class="st2" d="M424.2,148.4c0.8,1.2,1.6,2.3,2.4,3.5c0.9,1.3,3.1,0.1,2.2-1.3c-0.8-1.2-1.6-2.3-2.4-3.5
						C425.4,145.8,423.3,147,424.2,148.4L424.2,148.4z"/>
				</g>
			</g>
			<g>
				<g>
					<path class="st2" d="M411.8,50.2c-1.3,1.8-2.4,3.8-3.3,5.9c-0.6,1.5,1.8,2.1,2.4,0.7c0.8-1.9,1.8-3.6,3-5.3
						C414.9,50.1,412.7,48.9,411.8,50.2L411.8,50.2z"/>
				</g>
			</g>
			<g>
				<g>
					<path class="st2" d="M409.3,62.8c0,1.4,0,2.8,0,4.2c0,1.6,2.5,1.6,2.5,0c0-1.4,0-2.8,0-4.2C411.8,61.2,409.3,61.2,409.3,62.8
						L409.3,62.8z"/>
				</g>
			</g>
			<g>
				<g>
					<path class="st2" d="M408.7,74.2c0,1.6,0,3.3,0,4.9c0,1.6,2.5,1.6,2.5,0c0-1.6,0-3.3,0-4.9C411.2,72.6,408.7,72.6,408.7,74.2
						L408.7,74.2z"/>
				</g>
			</g>
			<g>
				<g>
					<path class="st2" d="M409.7,87.9c-0.2,2.1,0,4.1,0.3,6.2c0.3,1.6,2.7,0.9,2.4-0.7c-0.3-1.8-0.3-3.7-0.2-5.5
						C412.3,86.3,409.8,86.3,409.7,87.9L409.7,87.9z"/>
				</g>
			</g>
			<g>
				<g>
					<path class="st2" d="M410.1,101.6c0.3,1.5,0.6,3,0.9,4.6c0.3,1.6,2.7,0.9,2.4-0.7c-0.3-1.5-0.6-3-0.9-4.6
						C412.2,99.3,409.8,100,410.1,101.6L410.1,101.6z"/>
				</g>
			</g>
			<g>
				<g>
					<path class="st2" d="M415.2,114.9c0.1,2,0.8,3.8,2,5.4c0.4,0.5,1.3,0.4,1.8,0c0.5-0.5,0.4-1.2,0-1.8c-0.8-1-1.2-2.3-1.3-3.7
						C417.6,113.3,415.1,113.3,415.2,114.9L415.2,114.9z"/>
				</g>
			</g>
			<g>
				<g>
					<path class="st2" d="M420.1,127.3c-0.1,1.8,0.6,3.4,1.7,4.8c0.4,0.5,1.3,0.4,1.8,0c0.5-0.5,0.4-1.2,0-1.8c-0.7-0.9-1-1.9-0.9-3
						C422.6,125.7,420.1,125.7,420.1,127.3L420.1,127.3z"/>
				</g>
			</g>
			<g>
				<g>
					<path class="st2" d="M425.8,137.7c0.2,0.4,0.4,0.9,0.7,1.3c0.3,0.6,1.2,0.8,1.7,0.4c0.6-0.4,0.8-1.1,0.4-1.7
						c-0.2-0.4-0.4-0.9-0.7-1.3c-0.3-0.6-1.2-0.8-1.7-0.4C425.6,136.3,425.5,137.1,425.8,137.7L425.8,137.7z"/>
				</g>
			</g>
			<g>
				<g>
					<path class="st2" d="M413.6,58.9c0,1.4,0,2.8,0,4.2c0,1.6,2.5,1.6,2.5,0c0-1.4,0-2.8,0-4.2C416.1,57.3,413.6,57.3,413.6,58.9
						L413.6,58.9z"/>
				</g>
			</g>
			<g>
				<g>
					<path class="st2" d="M412.9,71.6c0,1.1,0,2.2,0,3.3c0,1.6,2.5,1.6,2.5,0c0-1.1,0-2.2,0-3.3C415.4,70,412.9,70,412.9,71.6
						L412.9,71.6z"/>
				</g>
			</g>
			<g>
				<g>
					<path class="st2" d="M413.9,82.4c0,1.6,0,3.3,0,4.9c0,1.6,2.5,1.6,2.5,0c0-1.6,0-3.3,0-4.9C416.4,80.8,413.9,80.8,413.9,82.4
						L413.9,82.4z"/>
				</g>
			</g>
			<g>
				<g>
					<path class="st2" d="M414.2,95.4c0.3,1.4,0.7,2.8,1,4.2c0.4,1.6,2.8,0.9,2.4-0.7c-0.3-1.4-0.7-2.8-1-4.2
						C416.3,93.2,413.9,93.8,414.2,95.4L414.2,95.4z"/>
				</g>
			</g>
			<g>
				<g>
					<path class="st2" d="M417.2,108.1c0.3,1.1,0.6,2.2,0.9,3.3c0.4,1.5,2.8,0.9,2.4-0.7c-0.3-1.1-0.6-2.2-0.9-3.3
						C419.2,105.9,416.8,106.5,417.2,108.1L417.2,108.1z"/>
				</g>
			</g>
			<g>
				<g>
					<path class="st2" d="M422.1,118.8c0.8,1.2,1.5,2.4,2.3,3.6c0.9,1.4,3,0.1,2.2-1.3c-0.8-1.2-1.5-2.4-2.3-3.6
						C423.4,116.2,421.3,117.5,422.1,118.8L422.1,118.8z"/>
				</g>
			</g>
			<g>
				<g>
					<path class="st2" d="M401.7,46.9c-0.4,0.9-0.9,1.7-1.3,2.6c-0.3,0.6-0.2,1.4,0.4,1.7c0.6,0.3,1.4,0.2,1.7-0.4
						c0.4-0.9,0.9-1.7,1.3-2.6c0.3-0.6,0.2-1.4-0.4-1.7C402.9,46.1,402,46.3,401.7,46.9L401.7,46.9z"/>
				</g>
			</g>
			<g>
				<g>
					<path class="st2" d="M396.3,59.6c-0.1,1.7-0.2,3.5-0.4,5.2c-0.1,1.6,2.4,1.6,2.5,0c0.1-1.7,0.2-3.5,0.4-5.2
						C398.9,58,396.4,58,396.3,59.6L396.3,59.6z"/>
				</g>
			</g>
			<g>
				<g>
					<path class="st2" d="M396.7,73.3c0,1.7,0,3.5,0,5.2c0,1.6,2.5,1.6,2.5,0c0-1.7,0-3.5,0-5.2C399.2,71.6,396.7,71.6,396.7,73.3
						L396.7,73.3z"/>
				</g>
			</g>
			<g>
				<g>
					<path class="st2" d="M397.6,89.5c0.1,1.3,0.2,2.6,0.4,3.9c0.1,0.7,0.5,1.2,1.2,1.2c0.6,0,1.3-0.6,1.2-1.2
						c-0.1-1.3-0.2-2.6-0.4-3.9c-0.1-0.7-0.5-1.2-1.2-1.2C398.2,88.3,397.6,88.8,397.6,89.5L397.6,89.5z"/>
				</g>
			</g>
			<g>
				<g>
					<path class="st2" d="M400.2,104.5c0.7,2,1.4,4.1,2.1,6.1c0.5,1.5,2.9,0.9,2.4-0.7c-0.7-2-1.4-4.1-2.1-6.1
						C402.1,102.4,399.6,103,400.2,104.5L400.2,104.5z"/>
				</g>
			</g>
			<g>
				<g>
					<path class="st2" d="M404.7,121.1c0.4,2.1,1.4,4,2.7,5.7c1,1.3,2.8-0.5,1.8-1.8c-1.1-1.4-1.7-2.9-2.1-4.6
						C406.8,118.9,404.4,119.5,404.7,121.1L404.7,121.1z"/>
				</g>
			</g>
			<g>
				<g>
					<path class="st2" d="M409.8,133.8c0.5,2.1,1.3,4,2.4,5.8c0.8,1.4,3,0.1,2.2-1.3c-1-1.6-1.7-3.4-2.1-5.2
						C411.8,131.5,409.4,132.2,409.8,133.8L409.8,133.8z"/>
				</g>
			</g>
			<g>
				<g>
					<path class="st2" d="M416.5,148.5c1,0.5,1.8,1.2,2.5,2.2c0.9,1.3,3,0.1,2.2-1.3c-0.8-1.3-2-2.4-3.4-3.1
						c-0.6-0.3-1.4-0.2-1.7,0.4C415.7,147.3,415.9,148.2,416.5,148.5L416.5,148.5z"/>
				</g>
			</g>
			<g>
				<g>
					<path class="st2" d="M424.4,156.8c0.7,0.5,1.3,1.1,2,1.6c0.5,0.4,1.3,0.5,1.8,0c0.4-0.4,0.5-1.3,0-1.8c-0.7-0.5-1.3-1.1-2-1.6
						c-0.5-0.4-1.3-0.5-1.8,0C423.9,155.4,423.8,156.3,424.4,156.8L424.4,156.8z"/>
				</g>
			</g>
			<g>
				<g>
					<path class="st2" d="M394.4,51.5c0,1.1-0.2,2.2-0.6,3.2c-0.3,0.6,0.3,1.4,0.9,1.5c0.7,0.2,1.3-0.2,1.5-0.9
						c0.5-1.2,0.7-2.6,0.7-3.9C396.9,49.8,394.4,49.8,394.4,51.5L394.4,51.5z"/>
				</g>
			</g>
			<g>
				<g>
					<path class="st2" d="M391.7,66.7c-0.4,2.1-0.8,4.1-1.3,6.2c-0.3,1.6,2.1,2.2,2.4,0.7c0.4-2.1,0.8-4.1,1.3-6.2
						C394.4,65.8,392,65.1,391.7,66.7L391.7,66.7z"/>
				</g>
			</g>
			<g>
				<g>
					<path class="st2" d="M391.1,82c0,1.6,0,3.3,0,4.9c0,1.6,2.5,1.6,2.5,0c0-1.6,0-3.3,0-4.9C393.6,80.4,391.1,80.4,391.1,82
						L391.1,82z"/>
				</g>
			</g>
			<g>
				<g>
					<path class="st2" d="M394,95.7c0,2.3,0,4.6,0,6.8c0,1.6,2.5,1.6,2.5,0c0-2.3,0-4.6,0-6.8C396.5,94.1,394,94.1,394,95.7
						L394,95.7z"/>
				</g>
			</g>
			<g>
				<g>
					<path class="st2" d="M396.8,112.9c0.5,1.7,1,3.5,1.5,5.2c0.4,1.5,2.9,0.9,2.4-0.7c-0.5-1.7-1-3.5-1.5-5.2
						C398.7,110.7,396.3,111.4,396.8,112.9L396.8,112.9z"/>
				</g>
			</g>
			<g>
				<g>
					<path class="st2" d="M400.8,126.6c0.3,1.9,1.4,3.5,3,4.6c0.5,0.4,1.4,0.1,1.7-0.4c0.4-0.6,0.1-1.3-0.4-1.7
						c-1-0.8-1.6-1.9-1.8-3.1c-0.1-0.7-0.9-1-1.5-0.9C401,125.3,400.7,126,400.8,126.6L400.8,126.6z"/>
				</g>
			</g>
			<g>
				<g>
					<path class="st2" d="M121.1,158.1c2.2,2.2,4.5,4.1,7.1,5.7c1.4,0.9,2.6-1.3,1.3-2.2c-2.4-1.5-4.6-3.3-6.6-5.3
						C121.7,155.2,120,156.9,121.1,158.1L121.1,158.1z"/>
				</g>
			</g>
			<g>
				<g>
					<path class="st2" d="M130.9,171.4c1.2,1.3,2.4,2.6,3.7,3.8c1.1,1.2,2.9-0.6,1.8-1.8c-1.2-1.3-2.4-2.6-3.7-3.8
						C131.5,168.5,129.8,170.3,130.9,171.4L130.9,171.4z"/>
				</g>
			</g>
			<g>
				<g>
					<path class="st2" d="M139.4,182.5c1.4,1.1,2.8,2.2,4.1,3.4c0.5,0.4,1.2,0.5,1.8,0c0.4-0.4,0.5-1.3,0-1.8
						c-1.4-1.1-2.8-2.2-4.1-3.4c-0.5-0.4-1.2-0.5-1.8,0C138.9,181.1,138.8,182,139.4,182.5L139.4,182.5z"/>
				</g>
			</g>
			<g>
				<g>
					<path class="st2" d="M148.4,195c1.4,1,2.4,2.3,3.1,3.8c0.7,1.4,2.9,0.2,2.2-1.3c-0.9-1.9-2.3-3.5-4-4.7
						C148.3,191.9,147.1,194.1,148.4,195L148.4,195z"/>
				</g>
			</g>
			<g>
				<g>
					<path class="st2" d="M158.8,206.6c1.5,1.2,3,2.4,4.5,3.7c1.2,1,3-0.8,1.8-1.8c-1.5-1.2-3-2.4-4.5-3.7
						C159.4,203.8,157.6,205.6,158.8,206.6L158.8,206.6z"/>
				</g>
			</g>
			<g>
				<g>
					<path class="st2" d="M170.9,218c1.7,1.7,3.5,3.5,5.2,5.2c1.1,1.1,2.9-0.6,1.8-1.8c-1.7-1.7-3.5-3.5-5.2-5.2
						C171.5,215.1,169.7,216.8,170.9,218L170.9,218z"/>
				</g>
			</g>
			<g>
				<g>
					<path class="st2" d="M182.4,228.7c2,1,4,2.1,6,3.4c1.4,0.9,2.6-1.3,1.3-2.2c-1.9-1.2-3.9-2.3-6-3.4
						C182.3,225.8,181,228,182.4,228.7L182.4,228.7z"/>
				</g>
			</g>
			<g>
				<g>
					<path class="st2" d="M195.1,239.4c2,1.4,4.1,2.7,6.3,3.8c1.4,0.7,2.7-1.4,1.3-2.2c-2.2-1.1-4.3-2.4-6.3-3.8
						C195.1,236.3,193.8,238.5,195.1,239.4L195.1,239.4z"/>
				</g>
			</g>
			<g>
				<g>
					<path class="st2" d="M207.9,248c1.5,1.8,3.6,2.8,5.9,3.1c0.7,0.1,1.2-0.6,1.2-1.2c0-0.7-0.6-1.2-1.2-1.2
						c-1.6-0.2-3.1-1.1-4.1-2.4C208.6,244.9,206.9,246.7,207.9,248L207.9,248z"/>
				</g>
			</g>
			<g>
				<g>
					<path class="st2" d="M222.8,258.2c1.8,1,3.7,2,5.5,3c1.4,0.8,2.7-1.4,1.3-2.2c-1.8-1-3.7-2-5.5-3
						C222.7,255.3,221.4,257.5,222.8,258.2L222.8,258.2z"/>
				</g>
			</g>
			<g>
				<g>
					<path class="st2" d="M236.5,266.3c1.9,1.1,4,2,6.1,2.7c1.5,0.5,2.2-1.9,0.7-2.4c-1.9-0.6-3.8-1.5-5.6-2.5
						C236.4,263.3,235.2,265.5,236.5,266.3L236.5,266.3z"/>
				</g>
			</g>
			<g>
				<g>
					<path class="st2" d="M251.1,273.6c2.7,0.6,5.4,1.3,8.1,1.9c1.6,0.4,2.2-2,0.7-2.4c-2.7-0.6-5.4-1.3-8.1-1.9
						C250.2,270.9,249.6,273.3,251.1,273.6L251.1,273.6z"/>
				</g>
			</g>
			<g>
				<g>
					<path class="st2" d="M268.4,281.4c3,0.7,5.9,1.6,8.8,2.6c1.5,0.5,2.2-1.9,0.7-2.4c-2.9-1-5.8-1.9-8.8-2.6
						C267.5,278.6,266.8,281,268.4,281.4L268.4,281.4z"/>
				</g>
			</g>
			<g>
				<g>
					<path class="st2" d="M285.3,286.3c2.1,0.5,4.3,0.8,6.5,1c1.6,0.1,1.6-2.4,0-2.5c-2-0.1-3.9-0.4-5.9-0.9
						C284.4,283.5,283.7,286,285.3,286.3L285.3,286.3z"/>
				</g>
			</g>
			<g>
				<g>
					<path class="st2" d="M297.4,289.2c2.7,0.3,5.4,0.7,8.1,1c1.6,0.2,1.6-2.3,0-2.5c-2.7-0.3-5.4-0.7-8.1-1
						C295.8,286.5,295.8,289,297.4,289.2L297.4,289.2z"/>
				</g>
			</g>
			<g>
				<g>
					<path class="st2" d="M315.6,293.4c2.5,0.1,5,0.2,7.5,0.4c1.6,0.1,1.6-2.4,0-2.5c-2.5-0.1-5-0.2-7.5-0.4
						C314,290.8,314,293.3,315.6,293.4L315.6,293.4z"/>
				</g>
			</g>
			<g>
				<g>
					<path class="st2" d="M329.6,294.9c3.2,0.4,6.5,0.6,9.8,0.5c1.6,0,1.6-2.5,0-2.5c-3.3,0.1-6.5-0.1-9.8-0.5
						C328,292.2,328,294.7,329.6,294.9L329.6,294.9z"/>
				</g>
			</g>
			<g>
				<g>
					<path class="st2" d="M348.8,296.4c2.8,0,5.6,0,8.5,0c1.6,0,1.6-2.5,0-2.5c-2.8,0-5.6,0-8.5,0
						C347.2,293.9,347.2,296.4,348.8,296.4L348.8,296.4z"/>
				</g>
			</g>
			<g>
				<g>
					<path class="st2" d="M363.4,296.1c2.4,0,4.8,0,7.2,0c1.6,0,1.6-2.5,0-2.5c-2.4,0-4.8,0-7.2,0
						C361.8,293.6,361.8,296.1,363.4,296.1L363.4,296.1z"/>
				</g>
			</g>
			<g>
				<g>
					<path class="st2" d="M377.4,295.4c2.3,0,4.4-0.5,6.5-1.5c1.5-0.7,0.2-2.8-1.3-2.2c-1.7,0.8-3.4,1.1-5.2,1.1
						C375.8,292.9,375.8,295.4,377.4,295.4L377.4,295.4z"/>
				</g>
			</g>
			<g>
				<g>
					<path class="st2" d="M391.1,294c2.1-0.7,4.3-1.3,6.5-1.6c1.6-0.2,0.9-2.6-0.7-2.4c-2.2,0.3-4.4,0.8-6.5,1.6
						C388.9,292.1,389.5,294.6,391.1,294L391.1,294z"/>
				</g>
			</g>
			<g>
				<g>
					<path class="st2" d="M405.1,291.4c2.1-0.3,4.1-0.7,6.2-1c1.6-0.3,0.9-2.7-0.7-2.4c-2.1,0.3-4.1,0.7-6.2,1
						C402.8,289.3,403.5,291.7,405.1,291.4L405.1,291.4z"/>
				</g>
			</g>
			<g>
				<g>
					<path class="st2" d="M418.4,288.9c1.7-0.4,3.5-0.9,5.2-1.3c1.6-0.4,0.9-2.8-0.7-2.4c-1.7,0.4-3.5,0.9-5.2,1.3
						C416.2,286.8,416.8,289.2,418.4,288.9L418.4,288.9z"/>
				</g>
			</g>
			<g>
				<g>
					<path class="st2" d="M427.5,286.6c1.6,0,1.6-2.5,0-2.5C425.9,284.1,425.9,286.6,427.5,286.6L427.5,286.6z"/>
				</g>
			</g>
			<g>
				<g>
					<path class="st2" d="M131.5,158.6c1.1,1.7,2.5,3.3,4,4.6c1.2,1.1,3-0.7,1.8-1.8c-1.4-1.2-2.6-2.6-3.6-4.1
						C132.8,156,130.6,157.2,131.5,158.6L131.5,158.6z"/>
				</g>
			</g>
			<g>
				<g>
					<path class="st2" d="M137,170.2c0.9,2.5,2.6,4.6,4.9,5.9c1.4,0.8,2.7-1.3,1.3-2.2c-1.7-1-3-2.5-3.7-4.4
						C138.9,168.1,136.4,168.7,137,170.2L137,170.2z"/>
				</g>
			</g>
			<g>
				<g>
					<path class="st2" d="M147.5,183.6c0.6,1.9,1.4,3.8,2.4,5.5c0.8,1.4,2.9,0.1,2.2-1.3c-0.9-1.6-1.6-3.2-2.1-4.9
						C149.4,181.4,147,182,147.5,183.6L147.5,183.6z"/>
				</g>
			</g>
			<g>
				<g>
					<path class="st2" d="M156.8,196c1.4,0.9,2.7,2,3.9,3.1c1.2,1.1,3-0.7,1.8-1.8c-1.4-1.3-2.9-2.5-4.4-3.5
						C156.8,192.9,155.5,195.1,156.8,196L156.8,196z"/>
				</g>
			</g>
			<g>
				<g>
					<path class="st2" d="M166.3,206.9c1.4,1.3,2.6,2.7,3.7,4.3c0.9,1.4,3,0.1,2.2-1.3c-1.1-1.8-2.5-3.4-4-4.8
						C166.9,204,165.1,205.8,166.3,206.9L166.3,206.9z"/>
				</g>
			</g>
			<g>
				<g>
					<path class="st2" d="M178.1,218.8c1.2,1.2,2.3,2.4,3.5,3.7c1.1,1.2,2.9-0.6,1.8-1.8c-1.2-1.2-2.3-2.4-3.5-3.7
						C178.8,215.9,177,217.7,178.1,218.8L178.1,218.8z"/>
				</g>
			</g>
			<g>
				<g>
					<path class="st2" d="M192.7,230.3c1.3,1.1,2.7,2.1,4.2,3.1c1.3,0.9,2.6-1.3,1.3-2.2c-1.3-0.8-2.5-1.7-3.7-2.7
						C193.2,227.5,191.5,229.3,192.7,230.3L192.7,230.3z"/>
				</g>
			</g>
			<g>
				<g>
					<path class="st2" d="M204.1,239.4c2.3,2.1,5,3.6,8,4.2c1.6,0.3,2.2-2.1,0.7-2.4c-2.6-0.6-4.9-1.7-6.9-3.6
						C204.7,236.5,203,238.3,204.1,239.4L204.1,239.4z"/>
				</g>
			</g>
			<g>
				<g>
					<path class="st2" d="M217.7,248.5c2,2,4.3,3.7,6.8,5.1c1.4,0.8,2.7-1.4,1.3-2.2c-2.3-1.3-4.4-2.8-6.2-4.7
						C218.4,245.6,216.6,247.4,217.7,248.5L217.7,248.5z"/>
				</g>
			</g>
			<g>
				<g>
					<path class="st2" d="M231.7,257.2c1.4,1,2.8,1.9,4.3,2.9c1.3,0.9,2.6-1.3,1.3-2.2c-1.4-1-2.8-1.9-4.3-2.9
						C231.6,254.1,230.3,256.3,231.7,257.2L231.7,257.2z"/>
				</g>
			</g>
			<g>
				<g>
					<path class="st2" d="M245.3,265.5c2.1,0.2,4.2,0.8,6.2,1.6c1.5,0.6,2.1-1.8,0.7-2.4c-2.2-0.9-4.5-1.5-6.8-1.7
						C243.7,262.8,243.7,265.3,245.3,265.5L245.3,265.5z"/>
				</g>
			</g>
			<g>
				<g>
					<path class="st2" d="M261.6,271.6c2.6,0.9,5.1,2.1,7.5,3.6c1.4,0.9,2.6-1.3,1.3-2.2c-2.5-1.6-5.2-2.8-8.1-3.8
						C260.7,268.7,260.1,271.1,261.6,271.6L261.6,271.6z"/>
				</g>
			</g>
			<g>
				<g>
					<path class="st2" d="M277.8,279.1c2.3,0.5,4.6,1,6.8,1.6c1.6,0.4,2.2-2.1,0.7-2.4c-2.3-0.5-4.6-1-6.8-1.6
						C276.9,276.3,276.3,278.7,277.8,279.1L277.8,279.1z"/>
				</g>
			</g>
			<g>
				<g>
					<path class="st2" d="M292.4,283c2.1,1.2,4.5,1.8,6.9,1.6c1.6-0.1,1.6-2.6,0-2.5c-2,0.1-3.9-0.3-5.6-1.3
						C292.3,280,291,282.2,292.4,283L292.4,283z"/>
				</g>
			</g>
			<g>
				<g>
					<path class="st2" d="M309.4,286.3c2,0.8,4.1,1.1,6.2,1c1.6-0.1,1.6-2.6,0-2.5c-1.9,0.1-3.7-0.2-5.5-0.9
						C308.5,283.3,307.9,285.7,309.4,286.3L309.4,286.3z"/>
				</g>
			</g>
			<g>
				<g>
					<path class="st2" d="M323.1,288c2.2,0.1,4.3,0.2,6.5,0.4c1.6,0.1,1.6-2.4,0-2.5c-2.2-0.1-4.3-0.2-6.5-0.4
						C321.5,285.4,321.5,287.9,323.1,288L323.1,288z"/>
				</g>
			</g>
			<g>
				<g>
					<path class="st2" d="M336.1,289.2c2.2,0,4.3,0,6.5,0c1.6,0,1.6-2.5,0-2.5c-2.2,0-4.3,0-6.5,0
						C334.5,286.7,334.5,289.2,336.1,289.2L336.1,289.2z"/>
				</g>
			</g>
			<g>
				<g>
					<path class="st2" d="M353,290.1c2.1,0.3,4.1,0.4,6.2,0.4c1.6,0,1.6-2.5,0-2.5c-1.8,0-3.7-0.1-5.5-0.3
						C352.1,287.5,351.4,289.9,353,290.1L353,290.1z"/>
				</g>
			</g>
			<g>
				<g>
					<path class="st2" d="M368,290.2c2.5,0,5,0,7.5,0c1.6,0,1.6-2.5,0-2.5c-2.5,0-5,0-7.5,0C366.4,287.7,366.4,290.2,368,290.2
						L368,290.2z"/>
				</g>
			</g>
			<g>
				<g>
					<path class="st2" d="M384.6,290.1c2.5-0.5,5-0.8,7.5-0.8c1.6-0.1,1.6-2.6,0-2.5c-2.7,0.1-5.5,0.4-8.2,0.9
						C382.3,288,383,290.4,384.6,290.1L384.6,290.1z"/>
				</g>
			</g>
			<g>
				<g>
					<path class="st2" d="M396.3,287c1.7,0,3.5,0,5.2,0c1.6,0,1.6-2.5,0-2.5c-1.7,0-3.5,0-5.2,0C394.7,284.5,394.7,287,396.3,287
						L396.3,287z"/>
				</g>
			</g>
			<g>
				<g>
					<path class="st2" d="M409.6,284.4c2.1,0,4.1-0.3,6.2-0.8c1.6-0.4,0.9-2.8-0.7-2.4c-1.8,0.4-3.6,0.6-5.5,0.7
						C408,281.9,408,284.4,409.6,284.4L409.6,284.4z"/>
				</g>
			</g>
			<g>
				<g>
					<path class="st2" d="M421,280.5c1.8,0.1,3.5-0.1,5.2-0.4c1.6-0.3,0.9-2.7-0.7-2.4c-1.5,0.3-3,0.4-4.5,0.3
						C419.4,277.9,419.4,280.4,421,280.5L421,280.5z"/>
				</g>
			</g>
			<g>
				<g>
					<path class="st2" d="M379.7,286.7c1.4-0.1,2.8-0.3,4.2-0.4c1.6-0.1,1.6-2.6,0-2.5c-1.4,0.1-2.8,0.3-4.2,0.4
						C378.1,284.3,378.1,286.9,379.7,286.7L379.7,286.7z"/>
				</g>
			</g>
			<g>
				<g>
					<path class="st2" d="M349.4,286.3c1.1-0.1,2.2-0.2,3.3-0.3c0.7-0.1,1.2-0.5,1.2-1.2c0-0.6-0.6-1.3-1.2-1.2
						c-1.1,0.1-2.2,0.2-3.3,0.3c-0.7,0.1-1.2,0.5-1.2,1.2C348.2,285.7,348.7,286.4,349.4,286.3L349.4,286.3z"/>
				</g>
			</g>
			<g>
				<g>
					<path class="st2" d="M292.5,278.7c1.1,0.3,2.2,0.7,3.2,1c1.5,0.5,2.2-1.9,0.7-2.4c-1.1-0.3-2.2-0.7-3.2-1
						C291.6,275.8,291,278.2,292.5,278.7L292.5,278.7z"/>
				</g>
			</g>
			<g>
				<g>
					<path class="st2" d="M268.1,267.8c0.7,0.1,1.4,0.4,2,0.8c0.5,0.4,1.4,0.1,1.7-0.4c0.4-0.6,0.1-1.3-0.4-1.7
						c-0.9-0.7-2.1-1.1-3.2-1.1c-0.7-0.1-1.2,0.6-1.2,1.2C266.8,267.2,267.4,267.7,268.1,267.8L268.1,267.8z"/>
				</g>
			</g>
			<g>
				<g>
					<path class="st2" d="M256.1,264.4c1.1,0.4,2.2,0.9,3.2,1.3c0.6,0.3,1.4-0.3,1.5-0.9c0.2-0.7-0.2-1.3-0.9-1.5
						c-1.1-0.4-2.2-0.9-3.2-1.3c-0.6-0.3-1.4,0.3-1.5,0.9C255,263.6,255.4,264.2,256.1,264.4L256.1,264.4z"/>
				</g>
			</g>
			<g>
				<g>
					<path class="st2" d="M240.1,256.3c1.5,0.6,2.9,1.3,4.2,2.2c1.4,0.9,2.6-1.3,1.3-2.2c-1.5-1-3.1-1.8-4.8-2.4
						C239.3,253.3,238.6,255.7,240.1,256.3L240.1,256.3z"/>
				</g>
			</g>
			<g>
				<g>
					<path class="st2" d="M228,248.1c2.3,1.2,4.7,2.2,7.2,3c1.5,0.5,2.2-1.9,0.7-2.4c-2.3-0.7-4.5-1.6-6.6-2.7
						C227.9,245.2,226.6,247.4,228,248.1L228,248.1z"/>
				</g>
			</g>
			<g>
				<g>
					<path class="st2" d="M237.9,247.9c1.5,1.2,3.1,2.2,4.8,3.1c1.4,0.7,2.7-1.4,1.3-2.2c-1.5-0.8-3-1.7-4.3-2.7
						c-0.5-0.4-1.2-0.5-1.8,0C237.5,246.5,237.4,247.5,237.9,247.9L237.9,247.9z"/>
				</g>
			</g>
			<g>
				<g>
					<path class="st2" d="M251.5,258.3c0.3,0.1,0.6,0.2,1,0.3c0.6,0.2,1.4-0.2,1.5-0.9c0.2-0.7-0.2-1.3-0.9-1.5
						c-0.3-0.1-0.6-0.2-1-0.3c-0.6-0.2-1.4,0.2-1.5,0.9C250.4,257.4,250.8,258,251.5,258.3L251.5,258.3z"/>
				</g>
			</g>
			<g>
				<g>
					<path class="st2" d="M217,241.2c1.3,0.7,2.6,1.3,3.9,2c1.4,0.7,2.7-1.4,1.3-2.2c-1.3-0.7-2.6-1.3-3.9-2
						C216.9,238.3,215.6,240.5,217,241.2L217,241.2z"/>
				</g>
			</g>
			<g>
				<g>
					<path class="st2" d="M201.1,231.5c1.1,0.8,2.2,1.5,3.3,2.3c0.6,0.4,1.4,0.1,1.7-0.4c0.4-0.6,0.1-1.3-0.4-1.7
						c-1.1-0.8-2.2-1.5-3.3-2.3c-0.6-0.4-1.4-0.1-1.7,0.4C200.3,230.4,200.5,231.1,201.1,231.5L201.1,231.5z"/>
				</g>
			</g>
			<g>
				<g>
					<path class="st2" d="M185.6,219.2c1.7,1.7,3.5,3.5,5.2,5.2c1.1,1.1,2.9-0.6,1.8-1.8c-1.7-1.7-3.5-3.5-5.2-5.2
						C186.2,216.3,184.4,218.1,185.6,219.2L185.6,219.2z"/>
				</g>
			</g>
			<g>
				<g>
					<path class="st2" d="M175.4,210.3c1.3,0.6,2.4,1.6,2.9,2.9c0.3,0.6,0.8,1.1,1.5,0.9c0.6-0.2,1.1-0.9,0.9-1.5
						c-0.8-1.9-2.2-3.5-4.1-4.4c-0.6-0.3-1.3-0.2-1.7,0.4C174.6,209.1,174.8,210,175.4,210.3L175.4,210.3z"/>
				</g>
			</g>
			<g>
				<g>
					<path class="st2" d="M166.4,198.4c1.2,1.1,2.3,2.2,3.5,3.3c1.2,1.1,2.9-0.7,1.8-1.8c-1.2-1.1-2.3-2.2-3.5-3.3
						C167,195.5,165.2,197.3,166.4,198.4L166.4,198.4z"/>
				</g>
			</g>
			<g>
				<g>
					<path class="st2" d="M155.5,186.3c1.3,1,2.6,1.9,4,2.9c0.5,0.4,1.4,0.1,1.7-0.4c0.4-0.6,0.1-1.3-0.4-1.7c-1.3-1-2.6-1.9-4-2.9
						c-0.5-0.4-1.4-0.1-1.7,0.4C154.7,185.2,155,185.9,155.5,186.3L155.5,186.3z"/>
				</g>
			</g>
			<g>
				<g>
					<path class="st2" d="M146.8,174.1c0.6,1.6,1.4,3.1,2.4,4.5c0.4,0.5,1.1,0.8,1.7,0.4c0.5-0.3,0.9-1.2,0.4-1.7
						c-0.9-1.2-1.7-2.5-2.2-3.9C148.6,172,146.2,172.6,146.8,174.1L146.8,174.1z"/>
				</g>
			</g>
			<g>
				<g>
					<path class="st2" d="M140.2,166c0,1.2,0.5,2.4,1.4,3.1c0.5,0.4,1.3,0.5,1.8,0c0.5-0.5,0.5-1.3,0-1.8c-0.5-0.4-0.6-0.8-0.6-1.4
						C142.8,164.4,140.3,164.4,140.2,166L140.2,166z"/>
				</g>
			</g>
			<g>
				<g>
					<path class="st2" d="M123.3,168.6c1.1,1.4,2.2,2.8,3.3,4.2c0.4,0.5,1.3,0.4,1.8,0c0.5-0.5,0.4-1.2,0-1.8
						c-1.1-1.4-2.2-2.8-3.3-4.2c-0.4-0.5-1.3-0.4-1.8,0C122.8,167.3,122.9,168,123.3,168.6L123.3,168.6z"/>
				</g>
			</g>
			<g>
				<g>
					<path class="st2" d="M131.5,180.7c1,1.6,2.2,3.1,3.7,4.3c1.2,1,3-0.7,1.8-1.8c-1.3-1.1-2.4-2.4-3.3-3.8
						C132.8,178,130.7,179.3,131.5,180.7L131.5,180.7z"/>
				</g>
			</g>
			<g>
				<g>
					<path class="st2" d="M139.3,192c0.3,1.6,1.1,3.1,2.3,4.1c1.2,1.1,3-0.7,1.8-1.8c-0.9-0.8-1.5-1.8-1.7-3c-0.1-0.7-0.9-1-1.5-0.9
						C139.5,190.7,139.2,191.4,139.3,192L139.3,192z"/>
				</g>
			</g>
			<g>
				<g>
					<path class="st2" d="M148,202.4c1.1,1.5,2.1,3.1,3.2,4.6c0.9,1.3,3.1,0.1,2.2-1.3c-1.1-1.5-2.1-3.1-3.2-4.6
						C149.2,199.8,147,201,148,202.4L148,202.4z"/>
				</g>
			</g>
			<g>
				<g>
					<path class="st2" d="M158.1,214c1.9,1,3.4,2.5,4.6,4.3c0.8,1.4,3,0.1,2.2-1.3c-1.4-2.2-3.2-4-5.5-5.2
						C157.9,211,156.7,213.2,158.1,214L158.1,214z"/>
				</g>
			</g>
			<g>
				<g>
					<path class="st2" d="M170.4,226.2c1.2,1.9,2.9,3.4,5,4.3c1.5,0.6,2.7-1.5,1.3-2.2c-1.7-0.7-3.1-1.9-4.1-3.4
						C171.6,223.6,169.5,224.8,170.4,226.2L170.4,226.2z"/>
				</g>
			</g>
			<g>
				<g>
					<path class="st2" d="M181.9,236c1.7,1.3,3.5,2.6,5.2,3.9c1.3,1,2.5-1.2,1.3-2.2c-1.7-1.3-3.5-2.6-5.2-3.9
						C181.9,232.9,180.6,235,181.9,236L181.9,236z"/>
				</g>
			</g>
			<g>
				<g>
					<path class="st2" d="M195,245.9c1.7,2,3.9,3.5,6.3,4.3c1.5,0.5,2.2-1.9,0.7-2.4c-2.1-0.7-3.8-2-5.2-3.7
						C195.8,242.9,194,244.7,195,245.9L195,245.9z"/>
				</g>
			</g>
			<g>
				<g>
					<path class="st2" d="M209.3,255.7c2.2,1.7,4.4,3.4,6.6,5.1c1.3,1,3-0.8,1.8-1.8c-2.2-1.7-4.4-3.4-6.6-5.1
						C209.8,253,208,254.7,209.3,255.7L209.3,255.7z"/>
				</g>
			</g>
			<g>
				<g>
					<path class="st2" d="M224.9,266.5c1.9,0.8,3.7,1.8,5.3,3.1c1.3,1,3-0.8,1.8-1.8c-1.8-1.4-3.7-2.6-5.8-3.5
						C224.7,263.7,223.4,265.8,224.9,266.5L224.9,266.5z"/>
				</g>
			</g>
			<g>
				<g>
					<path class="st2" d="M238.2,274.2c2.6,0.3,5.2,0.9,7.7,1.8c1.5,0.5,2.2-1.9,0.7-2.4c-2.7-0.9-5.5-1.5-8.4-1.9
						C236.6,271.5,236.6,274,238.2,274.2L238.2,274.2z"/>
				</g>
			</g>
			<g>
				<g>
					<path class="st2" d="M253.8,281c2.6,1,5.3,1.8,8.1,2.3c1.6,0.3,2.2-2.1,0.7-2.4c-2.8-0.5-5.5-1.3-8.1-2.3
						C253,278,252.3,280.4,253.8,281L253.8,281z"/>
				</g>
			</g>
			<g>
				<g>
					<path class="st2" d="M273,289.1c2.5,0.7,5,1.4,7.4,2.1c1.6,0.4,2.2-2,0.7-2.4c-2.5-0.7-5-1.4-7.4-2.1
						C272.1,286.2,271.4,288.6,273,289.1L273,289.1z"/>
				</g>
			</g>
			<g>
				<g>
					<path class="st2" d="M287.9,293.8c2.9,0.3,5.9,0.7,8.8,1c1.6,0.2,1.6-2.3,0-2.5c-2.9-0.3-5.9-0.7-8.8-1
						C286.3,291.1,286.3,293.6,287.9,293.8L287.9,293.8z"/>
				</g>
			</g>
			<g>
				<g>
					<path class="st2" d="M306.5,299.3c2.4,0.1,4.8,0.3,7.2,0.4c1.6,0.1,1.6-2.4,0-2.5c-2.4-0.1-4.8-0.3-7.2-0.4
						C304.9,296.7,304.9,299.2,306.5,299.3L306.5,299.3z"/>
				</g>
			</g>
			<g>
				<g>
					<path class="st2" d="M321.8,300.3c1.7,0.1,3.5,0.2,5.2,0.4c1.6,0.1,1.6-2.4,0-2.5c-1.7-0.1-3.5-0.2-5.2-0.4
						C320.2,297.6,320.2,300.1,321.8,300.3L321.8,300.3z"/>
				</g>
			</g>
			<g>
				<g>
					<path class="st2" d="M337.7,301.6c1.7,0,3.5,0,5.2,0c1.6,0,1.6-2.5,0-2.5c-1.7,0-3.5,0-5.2,0
						C336.1,299.1,336.1,301.6,337.7,301.6L337.7,301.6z"/>
				</g>
			</g>
			<g>
				<g>
					<path class="st2" d="M353.7,302.3c2.7,0,5.4,0,8.1,0c1.6,0,1.6-2.5,0-2.5c-2.7,0-5.4,0-8.1,0C352,299.8,352,302.3,353.7,302.3
						L353.7,302.3z"/>
				</g>
			</g>
			<g>
				<g>
					<path class="st2" d="M370.2,302.3c1.5,0,3,0,4.6,0c1.6,0,1.6-2.5,0-2.5c-1.5,0-3,0-4.6,0C368.6,299.8,368.6,302.3,370.2,302.3
						L370.2,302.3z"/>
				</g>
			</g>
			<g>
				<g>
					<path class="st2" d="M382,301.3c2,0.1,4-0.1,5.9-0.7c1.5-0.5,0.9-2.9-0.7-2.4c-1.7,0.5-3.4,0.7-5.2,0.6
						C380.4,298.7,380.4,301.2,382,301.3L382,301.3z"/>
				</g>
			</g>
			<g>
				<g>
					<path class="st2" d="M398.9,298.7c1.8-0.3,3.5-0.8,5.2-1.5c0.6-0.3,0.8-1.2,0.4-1.7c-0.4-0.6-1.1-0.7-1.7-0.4
						c-1.5,0.6-3,1-4.6,1.2c-0.7,0.1-1,0.9-0.9,1.5C397.5,298.5,398.2,298.8,398.9,298.7L398.9,298.7z"/>
				</g>
			</g>
			<g>
				<g>
					<path class="st2" d="M414.2,296c1.9-0.6,3.9-1.1,5.9-1.5c1.6-0.3,0.9-2.7-0.7-2.4c-2,0.4-4,0.9-5.9,1.5
						C412,294,412.6,296.5,414.2,296L414.2,296z"/>
				</g>
			</g>
			<g>
				<g>
					<path class="st2" d="M423.9,292.5c1.1,0,2.2,0,3.3,0c1.6,0,1.6-2.5,0-2.5c-1.1,0-2.2,0-3.3,0
						C422.3,290,422.3,292.5,423.9,292.5L423.9,292.5z"/>
				</g>
			</g>
			<g>
				<g>
					<path class="st2" d="M124.5,179c1.1,1.7,2.2,3.5,3.3,5.2c0.9,1.4,3,0.1,2.2-1.3c-1.1-1.7-2.2-3.5-3.3-5.2
						C125.8,176.4,123.6,177.6,124.5,179L124.5,179z"/>
				</g>
			</g>
			<g>
				<g>
					<path class="st2" d="M131.6,192.2c1,1,1.9,2,2.9,2.9c1.1,1.1,2.9-0.6,1.8-1.8c-1-1-1.9-2-2.9-2.9
						C132.2,189.3,130.4,191,131.6,192.2L131.6,192.2z"/>
				</g>
			</g>
			<g>
				<g>
					<path class="st2" d="M141.5,202c0.9,1.2,1.7,2.4,2.6,3.6c0.4,0.5,1.1,0.8,1.7,0.4c0.5-0.3,0.8-1.2,0.4-1.7
						c-0.9-1.2-1.7-2.4-2.6-3.6c-0.4-0.5-1.1-0.8-1.7-0.4C141.4,200.7,141.1,201.5,141.5,202L141.5,202z"/>
				</g>
			</g>
			<g>
				<g>
					<path class="st2" d="M150.7,213.7c1.2,1,2.4,1.7,3.8,2.3c0.6,0.3,1.4-0.3,1.5-0.9c0.2-0.7-0.2-1.3-0.9-1.5
						c-1-0.4-1.9-1-2.7-1.6c-0.5-0.4-1.3-0.5-1.8,0C150.3,212.4,150.2,213.3,150.7,213.7L150.7,213.7z"/>
				</g>
			</g>
			<g>
				<g>
					<path class="st2" d="M162.4,224.8c0.7,0.8,1.3,1.5,2,2.3c0.4,0.5,1.3,0.5,1.8,0c0.5-0.5,0.4-1.3,0-1.8c-0.7-0.8-1.3-1.5-2-2.3
						c-0.4-0.5-1.3-0.5-1.8,0C161.9,223.6,161.9,224.3,162.4,224.8L162.4,224.8z"/>
				</g>
			</g>
			<g>
				<g>
					<path class="st2" d="M175.7,237c0.9,0.6,1.7,1.1,2.6,1.7c0.6,0.4,1.4,0.1,1.7-0.4c0.4-0.6,0.1-1.3-0.4-1.7
						c-0.9-0.6-1.7-1.1-2.6-1.7c-0.6-0.4-1.4-0.1-1.7,0.4C174.9,235.9,175.2,236.6,175.7,237L175.7,237z"/>
				</g>
			</g>
			<g>
				<g>
					<path class="st2" d="M188.1,246c1,0.6,1.9,1.1,2.9,1.7c1.4,0.8,2.7-1.4,1.3-2.2c-1-0.6-1.9-1.1-2.9-1.7
						C188,243.1,186.7,245.2,188.1,246L188.1,246z"/>
				</g>
			</g>
			<g>
				<g>
					<path class="st2" d="M199.1,255.9c1.3,1,2.6,2,3.9,2.9c0.5,0.4,1.4,0.1,1.7-0.4c0.4-0.6,0.1-1.3-0.4-1.7c-1.3-1-2.6-2-3.9-2.9
						c-0.5-0.4-1.4-0.1-1.7,0.4C198.3,254.8,198.6,255.5,199.1,255.9L199.1,255.9z"/>
				</g>
			</g>
			<g>
				<g>
					<path class="st2" d="M214.2,265.8c1.9,0.9,3.8,1.8,5.8,2.8c1.4,0.7,2.7-1.5,1.3-2.2c-1.9-0.9-3.8-1.8-5.8-2.8
						C214,263,212.7,265.1,214.2,265.8L214.2,265.8z"/>
				</g>
			</g>
			<g>
				<g>
					<path class="st2" d="M229.5,274.9c0.8,0.7,1.8,1.2,2.8,1.3c0.7,0.1,1.3-0.2,1.5-0.9c0.2-0.6-0.2-1.4-0.9-1.5
						c-0.6-0.1-1.2-0.3-1.7-0.7c-0.5-0.4-1.3-0.5-1.8,0C229,273.6,228.9,274.5,229.5,274.9L229.5,274.9z"/>
				</g>
			</g>
			<g>
				<g>
					<path class="st2" d="M245,281.3c1.6,1.2,3.5,2,5.5,2.4c1.6,0.3,2.2-2.1,0.7-2.4c-1.8-0.3-3.4-1-4.9-2.1
						C244.9,278.2,243.7,280.4,245,281.3L245,281.3z"/>
				</g>
			</g>
			<g>
				<g>
					<path class="st2" d="M261.3,288.6c2,1.6,4.2,2.7,6.8,3.2c1.6,0.3,2.2-2.1,0.7-2.4c-2.1-0.4-4-1.3-5.6-2.6
						C261.8,285.8,260.1,287.6,261.3,288.6L261.3,288.6z"/>
				</g>
			</g>
			<g>
				<g>
					<path class="st2" d="M280.1,295.8c1.4,0.5,2.8,1,4.3,1.6c1.5,0.6,2.2-1.9,0.7-2.4c-1.4-0.5-2.8-1-4.3-1.6
						C279.2,292.8,278.6,295.2,280.1,295.8L280.1,295.8z"/>
				</g>
			</g>
			<g>
				<g>
					<path class="st2" d="M295.1,300.2c1.9,1,3.8,1.3,5.9,1c0.7-0.1,1-0.9,0.9-1.5c-0.2-0.7-0.9-1-1.5-0.9c-1.4,0.2-2.7-0.1-4-0.7
						C294.9,297.3,293.6,299.5,295.1,300.2L295.1,300.2z"/>
				</g>
			</g>
			<g>
				<g>
					<path class="st2" d="M312.3,304.1c1.6,0.9,3.4,1.4,5.2,1.4c1.6,0,1.6-2.5,0-2.5c-1.4,0-2.7-0.3-4-1.1
						C312.2,301.1,310.9,303.3,312.3,304.1L312.3,304.1z"/>
				</g>
			</g>
			<g>
				<g>
					<path class="st2" d="M329.3,306.7c1.8,0.1,3.7,0.2,5.5,0.4c1.6,0.1,1.6-2.4,0-2.5c-1.8-0.1-3.7-0.2-5.5-0.4
						C327.6,304.1,327.7,306.6,329.3,306.7L329.3,306.7z"/>
				</g>
			</g>
			<g>
				<g>
					<path class="st2" d="M344.9,307.1c2.3,0,4.6,0,6.8,0c1.6,0,1.6-2.5,0-2.5c-2.3,0-4.6,0-6.8,0
						C343.3,304.6,343.3,307.1,344.9,307.1L344.9,307.1z"/>
				</g>
			</g>
			<g>
				<g>
					<path class="st2" d="M361.1,307.1c1.4,0,2.8,0,4.2,0c1.6,0,1.6-2.5,0-2.5c-1.4,0-2.8,0-4.2,0
						C359.5,304.6,359.5,307.1,361.1,307.1L361.1,307.1z"/>
				</g>
			</g>
			<g>
				<g>
					<path class="st2" d="M390.7,303.3c0.9-0.1,1.7-0.2,2.6-0.3c0.7-0.1,1.2-0.5,1.2-1.2c0-0.6-0.6-1.3-1.2-1.2
						c-0.9,0.1-1.7,0.2-2.6,0.3c-0.7,0.1-1.2,0.5-1.2,1.2C389.5,302.6,390.1,303.4,390.7,303.3L390.7,303.3z"/>
				</g>
			</g>
			<g>
				<g>
					<path class="st2" d="M377.4,305.2c1.6,0,3.3,0,4.9,0c1.6,0,1.6-2.5,0-2.5c-1.6,0-3.3,0-4.9,0
						C375.8,302.7,375.8,305.2,377.4,305.2L377.4,305.2z"/>
				</g>
			</g>
			<g>
				<g>
					<path class="st2" d="M406.6,300.4c0.6-0.3,1.1-0.6,1.7-0.9c1.4-0.8,0.1-3-1.3-2.2c-0.6,0.3-1.1,0.6-1.7,0.9
						C404,299,405.2,301.2,406.6,300.4L406.6,300.4z"/>
				</g>
			</g>
		</g>
		<g>
			<path class="st3" d="M205.8,132.5c13.8,6.3,13.2,51.1,0.9,51.1c-63.3,2-82-71.1-70-93.1c16.4-27.9,51.5-25.9,60-10.6
				c12.5,22.3-13.6,24-13.6,24s7.9-4.8,2.8-17.1c-10.4-10.9-28.6-3-32.8,13.3C150.4,124.7,167.4,132.5,205.8,132.5z"/>
			<path class="st3" d="M276.7,77.3c4.3,13.8,44.8,21.3,48.3,9.6c20.1-60-34.2-91.5-58.7-86.3c-31.5,7.7-39.6,41.9-27.4,54.5
				c17.8,18.4,26.9-6.2,26.9-6.2s-6.9,6.1-17.2-2.2c-7.4-13.1,5.3-28.3,22.2-27.6C295.1,23.4,287.7,40.6,276.7,77.3z"/>
			<g>
				<g>
					<path class="st4" d="M281.5,71.6c1,1.6,2.3,2.9,3.7,3.9c1.5,1,3.1,1.7,4.8,2.3c3.4,1.1,7,1.7,10.6,2.3
						c3.6,0.6,7.2,0.9,10.7,0.7c3.6-0.2,7.1-1.1,10.4-2.9c-2.5,2.8-6.3,4.6-10.1,5.2c-3.8,0.7-7.7,0.6-11.5,0
						c-3.7-0.6-7.5-1.4-11-3.1c-1.8-0.8-3.4-1.9-4.8-3.3C282.9,75.2,281.9,73.5,281.5,71.6z"/>
				</g>
				<g>
					<path class="st4" d="M288.1,55.6c2.8,0.8,5.5,1.6,8.3,2.2c2.7,0.7,5.4,1.2,8.2,1.7c2.7,0.4,5.4,0.7,7.9,0.3
						c2.5-0.5,5-1.7,6.7-4.1c-0.2,1.5-1.1,2.8-2.2,3.9c-1.1,1.1-2.5,1.9-4,2.4c-3,1-6.2,0.9-9.1,0.4c-2.9-0.5-5.7-1.3-8.4-2.4
						C292.9,59,290.3,57.5,288.1,55.6z"/>
				</g>
				<g>
					<path class="st4" d="M293.6,39.1c2.1,0.8,4.1,0.9,6,0.6c1.9-0.3,3.7-1,5.5-2c1.8-0.9,3.5-2.1,5.3-3.2c0.9-0.6,1.8-1,2.7-1.6
						c0.8-0.6,1.6-1.3,2.1-2.3c0.2,1.1-0.3,2.3-1,3.3c-0.7,1-1.5,1.8-2.3,2.5c-1.6,1.5-3.3,2.9-5.4,4c-2,1.1-4.4,1.8-6.8,1.6
						c-1.2,0-2.4-0.3-3.4-0.8C295.2,40.8,294.2,40.1,293.6,39.1z"/>
				</g>
				<g>
					<path class="st4" d="M288,25.7c1.1-0.5,1.9-1,2.6-1.5c0.7-0.5,1.3-1.1,1.9-1.7c0.6-0.6,1.1-1.3,1.5-2c0.5-0.7,0.9-1.6,1.3-2.7
						c0.9,0.9,1.1,2.2,1,3.4c-0.2,1.2-0.7,2.4-1.6,3.3c-0.8,0.9-1.9,1.6-3.2,1.9C290.3,26.6,288.9,26.5,288,25.7z"/>
				</g>
				<g>
					<path class="st4" d="M277,11.6c-0.4-1-0.8-1.6-1.2-2.2c-0.4-0.6-0.8-1.1-1.3-1.5c-0.5-0.5-0.9-0.9-1.5-1.4
						c-0.6-0.5-1.2-0.9-2.1-1.4c0.7-0.8,1.9-1,3-0.8c1.1,0.2,2.1,0.7,2.8,1.5c0.7,0.8,1.2,1.8,1.3,2.9
						C278.1,9.8,277.8,10.9,277,11.6z"/>
				</g>
				<g>
					<path class="st4" d="M256.7,15.9c-0.6-0.7-1.1-1-1.6-1.3c-0.5-0.3-0.9-0.4-1.2-0.5c-0.3-0.1-0.7-0.2-1.3-0.2
						c-0.5,0-1.2-0.1-2.1,0.2c-0.1-1,0.4-1.9,1.3-2.4c0.8-0.5,1.9-0.7,2.9-0.4c1,0.3,1.8,1.1,2.2,2
						C257.3,14.1,257.3,15.2,256.7,15.9z"/>
				</g>
				<g>
					<path class="st4" d="M242.5,29.9c0.2,0.6,0.3,1.1,0.2,1.4c0,0.4-0.2,0.6-0.4,0.8c-0.2,0.2-0.5,0.3-0.8,0.4
						c-0.4,0-0.8,0-1.4-0.2c-0.2-0.6-0.3-1.1-0.2-1.4c0-0.4,0.2-0.6,0.4-0.8c0.2-0.2,0.5-0.3,0.8-0.4
						C241.4,29.7,241.9,29.7,242.5,29.9z"/>
				</g>
				<g>
					<g>
						<path class="st5" d="M245,49"/>
					</g>
				</g>
				<g>
					<path class="st4" d="M199.9,132.9c1.7,0.7,3.3,2.1,4.4,3.7c1.1,1.7,1.8,3.5,2.3,5.4c0.9,3.8,1,7.6,0.9,11.4
						c-0.2,3.8-0.8,7.7-2.3,11.3c-1.4,3.6-3.9,6.9-7.1,8.8c2.4-2.9,4-6.1,4.9-9.6c0.9-3.5,1.3-7,1.5-10.7c0.2-3.6,0.3-7.3-0.1-10.8
						c-0.2-1.8-0.6-3.5-1.3-5.1C202.3,135.6,201.3,134.1,199.9,132.9z"/>
				</g>
				<g>
					<path class="st4" d="M182.9,136.1c1.4,2.6,2.3,5.4,2.9,8.2c0.6,2.9,0.8,5.8,0.7,8.8c-0.1,2.9-0.6,6.1-2.2,8.8
						c-0.8,1.4-1.9,2.5-3.2,3.4c-1.3,0.8-2.8,1.4-4.3,1.3c2.7-1.2,4.4-3.4,5.3-5.8c1-2.4,1.2-5.1,1.3-7.8c0.1-2.8,0.1-5.6,0-8.4
						C183.4,141.8,183.1,139,182.9,136.1z"/>
				</g>
				<g>
					<path class="st4" d="M165.7,138.2c0.8,0.8,1.3,1.9,1.6,3c0.2,1.1,0.3,2.4,0.1,3.5c-0.3,2.4-1.5,4.6-3,6.3
						c-1.5,1.8-3.2,3.2-5,4.5c-0.9,0.6-1.8,1.3-2.9,1.7c-1.1,0.5-2.3,0.7-3.4,0.3c1.1-0.3,1.9-0.9,2.6-1.6c0.7-0.7,1.4-1.5,2.1-2.3
						c1.5-1.6,2.9-3.1,4.2-4.6c1.3-1.6,2.3-3.2,3-5C165.7,142.4,166.1,140.4,165.7,138.2z"/>
				</g>
				<g>
					<path class="st4" d="M153.6,130.1c0.6,1.1,0.4,2.4-0.1,3.6c-0.5,1.1-1.4,2.1-2.5,2.7c-1.1,0.6-2.3,1-3.6,0.9
						c-1.2-0.1-2.5-0.6-3.2-1.6c1.2-0.2,2.1-0.4,2.9-0.7c0.8-0.3,1.6-0.7,2.3-1.1c0.7-0.4,1.4-0.9,2.1-1.5
						C152.3,131.8,152.9,131.1,153.6,130.1z"/>
				</g>
				<g>
					<path class="st4" d="M147.1,117.2c-0.8,0.7-2,0.7-3.1,0.4c-1-0.3-1.9-1-2.6-1.9c-0.6-0.9-1-2-0.9-3c0-1.1,0.5-2.2,1.4-2.8
						c0.3,1,0.6,1.7,0.9,2.3c0.3,0.6,0.7,1.2,1.1,1.7c0.4,0.5,0.8,1.1,1.3,1.6C145.7,116.1,146.2,116.6,147.1,117.2z"/>
				</g>
				<g>
					<path class="st4" d="M151.6,90.1c-0.8,0.5-1.9,0.3-2.7-0.3c-0.8-0.5-1.4-1.5-1.5-2.6c-0.1-1.1,0.3-2.1,1-2.8
						c0.7-0.7,1.7-1.1,2.6-0.7c-0.4,0.8-0.5,1.5-0.6,2c-0.1,0.5,0,0.9,0,1.3c0,0.4,0.1,0.8,0.2,1.3C150.8,88.8,151,89.3,151.6,90.1z
						"/>
				</g>
				<g>
					<path class="st4" d="M167.7,75.2c-0.1-0.7,0-1.1,0.1-1.5c0.1-0.3,0.3-0.6,0.5-0.7c0.2-0.2,0.5-0.2,0.9-0.2
						c0.4,0,0.8,0.1,1.4,0.5c0.1,0.7,0,1.1-0.1,1.5c-0.1,0.3-0.3,0.6-0.5,0.7c-0.2,0.2-0.5,0.2-0.9,0.2
						C168.7,75.7,168.3,75.5,167.7,75.2z"/>
				</g>
			</g>
		</g>
		<g>
			<path class="st6" d="M183.1,103.9c0,0,13.8-7.8,5.6-21.8c-11.7-13-27.8,5.2-27.8,5.2s13.8-11.7,25-0.5
				C190.7,99.1,183.1,103.9,183.1,103.9z"/>
			<path class="st6" d="M145.1,148.9c58.2,50.1,71.1,10.8,71.1,10.8s8.5,28.4-6,33c-14.6,4.6-25.5-11.4-25.5-11.4
				S156.7,172.2,145.1,148.9z"/>
			<path class="st6" d="M266,48.8c0,0-10.9,11.6-22.5,0.3C233.5,34.8,255,23.3,255,23.3s-14.6,10.7-6.3,24.2
				C259.6,55.1,266,48.8,266,48.8z"/>
			<path class="st6" d="M308.1,14.6c18.9,63,7,77.8,7,77.8s13,10.4,20.9-2.6c8-13-6.2-29-6.2-29S327.9,31.5,308.1,14.6z"/>
			<path class="st6" d="M175.7,199.7c-2.5,3.7,39.1,58.8,64.4,50.6c1-0.3-1.3-3.3-7.3-10.2C211.4,241.2,182.2,206.6,175.7,199.7z"/>
			<path class="st6" d="M420.7,55.2c-3.4,2.4-23.5,26.7,9.9,95.5c-0.2-14.3-0.1-27.5-0.1-27.5S412.8,79.4,420.7,55.2z"/>
		</g>
		<g>
			<path class="st7" d="M347.8,120c39.8,21.2,75.4,79.1,24.3,125.6c-36,32.8-99.7,19.4-123-19.2c-14.2-23.6-19-40.9-22.1-60.2
				c-5.2-31.6,16.8-39.7,28.9-38.1c3-22.7,16.9-27.2,33.5-25.9C301.8,103.1,325.9,108.4,347.8,120z"/>
			<g>
				
					<ellipse transform="matrix(0.9227 -0.3854 0.3854 0.9227 -46.8388 117.532)" class="st8" cx="269.7" cy="175.6" rx="18.5" ry="17.8"/>
				
					<ellipse transform="matrix(0.9227 -0.3854 0.3854 0.9227 -47.0429 117.3982)" class="st7" cx="269.3" cy="176" rx="9" ry="8.8"/>
				
					<ellipse transform="matrix(0.6689 -0.7434 0.7434 0.6689 -41.2832 260.4231)" class="st8" cx="271.7" cy="176.6" rx="4" ry="4.1"/>
				
					<ellipse transform="matrix(0.6689 -0.7434 0.7434 0.6689 -39.7849 255.5495)" class="st8" cx="267" cy="172.4" rx="1.6" ry="1.7"/>
				<g>
					<path class="st9" d="M251.9,160c-2-0.9-3.6,0-4,1.4c-0.4,1.4,0.3,2.8,2.1,3.3c1.7,0.4,3.9,0.1,5.9-0.8
						C255.9,163.9,253.8,160.9,251.9,160z"/>
					<path class="st9" d="M248.6,170.8c-2.2-0.6-3.6,0.6-3.7,2.1c-0.1,1.5,0.8,2.7,2.6,2.8c1.8,0.1,3.8-0.6,5.6-1.8
						C253.2,174,250.5,171.3,248.6,170.8z"/>
					<path class="st9" d="M248.1,182.2c-2.3,0-3.3,1.6-3,3c0.3,1.4,1.5,2.4,3.3,2c1.7-0.4,3.5-1.6,4.9-3.2
						C253.3,184,250.1,182.2,248.1,182.2z"/>
				</g>
			</g>
			<path class="st10" d="M325,183.3c6.3,7,4.6,14.5-0.6,17.8c-5.2,3.2-11.8,2.3-15.7-4.3c-3.8-6.3-5-15.4-4.2-24.5
				C304.5,172.2,319.4,177,325,183.3z"/>
			<g>
				
					<ellipse transform="matrix(0.7267 -0.6869 0.6869 0.7267 -12.2502 257.1407)" class="st8" cx="317.1" cy="144" rx="17.1" ry="16.5"/>
				
					<ellipse transform="matrix(0.7267 -0.6869 0.6869 0.7267 -11.8264 257.1567)" class="st7" cx="317.3" cy="143.4" rx="8.4" ry="8.1"/>
				
					<ellipse transform="matrix(0.9184 -0.3956 0.3956 0.9184 -31.351 137.7094)" class="st8" cx="318.3" cy="144.9" rx="3.7" ry="3.8"/>
				
					<ellipse transform="matrix(0.9184 -0.3956 0.3956 0.9184 -29.4555 136.3405)" class="st8" cx="315.9" cy="139.6" rx="1.5" ry="1.6"/>
				<g>
					<path class="st10" d="M329.6,124.5c0.5-2.3-0.8-3.7-2.3-3.8c-1.5-0.1-2.8,0.9-2.9,2.9c-0.1,1.8,0.8,4,2.1,5.8
						C326.4,129.4,329.1,126.5,329.6,124.5z"/>
					<path class="st10" d="M317.7,123.4c0.1-2.4-1.4-3.5-2.9-3.3c-1.5,0.2-2.6,1.4-2.3,3.3c0.3,1.8,1.5,3.8,3.1,5.4
						C315.5,128.8,317.7,125.5,317.7,123.4z"/>
					<path class="st10" d="M305.9,125.4c-0.5-2.3-2.3-3-3.7-2.4c-1.4,0.6-2.2,2.1-1.4,3.8c0.8,1.7,2.4,3.2,4.4,4.4
						C305.3,131.1,306.4,127.4,305.9,125.4z"/>
				</g>
			</g>
			<g>
				<path class="st8" d="M284.1,227.8c1.6-28.3,28.7-3.5,48.4-17.7c17-12.3,12-47.7,34-37.5c27.7,12.8-0.6,54.2-14.6,63.5
					C322.1,256.1,282.9,247.7,284.1,227.8z"/>
				<polygon class="st7" points="318.7,221.8 319.2,231 311.1,222.2 				"/>
				<polygon class="st7" points="363.7,221.8 358.5,212.8 367.5,214.9 				"/>
			</g>
			<path class="st11" d="M363.5,149.4c2.4,5.2,0.2,11.4-5,13.9c-5.2,2.4-11.4,0.2-13.9-5.1c-2.4-5.2-0.2-11.4,5-13.9
				C354.9,141.9,361.1,144.2,363.5,149.4z"/>
			<path class="st11" d="M275.7,208.4c2.4,5.2,0.2,11.4-5,13.9c-5.2,2.4-11.4,0.2-13.9-5.1c-2.4-5.2-0.2-11.4,5-13.9
				C267,200.9,273.2,203.1,275.7,208.4z"/>
			<g>
				<ellipse transform="matrix(0.3326 -0.9431 0.9431 0.3326 55.5149 358.3958)" class="st8" cx="281" cy="140" rx="7.9" ry="7.6"/>
				
					<ellipse transform="matrix(0.3326 -0.9431 0.9431 0.3326 55.7554 358.2038)" class="st7" cx="281" cy="139.7" rx="3.9" ry="3.8"/>
				
					<ellipse transform="matrix(0.6363 -0.7714 0.7714 0.6363 -5.6277 268.2511)" class="st8" cx="281.7" cy="140.1" rx="1.7" ry="1.8"/>
				
					<ellipse transform="matrix(0.6363 -0.7714 0.7714 0.6363 -5.0967 266.0208)" class="st8" cx="279.6" cy="138.4" rx="0.7" ry="0.7"/>
				<g>
					<path class="st10" d="M282,129.3c-0.3-1.1-1.1-1.4-1.8-1.1c-0.6,0.3-1,1-0.6,1.8c0.4,0.8,1.2,1.5,2.1,2
						C281.8,132,282.3,130.2,282,129.3z"/>
					<path class="st10" d="M276.9,131.3c-0.5-1-1.3-1.2-1.9-0.7c-0.6,0.4-0.8,1.1-0.3,1.9c0.5,0.7,1.4,1.2,2.4,1.6
						C277.1,134,277.3,132.2,276.9,131.3z"/>
					<path class="st10" d="M272.4,134.6c-0.7-0.8-1.6-0.8-2-0.2c-0.5,0.5-0.4,1.3,0.2,1.9c0.7,0.5,1.7,0.8,2.7,0.9
						C273.4,137.2,273.1,135.4,272.4,134.6z"/>
				</g>
			</g>
		</g>
	</g>
</g>
<rect x="0.5" y="106.5" class="st12" width="120.2" height="69.4"/>
<polygon class="st13" points="60.6,145 0.5,106.2 120.7,106.2 "/>
</svg>
