<?xml version="1.0" encoding="utf-8"?>
<!-- Generator: Adobe Illustrator 19.2.1, SVG Export Plug-In . SVG Version: 6.00 Build 0)  -->
<svg version="1.1" id="Capa_1" xmlns="http://www.w3.org/2000/svg" xmlns:xlink="http://www.w3.org/1999/xlink" x="0px" y="0px"
	 viewBox="0 0 600 1200" style="enable-background:new 0 0 600 1200;" xml:space="preserve">
<style type="text/css">
	.st0{opacity:0.7;}
	.st1{clip-path:url(#SVGID_2_);fill:#1A1A1A;}
	.st2{fill:#FBB03B;}
	.st3{fill:#F15A24;}
	.st4{fill:#FCEE21;}
	.st5{clip-path:url(#SVGID_4_);fill:#E6E6E6;}
	.st6{clip-path:url(#SVGID_6_);fill:none;stroke:#FFFF00;stroke-width:0.989;stroke-miterlimit:10;}
	.st7{fill:none;stroke:#FFFF00;stroke-width:0.989;stroke-miterlimit:10;}
	.st8{clip-path:url(#SVGID_8_);fill:#E6E6E6;}
	.st9{clip-path:url(#SVGID_10_);fill:#E6E6E6;}
	.st10{clip-path:url(#SVGID_12_);fill:#E6E6E6;}
	.st11{fill:#FFFFFF;}
	.st12{fill:#1D1D1B;}
	.st13{fill:#FF41D6;}
	.st14{fill:#65C8D0;}
	.st15{fill:#00FFFF;}
	.st16{fill:none;}
	.st17{font-family:'Myfrida-BoldItalic';}
	.st18{font-size:111.9847px;}
</style>
<g>
	<g>
		<g class="st0">
			<g>
				<g>
					<defs>
						<rect id="SVGID_1_" x="72.4" y="1117.1" width="423.8" height="74.3"/>
					</defs>
					<clipPath id="SVGID_2_">
						<use xlink:href="#SVGID_1_"  style="overflow:visible;"/>
					</clipPath>
					<path class="st1" d="M496.3,1154.2c0,20.5-94.9,37.1-211.9,37.1s-211.9-16.6-211.9-37.1s94.9-37.1,211.9-37.1
						S496.3,1133.7,496.3,1154.2"/>
				</g>
			</g>
		</g>
		<path class="st2" d="M190.2,1128.1c0,0-14.3-15.4-44-69.5c-41,7.7-98.5-24.5-108.7-36.8C4.5,981.9-1.1,942,6.8,869
			C25.5,694.8,107,392,258.2,381.7c180.6,0,259.7,294.3,282.1,464.3c9.1,68.6,17,136-28.7,183.3c-19.6,20.3-71.9,33.9-106.9,20.9
			c-11.9,29.7-22,52.3-39.2,76c8.6,4.1,31.8,12.6,27.3,26.7c-19.6,0.1-34.9-2.1-52.5-4.9c0,0,30-60.6,22.8-93.9
			c-23.2,13.3-67.3,17.1-82,16.8c-27.9-0.4-48.7-0.6-95.6-16.8c5.9,40.6,32.4,94.1,32.4,94.1s-27.5,5.9-52.3,5.9
			C155.4,1140.1,190.2,1128.1,190.2,1128.1"/>
		<path class="st3" d="M165.6,499c-9.4,10.4-85.9-84-34.9-158.6c17.9,70.8,75.8,109.6,75.8,109.6S176.9,468.8,165.6,499"/>
		<path class="st3" d="M399.7,484.4c8,8.8,73-71.4,29.7-134.8c-15.2,60.2-64.5,93.1-64.5,93.1S390.1,458.7,399.7,484.4"/>
		<path class="st4" d="M252.9,394.2c-4.8,0.8-9.5,2.2-13.7,4.6c-2.5,1.4-0.2,5.3,2.3,3.9c3.9-2.2,8.3-3.4,12.7-4.2
			C256.9,398.1,255.7,393.7,252.9,394.2"/>
		<path class="st4" d="M223.6,406c-4.1,0.9-7.9,2.5-11.5,4.6c-2.5,1.5-0.2,5.3,2.3,3.9c3.3-1.9,6.7-3.4,10.5-4.2
			C227.6,409.7,226.4,405.4,223.6,406"/>
		<path class="st4" d="M194.7,421.9c-1.2,1.2-2.4,2.4-3.7,3.7c-2,2,1.1,5.2,3.2,3.2c1.2-1.2,2.4-2.4,3.7-3.7
			C199.9,423.1,196.8,419.9,194.7,421.9"/>
		<path class="st4" d="M253.6,417.7c-3.6,1.4-7.3,2.2-11,2.9c-2.8,0.6-1.6,4.9,1.2,4.3c3.7-0.7,7.4-1.6,11-2.9
			C257.5,421,256.3,416.7,253.6,417.7"/>
		<path class="st4" d="M220.9,428.2c-3,1.6-5.4,3.9-7.8,6.2c-2,2,1.1,5.2,3.2,3.2c2.1-2.1,4.2-4.1,6.9-5.5
			C225.7,430.7,223.4,426.9,220.9,428.2"/>
		<path class="st4" d="M135.7,489.1c-1.5,2.1-3.6,3.7-5.1,5.9c-1.7,2.4,2.2,4.6,3.9,2.3c1.5-2.1,3.6-3.7,5.1-5.9
			C141.3,489,137.4,486.8,135.7,489.1"/>
		<path class="st4" d="M121.6,513.8c-0.7,2.7-1.9,5.1-3.8,7.1c-2,2.1,1.2,5.2,3.2,3.2c2.4-2.5,4.1-5.7,5-9
			C126.6,512.2,122.3,511,121.6,513.8"/>
		<path class="st4" d="M111.6,543.3c-2.7,2-3.7,4.9-4.7,7.9c-0.9,2.7,3.4,3.9,4.3,1.2c0.6-1.8,1-4.1,2.6-5.3
			C116.2,545.5,114,541.6,111.6,543.3"/>
		<path class="st4" d="M96.9,573.4c-1.5,3-3,6.1-3.9,9.3c-0.7,2.8,3.6,4,4.3,1.2c0.8-2.9,2.1-5.6,3.4-8.3
			C102,573.1,98.2,570.8,96.9,573.4"/>
		<path class="st4" d="M83.7,603.5c-1.9,2.6-3.7,5.2-5.1,8.1c-1.3,2.6,2.6,4.8,3.9,2.3c1.5-2.9,3.2-5.5,5.1-8.1
			c0.7-1,0.2-2.5-0.8-3.1C85.6,602,84.4,602.5,83.7,603.5"/>
		<path class="st4" d="M71.7,637.7c-0.7,2.2-0.8,4.4-1.5,6.6c-0.8,2.8,3.5,3.9,4.3,1.2c0.7-2.2,0.8-4.4,1.5-6.6
			C76.9,636.1,72.6,635,71.7,637.7"/>
		<path class="st4" d="M63.9,669.4c-1.6,2.4-2.5,5.1-3.2,7.9c-0.7,2.8,3.6,4,4.3,1.2c0.6-2.4,1.3-4.7,2.7-6.8
			C69.3,669.3,65.5,667,63.9,669.4"/>
		<path class="st4" d="M52.6,703.5c0,1.5,0.2,3.3-0.4,4.7c-0.5,1.1-0.3,2.4,0.8,3.1c0.9,0.6,2.6,0.3,3.1-0.8c1-2.2,1-4.6,1-7
			C57.1,700.7,52.6,700.7,52.6,703.5"/>
		<path class="st4" d="M43.2,731.5c-0.8,2.8-0.8,5.8-0.8,8.7s4.5,2.9,4.5,0c0-2.5-0.1-5.1,0.7-7.5C48.3,730,44,728.8,43.2,731.5"/>
		<path class="st4" d="M48.5,762.6c1.5,2.2,2.9,4.4,4.4,6.6c1.6,2.4,5.5,0.1,3.9-2.3c-1.5-2.2-2.9-4.4-4.4-6.6
			C50.8,758,46.9,760.2,48.5,762.6"/>
		<path class="st4" d="M61,792.6c1.5,3.1,2.9,6.4,4.4,9.5c1.3,2.6,5.1,0.3,3.9-2.3c-1.5-3.1-2.9-6.4-4.4-9.5
			C63.6,787.8,59.7,790.1,61,792.6"/>
		<path class="st4" d="M74.9,821.2c1.5,2.8,3.4,5.4,5.1,8.1c1.6,2.4,5.5,0.1,3.9-2.3c-1.8-2.7-3.7-5.2-5.1-8.1
			C77.4,816.4,73.6,818.7,74.9,821.2"/>
		<path class="st4" d="M91,846.9c1,1.9,2.5,3.4,4,4.8c2,2,5.2-1.1,3.2-3.2c-1.2-1.2-2.5-2.4-3.3-3.9C93.5,842.1,89.7,844.4,91,846.9
			"/>
		<path class="st4" d="M113.1,866c1.6,0.8,2.8,2.1,4.4,2.9c2.5,1.4,4.8-2.5,2.2-3.9c-1.6-0.8-2.8-2.1-4.4-2.9
			C112.8,860.8,110.6,864.6,113.1,866"/>
		<path class="st4" d="M138,874.8c3,2.1,6.3,3.2,9.9,3.2c2.9,0,2.9-4.4,0-4.5c-2.9,0-5.3-0.9-7.7-2.6
			C137.9,869.3,135.7,873.1,138,874.8"/>
		<path class="st4" d="M164.8,879.5h5.1c2.9,0,2.9-4.5,0-4.5h-5.1C161.9,875.1,161.9,879.5,164.8,879.5"/>
		<path class="st4" d="M190.5,886.1h6.6c2.9,0,2.9-4.5,0-4.5h-6.6C187.6,881.7,187.6,886.1,190.5,886.1"/>
		<path class="st4" d="M212.3,886.9c1.1,1,2.3,1.4,3.8,1.4c2.9,0,2.9-4.4,0-4.5c-0.2,0-0.5,0-0.6-0.1
			C213.3,881.9,210.1,885.1,212.3,886.9"/>
		<path class="st4" d="M35.8,767.5c-0.7,2.4-0.7,4.9-1.5,7.3c-0.8,2.8,3.5,3.9,4.3,1.2c0.7-2.4,0.7-4.9,1.5-7.3
			C41,765.9,36.7,764.7,35.8,767.5"/>
		<path class="st4" d="M28.5,799.4c0.5,1.7,0.6,3.5,0.7,5.3c0,2.9,4.5,2.9,4.5,0c0-2.2-0.2-4.4-0.8-6.5
			C32,795.5,27.7,796.7,28.5,799.4"/>
		<path class="st4" d="M24.8,826.7v4.4c0,2.9,4.5,2.9,4.5,0v-4.4C29.2,823.8,24.8,823.8,24.8,826.7"/>
		<path class="st4" d="M18.2,852.4v5.9c0,2.9,4.5,2.9,4.5,0v-5.9C22.6,849.5,18.2,849.5,18.2,852.4"/>
		<path class="st4" d="M17.4,888.3v4.4c0,2.9,4.5,2.9,4.5,0v-4.4C21.9,885.4,17.4,885.4,17.4,888.3"/>
		<path class="st4" d="M15.2,913.2v5.9c0,2.9,4.5,2.9,4.5,0v-5.9C19.7,910.3,15.2,910.3,15.2,913.2"/>
		<path class="st4" d="M18.2,943.3c0.1,4,0.8,7.8,2.5,11.4c1.2,2.6,5.1,0.3,3.9-2.3c-1.4-2.9-1.9-6-1.9-9.1
			C22.6,940.4,18.1,940.4,18.2,943.3"/>
		<path class="st4" d="M25.1,974.4c1.3,1.9,2.4,3.9,3.7,5.9c1.6,2.4,5.4,0.2,3.9-2.3c-1.3-1.9-2.4-3.9-3.7-5.9
			C27.3,969.8,23.5,972,25.1,974.4"/>
		<path class="st4" d="M40.2,997.4c0.8,3,2.1,6,4.2,8.3c2,2.1,5.1-1.1,3.2-3.2c-1.6-1.7-2.5-4.1-3.1-6.3
			C43.8,993.4,39.5,994.6,40.2,997.4"/>
		<path class="st4" d="M58.4,1019.6c3.1,3.1,6.5,5.5,10.5,7.2c2.6,1.1,3.8-3.2,1.2-4.3c-3.3-1.4-6-3.5-8.5-6
			C59.5,1014.4,56.3,1017.6,58.4,1019.6"/>
		<path class="st4" d="M85,1035.6c2.9,0.8,5.6,2.2,8.7,2.3c2.9,0.1,2.9-4.4,0-4.5c-2.6-0.1-5-1.4-7.5-2.1
			C83.4,1030.5,82.3,1034.8,85,1035.6"/>
		<path class="st4" d="M116.4,1045.9h9.5c2.9,0,2.9-4.5,0-4.5h-9.5C113.5,1041.5,113.5,1045.9,116.4,1045.9"/>
		<path class="st4" d="M40.9,814.2v7.3c0,2.9,4.5,2.9,4.5,0v-7.3C45.3,811.4,40.9,811.4,40.9,814.2"/>
		<path class="st4" d="M40.2,844.9c0.6,1.9,0.6,3.5,0,5.4c-0.8,2.8,3.5,3.9,4.3,1.2c0.8-2.6,0.8-5.2,0-7.8
			C43.7,841,39.4,842.1,40.2,844.9"/>
		<path class="st4" d="M33.1,869.6c-0.9,2-1,4.1-1,6.3c0,2.9,4.5,2.9,4.5,0c0-1.3-0.1-2.8,0.4-4c0.5-1.1,0.3-2.4-0.8-3.1
			C35.2,868.2,33.6,868.5,33.1,869.6"/>
		<path class="st4" d="M33.9,904.8c0.5,1,0.4,2.2,0.4,3.3c0,2.9,4.5,2.9,4.5,0c0-2-0.2-3.7-1-5.5c-0.5-1.1-2.1-1.3-3.1-0.8
			C33.5,902.4,33.4,903.7,33.9,904.8"/>
		<path class="st4" d="M30.9,927.5c0.5,1.2,0.4,2.7,0.4,4c0,2.9,4.5,2.9,4.5,0c0-2.2-0.1-4.2-1-6.3c-0.5-1.1-2.1-1.3-3.1-0.8
			C30.6,925.1,30.4,926.4,30.9,927.5"/>
		<path class="st4" d="M36.4,959.5c1.2,1.3,1.8,3.1,2.6,4.7c1.3,2.6,5.1,0.3,3.9-2.3c-1-2-1.8-3.9-3.3-5.6
			C37.6,954.2,34.4,957.4,36.4,959.5"/>
		<path class="st4" d="M48.9,980.8c1.1,1.2,1.9,2.5,2.6,3.9c1.3,2.6,5.1,0.3,3.9-2.3c-0.9-1.8-1.9-3.4-3.3-4.8
			C50,975.5,46.9,978.7,48.9,980.8"/>
		<path class="st4" d="M60.3,1000.9c2.1,1.5,3.7,3.6,5.9,5.1c2.4,1.7,4.6-2.2,2.3-3.9c-2.1-1.5-3.7-3.6-5.9-5.1
			C60.2,995.4,58,999.3,60.3,1000.9"/>
		<path class="st4" d="M83.7,1013.3c1.6,3.2,3.6,5.9,7.2,6.9c2.8,0.8,4-3.5,1.2-4.3c-2.4-0.7-3.5-2.8-4.5-4.8
			C86.3,1008.5,82.4,1010.7,83.7,1013.3"/>
		<path class="st4" d="M110.7,1026.8c1.7,0.5,3.7,0.5,5.3,1.2c1.1,0.5,2.4,0.3,3.1-0.8c0.6-0.9,0.3-2.6-0.8-3.1
			c-2-0.9-4.3-1-6.4-1.7C109.1,1021.6,108,1025.9,110.7,1026.8"/>
		<path class="st4" d="M144.4,1035.6c2,0.7,3.9,1.5,5.9,2.2c2.7,0.9,3.9-3.4,1.2-4.3c-2-0.7-3.9-1.5-5.9-2.2
			C142.9,1030.3,141.7,1034.6,144.4,1035.6"/>
		<path class="st4" d="M153.9,1051.7c3.6,0.8,7.2,0.8,10.9,0.8c2.9,0,2.9-4.5,0-4.5c-3.2,0-6.5,0.1-9.7-0.7
			C152.3,1046.8,151.1,1051.1,153.9,1051.7"/>
		<path class="st4" d="M57.1,833.9c0.5,1.5,0.6,2.9,0.7,4.5c0,2.9,4.5,2.9,4.5,0c0-2-0.2-3.9-0.8-5.7
			C60.5,830,56.2,831.1,57.1,833.9"/>
		<path class="st4" d="M50.4,863.4c0,1.7-0.7,3.4-0.7,5.1c-0.1,2.9,4.3,2.9,4.5,0c0.1-1.7,0.7-3.4,0.7-5.1
			C55,860.5,50.5,860.5,50.4,863.4"/>
		<path class="st4" d="M49.7,884.6v6.6c0,2.9,4.5,2.9,4.5,0v-6.6C54.1,881.7,49.7,881.7,49.7,884.6"/>
		<path class="st4" d="M47.5,915.4v5.1c0,2.9,4.5,2.9,4.5,0v-5.1C51.9,912.5,47.5,912.5,47.5,915.4"/>
		<path class="st4" d="M48.2,941.1v5.9c0,2.9,4.5,2.9,4.5,0v-5.9C52.7,938.2,48.2,938.2,48.2,941.1"/>
		<path class="st4" d="M59.2,963.8c0.1,2,0.8,3.8,2.1,5.2c1.9,2.1,5.1-1,3.2-3.2c-0.5-0.6-0.8-1.3-0.8-2.1
			C63.5,960.9,59.1,960.9,59.2,963.8"/>
		<path class="st4" d="M73.8,986.6c1.2,1.2,2.4,2.4,3.7,3.7c2,2,5.2-1.1,3.2-3.2c-1.2-1.2-2.4-2.4-3.7-3.7
			C74.9,981.4,71.8,984.6,73.8,986.6"/>
		<path class="st4" d="M89.6,995c2.3,3,4.9,5.8,8.7,6.9c2.8,0.8,4-3.5,1.2-4.3c-2.6-0.7-4.4-2.8-6-4.8c-0.7-1-1.9-1.4-3.1-0.8
			C89.4,992.5,88.8,994,89.6,995"/>
		<path class="st4" d="M120.7,1008.6c1.5,1.3,3.1,1.7,4.8,2.5c2.6,1.2,4.9-2.7,2.3-3.9c-1.3-0.6-2.9-0.9-3.9-1.9
			C121.7,1003.5,118.6,1006.7,120.7,1008.6"/>
		<path class="st4" d="M143.5,1020.3h6.6c2.9,0,2.9-4.5,0-4.5h-6.6C140.7,1015.8,140.7,1020.3,143.5,1020.3"/>
		<path class="st4" d="M173.9,1029.5c1.7,0.7,3.5,0.7,5.1,1.5c1.1,0.5,2.4,0.3,3.1-0.8c0.6-0.9,0.3-2.6-0.8-3.1
			c-1.7-0.7-3.5-0.8-5.1-1.5c-1.1-0.5-2.4-0.3-3.1,0.8C172.6,1027.4,172.8,1029,173.9,1029.5"/>
		<path class="st4" d="M72.5,856.2c-0.6,2.7-0.7,5.4-1.5,8.1c-0.8,2.8,3.5,3.9,4.3,1.2c0.8-2.6,0.8-5.4,1.5-8.1
			C77.4,854.6,73.1,853.4,72.5,856.2"/>
		<path class="st4" d="M67.4,887.7c-0.7,2.1-0.8,4.2-0.8,6.5c0,2.9,4.5,2.9,4.5,0c0-1.8,0.1-3.5,0.7-5.3
			C72.5,886.1,68.2,885,67.4,887.7"/>
		<path class="st4" d="M65.8,911v5.9c0,2.9,4.5,2.9,4.5,0V911C70.3,908.1,65.8,908.1,65.8,911"/>
		<path class="st4" d="M65.9,934.3c0.6,2,0.7,3.9,0.7,6c0,2.9,4.5,2.9,4.5,0c0-2.4-0.1-4.8-0.8-7.2C69.3,930.4,65,931.6,65.9,934.3"
			/>
		<path class="st4" d="M78.3,958.5c0.7,1.9,2,3.9,2.1,6c0.1,2.9,4.6,2.9,4.5,0c-0.1-2.6-1.4-4.8-2.3-7.2
			C81.7,954.6,77.4,955.8,78.3,958.5"/>
		<path class="st4" d="M100.9,977.8c2.2,2.2,4.4,4.4,6.6,6.6c2,2,5.2-1.1,3.2-3.2c-2.2-2.2-4.4-4.4-6.6-6.6
			C102,972.6,98.9,975.8,100.9,977.8"/>
		<path class="st4" d="M128,990.3c0.9,0.8,2,1.4,2.9,2.2c2.1,1.9,5.3-1.2,3.2-3.2c-0.9-0.8-2-1.4-2.9-2.2
			C129.1,985.2,125.9,988.3,128,990.3"/>
		<path class="st4" d="M147.5,998.7c3.6,1.7,7.4,2.4,11.4,2.5c2.9,0,2.9-4.4,0-4.5c-3.1,0-6.3-0.5-9.1-1.9
			C147.2,993.6,144.9,997.5,147.5,998.7"/>
		<path class="st4" d="M174.7,1005.3c3,1.4,6.1,1.7,9.3,2.4c2.8,0.6,4-3.7,1.2-4.3c-2.7-0.6-5.7-0.8-8.3-2
			C174.3,1000.2,172.1,1004.1,174.7,1005.3"/>
		<path class="st4" d="M66.3,729.6c0.6-1.4,0.8-3,1.5-4.4c0.5-1.1,0.3-2.4-0.8-3.1c-0.9-0.6-2.6-0.3-3.1,0.8c-0.6,1.4-0.8,3-1.5,4.4
			c-0.5,1.1-0.3,2.4,0.8,3.1C64.2,731,65.8,730.7,66.3,729.6"/>
		<path class="st4" d="M73.1,704.1c0.7-3.4,1.9-6.6,3.4-9.7c1.3-2.6-2.6-4.8-3.9-2.3c-1.7,3.4-3.1,7-3.9,10.8
			C68.2,705.8,72.5,707,73.1,704.1"/>
		<path class="st4" d="M84.6,667.3c0.7-1.7,0.8-3.5,1.5-5.1c0.5-1.1,0.3-2.4-0.8-3.1c-0.9-0.6-2.6-0.3-3.1,0.8
			c-0.7,1.7-0.7,3.5-1.5,5.1c-0.5,1.1-0.3,2.4,0.8,3.1C82.5,668.7,84.1,668.4,84.6,667.3"/>
		<path class="st4" d="M93.6,640.4c1.3-3.9,2.8-7.7,3.7-11.7c0.6-2.8-3.7-4-4.3-1.2c-0.9,4-2.4,7.8-3.7,11.7
			C88.4,641.9,92.7,643.1,93.6,640.4"/>
		<path class="st4" d="M105.1,607.2c2.4-1.7,3.8-3.7,4.7-6.5c0.9-2.7-3.4-3.9-4.3-1.2c-0.5,1.6-1.2,2.8-2.6,3.8
			C100.5,605,102.7,608.9,105.1,607.2"/>
		<path class="st4" d="M113.9,577.9c2-1.4,3.8-3,5.9-4.4c2.4-1.6,0.1-5.5-2.2-3.9c-2,1.4-3.8,3-5.9,4.4
			C109.3,575.7,111.5,579.5,113.9,577.9"/>
		<path class="st4" d="M128.3,546c2.7-2.8,4.7-6,5.7-9.8c0.7-2.8-3.6-4-4.3-1.2c-0.8,3-2.4,5.6-4.6,7.8
			C123.1,545,126.3,548.1,128.3,546"/>
		<path class="st4" d="M147.2,515c0.8-2.6,0.8-5.3,0.8-7.9c0-2.9-4.5-2.9-4.5,0c0,2.3,0,4.6-0.7,6.7
			C142,516.6,146.3,517.7,147.2,515"/>
		<path class="st4" d="M234.3,446.2c2.7-0.6,5.4-0.7,8.1-1.5c2.7-0.8,1.6-5.1-1.2-4.3c-2.6,0.8-5.4,0.8-8.1,1.5
			C230.3,442.5,231.5,446.8,234.3,446.2"/>
		<path class="st4" d="M204.8,467.2c3.2-1.9,6.3-4.2,9.7-5.6c2.6-1.1,1.5-5.4-1.2-4.3c-3.9,1.6-7.2,3.9-10.8,6.1
			C200.1,464.9,202.3,468.7,204.8,467.2"/>
		<path class="st4" d="M182.8,487.8c2.7-1.4,4.9-3.4,7.3-5.1c2.4-1.6,0.1-5.5-2.3-3.9c-2.5,1.7-4.7,3.7-7.3,5.1
			C178,485.2,180.2,489.1,182.8,487.8"/>
		<path class="st4" d="M149.9,539.7c2-2.6,4.7-4.6,7-6.9c2-2-1.1-5.2-3.2-3.2c-2.6,2.6-5.4,4.9-7.7,7.8c-0.7,1-0.1,2.5,0.8,3.1
			C148,541.2,149.1,540.7,149.9,539.7"/>
		<path class="st4" d="M142.3,560.9c-0.7,1.5-1.5,2.9-2.2,4.4c-1.3,2.6,2.6,4.8,3.9,2.3c0.7-1.5,1.5-2.9,2.2-4.4
			C147.5,560.6,143.6,558.4,142.3,560.9"/>
		<path class="st4" d="M172.1,515.7c1.3-3.7,4.5-6.2,7.8-8.2c2.5-1.5,0.2-5.4-2.3-3.9c-4.3,2.6-8.1,6-9.8,10.9
			C166.8,517.3,171.1,518.4,172.1,515.7"/>
		<path class="st4" d="M203.8,491.8c2.6-2.6,5.2-5.1,8.3-7c2.5-1.5,0.2-5.4-2.3-3.9c-3.5,2.1-6.4,4.8-9.2,7.7
			C198.6,490.7,201.7,493.8,203.8,491.8"/>
		<path class="st4" d="M232.6,469.4c2.7-1.3,5.4-1.9,8.4-1.9c2.9,0,2.9-4.5,0-4.5c-3.8,0-7.3,0.9-10.7,2.5
			C227.8,466.8,230.1,470.7,232.6,469.4"/>
		<path class="st4" d="M257.5,461.4c1.6,0.7,3.1,1,4.8,1c2.9,0,2.9-4.5,0-4.5c-0.9,0-1.7-0.1-2.5-0.4c-1.1-0.5-2.4-0.3-3.1,0.8
			C256.1,459.3,256.4,460.9,257.5,461.4"/>
		<path class="st4" d="M255.6,441.2c0.7,0.6,1.5,0.9,2.2,1.5c2.2,1.9,5.3-1.3,3.2-3.2c-0.7-0.6-1.5-0.9-2.2-1.5
			C256.6,436.2,253.4,439.4,255.6,441.2"/>
		<path class="st4" d="M250.4,482.1c3.1-1.1,5.9-0.7,8.5,1.2c2.3,1.7,4.6-2.2,2.3-3.9c-3.6-2.5-7.9-3.2-12-1.7
			C246.6,478.8,247.7,483.1,250.4,482.1"/>
		<path class="st4" d="M222.8,496.9c2-1.9,4.4-3.1,7.1-3.8c2.8-0.7,1.6-5-1.2-4.3c-3.4,0.9-6.5,2.5-9,5
			C217.6,495.8,220.8,498.9,222.8,496.9"/>
		<path class="st4" d="M190.9,520c2.1-1.4,4.5-2.3,6.6-3.7c2.4-1.5,0.2-5.4-2.2-3.9c-2.1,1.4-4.5,2.3-6.6,3.7
			C186.2,517.7,188.4,521.6,190.9,520"/>
		<path class="st4" d="M171.4,537.9c2.4-0.1,4.4-1.2,5.6-3.3c1.4-2.5-2.4-4.8-3.9-2.3c-0.4,0.7-0.9,1.1-1.7,1.1
			C168.5,533.6,168.5,538,171.4,537.9"/>
		<path class="st4" d="M214.5,516.6c3.2-0.7,6.4-1.4,9.5-2.2c2.8-0.7,1.6-5-1.2-4.3c-3.2,0.8-6.3,1.6-9.5,2.2
			C210.5,512.8,211.7,517.1,214.5,516.6"/>
		<path class="st4" d="M242.4,504.8c2.7-0.6,5.4-0.7,8.2-0.7c2.9,0,2.9-4.5,0-4.5c-3.2,0-6.3,0.1-9.4,0.8
			C238.4,501.2,239.6,505.5,242.4,504.8"/>
		<path class="st4" d="M267.3,505c0.8,0.9,1.4,2,2.2,2.9c1.9,2.1,5.1-1,3.2-3.2c-0.8-0.9-1.4-2-2.2-2.9
			C268.5,499.7,265.4,502.9,267.3,505"/>
		<path class="st4" d="M127.3,586.9c-2.2,2.3-3.7,5.1-5.5,7.8c-1.6,2.4,2.3,4.6,3.9,2.3c1.5-2.3,2.8-4.8,4.8-6.9
			C132.5,588,129.3,584.8,127.3,586.9"/>
		<path class="st4" d="M109.1,619.2c-0.1,1.4-0.6,2.8-1.2,4c-1.2,2.6,2.6,4.8,3.9,2.3c0.9-2,1.7-4.1,1.8-6.3
			C113.6,616.4,109.2,616.4,109.1,619.2"/>
		<path class="st4" d="M105.5,648c-0.9,2.5-2.1,4.8-2.9,7.3c-0.9,2.7,3.4,3.9,4.3,1.2c0.9-2.5,2.1-4.8,2.9-7.3
			C110.7,646.4,106.4,645.3,105.5,648"/>
		<path class="st4" d="M98.8,674.2c-0.1,2.6-1.3,4.8-2.6,6.9c-1.6,2.4,2.3,4.7,3.9,2.3c1.8-2.8,3.1-5.8,3.2-9.2
			C103.3,671.4,98.9,671.4,98.8,674.2"/>
		<path class="st4" d="M88.1,709c-1.5,2.4-2.3,5.2-3.2,7.9c-0.9,2.7,3.4,3.9,4.3,1.2c0.8-2.3,1.4-4.7,2.7-6.8
			C93.5,708.8,89.6,706.6,88.1,709"/>
		<path class="st4" d="M74.9,737.6c-1.4,2.8-3.1,5.5-3.9,8.6c-0.7,2.8,3.6,4,4.3,1.2c0.7-2.7,2.2-5.1,3.4-7.5
			C80.1,737.3,76.2,735,74.9,737.6"/>
		<path class="st4" d="M74.6,766.6c0,1.1,0,2.2-0.4,3.3c-0.5,1.1-0.3,2.4,0.8,3.1c0.9,0.6,2.6,0.3,3.1-0.8c0.8-1.8,1-3.6,1-5.5
			C79.1,763.7,74.6,763.7,74.6,766.6"/>
		<path class="st4" d="M96.7,733.7c-1.5,3.9-2.9,7.8-4.4,11.7c-1.1,2.7,3.3,3.8,4.3,1.2c1.5-3.9,2.9-7.8,4.4-11.7
			C102,732.3,97.7,731.1,96.7,733.7"/>
		<path class="st4" d="M108.3,699.9c-0.1,2.1-0.7,4-1.4,6c-0.9,2.7,3.4,3.9,4.3,1.2c0.8-2.4,1.5-4.7,1.5-7.2
			C112.9,697,108.4,697,108.3,699.9"/>
		<path class="st4" d="M116.5,724.9c-0.7,2.9-1.5,5.9-2.2,8.8c-0.7,2.8,3.6,4,4.3,1.2c0.7-2.9,1.5-5.9,2.2-8.8
			C121.5,723.3,117.2,722.2,116.5,724.9"/>
		<path class="st4" d="M81.3,787.3c-0.6,2.5-1.4,4.9-2.2,7.3c-0.9,2.7,3.4,3.9,4.3,1.2c0.8-2.4,1.6-4.9,2.2-7.3
			C86.3,785.7,82,784.5,81.3,787.3"/>
		<path class="st4" d="M104.7,759.4c-1.5,4.4-2.9,8.8-4.4,13.2c-0.9,2.7,3.4,3.9,4.3,1.2c1.5-4.4,2.9-8.8,4.4-13.2
			C110,757.8,105.6,756.7,104.7,759.4"/>
		<path class="st4" d="M124.5,748.1c0.5,2.2,0.7,4.4-0.5,6.3c-1.5,2.5,2.4,4.7,3.9,2.3c1.8-3,1.7-6.5,1-9.8
			C128.2,744.1,123.9,745.3,124.5,748.1"/>
		<path class="st4" d="M117.2,776c0.6,3.4-0.2,6.6-1.5,9.8c-1,2.7,3.3,3.8,4.3,1.2c1.5-4,2.2-7.9,1.5-12.2
			C121,772,116.7,773.2,117.2,776"/>
		<path class="st4" d="M98.1,795.9c-0.1,2.8-0.7,5.5-1.4,8.2c-0.7,2.8,3.6,4,4.3,1.2c0.8-3.1,1.5-6.2,1.5-9.4
			C102.6,793,98.1,793,98.1,795.9"/>
		<path class="st4" d="M112,814.2v6.6c0,2.9,4.5,2.9,4.5,0v-6.6C116.5,811.4,112,811.4,112,814.2"/>
		<path class="st4" d="M95.1,823v2.9c0,2.9,4.5,2.9,4.5,0V823C99.6,820.2,95.1,820.2,95.1,823"/>
		<path class="st4" d="M137,771.6c0.6,1.9,0.6,3.5,0,5.4c-0.8,2.8,3.5,3.9,4.3,1.2c0.8-2.6,0.8-5.2,0-7.8
			C140.5,767.7,136.2,768.8,137,771.6"/>
		<path class="st4" d="M128.8,795.9c0,3.7,0,7.5-0.7,11.1c-0.5,2.8,3.8,4,4.3,1.2c0.8-4.1,0.8-8.2,0.8-12.3
			C133.3,793,128.8,793,128.8,795.9"/>
		<path class="st4" d="M118.2,835.1c-1.7,2.8-2.5,6-2.5,9.2c0,2.9,4.4,2.9,4.5,0c0-2.5,0.6-4.8,1.9-6.9
			C123.6,834.9,119.7,832.7,118.2,835.1"/>
		<path class="st4" d="M138.4,824.5c-0.1,3.1-1.3,5.7-2.6,8.4c-1.3,2.6,2.6,4.8,3.9,2.3c1.7-3.4,3.1-6.8,3.2-10.7
			C142.9,821.6,138.4,821.6,138.4,824.5"/>
		<path class="st4" d="M150.9,796.8c-0.7,2.2-0.8,4.4-1.5,6.6c-0.8,2.8,3.5,3.9,4.3,1.2c0.7-2.2,0.8-4.4,1.5-6.6
			C156.1,795.2,151.8,794,150.9,796.8"/>
		<path class="st4" d="M160.3,814.9c-2.5,2.7-3.5,6-3.6,9.6c0,2.9,4.4,2.9,4.5,0c0-2.4,0.6-4.7,2.3-6.5
			C165.4,815.9,162.3,812.8,160.3,814.9"/>
		<path class="st4" d="M167,802.5c2.9,0,2.9-4.5,0-4.5C164.1,798.1,164.1,802.5,167,802.5"/>
		<path class="st4" d="M150.8,840.6c0,2.3-0.7,4.6-1.4,6.7c-0.9,2.7,3.4,3.9,4.3,1.2c0.8-2.6,1.5-5.2,1.5-7.9
			C155.4,837.8,150.9,837.8,150.8,840.6"/>
		<path class="st4" d="M133.3,850.8c0.6,2,0.6,4.1,0,6.1c-0.8,2.8,3.5,3.9,4.3,1.2s0.8-5.8,0-8.5C136.8,846.8,132.5,848,133.3,850.8
			"/>
		<path class="st4" d="M163.3,854.6c0,1.3,0.1,2.8-0.4,4c-1.2,2.6,2.7,4.9,3.9,2.2c0.9-2,1-4.1,1-6.3
			C167.8,851.7,163.3,851.7,163.3,854.6"/>
		<path class="st4" d="M171.4,831.8v7.3c0,2.9,4.5,2.9,4.5,0v-7.3C175.8,829,171.4,829,171.4,831.8"/>
		<path class="st4" d="M179.4,810.6c-0.1,0.9-0.6,1.9-0.7,2.9c-0.3,2.9,4.2,2.8,4.5,0c0.1-0.9,0.6-1.9,0.7-2.9
			C184.2,807.7,179.7,807.7,179.4,810.6"/>
		<path class="st4" d="M191.9,823.8c0,2.8,0,5.5-0.7,8.2c-0.6,2.8,3.7,4,4.3,1.2c0.7-3.1,0.8-6.2,0.8-9.4
			C196.4,820.9,191.9,820.9,191.9,823.8"/>
		<path class="st4" d="M184.6,850c0.5,1.7,0.7,3.5,0.7,5.3c0,2.9,4.5,2.9,4.5,0c0-2.2-0.2-4.4-0.8-6.5
			C188.1,846.1,183.8,847.3,184.6,850"/>
		<path class="st4" d="M204.4,837.7v8.1c0,2.9,4.5,2.9,4.5,0v-8.1C208.8,834.8,204.4,834.8,204.4,837.7"/>
		<path class="st4" d="M221.2,832.6v3.7c0,2.9,4.5,2.9,4.5,0v-3.7C225.7,829.7,221.2,829.7,221.2,832.6"/>
		<path class="st4" d="M218.6,852c0.5,1,0.4,2.2,0.4,3.3c0,2.9,4.5,2.9,4.5,0c0-2-0.2-3.7-1-5.5c-0.5-1.1-2.1-1.4-3.1-0.8
			C218.2,849.6,218.1,850.9,218.6,852"/>
		<path class="st4" d="M206.6,863.4c2.9,0,2.9-4.5,0-4.5C203.7,858.9,203.7,863.4,206.6,863.4"/>
		<path class="st4" d="M85.6,872.2c0,2.6,0,5.2-1.2,7.7c-1.2,2.6,2.6,4.9,3.9,2.3c1.5-3.2,1.8-6.4,1.8-9.9
			C90.1,869.3,85.6,869.3,85.6,872.2"/>
		<path class="st4" d="M82.7,902.2v4.4c0,2.9,4.5,2.9,4.5,0v-4.4C87.1,899.3,82.7,899.3,82.7,902.2"/>
		<path class="st4" d="M83.4,927.1v6.6c0,2.9,4.5,2.9,4.5,0v-6.6C87.9,924.3,83.4,924.3,83.4,927.1"/>
		<path class="st4" d="M93.7,949.7c0.9,2.6,2.4,4.9,3.9,7.1c1.6,2.4,5.5,0.2,3.9-2.3c-1.3-1.9-2.7-3.9-3.4-6.1
			C97.1,945.8,92.8,947,93.7,949.7"/>
		<path class="st4" d="M114.8,967.6c2.5,2.4,5.7,4.1,9.1,5c2.8,0.7,4-3.6,1.2-4.3c-2.7-0.7-5.1-1.9-7.1-3.8
			C115.9,962.4,112.8,965.6,114.8,967.6"/>
		<path class="st4" d="M142.4,976.7c1.5,0.7,2.9,1.5,4.4,2.2c2.6,1.3,4.8-2.6,2.3-3.9c-1.5-0.7-2.9-1.5-4.4-2.2
			C142.1,971.6,139.8,975.4,142.4,976.7"/>
		<path class="st4" d="M168.5,985.8c3.2,0,6.5,0.1,9.7,0.7c2.8,0.5,4-3.8,1.2-4.3c-3.6-0.7-7.2-0.8-10.9-0.8
			C165.6,981.3,165.6,985.8,168.5,985.8"/>
		<path class="st4" d="M102,887.2c-1.6,2.4-2.5,5.1-3.2,7.9c-0.7,2.8,3.6,4,4.3,1.2c0.6-2.4,1.3-4.7,2.7-6.8
			C107.4,887,103.6,884.7,102,887.2"/>
		<path class="st4" d="M101,915.4v6.6c0,2.9,4.5,2.9,4.5,0v-6.6C105.5,912.5,101,912.5,101,915.4"/>
		<path class="st4" d="M110.1,941.5c0.7,1.5,1.5,2.9,2.2,4.4c1.3,2.6,5.1,0.3,3.9-2.3l-2.2-4.4C112.7,936.6,108.8,938.9,110.1,941.5
			"/>
		<path class="st4" d="M123.1,888.4c-0.6,1.7-1.9,3-2.7,4.6c-1.3,2.5,2.5,4.8,3.9,2.3c1-1.9,2.4-3.6,3.2-5.7
			C128.4,886.9,124,885.7,123.1,888.4"/>
		<path class="st4" d="M119.3,911v9.5c0,2.9,4.5,2.9,4.5,0V911C123.8,908.1,119.3,908.1,119.3,911"/>
		<path class="st4" d="M125.9,938.9c0.1,3.2,0.8,6.3,1.5,9.4c0.7,2.8,5,1.6,4.3-1.2c-0.7-2.7-1.3-5.4-1.4-8.2
			C130.3,936,125.9,936,125.9,938.9"/>
		<path class="st4" d="M141.4,899.9c0.6,2.5,0.7,4.9,0.7,7.5c0,2.9,4.5,2.9,4.5,0s-0.1-5.8-0.8-8.7
			C145,895.9,140.7,897.1,141.4,899.9"/>
		<path class="st4" d="M141.4,927c0.6,1.9,0.9,3.9,1.5,5.9c0.9,2.7,5.2,1.6,4.3-1.2c-0.6-1.9-0.9-3.9-1.5-5.9
			C144.8,923.1,140.5,924.2,141.4,927"/>
		<path class="st4" d="M143.1,953.2c0.8,1.6,2.1,2.8,2.9,4.4c1.4,2.5,5.2,0.3,3.9-2.3c-0.8-1.6-2.1-2.8-2.9-4.4
			C145.6,948.4,141.7,950.6,143.1,953.2"/>
		<path class="st4" d="M158.9,910.3v11c0,2.9,4.5,2.9,4.5,0v-11C163.4,907.4,158.9,907.4,158.9,910.3"/>
		<path class="st4" d="M159.2,941.5c0.7,1.5,1.1,3.1,1.2,4.7c0.1,2.9,4.5,2.9,4.5,0c-0.1-2.5-0.7-4.8-1.8-7
			C161.8,936.6,158,938.9,159.2,941.5"/>
		<path class="st4" d="M162.9,965.6c0.8,1.5,2.1,2.3,3.3,3.4c2.1,1.9,5.3-1.2,3.2-3.2c-0.9-0.8-2-1.4-2.6-2.5
			C165.3,960.9,161.5,963.1,162.9,965.6"/>
		<path class="st4" d="M182.4,911.6c0.7,2.4,0.7,5,0.7,7.5c0,2.9,4.5,2.9,4.5,0s0-5.9-0.8-8.7C185.9,907.7,181.6,908.8,182.4,911.6"
			/>
		<path class="st4" d="M175.8,932.3v8.8c0,2.9,4.5,2.9,4.5,0v-8.8C180.2,929.4,175.8,929.4,175.8,932.3"/>
		<path class="st4" d="M184.6,959.2c0.6,1.9,0.9,3.9,1.5,5.9c0.9,2.7,5.2,1.6,4.3-1.2c-0.6-1.9-0.9-3.9-1.5-5.9
			C188.1,955.3,183.8,956.5,184.6,959.2"/>
		<path class="st4" d="M204.4,917.5c0.5,1.7,0.7,3.5,0.7,5.3c0,2.9,4.5,2.9,4.5,0c0-2.2-0.2-4.4-0.8-6.5
			C207.9,913.5,203.6,914.7,204.4,917.5"/>
		<path class="st4" d="M199.3,939.5c0.6,1.7,1.3,3.4,1.4,5.3c0.1,2.9,4.5,2.9,4.5,0c-0.1-2.3-0.8-4.3-1.5-6.5
			C202.7,935.6,198.4,936.7,199.3,939.5"/>
		<path class="st4" d="M200,967.3c0.6,2.7,0.6,5.4,0.7,8.2c0,2.9,4.5,2.9,4.5,0c0-3.2-0.1-6.3-0.8-9.4
			C203.7,963.3,199.4,964.5,200,967.3"/>
		<path class="st4" d="M197.1,993c0.8,2.1,2.1,3.7,3.2,5.7c1.4,2.5,5.2,0.3,3.9-2.3c-0.8-1.6-2.1-2.9-2.7-4.6
			C200.4,989.1,196.1,990.3,197.1,993"/>
		<path class="st4" d="M197.8,1015.7c0.6,2,0.7,3.9,0.7,6c0,2.9,4.5,2.9,4.5,0c0-2.4-0.1-4.8-0.8-7.2
			C201.3,1011.8,197,1012.9,197.8,1015.7"/>
		<path class="st4" d="M195.9,1040.4c0.6,1.2,0.9,2.5,1.5,3.7c1.2,2.6,5.1,0.3,3.9-2.3c-0.6-1.2-0.9-2.5-1.5-3.7
			C198.5,1035.6,194.6,1037.8,195.9,1040.4"/>
		<path class="st4" d="M236,841.2c0.6,2.7,0.6,5.4,0.7,8.2c0,2.9,4.5,2.9,4.5,0c0-3.2-0.1-6.3-0.8-9.4
			C239.6,837.2,235.3,838.4,236,841.2"/>
		<path class="st4" d="M223.4,921.3c2.9,0,2.9-4.5,0-4.5C220.6,916.8,220.6,921.3,223.4,921.3"/>
		<path class="st4" d="M216.2,938.7c0.6,2,0.7,3.9,0.7,6c0,2.9,4.5,2.9,4.5,0c0-2.4-0.1-4.8-0.8-7.2
			C219.6,934.8,215.3,936,216.2,938.7"/>
		<path class="st4" d="M216.9,963.6c0.5,1.7,0.6,3.5,0.7,5.3c0,2.9,4.5,2.9,4.5,0c0-2.2-0.2-4.4-0.8-6.5
			C220.4,959.7,216.1,960.9,216.9,963.6"/>
		<path class="st4" d="M217.9,988.4c0.5,1,0.4,2.2,0.4,3.3c0,2.9,4.5,2.9,4.5,0c0-2-0.2-3.7-1-5.5c-0.5-1.1-2.1-1.4-3.1-0.8
			C217.5,986,217.4,987.3,217.9,988.4"/>
		<path class="st4" d="M217.5,1012.2c0,3.2,0.1,6.5-0.7,9.7c-0.6,2.8,3.7,4,4.3,1.2c0.8-3.6,0.8-7.2,0.8-10.9
			C222,1009.3,217.5,1009.3,217.5,1012.2"/>
		<path class="st4" d="M217.9,1044.8c0.6,1.4,0.8,3,1.5,4.4c0.5,1.1,2.1,1.3,3.1,0.8c1.1-0.6,1.3-2,0.8-3.1c-0.6-1.4-0.8-3-1.5-4.4
			c-0.5-1.1-2.1-1.3-3.1-0.8C217.5,1042.4,217.4,1043.7,217.9,1044.8"/>
		<path class="st4" d="M236,919.9c-0.7,3-0.2,5.7,0.7,8.5c0.9,2.7,5.2,1.5,4.3-1.2c-0.7-2.1-1.2-4-0.7-6.1
			C240.9,918.3,236.6,917.1,236,919.9"/>
		<path class="st4" d="M236,955.6c0.6,2.7,0.6,5.4,0.7,8.2c0,2.9,4.5,2.9,4.5,0c0-3.2-0.1-6.3-0.8-9.4
			C239.6,951.6,235.3,952.8,236,955.6"/>
		<path class="st4" d="M236.6,985v8.8c0,2.9,4.5,2.9,4.5,0V985C241.1,982.2,236.6,982.2,236.6,985"/>
		<path class="st4" d="M238.8,1018.1c2.9,0,2.9-4.5,0-4.5C236,1013.6,236,1018.1,238.8,1018.1"/>
		<path class="st4" d="M235.9,1013.6c0,5.2-0.1,10.3-0.7,15.4c-0.4,2.8,4.1,2.8,4.5,0c0.7-5.1,0.7-10.2,0.7-15.4
			C240.3,1010.8,235.9,1010.8,235.9,1013.6"/>
		<path class="st4" d="M235.1,1046.6c0,2.5,0.7,4.9,0.7,7.3c0.1,2.9,4.5,2.9,4.5,0c0-2.5-0.7-4.9-0.7-7.3
			C239.5,1043.8,235.1,1043.7,235.1,1046.6"/>
		<path class="st4" d="M255.7,846.5v9.5c0,2.9,4.5,2.9,4.5,0v-9.5C260.1,843.6,255.7,843.6,255.7,846.5"/>
		<path class="st4" d="M257.1,873.6v9.5c0,2.9,4.5,2.9,4.5,0v-9.5C261.6,870.7,257.1,870.7,257.1,873.6"/>
		<path class="st4" d="M252.7,900.7v9.5c0,2.9,4.5,2.9,4.5,0v-9.5C257.2,897.9,252.7,897.9,252.7,900.7"/>
		<path class="st4" d="M253.6,930.9c-0.8,3.6-0.8,7.2-0.8,10.9c0,2.9,4.5,2.9,4.5,0c0-3.2-0.1-6.5,0.7-9.7
			C258.5,929.3,254.2,928.1,253.6,930.9"/>
		<path class="st4" d="M255.7,966.7c0,2.8,0,5.5-0.7,8.2c-0.7,2.8,3.7,4,4.3,1.2c0.7-3.1,0.8-6.2,0.8-9.4
			C260.1,963.8,255.7,963.8,255.7,966.7"/>
		<path class="st4" d="M254.9,996.8v8.8c0,2.9,4.5,2.9,4.5,0v-8.8C259.4,993.9,254.9,993.9,254.9,996.8"/>
		<path class="st4" d="M255.7,1029v8.1c0,2.9,4.5,2.9,4.5,0v-8.1C260.1,1026.2,255.7,1026.2,255.7,1029"/>
		<path class="st4" d="M254.9,1056.1v0.7c0,2.9,4.5,2.9,4.5,0v-0.7C259.4,1053.3,254.9,1053.3,254.9,1056.1"/>
		<path class="st4" d="M272.5,856v5.9c0,2.9,4.5,2.9,4.5,0V856C277,853.2,272.5,853.1,272.5,856"/>
		<path class="st4" d="M274,889c0,3.2-0.7,6.3-0.7,9.5c0,2.9,4.4,2.9,4.5,0c0.1-3.2,0.7-6.3,0.7-9.5C278.5,886.1,274,886.1,274,889"
			/>
		<path class="st4" d="M270.4,918.2c0.6,2.7,0.7,5.4,0.7,8.2c0,2.9,4.5,2.9,4.5,0c0-3.2-0.1-6.3-0.8-9.4
			C274.1,914.2,269.8,915.4,270.4,918.2"/>
		<path class="st4" d="M271.1,947.1c-0.7,2.9-0.8,5.9-1.5,8.8c-0.6,2.8,3.7,4,4.3,1.2c0.7-2.9,0.8-5.9,1.5-8.8
			C276.1,945.5,271.8,944.3,271.1,947.1"/>
		<path class="st4" d="M272.6,974.6c0.5,2.6-0.1,5.1-0.7,7.6c-0.7,2.8,3.6,4,4.3,1.2c0.8-3.3,1.5-6.6,0.7-10
			C276.3,970.6,272,971.8,272.6,974.6"/>
		<path class="st4" d="M273.3,1007c0,2.8,0,5.5-0.7,8.2c-0.6,2.8,3.7,4,4.3,1.2c0.7-3.1,0.8-6.2,0.8-9.4
			C277.7,1004.2,273.3,1004.2,273.3,1007"/>
		<path class="st4" d="M273.3,1039.3c0,2.5,0.1,5.1-0.7,7.5c-0.8,2.8,3.5,3.9,4.3,1.2c0.9-2.8,0.8-5.8,0.8-8.7
			C277.7,1036.4,273.3,1036.4,273.3,1039.3"/>
		<path class="st4" d="M275.5,1065c2.9,0,2.9-4.5,0-4.5S272.6,1065,275.5,1065"/>
		<path class="st4" d="M312.6,403.8c4.4,0.8,8.8,1.9,12.7,4.2c2.5,1.4,4.7-2.4,2.3-3.9c-4.2-2.4-9-3.8-13.7-4.6
			C311,399,309.8,403.3,312.6,403.8"/>
		<path class="st4" d="M341.9,415.5c3.7,0.8,7.2,2.2,10.5,4.2c2.5,1.5,4.7-2.4,2.3-3.9c-3.6-2.1-7.4-3.7-11.5-4.6
			C340.3,410.6,339.1,414.9,341.9,415.5"/>
		<path class="st4" d="M368.8,430.3c1.2,1.2,2.4,2.4,3.7,3.7c2,2,5.2-1.1,3.2-3.2c-1.2-1.2-2.4-2.4-3.7-3.7
			C369.9,425.2,366.8,428.3,368.8,430.3"/>
		<path class="st4" d="M311.9,427.3c3.6,1.4,7.3,2.2,11,2.9c2.8,0.6,4-3.7,1.2-4.3c-3.7-0.7-7.4-1.6-11-2.9
			C310.4,421.9,309.2,426.2,311.9,427.3"/>
		<path class="st4" d="M343.6,437.3c2.7,1.4,4.8,3.4,6.9,5.5c2,2,5.2-1.1,3.2-3.2c-2.4-2.4-4.8-4.7-7.8-6.2
			C343.3,432.1,341.1,436,343.6,437.3"/>
		<path class="st4" d="M523.9,850.5c-0.8,2.6-0.8,5.2,0,7.8c0.8,2.7,5.1,1.6,4.3-1.2c-0.6-1.9-0.6-3.5,0-5.4
			C529.1,848.9,524.8,847.7,523.9,850.5"/>
		<path class="st4" d="M529.7,877.1c0.5,1.2,0.4,2.7,0.4,4c0,2.9,4.5,2.9,4.5,0c0-2.2-0.2-4.2-1-6.3c-0.5-1.1-2.1-1.3-3.1-0.8
			C529.4,874.7,529.3,876,529.7,877.1"/>
		<path class="st4" d="M532,910.8c-0.8,1.8-1,3.6-1,5.5c0,2.9,4.5,2.9,4.5,0c0-1.1,0-2.2,0.4-3.3c0.5-1.1,0.3-2.4-0.8-3.1
			C534.1,909.4,532.5,909.7,532,910.8"/>
		<path class="st4" d="M534.9,933.5c-0.9,2-1,4.1-1,6.3c0,2.9,4.5,2.9,4.5,0c0-1.3-0.1-2.8,0.4-4c0.5-1.1,0.3-2.4-0.8-3.1
			C537,932.1,535.4,932.4,534.9,933.5"/>
		<path class="st4" d="M530.1,964.6c-1.5,1.6-2.3,3.6-3.3,5.6c-1.3,2.6,2.6,4.8,3.9,2.3c0.8-1.6,1.4-3.4,2.6-4.7
			C535.3,965.6,532.1,962.5,530.1,964.6"/>
		<path class="st4" d="M517.7,985.8c-1.4,1.4-2.4,3.1-3.3,4.8c-1.3,2.6,2.6,4.8,3.9,2.3c0.7-1.4,1.5-2.8,2.6-3.9
			C522.8,986.9,519.7,983.8,517.7,985.8"/>
		<path class="st4" d="M507.1,1005.3c-2.1,1.5-3.7,3.6-5.9,5.1c-2.3,1.6-0.1,5.5,2.3,3.9c2.1-1.5,3.7-3.6,5.9-5.1
			C511.7,1007.5,509.5,1003.6,507.1,1005.3"/>
		<path class="st4" d="M482.1,1019.3c-1.1,2.1-2.2,4.2-4.5,4.8c-2.8,0.8-1.6,5.1,1.2,4.3c3.6-1,5.6-3.7,7.2-6.9
			C487.3,1019,483.4,1016.7,482.1,1019.3"/>
		<path class="st4" d="M457.8,1030.7c-2.1,0.7-4.3,0.8-6.4,1.7c-1.1,0.5-1.3,2.1-0.8,3.1c0.6,1.1,2,1.3,3,0.8
			c1.6-0.7,3.6-0.7,5.3-1.2C461.7,1034.2,460.6,1029.9,457.8,1030.7"/>
		<path class="st4" d="M424.1,1039.5c-2,0.7-3.9,1.5-5.9,2.2c-2.7,0.9-1.5,5.2,1.2,4.3c2-0.7,3.9-1.5,5.9-2.2
			C428,1042.9,426.8,1038.6,424.1,1039.5"/>
		<path class="st4" d="M511.8,868.6c0,1.7,0.7,3.4,0.7,5.1c0.1,2.9,4.6,2.9,4.5,0c-0.1-1.7-0.7-3.4-0.7-5.1
			C516.2,865.7,511.8,865.7,511.8,868.6"/>
		<path class="st4" d="M515.6,892.8v6.6c0,2.9,4.5,2.9,4.5,0v-6.6C520,890,515.6,890,515.6,892.8"/>
		<path class="st4" d="M517.8,923.6v5.1c0,2.9,4.5,2.9,4.5,0v-5.1C522.2,920.8,517.8,920.8,517.8,923.6"/>
		<path class="st4" d="M517,949.3v5.9c0,2.9,4.5,2.9,4.5,0v-5.9C521.5,946.4,517,946.4,517,949.3"/>
		<path class="st4" d="M506,972c0,0.8-0.3,1.5-0.8,2.1c-1.9,2.1,1.2,5.3,3.2,3.2c1.3-1.5,2-3.3,2.1-5.2
			C510.6,969.1,506.2,969.2,506,972"/>
		<path class="st4" d="M492.7,991.7c-1.2,1.2-2.4,2.4-3.7,3.7c-2,2,1.1,5.2,3.2,3.2c1.2-1.2,2.4-2.4,3.7-3.7
			C497.9,992.8,494.8,989.7,492.7,991.7"/>
		<path class="st4" d="M476.3,1000.9c-1.6,2.1-3.4,4.1-6,4.8c-2.8,0.8-1.6,5.1,1.2,4.3c3.8-1,6.4-3.9,8.7-6.9c0.7-1,0.1-2.5-0.8-3.1
			C478.2,999.5,477,1000,476.3,1000.9"/>
		<path class="st4" d="M445.8,1013.7c-1.1,1-2.6,1.2-3.9,1.8c-2.6,1.2-0.3,5,2.3,3.9c1.8-0.8,3.4-1.2,4.8-2.5
			C451.1,1014.9,448,1011.7,445.8,1013.7"/>
		<path class="st4" d="M426.2,1024h-6.6c-2.9,0-2.9,4.5,0,4.5h6.6C429,1028.5,429,1024,426.2,1024"/>
		<path class="st4" d="M393.5,1033.9c-1.6,0.7-3.5,0.7-5.1,1.5c-1.1,0.5-1.3,2.1-0.8,3.1c0.7,1.1,2,1.3,3.1,0.8
			c1.6-0.7,3.5-0.7,5.1-1.5c1.1-0.5,1.3-2.1,0.8-3C395.9,1033.5,394.6,1033.4,393.5,1033.9"/>
		<path class="st4" d="M498,897.1c0.6,1.8,0.6,3.4,0.7,5.3c0,2.9,4.5,2.9,4.5,0c0-2.2-0.1-4.3-0.8-6.5
			C501.5,893.2,497.2,894.4,498,897.1"/>
		<path class="st4" d="M499.4,919.2v5.9c0,2.9,4.5,2.9,4.5,0v-5.9C503.9,916.4,499.4,916.4,499.4,919.2"/>
		<path class="st4" d="M499.5,941.4c-0.7,2.3-0.8,4.8-0.8,7.2c0,2.9,4.5,2.9,4.5,0c0-2.1,0-4,0.7-6
			C504.7,939.8,500.4,938.6,499.5,941.4"/>
		<path class="st4" d="M487,965.6c-0.9,2.4-2.2,4.6-2.3,7.2c-0.1,2.9,4.3,2.9,4.5,0c0.1-2.1,1.4-4.1,2.1-6
			C492.3,964,488,962.9,487,965.6"/>
		<path class="st4" d="M465.6,982.9c-2.2,2.2-4.4,4.4-6.6,6.6c-2,2,1.1,5.2,3.2,3.2c2.2-2.2,4.4-4.4,6.6-6.6
			C470.8,984,467.7,980.9,465.6,982.9"/>
		<path class="st4" d="M438.5,995.4c-0.9,0.8-2,1.4-2.9,2.2c-2.1,1.9,1,5.1,3.2,3.2c0.9-0.8,2-1.4,2.9-2.2
			C443.8,996.6,440.6,993.4,438.5,995.4"/>
		<path class="st4" d="M419.9,1003.1c-2.9,1.4-6,1.8-9.1,1.9c-2.9,0-2.9,4.5,0,4.5c4,0,7.8-0.8,11.4-2.5
			C424.7,1005.7,422.5,1001.8,419.9,1003.1"/>
		<path class="st4" d="M392.8,1009.7c-2.6,1.2-5.5,1.3-8.3,2s-1.6,5,1.2,4.3c3.2-0.7,6.3-1,9.3-2.4
			C397.6,1012.3,395.4,1008.5,392.8,1009.7"/>
		<path class="st4" d="M504.3,732.6c-0.6-1.4-0.8-3-1.5-4.4c-0.5-1.1-2.1-1.3-3.1-0.8c-1.1,0.6-1.3,2-0.8,3.1c0.6,1.4,0.8,3,1.5,4.4
			c0.5,1.1,2.1,1.4,3.1,0.8C504.6,735,504.8,733.7,504.3,732.6"/>
		<path class="st4" d="M497.9,708.2c-0.8-3.8-2.2-7.3-3.9-10.8c-1.3-2.6-5.1-0.3-3.9,2.3c1.5,3.1,2.7,6.3,3.4,9.7
			C494.2,712.2,498.5,711,497.9,708.2"/>
		<path class="st4" d="M486,670.3c-0.7-1.6-0.7-3.5-1.5-5.1c-0.5-1.1-2.1-1.3-3.1-0.8c-1.1,0.7-1.3,2-0.8,3.1
			c0.7,1.6,0.7,3.5,1.5,5.1c0.5,1.1,2.1,1.3,3.1,0.8C486.3,672.7,486.4,671.4,486,670.3"/>
		<path class="st4" d="M477.4,644.4c-1.3-3.9-2.8-7.7-3.7-11.7c-0.6-2.8-4.9-1.6-4.3,1.2c0.9,4,2.4,7.8,3.7,11.7
			C474,648.3,478.3,647.2,477.4,644.4"/>
		<path class="st4" d="M463.9,608.6c-1.4-1-2.1-2.2-2.6-3.8c-0.9-2.7-5.2-1.5-4.3,1.2c0.9,2.8,2.3,4.8,4.7,6.5
			C464,614.1,466.2,610.3,463.9,608.6"/>
		<path class="st4" d="M455.1,579.3c-2-1.4-3.8-3-5.9-4.4c-2.4-1.6-4.6,2.2-2.2,3.9c2,1.4,3.8,3,5.9,4.4
			C455.2,584.8,457.5,580.9,455.1,579.3"/>
		<path class="st4" d="M441.6,548.1c-2.2-2.3-3.8-4.8-4.6-7.8c-0.7-2.8-5-1.6-4.3,1.2c1,3.8,3,7,5.7,9.8
			C440.5,553.4,443.6,550.2,441.6,548.1"/>
		<path class="st4" d="M423.9,519.1c-0.7-2.2-0.7-4.5-0.7-6.7c0-2.9-4.5-2.9-4.5,0c0,2.6,0,5.4,0.8,7.9
			C420.4,523,424.7,521.8,423.9,519.1"/>
		<path class="st4" d="M333.6,447.1c-2.7-0.6-5.4-0.7-8.1-1.5c-2.8-0.8-3.9,3.5-1.2,4.3c2.6,0.8,5.4,0.8,8.1,1.5
			C335.2,452.1,336.4,447.8,333.6,447.1"/>
		<path class="st4" d="M364.2,468.6c-3.6-2.2-6.9-4.5-10.8-6.1c-2.6-1.1-3.8,3.2-1.2,4.3c3.5,1.4,6.5,3.7,9.7,5.6
			C364.4,474,366.6,470.1,364.2,468.6"/>
		<path class="st4" d="M386.2,489.2c-2.7-1.4-4.9-3.4-7.3-5.1c-2.4-1.6-4.6,2.2-2.3,3.9c2.5,1.7,4.7,3.7,7.3,5.1
			C386.5,494.3,388.7,490.5,386.2,489.2"/>
		<path class="st4" d="M420.7,542.7c-2.3-2.9-5.1-5.2-7.7-7.8c-2-2-5.2,1.1-3.2,3.2c2.3,2.3,5,4.3,7,6.9c0.7,1,1.9,1.4,3.1,0.8
			C420.8,545.2,421.4,543.7,420.7,542.7"/>
		<path class="st4" d="M420.5,568.4c0.7,1.5,1.5,2.9,2.2,4.4c1.3,2.6,5.1,0.3,3.9-2.3c-0.7-1.5-1.5-2.9-2.2-4.4
			C423.1,563.6,419.2,565.9,420.5,568.4"/>
		<path class="st4" d="M398.9,519.8c-1.8-4.9-5.5-8.2-9.8-10.9c-2.5-1.5-4.7,2.4-2.3,3.9c3.3,2,6.4,4.5,7.8,8.2
			C395.6,523.7,399.9,522.5,398.9,519.8"/>
		<path class="st4" d="M366.1,493.9c-2.9-2.9-5.8-5.6-9.2-7.7c-2.5-1.5-4.7,2.4-2.2,3.9c3.1,1.9,5.7,4.4,8.3,7
			C365,499.1,368.1,495.9,366.1,493.9"/>
		<path class="st4" d="M336.3,470.8c-3.4-1.6-6.9-2.5-10.7-2.5c-2.9,0-2.9,4.4,0,4.5c3,0,5.7,0.6,8.4,1.9
			C336.7,475.9,338.9,472.1,336.3,470.8"/>
		<path class="st4" d="M307,462.8c-0.8,0.4-1.7,0.4-2.5,0.4c-2.9,0-2.9,4.5,0,4.5c1.7,0,3.2-0.3,4.8-1c1.1-0.5,1.4-2.1,0.8-3.1
			C309.4,462.4,308.1,462.3,307,462.8"/>
		<path class="st4" d="M308,443.3c-0.7,0.6-1.5,0.9-2.2,1.5c-2.2,1.9,1,5,3.2,3.2c0.7-0.6,1.5-0.9,2.2-1.5
			C313.3,444.6,310.2,441.5,308,443.3"/>
		<path class="st4" d="M317.5,483.1c-4.1-1.5-8.4-0.8-12,1.7c-2.3,1.6-0.1,5.5,2.3,3.9c2.7-1.9,5.4-2.4,8.5-1.2
			C319,488.3,320.2,484,317.5,483.1"/>
		<path class="st4" d="M347.1,499c-2.5-2.4-5.7-4.1-9.1-5c-2.8-0.7-4,3.6-1.2,4.3c2.7,0.7,5.1,1.9,7.1,3.8
			C346,504.2,349.1,501,347.1,499"/>
		<path class="st4" d="M395.3,538.7c-0.8,0-1.3-0.4-1.7-1.1c-1.4-2.5-5.3-0.2-3.9,2.3c1.2,2.1,3.2,3.2,5.6,3.3
			C398.2,543.3,398.2,538.8,395.3,538.7"/>
		<path class="st4" d="M325.5,505.8c-3.1-0.7-6.2-0.8-9.4-0.8c-2.9,0-2.9,4.5,0,4.5c2.8,0,5.5,0,8.2,0.7
			C327.1,510.7,328.3,506.4,325.5,505.8"/>
		<path class="st4" d="M296.2,507.1c-0.8,0.9-1.4,2-2.2,2.9c-1.9,2.1,1.2,5.3,3.2,3.2c0.8-0.9,1.4-2,2.2-2.9
			C301.3,508.1,298.2,505,296.2,507.1"/>
		<path class="st4" d="M436.3,595.3c2,2,3.2,4.5,4.8,6.9c1.6,2.4,5.4,0.2,3.9-2.3c-1.7-2.7-3.2-5.5-5.5-7.8
			C437.4,590.1,434.3,593.2,436.3,595.3"/>
		<path class="st4" d="M453.2,624.5c0.1,2.2,0.8,4.3,1.8,6.3c1.2,2.6,5.1,0.3,3.9-2.3c-0.6-1.2-1.1-2.6-1.2-4
			C457.6,621.6,453.1,621.6,453.2,624.5"/>
		<path class="st4" d="M456.9,654.4c0.9,2.5,2.1,4.8,2.9,7.3c0.9,2.7,5.2,1.5,4.3-1.2c-0.9-2.5-2.1-4.8-2.9-7.3
			C460.3,650.5,456,651.7,456.9,654.4"/>
		<path class="st4" d="M463.5,679.5c0.1,3.3,1.4,6.4,3.2,9.2c1.6,2.4,5.4,0.2,3.9-2.3c-1.4-2.1-2.5-4.4-2.6-6.9
			C467.8,676.6,463.4,676.6,463.5,679.5"/>
		<path class="st4" d="M474.8,716.5c1.3,2.1,1.9,4.5,2.7,6.8c0.9,2.7,5.2,1.6,4.3-1.2c-0.9-2.7-1.6-5.5-3.2-7.9
			C477.1,711.9,473.2,714.1,474.8,716.5"/>
		<path class="st4" d="M488,745.1c1.3,2.5,2.7,4.8,3.4,7.5c0.7,2.8,5.1,1.6,4.3-1.2c-0.8-3.1-2.5-5.8-3.9-8.6
			C490.5,740.3,486.7,742.6,488,745.1"/>
		<path class="st4" d="M487.7,771.8c0,2,0.2,3.7,1,5.5c0.5,1.1,2.1,1.3,3.1,0.8c1.1-0.7,1.3-2,0.8-3.1c-0.5-1-0.4-2.2-0.4-3.3
			C492.1,769,487.7,769,487.7,771.8"/>
		<path class="st4" d="M465.7,740.2c1.5,3.9,2.9,7.8,4.4,11.7c1,2.6,5.4,1.5,4.3-1.2c-1.5-3.9-2.9-7.8-4.4-11.7
			C469,736.4,464.7,737.5,465.7,740.2"/>
		<path class="st4" d="M453.9,705.1c0.1,2.5,0.8,4.8,1.5,7.2c0.9,2.7,5.2,1.5,4.3-1.2c-0.6-2-1.3-3.9-1.4-6
			C458.3,702.3,453.9,702.3,453.9,705.1"/>
		<path class="st4" d="M446,731.4c0.7,2.9,1.5,5.9,2.2,8.8c0.7,2.8,5,1.6,4.3-1.2c-0.7-2.9-1.5-5.9-2.2-8.8
			C449.6,727.4,445.3,728.6,446,731.4"/>
		<path class="st4" d="M481.1,793.7c0.6,2.5,1.4,4.9,2.2,7.3c0.9,2.7,5.2,1.5,4.3-1.2c-0.8-2.4-1.6-4.9-2.2-7.3
			C484.7,789.7,480.4,790.9,481.1,793.7"/>
		<path class="st4" d="M457.7,765.8c1.5,4.4,2.9,8.8,4.4,13.2c0.9,2.7,5.2,1.5,4.3-1.2c-1.5-4.4-2.9-8.8-4.4-13.2
			C461.1,761.9,456.8,763.1,457.7,765.8"/>
		<path class="st4" d="M445.2,780c-0.7,4.2-0.1,8.2,1.5,12.2c1,2.7,5.3,1.5,4.3-1.2c-1.2-3.2-2.1-6.4-1.5-9.8
			C450,778.4,445.7,777.2,445.2,780"/>
		<path class="st4" d="M464.2,801.2c0.1,3.2,0.8,6.3,1.5,9.4c0.7,2.8,5,1.6,4.3-1.2c-0.7-2.7-1.3-5.4-1.4-8.2
			C468.6,798.3,464.1,798.3,464.2,801.2"/>
		<path class="st4" d="M450.3,819.5v6.6c0,2.9,4.5,2.9,4.5,0v-6.6C454.7,816.6,450.3,816.6,450.3,819.5"/>
		<path class="st4" d="M467.1,828.3v2.9c0,2.9,4.5,2.9,4.5,0v-2.9C471.6,825.4,467.1,825.4,467.1,828.3"/>
		<path class="st4" d="M433.4,801.2c0,4.1,0.1,8.2,0.8,12.3c0.5,2.8,4.8,1.6,4.3-1.2c-0.7-3.7-0.7-7.4-0.7-11.1
			C437.9,798.3,433.4,798.3,433.4,801.2"/>
		<path class="st4" d="M425.3,827.2c0.1,3.9,1.5,7.2,3.2,10.7c1.3,2.6,5.1,0.3,3.9-2.3c-1.3-2.7-2.6-5.3-2.6-8.4
			C429.7,824.3,425.3,824.3,425.3,827.2"/>
		<path class="st4" d="M411.5,803.2c0.7,2.2,0.8,4.4,1.5,6.6c0.8,2.7,5.1,1.6,4.3-1.2c-0.7-2.2-0.8-4.4-1.5-6.6
			C415,799.3,410.7,800.5,411.5,803.2"/>
		<path class="st4" d="M403.3,823.3c1.7,1.8,2.2,4.1,2.3,6.5c0,2.9,4.5,2.9,4.5,0c-0.1-3.6-1.1-7-3.6-9.6
			C404.4,818,401.3,821.2,403.3,823.3"/>
		<path class="st4" d="M411.4,845.9c0.1,2.7,0.7,5.4,1.5,7.9c0.9,2.7,5.2,1.6,4.3-1.2c-0.7-2.2-1.3-4.4-1.4-6.7
			C415.8,843,411.4,843,411.4,845.9"/>
		<path class="st4" d="M399,859.8c0,2.2,0.1,4.2,1,6.2c1.2,2.6,5,0.3,3.9-2.3c-0.6-1.2-0.4-2.7-0.4-4
			C403.4,856.9,399,856.9,399,859.8"/>
		<path class="st4" d="M390.9,837.1v7.3c0,2.9,4.5,2.9,4.5,0v-7.3C395.4,834.2,390.9,834.2,390.9,837.1"/>
		<path class="st4" d="M373.7,830.1c0,3.2,0.1,6.3,0.8,9.4c0.6,2.8,4.9,1.6,4.3-1.2c-0.6-2.7-0.7-5.4-0.7-8.2
			C378.1,827.2,373.7,827.2,373.7,830.1"/>
		<path class="st4" d="M377.8,854.1c-0.6,2.1-0.8,4.3-0.8,6.5c0,2.9,4.5,2.9,4.5,0c0-1.8,0.1-3.5,0.7-5.3
			C382.9,852.5,378.6,851.3,377.8,854.1"/>
		<path class="st4" d="M357.9,843v8.1c0,2.9,4.5,2.9,4.5,0V843C362.4,840.1,357.9,840.1,357.9,843"/>
		<path class="st4" d="M341,837.8v3.7c0,2.9,4.5,2.9,4.5,0v-3.7C345.5,834.9,341,834.9,341,837.8"/>
		<path class="st4" d="M344.3,855c-0.8,1.8-1,3.6-1,5.5c0,2.9,4.5,2.9,4.5,0c0-1.1,0-2.2,0.4-3.3c0.5-1.1,0.3-2.4-0.8-3.1
			C346.4,853.6,344.8,853.9,344.3,855"/>
		<path class="st4" d="M360.1,868.6c2.9,0,2.9-4.5,0-4.5C357.3,864.2,357.3,868.6,360.1,868.6"/>
		<path class="st4" d="M476.7,877.4c0,3.5,0.3,6.7,1.8,9.9c1.2,2.6,5.1,0.3,3.9-2.3c-1.1-2.4-1.2-5-1.2-7.7
			C481.1,874.5,476.7,874.5,476.7,877.4"/>
		<path class="st4" d="M482.6,910.4v4.4c0,2.9,4.5,2.9,4.5,0v-4.4C487,907.6,482.6,907.6,482.6,910.4"/>
		<path class="st4" d="M481.8,935.4v6.6c0,2.9,4.5,2.9,4.5,0v-6.6C486.3,932.5,481.8,932.5,481.8,935.4"/>
		<path class="st4" d="M471.7,956.8c-0.8,2.2-2.2,4.1-3.4,6.1c-1.6,2.4,2.3,4.6,3.9,2.3c1.5-2.3,3-4.5,3.9-7.1
			C476.9,955.2,472.6,954.1,471.7,956.8"/>
		<path class="st4" d="M451.7,972.6c-2,1.9-4.4,3.1-7.1,3.8c-2.8,0.7-1.6,5,1.2,4.3c3.4-0.9,6.5-2.5,9-5
			C456.9,973.8,453.8,970.6,451.7,972.6"/>
		<path class="st4" d="M425,981.1c-1.5,0.7-2.9,1.5-4.4,2.2c-2.6,1.3-0.3,5.1,2.3,3.9c1.5-0.7,2.9-1.5,4.4-2.2
			C429.9,983.7,427.6,979.8,425,981.1"/>
		<path class="st4" d="M401.2,989.6c-3.7,0-7.3,0.1-10.9,0.8c-2.8,0.5-1.6,4.8,1.2,4.3c3.2-0.6,6.4-0.7,9.7-0.7
			C404.1,994,404.1,989.6,401.2,989.6"/>
		<path class="st4" d="M463.8,897.6c1.4,2.1,2.1,4.4,2.7,6.8c0.7,2.8,5,1.6,4.3-1.2s-1.6-5.5-3.2-7.9
			C466.1,893,462.2,895.2,463.8,897.6"/>
		<path class="st4" d="M464.2,923.6v6.6c0,2.9,4.5,2.9,4.5,0v-6.6C468.7,920.8,464.2,920.8,464.2,923.6"/>
		<path class="st4" d="M455.7,947.4c-0.7,1.5-1.5,2.9-2.2,4.4c-1.3,2.6,2.6,4.8,3.9,2.3c0.7-1.5,1.5-2.9,2.2-4.4
			C460.9,947.1,457,944.9,455.7,947.4"/>
		<path class="st4" d="M442.3,897.8c0.8,2.1,2.1,3.7,3.2,5.7c1.3,2.5,5.2,0.3,3.9-2.3c-0.8-1.6-2.1-2.9-2.7-4.6
			C445.7,894,441.3,895.1,442.3,897.8"/>
		<path class="st4" d="M445.9,919.2v9.5c0,2.9,4.5,2.9,4.5,0v-9.5C450.4,916.4,445.9,916.4,445.9,919.2"/>
		<path class="st4" d="M439.3,947.1c-0.1,2.8-0.7,5.5-1.4,8.2c-0.7,2.8,3.6,4,4.3,1.2c0.8-3.1,1.5-6.2,1.5-9.4
			C443.8,944.2,439.4,944.2,439.3,947.1"/>
		<path class="st4" d="M424,906.9c-0.7,2.9-0.8,5.7-0.8,8.7c0,2.9,4.5,2.9,4.5,0c0-2.5,0.1-5,0.7-7.5
			C429,905.3,424.7,904.1,424,906.9"/>
		<path class="st4" d="M424,934c-0.6,1.9-0.9,3.9-1.5,5.9c-0.9,2.7,3.4,3.9,4.3,1.2c0.6-1.9,0.9-3.9,1.5-5.9
			C429.2,932.5,424.9,931.3,424,934"/>
		<path class="st4" d="M422.8,959.2c-0.8,1.6-2.1,2.8-2.9,4.4c-1.4,2.5,2.5,4.8,3.9,2.3c0.8-1.6,2.1-2.8,2.9-4.4
			C428,958.9,424.1,956.6,422.8,959.2"/>
		<path class="st4" d="M406.3,918.5v11c0,2.9,4.5,2.9,4.5,0v-11C410.8,915.6,406.3,915.6,406.3,918.5"/>
		<path class="st4" d="M406.6,947.4c-1.1,2.2-1.7,4.5-1.8,7c-0.1,2.9,4.4,2.9,4.5,0c0-1.6,0.4-3.3,1.2-4.7
			C411.7,947.1,407.9,944.8,406.6,947.4"/>
		<path class="st4" d="M403,971.6c-0.6,1.1-1.7,1.7-2.6,2.5c-2.1,2,1.1,5.1,3.2,3.2c1.2-1.1,2.4-1.9,3.3-3.4
			C408.2,971.4,404.4,969.1,403,971.6"/>
		<path class="st4" d="M380,915.7c-0.9,2.8-0.8,5.8-0.8,8.7s4.5,2.9,4.5,0c0-2.5-0.1-5.1,0.7-7.5C385.1,914.1,380.8,912.9,380,915.7
			"/>
		<path class="st4" d="M386.5,937.5v8.8c0,2.9,4.5,2.9,4.5,0v-8.8C391,934.6,386.5,934.6,386.5,937.5"/>
		<path class="st4" d="M377.8,963.3c-0.6,1.9-0.9,3.9-1.5,5.9c-0.9,2.7,3.4,3.9,4.3,1.2c0.6-1.9,0.9-3.9,1.5-5.9
			C382.9,961.8,378.6,960.6,377.8,963.3"/>
		<path class="st4" d="M358,921.5c-0.6,2.1-0.8,4.3-0.8,6.5c0,2.9,4.5,2.9,4.5,0c0-1.8,0.1-3.5,0.7-5.3
			C363.1,920,358.8,918.8,358,921.5"/>
		<path class="st4" d="M363.1,943.5c-0.7,2.1-1.5,4.2-1.5,6.5c-0.1,2.9,4.4,2.9,4.5,0c0-1.9,0.8-3.5,1.4-5.3
			C368.3,942,364,940.8,363.1,943.5"/>
		<path class="st4" d="M362.4,971.4c-0.7,3.1-0.8,6.2-0.8,9.4c0,2.9,4.5,2.9,4.5,0c0-2.8,0-5.5,0.7-8.2
			C367.3,969.8,363,968.6,362.4,971.4"/>
		<path class="st4" d="M365.3,997c-0.6,1.7-1.9,3-2.7,4.6c-1.4,2.5,2.5,4.8,3.9,2.3c1-1.9,2.4-3.6,3.2-5.7
			C370.6,995.5,366.3,994.3,365.3,997"/>
		<path class="st4" d="M364.6,1019.8c-0.7,2.3-0.8,4.8-0.8,7.2c0,2.9,4.5,2.9,4.5,0c0-2.1,0-4,0.7-6
			C369.7,1018.2,365.4,1017,364.6,1019.8"/>
		<path class="st4" d="M367,1043.4c-0.6,1.2-0.9,2.5-1.5,3.7c-1.2,2.6,2.6,4.9,3.9,2.3c0.6-1.2,0.9-2.5,1.5-3.7
			C372.1,1043.1,368.2,1040.8,367,1043.4"/>
		<path class="st4" d="M326.5,845.3c-0.7,3.1-0.8,6.2-0.8,9.4c0,2.9,4.5,2.9,4.5,0c0-2.8,0-5.5,0.7-8.2
			C331.4,843.7,327.1,842.5,326.5,845.3"/>
		<path class="st4" d="M343.3,926.6c2.9,0,2.9-4.5,0-4.5S340.4,926.6,343.3,926.6"/>
		<path class="st4" d="M346.3,942.8c-0.7,2.3-0.8,4.8-0.8,7.2c0,2.9,4.5,2.9,4.5,0c0-2.1,0-4,0.7-6
			C351.4,941.2,347.1,940,346.3,942.8"/>
		<path class="st4" d="M345.5,967.7c-0.6,2.1-0.8,4.3-0.8,6.5c0,2.9,4.5,2.9,4.5,0c0-1.8,0.1-3.5,0.7-5.3
			C350.7,966.1,346.4,965,345.5,967.7"/>
		<path class="st4" d="M345,991.4c-0.8,1.8-1,3.6-1,5.5c0,2.9,4.5,2.9,4.5,0c0-1.1,0-2.2,0.4-3.3c0.5-1.1,0.3-2.4-0.8-3.1
			C347.1,990,345.5,990.3,345,991.4"/>
		<path class="st4" d="M344.7,1017.4c0,3.6,0,7.3,0.8,10.9c0.6,2.8,4.9,1.6,4.3-1.2c-0.7-3.2-0.7-6.4-0.7-9.7
			C349.2,1014.6,344.7,1014.5,344.7,1017.4"/>
		<path class="st4" d="M345,1047.8c-0.6,1.4-0.8,3-1.5,4.4c-0.5,1.1-0.3,2.4,0.8,3.1c0.9,0.6,2.6,0.3,3.1-0.8c0.6-1.4,0.8-3,1.5-4.4
			c0.5-1.1,0.3-2.4-0.8-3.1C347.1,1046.4,345.5,1046.7,345,1047.8"/>
		<path class="st4" d="M326.5,926.4c0.5,2.2,0,4.1-0.7,6.1c-0.9,2.7,3.4,3.9,4.3,1.2c1-2.9,1.4-5.5,0.7-8.5
			C330.1,922.4,325.8,923.6,326.5,926.4"/>
		<path class="st4" d="M326.5,959.6c-0.7,3.1-0.8,6.2-0.8,9.4c0,2.9,4.5,2.9,4.5,0c0-2.8,0-5.5,0.7-8.2
			C331.4,958,327.1,956.8,326.5,959.6"/>
		<path class="st4" d="M325.6,990.3v8.8c0,2.9,4.5,2.9,4.5,0v-8.8C330.1,987.4,325.6,987.4,325.6,990.3"/>
		<path class="st4" d="M327.9,1023.3c2.9,0,2.9-4.5,0-4.5C325,1018.9,325,1023.3,327.9,1023.3"/>
		<path class="st4" d="M326.4,1018.9c0,5.1,0.1,10.3,0.7,15.4c0.4,2.8,4.8,2.8,4.5,0c-0.7-5.1-0.7-10.2-0.7-15.4
			C330.8,1016,326.4,1016,326.4,1018.9"/>
		<path class="st4" d="M327.1,1051.9c0,2.5-0.7,4.9-0.7,7.3c-0.1,2.9,4.4,2.9,4.5,0c0-2.5,0.7-4.9,0.7-7.3
			C331.6,1049,327.2,1049,327.1,1051.9"/>
		<path class="st4" d="M306.6,851.7v9.5c0,2.9,4.5,2.9,4.5,0v-9.5C311.1,848.9,306.6,848.9,306.6,851.7"/>
		<path class="st4" d="M305.1,878.9v9.5c0,2.9,4.5,2.9,4.5,0v-9.5C309.6,876,305.1,876,305.1,878.9"/>
		<path class="st4" d="M309.5,906v9.5c0,2.9,4.5,2.9,4.5,0V906C314,903.1,309.5,903.1,309.5,906"/>
		<path class="st4" d="M308.9,937.4c0.7,3.2,0.7,6.4,0.7,9.7c0,2.9,4.5,2.9,4.5,0c0-3.6,0-7.3-0.8-10.9
			C312.5,933.4,308.2,934.6,308.9,937.4"/>
		<path class="st4" d="M306.6,972c0,3.2,0.1,6.3,0.8,9.4c0.6,2.8,5,1.6,4.3-1.2c-0.6-2.7-0.7-5.4-0.7-8.2
			C311,969.1,306.6,969.1,306.6,972"/>
		<path class="st4" d="M307.3,1002v8.8c0,2.9,4.5,2.9,4.5,0v-8.8C311.8,999.2,307.3,999.1,307.3,1002"/>
		<path class="st4" d="M306.6,1034.3v8.1c0,2.9,4.5,2.9,4.5,0v-8.1C311.1,1031.4,306.6,1031.4,306.6,1034.3"/>
		<path class="st4" d="M307.3,1061.4v0.7c0,2.9,4.5,2.9,4.5,0v-0.7C311.8,1058.5,307.3,1058.5,307.3,1061.4"/>
		<path class="st4" d="M289.7,861.3v5.9c0,2.9,4.5,2.9,4.5,0v-5.9C294.2,858.4,289.7,858.4,289.7,861.3"/>
		<path class="st4" d="M288.3,894.3c0,3.2,0.7,6.3,0.7,9.5c0,2.9,4.5,2.9,4.5,0c-0.1-3.2-0.7-6.3-0.7-9.5
			C292.7,891.4,288.2,891.4,288.3,894.3"/>
		<path class="st4" d="M292,922.3c-0.7,3.1-0.8,6.2-0.8,9.4c0,2.9,4.5,2.9,4.5,0c0-2.8,0-5.5,0.7-8.2
			C297,920.7,292.7,919.5,292,922.3"/>
		<path class="st4" d="M291.3,953.5c0.7,2.9,0.8,5.9,1.5,8.8c0.6,2.8,5,1.6,4.3-1.2c-0.7-2.9-0.8-5.9-1.5-8.8
			C294.9,949.5,290.6,950.7,291.3,953.5"/>
		<path class="st4" d="M289.8,978.7c-0.7,3.4-0.1,6.6,0.7,10c0.7,2.8,5,1.6,4.3-1.2c-0.6-2.5-1.3-5-0.7-7.6
			C294.7,977.1,290.4,975.9,289.8,978.7"/>
		<path class="st4" d="M289,1012.3c0,3.2,0.1,6.3,0.8,9.4c0.6,2.8,5,1.6,4.3-1.2c-0.6-2.7-0.6-5.4-0.7-8.2
			C293.5,1009.4,289,1009.4,289,1012.3"/>
		<path class="st4" d="M289,1044.5c0,2.9,0,5.9,0.8,8.7c0.8,2.7,5.1,1.6,4.3-1.2c-0.7-2.4-0.7-5-0.7-7.5
			C293.5,1041.7,289,1041.7,289,1044.5"/>
		<path class="st4" d="M291.2,1070.2c2.9,0,2.9-4.5,0-4.5C288.4,1065.8,288.4,1070.2,291.2,1070.2"/>
		<path class="st4" d="M280,397.1c2.7,0.6,5.4,0.8,8.1,1.5c2.8,0.7,4-3.6,1.2-4.3c-2.7-0.6-5.4-0.8-8.1-1.5
			C278.4,392.1,277.2,396.4,280,397.1"/>
		<path class="st4" d="M285.9,415.4c2.4,0.8,4.9,1.4,7.3,2.2c2.7,0.9,3.9-3.4,1.2-4.3c-2.4-0.8-4.9-1.4-7.3-2.2
			C284.3,410.2,283.2,414.5,285.9,415.4"/>
		<path class="st4" d="M283.6,436.7c2.8,0.1,5.5,0.7,8.2,1.4c2.8,0.7,4-3.6,1.2-4.3c-3.1-0.8-6.2-1.5-9.4-1.5
			C280.7,432.2,280.7,436.7,283.6,436.7"/>
		<path class="st4" d="M283.6,458.7h4.4c2.9,0,2.9-4.5,0-4.5h-4.4C280.7,454.3,280.7,458.7,283.6,458.7"/>
		<path class="st4" d="M287.2,480c0.7,0,1.4-0.1,2-0.3c0.2-0.1,0.4-0.2,0.6-0.2c0,0,0.6-0.2,0.3-0.2c1.2-0.1,2.2-0.9,2.2-2.2
			c0-1.1-1-2.4-2.2-2.2c-1,0.1-1.9,0.7-2.9,0.7C284.4,475.7,284.3,480.1,287.2,480"/>
		<path class="st4" d="M290.2,495.4c2.9,0,2.9-4.5,0-4.5C287.3,490.9,287.3,495.4,290.2,495.4"/>
		<path class="st4" d="M370.4,459.9c2.3,1.7,4.9,3.4,6.5,5.8c1.6,2.3,5.5,0.1,3.9-2.3c-2.1-3-5.2-5.2-8.1-7.4
			c-1-0.7-2.5-0.1-3.1,0.8C368.9,458,369.4,459.2,370.4,459.9"/>
		<path class="st4" d="M402.6,497.2c0.5,1.2,0.4,2.7,0.4,4c0,2.9,4.5,2.9,4.5,0c0-2.2-0.1-4.2-1-6.3c-0.5-1.1-2.1-1.3-3.1-0.8
			C402.2,494.8,402.1,496.1,402.6,497.2"/>
		<path class="st4" d="M432.6,563.9c-0.7,1.6-1,3-1,4.8c0,2.9,4.5,2.9,4.5,0c0-0.9,0-1.7,0.4-2.5
			C437.7,563.5,433.9,561.3,432.6,563.9"/>
		<path class="st4" d="M506.5,761.3c0.8,4.4,2.1,8.8,2.9,13.2c0.5,2.8,4.8,1.6,4.3-1.2c-0.8-4.4-2.1-8.8-2.9-13.2
			C510.3,757.3,506,758.5,506.5,761.3"/>
		<path class="st4" d="M501.3,796.5c0.7,2.9,0.7,5.9,0.7,8.9c0,2.9,4.5,2.9,4.5,0c0-3.4,0-6.8-0.8-10.1
			C505,792.5,500.7,793.7,501.3,796.5"/>
		<path class="st4" d="M488.1,823v7.3c0,2.9,4.5,2.9,4.5,0V823C492.5,820.2,488.1,820.2,488.1,823"/>
		<path class="st4" d="M328.3,871.3c0.6,4.4,0.7,8.9,0.7,13.3c0,2.9,4.5,2.9,4.5,0c0-4.9-0.2-9.7-0.8-14.5
			C332.2,867.3,327.9,868.5,328.3,871.3"/>
		<path class="st4" d="M334.8,905.3c0,0.1,0.1,1,0.1,1.4c0,2.9,4.5,2.9,4.5,0c0-1.7-0.3-3.2-1.4-4.5c-0.8-0.9-2.4-0.8-3.2,0
			C333.8,903,334,904.3,334.8,905.3"/>
		<path class="st4" d="M347.4,886.7c0.7,3.7,0.7,7.4,0.7,11.1c0,2.9,4.5,2.9,4.5,0c0-4.1,0-8.2-0.8-12.3
			C351.2,882.7,346.9,883.9,347.4,886.7"/>
		<path class="st4" d="M369.3,888.3v10.3c0,2.9,4.5,2.9,4.5,0v-10.3C373.8,885.4,369.3,885.4,369.3,888.3"/>
		<path class="st4" d="M387.7,877.9c0.6,2,0.7,3.9,0.7,6c0,2.9,4.5,2.9,4.5,0c0-2.4-0.1-4.8-0.8-7.2
			C391.2,874,386.9,875.1,387.7,877.9"/>
		<path class="st4" d="M392.3,901.1c0.7,1.5,1.1,3.1,1.2,4.7c0.1,2.9,4.5,2.9,4.5,0c-0.1-2.5-0.7-4.8-1.8-7
			C394.9,896.3,391.1,898.6,392.3,901.1"/>
		<path class="st4" d="M410.7,882.1c1.2,2.4,1.8,5,1.9,7.7c0.1,2.9,4.5,2.9,4.5,0c-0.1-3.5-1-6.8-2.5-9.9
			C413.3,877.2,409.4,879.5,410.7,882.1"/>
		<path class="st4" d="M430.2,887.6c2.9,0,2.9-4.5,0-4.5C427.3,883.1,427.3,887.6,430.2,887.6"/>
		<path class="st4" d="M459.5,883.9c2.9,0,2.9-4.5,0-4.5S456.6,883.9,459.5,883.9"/>
		<path class="st4" d="M447.8,562.1c2.9,0,2.9-4.5,0-4.5S444.9,562.1,447.8,562.1"/>
		<path class="st4" d="M466.8,598.8c2.9,0,2.9-4.5,0-4.5C464,594.3,463.9,598.8,466.8,598.8"/>
		<path class="st4" d="M358.5,511.4c2.9,0.7,5.9,0.8,8.8,1.5c2.8,0.6,4-3.7,1.2-4.3c-2.9-0.7-5.9-0.8-8.8-1.5
			C356.9,506.5,355.7,510.8,358.5,511.4"/>
		<path class="st4" d="M183.3,875c2.3,0.7,4.8,0.8,7.2,0.8c2.9,0,2.9-4.5,0-4.5c-2.1,0-4,0-6-0.7C181.7,869.9,180.5,874.2,183.3,875
			"/>
		<path class="st4" d="M173.9,891.7c2,0.9,4.1,1,6.3,1c2.9,0,2.9-4.5,0-4.5c-1.3,0-2.8,0.1-4-0.4c-1.1-0.5-2.4-0.3-3.1,0.8
			C172.6,889.6,172.8,891.2,173.9,891.7"/>
		<path class="st4" d="M201.1,896.1c1.8,0.8,3.6,1,5.5,1c2.9,0,2.9-4.5,0-4.5c-1.1,0-2.2,0-3.3-0.4c-1.1-0.5-2.4-0.3-3.1,0.8
			C199.7,894,200,895.6,201.1,896.1"/>
		<path class="st4" d="M205.1,878h3.7c2.9,0,2.9-4.5,0-4.5h-3.7C202.2,873.6,202.2,878,205.1,878"/>
		<path class="st4" d="M449.4,856.7c1.9,0.6,3.8,0.8,5.7,0.8c2.9,0,2.9-4.5,0-4.5c-1.6,0-3-0.2-4.5-0.7
			C447.8,851.5,446.6,855.9,449.4,856.7"/>
		<path class="st4" d="M447.7,865.7c1.1,1,2.3,1.4,3.8,1.4c2.9,0,2.9-4.4,0-4.5c-0.2,0-0.5,0-0.6-0.1
			C448.6,860.7,445.5,863.8,447.7,865.7"/>
		<path class="st4" d="M459.5,872.2h2.2c2.9,0,2.9-4.5,0-4.5h-2.2C456.6,867.7,456.6,872.2,459.5,872.2"/>
		<path class="st4" d="M464.6,862.7h4.4c2.9,0,2.9-4.5,0-4.5h-4.4C461.8,858.2,461.7,862.7,464.6,862.7"/>
		<path class="st4" d="M481.1,857.2c1.8,1.2,3.5,0.3,4.9-1.1c2.1-2-1.1-5.2-3.2-3.2c-0.4,0.3-0.5,0.4-0.3,0.3
			c0.4,0.1,0.8,0.2,1.1,0.3c-0.1-0.1-0.2-0.2-0.4-0.2C481,851.7,478.7,855.6,481.1,857.2"/>
		<path class="st4" d="M482.2,867.1h1.5c2.9,0,2.9-4.5,0-4.5h-1.5C479.3,862.6,479.3,867.1,482.2,867.1"/>
		<path class="st4" d="M498.5,858.3c0.9-0.8,1.8-1.2,2-2.4c0.5-2.8-3.8-4-4.3-1.2c0.4-0.5,0.4-0.5-0.1-0.2c-0.3,0.2-0.6,0.4-0.8,0.7
			C493.1,857.1,496.3,860.2,498.5,858.3"/>
		<path class="st4" d="M503.5,849.5c1.7,0,3.2-0.2,4.5-1.4c2.1-1.9-1-5.1-3.2-3.2c-0.2,0.2-1.1,0.1-1.4,0.1
			C500.6,845,500.6,849.5,503.5,849.5"/>
		<path class="st4" d="M515.6,850.6c1.7-0.9,2.9-2.1,3.7-3.7c1.3-2.5-2.5-4.8-3.9-2.3c-0.5,1-1.1,1.6-2.1,2.1
			C510.8,848.1,513.1,852,515.6,850.6"/>
		<path class="st4" d="M519.3,837.4c1.6-0.9,2.2-2.1,3-3.7c1.2-2.6-2.6-4.8-3.9-2.3c-0.4,0.8-0.6,1.7-1.4,2.1
			C514.5,835,516.7,838.8,519.3,837.4"/>
		<path class="st4" d="M524,817.2v2.2c0,2.9,4.5,2.9,4.5,0v-2.2C528.4,814.3,524,814.3,524,817.2"/>
		<path class="st4" d="M159,1067.9c1.1,1.3,2,2.7,2.9,4.1c1.5,2.5,5.3,0.2,3.9-2.3c-1-1.8-2.3-3.4-3.6-5c-0.8-0.9-2.4-0.8-3.2,0
			C158,1065.7,158.2,1067,159,1067.9"/>
		<path class="st4" d="M169.9,1078.7c0.4,0.8,0.7,1.6,0.9,2.4c0.7,2.8,5,1.6,4.3-1.2c-0.3-1.2-0.8-2.4-1.4-3.5
			C172.4,1073.9,168.6,1076.1,169.9,1078.7"/>
		<path class="st4" d="M166.8,1089.3c1.7,1.6,2.8,3.6,4.4,5.3c2,2.1,5.1-1.1,3.2-3.2c-1.6-1.7-2.7-3.7-4.4-5.3
			C167.8,1084.2,164.7,1087.3,166.8,1089.3"/>
		<path class="st4" d="M177.9,1096.8c0.8,1.5,1.6,2.8,2.6,4.1c0.7,1,2.4,0.8,3.2,0c1-0.9,0.7-2.2,0-3.2c-0.8-1-1.4-2.1-1.9-3.2
			C180.4,1092,176.6,1094.3,177.9,1096.8"/>
		<path class="st4" d="M183.3,1111.7c1.1,0.9,2.3,1.8,3.4,2.7c0.9,0.8,2.2,0.9,3.2,0c0.8-0.8,0.9-2.4,0-3.2
			c-1.1-0.9-2.3-1.8-3.4-2.8c-0.9-0.8-2.2-0.9-3.2,0C182.5,1109.3,182.3,1111,183.3,1111.7"/>
		<path class="st4" d="M172.8,1063.1c0.2,1.5,0.5,3.1,0.9,4.6c0.8,2.8,5.1,1.6,4.3-1.2c-0.4-1.5-0.7-3-0.9-4.6
			c-0.2-1.2-1.7-1.8-2.7-1.6C173.1,1060.6,172.7,1061.9,172.8,1063.1"/>
		<path class="st4" d="M182.7,1080.8c0.6,1.2,0.7,2.5,0.9,3.8c0.2,1.2,1.7,1.8,2.7,1.6c1.3-0.3,1.7-1.6,1.6-2.7
			c-0.3-1.7-0.6-3.3-1.4-4.9C185.3,1075.9,181.5,1078.2,182.7,1080.8"/>
		<path class="st4" d="M188.1,1098.9c0.1,2.1,0.6,4,1.7,5.7c1.5,2.4,5.4,0.2,3.9-2.3c-0.7-1.1-1-2.2-1.1-3.5
			C192.5,1096,188,1096,188.1,1098.9"/>
		<path class="st4" d="M373.2,1061.2c-0.5,2-0.5,4-0.5,6.1c0,2.9,4.5,2.9,4.5,0c0-1.7,0-3.3,0.4-4.9
			C378.1,1059.6,373.8,1058.4,373.2,1061.2"/>
		<path class="st4" d="M393.7,1058.1c-0.1,1.8-1.7,3.5-2.4,5.1c-1.2,2.6,2.6,4.8,3.9,2.3c1.2-2.5,2.9-4.5,3.1-7.3
			C398.4,1055.2,393.9,1055.2,393.7,1058.1"/>
		<path class="st4" d="M383.7,1067.1c-0.8,1.6-1.6,3.1-2.9,4.4c-2,2.1,1.2,5.2,3.2,3.2c1.5-1.6,2.6-3.3,3.6-5.3
			C388.9,1066.8,385,1064.5,383.7,1067.1"/>
		<path class="st4" d="M368.4,1080.9c-0.3,2-1.3,3.8-2.1,5.7c-0.4,1.1,0.5,2.4,1.6,2.7c1.3,0.4,2.3-0.4,2.7-1.6
			c0.8-1.9,1.8-3.7,2.1-5.7c0.2-1.2-0.3-2.4-1.6-2.7C370.1,1079,368.6,1079.7,368.4,1080.9"/>
		<path class="st4" d="M379.4,1084.8c-0.2,1.2-0.4,2.2-1.3,3.1c-1.9,2.1,1.2,5.3,3.2,3.2c1.3-1.5,2.1-3.1,2.4-5.1
			c0.2-1.2-0.3-2.4-1.6-2.7C381.1,1082.9,379.6,1083.6,379.4,1084.8"/>
		<path class="st4" d="M370,1095.9c-1.1,1.9-2.1,3.9-3.2,5.7c-1.5,2.5,2.4,4.7,3.9,2.3c1.1-1.9,2.1-3.9,3.2-5.7
			C375.3,1095.7,371.5,1093.5,370,1095.9"/>
		<path class="st4" d="M359.2,1110c-0.3,1-0.6,2-0.9,3c-0.8,2.8,3.5,4,4.3,1.2c0.3-1,0.6-2,0.9-3
			C364.3,1108.4,360,1107.2,359.2,1110"/>
		<path class="st4" d="M369.2,1108.8c-0.4,0.4-0.9,0.7-1.4,1.1c-2.1,1.9,1,5.1,3.2,3.2c0.4-0.4,0.9-0.7,1.4-1.1
			C374.5,1110,371.3,1106.9,369.2,1108.8"/>
		<path class="st4" d="M209.1,1050.2c0.8,2.1,1.7,4.2,3,6c1.6,2.3,5.5,0.1,3.9-2.3c-1.1-1.5-1.9-3.2-2.5-5
			C212.3,1046.4,208,1047.5,209.1,1050.2"/>
		<path class="st4" d="M227.5,1060.1c0.8,0.7,1.5,1.5,2.3,2.3c2,2.1,5.1-1.1,3.2-3.2c-0.8-0.8-1.4-1.6-2.3-2.3
			c-0.9-0.8-2.2-0.9-3.2,0C226.7,1057.8,226.6,1059.4,227.5,1060.1"/>
		<path class="st4" d="M249.5,1065.8c2.9,0,2.9-4.5,0-4.5C246.6,1061.4,246.6,1065.8,249.5,1065.8"/>
		<g>
			<g>
				<g>
					<defs>
						<rect id="SVGID_3_" x="52.5" y="752.9" width="210.7" height="167.9"/>
					</defs>
					<clipPath id="SVGID_4_">
						<use xlink:href="#SVGID_3_"  style="overflow:visible;"/>
					</clipPath>
					<path class="st5" d="M58.5,753.2C95,899.4,228.1,851.7,254,861.6c6.2,1.1,7.6,6.1,7.7,6.6c0.3,9.8-12.2,12-12.2,12
						s9.9,2.7,10.8,7.9c1,5.7-4.8,8.5-4.8,8.5s-5.9,2.3-9.1,1.2c0,0,11.1,2.1,5.5,11.6c-12.7,18.9-83,9.8-133.1-21.2
						c-37.3-23.2-58.1-62.1-64.1-91.4c5.5,4.8,16.6,43.6,45.5,67.4c35.3,29.1,133.8,54.1,144.1,43.9c4.6-9.1-11.2-13-11.2-13
						s19.1,2.8,18.1-7.6c-0.6-6-17.8-6.7-17.8-6.7s23.9-6.3,18.1-12.2C224.9,841.5,98.8,931,58.5,753.2"/>
				</g>
				<g>
					<defs>
						<rect id="SVGID_5_" x="52.5" y="752.9" width="210.7" height="167.9"/>
					</defs>
					<clipPath id="SVGID_6_">
						<use xlink:href="#SVGID_5_"  style="overflow:visible;"/>
					</clipPath>
					<path class="st6" d="M58.5,753.2C95,899.4,228.1,851.7,254,861.6c6.2,1.1,7.6,6.1,7.7,6.6c0.3,9.8-12.2,12-12.2,12
						s9.9,2.7,10.8,7.9c1,5.7-4.8,8.5-4.8,8.5s-5.9,2.3-9.1,1.2c0,0,11.1,2.1,5.5,11.6c-12.7,18.9-83,9.8-133.1-21.2
						c-37.3-23.2-58.1-62.1-64.1-91.4c5.5,4.8,16.6,43.6,45.5,67.4c35.3,29.1,133.8,54.1,144.1,43.9c4.6-9.1-11.2-13-11.2-13
						s19.1,2.8,18.1-7.6c-0.6-6-17.8-6.7-17.8-6.7s23.9-6.3,18.1-12.2C224.9,841.5,98.8,931,58.5,753.2z"/>
				</g>
			</g>
		</g>
		<path class="st7" d="M56.3,732.8c7.9,63.3,40.1,109.7,63.1,122.6c35.5,23.1,131.9-0.9,131.8,12.7c-0.1,11-21.4,11.4-21.4,11.4
			s19.9,1.4,20.1,8c0.2,9-19.7,6.6-19.7,6.6s17.4,3.4,14.6,12c-3.3,10.2-126.5-5.5-165.4-65.2C58.9,809.6,53,788.6,53,788.6"/>
		<g>
			<g>
				<g>
					<defs>
						<rect id="SVGID_7_" x="411.1" y="793.9" width="120.6" height="94.7"/>
					</defs>
					<clipPath id="SVGID_8_">
						<use xlink:href="#SVGID_7_"  style="overflow:visible;"/>
					</clipPath>
					<path class="st8" d="M522.1,793.9c-19.9,80.7-85.1,35-104.1,41.3c-4.5,0.6-7.8,3.3-6.7,8.2c-0.5,7.1,9.6,9.3,9.6,9.3
						s-8.1,3.6-8.9,7.3c-1.4,6.9,2.8,7.9,2.8,7.9s5.5,2.2,7.8,1.5c0,0-8.4,4.8-4.6,11.8c8.6,14,62,8.6,96.4-16.4
						c15.3-11.2,17.8-24.3,17.2-38.5c-1.7,5.2-5.5,27-22,35.2c-29.6,14.6-80.2,25.4-87.4,17.8c-3.1-6.7,9.2-10.5,9.2-10.5
						s-14-1.3-12.9-8.8c0.6-4.3,10.4-7.4,10.4-7.4s-11.4-0.2-11.7-11.3C416.9,827.6,519.8,884.1,522.1,793.9"/>
				</g>
			</g>
		</g>
		<path class="st7" d="M521.8,790.6c1.8,13.8-0.7,36.5-17.9,48.3c-35.5,23.1-85.9-9.9-85.8,3.6c0.1,11,20,9.6,20,9.6
			s-19.9,1.4-20.1,8c-0.2,9,19.7,6.6,19.7,6.6s-17.4,3.4-14.6,12c3.3,10.2,77.8-6,95.8-24.9c11.8-12.4,11.7-30.7,11.7-30.7"/>
		<g>
			<g>
				<g>
					<defs>
						<rect id="SVGID_9_" x="169.6" y="1054.2" width="48.3" height="94.1"/>
					</defs>
					<clipPath id="SVGID_10_">
						<use xlink:href="#SVGID_9_"  style="overflow:visible;"/>
					</clipPath>
					<path class="st9" d="M185.5,1054.2c0,0-8.8,5.1-15.9,3.2c1,6.6,17.5,39.3,48.3,90.9C191.7,1095.7,185.5,1054.2,185.5,1054.2"/>
				</g>
			</g>
		</g>
		<g>
			<g>
				<g>
					<defs>
						<rect id="SVGID_11_" x="340.2" y="1051.7" width="47.1" height="96.6"/>
					</defs>
					<clipPath id="SVGID_12_">
						<use xlink:href="#SVGID_11_"  style="overflow:visible;"/>
					</clipPath>
					<path class="st10" d="M363.1,1054.2c0,0,17.6,3.4,24.2-2.5c-1,6.6-16.3,45-47.1,96.6C371,1085.9,363.1,1054.2,363.1,1054.2"/>
				</g>
			</g>
		</g>
		<path class="st11" d="M462.1,662.9c2.8,63.4-35.4,172-162.4,173.9c-130.6,1.9-183.1-98.9-183.1-170.6c0-66,54.6-146.5,127.4-148.5
			c34.6-0.9,41.7,18.1,47.4,23.1c3.2-5.4,12.6-23.2,49.5-22.6C401.5,516.5,458.3,575.9,462.1,662.9"/>
		<path class="st12" d="M285.9,643.4c0,39-30.5,70.6-68,70.6s-68-31.6-68-70.6s30.5-70.6,68-70.6
			C255.4,572.8,285.9,604.4,285.9,643.4"/>
		<path class="st11" d="M252.4,641.2c0,19.1-15.1,34.5-33.6,34.5c-18.6,0-33.6-15.4-33.6-34.5s15-34.5,33.6-34.5
			C237.3,606.7,252.4,622.2,252.4,641.2"/>
		<path class="st12" d="M234.7,638.9c0,8.7-6.9,15.7-15.3,15.7c-8.5,0-15.3-7-15.3-15.7s6.8-15.7,15.3-15.7S234.7,630.2,234.7,638.9
			"/>
		<path class="st12" d="M212.3,661c0,3.6-2.8,6.5-6.3,6.5s-6.3-2.9-6.3-6.5s2.8-6.5,6.3-6.5C209.5,654.6,212.3,657.5,212.3,661"/>
		<path class="st13" d="M173.7,564.9c-2.6-4.7-0.7-8.7,2.6-9.8s6.9,0.2,8.2,4.4c1.3,4,0.8,9.2-0.8,14.2
			C183.7,573.7,176,569.2,173.7,564.9"/>
		<path class="st13" d="M199,554.9c-1.7-5.1,0.9-8.7,4.4-9.2s6.7,1.5,7.3,5.8c0.6,4.2-0.9,9.2-3.3,13.8
			C207.3,565.4,200.5,559.5,199,554.9"/>
		<path class="st13" d="M226.3,551.8c-0.3-5.4,3.2-8.1,6.7-7.7c3.5,0.4,6.1,3.2,5.5,7.6c-0.6,4.2-3.3,8.7-6.9,12.4
			C231.5,564.1,226.5,556.6,226.3,551.8"/>
		<path class="st12" d="M324.6,637.7c0,32,25,58,55.8,58s55.8-26,55.8-58s-25-57.9-55.8-57.9S324.6,605.7,324.6,637.7"/>
		<path class="st11" d="M352.1,635.9c0,15.7,12.3,28.3,27.6,28.3c15.2,0,27.6-12.7,27.6-28.3s-12.4-28.3-27.6-28.3
			C364.4,607.6,352.1,620.3,352.1,635.9"/>
		<path class="st12" d="M366.6,634c0,7.1,5.6,12.9,12.6,12.9c6.9,0,12.6-5.8,12.6-12.9c0-7.1-5.6-12.9-12.6-12.9
			S366.6,626.9,366.6,634"/>
		<path class="st12" d="M385,652.2c0,2.9,2.3,5.3,5.2,5.3c2.8,0,5.1-2.4,5.1-5.3c0-2.9-2.3-5.3-5.1-5.3
			C387.3,646.9,385,649.3,385,652.2"/>
		<path class="st13" d="M420.1,574.7c2.6-3.6,1.5-7-1.1-8.3s-5.6-0.6-7.2,2.7c-1.5,3.1-1.7,7.4-0.9,11.6
			C411,580.8,417.8,577.9,420.1,574.7"/>
		<path class="st13" d="M400.6,563.8c2-4,0.3-7.2-2.5-8s-5.6,0.5-6.6,3.9c-0.9,3.3-0.3,7.6,1.2,11.6
			C392.7,571.4,398.9,567.3,400.6,563.8"/>
		<path class="st13" d="M378.8,558.2c0.8-4.4-1.7-7-4.6-7s-5.3,1.9-5.3,5.6c0,3.5,1.7,7.4,4.3,10.9
			C373.2,567.6,378.1,562,378.8,558.2"/>
		<path class="st14" d="M323.3,703.9c1.8,10.2-4.1,16.2-10.8,16.2c-6.7,0-12.3-4.6-12.2-13.1c0.1-8.1,4.2-17.2,10.2-25.2
			C310.5,681.8,321.7,694.8,323.3,703.9"/>
		<path d="M288.1,781.5c0,0,9.9,2.6,23.5,1.4c16.2-1.4,24.3-6.2,24.3-6.2s-1,25.8-21.4,27.7C294.2,806.3,288.1,781.5,288.1,781.5"/>
		<polygon class="st11" points="294,784.6 302.3,785.3 300.2,793.4 		"/>
		<polyline class="st11" points="322.5,783.4 330.6,781.4 326.9,790.6 		"/>
		<path class="st15" d="M214.1,749.5c0,7-5.7,12.7-12.6,12.7c-7,0-12.7-5.7-12.7-12.7s5.7-12.7,12.7-12.7S214.1,742.5,214.1,749.5"
			/>
		<path class="st15" d="M417.2,732.8c0,7-5.7,12.7-12.7,12.7s-12.7-5.7-12.7-12.7s5.7-12.7,12.7-12.7S417.2,725.8,417.2,732.8"/>
		<path class="st15" d="M372.5,442.8c0,0,0.9,0.1,2.6,0.2c1.6,0.1,3.9,0.5,6.7,0.7c1.4,0.1,2.9,0.2,4.4,0.3c1.6,0.2,3.3,0.1,5,0.3
			c3.4,0.2,7.1,0.2,10.8,0.4c7.4,0.1,14.8,0.2,20.4,0.5c2.8,0.1,5.1,0.4,6.7,0.5s2.6,0.3,2.6,0.3s-0.9,0.1-2.6,0.3
			c-1.6,0.1-3.9,0.4-6.7,0.6c-2.8,0.2-6,0.4-9.5,0.6s-7.2,0.1-11,0.2c-1.9-0.1-3.7-0.2-5.6-0.3c-1.8,0-3.6-0.3-5.4-0.5
			s-3.4-0.3-5-0.7c-1.6-0.3-3.1-0.6-4.5-0.9c-2.8-0.5-4.9-1.4-6.5-1.8C373.4,443.1,372.5,442.8,372.5,442.8"/>
		<path class="st15" d="M385.7,429.3c0,0,0.9-0.1,2.4-0.2s3.7-0.2,6.2-0.5c1.3-0.1,2.6-0.3,4.1-0.4s3-0.4,4.6-0.6
			c3.2-0.4,6.5-1,9.9-1.5c6.7-1.2,13.5-2.3,18.7-3c2.6-0.4,4.7-0.5,6.2-0.7c1.5-0.1,2.4-0.2,2.4-0.2s-0.8,0.3-2.3,0.7
			c-1.5,0.4-3.5,1.1-6,1.8c-2.5,0.7-5.4,1.5-8.6,2.2c-3.1,0.8-6.6,1.4-10,2.1c-1.7,0.2-3.4,0.5-5.1,0.7c-1.7,0.3-3.4,0.3-5,0.5
			c-1.6,0.1-3.2,0.3-4.7,0.2c-1.5,0-2.9,0-4.2-0.1c-2.6,0-4.7-0.5-6.2-0.6C386.6,429.5,385.7,429.3,385.7,429.3"/>
		<path class="st15" d="M405.4,408.6c0,0,0.6-0.1,1.6-0.4s2.6-0.4,4.3-0.8c0.9-0.2,1.8-0.5,2.8-0.7s2-0.6,3.1-0.8
			c2.1-0.5,4.4-1.3,6.7-2c4.5-1.5,9.1-3,12.6-4s6-1.3,6-1.3s-2.1,1.3-5.3,2.9c-1.6,0.8-3.5,1.7-5.6,2.6s-4.4,1.7-6.7,2.6
			c-1.2,0.3-2.4,0.7-3.5,1c-1.1,0.4-2.4,0.5-3.5,0.7s-2.2,0.4-3.3,0.5c-1.1,0.1-2.1,0.1-3,0.2c-1.8,0.1-3.3-0.2-4.4-0.3
			C406,408.7,405.4,408.6,405.4,408.6"/>
		<path class="st15" d="M415.9,386.9c0,0,0.4-0.1,1.2-0.3c0.4-0.1,0.8-0.1,1.4-0.2c0.5-0.1,1.1-0.1,1.7-0.3c0.6-0.2,1.2-0.4,1.9-0.5
			c0.7-0.1,1.3-0.4,2.1-0.7c0.7-0.3,1.4-0.5,2.2-0.8c0.7-0.4,1.4-0.7,2.2-1.1c0.8-0.3,1.4-0.8,2.2-1.2c0.7-0.4,1.4-0.8,2.1-1.2
			c1.4-0.8,2.7-1.5,3.9-2.1c2.3-1.2,4-1.7,4-1.7s-1.2,1.4-3.1,3.1c-0.9,0.9-2.1,1.9-3.4,2.9c-0.6,0.5-1.3,1-2.1,1.5
			c-0.8,0.4-1.5,1-2.3,1.4s-1.7,0.7-2.5,1.1c-0.8,0.3-1.7,0.5-2.5,0.7c-0.8,0.3-1.6,0.3-2.5,0.3c-0.8,0-1.6,0-2.2,0
			c-0.7,0-1.2-0.2-1.8-0.3c-0.5-0.1-1-0.2-1.3-0.3C416.3,387.1,415.9,386.9,415.9,386.9"/>
		<path class="st15" d="M392.2,461.9c0,0,0.4,0.1,1.1,0.4c0.4,0.2,0.8,0.3,1.3,0.6c0.5,0.2,1,0.5,1.6,0.7s1.2,0.4,1.9,0.6
			c0.6,0.3,1.3,0.4,2.1,0.6c0.7,0.2,1.5,0.3,2.3,0.5c0.8,0.1,1.6,0.2,2.4,0.3c0.8,0.2,1.6,0.1,2.4,0.2c0.8,0,1.6,0.1,2.4,0.2
			c1.6,0.1,3.1,0.2,4.4,0.3c2.6,0.3,4.3,0.8,4.3,0.8s-1.7,0.5-4.3,0.9c-1.3,0.2-2.8,0.5-4.4,0.6c-0.8,0.1-1.7,0.1-2.5,0.1
			c-0.9,0-1.8,0-2.7-0.1c-0.9-0.1-1.8-0.3-2.7-0.4c-0.9-0.2-1.7-0.5-2.5-0.8c-0.8-0.2-1.6-0.6-2.2-1.1c-0.7-0.4-1.3-0.8-1.9-1.2
			c-0.6-0.4-0.9-0.8-1.3-1.2c-0.4-0.4-0.7-0.7-1-1C392.5,462.3,392.2,461.9,392.2,461.9"/>
		<path class="st15" d="M194.1,446.1c0,0-1,0.3-2.6,0.8c-0.8,0.2-1.9,0.5-3,0.9c-1.2,0.4-2.5,0.7-4,1s-3.1,0.6-4.8,0.9
			s-3.5,0.5-5.4,0.7s-3.8,0.5-5.8,0.5c-2,0.1-4,0.2-6,0.3c-4,0-8,0-11.8-0.2c-3.8-0.1-7.3-0.3-10.2-0.6c-3-0.3-5.5-0.5-7.2-0.6
			c-1.8-0.2-2.8-0.3-2.8-0.3s1-0.1,2.8-0.3c1.7-0.1,4.3-0.4,7.3-0.5c6-0.3,14-0.4,22-0.5c4-0.1,7.9-0.2,11.7-0.4
			c1.8-0.1,3.7-0.1,5.4-0.3c1.7-0.1,3.3-0.3,4.8-0.4c3-0.2,5.5-0.6,7.2-0.7C193.1,446.2,194.1,446.1,194.1,446.1"/>
		<path class="st15" d="M179.9,431.6c0,0-0.9,0.2-2.5,0.4c-1.6,0.1-3.9,0.6-6.7,0.6c-1.4,0-2.9,0-4.6,0c-1.6,0-3.3-0.1-5.1-0.3
			c-1.7-0.2-3.6-0.2-5.4-0.5c-1.8-0.3-3.7-0.5-5.5-0.8c-3.7-0.7-7.3-1.4-10.7-2.2c-3.4-0.8-6.5-1.6-9.2-2.4s-4.9-1.4-6.5-1.9
			s-2.4-0.8-2.4-0.8s0.9,0.1,2.6,0.2c1.6,0.2,4,0.4,6.7,0.8c5.5,0.8,12.8,2,20.1,3.3c3.6,0.6,7.3,1.2,10.7,1.6
			c1.7,0.2,3.4,0.6,4.9,0.6c1.6,0.2,3,0.3,4.4,0.5c2.7,0.4,5.1,0.4,6.7,0.5C179,431.5,179.9,431.6,179.9,431.6"/>
		<path class="st15" d="M158.8,409.2c0,0-0.7,0.1-1.8,0.2s-2.8,0.4-4.7,0.2c-1,0-2.1-0.1-3.2-0.2c-1.2-0.1-2.3-0.3-3.6-0.5
			c-1.2-0.3-2.5-0.4-3.7-0.8s-2.5-0.7-3.8-1.1c-2.5-0.9-5-1.7-7.2-2.7c-2.3-1-4.3-1.9-6.1-2.8c-3.5-1.7-5.8-3.1-5.8-3.1
			s2.6,0.4,6.4,1.5s8.7,2.7,13.6,4.3c2.4,0.7,4.9,1.6,7.2,2.1c1.2,0.3,2.3,0.7,3.3,0.9c1.1,0.2,2.1,0.5,3,0.7
			c1.9,0.5,3.5,0.6,4.6,0.9C158.1,409.1,158.8,409.2,158.8,409.2"/>
		<path class="st15" d="M147.5,385.9c0,0-0.5,0.1-1.3,0.3c-0.4,0.1-0.9,0.2-1.4,0.3c-0.6,0.1-1.2,0.3-1.9,0.3s-1.5,0-2.4-0.1
			c-0.4,0-0.9-0.1-1.3-0.1c-0.4-0.1-0.9-0.2-1.3-0.3c-0.9-0.2-1.8-0.4-2.7-0.7c-0.9-0.4-1.8-0.8-2.6-1.2c-0.9-0.4-1.6-1-2.5-1.4
			c-0.8-0.5-1.5-1-2.2-1.6c-1.4-1.1-2.6-2.1-3.7-3.1c-2.1-1.9-3.3-3.3-3.3-3.3s1.8,0.6,4.3,1.9c1.2,0.6,2.7,1.4,4.1,2.3
			c0.7,0.5,1.5,0.9,2.3,1.3s1.5,0.9,2.3,1.3s1.6,0.8,2.4,1.2c0.8,0.3,1.6,0.6,2.4,0.9c0.8,0.3,1.5,0.6,2.2,0.7
			c0.7,0.2,1.4,0.4,2.1,0.6c0.6,0.2,1.3,0.2,1.9,0.3c0.6,0.1,1.1,0.2,1.5,0.2C147,385.8,147.5,385.9,147.5,385.9"/>
		<path class="st15" d="M172.9,466.6c0,0-0.3,0.4-0.9,1c-0.3,0.3-0.6,0.7-1,1.1s-0.8,0.9-1.4,1.3c-0.6,0.4-1.3,0.8-2,1.2
			c-0.4,0.2-0.8,0.4-1.1,0.7c-0.4,0.2-0.8,0.3-1.3,0.5c-0.9,0.3-1.8,0.7-2.7,0.9c-0.9,0.1-1.9,0.3-2.9,0.4s-1.9,0.1-2.9,0.1
			c-0.9,0.1-1.9,0-2.7-0.1c-1.8-0.1-3.4-0.3-4.7-0.6c-2.7-0.4-4.6-0.9-4.6-0.9s1.8-0.5,4.6-0.8c1.4-0.1,3-0.2,4.7-0.3
			c0.9,0,1.7-0.1,2.6-0.2c0.9-0.1,1.8,0,2.6-0.2c0.9-0.1,1.7-0.2,2.6-0.3c0.8-0.2,1.7-0.4,2.5-0.5s1.6-0.3,2.2-0.6
			c0.7-0.3,1.4-0.5,2-0.7s1.2-0.6,1.7-0.8c0.5-0.2,1-0.4,1.3-0.6C172.5,466.8,172.9,466.6,172.9,466.6"/>
	</g>
	<g>
		<rect x="50.7" y="58.8" class="st16" width="490.4" height="231.6"/>
		<text transform="matrix(1 0 0 1 135.9878 137.1431)" class="st11 st17 st18">Select </text>
		<rect x="50.7" y="150.1" class="st16" width="539.2" height="125.7"/>
		<text transform="matrix(1 0 0 1 127.8442 228.356)" class="st11 st17 st18">episode</text>
	</g>
</g>
</svg>
