<?xml version="1.0" encoding="utf-8"?>
<!-- Generator: Adobe Illustrator 19.2.1, SVG Export Plug-In . SVG Version: 6.00 Build 0)  -->
<svg version="1.1" id="Capa_1" xmlns="http://www.w3.org/2000/svg" xmlns:xlink="http://www.w3.org/1999/xlink" x="0px" y="0px"
	 viewBox="0 0 1632.9 718.6" style="enable-background:new 0 0 1632.9 718.6;" xml:space="preserve">
<style type="text/css">
	.st0{fill:#00A099;}
	.st1{fill:#ED1E79;}
	.st2{fill:none;}
	.st3{fill:#FFFFFF;}
	.st4{font-family:'Myfrida-BoldItalic';}
	.st5{font-size:73.0375px;}
	.st6{fill:#39B54A;}
	.st7{fill:#FCEE21;}
	.st8{fill:#FF00FF;}
	.st9{fill:#D9E021;}
	.st10{fill:#8CC63F;}
	.st11{fill:#CCCCCC;}
	.st12{fill:#FFFF00;}
	.st13{fill:#1D1D1B;}
	.st14{fill:#29ABE2;}
	.st15{fill:#C69C6D;}
</style>
<g>
	<g>
		<path class="st0" d="M752.3,438.6c1.6,0,1.6-2.5,0-2.5C750.7,436.1,750.7,438.6,752.3,438.6L752.3,438.6z"/>
	</g>
</g>
<g>
	<g>
		<path class="st0" d="M736.4,438.3c1.6,0,1.6-2.5,0-2.5C734.8,435.8,734.8,438.3,736.4,438.3L736.4,438.3z"/>
	</g>
</g>
<g>
	<path class="st1" d="M945.6,12.5c-91.7,12.4-132.2,34.4-132.2,112.9c0,50.8,27.3,75.4,45.5,81.4c3.2,1.1-23.5,34.6-21.6,34.4
		c0,0,8.3,0.5,36.9-22.5c22.1-17.7,92.7-2.9,174.5,4.9c447.9,43,556.3-32.8,572.5-64.3c9.9-19.4,24.3-79.5-9.4-109.9
		C1543.9-11.6,1061.9-3.1,985,7.3"/>
</g>
<g>
	<rect x="878.1" y="49.5" class="st2" width="690" height="163.1"/>
	<text transform="matrix(1 0 0 1 893.9803 100.5542)"><tspan x="0" y="0" class="st3 st4 st5">To unlock a chaPter </tspan><tspan x="60.2" y="87.6" class="st3 st4 st5">, tap on the lock</tspan></text>
</g>
<path class="st6" d="M320.3,217.5c0,0,16.7-167.3,205.9-168c156.8-0.6,184.9,104,197.6,124.4c2.3,6.1,6.6,16.9,10,41.5
	c15.3,82.6,1.6,175.5-11.6,236.2c-202.1-1.1-267,1.5-388.1,0c-16-58.9-32.1-149.8-12.9-236.2"/>
<path class="st7" d="M379.4,131c-30.8-9.8-24.7-96.3-20.3-96.6c4.3-0.2,74.2-11,100.4,42.9C401.5,93.5,390.8,121.1,379.4,131z"/>
<path class="st7" d="M672.2,131c30.8-9.8,24.7-96.3,20.3-96.6c-4.3-0.2-74.2-11-100.4,42.9C650,93.5,660.8,121.1,672.2,131z"/>
<path class="st8" d="M383,112.9c-20.9-6.7-16.7-65.2-13.8-65.3c2.9-0.1,50.2-7.5,68,29C398,87.5,390.7,106.2,383,112.9z"/>
<path class="st8" d="M667.9,111.5c20.9-6.7,16.7-65.2,13.8-65.3c-2.9-0.1-50.2-7.5-68,29C652.9,86.1,660.2,104.8,667.9,111.5z"/>
<g>
	<g>
		<path class="st9" d="M518.7,70.6c5.6,0,5.6-8.7,0-8.7C513.1,61.9,513.1,70.6,518.7,70.6L518.7,70.6z"/>
	</g>
</g>
<g>
	<g>
		<path class="st9" d="M500.6,64.3c5.6,0,5.6-8.7,0-8.7C495,55.6,495,64.3,500.6,64.3L500.6,64.3z"/>
	</g>
</g>
<g>
	<g>
		<path class="st9" d="M479,65.7c5.6,0,5.6-8.7,0-8.7C473.5,57,473.5,65.7,479,65.7L479,65.7z"/>
	</g>
</g>
<g>
	<g>
		<path class="st9" d="M463,70.6c5.6,0,5.6-8.7,0-8.7C457.5,61.9,457.4,70.6,463,70.6L463,70.6z"/>
	</g>
</g>
<g>
	<g>
		<path class="st9" d="M364.2,137.4c5.6,0,5.6-8.7,0-8.7C358.6,128.7,358.6,137.4,364.2,137.4L364.2,137.4z"/>
	</g>
</g>
<g>
	<g>
		<path class="st9" d="M350.3,155.5c5.6,0,5.6-8.7,0-8.7C344.7,146.8,344.7,155.5,350.3,155.5L350.3,155.5z"/>
	</g>
</g>
<g>
	<g>
		<path class="st9" d="M340.5,179.2c5.6,0,5.6-8.7,0-8.7C334.9,170.5,334.9,179.2,340.5,179.2L340.5,179.2z"/>
	</g>
</g>
<g>
	<g>
		<path class="st9" d="M333.5,204.2c5.6,0,5.6-8.7,0-8.7C328,195.6,328,204.2,333.5,204.2L333.5,204.2z"/>
	</g>
</g>
<g>
	<g>
		<path class="st9" d="M328,230.7c5.6,0,5.6-8.7,0-8.7C322.4,222,322.4,230.7,328,230.7L328,230.7z"/>
	</g>
</g>
<g>
	<g>
		<path class="st9" d="M325.2,258.5c5.6,0,5.6-8.7,0-8.7C319.6,249.9,319.6,258.5,325.2,258.5L325.2,258.5z"/>
	</g>
</g>
<g>
	<g>
		<path class="st9" d="M322.4,289.2c5.6,0,5.6-8.7,0-8.7C316.8,280.5,316.8,289.2,322.4,289.2L322.4,289.2z"/>
	</g>
</g>
<g>
	<g>
		<path class="st9" d="M323.8,318.4c5.6,0,5.6-8.7,0-8.7C318.2,309.7,318.2,318.4,323.8,318.4L323.8,318.4z"/>
	</g>
</g>
<g>
	<g>
		<path class="st9" d="M323.1,344.2c5.6,0,5.6-8.7,0-8.7C317.5,335.5,317.5,344.2,323.1,344.2L323.1,344.2z"/>
	</g>
</g>
<g>
	<g>
		<path class="st9" d="M328,373.4c5.6,0,5.6-8.7,0-8.7C322.4,364.7,322.4,373.4,328,373.4L328,373.4z"/>
	</g>
</g>
<g>
	<g>
		<path class="st9" d="M333.5,401.2c5.6,0,5.6-8.7,0-8.7C328,392.6,328,401.2,333.5,401.2L333.5,401.2z"/>
	</g>
</g>
<g>
	<g>
		<path class="st9" d="M341.2,431.9c5.6,0,5.6-8.7,0-8.7C335.6,423.2,335.6,431.9,341.2,431.9L341.2,431.9z"/>
	</g>
</g>
<g>
	<g>
		<path class="st9" d="M509,83.1c5.6,0,5.6-8.7,0-8.7C503.4,74.4,503.4,83.1,509,83.1L509,83.1z"/>
	</g>
</g>
<g>
	<g>
		<path class="st9" d="M492.3,81c5.6,0,5.6-8.7,0-8.7C486.7,72.3,486.7,81,492.3,81L492.3,81z"/>
	</g>
</g>
<g>
	<g>
		<path class="st9" d="M475.6,83.8c5.6,0,5.6-8.7,0-8.7C470,75.1,470,83.8,475.6,83.8L475.6,83.8z"/>
	</g>
</g>
<g>
	<g>
		<path class="st9" d="M454.7,90.8c5.6,0,5.6-8.7,0-8.7C449.1,82.1,449.1,90.8,454.7,90.8L454.7,90.8z"/>
	</g>
</g>
<g>
	<g>
		<path class="st9" d="M431,101.9c5.6,0,5.6-8.7,0-8.7C425.4,93.2,425.4,101.9,431,101.9L431,101.9z"/>
	</g>
</g>
<g>
	<g>
		<path class="st9" d="M410.1,113.7c5.6,0,5.6-8.7,0-8.7C404.5,105.1,404.5,113.7,410.1,113.7L410.1,113.7z"/>
	</g>
</g>
<g>
	<g>
		<path class="st9" d="M397.6,129.7c5.6,0,5.6-8.7,0-8.7C392,121.1,392,129.7,397.6,129.7L397.6,129.7z"/>
	</g>
</g>
<g>
	<g>
		<path class="st9" d="M383.7,144.4c5.6,0,5.6-8.7,0-8.7C378.1,135.7,378.1,144.4,383.7,144.4L383.7,144.4z"/>
	</g>
</g>
<g>
	<g>
		<path class="st9" d="M368.4,154.1c5.6,0,5.6-8.7,0-8.7C362.8,145.4,362.8,154.1,368.4,154.1L368.4,154.1z"/>
	</g>
</g>
<g>
	<g>
		<path class="st9" d="M358.6,174.3c5.6,0,5.6-8.7,0-8.7C353,165.6,353,174.3,358.6,174.3L358.6,174.3z"/>
	</g>
</g>
<g>
	<g>
		<path class="st9" d="M353,195.9c5.6,0,5.6-8.7,0-8.7C347.5,187.2,347.5,195.9,353,195.9L353,195.9z"/>
	</g>
</g>
<g>
	<g>
		<path class="st9" d="M379.5,168.7c5.6,0,5.6-8.7,0-8.7C373.9,160,373.9,168.7,379.5,168.7L379.5,168.7z"/>
	</g>
</g>
<g>
	<g>
		<path class="st9" d="M344.7,219.5c5.6,0,5.6-8.7,0-8.7C339.1,210.9,339.1,219.5,344.7,219.5L344.7,219.5z"/>
	</g>
</g>
<g>
	<g>
		<path class="st9" d="M339.8,247.4c5.6,0,5.6-8.7,0-8.7C334.2,238.7,334.2,247.4,339.8,247.4L339.8,247.4z"/>
	</g>
</g>
<g>
	<g>
		<path class="st9" d="M334.9,274.5c5.6,0,5.6-8.7,0-8.7C329.4,265.9,329.4,274.5,334.9,274.5L334.9,274.5z"/>
	</g>
</g>
<g>
	<g>
		<path class="st9" d="M337,303.1c5.6,0,5.6-8.7,0-8.7C331.5,294.4,331.4,303.1,337,303.1L337,303.1z"/>
	</g>
</g>
<g>
	<g>
		<path class="st9" d="M335.6,331.6c5.6,0,5.6-8.7,0-8.7C330.1,323,330,331.6,335.6,331.6L335.6,331.6z"/>
	</g>
</g>
<g>
	<g>
		<path class="st9" d="M340.5,357.4c5.6,0,5.6-8.7,0-8.7C334.9,348.7,334.9,357.4,340.5,357.4L340.5,357.4z"/>
	</g>
</g>
<g>
	<g>
		<path class="st9" d="M344.7,384.5c5.6,0,5.6-8.7,0-8.7C339.1,375.9,339.1,384.5,344.7,384.5L344.7,384.5z"/>
	</g>
</g>
<g>
	<g>
		<path class="st9" d="M352.6,413.9c0.5-0.5,1-1,1.3-1.6c0.5-0.9,0.7-1.9,0.7-2.8c0-1.1-0.5-2.3-1.3-3.1c-0.8-0.8-2-1.3-3.1-1.3
			c-2.4,0.1-4.3,1.9-4.3,4.3c0,0.1,0,0.3,0,0.4c0.1-0.4,0.1-0.8,0.2-1.2c0,0.1,0,0.1-0.1,0.2c0.1-0.3,0.3-0.7,0.4-1
			c0,0.1-0.1,0.1-0.1,0.2c0.2-0.3,0.5-0.6,0.7-0.9c-0.2,0.2-0.3,0.3-0.5,0.5c-0.8,0.8-1.3,2-1.3,3.1c0,1.1,0.5,2.3,1.3,3.1
			C348.2,415.5,350.9,415.6,352.6,413.9L352.6,413.9z"/>
	</g>
</g>
<g>
	<g>
		<path class="st9" d="M358.6,443c5.6,0,5.6-8.7,0-8.7C353,434.3,353,443,358.6,443L358.6,443z"/>
	</g>
</g>
<g>
	<g>
		<path class="st9" d="M368.4,193.1c5.6,0,5.6-8.7,0-8.7C362.8,184.4,362.8,193.1,368.4,193.1L368.4,193.1z"/>
	</g>
</g>
<g>
	<g>
		<path class="st9" d="M367.1,213.8c0-0.2,0-0.5,0-0.7c0-1.1-0.5-2.3-1.3-3.1c-0.8-0.8-2-1.3-3.1-1.3c-2.3,0.1-4.3,1.9-4.3,4.3
			c0,0.2,0,0.5,0,0.7c0,1.1,0.5,2.3,1.3,3.1c0.8,0.8,2,1.3,3.1,1.3C365.1,218,367.1,216.2,367.1,213.8L367.1,213.8z"/>
	</g>
</g>
<g>
	<g>
		<path class="st9" d="M356.5,242.5c5.6,0,5.6-8.7,0-8.7C350.9,233.8,350.9,242.5,356.5,242.5L356.5,242.5z"/>
	</g>
</g>
<g>
	<g>
		<path class="st9" d="M354.4,267.6c5.6,0,5.6-8.7,0-8.7C348.9,258.9,348.8,267.6,354.4,267.6L354.4,267.6z"/>
	</g>
</g>
<g>
	<g>
		<path class="st9" d="M352.3,291.2c5.6,0,5.6-8.7,0-8.7C346.8,282.6,346.8,291.2,352.3,291.2L352.3,291.2z"/>
	</g>
</g>
<g>
	<g>
		<path class="st9" d="M353,319.1c5.6,0,5.6-8.7,0-8.7C347.5,310.4,347.5,319.1,353,319.1L353,319.1z"/>
	</g>
</g>
<g>
	<g>
		<path class="st9" d="M353,344.8c5.6,0,5.6-8.7,0-8.7C347.5,336.2,347.5,344.8,353,344.8L353,344.8z"/>
	</g>
</g>
<g>
	<g>
		<path class="st9" d="M359.3,372.7c5.6,0,5.6-8.7,0-8.7C353.7,364,353.7,372.7,359.3,372.7L359.3,372.7z"/>
	</g>
</g>
<g>
	<g>
		<path class="st9" d="M364.9,397.8c5.6,0,5.6-8.7,0-8.7C359.3,389.1,359.3,397.8,364.9,397.8L364.9,397.8z"/>
	</g>
</g>
<g>
	<g>
		<path class="st9" d="M369.1,423.5c5.6,0,5.6-8.7,0-8.7C363.5,414.8,363.5,423.5,369.1,423.5L369.1,423.5z"/>
	</g>
</g>
<g>
	<g>
		<path class="st9" d="M376.7,454.8c5.6,0,5.6-8.7,0-8.7C371.1,446.2,371.1,454.8,376.7,454.8L376.7,454.8z"/>
	</g>
</g>
<g>
	<g>
		<path class="st9" d="M370.4,352.5c5.6,0,5.6-8.7,0-8.7C364.9,343.8,364.9,352.5,370.4,352.5L370.4,352.5z"/>
	</g>
</g>
<g>
	<g>
		<path class="st9" d="M378.1,381.7c5.6,0,5.6-8.7,0-8.7C372.5,373.1,372.5,381.7,378.1,381.7L378.1,381.7z"/>
	</g>
</g>
<g>
	<g>
		<path class="st9" d="M383.7,407.5c5.6,0,5.6-8.7,0-8.7C378.1,398.8,378.1,407.5,383.7,407.5L383.7,407.5z"/>
	</g>
</g>
<g>
	<g>
		<path class="st9" d="M389.2,433.3c5.6,0,5.6-8.7,0-8.7C383.7,424.6,383.7,433.3,389.2,433.3L389.2,433.3z"/>
	</g>
</g>
<g>
	<g>
		<path class="st9" d="M397.6,390.8c5.6,0,5.6-8.7,0-8.7C392,382.1,392,390.8,397.6,390.8L397.6,390.8z"/>
	</g>
</g>
<g>
	<g>
		<path class="st9" d="M403.2,415.9c5.6,0,5.6-8.7,0-8.7C397.6,407.2,397.6,415.9,403.2,415.9L403.2,415.9z"/>
	</g>
</g>
<g>
	<g>
		<path class="st9" d="M405.9,446.5c5.6,0,5.6-8.7,0-8.7C400.4,437.8,400.4,446.5,405.9,446.5L405.9,446.5z"/>
	</g>
</g>
<g>
	<g>
		<path class="st9" d="M418.5,404.7c5.6,0,5.6-8.7,0-8.7C412.9,396,412.9,404.7,418.5,404.7L418.5,404.7z"/>
	</g>
</g>
<g>
	<g>
		<path class="st9" d="M421.3,432.6c5.6,0,5.6-8.7,0-8.7C415.7,423.9,415.7,432.6,421.3,432.6L421.3,432.6z"/>
	</g>
</g>
<g>
	<g>
		<path class="st9" d="M424,451c5.6,0,5.6-8.7,0-8.7C418.5,442.3,418.5,451,424,451L424,451z"/>
	</g>
</g>
<g>
	<g>
		<path class="st9" d="M435.2,416.6c5.6,0,5.6-8.7,0-8.7C429.6,407.9,429.6,416.6,435.2,416.6L435.2,416.6z"/>
	</g>
</g>
<g>
	<g>
		<path class="st9" d="M437.3,441.6c5.6,0,5.6-8.7,0-8.7C431.7,432.9,431.7,441.6,437.3,441.6L437.3,441.6z"/>
	</g>
</g>
<g>
	<g>
		<path class="st9" d="M451.9,430.5c5.6,0,5.6-8.7,0-8.7C446.3,421.8,446.3,430.5,451.9,430.5L451.9,430.5z"/>
	</g>
</g>
<g>
	<g>
		<path class="st9" d="M456.8,452.1c5.6,0,5.6-8.7,0-8.7C451.2,443.4,451.2,452.1,456.8,452.1L456.8,452.1z"/>
	</g>
</g>
<g>
	<g>
		<path class="st9" d="M470.7,420.7c5.6,0,5.6-8.7,0-8.7C465.1,412.1,465.1,420.7,470.7,420.7L470.7,420.7z"/>
	</g>
</g>
<g>
	<g>
		<path class="st9" d="M469.3,440.2c5.6,0,5.6-8.7,0-8.7C463.7,431.6,463.7,440.2,469.3,440.2L469.3,440.2z"/>
	</g>
</g>
<g>
	<g>
		<path class="st9" d="M488.8,451.4c5.6,0,5.6-8.7,0-8.7C483.2,442.7,483.2,451.4,488.8,451.4L488.8,451.4z"/>
	</g>
</g>
<g>
	<g>
		<path class="st9" d="M490.2,429.1c5.6,0,5.6-8.7,0-8.7C484.6,420.4,484.6,429.1,490.2,429.1L490.2,429.1z"/>
	</g>
</g>
<g>
	<g>
		<path class="st9" d="M504.8,443.7c5.6,0,5.6-8.7,0-8.7C499.2,435,499.2,443.7,504.8,443.7L504.8,443.7z"/>
	</g>
</g>
<g>
	<g>
		<path class="st9" d="M517.3,427.7c5.6,0,5.6-8.7,0-8.7C511.8,419,511.7,427.7,517.3,427.7L517.3,427.7z"/>
	</g>
</g>
<g>
	<g>
		<path class="st9" d="M520.1,454.8c5.6,0,5.6-8.7,0-8.7C514.5,446.2,514.5,454.8,520.1,454.8L520.1,454.8z"/>
	</g>
</g>
<g>
	<g>
		<path class="st9" d="M529.9,442.3c5.6,0,5.6-8.7,0-8.7C524.3,433.6,524.3,442.3,529.9,442.3L529.9,442.3z"/>
	</g>
</g>
<g>
	<g>
		<path class="st9" d="M543.8,425.6c5.6,0,5.6-8.7,0-8.7C538.2,416.9,538.2,425.6,543.8,425.6L543.8,425.6z"/>
	</g>
</g>
<g>
	<g>
		<path class="st9" d="M546.6,454.1c5.6,0,5.6-8.7,0-8.7C541,445.5,541,454.1,546.6,454.1L546.6,454.1z"/>
	</g>
</g>
<g>
	<g>
		<path class="st9" d="M556.3,438.8c5.6,0,5.6-8.7,0-8.7C550.7,430.2,550.7,438.8,556.3,438.8L556.3,438.8z"/>
	</g>
</g>
<g>
	<g>
		<path class="st9" d="M568.2,425.6c5.6,0,5.6-8.7,0-8.7C562.6,416.9,562.6,425.6,568.2,425.6L568.2,425.6z"/>
	</g>
</g>
<g>
	<g>
		<path class="st9" d="M574.4,447.9c5.6,0,5.6-8.7,0-8.7C568.8,439.2,568.8,447.9,574.4,447.9L574.4,447.9z"/>
	</g>
</g>
<g>
	<g>
		<path class="st9" d="M586.9,428.4c5.6,0,5.6-8.7,0-8.7C581.4,419.7,581.4,428.4,586.9,428.4L586.9,428.4z"/>
	</g>
</g>
<g>
	<g>
		<path class="st9" d="M590.4,456.9c5.6,0,5.6-8.7,0-8.7C584.9,448.3,584.8,456.9,590.4,456.9L590.4,456.9z"/>
	</g>
</g>
<g>
	<g>
		<path class="st9" d="M602.3,442c5.6,0,5.6-8.7,0-8.7C596.8,433.3,596.7,442,602.3,442L602.3,442z"/>
	</g>
</g>
<g>
	<g>
		<path class="st9" d="M609.1,418.9c5.6,0,5.6-8.7,0-8.7C603.5,410.2,603.5,418.9,609.1,418.9L609.1,418.9z"/>
	</g>
</g>
<g>
	<g>
		<path class="st9" d="M616.8,454c5.6,0,5.6-8.7,0-8.7C611.2,445.4,611.2,454,616.8,454L616.8,454z"/>
	</g>
</g>
<g>
	<g>
		<path class="st9" d="M626.9,430.9c5.6,0,5.6-8.7,0-8.7C621.3,422.2,621.3,430.9,626.9,430.9L626.9,430.9z"/>
	</g>
</g>
<g>
	<g>
		<path class="st9" d="M625,409.2c5.6,0,5.6-8.7,0-8.7C619.4,400.6,619.4,409.2,625,409.2L625,409.2z"/>
	</g>
</g>
<g>
	<g>
		<path class="st9" d="M643.3,416c5.6,0,5.6-8.7,0-8.7C637.7,407.3,637.7,416,643.3,416L643.3,416z"/>
	</g>
</g>
<g>
	<g>
		<path class="st9" d="M642.8,446.8c5.6,0,5.6-8.7,0-8.7C637.2,438.1,637.2,446.8,642.8,446.8L642.8,446.8z"/>
	</g>
</g>
<g>
	<g>
		<path class="st9" d="M659.7,431.4c5.6,0,5.6-8.7,0-8.7C654.1,422.7,654.1,431.4,659.7,431.4L659.7,431.4z"/>
	</g>
</g>
<g>
	<g>
		<path class="st9" d="M657.7,399.1c5.6,0,5.6-8.7,0-8.7C652.2,390.4,652.1,399.1,657.7,399.1L657.7,399.1z"/>
	</g>
</g>
<g>
	<g>
		<path class="st9" d="M668.3,379.8c5.6,0,5.6-8.7,0-8.7C662.8,371.2,662.7,379.8,668.3,379.8L668.3,379.8z"/>
	</g>
</g>
<g>
	<g>
		<path class="st9" d="M671.2,412.1c5.6,0,5.6-8.7,0-8.7C665.6,403.4,665.6,412.1,671.2,412.1L671.2,412.1z"/>
	</g>
</g>
<g>
	<g>
		<path class="st9" d="M673.1,449.2c5.6,0,5.6-8.7,0-8.7C667.6,440.5,667.6,449.2,673.1,449.2L673.1,449.2z"/>
	</g>
</g>
<g>
	<g>
		<path class="st9" d="M685.7,432.4c5.6,0,5.6-8.7,0-8.7C680.1,423.7,680.1,432.4,685.7,432.4L685.7,432.4z"/>
	</g>
</g>
<g>
	<g>
		<path class="st9" d="M685.7,393.8c5.6,0,5.6-8.7,0-8.7C680.1,385.1,680.1,393.8,685.7,393.8L685.7,393.8z"/>
	</g>
</g>
<g>
	<g>
		<path class="st9" d="M685.7,354.8c5.6,0,5.6-8.7,0-8.7C680.1,346.1,680.1,354.8,685.7,354.8L685.7,354.8z"/>
	</g>
</g>
<g>
	<g>
		<path class="st9" d="M698.2,450.4c5.6,0,5.6-8.7,0-8.7C692.6,441.7,692.6,450.4,698.2,450.4L698.2,450.4z"/>
	</g>
</g>
<g>
	<g>
		<path class="st9" d="M697.7,417.4c5.6,0,5.6-8.7,0-8.7C692.1,408.7,692.1,417.4,697.7,417.4L697.7,417.4z"/>
	</g>
</g>
<g>
	<g>
		<path class="st9" d="M698.2,376.5c5.6,0,5.6-8.7,0-8.7C692.6,367.8,692.6,376.5,698.2,376.5L698.2,376.5z"/>
	</g>
</g>
<g>
	<g>
		<path class="st9" d="M685.7,372.1c5.6,0,5.6-8.7,0-8.7C680.1,363.5,680.1,372.1,685.7,372.1L685.7,372.1z"/>
	</g>
</g>
<g>
	<g>
		<path class="st9" d="M699.2,339.9c5.6,0,5.6-8.7,0-8.7C693.6,331.2,693.6,339.9,699.2,339.9L699.2,339.9z"/>
	</g>
</g>
<g>
	<g>
		<path class="st9" d="M697.7,309c5.6,0,5.6-8.7,0-8.7C692.1,300.4,692.1,309,697.7,309L697.7,309z"/>
	</g>
</g>
<g>
	<g>
		<path class="st9" d="M711.2,325.9c5.6,0,5.6-8.7,0-8.7C705.6,317.2,705.6,325.9,711.2,325.9L711.2,325.9z"/>
	</g>
</g>
<g>
	<g>
		<path class="st9" d="M709.8,358.6c5.6,0,5.6-8.7,0-8.7C704.2,350,704.2,358.6,709.8,358.6L709.8,358.6z"/>
	</g>
</g>
<g>
	<g>
		<path class="st9" d="M709.3,398.1c5.6,0,5.6-8.7,0-8.7C703.7,389.5,703.7,398.1,709.3,398.1L709.3,398.1z"/>
	</g>
</g>
<g>
	<g>
		<path class="st9" d="M709.8,436.7c5.6,0,5.6-8.7,0-8.7C704.2,428,704.2,436.7,709.8,436.7L709.8,436.7z"/>
	</g>
</g>
<g>
	<g>
		<path class="st9" d="M720.8,416c5.6,0,5.6-8.7,0-8.7C715.3,407.3,715.2,416,720.8,416L720.8,416z"/>
	</g>
</g>
<g>
	<g>
		<path class="st9" d="M726.1,377.9c5.6,0,5.6-8.7,0-8.7C720.5,369.2,720.5,377.9,726.1,377.9L726.1,377.9z"/>
	</g>
</g>
<g>
	<g>
		<path class="st9" d="M727.1,343.2c5.6,0,5.6-8.7,0-8.7C721.5,334.6,721.5,343.2,727.1,343.2L727.1,343.2z"/>
	</g>
</g>
<g>
	<g>
		<path class="st9" d="M730.5,310c5.6,0,5.6-8.7,0-8.7C724.9,301.3,724.9,310,730.5,310L730.5,310z"/>
	</g>
</g>
<g>
	<g>
		<path class="st9" d="M515.5,92.5c0.2,0.2,0.3,0.3,0.5,0.5c0.8,0.8,2,1.3,3.1,1.3c1.1,0,2.3-0.5,3.1-1.3c1.6-1.7,1.7-4.4,0-6.1
			c-0.2-0.2-0.3-0.3-0.5-0.5c-0.8-0.8-2-1.3-3.1-1.3c-1.1,0-2.3,0.5-3.1,1.3C513.9,88.1,513.7,90.7,515.5,92.5L515.5,92.5z"/>
	</g>
</g>
<g>
	<g>
		<path class="st9" d="M528.2,106.2c5.6,0,5.6-8.7,0-8.7C522.6,97.6,522.6,106.2,528.2,106.2L528.2,106.2z"/>
	</g>
</g>
<g>
	<g>
		<path class="st9" d="M543.1,93.7c5.6,0,5.6-8.7,0-8.7C537.5,85.1,537.5,93.7,543.1,93.7L543.1,93.7z"/>
	</g>
</g>
<g>
	<g>
		<path class="st9" d="M562.8,87.9c5.6,0,5.6-8.7,0-8.7C557.3,79.3,557.3,87.9,562.8,87.9L562.8,87.9z"/>
	</g>
</g>
<g>
	<g>
		<path class="st9" d="M583.1,89.4c5.6,0,5.6-8.7,0-8.7C577.5,80.7,577.5,89.4,583.1,89.4L583.1,89.4z"/>
	</g>
</g>
<g>
	<g>
		<path class="st9" d="M608.1,94.7c5.6,0,5.6-8.7,0-8.7C602.5,86,602.5,94.7,608.1,94.7L608.1,94.7z"/>
	</g>
</g>
<g>
	<g>
		<path class="st9" d="M625.9,105.3c5.6,0,5.6-8.7,0-8.7C620.4,96.6,620.3,105.3,625.9,105.3L625.9,105.3z"/>
	</g>
</g>
<g>
	<g>
		<path class="st9" d="M646.2,121.2c5.6,0,5.6-8.7,0-8.7C640.6,112.5,640.6,121.2,646.2,121.2L646.2,121.2z"/>
	</g>
</g>
<g>
	<g>
		<path class="st9" d="M661.1,140c5.6,0,5.6-8.7,0-8.7C655.5,131.3,655.5,140,661.1,140L661.1,140z"/>
	</g>
</g>
<g>
	<g>
		<path class="st9" d="M672.7,157.8c5.6,0,5.6-8.7,0-8.7C667.1,149.1,667.1,157.8,672.7,157.8L672.7,157.8z"/>
	</g>
</g>
<g>
	<g>
		<path class="st9" d="M688.1,184.3c5.6,0,5.6-8.7,0-8.7C682.5,175.6,682.5,184.3,688.1,184.3L688.1,184.3z"/>
	</g>
</g>
<g>
	<g>
		<path class="st9" d="M696.7,216.6c5.6,0,5.6-8.7,0-8.7C691.2,207.9,691.2,216.6,696.7,216.6L696.7,216.6z"/>
	</g>
</g>
<g>
	<g>
		<path class="st9" d="M700.1,240.6c5.6,0,5.6-8.7,0-8.7C694.5,232,694.5,240.6,700.1,240.6L700.1,240.6z"/>
	</g>
</g>
<g>
	<g>
		<path class="st9" d="M702,275.3c5.6,0,5.6-8.7,0-8.7C696.5,266.6,696.5,275.3,702,275.3L702,275.3z"/>
	</g>
</g>
<g>
	<g>
		<path class="st9" d="M715.5,298c5.6,0,5.6-8.7,0-8.7C710,289.3,709.9,298,715.5,298L715.5,298z"/>
	</g>
</g>
<g>
	<g>
		<path class="st9" d="M715.5,261.3c5.6,0,5.6-8.7,0-8.7C710,252.7,709.9,261.3,715.5,261.3L715.5,261.3z"/>
	</g>
</g>
<g>
	<g>
		<path class="st9" d="M714.6,229.1c5.6,0,5.6-8.7,0-8.7C709,220.4,709,229.1,714.6,229.1L714.6,229.1z"/>
	</g>
</g>
<g>
	<g>
		<path class="st9" d="M707.8,197.8c5.6,0,5.6-8.7,0-8.7C702.2,189.1,702.2,197.8,707.8,197.8L707.8,197.8z"/>
	</g>
</g>
<g>
	<g>
		<path class="st9" d="M693.9,164.5c5.6,0,5.6-8.7,0-8.7C688.3,155.9,688.3,164.5,693.9,164.5L693.9,164.5z"/>
	</g>
</g>
<g>
	<g>
		<path class="st9" d="M682.3,142.4c5.6,0,5.6-8.7,0-8.7C676.7,133.7,676.7,142.4,682.3,142.4L682.3,142.4z"/>
	</g>
</g>
<g>
	<g>
		<path class="st9" d="M697.2,147.2c5.6,0,5.6-8.7,0-8.7C691.6,138.5,691.6,147.2,697.2,147.2L697.2,147.2z"/>
	</g>
</g>
<g>
	<g>
		<path class="st9" d="M710.2,178c5.6,0,5.6-8.7,0-8.7C704.7,169.3,704.6,178,710.2,178L710.2,178z"/>
	</g>
</g>
<g>
	<g>
		<path class="st9" d="M722.3,210.3c5.6,0,5.6-8.7,0-8.7C716.7,201.6,716.7,210.3,722.3,210.3L722.3,210.3z"/>
	</g>
</g>
<g>
	<g>
		<path class="st9" d="M728.5,246.4c5.6,0,5.6-8.7,0-8.7C723,237.7,722.9,246.4,728.5,246.4L728.5,246.4z"/>
	</g>
</g>
<g>
	<g>
		<path class="st9" d="M728.5,279.2c5.6,0,5.6-8.7,0-8.7C723,270.5,722.9,279.2,728.5,279.2L728.5,279.2z"/>
	</g>
</g>
<g>
	<g>
		<path class="st9" d="M531.5,84.6c5.6,0,5.6-8.7,0-8.7C526,75.9,525.9,84.6,531.5,84.6L531.5,84.6z"/>
	</g>
</g>
<g>
	<g>
		<path class="st9" d="M547.9,75.4c5.6,0,5.6-8.7,0-8.7C542.3,66.7,542.3,75.4,547.9,75.4L547.9,75.4z"/>
	</g>
</g>
<g>
	<g>
		<path class="st9" d="M573,73.5c5.6,0,5.6-8.7,0-8.7C567.4,64.8,567.4,73.5,573,73.5L573,73.5z"/>
	</g>
</g>
<g>
	<g>
		<path class="st9" d="M589.8,71.1c5.6,0,5.6-8.7,0-8.7C584.2,62.4,584.2,71.1,589.8,71.1L589.8,71.1z"/>
	</g>
</g>
<g>
	<g>
		<path class="st9" d="M560.4,63.9c5.6,0,5.6-8.7,0-8.7C554.9,55.2,554.8,63.9,560.4,63.9L560.4,63.9z"/>
	</g>
</g>
<g>
	<g>
		<path class="st9" d="M537.3,63.4c5.6,0,5.6-8.7,0-8.7C531.7,54.7,531.7,63.4,537.3,63.4L537.3,63.4z"/>
	</g>
</g>
<g>
	<path class="st6" d="M331,175.8c-14.1,5.1-111.8,15.7-134,176.2C182.4,456.4,80.6,422.1,25.5,479.1c-67.1,69.4,15.5,186.8,53,216
		c7.1,7.4,37.4,33.5,50.7,19.2c3.7-11.8-26.6-20.3-25.6-33.7c7.5,15.3,34.3,29.4,42.3,15.3c8.7-15.3-33.3-19.6-30.1-29.2
		c0.7,5.7,34.3,13.9,36.2,0c2.7-8.8-8.8-12.1-22.8-20.8C75.6,610.1-9.3,571.4,55.9,504.9c47.6-48.6,152.1-11.3,176.6-148.1
		c24.4-136.2,87.8-139.4,87.8-139.4"/>
	<g>
		<g>
			<path class="st10" d="M30.6,488.5c5.6,0,5.6-8.7,0-8.7C25,479.8,25,488.5,30.6,488.5L30.6,488.5z"/>
		</g>
	</g>
	<g>
		<g>
			<path class="st10" d="M8.5,536.5c5.6,0,5.6-8.7,0-8.7C2.9,527.8,2.9,536.5,8.5,536.5L8.5,536.5z"/>
		</g>
	</g>
	<g>
		<g>
			<path class="st10" d="M25.6,507c5.6,0,5.6-8.7,0-8.7C20,498.3,20,507,25.6,507L25.6,507z"/>
		</g>
	</g>
	<g>
		<g>
			<path class="st10" d="M22.6,550.6c5.6,0,5.6-8.7,0-8.7C17,541.9,17,550.6,22.6,550.6L22.6,550.6z"/>
		</g>
	</g>
	<g>
		<g>
			<path class="st10" d="M13.1,515.9c5.6,0,5.6-8.7,0-8.7C7.5,507.3,7.5,515.9,13.1,515.9L13.1,515.9z"/>
		</g>
	</g>
	<g>
		<g>
			<path class="st10" d="M25.6,526.5c5.6,0,5.6-8.7,0-8.7C20,517.8,20,526.5,25.6,526.5L25.6,526.5z"/>
		</g>
	</g>
	<g>
		<g>
			<path class="st10" d="M13.1,580.5c5.6,0,5.6-8.7,0-8.7C7.5,571.8,7.5,580.5,13.1,580.5L13.1,580.5z"/>
		</g>
	</g>
	<g>
		<g>
			<path class="st10" d="M8.5,559.2c5.6,0,5.6-8.7,0-8.7C2.9,550.5,2.9,559.2,8.5,559.2L8.5,559.2z"/>
		</g>
	</g>
	<g>
		<g>
			<path class="st10" d="M38.8,599.9c5.6,0,5.6-8.7,0-8.7C33.2,591.2,33.2,599.9,38.8,599.9L38.8,599.9z"/>
		</g>
	</g>
	<g>
		<g>
			<path class="st10" d="M25.6,609c5.6,0,5.6-8.7,0-8.7C20,600.3,20,609,25.6,609L25.6,609z"/>
		</g>
	</g>
	<g>
		<g>
			<path class="st10" d="M25.6,569.4c5.6,0,5.6-8.7,0-8.7C20,560.7,20,569.4,25.6,569.4L25.6,569.4z"/>
		</g>
	</g>
	<g>
		<g>
			<path class="st10" d="M40.8,623c5.6,0,5.6-8.7,0-8.7C35.2,614.3,35.2,623,40.8,623L40.8,623z"/>
		</g>
	</g>
	<g>
		<g>
			<path class="st10" d="M25.6,588.5c5.6,0,5.6-8.7,0-8.7C20,579.8,20,588.5,25.6,588.5L25.6,588.5z"/>
		</g>
	</g>
	<g>
		<g>
			<path class="st10" d="M41.8,643.5c5.6,0,5.6-8.7,0-8.7C36.2,634.8,36.2,643.5,41.8,643.5L41.8,643.5z"/>
		</g>
	</g>
	<g>
		<g>
			<path class="st10" d="M65.9,676.1c5.6,0,5.6-8.7,0-8.7C60.3,667.4,60.3,676.1,65.9,676.1L65.9,676.1z"/>
		</g>
	</g>
	<g>
		<g>
			<path class="st10" d="M95.3,668.3c5.6,0,5.6-8.7,0-8.7C89.7,659.6,89.7,668.3,95.3,668.3L95.3,668.3z"/>
		</g>
	</g>
	<g>
		<g>
			<path class="st10" d="M55.9,663.3c5.6,0,5.6-8.7,0-8.7C50.3,654.6,50.3,663.3,55.9,663.3L55.9,663.3z"/>
		</g>
	</g>
	<g>
		<g>
			<path class="st10" d="M79,671.1c5.6,0,5.6-8.7,0-8.7C73.4,662.4,73.4,671.1,79,671.1L79,671.1z"/>
		</g>
	</g>
	<g>
		<g>
			<path class="st10" d="M55.8,637.2c5.6,0,5.6-8.7,0-8.7C50.2,628.6,50.2,637.2,55.8,637.2L55.8,637.2z"/>
		</g>
	</g>
	<g>
		<g>
			<path class="st10" d="M72.6,650.2c5.6,0,5.6-8.7,0-8.7C67,641.6,67,650.2,72.6,650.2L72.6,650.2z"/>
		</g>
	</g>
	<g>
		<g>
			<path class="st10" d="M90.9,647.2c5.6,0,5.6-8.7,0-8.7C85.3,638.5,85.3,647.2,90.9,647.2L90.9,647.2z"/>
		</g>
	</g>
	<g>
		<g>
			<path class="st10" d="M76.3,627.9c5.6,0,5.6-8.7,0-8.7C70.7,619.2,70.7,627.9,76.3,627.9L76.3,627.9z"/>
		</g>
	</g>
	<g>
		<g>
			<path class="st10" d="M59.5,615.3c5.6,0,5.6-8.7,0-8.7C53.9,606.6,53.9,615.3,59.5,615.3L59.5,615.3z"/>
		</g>
	</g>
	<g>
		<g>
			<path class="st10" d="M40.8,500.5c5.6,0,5.6-8.7,0-8.7C35.2,491.8,35.2,500.5,40.8,500.5L40.8,500.5z"/>
		</g>
	</g>
	<g>
		<g>
			<path class="st10" d="M45.9,485.4c5.6,0,5.6-8.7,0-8.7C40.3,476.7,40.3,485.4,45.9,485.4L45.9,485.4z"/>
		</g>
	</g>
	<g>
		<g>
			<path class="st10" d="M56.1,469.5c5.6,0,5.6-8.7,0-8.7C50.5,460.8,50.5,469.5,56.1,469.5L56.1,469.5z"/>
		</g>
	</g>
	<g>
		<g>
			<path class="st10" d="M61.6,485.4c5.6,0,5.6-8.7,0-8.7C56,476.7,56,485.4,61.6,485.4L61.6,485.4z"/>
		</g>
	</g>
	<g>
		<g>
			<path class="st10" d="M79.6,458.5c5.6,0,5.6-8.7,0-8.7C74,449.9,74,458.5,79.6,458.5L79.6,458.5z"/>
		</g>
	</g>
	<g>
		<g>
			<path class="st10" d="M70.7,472.6c5.6,0,5.6-8.7,0-8.7C65.2,463.9,65.1,472.6,70.7,472.6L70.7,472.6z"/>
		</g>
	</g>
	<g>
		<g>
			<path class="st10" d="M84.6,475.3c5.6,0,5.6-8.7,0-8.7C79,466.6,79,475.3,84.6,475.3L84.6,475.3z"/>
		</g>
	</g>
	<g>
		<g>
			<path class="st10" d="M93.6,462c5.6,0,5.6-8.7,0-8.7C88,453.3,88,462,93.6,462L93.6,462z"/>
		</g>
	</g>
	<g>
		<g>
			<path class="st10" d="M106,450.9c5.6,0,5.6-8.7,0-8.7C100.5,442.2,100.4,450.9,106,450.9L106,450.9z"/>
		</g>
	</g>
	<g>
		<g>
			<path class="st10" d="M120.3,458.5c5.6,0,5.6-8.7,0-8.7C114.7,449.9,114.7,458.5,120.3,458.5L120.3,458.5z"/>
		</g>
	</g>
	<g>
		<g>
			<path class="st10" d="M136.6,458.5c5.6,0,5.6-8.7,0-8.7C131,449.9,131,458.5,136.6,458.5L136.6,458.5z"/>
		</g>
	</g>
	<g>
		<g>
			<path class="st10" d="M108.6,467c5.6,0,5.6-8.7,0-8.7C103,458.3,103,467,108.6,467L108.6,467z"/>
		</g>
	</g>
	<g>
		<g>
			<path class="st10" d="M128.1,446.5c5.6,0,5.6-8.7,0-8.7C122.5,437.8,122.5,446.5,128.1,446.5L128.1,446.5z"/>
		</g>
	</g>
	<g>
		<g>
			<path class="st10" d="M160.3,436.7c5.6,0,5.6-8.7,0-8.7C154.7,428,154.7,436.7,160.3,436.7L160.3,436.7z"/>
		</g>
	</g>
	<g>
		<g>
			<path class="st10" d="M156.4,452.1c5.6,0,5.6-8.7,0-8.7C150.8,443.4,150.8,452.1,156.4,452.1L156.4,452.1z"/>
		</g>
	</g>
	<g>
		<g>
			<path class="st10" d="M144.8,442.7c5.6,0,5.6-8.7,0-8.7C139.3,434,139.3,442.7,144.8,442.7L144.8,442.7z"/>
		</g>
	</g>
	<g>
		<g>
			<path class="st10" d="M170.9,423.5c5.6,0,5.6-8.7,0-8.7C165.3,414.8,165.3,423.5,170.9,423.5L170.9,423.5z"/>
		</g>
	</g>
	<g>
		<g>
			<path class="st10" d="M183.6,425.6c5.6,0,5.6-8.7,0-8.7C178,416.9,178,425.6,183.6,425.6L183.6,425.6z"/>
		</g>
	</g>
	<g>
		<g>
			<path class="st10" d="M174.6,440.2c5.6,0,5.6-8.7,0-8.7C169,431.6,169,440.2,174.6,440.2L174.6,440.2z"/>
		</g>
	</g>
	<g>
		<g>
			<path class="st10" d="M183.6,411.3c5.6,0,5.6-8.7,0-8.7C178,402.6,178,411.3,183.6,411.3L183.6,411.3z"/>
		</g>
	</g>
	<g>
		<g>
			<path class="st10" d="M197.9,407.5c5.6,0,5.6-8.7,0-8.7C192.3,398.8,192.3,407.5,197.9,407.5L197.9,407.5z"/>
		</g>
	</g>
	<g>
		<g>
			<path class="st10" d="M195.1,390.8c5.6,0,5.6-8.7,0-8.7C189.5,382.1,189.5,390.8,195.1,390.8L195.1,390.8z"/>
		</g>
	</g>
	<g>
		<g>
			<path class="st10" d="M209.1,390.8c5.6,0,5.6-8.7,0-8.7C203.5,382.1,203.5,390.8,209.1,390.8L209.1,390.8z"/>
		</g>
	</g>
	<g>
		<g>
			<path class="st10" d="M214.9,309c5.6,0,5.6-8.7,0-8.7C209.3,300.4,209.3,309,214.9,309L214.9,309z"/>
		</g>
	</g>
	<g>
		<g>
			<path class="st10" d="M223.1,291.2c5.6,0,5.6-8.7,0-8.7C217.5,282.6,217.5,291.2,223.1,291.2L223.1,291.2z"/>
		</g>
	</g>
	<g>
		<g>
			<path class="st10" d="M230.6,271c5.6,0,5.6-8.7,0-8.7C225,262.3,225,271,230.6,271L230.6,271z"/>
		</g>
	</g>
	<g>
		<g>
			<path class="st10" d="M240.1,251c5.6,0,5.6-8.7,0-8.7C234.5,242.3,234.5,251,240.1,251L240.1,251z"/>
		</g>
	</g>
	<g>
		<g>
			<path class="st10" d="M251.1,236.5c5.6,0,5.6-8.7,0-8.7C245.5,227.8,245.5,236.5,251.1,236.5L251.1,236.5z"/>
		</g>
	</g>
	<g>
		<g>
			<path class="st10" d="M270.4,221.9c5.6,0,5.6-8.7,0-8.7C264.9,213.2,264.8,221.9,270.4,221.9L270.4,221.9z"/>
		</g>
	</g>
	<g>
		<g>
			<path class="st10" d="M287.5,208c5.6,0,5.6-8.7,0-8.7C282,199.4,282,208,287.5,208L287.5,208z"/>
		</g>
	</g>
	<g>
		<g>
			<path class="st10" d="M303.2,197.2c5.6,0,5.6-8.7,0-8.7C297.6,188.5,297.6,197.2,303.2,197.2L303.2,197.2z"/>
		</g>
	</g>
	<g>
		<g>
			<path class="st10" d="M311,209.5c5.6,0,5.6-8.7,0-8.7C305.4,200.8,305.4,209.5,311,209.5L311,209.5z"/>
		</g>
	</g>
	<g>
		<g>
			<path class="st10" d="M318.4,194.5c5.6,0,5.6-8.7,0-8.7C312.9,185.9,312.8,194.5,318.4,194.5L318.4,194.5z"/>
		</g>
	</g>
	<g>
		<g>
			<path class="st10" d="M202.1,378c5.6,0,5.6-8.7,0-8.7C196.5,369.3,196.5,378,202.1,378L202.1,378z"/>
		</g>
	</g>
	<g>
		<g>
			<path class="st10" d="M205.1,357.4c5.6,0,5.6-8.7,0-8.7C199.5,348.7,199.5,357.4,205.1,357.4L205.1,357.4z"/>
		</g>
	</g>
	<g>
		<g>
			<path class="st10" d="M209.1,341c5.6,0,5.6-8.7,0-8.7C203.5,332.3,203.5,341,209.1,341L209.1,341z"/>
		</g>
	</g>
	<g>
		<g>
			<path class="st10" d="M211.6,324.8c5.6,0,5.6-8.7,0-8.7C206,316.1,206,324.8,211.6,324.8L211.6,324.8z"/>
		</g>
	</g>
	<g>
		<g>
			<path class="st10" d="M212.6,370c5.6,0,5.6-8.7,0-8.7C207,361.3,207,370,212.6,370L212.6,370z"/>
		</g>
	</g>
	<g>
		<g>
			<path class="st10" d="M217.1,352.5c5.6,0,5.6-8.7,0-8.7C211.5,343.8,211.5,352.5,217.1,352.5L217.1,352.5z"/>
		</g>
	</g>
	<g>
		<g>
			<path class="st10" d="M223.1,331.6c5.6,0,5.6-8.7,0-8.7C217.5,323,217.5,331.6,223.1,331.6L223.1,331.6z"/>
		</g>
	</g>
	<g>
		<g>
			<path class="st10" d="M228.1,314.1c5.6,0,5.6-8.7,0-8.7C222.5,305.4,222.5,314.1,228.1,314.1L228.1,314.1z"/>
		</g>
	</g>
	<g>
		<g>
			<path class="st10" d="M234.6,298c5.6,0,5.6-8.7,0-8.7C229,289.3,229,298,234.6,298L234.6,298z"/>
		</g>
	</g>
	<g>
		<g>
			<path class="st10" d="M240.1,282.5c5.6,0,5.6-8.7,0-8.7C234.5,273.8,234.5,282.5,240.1,282.5L240.1,282.5z"/>
		</g>
	</g>
	<g>
		<g>
			<path class="st10" d="M249.3,267.6c5.6,0,5.6-8.7,0-8.7C243.7,258.9,243.7,267.6,249.3,267.6L249.3,267.6z"/>
		</g>
	</g>
	<g>
		<g>
			<path class="st10" d="M255.1,251c5.6,0,5.6-8.7,0-8.7C249.5,242.3,249.5,251,255.1,251L255.1,251z"/>
		</g>
	</g>
	<g>
		<g>
			<path class="st10" d="M266.6,238.5c5.6,0,5.6-8.7,0-8.7C261,229.8,261,238.5,266.6,238.5L266.6,238.5z"/>
		</g>
	</g>
	<g>
		<g>
			<path class="st10" d="M287.2,221.9c5.6,0,5.6-8.7,0-8.7C281.7,213.2,281.6,221.9,287.2,221.9L287.2,221.9z"/>
		</g>
	</g>
	<path class="st11" d="M320.3,217.5c0.5-2.1,0.9-12.9,4.9-23.6c0.3-1.5-81.8,35.7-75.6,99.8C270.4,231.1,317.8,215.7,320.3,217.5z"
		/>
</g>
<path class="st3" d="M693.4,258.6c2.7,67.4,10.6,162.1-178,162.1c-146.2,0-159.9-92.8-159.9-169c0-70.3,53.4-155.9,124.6-158
	c33.9-1,40.8,19.3,46.4,24.5c3.2-5.7,12.4-24.7,48.4-24.1C634.2,92.3,689.6,166.1,693.4,258.6z"/>
<path class="st12" d="M427,303.1c-1.1,6.9-7.6,11.7-14.5,10.6c-6.9-1.1-11.7-7.6-10.6-14.5c1.1-6.9,7.6-11.7,14.5-10.6
	C423.3,289.7,428.1,296.1,427,303.1z"/>
<path class="st12" d="M644.7,299.9c-0.9,5.8-6.4,9.8-12.2,8.9c-5.8-0.9-9.8-6.4-8.9-12.2c0.9-5.8,6.3-9.8,12.2-8.9
	C641.6,288.7,645.6,294.1,644.7,299.9z"/>
<path class="st13" d="M519.9,209.6c0,35.7-27.9,64.7-62.3,64.7c-34.4,0-62.3-29-62.3-64.7c0-35.7,27.9-64.7,62.3-64.7
	C492,144.9,519.9,173.8,519.9,209.6z"/>
<path class="st3" d="M489.2,207.6c0,17.5-13.8,31.6-30.8,31.6c-17,0-30.8-14.2-30.8-31.6c0-17.5,13.8-31.6,30.8-31.6
	C475.5,175.9,489.2,190.1,489.2,207.6z"/>
<path class="st13" d="M473.1,205.4c0,8-6.3,14.4-14,14.4c-7.7,0-14-6.4-14-14.4c0-8,6.3-14.4,14-14.4
	C466.8,191,473.1,197.5,473.1,205.4z"/>
<path class="st13" d="M452.5,225.7c0,3.3-2.6,5.9-5.8,5.9c-3.2,0-5.8-2.6-5.8-5.9c0-3.3,2.6-5.9,5.8-5.9
	C449.9,219.8,452.5,222.5,452.5,225.7z"/>
<g>
	<path class="st14" d="M422.1,131.6c-1.8-4.6,0.4-8,3.6-8.6c3.2-0.6,6.2,1,6.9,5c0.7,3.8-0.4,8.5-2.4,12.8
		C430.2,140.8,423.7,135.7,422.1,131.6z"/>
	<path class="st14" d="M446.3,125.5c-0.9-4.9,1.8-7.8,5-7.8c3.2,0,5.9,2.1,5.9,6.2c0,3.9-1.9,8.3-4.7,12.2
		C452.6,136,447.1,129.8,446.3,125.5z"/>
	<path class="st14" d="M471.5,125.8c0.4-4.9,3.8-7,7-6.2c3.1,0.8,5.1,3.6,4.1,7.5c-1,3.7-4,7.5-7.8,10.5
		C474.7,137.6,471.1,130.2,471.5,125.8z"/>
</g>
<path class="st13" d="M528.4,209.3c0,35.7,27.9,64.7,62.3,64.7c34.4,0,62.3-29,62.3-64.7c0-35.7-27.9-64.7-62.3-64.7
	C556.3,144.7,528.4,173.6,528.4,209.3z"/>
<path class="st3" d="M559.1,207.3c0,17.5,13.8,31.6,30.8,31.6c17,0,30.8-14.2,30.8-31.6c0-17.5-13.8-31.6-30.8-31.6
	C572.9,175.7,559.1,189.9,559.1,207.3z"/>
<path class="st13" d="M575.3,205.2c0,8,6.3,14.4,14,14.4c7.8,0,14-6.4,14-14.4c0-8-6.3-14.4-14-14.4
	C581.5,190.8,575.3,197.2,575.3,205.2z"/>
<path class="st13" d="M595.8,225.5c0,3.3,2.6,5.9,5.8,5.9c3.2,0,5.7-2.6,5.7-5.9c0-3.3-2.6-5.9-5.7-5.9
	C598.4,219.6,595.8,222.3,595.8,225.5z"/>
<g>
	<path class="st14" d="M626.2,131.4c1.8-4.6-0.4-8-3.5-8.6c-3.2-0.6-6.2,1-6.9,5c-0.7,3.8,0.4,8.5,2.4,12.8
		C618.1,140.6,624.6,135.5,626.2,131.4z"/>
	<path class="st14" d="M602,125.3c0.9-4.9-1.8-7.8-5-7.8c-3.2,0-5.9,2.1-5.9,6.2c0,3.9,1.9,8.3,4.7,12.2
		C595.7,135.8,601.2,129.6,602,125.3z"/>
	<path class="st14" d="M576.9,125.6c-0.4-4.9-3.8-7-7-6.2c-3.1,0.8-5.1,3.6-4.1,7.5c1,3.7,4,7.5,7.8,10.5
		C573.6,137.4,577.2,130,576.9,125.6z"/>
</g>
<path class="st15" d="M539.4,288.2c2.4,13.5-5.4,21.5-14.4,21.5c-8.9,0-16.4-6.2-16.2-17.4c0.2-10.8,5.6-23,13.5-33.6
	C522.4,258.8,537.3,276.1,539.4,288.2z"/>
<path class="st13" d="M584.3,365.6c0,18.6-25,33.7-55.9,33.7c-30.9,0-55.9-15.1-55.9-33.7c0-18.6,25-33.7,55.9-33.7
	C559.3,331.9,584.3,347,584.3,365.6z"/>
<path class="st3" d="M513.4,337.3c2.3,3.3,13.3,51.2,13.3,51.2s9.8-42.2,11.9-51.2C535,335,522,333.3,513.4,337.3z"/>
<g>
	<path class="st6" d="M734.2,236.1c2.5,5,16.1-17.3,31.7,16.7c30.9,67.4,111.1,132.3,177.5,145.1c85.7,16.4,243.5-32.2,297.7-15.6
		c28.8,8.8,24.5,36,26.8,61.4c-0.2,6.8-0.5,23.2,11.5,23.2c10.8-1.5,10.8-14,10.8-25.3c6,18.5,0,29.8,13.7,29.8
		c7.8,0,10.7-20.3,12.1-29.8c1.7,9-1.4,32.3,14.1,27.3c13-5.1,6.3-26.7,3.2-54.8c-3.2-36-14.8-74.2-67.3-78.7
		c-57.3-4.9-155.3,22.7-251.9,32.3c-70.8,7-97.6-13.5-119.2-28.9c-49.7-35.5-102.6-110.1-109.7-122.5c-20-35.1-58.9-35.1-58.9-35.1"
		/>
	<g>
		<g>
			<path class="st10" d="M1113.9,382.5c5.6,0,5.6-8.7,0-8.7C1108.3,373.9,1108.3,382.5,1113.9,382.5L1113.9,382.5z"/>
		</g>
	</g>
	<g>
		<g>
			<path class="st10" d="M1188,352.3c5.6,0,5.6-8.7,0-8.7C1182.4,343.7,1182.4,352.3,1188,352.3L1188,352.3z"/>
		</g>
	</g>
	<g>
		<g>
			<path class="st10" d="M1096.4,384.5c5.6,0,5.6-8.7,0-8.7C1090.8,375.9,1090.8,384.5,1096.4,384.5L1096.4,384.5z"/>
		</g>
	</g>
	<g>
		<g>
			<path class="st10" d="M1305,435.3c5.6,0,5.6-8.7,0-8.7C1299.4,426.7,1299.4,435.3,1305,435.3L1305,435.3z"/>
		</g>
	</g>
	<g>
		<g>
			<path class="st10" d="M1140.3,363.4c5.6,0,5.6-8.7,0-8.7C1134.7,354.8,1134.7,363.4,1140.3,363.4L1140.3,363.4z"/>
		</g>
	</g>
	<g>
		<g>
			<path class="st10" d="M1101.2,368.2c5.6,0,5.6-8.7,0-8.7C1095.7,359.5,1095.7,368.2,1101.2,368.2L1101.2,368.2z"/>
		</g>
	</g>
	<g>
		<g>
			<path class="st10" d="M1314.5,416.2c5.6,0,5.6-8.7,0-8.7C1308.9,407.6,1308.9,416.2,1314.5,416.2L1314.5,416.2z"/>
		</g>
	</g>
	<g>
		<g>
			<path class="st10" d="M1315.9,397.3c5.6,0,5.6-8.7,0-8.7C1310.4,388.6,1310.3,397.3,1315.9,397.3L1315.9,397.3z"/>
		</g>
	</g>
	<g>
		<g>
			<path class="st10" d="M1290.1,422.6c5.6,0,5.6-8.7,0-8.7C1284.6,413.9,1284.6,422.6,1290.1,422.6L1290.1,422.6z"/>
		</g>
	</g>
	<g>
		<g>
			<path class="st10" d="M1297.1,405.6c5.6,0,5.6-8.7,0-8.7C1291.5,396.9,1291.5,405.6,1297.1,405.6L1297.1,405.6z"/>
		</g>
	</g>
	<g>
		<g>
			<path class="st10" d="M1296.1,385.8c5.6,0,5.6-8.7,0-8.7C1290.5,377.2,1290.5,385.8,1296.1,385.8L1296.1,385.8z"/>
		</g>
	</g>
	<g>
		<g>
			<path class="st10" d="M1277.5,408.4c5.6,0,5.6-8.7,0-8.7C1271.9,399.7,1271.9,408.4,1277.5,408.4L1277.5,408.4z"/>
		</g>
	</g>
	<g>
		<g>
			<path class="st10" d="M1278,394.4c5.6,0,5.6-8.7,0-8.7C1272.5,385.8,1272.5,394.4,1278,394.4L1278,394.4z"/>
		</g>
	</g>
	<g>
		<g>
			<path class="st10" d="M926.6,382.5c5.6,0,5.6-8.7,0-8.7C921,373.9,921,382.5,926.6,382.5L926.6,382.5z"/>
		</g>
	</g>
	<g>
		<g>
			<path class="st10" d="M920.3,368.2c5.6,0,5.6-8.7,0-8.7C914.7,359.5,914.7,368.2,920.3,368.2L920.3,368.2z"/>
		</g>
	</g>
	<g>
		<g>
			<path class="st10" d="M1261.9,382.5c5.6,0,5.6-8.7,0-8.7C1256.4,373.9,1256.3,382.5,1261.9,382.5L1261.9,382.5z"/>
		</g>
	</g>
	<g>
		<g>
			<path class="st10" d="M908.6,381.6c5.6,0,5.6-8.7,0-8.7C903,373,903,381.6,908.6,381.6L908.6,381.6z"/>
		</g>
	</g>
	<g>
		<g>
			<path class="st10" d="M971.8,394.4c5.6,0,5.6-8.7,0-8.7C966.2,385.8,966.2,394.4,971.8,394.4L971.8,394.4z"/>
		</g>
	</g>
	<g>
		<g>
			<path class="st10" d="M899.9,368.2c5.6,0,5.6-8.7,0-8.7C894.3,359.5,894.3,368.2,899.9,368.2L899.9,368.2z"/>
		</g>
	</g>
	<g>
		<g>
			<path class="st10" d="M945.9,376.6c5.6,0,5.6-8.7,0-8.7C940.3,367.9,940.3,376.6,945.9,376.6L945.9,376.6z"/>
		</g>
	</g>
	<g>
		<g>
			<path class="st10" d="M1194.6,368.2c5.6,0,5.6-8.7,0-8.7C1189,359.5,1189,368.2,1194.6,368.2L1194.6,368.2z"/>
		</g>
	</g>
	<g>
		<g>
			<path class="st10" d="M943.1,391.8c5.6,0,5.6-8.7,0-8.7C937.5,383.2,937.5,391.8,943.1,391.8L943.1,391.8z"/>
		</g>
	</g>
	<g>
		<g>
			<path class="st10" d="M881.9,368.2c5.6,0,5.6-8.7,0-8.7C876.3,359.5,876.3,368.2,881.9,368.2L881.9,368.2z"/>
		</g>
	</g>
	<g>
		<g>
			<path class="st10" d="M1176.6,371.3c5.6,0,5.6-8.7,0-8.7C1171,362.7,1171,371.3,1176.6,371.3L1176.6,371.3z"/>
		</g>
	</g>
	<g>
		<g>
			<path class="st10" d="M894.5,352.3c5.6,0,5.6-8.7,0-8.7C888.9,343.7,888.9,352.3,894.5,352.3L894.5,352.3z"/>
		</g>
	</g>
	<g>
		<g>
			<path class="st10" d="M878.1,352.3c5.6,0,5.6-8.7,0-8.7C872.5,343.7,872.5,352.3,878.1,352.3L878.1,352.3z"/>
		</g>
	</g>
	<g>
		<g>
			<path class="st10" d="M1154.3,374.4c5.6,0,5.6-8.7,0-8.7C1148.7,365.7,1148.7,374.4,1154.3,374.4L1154.3,374.4z"/>
		</g>
	</g>
	<g>
		<g>
			<path class="st10" d="M1134.9,381.6c5.6,0,5.6-8.7,0-8.7C1129.3,373,1129.3,381.6,1134.9,381.6L1134.9,381.6z"/>
		</g>
	</g>
	<g>
		<g>
			<path class="st10" d="M960.6,384.5c5.6,0,5.6-8.7,0-8.7C955,375.9,955,384.5,960.6,384.5L960.6,384.5z"/>
		</g>
	</g>
	<g>
		<g>
			<path class="st10" d="M1119.4,368.2c5.6,0,5.6-8.7,0-8.7C1113.8,359.5,1113.8,368.2,1119.4,368.2L1119.4,368.2z"/>
		</g>
	</g>
	<g>
		<g>
			<path class="st10" d="M863.6,352.3c5.6,0,5.6-8.7,0-8.7C858,343.7,858,352.3,863.6,352.3L863.6,352.3z"/>
		</g>
	</g>
	<g>
		<g>
			<path class="st10" d="M872.2,337.3c5.6,0,5.6-8.7,0-8.7C866.7,328.7,866.6,337.3,872.2,337.3L872.2,337.3z"/>
		</g>
	</g>
	<g>
		<g>
			<path class="st10" d="M857.2,336.3c5.6,0,5.6-8.7,0-8.7C851.7,327.7,851.6,336.3,857.2,336.3L857.2,336.3z"/>
		</g>
	</g>
	<g>
		<g>
			<path class="st10" d="M840.9,333.7c5.6,0,5.6-8.7,0-8.7C835.3,325,835.3,333.7,840.9,333.7L840.9,333.7z"/>
		</g>
	</g>
	<g>
		<g>
			<path class="st10" d="M855.2,321.7c5.6,0,5.6-8.7,0-8.7C849.7,313,849.6,321.7,855.2,321.7L855.2,321.7z"/>
		</g>
	</g>
	<g>
		<g>
			<path class="st10" d="M839.4,318.3c5.6,0,5.6-8.7,0-8.7C833.9,309.6,833.9,318.3,839.4,318.3L839.4,318.3z"/>
		</g>
	</g>
	<g>
		<g>
			<path class="st10" d="M825.3,322.3c5.6,0,5.6-8.7,0-8.7C819.7,313.7,819.7,322.3,825.3,322.3L825.3,322.3z"/>
		</g>
	</g>
	<g>
		<g>
			<path class="st10" d="M822.3,306.6c5.6,0,5.6-8.7,0-8.7C816.7,297.9,816.7,306.6,822.3,306.6L822.3,306.6z"/>
		</g>
	</g>
	<g>
		<g>
			<path class="st10" d="M839.9,302.6c5.6,0,5.6-8.7,0-8.7C834.3,293.9,834.3,302.6,839.9,302.6L839.9,302.6z"/>
		</g>
	</g>
	<g>
		<g>
			<path class="st10" d="M807.9,298.8c5.6,0,5.6-8.7,0-8.7C802.3,290.2,802.3,298.8,807.9,298.8L807.9,298.8z"/>
		</g>
	</g>
	<g>
		<g>
			<path class="st10" d="M794.7,282.2c5.6,0,5.6-8.7,0-8.7C789.1,273.5,789.1,282.2,794.7,282.2L794.7,282.2z"/>
		</g>
	</g>
	<g>
		<g>
			<path class="st10" d="M807.9,267.7c5.6,0,5.6-8.7,0-8.7C802.3,259,802.3,267.7,807.9,267.7L807.9,267.7z"/>
		</g>
	</g>
	<g>
		<g>
			<path class="st10" d="M799.2,255.1c5.6,0,5.6-8.7,0-8.7C793.7,246.4,793.6,255.1,799.2,255.1L799.2,255.1z"/>
		</g>
	</g>
	<g>
		<g>
			<path class="st10" d="M785.9,246.2c5.6,0,5.6-8.7,0-8.7C780.3,237.6,780.3,246.2,785.9,246.2L785.9,246.2z"/>
		</g>
	</g>
	<g>
		<g>
			<path class="st10" d="M783.9,229.9c5.6,0,5.6-8.7,0-8.7C778.3,221.2,778.3,229.9,783.9,229.9L783.9,229.9z"/>
		</g>
	</g>
	<g>
		<g>
			<path class="st10" d="M768.6,226.7c5.6,0,5.6-8.7,0-8.7C763,218,763,226.7,768.6,226.7L768.6,226.7z"/>
		</g>
	</g>
	<g>
		<g>
			<path class="st10" d="M768.6,210.3c5.6,0,5.6-8.7,0-8.7C763,201.6,763,210.3,768.6,210.3L768.6,210.3z"/>
		</g>
	</g>
	<g>
		<g>
			<path class="st10" d="M748.6,197.8c5.6,0,5.6-8.7,0-8.7C743,189.1,743,197.8,748.6,197.8L748.6,197.8z"/>
		</g>
	</g>
	<g>
		<g>
			<path class="st10" d="M827.3,292.4c5.6,0,5.6-8.7,0-8.7C821.7,283.7,821.7,292.4,827.3,292.4L827.3,292.4z"/>
		</g>
	</g>
	<g>
		<g>
			<path class="st10" d="M813.4,283.5c5.6,0,5.6-8.7,0-8.7C807.9,274.8,807.9,283.5,813.4,283.5L813.4,283.5z"/>
		</g>
	</g>
	<g>
		<g>
			<path class="st10" d="M789,267.7c5.6,0,5.6-8.7,0-8.7C783.4,259,783.4,267.7,789,267.7L789,267.7z"/>
		</g>
	</g>
	<g>
		<g>
			<path class="st10" d="M772.2,250.2c5.6,0,5.6-8.7,0-8.7C766.6,241.6,766.6,250.2,772.2,250.2L772.2,250.2z"/>
		</g>
	</g>
	<g>
		<g>
			<path class="st10" d="M756.4,234.9c5.6,0,5.6-8.7,0-8.7C750.8,226.2,750.8,234.9,756.4,234.9L756.4,234.9z"/>
		</g>
	</g>
	<g>
		<g>
			<path class="st10" d="M743.8,220.7c5.6,0,5.6-8.7,0-8.7C738.2,212,738.2,220.7,743.8,220.7L743.8,220.7z"/>
		</g>
	</g>
	<g>
		<g>
			<path class="st10" d="M755,211.4c5.6,0,5.6-8.7,0-8.7C749.4,202.8,749.4,211.4,755,211.4L755,211.4z"/>
		</g>
	</g>
	<g>
		<g>
			<path class="st10" d="M739.3,205.9c5.6,0,5.6-8.7,0-8.7C733.7,197.2,733.7,205.9,739.3,205.9L739.3,205.9z"/>
		</g>
	</g>
	<path class="st11" d="M736.8,236.3c-0.4-2.1-3-29.5-6.4-40.4c-0.2-1.2,26.8-6.4,43.5,56.7c3.3,12.4,7.7,25,18.8,41.8
		c-19.4-19.7-29.2-52.4-38.3-58.2C746.8,231.4,738.2,235.5,736.8,236.3z"/>
	<g>
		<g>
			<path class="st10" d="M1167.8,359.4c5.6,0,5.6-8.7,0-8.7C1162.2,350.8,1162.2,359.4,1167.8,359.4L1167.8,359.4z"/>
		</g>
	</g>
	<g>
		<g>
			<path class="st10" d="M979.9,381.6c5.6,0,5.6-8.7,0-8.7C974.3,373,974.3,381.6,979.9,381.6L979.9,381.6z"/>
		</g>
	</g>
	<g>
		<g>
			<path class="st10" d="M989.9,394.4c5.6,0,5.6-8.7,0-8.7C984.3,385.8,984.3,394.4,989.9,394.4L989.9,394.4z"/>
		</g>
	</g>
	<g>
		<g>
			<path class="st10" d="M999.8,384.5c5.6,0,5.6-8.7,0-8.7C994.2,375.9,994.2,384.5,999.8,384.5L999.8,384.5z"/>
		</g>
	</g>
	<g>
		<g>
			<path class="st10" d="M1012.6,394.4c5.6,0,5.6-8.7,0-8.7C1007,385.8,1007,394.4,1012.6,394.4L1012.6,394.4z"/>
		</g>
	</g>
	<g>
		<g>
			<path class="st10" d="M1024.8,380.7c5.6,0,5.6-8.7,0-8.7C1019.2,372,1019.2,380.7,1024.8,380.7L1024.8,380.7z"/>
		</g>
	</g>
	<g>
		<g>
			<path class="st10" d="M1035.9,390.8c5.6,0,5.6-8.7,0-8.7C1030.3,382.2,1030.3,390.8,1035.9,390.8L1035.9,390.8z"/>
		</g>
	</g>
	<g>
		<g>
			<path class="st10" d="M1045.1,376.6c5.6,0,5.6-8.7,0-8.7C1039.5,367.9,1039.5,376.6,1045.1,376.6L1045.1,376.6z"/>
		</g>
	</g>
	<g>
		<g>
			<path class="st10" d="M1053.9,388.4c5.6,0,5.6-8.7,0-8.7C1048.3,379.7,1048.3,388.4,1053.9,388.4L1053.9,388.4z"/>
		</g>
	</g>
	<g>
		<g>
			<path class="st10" d="M1062.6,374.4c5.6,0,5.6-8.7,0-8.7C1057,365.7,1057,374.4,1062.6,374.4L1062.6,374.4z"/>
		</g>
	</g>
	<g>
		<g>
			<path class="st10" d="M1071.2,386.5c5.6,0,5.6-8.7,0-8.7C1065.7,377.9,1065.6,386.5,1071.2,386.5L1071.2,386.5z"/>
		</g>
	</g>
	<g>
		<g>
			<path class="st10" d="M1083.9,374.4c5.6,0,5.6-8.7,0-8.7C1078.3,365.7,1078.3,374.4,1083.9,374.4L1083.9,374.4z"/>
		</g>
	</g>
	<g>
		<g>
			<path class="st10" d="M1216.2,368.2c5.6,0,5.6-8.7,0-8.7C1210.6,359.5,1210.6,368.2,1216.2,368.2L1216.2,368.2z"/>
		</g>
	</g>
	<g>
		<g>
			<path class="st10" d="M1241.2,371.3c5.6,0,5.6-8.7,0-8.7C1235.7,362.7,1235.6,371.3,1241.2,371.3L1241.2,371.3z"/>
		</g>
	</g>
	<g>
		<g>
			<path class="st10" d="M1207.9,352.3c5.6,0,5.6-8.7,0-8.7C1202.3,343.7,1202.3,352.3,1207.9,352.3L1207.9,352.3z"/>
		</g>
	</g>
	<g>
		<g>
			<path class="st10" d="M1226.5,355.4c5.6,0,5.6-8.7,0-8.7C1220.9,346.8,1220.9,355.4,1226.5,355.4L1226.5,355.4z"/>
		</g>
	</g>
	<g>
		<g>
			<path class="st10" d="M1241.2,350c5.6,0,5.6-8.7,0-8.7C1235.7,341.3,1235.6,350,1241.2,350L1241.2,350z"/>
		</g>
	</g>
	<g>
		<g>
			<path class="st10" d="M1257.8,363.4c5.6,0,5.6-8.7,0-8.7C1252.2,354.8,1252.2,363.4,1257.8,363.4L1257.8,363.4z"/>
		</g>
	</g>
	<g>
		<g>
			<path class="st10" d="M1266.5,350c5.6,0,5.6-8.7,0-8.7C1260.9,341.3,1260.9,350,1266.5,350L1266.5,350z"/>
		</g>
	</g>
	<g>
		<g>
			<path class="st10" d="M1273.1,369.4c5.6,0,5.6-8.7,0-8.7C1267.5,360.8,1267.5,369.4,1273.1,369.4L1273.1,369.4z"/>
		</g>
	</g>
	<g>
		<g>
			<path class="st10" d="M1285.9,355.4c5.6,0,5.6-8.7,0-8.7C1280.3,346.8,1280.3,355.4,1285.9,355.4L1285.9,355.4z"/>
		</g>
	</g>
	<g>
		<g>
			<path class="st10" d="M1290.1,369.4c5.6,0,5.6-8.7,0-8.7C1284.6,360.8,1284.6,369.4,1290.1,369.4L1290.1,369.4z"/>
		</g>
	</g>
	<g>
		<g>
			<path class="st10" d="M1307.9,371.3c5.6,0,5.6-8.7,0-8.7C1302.3,362.7,1302.3,371.3,1307.9,371.3L1307.9,371.3z"/>
		</g>
	</g>
</g>
</svg>
