<?xml version="1.0" encoding="utf-8"?>
<!-- Generator: Adobe Illustrator 19.2.1, SVG Export Plug-In . SVG Version: 6.00 Build 0)  -->
<svg version="1.1" id="Capa_1" xmlns="http://www.w3.org/2000/svg" xmlns:xlink="http://www.w3.org/1999/xlink" x="0px" y="0px"
	 viewBox="0 0 581.8 428.4" style="enable-background:new 0 0 581.8 428.4;" xml:space="preserve">
<style type="text/css">
	.st0{fill:#F7AC3B;}
	.st1{fill:#ED5A24;}
	.st2{fill:#F8EA21;}
	.st3{fill:#FFFFFF;}
	.st4{fill:#1D1D1B;}
	.st5{fill:#FF41D2;}
	.st6{fill:#65C4CC;}
	.st7{fill:#00FFFF;}
	.st8{clip-path:url(#SVGID_2_);fill:#E2E2E2;}
	.st9{clip-path:url(#SVGID_2_);fill:none;stroke:#FFFF00;stroke-width:0.989;stroke-miterlimit:10;}
	.st10{fill:none;stroke:#FFFF00;stroke-width:2;stroke-miterlimit:10;}
	.st11{clip-path:url(#SVGID_4_);fill:#E2E2E2;}
</style>
<g>
	<path class="st0" d="M115.7,426.5c17-137.4,74.6-341,183.1-350.8C437.1,72.7,503.4,294,524.5,426"/>
	<path class="st1" d="M229.1,168.2c-7.1,8.2-68-63.6-29.8-122.2c15.1,54.5,60.6,83.5,60.6,83.5S237.3,144.6,229.1,168.2"/>
	<path class="st1" d="M410.1,152.8c6.4,6.7,55.3-56.6,20.7-104.9c-10.8,46.9-48.3,73.2-48.3,73.2S402.2,133.1,410.1,152.8"/>
	<path class="st2" d="M294.9,85.5c-3.7,0.7-7.3,1.9-10.6,3.8c-1.9,1.1-0.1,4.1,1.8,2.9c3-1.8,6.3-2.8,9.7-3.5
		C298.1,88.4,297.1,85.1,294.9,85.5"/>
	<path class="st2" d="M272.4,95.1c-3.2,0.7-6.1,2.1-8.9,3.8c-1.9,1.2-0.1,4.1,1.8,2.9c2.5-1.6,5.1-2.7,8-3.4
		C275.5,97.9,274.5,94.6,272.4,95.1"/>
	<path class="st2" d="M250.3,108c-0.9,1-1.9,1.9-2.8,2.9c-1.5,1.6,1,4,2.5,2.4c0.9-1,1.9-1.9,2.8-2.9
		C254.4,108.8,251.9,106.4,250.3,108"/>
	<path class="st2" d="M295.9,103.7c-2.7,1.1-5.6,1.8-8.5,2.5c-2.2,0.5-1.2,3.8,1,3.3c2.9-0.6,5.7-1.3,8.5-2.5
		C298.9,106.2,297.9,102.8,295.9,103.7"/>
	<path class="st2" d="M270.7,112.4c-2.3,1.3-4.1,3.1-5.9,4.9c-1.5,1.6,1,4,2.5,2.4c1.6-1.7,3.2-3.3,5.2-4.4
		C274.4,114.2,272.6,111.3,270.7,112.4"/>
	<path class="st2" d="M205.8,161c-1.1,1.7-2.7,2.9-3.9,4.6c-1.2,1.9,1.8,3.5,3,1.7c1.1-1.7,2.7-2.9,3.9-4.6
		C210.1,160.8,207,159.2,205.8,161"/>
	<path class="st2" d="M195.3,180.4c-0.5,2.1-1.4,4-2.8,5.5c-1.5,1.6,1,4,2.5,2.4c1.8-2,3.1-4.4,3.7-7.1
		C199.1,179.1,195.8,178.2,195.3,180.4"/>
	<path class="st2" d="M188,203.4c-2.1,1.6-2.8,3.8-3.5,6.2c-0.6,2.1,2.7,3,3.4,0.8c0.4-1.4,0.7-3.2,2-4.1
		C191.6,205,189.8,202,188,203.4"/>
	<path class="st2" d="M177.2,227c-1.1,2.4-2.2,4.7-2.9,7.3c-0.5,2.2,2.8,3,3.4,0.8c0.6-2.3,1.5-4.4,2.5-6.5
		C181.1,226.6,178.1,225,177.2,227"/>
	<path class="st2" d="M167.5,250.5c-1.4,2-2.8,4.1-3.8,6.3c-1,2,2.1,3.7,3,1.7c1.1-2.2,2.4-4.3,3.8-6.3c0.5-0.8,0.1-1.9-0.7-2.3
		C168.9,249.3,168,249.7,167.5,250.5"/>
	<path class="st2" d="M158.8,277.2c-0.5,1.7-0.5,3.4-1,5.1c-0.6,2.1,2.8,3,3.4,0.8c0.5-1.7,0.5-3.5,1-5.1
		C162.7,275.9,159.4,275.1,158.8,277.2"/>
	<path class="st2" d="M153.3,301.9c-1.2,1.9-1.8,4-2.3,6.1c-0.5,2.2,2.8,3,3.3,0.8c0.4-1.9,1-3.7,2-5.3
		C157.5,301.7,154.4,300,153.3,301.9"/>
	<path class="st2" d="M145.1,328.5c0,1.2,0.2,2.6-0.3,3.7c-0.4,0.9-0.2,1.9,0.7,2.4c0.7,0.4,2,0.2,2.3-0.7c0.7-1.7,0.7-3.6,0.7-5.4
		C148.5,326.2,145,326.3,145.1,328.5"/>
	<path class="st2" d="M138.3,350.4c-0.6,2.2-0.5,4.5-0.5,6.7c0,2.2,3.5,2.2,3.5-0.1c0-1.9-0.2-3.9,0.4-5.8
		C142.2,349.1,138.9,348.2,138.3,350.4"/>
	<path class="st2" d="M142.9,374.3c1.2,1.7,2.3,3.4,3.5,5c1.3,1.8,4.2,0,2.9-1.8c-1.2-1.7-2.3-3.4-3.5-5
		C144.6,370.7,141.7,372.5,142.9,374.3"/>
	<path class="st2" d="M153.1,397.4c1.3,2.4,2.3,4.9,3.6,7.3c1,2,4,0.2,2.9-1.8c-1.3-2.4-2.3-4.9-3.6-7.3
		C155,393.6,152.1,395.4,153.1,397.4"/>
	<path class="st2" d="M164.4,419.3c1.2,2.2,2.7,4.1,4.1,6.2c1.3,1.8,4.2,0,2.9-1.8c-1.4-2-2.9-4-4.1-6.2
		C166.3,415.5,163.3,417.3,164.4,419.3"/>
	<path class="st2" d="M133.2,378.3c-0.5,1.9-0.5,3.8-1,5.7c-0.6,2.1,2.8,3,3.4,0.8c0.5-1.9,0.5-3.8,1-5.7
		C137.2,377,133.8,376.2,133.2,378.3"/>
	<path class="st2" d="M128.1,403.2c0.4,1.3,0.6,2.7,0.6,4.1c0.1,2.2,3.5,2.1,3.5-0.1c0-1.7-0.2-3.4-0.7-5
		C130.7,400.1,127.4,401.1,128.1,403.2"/>
	<path class="st2" d="M137.9,414.4l0.1,5.7c0.1,2.2,3.5,2.2,3.5-0.1l-0.1-5.7C141.3,412.1,137.9,412.2,137.9,414.4"/>
	<path class="st2" d="M156.1,348.5c0.5-1.1,0.6-2.3,1.1-3.4c0.4-0.9,0.2-1.9-0.7-2.4c-0.7-0.4-2-0.2-2.4,0.7
		c-0.5,1.1-0.6,2.3-1.1,3.4c-0.4,0.9-0.2,1.9,0.7,2.4C154.5,349.6,155.8,349.3,156.1,348.5"/>
	<path class="st2" d="M161,328.6c0.5-2.6,1.4-5.2,2.5-7.6c0.9-2-2.1-3.7-3-1.7c-1.3,2.7-2.3,5.5-2.8,8.4
		C157.2,330,160.6,330.8,161,328.6"/>
	<path class="st2" d="M169.3,299.9c0.5-1.3,0.5-2.7,1-4c0.4-0.9,0.2-1.9-0.7-2.4c-0.7-0.4-2-0.2-2.4,0.7c-0.5,1.3-0.5,2.7-1,4
		c-0.4,0.9-0.2,1.9,0.7,2.4C167.7,301,168.9,300.7,169.3,299.9"/>
	<path class="st2" d="M175.8,278.9c0.9-3,2-6,2.6-9.1c0.4-2.2-2.9-3-3.4-0.9c-0.6,3.1-1.7,6.1-2.6,9.1
		C171.8,280.2,175.1,281,175.8,278.9"/>
	<path class="st2" d="M184.1,253c1.8-1.3,2.8-2.9,3.5-5.1c0.7-2.1-2.7-3-3.4-0.8c-0.4,1.2-0.9,2.2-2,3
		C180.5,251.4,182.3,254.3,184.1,253"/>
	<path class="st2" d="M190.4,230.2c1.5-1.1,2.9-2.4,4.5-3.5c1.8-1.3,0-4.2-1.8-2.9c-1.5,1.1-2.9,2.4-4.5,3.5
		C186.8,228.5,188.6,231.5,190.4,230.2"/>
	<path class="st2" d="M201,205.2c2.1-2.2,3.5-4.7,4.3-7.7c0.5-2.2-2.8-3-3.4-0.8c-0.6,2.4-1.7,4.3-3.4,6.1
		C197,204.5,199.5,206.9,201,205.2"/>
	<path class="st2" d="M215.1,180.9c0.6-2,0.5-4.1,0.5-6.2c0-2.2-3.5-2.1-3.5,0.1c0,1.8,0.1,3.5-0.4,5.2
		C211.1,182.2,214.5,183,215.1,180.9"/>
	<path class="st2" d="M281.4,126.1c2.1-0.5,4.2-0.6,6.2-1.3c2.1-0.7,1.1-4-1-3.3c-2,0.7-4.2,0.7-6.2,1.3
		C278.2,123.3,279.2,126.6,281.4,126.1"/>
	<path class="st2" d="M258.9,142.9c2.4-1.6,4.8-3.4,7.4-4.5c2-0.9,1-4.2-1-3.3c-3,1.3-5.5,3.2-8.3,4.9
		C255.2,141.1,257,144.1,258.9,142.9"/>
	<path class="st2" d="M242.2,159.2c2-1.1,3.7-2.7,5.6-4.1c1.8-1.3,0-4.2-1.8-2.9c-1.9,1.3-3.5,3-5.6,4.1
		C238.4,157.3,240.2,160.2,242.2,159.2"/>
	<path class="st2" d="M217.6,200c1.5-2,3.5-3.6,5.3-5.4c1.6-1.6-0.9-4-2.5-2.4c-2,2-4.1,3.9-5.8,6.2c-0.6,0.8-0.1,1.9,0.7,2.4
		C216.1,201.2,217,200.7,217.6,200"/>
	<path class="st2" d="M212.1,216.5c-0.5,1.1-1.1,2.3-1.6,3.4c-0.9,2,2.1,3.7,3,1.7c0.5-1.1,1.1-2.3,1.6-3.4
		C216.1,216.2,213.1,214.5,212.1,216.5"/>
	<path class="st2" d="M234.4,181c1-2.9,3.4-4.9,5.9-6.5c1.9-1.2,0.1-4.1-1.8-2.9c-3.3,2.1-6.1,4.8-7.4,8.6
		C230.3,182.3,233.7,183.1,234.4,181"/>
	<path class="st2" d="M258.5,161.9c2-2.1,3.9-4,6.3-5.6c1.9-1.2,0.1-4.2-1.8-2.9c-2.6,1.7-4.9,3.8-7,6.1
		C254.5,161.1,257,163.5,258.5,161.9"/>
	<path class="st2" d="M280.5,144.1c2-1.1,4.2-1.5,6.5-1.6c2.2-0.1,2.2-3.5-0.1-3.5c-2.9,0.1-5.6,0.8-8.2,2.1
		C276.7,142.2,278.5,145.1,280.5,144.1"/>
	<path class="st2" d="M299.6,137.4c1.2,0.5,2.4,0.7,3.7,0.7c2.2,0,2.2-3.5-0.1-3.5c-0.7,0-1.3,0-2-0.3c-0.9-0.4-1.9-0.2-2.4,0.7
		C298.5,135.8,298.7,137.1,299.6,137.4"/>
	<path class="st2" d="M297.8,121.9c0.5,0.4,1.2,0.7,1.7,1.1c1.7,1.4,4.1-1.1,2.4-2.5c-0.5-0.4-1.2-0.7-1.7-1.1
		C298.4,118,296,120.5,297.8,121.9"/>
	<path class="st2" d="M294.5,153.6c2.4-0.9,4.5-0.6,6.6,0.8c1.8,1.2,3.5-1.8,1.7-3c-2.8-1.9-6.1-2.3-9.3-1.1
		C291.4,151.1,292.4,154.4,294.5,153.6"/>
	<path class="st2" d="M273.4,165.6c1.5-1.5,3.4-2.5,5.4-3.1c2.1-0.6,1.1-3.9-1-3.3c-2.6,0.8-5,2.1-6.9,4
		C269.3,164.8,271.8,167.2,273.4,165.6"/>
	<path class="st2" d="M249,184c1.6-1.1,3.4-1.9,5-3c1.8-1.2,0-4.2-1.8-2.9c-1.6,1.1-3.4,1.9-5,3C245.3,182.3,247.1,185.2,249,184"/>
	<path class="st2" d="M234.2,198.2c1.8-0.1,3.4-1,4.3-2.7c1.1-2-2-3.6-3-1.7c-0.3,0.6-0.7,0.8-1.3,0.9
		C232,194.9,232,198.3,234.2,198.2"/>
	<path class="st2" d="M267.3,180.9c2.5-0.6,4.9-1.2,7.3-1.9c2.1-0.6,1.2-3.9-1-3.3c-2.4,0.7-4.9,1.3-7.3,1.9
		C264.1,178.1,265.1,181.4,267.3,180.9"/>
	<path class="st2" d="M288.6,171.4c2.1-0.5,4.2-0.6,6.3-0.6c2.2,0,2.2-3.5-0.1-3.5c-2.4,0.1-4.9,0.2-7.3,0.8
		C285.5,168.6,286.5,171.9,288.6,171.4"/>
	<path class="st2" d="M308,171.1c0.6,0.7,1.1,1.5,1.7,2.2c1.5,1.6,3.9-0.9,2.4-2.5c-0.6-0.7-1.1-1.5-1.8-2.2
		C308.8,166.9,306.4,169.4,308,171.1"/>
	<path class="st2" d="M200.9,236.9c-1.7,1.8-2.8,4-4.1,6.1c-1.2,1.9,1.9,3.6,3,1.7c1.2-1.8,2.1-3.8,3.6-5.4
		C204.9,237.6,202.4,235.2,200.9,236.9"/>
	<path class="st2" d="M187.4,262.3c0,1.1-0.4,2.2-0.8,3.1c-0.9,2,2.1,3.7,3,1.7c0.7-1.5,1.2-3.2,1.3-4.9
		C190.9,260,187.4,260,187.4,262.3"/>
	<path class="st2" d="M185.1,284.6c-0.6,1.9-1.5,3.8-2.1,5.7c-0.7,2.1,2.7,3,3.4,0.8c0.6-1.9,1.5-3.8,2.1-5.7
		C189.1,283.3,185.8,282.5,185.1,284.6"/>
	<path class="st2" d="M180.4,305c0,2-0.9,3.8-1.9,5.4c-1.2,1.9,1.9,3.6,3,1.7c1.4-2.2,2.3-4.6,2.4-7.2
		C183.8,302.7,180.4,302.8,180.4,305"/>
	<path class="st2" d="M172.7,332.1c-1.1,1.9-1.7,4.1-2.3,6.1c-0.6,2.1,2.7,3,3.4,0.8c0.6-1.8,1-3.7,2-5.3
		C176.9,331.9,173.8,330.2,172.7,332.1"/>
	<path class="st2" d="M162.9,354.5c-1.1,2.2-2.3,4.3-2.9,6.7c-0.5,2.2,2.8,3,3.4,0.8c0.5-2.1,1.6-4,2.5-5.9
		C166.9,354.2,163.9,352.5,162.9,354.5"/>
	<path class="st2" d="M163.2,377c0,0.9,0.1,1.7-0.3,2.5c-0.4,0.9-0.2,1.9,0.7,2.4c0.7,0.4,2,0.2,2.3-0.7c0.6-1.4,0.7-2.8,0.7-4.3
		C166.6,374.7,163.2,374.7,163.2,377"/>
	<path class="st2" d="M179.7,351.1c-1.1,3-2.1,6.1-3.2,9.2c-0.8,2.1,2.6,2.9,3.4,0.8c1.1-3,2.1-6.1,3.2-9.2
		C183.9,349.9,180.5,349.1,179.7,351.1"/>
	<path class="st2" d="M188.2,324.7c0,1.6-0.5,3.1-1,4.7c-0.7,2.1,2.7,3,3.4,0.8c0.6-1.8,1.1-3.7,1.1-5.6
		C191.6,322.4,188.2,322.5,188.2,324.7"/>
	<path class="st2" d="M194.9,344c-0.5,2.3-1,4.6-1.6,6.8c-0.5,2.2,2.9,3,3.4,0.8c0.5-2.3,1-4.6,1.6-6.8
		C198.8,342.7,195.4,341.8,194.9,344"/>
	<path class="st2" d="M168.7,392.9c-0.4,1.9-1,3.8-1.6,5.7c-0.7,2.1,2.7,3,3.4,0.8c0.6-1.9,1.1-3.8,1.6-5.7
		C172.6,391.5,169.2,390.7,168.7,392.9"/>
	<path class="st2" d="M186.4,370.9c-1.1,3.4-2.1,6.9-3.2,10.3c-0.7,2.1,2.7,3,3.4,0.8c1.1-3.4,2.1-6.9,3.2-10.3
		C190.4,369.6,187.1,368.8,186.4,370.9"/>
	<path class="st2" d="M201.6,361.8c0.4,1.7,0.6,3.4-0.3,4.9c-1.1,1.9,1.9,3.6,3,1.7c1.4-2.3,1.2-5,0.6-7.6
		C204.3,358.7,201,359.6,201.6,361.8"/>
	<path class="st2" d="M196.4,383.5c0.5,2.6-0.1,5.2-1,7.6c-0.8,2.1,2.6,2.9,3.4,0.8c1.1-3.1,1.6-6.2,0.9-9.5
		C199.3,380.3,195.9,381.3,196.4,383.5"/>
	<path class="st2" d="M181.9,399.3c0,2.2-0.5,4.3-0.9,6.4c-0.5,2.2,2.9,3,3.4,0.8c0.5-2.4,1-4.8,1-7.3
		C185.3,397,181.9,397,181.9,399.3"/>
	<path class="st2" d="M193,413.2l0.1,5.1c0,2.2,3.5,2.1,3.5-0.1l-0.1-5.1C196.4,410.9,192.9,411,193,413.2"/>
	<path class="st2" d="M180.1,420.3l0.1,2.3c0,2.2,3.5,2.2,3.5-0.1l0-2.3C183.5,418,180,418.1,180.1,420.3"/>
	<path class="st2" d="M211.6,379.8c0.5,1.4,0.5,2.7,0.1,4.2c-0.6,2.1,2.8,3,3.4,0.8c0.6-2,0.5-4-0.1-6
		C214.2,376.7,210.9,377.6,211.6,379.8"/>
	<path class="st2" d="M205.7,398.7c0.1,2.9,0.1,5.8-0.3,8.6c-0.4,2.2,3,3,3.4,0.8c0.5-3.2,0.5-6.4,0.4-9.6
		C209.1,396.4,205.7,396.5,205.7,398.7"/>
	<path class="st2" d="M214.1,412.1c0,2.4-0.9,4.4-1.9,6.6c-0.9,2,2.1,3.7,3,1.7c1.3-2.7,2.3-5.3,2.3-8.3
		C217.6,409.8,214.2,409.9,214.1,412.1"/>
	<path class="st2" d="M222.8,399c-0.5,1.7-0.5,3.5-1,5.1c-0.6,2.1,2.8,3,3.4,0.8c0.5-1.7,0.5-3.5,1-5.1
		C226.8,397.7,223.4,396.9,222.8,399"/>
	<path class="st2" d="M230.4,412.9c-1.9,2.1-2.6,4.7-2.6,7.5c0,2.2,3.5,2.2,3.5-0.1c0-1.9,0.4-3.6,1.7-5.1
		C234.4,413.6,231.9,411.2,230.4,412.9"/>
	<path class="st2" d="M235.4,403.2c2.2,0,2.2-3.5-0.1-3.5C233.1,399.8,233.2,403.3,235.4,403.2"/>
	<path class="st2" d="M245.2,409.2c-0.1,0.7-0.5,1.5-0.5,2.3c-0.2,2.2,3.3,2.1,3.5-0.1c0-0.7,0.5-1.5,0.5-2.3
		C248.8,406.9,245.3,407,245.2,409.2"/>
	<path class="st2" d="M255.5,412.3c0,2.1,0.1,4.3-0.4,6.4c-0.5,2.2,2.9,3,3.4,0.8c0.5-2.4,0.5-4.8,0.5-7.3
		C258.9,410,255.4,410.1,255.5,412.3"/>
	<path class="st2" d="M341.3,91.9c3.4,0.5,6.8,1.4,9.9,3c2,1.1,3.6-2,1.7-3c-3.3-1.8-7-2.8-10.7-3.3C340,88.2,339.1,91.6,341.3,91.9
		"/>
	<path class="st2" d="M364.2,100.5c2.9,0.6,5.6,1.6,8.2,3.1c1.9,1.1,3.6-1.9,1.7-3c-2.8-1.6-5.8-2.8-9-3.4
		C362.9,96.7,362,100.1,364.2,100.5"/>
	<path class="st2" d="M385.3,111.5c1,0.9,1.9,1.9,2.9,2.8c1.6,1.5,4-1,2.4-2.5c-1-0.9-1.9-1.9-2.9-2.8
		C386.1,107.5,383.7,110,385.3,111.5"/>
	<path class="st2" d="M341.1,110.1c2.8,1,5.7,1.6,8.6,2.1c2.2,0.4,3-3,0.8-3.4c-2.9-0.5-5.8-1.1-8.6-2.1
		C339.9,106,339.1,109.3,341.1,110.1"/>
	<path class="st2" d="M365.9,117.3c2.1,1,3.7,2.6,5.4,4.1c1.6,1.5,4-1,2.4-2.5c-1.9-1.8-3.8-3.5-6.1-4.7
		C365.6,113.3,363.9,116.3,365.9,117.3"/>
	<path class="st2" d="M495.4,343.2c-0.5-1.1-0.7-2.3-1.2-3.4c-0.4-0.8-1.6-1-2.4-0.6c-0.9,0.5-1,1.5-0.6,2.4
		c0.5,1.1,0.7,2.3,1.2,3.4c0.4,0.8,1.6,1,2.4,0.6C495.7,345.1,495.8,344.1,495.4,343.2"/>
	<path class="st2" d="M490,324.5c-0.7-2.9-1.8-5.6-3.2-8.3c-1-2-4-0.2-2.9,1.8c1.2,2.4,2.2,4.9,2.8,7.5
		C487.2,327.6,490.5,326.6,490,324.5"/>
	<path class="st2" d="M480.1,295.3c-0.6-1.2-0.6-2.7-1.2-4c-0.4-0.9-1.6-1-2.4-0.6c-0.9,0.5-1,1.5-0.6,2.4c0.6,1.2,0.6,2.7,1.2,3.9
		c0.4,0.9,1.6,1,2.4,0.6C480.4,297.2,480.5,296.1,480.1,295.3"/>
	<path class="st2" d="M473,275.4c-1.1-3-2.3-5.9-3-9c-0.5-2.2-3.8-1.2-3.3,1c0.7,3.1,2,6,3,9C470.5,278.5,473.8,277.5,473,275.4"/>
	<path class="st2" d="M462,247.9c-1.1-0.7-1.7-1.7-2.1-2.9c-0.8-2.1-4.1-1.1-3.3,1c0.8,2.1,1.8,3.7,3.7,4.9
		C462.2,252.2,463.8,249.2,462,247.9"/>
	<path class="st2" d="M454.7,225.4c-1.6-1-3-2.3-4.6-3.3c-1.9-1.2-3.5,1.8-1.7,3c1.6,1,3,2.3,4.6,3.3
		C454.9,229.6,456.5,226.6,454.7,225.4"/>
	<path class="st2" d="M443.7,201.5c-1.7-1.7-3-3.6-3.7-6c-0.6-2.1-3.9-1.2-3.3,1c0.8,2.9,2.4,5.4,4.6,7.5
		C442.9,205.5,445.3,203,443.7,201.5"/>
	<path class="st2" d="M429.4,179.3c-0.6-1.7-0.6-3.4-0.6-5.2c0-2.2-3.5-2.2-3.5,0.1c0,2,0.1,4.2,0.8,6.1
		C426.8,182.4,430.1,181.4,429.4,179.3"/>
	<path class="st2" d="M358.3,125.1c-2.1-0.4-4.2-0.4-6.3-1c-2.1-0.6-3,2.8-0.8,3.4c2,0.6,4.2,0.6,6.3,1
		C359.6,128.9,360.5,125.6,358.3,125.1"/>
	<path class="st2" d="M382.4,141.2c-2.8-1.6-5.5-3.4-8.5-4.5c-2.1-0.8-2.9,2.6-0.8,3.4c2.7,1.1,5.1,2.8,7.6,4.2
		C382.6,145.4,384.3,142.3,382.4,141.2"/>
	<path class="st2" d="M399.7,156.7c-2.1-1-3.8-2.6-5.8-3.8c-1.9-1.2-3.5,1.8-1.7,3c1.9,1.3,3.7,2.8,5.8,3.8
		C400.1,160.7,401.7,157.7,399.7,156.7"/>
	<path class="st2" d="M427.4,197.6c-1.8-2.2-4-3.9-6.1-5.9c-1.6-1.5-4,1-2.4,2.5c1.8,1.7,3.9,3.2,5.5,5.2c0.6,0.7,1.5,1.1,2.4,0.6
		C427.6,199.6,428,198.4,427.4,197.6"/>
	<path class="st2" d="M427.7,217.6c0.6,1.1,1.2,2.2,1.8,3.4c1,2,4,0.1,2.9-1.8c-0.6-1.1-1.2-2.2-1.8-3.4
		C429.6,213.8,426.7,215.6,427.7,217.6"/>
	<path class="st2" d="M410.1,180.3c-1.4-3.8-4.4-6.3-7.8-8.2c-1.9-1.1-3.6,1.9-1.7,3c2.6,1.5,5.1,3.3,6.2,6.2
		C407.6,183.3,411,182.3,410.1,180.3"/>
	<path class="st2" d="M384.3,160.8c-2.3-2.2-4.6-4.2-7.3-5.8c-1.9-1.1-3.6,1.9-1.7,3c2.5,1.4,4.5,3.3,6.6,5.3
		C383.5,164.8,385.9,162.3,384.3,160.8"/>
	<path class="st2" d="M360.8,143.4c-2.7-1.2-5.4-1.8-8.3-1.8c-2.2,0-2.2,3.5,0.1,3.5c2.3,0,4.4,0.4,6.5,1.3
		C361.2,147.3,362.8,144.3,360.8,143.4"/>
	<path class="st2" d="M337.9,137.7c-0.6,0.3-1.3,0.4-2,0.4c-2.2,0.1-2.2,3.5,0.1,3.5c1.3,0,2.5-0.3,3.7-0.9c0.9-0.4,1-1.6,0.6-2.4
		C339.8,137.4,338.8,137.3,337.9,137.7"/>
	<path class="st2" d="M338.4,122.6c-0.5,0.4-1.2,0.7-1.7,1.2c-1.7,1.5,0.8,3.9,2.5,2.4c0.5-0.4,1.2-0.7,1.7-1.2
		C342.5,123.5,340,121.1,338.4,122.6"/>
	<path class="st2" d="M346.4,153.2c-3.2-1.1-6.5-0.5-9.2,1.5c-1.8,1.3,0,4.3,1.8,2.9c2-1.5,4.2-1.9,6.6-1.1
		C347.7,157.3,348.5,153.9,346.4,153.2"/>
	<path class="st2" d="M369.6,165.1c-2-1.9-4.5-3.1-7.1-3.7c-2.2-0.5-3,2.8-0.8,3.4c2.1,0.5,4,1.4,5.5,2.8
		C368.9,169.1,371.2,166.6,369.6,165.1"/>
	<path class="st2" d="M407.7,195c-0.6,0-1-0.3-1.4-0.8c-1.1-1.9-4.1-0.1-2.9,1.8c1,1.6,2.5,2.4,4.4,2.5
		C410,198.5,409.9,195,407.7,195"/>
	<path class="st2" d="M353.1,170.7c-2.4-0.5-4.8-0.5-7.3-0.5c-2.2,0-2.1,3.5,0.1,3.5c2.1,0,4.3-0.1,6.4,0.4
		C354.4,174.5,355.2,171.1,353.1,170.7"/>
	<path class="st2" d="M330.4,172.2c-0.6,0.7-1,1.6-1.7,2.3c-1.5,1.7,1,4.1,2.5,2.4c0.6-0.7,1-1.6,1.7-2.3
		C334.4,172.9,331.9,170.5,330.4,172.2"/>
	<path class="st2" d="M440.4,238.1c1.6,1.5,2.6,3.5,3.8,5.2c1.3,1.8,4.2,0,2.9-1.8c-1.4-2-2.6-4.2-4.4-5.9
		C441.2,234,438.8,236.5,440.4,238.1"/>
	<path class="st2" d="M454,260.4c0.1,1.7,0.7,3.3,1.5,4.8c1,2,3.9,0.2,2.9-1.8c-0.5-0.9-0.9-2-1-3.1
		C457.3,258.1,453.8,258.2,454,260.4"/>
	<path class="st2" d="M457.4,283.5c0.7,1.9,1.7,3.7,2.4,5.6c0.8,2.1,4.1,1.1,3.3-1c-0.7-1.9-1.7-3.7-2.4-5.6
		C459.9,280.4,456.6,281.4,457.4,283.5"/>
	<path class="st2" d="M462.9,302.8c0.1,2.6,1.2,4.9,2.7,7.1c1.3,1.8,4.2,0,2.9-1.8c-1.1-1.6-2.1-3.3-2.2-5.3
		C466.2,300.5,462.8,300.6,462.9,302.8"/>
	<path class="st2" d="M472.3,331.3c1.1,1.6,1.6,3.4,2.2,5.2c0.7,2.1,4.1,1.1,3.3-1c-0.7-2.1-1.4-4.2-2.6-6
		C474,327.6,471,329.4,472.3,331.3"/>
	<path class="st2" d="M483,353.2c1,1.9,2.2,3.7,2.8,5.8c0.6,2.1,3.9,1.1,3.3-1c-0.7-2.4-2-4.4-3.2-6.6
		C484.9,349.4,481.9,351.3,483,353.2"/>
	<path class="st2" d="M483.2,373.9c0,1.5,0.2,2.9,0.9,4.3c0.4,0.9,1.6,1,2.4,0.6c0.9-0.5,1-1.5,0.6-2.4c-0.4-0.8-0.4-1.7-0.4-2.5
		C486.6,371.6,483.1,371.7,483.2,373.9"/>
	<path class="st2" d="M465.7,349.8c1.3,3,2.4,6,3.6,9c0.9,2,4.2,1.1,3.3-1c-1.3-3-2.4-6-3.6-9C468.1,346.8,464.8,347.7,465.7,349.8"
		/>
	<path class="st2" d="M455.9,322.8c0.1,1.9,0.7,3.7,1.3,5.5c0.7,2.1,4.1,1.1,3.3-1c-0.5-1.5-1.1-3-1.2-4.6
		C459.3,320.5,455.8,320.6,455.9,322.8"/>
	<path class="st2" d="M450.2,343.3c0.6,2.3,1.2,4.5,1.9,6.8c0.6,2.1,3.9,1.2,3.3-1c-0.6-2.3-1.2-4.5-1.9-6.8
		C452.9,340.2,449.6,341.2,450.2,343.3"/>
	<path class="st2" d="M471.9,381.7c0.5,1.9,1.2,3.8,1.8,5.6c0.7,2.1,4.1,1.1,3.3-1c-0.7-1.9-1.3-3.7-1.8-5.6
		C474.6,378.6,471.3,379.6,471.9,381.7"/>
	<path class="st2" d="M459.9,369.8c1.2,3.4,2.4,6.8,3.6,10.1c0.7,2.1,4.1,1.1,3.3-1c-1.2-3.4-2.4-6.8-3.6-10.1
		C462.4,366.7,459.1,367.7,459.9,369.8"/>
	<path class="st2" d="M450.5,381c-0.5,3.3,0.1,6.4,1.3,9.4c0.8,2,4.2,1.1,3.3-1c-1-2.4-1.7-4.9-1.3-7.6
		C454.1,379.7,450.8,378.8,450.5,381"/>
	<path class="st2" d="M465.5,397c0.1,2.5,0.7,4.9,1.4,7.2c0.6,2.1,3.9,1.2,3.3-1c-0.6-2.1-1.1-4.2-1.2-6.3
		C468.9,394.7,465.4,394.8,465.5,397"/>
	<path class="st2" d="M455.1,411.5l0.1,5.1c0.1,2.2,3.5,2.1,3.5-0.1l-0.1-5.1C458.5,409.2,455,409.2,455.1,411.5"/>
	<path class="st2" d="M468.3,418l0.1,2.3c0,2.2,3.5,2.1,3.5-0.1l-0.1-2.3C471.7,415.7,468.2,415.8,468.3,418"/>
	<path class="st2" d="M441.7,397.6c0.1,3.2,0.2,6.4,0.8,9.5c0.5,2.2,3.8,1.2,3.3-1c-0.6-2.8-0.6-5.7-0.7-8.6
		C445.1,395.3,441.6,395.3,441.7,397.6"/>
	<path class="st2" d="M435.9,417.9c0.1,3,1.3,5.6,2.7,8.2c1,2,4,0.2,2.9-1.8c-1.1-2.1-2.1-4.1-2.2-6.5
		C439.2,415.6,435.8,415.6,435.9,417.9"/>
	<path class="st2" d="M424.7,399.5c0.6,1.7,0.7,3.4,1.2,5.1c0.7,2.1,4,1.1,3.3-1c-0.5-1.7-0.7-3.4-1.2-5.1
		C427.4,396.4,424,397.4,424.7,399.5"/>
	<path class="st2" d="M418.7,415.2c1.4,1.4,1.8,3.1,1.9,5c0.1,2.2,3.5,2.2,3.5-0.1c-0.1-2.8-0.9-5.4-2.9-7.4
		C419.5,411.1,417.2,413.6,418.7,415.2"/>
	<path class="st2" d="M410.1,414l0.1,5.7c0,2.2,3.5,2.2,3.5-0.1l-0.1-5.7C413.5,411.7,410.1,411.8,410.1,414"/>
	<path class="st2" d="M396.4,414.1c0.1,2.5,0.2,4.9,0.8,7.3c0.5,2.2,3.9,1.2,3.3-1c-0.5-2.1-0.6-4.2-0.6-6.3
		C399.8,411.8,396.3,411.9,396.4,414.1"/>
	<path class="st2" d="M315.9,87.3c2.1,0.4,4.2,0.5,6.3,1c2.2,0.5,3-2.9,0.8-3.4c-2.1-0.4-4.2-0.6-6.3-1
		C314.6,83.4,313.8,86.8,315.9,87.3"/>
	<path class="st2" d="M320.8,101.3c1.9,0.6,3.8,1,5.7,1.6c2.1,0.6,3-2.7,0.8-3.4c-1.9-0.6-3.8-1-5.7-1.6
		C319.5,97.4,318.7,100.7,320.8,101.3"/>
	<path class="st2" d="M319.4,117.9c2.2,0,4.3,0.5,6.4,0.9c2.2,0.5,3-2.9,0.8-3.4c-2.4-0.5-4.8-1-7.3-1
		C317.1,114.5,317.1,117.9,319.4,117.9"/>
	<path class="st2" d="M319.7,134.9l3.4-0.1c2.2,0,2.1-3.5-0.1-3.5l-3.4,0.1C317.4,131.5,317.5,135,319.7,134.9"/>
	<path class="st2" d="M322.9,151.3c0.5,0,1-0.1,1.6-0.3c0.2-0.1,0.3-0.1,0.5-0.2c0,0,0.4-0.2,0.2-0.1c0.9-0.1,1.7-0.8,1.7-1.8
		c0-0.9-0.8-1.8-1.8-1.7c-0.8,0.1-1.5,0.6-2.3,0.6C320.7,148.1,320.7,151.5,322.9,151.3"/>
	<path class="st2" d="M325.5,163.2c2.2-0.1,2.2-3.5-0.1-3.5C323.2,159.8,323.3,163.3,325.5,163.2"/>
	<path class="st2" d="M387,134.4c1.8,1.3,3.8,2.6,5.2,4.4c1.3,1.8,4.3,0,2.9-1.8c-1.7-2.3-4.1-3.9-6.4-5.6c-0.8-0.5-1.9-0.1-2.4,0.7
		C385.8,132.9,386.3,133.8,387,134.4"/>
	<path class="st2" d="M412.6,162.7c0.4,0.9,0.4,2.1,0.4,3.1c0.1,2.2,3.5,2.2,3.5-0.1c0-1.7-0.2-3.3-0.9-4.8c-0.4-0.9-1.6-1-2.4-0.6
		C412.3,160.8,412.2,161.9,412.6,162.7"/>
	<path class="st2" d="M437,213.8c-0.5,1.2-0.7,2.4-0.7,3.7c0,2.2,3.5,2.2,3.5-0.1c0-0.7,0-1.3,0.3-2
		C440.9,213.5,437.9,211.8,437,213.8"/>
	<path class="st2" d="M497.6,365.4c0.7,3.4,1.8,6.7,2.5,10.2c0.4,2.2,3.8,1.2,3.3-1c-0.7-3.4-1.8-6.7-2.5-10.2
		C500.5,362.3,497.1,363.3,497.6,365.4"/>
	<path class="st2" d="M494.2,392.8c0.6,2.3,0.6,4.6,0.7,6.9c0,2.2,3.5,2.2,3.5-0.1c-0.1-2.6-0.1-5.3-0.8-7.8
		C497,389.6,493.7,390.6,494.2,392.8"/>
	<path class="st2" d="M484.4,413.6l0.1,5.7c0,2.2,3.5,2.1,3.5-0.1l-0.1-5.7C487.8,411.3,484.3,411.3,484.4,413.6"/>
	<path class="st2" d="M448.7,212.2c2.2,0,2.2-3.5-0.1-3.5C446.4,208.8,446.5,212.2,448.7,212.2"/>
	<path class="st2" d="M464.1,240.2c2.2-0.1,2.2-3.5-0.1-3.5C461.8,236.8,461.9,240.3,464.1,240.2"/>
	<path class="st2" d="M378.7,174.5c2.3,0.5,4.6,0.5,6.8,1c2.2,0.5,3-2.9,0.8-3.4c-2.3-0.5-4.6-0.5-6.8-1
		C377.3,170.7,376.5,174,378.7,174.5"/>
	<path class="st2" d="M508.8,424.2c1.2-0.7,1.7-1.7,2.3-2.9c0.9-2-2.1-3.7-3-1.7c-0.3,0.7-0.4,1.3-1,1.7
		C505.1,422.3,506.9,425.3,508.8,424.2"/>
	<path class="st2" d="M512.1,408.4l0,1.7c0,2.2,3.5,2.2,3.5-0.1l0-1.7C515.5,406.1,512,406.2,512.1,408.4"/>
	<path class="st3" d="M461.5,282c3.3,49-24.5,133.8-122.7,137.5c-101.1,3.8-143.5-73.5-144.7-129c-1.1-51.1,39.8-114.4,96.1-117.2
		c26.8-1.3,32.6,13.3,37.1,17c2.4-4.2,9.4-18.2,38-18.4C412.1,169.7,457.1,214.7,461.5,282"/>
	<path class="st4" d="M324.7,277.9c0.7,30.2-22.4,55.2-51.5,55.8c-29.1,0.6-53.2-23.3-53.9-53.5c-0.7-30.2,22.4-55.2,51.4-55.8
		C299.9,223.8,324,247.7,324.7,277.9"/>
	<path class="st3" d="M298.7,276.8c0.3,14.8-11.1,27-25.4,27.3c-14.4,0.3-26.3-11.4-26.6-26.2c-0.3-14.8,11.1-27,25.4-27.3
		C286.5,250.3,298.4,262,298.7,276.8"/>
	<path class="st4" d="M285,275.3c0.1,6.7-5,12.3-11.6,12.4c-6.5,0.1-12-5.2-12.1-11.9c-0.1-6.7,5-12.3,11.6-12.4
		C279.4,263.2,284.9,268.6,285,275.3"/>
	<path class="st4" d="M268,292.9c0.1,2.8-2.1,5-4.8,5.1c-2.7,0.1-4.9-2.1-5-4.9c-0.1-2.8,2.1-5,4.7-5.1
		C265.7,287.9,268,290.1,268,292.9"/>
	<path class="st5" d="M236.5,219.1c-2.1-3.6-0.7-6.7,1.9-7.7c2.6-0.9,5.3,0.1,6.4,3.3c1.1,3.1,0.8,7.1-0.4,11
		C244.4,225.7,238.4,222.3,236.5,219.1"/>
	<path class="st5" d="M255.9,210.9c-1.4-3.9,0.5-6.7,3.2-7.2c2.7-0.4,5.2,1,5.7,4.4c0.5,3.2-0.5,7.2-2.3,10.8
		C262.5,218.9,257.2,214.4,255.9,210.9"/>
	<path class="st5" d="M277,208c-0.3-4.2,2.3-6.3,5-6.1c2.7,0.3,4.8,2.4,4.4,5.8c-0.4,3.2-2.4,6.8-5.1,9.7
		C281.2,217.4,277.3,211.7,277,208"/>
	<path class="st4" d="M354.6,272.9c0.6,24.8,20.4,44.5,44.2,43.9c23.9-0.5,42.8-21.1,42.2-45.8c-0.6-24.8-20.4-44.4-44.2-43.9
		C373,227.5,354.1,248.1,354.6,272.9"/>
	<path class="st3" d="M375.9,271c0.3,12.1,10,21.7,21.9,21.5c11.8-0.3,21.1-10.3,20.9-22.4c-0.3-12.1-10.1-21.7-21.9-21.5
		C384.9,248.8,375.6,258.9,375.9,271"/>
	<path class="st4" d="M387.1,269.3c0.1,5.5,4.6,9.9,9.9,9.8c5.4-0.1,9.6-4.7,9.5-10.2c-0.1-5.5-4.6-9.9-10-9.8
		C391.2,259.2,386.9,263.7,387.1,269.3"/>
	<path class="st4" d="M401.6,283c0,2.3,1.9,4.1,4.1,4c2.2,0,3.9-1.9,3.9-4.2c-0.1-2.3-1.9-4.1-4.1-4
		C403.3,278.9,401.6,280.8,401.6,283"/>
	<path class="st5" d="M427.5,222.4c2-2.8,1.1-5.4-1-6.4c-2-0.9-4.4-0.3-5.5,2.2c-1.1,2.4-1.2,5.8-0.5,9
		C420.5,227.2,425.7,224.9,427.5,222.4"/>
	<path class="st5" d="M412.2,214.3c1.4-3.1,0.1-5.5-2.1-6.1c-2.2-0.6-4.3,0.4-5,3.2c-0.7,2.6-0.1,5.9,1.1,9
		C406.2,220.3,410.9,217.1,412.2,214.3"/>
	<path class="st5" d="M395.2,210.3c0.6-3.4-1.4-5.4-3.6-5.3c-2.2,0-4.1,1.6-4,4.4c0.1,2.7,1.5,5.7,3.5,8.3
		C391.1,217.7,394.7,213.3,395.2,210.3"/>
	<path class="st6" d="M354.7,324.2c1.6,7.8-2.9,12.6-8.1,12.7c-5.2,0.1-9.6-3.4-9.7-9.9c0-6.3,3-13.4,7.4-19.7
		C344.5,307.2,353.3,317.1,354.7,324.2"/>
	<path d="M328.8,384.8c0,0,7.7,1.8,18.2,0.7c12.5-1.4,18.7-5.2,18.7-5.2s-0.4,20-16.1,21.8C333.9,403.9,328.8,384.8,328.8,384.8"/>
	<polygon class="st3" points="333.4,387.1 339.8,387.6 338.4,393.9 	"/>
	<polyline class="st3" points="355.5,385.7 361.7,384 359,391.2 	"/>
	<path class="st7" d="M271,361.3c0.1,5.4-4.2,9.9-9.6,10c-5.4,0.1-9.9-4.2-10-9.6c-0.1-5.4,4.2-9.9,9.6-10
		C266.4,351.6,270.9,355.9,271,361.3"/>
	<path class="st7" d="M428,344.9c0.1,5.4-4.2,9.9-9.6,10c-5.4,0.1-9.9-4.2-10-9.6c-0.1-5.4,4.2-9.9,9.6-10
		C423.3,335.2,427.8,339.5,428,344.9"/>
	<path class="st7" d="M388.4,121.1c0,0,0.7,0,2,0.1c1.3,0.1,3.1,0.3,5.2,0.4c1.1,0.1,2.2,0.1,3.4,0.2c1.2,0.1,2.5,0,3.9,0.1
		c2.7,0.1,5.5,0.1,8.4,0.1c5.7,0,11.5-0.1,15.8,0.1c2.2,0,4,0.2,5.2,0.3c1.3,0.1,2,0.2,2,0.2s-0.7,0.1-2,0.3c-1.3,0.1-3,0.4-5.2,0.6
		c-2.2,0.2-4.7,0.5-7.4,0.6c-2.7,0.2-5.6,0.2-8.5,0.3c-1.5,0-2.9-0.1-4.3-0.1c-1.4,0-2.8-0.2-4.2-0.3c-1.4-0.1-2.7-0.2-3.9-0.4
		c-1.2-0.2-2.4-0.4-3.5-0.6c-2.2-0.3-3.9-1-5.1-1.3C389,121.3,388.4,121.1,388.4,121.1"/>
	<path class="st7" d="M398.4,110.4c0,0,0.7-0.1,1.8-0.2c1.2-0.1,2.9-0.2,4.8-0.5c1-0.1,2-0.3,3.2-0.4c1.1-0.1,2.3-0.4,3.5-0.6
		c2.5-0.4,5-0.9,7.7-1.4c5.2-1,10.4-2,14.4-2.7c2-0.3,3.7-0.5,4.8-0.6c1.2-0.1,1.8-0.2,1.8-0.2s-0.6,0.2-1.7,0.6
		c-1.1,0.4-2.7,0.9-4.6,1.5c-1.9,0.6-4.2,1.2-6.6,1.9c-2.4,0.7-5.1,1.2-7.7,1.8c-1.3,0.2-2.7,0.4-4,0.6c-1.3,0.2-2.6,0.3-3.9,0.4
		c-1.3,0.1-2.5,0.3-3.6,0.3c-1.2,0-2.3,0-3.3,0c-2,0-3.7-0.3-4.8-0.4C399,110.5,398.4,110.4,398.4,110.4"/>
	<path class="st7" d="M413.2,94c0,0,0.5-0.1,1.3-0.3c0.8-0.2,2-0.3,3.3-0.7c0.7-0.2,1.4-0.4,2.1-0.6c0.8-0.1,1.5-0.5,2.4-0.7
		c1.7-0.5,3.4-1.1,5.1-1.7c3.5-1.2,7-2.5,9.7-3.3c2.7-0.8,4.6-1.1,4.6-1.1s-1.6,1-4.1,2.4c-1.2,0.7-2.7,1.4-4.3,2.1
		c-1.6,0.8-3.4,1.4-5.1,2.1c-0.9,0.3-1.8,0.6-2.7,0.8c-0.9,0.3-1.8,0.4-2.7,0.6c-0.9,0.2-1.7,0.4-2.6,0.4c-0.8,0.1-1.6,0.1-2.3,0.2
		c-1.4,0.1-2.6-0.1-3.4-0.1C413.7,94.1,413.2,94,413.2,94"/>
	<path class="st7" d="M421,77.1c0,0,0.3-0.1,0.9-0.2c0.3-0.1,0.6-0.1,1.1-0.2c0.4-0.1,0.9-0.1,1.3-0.2c0.5-0.1,1-0.3,1.5-0.4
		c0.5-0.1,1-0.3,1.6-0.5c0.5-0.2,1.1-0.5,1.7-0.7c0.5-0.3,1.1-0.6,1.7-0.9c0.6-0.3,1.1-0.6,1.7-0.9c0.5-0.3,1.1-0.6,1.6-1
		c1.1-0.6,2.1-1.2,3-1.7c1.8-1,3.1-1.4,3.1-1.4s-0.9,1.1-2.3,2.5c-0.7,0.7-1.6,1.5-2.6,2.3c-0.5,0.4-1,0.8-1.6,1.2
		c-0.6,0.4-1.1,0.8-1.7,1.1c-0.6,0.3-1.3,0.6-1.9,0.9c-0.6,0.3-1.3,0.4-2,0.6c-0.6,0.2-1.3,0.3-1.9,0.3c-0.6,0.1-1.2,0.1-1.7,0.1
		c-0.5,0-1-0.1-1.4-0.2c-0.4-0.1-0.8-0.2-1-0.2C421.3,77.2,421,77.1,421,77.1"/>
	<path class="st7" d="M404,135.5c0,0,0.3,0.1,0.9,0.3c0.3,0.1,0.6,0.2,1,0.4c0.4,0.1,0.8,0.4,1.3,0.5c0.5,0.1,1,0.3,1.5,0.4
		c0.5,0.2,1,0.3,1.6,0.4c0.6,0.1,1.2,0.2,1.8,0.3c0.6,0.1,1.2,0.1,1.9,0.2c0.6,0.1,1.3,0.1,1.9,0.1c0.6,0,1.3,0.1,1.9,0.1
		c1.2,0,2.4,0.1,3.4,0.2c2,0.2,3.4,0.5,3.4,0.5s-1.3,0.4-3.3,0.8c-1,0.2-2.1,0.4-3.4,0.5c-0.6,0.1-1.3,0.1-2,0.1
		c-0.7,0-1.4,0.1-2.1,0c-0.7-0.1-1.4-0.2-2.1-0.3c-0.7-0.1-1.3-0.4-2-0.6c-0.6-0.2-1.2-0.5-1.8-0.8c-0.5-0.3-1-0.6-1.5-0.9
		c-0.4-0.3-0.7-0.6-1-0.9c-0.3-0.3-0.5-0.5-0.8-0.8C404.2,135.8,404,135.5,404,135.5"/>
	<path class="st7" d="M250.3,126.7c0,0-0.7,0.3-2,0.7c-0.6,0.2-1.4,0.5-2.3,0.7c-0.9,0.3-1.9,0.6-3.1,0.8c-1.1,0.2-2.4,0.5-3.7,0.8
		c-1.3,0.3-2.7,0.4-4.2,0.6c-1.5,0.2-2.9,0.4-4.5,0.5c-1.5,0.1-3.1,0.2-4.6,0.3c-3.1,0.1-6.2,0.2-9.1,0.1c-2.9,0-5.6-0.1-7.9-0.3
		c-2.3-0.2-4.3-0.3-5.6-0.4c-1.4-0.1-2.1-0.2-2.1-0.2s0.8-0.1,2.1-0.3c1.4-0.1,3.3-0.4,5.6-0.5c4.6-0.3,10.8-0.5,17-0.8
		c3.1-0.2,6.2-0.3,9-0.5c1.4-0.1,2.8-0.1,4.1-0.3c1.3-0.1,2.6-0.3,3.7-0.4c2.3-0.2,4.2-0.5,5.6-0.7
		C249.5,126.8,250.3,126.7,250.3,126.7"/>
	<path class="st7" d="M239,115.7c0,0-0.7,0.1-2,0.3c-1.3,0.1-3,0.5-5.2,0.6c-1.1,0-2.3,0.1-3.5,0.1c-1.3,0.1-2.6-0.1-3.9-0.1
		c-1.4-0.1-2.8-0.1-4.2-0.3c-1.4-0.2-2.9-0.3-4.3-0.5c-2.8-0.5-5.7-0.9-8.3-1.5c-2.6-0.6-5.1-1.1-7.2-1.7c-2.1-0.6-3.8-1-5-1.3
		c-1.2-0.3-1.9-0.6-1.9-0.6s0.7,0,2,0.1c1.3,0.1,3.1,0.2,5.2,0.5c4.3,0.5,10,1.4,15.6,2.2c2.8,0.4,5.6,0.8,8.3,1.1
		c1.3,0.1,2.6,0.4,3.8,0.4c1.2,0.1,2.4,0.2,3.4,0.3c2.1,0.2,4,0.2,5.2,0.3C238.3,115.6,239,115.7,239,115.7"/>
	<path class="st7" d="M222.3,98.8c0,0-0.5,0.1-1.4,0.2c-0.9,0.1-2.1,0.3-3.7,0.3c-0.8,0-1.6,0-2.5-0.1c-0.9,0-1.8-0.2-2.8-0.3
		c-0.9-0.2-2-0.3-2.9-0.6c-1-0.3-2-0.5-3-0.8c-1.9-0.6-3.9-1.3-5.6-2c-1.8-0.7-3.4-1.4-4.7-2.1c-2.7-1.3-4.5-2.3-4.5-2.3s2,0.3,5,1
		c2.9,0.8,6.8,1.9,10.6,3.1c1.9,0.5,3.8,1.1,5.6,1.5c0.9,0.2,1.8,0.5,2.6,0.6c0.8,0.2,1.6,0.3,2.3,0.5c1.5,0.3,2.7,0.4,3.6,0.6
		C221.8,98.7,222.3,98.8,222.3,98.8"/>
	<path class="st7" d="M213.1,80.9c0,0-0.3,0.1-1,0.3c-0.3,0.1-0.7,0.2-1.1,0.3c-0.4,0.1-0.9,0.3-1.5,0.3c-0.6,0-1.2,0-1.8,0
		c-0.3,0-0.7,0-1,0c-0.3,0-0.7-0.1-1-0.2c-0.7-0.2-1.4-0.3-2.1-0.5c-0.7-0.3-1.4-0.6-2.1-0.9c-0.7-0.3-1.3-0.7-1.9-1.1
		c-0.6-0.4-1.2-0.8-1.8-1.2c-1.1-0.8-2.1-1.6-2.9-2.3c-1.6-1.4-2.6-2.5-2.6-2.5s1.4,0.4,3.4,1.4c1,0.5,2.1,1.1,3.2,1.7
		c0.6,0.3,1.2,0.6,1.8,1c0.6,0.3,1.2,0.7,1.8,0.9c0.6,0.3,1.2,0.6,1.8,0.9c0.6,0.2,1.2,0.4,1.8,0.7c0.6,0.2,1.2,0.4,1.7,0.5
		c0.6,0.1,1.1,0.3,1.6,0.4c0.5,0.1,1,0.1,1.5,0.2c0.4,0.1,0.8,0.1,1.1,0.1C212.7,80.8,213.1,80.9,213.1,80.9"/>
	<path class="st7" d="M234.2,143c0,0-0.2,0.3-0.7,0.8c-0.2,0.2-0.5,0.5-0.8,0.8c-0.3,0.3-0.6,0.7-1.1,1c-0.5,0.3-1,0.7-1.6,1
		c-0.3,0.2-0.6,0.3-0.9,0.5c-0.3,0.2-0.6,0.3-1,0.4c-0.7,0.2-1.3,0.5-2.1,0.7c-0.7,0.1-1.5,0.3-2.2,0.4c-0.7,0.1-1.5,0.1-2.2,0.1
		c-0.7,0.1-1.4,0-2.1,0c-1.4-0.1-2.6-0.2-3.7-0.4c-2.1-0.3-3.6-0.6-3.6-0.6c0,0,1.4-0.4,3.6-0.7c1.1-0.1,2.3-0.2,3.7-0.3
		c0.7,0,1.3-0.1,2-0.2c0.7-0.1,1.4-0.1,2-0.2c0.7-0.1,1.4-0.2,2-0.3c0.6-0.2,1.3-0.3,1.9-0.5c0.6-0.1,1.2-0.3,1.7-0.5
		c0.5-0.2,1.1-0.4,1.6-0.5c0.5-0.2,0.9-0.5,1.3-0.6c0.4-0.2,0.7-0.4,1-0.5C233.8,143.1,234.2,143,234.2,143"/>
	<path class="st0" d="M205.1,381.6c-44,22.5-87.8,22.1-106,13c-30.3-12.7-56.9-84.9-65.5-78.9c-7,4.8,2,18.6,2,18.6
		s-9.6-12.1-13.9-9.4c-5.8,3.8,4.3,15.5,4.3,15.5s-9.7-9.7-14-4.2c-5.1,6.5,58.7,78.6,113.8,77.6c29-0.5,44.9-5.9,44.9-5.9"/>
	<g>
		<g>
			<defs>
				
					<rect id="SVGID_1_" x="36.9" y="288.5" transform="matrix(0.7764 -0.6303 0.6303 0.7764 -210.4639 147.0055)" width="130" height="163.2"/>
			</defs>
			<clipPath id="SVGID_2_">
				<use xlink:href="#SVGID_1_"  style="overflow:visible;"/>
			</clipPath>
			<path class="st8" d="M200.7,389C95,438.4,58.7,335.1,40.1,324.3c-3.7-3.2-7.4-1.6-7.8-1.4c-6.1,4.6-1.2,13.2-1.2,13.2
				s-6.5-4.7-10-2.6c-3.9,2.2-2.8,7-2.8,7s1.5,4.7,3.7,6.1c0,0-6.7-5.7-9.7,2.4c-5.2,16.8,34.6,54.7,77.7,69.7
				c32.2,11.2,65.7,4.6,86.3-6.1c-5.6-0.9-34.3,11.3-62.8,5.5c-34.7-7-97.8-54.1-96.8-65.3c3.2-7.2,13.3,0.4,13.3,0.4
				s-11-10.1-4.3-14.6c3.9-2.6,12.7,7.5,12.7,7.5s-7.9-17.5-1.5-16.8C66.4,332,74.1,451.6,200.7,389"/>
			<path class="st9" d="M200.7,389C95,438.4,58.7,335.1,40.1,324.3c-3.7-3.2-7.4-1.6-7.8-1.4c-6.1,4.6-1.2,13.2-1.2,13.2
				s-6.5-4.7-10-2.6c-3.9,2.2-2.8,7-2.8,7s1.5,4.7,3.7,6.1c0,0-6.7-5.7-9.7,2.4c-5.2,16.8,34.6,54.7,77.7,69.7
				c32.2,11.2,65.7,4.6,86.3-6.1c-5.6-0.9-34.3,11.3-62.8,5.5c-34.7-7-97.8-54.1-96.8-65.3c3.2-7.2,13.3,0.4,13.3,0.4
				s-11-10.1-4.3-14.6c3.9-2.6,12.7,7.5,12.7,7.5s-7.9-17.5-1.5-16.8C66.4,332,74.1,451.6,200.7,389z"/>
		</g>
	</g>
	<path class="st10" d="M176,401.5c-42,10-58.9,6.8-77.2-2.3c-30.3-12.7-56.9-84.9-65.5-78.9c-7,4.8,2,18.6,2,18.6
		s-9.6-12.1-13.9-9.4c-5.8,3.8,4.3,15.5,4.3,15.5s-9.7-9.7-14-4.2c-5.1,6.5,58.7,78.6,113.8,77.6c29-0.5,44.9-5.9,44.9-5.9"/>
	<path class="st0" d="M481.1,362c1.6,10.7,8.3,27.1,23.5,32.2c31.4,9.7,61.9-25.5,64.7-15.4c2.3,8.2-12.9,11.4-12.9,11.4
		s15.1-3.1,16.6,1.7c2.1,6.6-13.3,9.1-13.3,9.1s13.7-1.2,13.4,5.8c-0.3,8.3-59.2,12-76.6,1.7c-11.4-6.8-15.2-20.4-15.2-20.4"/>
	<g>
		<g>
			<defs>
				
					<rect id="SVGID_3_" x="480.1" y="355.9" transform="matrix(0.962 -0.2731 0.2731 0.962 -87.1888 158.7877)" width="93.4" height="73.4"/>
			</defs>
			<clipPath id="SVGID_4_">
				<use xlink:href="#SVGID_3_"  style="overflow:visible;"/>
			</clipPath>
			<path class="st11" d="M479,368.1c31.9,55.9,70.8,8.1,86.3,8.7c3.5-0.5,6.5,0.8,6.7,4.7c1.9,5.2-5.2,8.9-5.2,8.9s6.8,0.9,8.2,3.6
				c2.5,4.9-0.4,6.5-0.4,6.5s-3.6,2.8-5.5,2.7c0,0,7.3,1.8,6,7.8c-3.5,12.3-44.4,19.5-75.3,8.2c-13.8-5.1-18.4-14.3-21-25.1
				c2.3,3.5,9.9,19,23.8,21.5c25.1,4.6,65.1,2,68.9-5.2c0.9-5.7-9.1-5.9-9.1-5.9s10.1-4,7.8-9.3c-1.4-3.1-9.3-3.3-9.3-3.3
				s8.4-2.5,6.3-10.9C564.6,370.9,499.8,434.7,479,368.1"/>
		</g>
	</g>
	<path class="st10" d="M481.8,364.3c1.6,10.7,8.3,27.1,23.5,32.2c31.4,9.7,61.9-25.5,64.7-15.4c2.3,8.2-12.9,11.4-12.9,11.4
		s15.1-3.1,16.6,1.7c2.1,6.6-13.3,9.1-13.3,9.1s13.7-1.2,13.4,5.8c-0.3,8.3-59.2,12-76.6,1.7c-11.4-6.8-15.2-20.4-15.2-20.4"/>
</g>
</svg>
