<svg id="Capa_1" data-name="Capa 1" xmlns="http://www.w3.org/2000/svg" viewBox="0 0 778.07 1041.04"><defs><style>.cls-1{fill:#4d4d4d;opacity:0.4;}.cls-2{fill:#ed1e79;}.cls-3{fill:#d4145a;}.cls-4{fill:#fff;}.cls-5{fill:#ff0;}.cls-6{fill:#1d1d1b;}.cls-7{fill:#29abe2;}.cls-8{fill:#c69c6d;}.cls-9{fill:#fcee21;}.cls-10{fill:#f0f;}</style></defs><title>Home_1</title><ellipse class="cls-1" cx="384.77" cy="921.63" rx="134.81" ry="18.74"/><path class="cls-2" d="M221.92,666.42C208.61,652.54,96,581.5,210.85,86.24c1-2.63,1.1-9.63,8.91-8.6,8,.81,3.93,22.34-.06,32.27,7.16-12,9.2-35.3,21.92-33.18s5.14,31,4,39c2.52-3.82,6.06-33.55,16.71-33.31,3.48.46,8.75.34,3.92,19.43C106.33,650.5,229.11,633,229.11,633s31.21-100.53,155.94-98.54,147.46,85.72,157.24,99C657.77,622.79,498,133.19,487.4,98.94c-2.21-10.31-.07-12.82,4.62-14.77,7.15-1.34,16.17,24.79,16.78,27.58-6-26.54-3.27-32,3.78-33.9s13.65,14.3,20.59,30.36c-4.32-17.88-5-29.07,1.29-30.13s10.28,11.59,10.28,11.59,136,474.3,5.49,576.75c20.22,109-23,240.53-23,240.53s34.14-1.29,29.14,13.8-55.2,0-55.2,0,15.74-14.76,5.36-26c-13-11.8-67.08-19.64-117.3-20-134.55,3.44-121.55,27.94-121.18,31.77s2.73,7.92,8.75,14.5c-4.21,1.17-58.33,17.36-63.22-.27s35.54-15,35.54-15S196.41,781.21,221.92,666.42Z"/><path class="cls-1" d="M386.91,874.81s-96.07-6.13-119.23,11.91c-21.35,17.47,9.12,34.3,9.12,34.3s-25.18-22,7.31-33.4C314,876,386.91,874.81,386.91,874.81Z"/><path class="cls-1" d="M391.19,874.81s96.07-6.13,119.23,11.91c21.35,17.47-9.12,34.3-9.12,34.3s25.18-22-7.31-33.4C464.09,876,391.19,874.81,391.19,874.81Z"/><path class="cls-1" d="M230.51,634.52c-.36,1.7-6,23.48-6.93,32.49-.3,1.19-33.25-36.62-33.89-89C200.33,636.23,228.07,634.89,230.51,634.52Z"/><path class="cls-1" d="M542.31,633.3c.36,1.69,5.44,16.79,7.9,32.72,2-2.55,31.1-36.61,31.75-89C573.6,636.81,543.08,632.71,542.31,633.3Z"/><path class="cls-3" d="M379,551.18c4.44,0,4.45-6.9,0-6.9s-4.45,6.9,0,6.9Z"/><path class="cls-3" d="M364.64,546.19c4.44,0,4.45-6.9,0-6.9s-4.45,6.9,0,6.9Z"/><path class="cls-3" d="M347.46,547.3c4.44,0,4.45-6.9,0-6.9s-4.44,6.9,0,6.9Z"/><path class="cls-3" d="M334.72,551.18c4.44,0,4.45-6.9,0-6.9s-4.45,6.9,0,6.9Z"/><path class="cls-3" d="M256.05,604.36c4.44,0,4.45-6.9,0-6.9s-4.45,6.9,0,6.9Z"/><path class="cls-3" d="M245,618.77c4.44,0,4.45-6.9,0-6.9s-4.45,6.9,0,6.9Z"/><path class="cls-3" d="M237.21,637.6c4.44,0,4.45-6.9,0-6.9s-4.44,6.9,0,6.9Z"/><path class="cls-3" d="M223.67,657.55c4.44,0,4.45-6.9,0-6.9s-4.44,6.9,0,6.9Z"/><path class="cls-3" d="M219.24,678.6c4.44,0,4.45-6.9,0-6.9s-4.45,6.9,0,6.9Z"/><path class="cls-3" d="M217,700.76c4.44,0,4.45-6.9,0-6.9s-4.44,6.9,0,6.9Z"/><path class="cls-3" d="M214.81,725.14c4.44,0,4.45-6.9,0-6.9s-4.45,6.9,0,6.9Z"/><path class="cls-3" d="M215.92,748.41c4.44,0,4.44-6.9,0-6.9s-4.45,6.9,0,6.9Z"/><path class="cls-3" d="M215.36,768.91c4.44,0,4.45-6.9,0-6.9s-4.44,6.9,0,6.9Z"/><path class="cls-3" d="M219.24,792.18c4.44,0,4.45-6.9,0-6.9s-4.45,6.9,0,6.9Z"/><path class="cls-3" d="M223.67,814.34c4.44,0,4.45-6.9,0-6.9s-4.44,6.9,0,6.9Z"/><path class="cls-3" d="M237.77,838.71c4.44,0,4.44-6.9,0-6.9s-4.45,6.9,0,6.9Z"/><path class="cls-3" d="M243.31,864.2c4.44,0,4.45-6.9,0-6.9s-4.45,6.9,0,6.9Z"/><path class="cls-3" d="M250,889.13c4.44,0,4.44-6.9,0-6.9s-4.45,6.9,0,6.9Z"/><path class="cls-3" d="M255.5,907.41c4.44,0,4.44-6.9,0-6.9s-4.45,6.9,0,6.9Z"/><path class="cls-3" d="M371.29,561.15c4.44,0,4.44-6.9,0-6.9s-4.45,6.9,0,6.9Z"/><path class="cls-3" d="M358,559.49c4.44,0,4.45-6.9,0-6.9s-4.45,6.9,0,6.9Z"/><path class="cls-3" d="M344.69,561.7c4.44,0,4.45-6.9,0-6.9s-4.44,6.9,0,6.9Z"/><path class="cls-3" d="M328.07,567.24c4.44,0,4.45-6.9,0-6.9s-4.44,6.9,0,6.9Z"/><path class="cls-3" d="M309.24,576.11c4.44,0,4.44-6.9,0-6.9s-4.45,6.9,0,6.9Z"/><path class="cls-3" d="M292.62,585.53c4.44,0,4.44-6.9,0-6.9s-4.45,6.9,0,6.9Z"/><path class="cls-3" d="M282.64,598.27c4.44,0,4.45-6.9,0-6.9s-4.44,6.9,0,6.9Z"/><path class="cls-3" d="M271.56,609.9c4.44,0,4.45-6.9,0-6.9s-4.44,6.9,0,6.9Z"/><path class="cls-3" d="M259.37,617.66c4.44,0,4.45-6.9,0-6.9s-4.44,6.9,0,6.9Z"/><path class="cls-3" d="M251.62,633.73c4.44,0,4.45-6.9,0-6.9s-4.45,6.9,0,6.9Z"/><path class="cls-3" d="M247.19,650.9c4.44,0,4.44-6.9,0-6.9s-4.45,6.9,0,6.9Z"/><path class="cls-3" d="M268.24,629.29c4.44,0,4.45-6.9,0-6.9s-4.45,6.9,0,6.9Z"/><path class="cls-3" d="M240.54,669.74c4.44,0,4.45-6.9,0-6.9s-4.45,6.9,0,6.9Z"/><path class="cls-3" d="M236.66,691.9c4.44,0,4.45-6.9,0-6.9s-4.45,6.9,0,6.9Z"/><path class="cls-3" d="M224.78,713.5c4.44,0,4.45-6.9,0-6.9s-4.45,6.9,0,6.9Z"/><path class="cls-3" d="M234.44,736.22c4.44,0,4.45-6.9,0-6.9s-4.44,6.9,0,6.9Z"/><path class="cls-3" d="M225.33,758.93c4.44,0,4.45-6.9,0-6.9s-4.44,6.9,0,6.9Z"/><path class="cls-3" d="M237.21,779.43c4.44,0,4.45-6.9,0-6.9s-4.44,6.9,0,6.9Z"/><path class="cls-3" d="M240.54,801c4.44,0,4.45-6.9,0-6.9s-4.45,6.9,0,6.9Z"/><path class="cls-3" d="M244.42,822c.55-.56.55-.56.55-1.11"/><path class="cls-3" d="M246.86,824.41a4.77,4.77,0,0,0,1.56-3.55,3.45,3.45,0,1,0-6.9,0c0,.11,0,.22,0,.33l.12-.92a.55.55,0,0,1-.06.22l.35-.82-.09.14.54-.69-.39.41a3.48,3.48,0,0,0,0,4.88,3.52,3.52,0,0,0,4.88,0Z"/><path class="cls-3" d="M251.62,847.58c4.44,0,4.45-6.9,0-6.9s-4.45,6.9,0,6.9Z"/><path class="cls-3" d="M257.16,873.61c4.44,0,4.45-6.9,0-6.9s-4.45,6.9,0,6.9Z"/><path class="cls-3" d="M264.91,892.45c4.44,0,4.45-6.9,0-6.9s-4.44,6.9,0,6.9Z"/><path class="cls-3" d="M259.37,648.68c4.44,0,4.45-6.9,0-6.9s-4.44,6.9,0,6.9Z"/><path class="cls-3" d="M258.39,665.18v-.55a3.45,3.45,0,1,0-6.9,0v.55a3.45,3.45,0,1,0,6.9,0Z"/><path class="cls-3" d="M250,688c4.44,0,4.44-6.9,0-6.9s-4.45,6.9,0,6.9Z"/><path class="cls-3" d="M248.29,708c4.44,0,4.45-6.9,0-6.9s-4.44,6.9,0,6.9Z"/><path class="cls-3" d="M246.63,726.8c4.44,0,4.45-6.9,0-6.9s-4.45,6.9,0,6.9Z"/><path class="cls-3" d="M247.19,749c4.44,0,4.44-6.9,0-6.9s-4.45,6.9,0,6.9Z"/><path class="cls-3" d="M247.19,769.46c4.44,0,4.44-6.9,0-6.9s-4.45,6.9,0,6.9Z"/><path class="cls-3" d="M252.17,791.62c4.44,0,4.45-6.9,0-6.9s-4.44,6.9,0,6.9Z"/><path class="cls-3" d="M256.6,811.57c4.44,0,4.45-6.9,0-6.9s-4.44,6.9,0,6.9Z"/><path class="cls-3" d="M259.93,832.06c4.44,0,4.45-6.9,0-6.9s-4.45,6.9,0,6.9Z"/><path class="cls-3" d="M266,857c4.44,0,4.45-6.9,0-6.9s-4.45,6.9,0,6.9Z"/><path class="cls-3" d="M271.56,879.16c4.44,0,4.45-6.9,0-6.9s-4.44,6.9,0,6.9Z"/><path class="cls-3" d="M261,775.55c4.44,0,4.44-6.9,0-6.9s-4.45,6.9,0,6.9Z"/><path class="cls-3" d="M267.13,798.82c4.44,0,4.45-6.9,0-6.9s-4.45,6.9,0,6.9Z"/><path class="cls-3" d="M271.56,819.32c4.44,0,4.45-6.9,0-6.9s-4.44,6.9,0,6.9Z"/><path class="cls-3" d="M276,839.82c4.44,0,4.45-6.9,0-6.9s-4.44,6.9,0,6.9Z"/><path class="cls-3" d="M281,865.86c4.44,0,4.45-6.9,0-6.9s-4.45,6.9,0,6.9Z"/><path class="cls-3" d="M286,884.14c4.44,0,4.44-6.9,0-6.9s-4.45,6.9,0,6.9Z"/><path class="cls-3" d="M282.64,806c4.44,0,4.45-6.9,0-6.9s-4.44,6.9,0,6.9Z"/><path class="cls-3" d="M287.07,826c4.44,0,4.45-6.9,0-6.9s-4.44,6.9,0,6.9Z"/><path class="cls-3" d="M289.29,850.35c4.44,0,4.45-6.9,0-6.9s-4.45,6.9,0,6.9Z"/><path class="cls-3" d="M294.83,873.61c4.44,0,4.45-6.9,0-6.9s-4.45,6.9,0,6.9Z"/><path class="cls-3" d="M299.26,817.11c4.44,0,4.45-6.9,0-6.9s-4.44,6.9,0,6.9Z"/><path class="cls-3" d="M301.48,839.27c4.44,0,4.45-6.9,0-6.9s-4.45,6.9,0,6.9Z"/><path class="cls-3" d="M303.7,860.32c4.44,0,4.44-6.9,0-6.9s-4.45,6.9,0,6.9Z"/><path class="cls-3" d="M308.68,876.94c4.44,0,4.45-6.9,0-6.9s-4.45,6.9,0,6.9Z"/><path class="cls-3" d="M312.56,826.52c4.44,0,4.45-6.9,0-6.9s-4.45,6.9,0,6.9Z"/><path class="cls-3" d="M314.22,846.47c4.44,0,4.45-6.9,0-6.9s-4.45,6.9,0,6.9Z"/><path class="cls-3" d="M320.87,867c4.44,0,4.45-6.9,0-6.9s-4.45,6.9,0,6.9Z"/><path class="cls-3" d="M325.86,837.6c4.44,0,4.44-6.9,0-6.9s-4.45,6.9,0,6.9Z"/><path class="cls-3" d="M329.73,854.78c4.44,0,4.45-6.9,0-6.9s-4.44,6.9,0,6.9Z"/><path class="cls-3" d="M332.5,876.94c4.44,0,4.45-6.9,0-6.9s-4.44,6.9,0,6.9Z"/><path class="cls-3" d="M340.81,829.85c4.44,0,4.45-6.9,0-6.9s-4.44,6.9,0,6.9Z"/><path class="cls-3" d="M339.71,845.36c4.44,0,4.44-6.9,0-6.9s-4.45,6.9,0,6.9Z"/><path class="cls-3" d="M343.59,863.09c4.44,0,4.44-6.9,0-6.9s-4.45,6.9,0,6.9Z"/><path class="cls-3" d="M354.67,873.06c4.44,0,4.44-6.9,0-6.9s-4.45,6.9,0,6.9Z"/><path class="cls-3" d="M355.22,854.22c4.44,0,4.45-6.9,0-6.9s-4.45,6.9,0,6.9Z"/><path class="cls-3" d="M356.33,836.5c4.44,0,4.44-6.9,0-6.9s-4.45,6.9,0,6.9Z"/><path class="cls-3" d="M368,848.13c4.44,0,4.45-6.9,0-6.9s-4.45,6.9,0,6.9Z"/><path class="cls-3" d="M368,867c4.44,0,4.45-6.9,0-6.9s-4.45,6.9,0,6.9Z"/><path class="cls-3" d="M377.93,835.39c4.44,0,4.45-6.9,0-6.9s-4.44,6.9,0,6.9Z"/><path class="cls-3" d="M380.15,857c4.44,0,4.45-6.9,0-6.9s-4.45,6.9,0,6.9Z"/><path class="cls-3" d="M379.6,874.72c4.44,0,4.44-6.9,0-6.9s-4.45,6.9,0,6.9Z"/><path class="cls-3" d="M387.91,847c4.44,0,4.44-6.9,0-6.9s-4.45,6.9,0,6.9Z"/><path class="cls-3" d="M391.23,868.63c4.44,0,4.45-6.9,0-6.9s-4.45,6.9,0,6.9Z"/><path class="cls-3" d="M399,833.73c4.44,0,4.44-6.9,0-6.9s-4.45,6.9,0,6.9Z"/><path class="cls-3" d="M401.2,856.44c4.44,0,4.45-6.9,0-6.9s-4.44,6.9,0,6.9Z"/><path class="cls-3" d="M404.53,873.06c4.44,0,4.44-6.9,0-6.9s-4.45,6.9,0,6.9Z"/><path class="cls-3" d="M409,844.25c4.44,0,4.45-6.9,0-6.9s-4.45,6.9,0,6.9Z"/><path class="cls-3" d="M414,862c4.44,0,4.44-6.9,0-6.9s-4.45,6.9,0,6.9Z"/><path class="cls-3" d="M418.38,833.73c4.44,0,4.44-6.9,0-6.9s-4.45,6.9,0,6.9Z"/><path class="cls-3" d="M423.36,851.45c4.44,0,4.45-6.9,0-6.9s-4.44,6.9,0,6.9Z"/><path class="cls-3" d="M425.58,874.17c4.44,0,4.45-6.9,0-6.9s-4.45,6.9,0,6.9Z"/><path class="cls-3" d="M433.34,835.94c4.44,0,4.44-6.9,0-6.9s-4.45,6.9,0,6.9Z"/><path class="cls-3" d="M436.11,858.66c4.44,0,4.44-6.9,0-6.9s-4.45,6.9,0,6.9Z"/><path class="cls-3" d="M445.58,846.76c4.44,0,4.45-6.9,0-6.9s-4.45,6.9,0,6.9Z"/><path class="cls-3" d="M448.27,869.38c4.44,0,4.44-6.9,0-6.9s-4.45,6.9,0,6.9Z"/><path class="cls-3" d="M451,828.36c4.44,0,4.45-6.9,0-6.9s-4.45,6.9,0,6.9Z"/><path class="cls-3" d="M457.08,856.35c4.44,0,4.45-6.9,0-6.9s-4.45,6.9,0,6.9Z"/><path class="cls-3" d="M461.3,879.35c4.44,0,4.45-6.9,0-6.9s-4.45,6.9,0,6.9Z"/><path class="cls-3" d="M465.13,838c4.44,0,4.45-6.9,0-6.9s-4.45,6.9,0,6.9Z"/><path class="cls-3" d="M469.35,866.31c4.44,0,4.45-6.9,0-6.9s-4.45,6.9,0,6.9Z"/><path class="cls-3" d="M463.6,820.7c4.44,0,4.45-6.9,0-6.9s-4.45,6.9,0,6.9Z"/><path class="cls-3" d="M478.17,826.06c4.44,0,4.44-6.9,0-6.9s-4.45,6.9,0,6.9Z"/><path class="cls-3" d="M477.78,850.6c4.44,0,4.45-6.9,0-6.9s-4.45,6.9,0,6.9Z"/><path class="cls-3" d="M479.7,879.73c4.44,0,4.45-6.9,0-6.9s-4.45,6.9,0,6.9Z"/><path class="cls-3" d="M489.67,864.78c4.44,0,4.44-6.9,0-6.9s-4.45,6.9,0,6.9Z"/><path class="cls-3" d="M491.2,838.33c4.44,0,4.45-6.9,0-6.9s-4.45,6.9,0,6.9Z"/><path class="cls-3" d="M489.67,812.65c4.44,0,4.44-6.9,0-6.9s-4.45,6.9,0,6.9Z"/><path class="cls-3" d="M498.1,797.31c4.44,0,4.45-6.9,0-6.9s-4.45,6.9,0,6.9Z"/><path class="cls-3" d="M500.4,823c4.44,0,4.45-6.9,0-6.9s-4.45,6.9,0,6.9Z"/><path class="cls-3" d="M501.93,852.51c4.44,0,4.45-6.9,0-6.9s-4.45,6.9,0,6.9Z"/><path class="cls-3" d="M496.18,878.2c4.44,0,4.45-6.9,0-6.9s-4.45,6.9,0,6.9Z"/><path class="cls-3" d="M506.92,890.46c4.44,0,4.44-6.9,0-6.9s-4.45,6.9,0,6.9Z"/><path class="cls-3" d="M509.22,868.23c.38,0,.38,0,.76-.38"/><path class="cls-3" d="M509.22,871.68a4.32,4.32,0,0,0,3.2-1.39,3.45,3.45,0,1,0-4.88-4.88l-.28.27.7-.54-.13.08.82-.35-.07,0,.92-.12h-.28a3.45,3.45,0,0,0,0,6.9Z"/><path class="cls-3" d="M511.9,839.1c4.44,0,4.45-6.9,0-6.9s-4.45,6.9,0,6.9Z"/><path class="cls-3" d="M511.9,808.43c4.44,0,4.45-6.9,0-6.9s-4.45,6.9,0,6.9Z"/><path class="cls-3" d="M511.9,777.38c4.44,0,4.45-6.9,0-6.9s-4.45,6.9,0,6.9Z"/><path class="cls-3" d="M510.41,908.1c4.44,0,4.45-6.9,0-6.9s-4.44,6.9,0,6.9Z"/><path class="cls-3" d="M513.86,886.25c4.44,0,4.45-6.9,0-6.9s-4.44,6.9,0,6.9Z"/><path class="cls-3" d="M513.86,859c4.44,0,4.45-6.9,0-6.9s-4.44,6.9,0,6.9Z"/><path class="cls-3" d="M513.48,827.21c4.44,0,4.45-6.9,0-6.9s-4.45,6.9,0,6.9Z"/><path class="cls-3" d="M513.86,794.63c4.44,0,4.45-6.9,0-6.9s-4.44,6.9,0,6.9Z"/><path class="cls-3" d="M535.9,806.18c4.44,0,4.44-6.9,0-6.9s-4.45,6.9,0,6.9Z"/><path class="cls-3" d="M514.63,765.49c4.44,0,4.45-6.9,0-6.9s-4.45,6.9,0,6.9Z"/><path class="cls-3" d="M513.48,741c4.44,0,4.45-6.9,0-6.9s-4.45,6.9,0,6.9Z"/><path class="cls-3" d="M524.21,754.38c4.44,0,4.45-6.9,0-6.9s-4.44,6.9,0,6.9Z"/><path class="cls-3" d="M523.06,780.44c4.44,0,4.45-6.9,0-6.9s-4.44,6.9,0,6.9Z"/><path class="cls-3" d="M522.68,811.88c4.44,0,4.45-6.9,0-6.9s-4.45,6.9,0,6.9Z"/><path class="cls-3" d="M523.06,842.54c4.44,0,4.45-6.9,0-6.9s-4.44,6.9,0,6.9Z"/><path class="cls-3" d="M521.91,871.68c4.44,0,4.45-6.9,0-6.9s-4.44,6.9,0,6.9Z"/><path class="cls-3" d="M467.85,843.5c4.44,0,4.45-6.9,0-6.9s-4.44,6.9,0,6.9Z"/><path class="cls-3" d="M472.07,813.22c4.44,0,4.45-6.9,0-6.9s-4.45,6.9,0,6.9Z"/><path class="cls-3" d="M539.84,790.62c4.44,0,4.44-6.9,0-6.9s-4.45,6.9,0,6.9Z"/><path class="cls-3" d="M542.52,764.17c4.44,0,4.45-6.9,0-6.9s-4.45,6.9,0,6.9Z"/><path class="cls-3" d="M378.88,566.16l.38.38"/><path class="cls-3" d="M376.44,568.6l.38.38a3.45,3.45,0,0,0,4.88-4.88l-.38-.38a3.45,3.45,0,0,0-4.88,4.88Z"/><path class="cls-3" d="M386.55,579.58c4.44,0,4.44-6.9,0-6.9s-4.45,6.9,0,6.9Z"/><path class="cls-3" d="M398.43,569.61c4.44,0,4.45-6.9,0-6.9s-4.45,6.9,0,6.9Z"/><path class="cls-3" d="M414.15,565c4.44,0,4.44-6.9,0-6.9s-4.45,6.9,0,6.9Z"/><path class="cls-3" d="M430.25,566.16c4.44,0,4.44-6.9,0-6.9s-4.45,6.9,0,6.9Z"/><path class="cls-3" d="M450.18,570.38c4.44,0,4.45-6.9,0-6.9s-4.45,6.9,0,6.9Z"/><path class="cls-3" d="M464.36,578.81c4.44,0,4.45-6.9,0-6.9s-4.44,6.9,0,6.9Z"/><path class="cls-3" d="M480.46,591.46c4.44,0,4.45-6.9,0-6.9s-4.44,6.9,0,6.9Z"/><path class="cls-3" d="M492.35,606.41c4.44,0,4.44-6.9,0-6.9s-4.45,6.9,0,6.9Z"/><path class="cls-3" d="M501.55,620.59c4.44,0,4.44-6.9,0-6.9s-4.45,6.9,0,6.9Z"/><path class="cls-3" d="M513.81,641.68c4.44,0,4.45-6.9,0-6.9s-4.44,6.9,0,6.9Z"/><path class="cls-3" d="M512.71,667.36c4.44,0,4.45-6.9,0-6.9s-4.44,6.9,0,6.9Z"/><path class="cls-3" d="M515.4,686.53c4.44,0,4.44-6.9,0-6.9s-4.45,6.9,0,6.9Z"/><path class="cls-3" d="M516.93,714.13c4.44,0,4.45-6.9,0-6.9s-4.45,6.9,0,6.9Z"/><path class="cls-3" d="M530.64,754.58c4.44,0,4.44-6.9,0-6.9s-4.45,6.9,0,6.9Z"/><path class="cls-3" d="M530.64,725.45c4.44,0,4.44-6.9,0-6.9s-4.45,6.9,0,6.9Z"/><path class="cls-3" d="M529.87,699.77c4.44,0,4.45-6.9,0-6.9s-4.45,6.9,0,6.9Z"/><path class="cls-3" d="M521.53,652.41c4.44,0,4.45-6.9,0-6.9s-4.45,6.9,0,6.9Z"/><path class="cls-3" d="M510.41,626c4.44,0,4.45-6.9,0-6.9s-4.44,6.9,0,6.9Z"/><path class="cls-3" d="M509.21,608.33c4.44,0,4.45-6.9,0-6.9s-4.44,6.9,0,6.9Z"/><path class="cls-3" d="M513.1,612.16c4.44,0,4.44-6.9,0-6.9s-4.45,6.9,0,6.9Z"/><path class="cls-3" d="M523.45,636.69c4.44,0,4.44-6.9,0-6.9s-4.45,6.9,0,6.9Z"/><path class="cls-3" d="M536,684.82c4.44,0,4.45-6.9,0-6.9s-4.44,6.9,0,6.9Z"/><path class="cls-3" d="M541,713.57c4.44,0,4.44-6.9,0-6.9s-4.45,6.9,0,6.9Z"/><path class="cls-3" d="M541,739.63c4.44,0,4.44-6.9,0-6.9s-4.45,6.9,0,6.9Z"/><path class="cls-3" d="M389.23,562.33c4.44,0,4.45-6.9,0-6.9s-4.45,6.9,0,6.9Z"/><path class="cls-3" d="M402.26,555c4.44,0,4.45-6.9,0-6.9s-4.44,6.9,0,6.9Z"/><path class="cls-3" d="M422.2,553.51c4.44,0,4.44-6.9,0-6.9s-4.45,6.9,0,6.9Z"/><path class="cls-3" d="M435.61,551.59c4.44,0,4.45-6.9,0-6.9s-4.44,6.9,0,6.9Z"/><path class="cls-3" d="M412.23,545.84c4.44,0,4.45-6.9,0-6.9s-4.45,6.9,0,6.9Z"/><path class="cls-3" d="M393.83,545.46c4.44,0,4.45-6.9,0-6.9s-4.45,6.9,0,6.9Z"/><path class="cls-3" d="M222.7,126c4.44,0,4.44-6.9,0-6.9s-4.45,6.9,0,6.9Z"/><path class="cls-3" d="M208.11,135.27c4.44,0,4.44-6.9,0-6.9s-4.45,6.9,0,6.9Z"/><path class="cls-3" d="M230.65,139.91c4.44,0,4.45-6.9,0-6.9s-4.44,6.9,0,6.9Z"/><path class="cls-3" d="M199.49,152.51c4.44,0,4.44-6.9,0-6.9s-4.45,6.9,0,6.9Z"/><path class="cls-3" d="M218.72,149.85c4.44,0,4.45-6.9,0-6.9s-4.45,6.9,0,6.9Z"/><path class="cls-3" d="M231.32,161.13c4.44,0,4.44-6.9,0-6.9s-4.45,6.9,0,6.9Z"/><path class="cls-3" d="M205.45,167.76c4.44,0,4.45-6.9,0-6.9s-4.44,6.9,0,6.9Z"/><path class="cls-3" d="M220,171.74c4.44,0,4.45-6.9,0-6.9s-4.44,6.9,0,6.9Z"/><path class="cls-3" d="M194.18,184.34c4.44,0,4.45-6.9,0-6.9s-4.45,6.9,0,6.9Z"/><path class="cls-3" d="M208.77,183.67c4.44,0,4.45-6.9,0-6.9s-4.45,6.9,0,6.9Z"/><path class="cls-3" d="M223.36,189.64c4.44,0,4.45-6.9,0-6.9s-4.45,6.9,0,6.9Z"/><path class="cls-3" d="M201.48,197.6c4.44,0,4.44-6.9,0-6.9s-4.45,6.9,0,6.9Z"/><path class="cls-3" d="M212.09,200.92c4.44,0,4.44-6.9,0-6.9s-4.45,6.9,0,6.9Z"/><path class="cls-3" d="M188.88,208.87c4.44,0,4.44-6.9,0-6.9s-4.45,6.9,0,6.9Z"/><path class="cls-3" d="M200.15,216.17c4.44,0,4.45-6.9,0-6.9s-4.45,6.9,0,6.9Z"/><path class="cls-3" d="M216.73,216.17c4.44,0,4.45-6.9,0-6.9s-4.45,6.9,0,6.9Z"/><path class="cls-3" d="M188.88,228.1c4.44,0,4.44-6.9,0-6.9s-4.45,6.9,0,6.9Z"/><path class="cls-3" d="M208.11,230.76c4.44,0,4.44-6.9,0-6.9s-4.45,6.9,0,6.9Z"/><path class="cls-3" d="M179.59,246.67c4.44,0,4.45-6.9,0-6.9s-4.44,6.9,0,6.9Z"/><path class="cls-3" d="M196.17,243.36c4.44,0,4.45-6.9,0-6.9s-4.45,6.9,0,6.9Z"/><path class="cls-3" d="M208.11,252c4.44,0,4.44-6.9,0-6.9s-4.45,6.9,0,6.9Z"/><path class="cls-3" d="M190.87,260.6c4.44,0,4.44-6.9,0-6.9s-4.45,6.9,0,6.9Z"/><path class="cls-3" d="M176.94,269.88c4.44,0,4.45-6.9,0-6.9s-4.45,6.9,0,6.9Z"/><path class="cls-3" d="M201.48,273.2c4.44,0,4.44-6.9,0-6.9s-4.45,6.9,0,6.9Z"/><path class="cls-3" d="M188.88,281.82c4.44,0,4.44-6.9,0-6.9s-4.45,6.9,0,6.9Z"/><path class="cls-3" d="M175,297.07c4.44,0,4.45-6.9,0-6.9s-4.45,6.9,0,6.9Z"/><path class="cls-3" d="M194.18,299.06c4.44,0,4.45-6.9,0-6.9s-4.45,6.9,0,6.9Z"/><path class="cls-3" d="M183.57,311.66c4.44,0,4.45-6.9,0-6.9s-4.45,6.9,0,6.9Z"/><path class="cls-3" d="M171,322.93c4.44,0,4.45-6.9,0-6.9s-4.44,6.9,0,6.9Z"/><path class="cls-3" d="M189.54,326.91c4.44,0,4.45-6.9,0-6.9s-4.45,6.9,0,6.9Z"/><path class="cls-3" d="M176.28,338.18c4.44,0,4.44-6.9,0-6.9s-4.45,6.9,0,6.9Z"/><path class="cls-3" d="M168.32,354.76c4.44,0,4.45-6.9,0-6.9s-4.45,6.9,0,6.9Z"/><path class="cls-3" d="M182.91,356.09c4.44,0,4.45-6.9,0-6.9s-4.45,6.9,0,6.9Z"/><path class="cls-3" d="M175,371.34c4.44,0,4.45-6.9,0-6.9s-4.45,6.9,0,6.9Z"/><path class="cls-3" d="M165,383.28c4.44,0,4.45-6.9,0-6.9s-4.44,6.9,0,6.9Z"/><path class="cls-3" d="M176.94,389.24c4.44,0,4.45-6.9,0-6.9s-4.45,6.9,0,6.9Z"/><path class="cls-3" d="M166.33,404.5c4.44,0,4.45-6.9,0-6.9s-4.45,6.9,0,6.9Z"/><path class="cls-3" d="M159.7,421.07c4.44,0,4.45-6.9,0-6.9s-4.45,6.9,0,6.9Z"/><path class="cls-3" d="M175.61,415.77c4.44,0,4.45-6.9,0-6.9s-4.44,6.9,0,6.9Z"/><path class="cls-3" d="M167.66,433c4.44,0,4.44-6.9,0-6.9s-4.45,6.9,0,6.9Z"/><path class="cls-3" d="M159.7,449.59c4.44,0,4.45-6.9,0-6.9s-4.45,6.9,0,6.9Z"/><path class="cls-3" d="M170.31,452.24c4.44,0,4.45-6.9,0-6.9s-4.45,6.9,0,6.9Z"/><path class="cls-3" d="M165,466.83c4.44,0,4.45-6.9,0-6.9s-4.44,6.9,0,6.9Z"/><path class="cls-3" d="M161,482.75c4.44,0,4.44-6.9,0-6.9s-4.45,6.9,0,6.9Z"/><path class="cls-3" d="M168.32,490.7c4.44,0,4.45-6.9,0-6.9s-4.45,6.9,0,6.9Z"/><path class="cls-3" d="M163.68,507.28c4.44,0,4.44-6.9,0-6.9s-4.45,6.9,0,6.9Z"/><path class="cls-3" d="M167,524.52c4.44,0,4.45-6.9,0-6.9s-4.44,6.9,0,6.9Z"/><path class="cls-3" d="M167.66,543.09c4.44,0,4.44-6.9,0-6.9s-4.45,6.9,0,6.9Z"/><path class="cls-3" d="M169,560.33c4.44,0,4.45-6.9,0-6.9s-4.44,6.9,0,6.9Z"/><path class="cls-3" d="M171.64,578.9c4.44,0,4.44-6.9,0-6.9s-4.45,6.9,0,6.9Z"/><path class="cls-3" d="M176.94,601.45c4.44,0,4.45-6.9,0-6.9s-4.45,6.9,0,6.9Z"/><path class="cls-3" d="M185.56,618.69c4.44,0,4.45-6.9,0-6.9s-4.45,6.9,0,6.9Z"/><path class="cls-3" d="M192.86,634.6c4.44,0,4.44-6.9,0-6.9s-4.45,6.9,0,6.9Z"/><path class="cls-3" d="M200.15,647.86c4.44,0,4.45-6.9,0-6.9s-4.45,6.9,0,6.9Z"/><path class="cls-3" d="M210.1,641.9c4.44,0,4.44-6.9,0-6.9s-4.45,6.9,0,6.9Z"/><path class="cls-3" d="M210.1,655.16c4.44,0,4.44-6.9,0-6.9s-4.45,6.9,0,6.9Z"/><path class="cls-3" d="M511.58,125.69c4.44,0,4.45-6.9,0-6.9s-4.44,6.9,0,6.9Z"/><path class="cls-3" d="M526.56,134.34c4.44,0,4.44-6.9,0-6.9s-4.45,6.9,0,6.9Z"/><path class="cls-3" d="M504.23,139.94c4.44,0,4.45-6.9,0-6.9s-4.45,6.9,0,6.9Z"/><path class="cls-3" d="M535.91,151.2c4.44,0,4.45-6.9,0-6.9s-4.45,6.9,0,6.9Z"/><path class="cls-3" d="M516.58,149.37c4.44,0,4.45-6.9,0-6.9s-4.45,6.9,0,6.9Z"/><path class="cls-3" d="M504.47,161.17c4.44,0,4.45-6.9,0-6.9s-4.44,6.9,0,6.9Z"/><path class="cls-3" d="M530.59,166.69c4.44,0,4.45-6.9,0-6.9s-4.44,6.9,0,6.9Z"/><path class="cls-3" d="M516.19,171.29c4.44,0,4.45-6.9,0-6.9s-4.45,6.9,0,6.9Z"/><path class="cls-3" d="M542.57,182.77c4.44,0,4.44-6.9,0-6.9s-4.45,6.9,0,6.9Z"/><path class="cls-3" d="M528,182.73c4.44,0,4.45-6.9,0-6.9s-4.44,6.9,0,6.9Z"/><path class="cls-3" d="M513.64,189.32c4.44,0,4.45-6.9,0-6.9s-4.44,6.9,0,6.9Z"/><path class="cls-3" d="M535.84,196.34c4.44,0,4.45-6.9,0-6.9s-4.44,6.9,0,6.9Z"/><path class="cls-3" d="M548.92,207.06c4.44,0,4.44-6.9,0-6.9s-4.45,6.9,0,6.9Z"/><path class="cls-3" d="M538,214.83c4.44,0,4.45-6.9,0-6.9s-4.44,6.9,0,6.9Z"/><path class="cls-3" d="M521.4,215.54c4.44,0,4.45-6.9,0-6.9s-4.44,6.9,0,6.9Z"/><path class="cls-3" d="M549.74,226.27c4.44,0,4.44-6.9,0-6.9s-4.45,6.9,0,6.9Z"/><path class="cls-3" d="M530.64,229.74c4.44,0,4.45-6.9,0-6.9s-4.45,6.9,0,6.9Z"/><path class="cls-3" d="M559.8,244.43c4.44,0,4.45-6.9,0-6.9s-4.44,6.9,0,6.9Z"/><path class="cls-3" d="M543.1,241.82c4.44,0,4.45-6.9,0-6.9s-4.44,6.9,0,6.9Z"/><path class="cls-3" d="M531.54,250.94c4.44,0,4.45-6.9,0-6.9s-4.44,6.9,0,6.9Z"/><path class="cls-3" d="M549.14,258.82c4.44,0,4.45-6.9,0-6.9s-4.45,6.9,0,6.9Z"/><path class="cls-3" d="M563.45,267.5c4.44,0,4.45-6.9,0-6.9s-4.45,6.9,0,6.9Z"/><path class="cls-3" d="M539.08,271.86c4.44,0,4.44-6.9,0-6.9s-4.45,6.9,0,6.9Z"/><path class="cls-3" d="M552,279.94c4.44,0,4.45-6.9,0-6.9s-4.44,6.9,0,6.9Z"/><path class="cls-3" d="M566.6,294.58c4.44,0,4.44-6.9,0-6.9s-4.45,6.9,0,6.9Z"/><path class="cls-3" d="M547.47,297.39c4.44,0,4.45-6.9,0-6.9s-4.45,6.9,0,6.9Z"/><path class="cls-3" d="M558.61,309.52c4.44,0,4.45-6.9,0-6.9s-4.45,6.9,0,6.9Z"/><path class="cls-3" d="M571.67,320.25c4.44,0,4.45-6.9,0-6.9s-4.44,6.9,0,6.9Z"/><path class="cls-3" d="M553.3,325c4.44,0,4.44-6.9,0-6.9s-4.45,6.9,0,6.9Z"/><path class="cls-3" d="M567,335.71c4.44,0,4.45-6.9,0-6.9s-4.45,6.9,0,6.9Z"/><path class="cls-3" d="M575.69,351.94c4.44,0,4.45-6.9,0-6.9s-4.45,6.9,0,6.9Z"/><path class="cls-3" d="M561.17,353.88c4.44,0,4.45-6.9,0-6.9s-4.45,6.9,0,6.9Z"/><path class="cls-3" d="M569.77,368.78c4.44,0,4.45-6.9,0-6.9s-4.44,6.9,0,6.9Z"/><path class="cls-3" d="M580.22,380.28c4.44,0,4.45-6.9,0-6.9s-4.45,6.9,0,6.9Z"/><path class="cls-3" d="M568.55,386.76c4.44,0,4.45-6.9,0-6.9s-4.45,6.9,0,6.9Z"/><path class="cls-3" d="M579.8,401.54c4.44,0,4.45-6.9,0-6.9s-4.44,6.9,0,6.9Z"/><path class="cls-3" d="M587.14,417.82c4.44,0,4.44-6.9,0-6.9s-4.45,6.9,0,6.9Z"/><path class="cls-3" d="M571,413.2c4.44,0,4.44-6.9,0-6.9s-4.45,6.9,0,6.9Z"/><path class="cls-3" d="M579.7,430.09c4.44,0,4.44-6.9,0-6.9s-4.45,6.9,0,6.9Z"/><path class="cls-3" d="M588.36,446.31c4.44,0,4.44-6.9,0-6.9s-4.45,6.9,0,6.9Z"/><path class="cls-3" d="M577.87,449.41c4.44,0,4.44-6.9,0-6.9s-4.45,6.9,0,6.9Z"/><path class="cls-3" d="M583.79,463.76c4.44,0,4.45-6.9,0-6.9s-4.44,6.9,0,6.9Z"/><path class="cls-3" d="M588.45,479.49c4.44,0,4.44-6.9,0-6.9s-4.45,6.9,0,6.9Z"/><path class="cls-3" d="M581.5,487.75c4.44,0,4.45-6.9,0-6.9s-4.45,6.9,0,6.9Z"/><path class="cls-3" d="M586.84,504.12c4.44,0,4.45-6.9,0-6.9s-4.44,6.9,0,6.9Z"/><path class="cls-3" d="M584.27,521.49c4.44,0,4.45-6.9,0-6.9s-4.45,6.9,0,6.9Z"/><path class="cls-3" d="M584.4,540.07c4.44,0,4.45-6.9,0-6.9s-4.45,6.9,0,6.9Z"/><path class="cls-3" d="M583.81,557.35c4.44,0,4.45-6.9,0-6.9s-4.44,6.9,0,6.9Z"/><path class="cls-3" d="M582,576c4.44,0,4.44-6.9,0-6.9s-4.45,6.9,0,6.9Z"/><path class="cls-3" d="M577.62,598.76c4.44,0,4.45-6.9,0-6.9s-4.45,6.9,0,6.9Z"/><path class="cls-3" d="M569.75,616.36c4.44,0,4.44-6.9,0-6.9s-4.45,6.9,0,6.9Z"/><path class="cls-3" d="M563.14,632.57c4.43,0,4.44-6.9,0-6.9s-4.45,6.9,0,6.9Z"/><path class="cls-3" d="M556.41,646.13c4.44,0,4.45-6.9,0-6.9s-4.44,6.9,0,6.9Z"/><path class="cls-3" d="M546.22,640.6c4.44,0,4.45-6.9,0-6.9s-4.45,6.9,0,6.9Z"/><path class="cls-3" d="M546.79,653.85c4.44,0,4.45-6.9,0-6.9s-4.45,6.9,0,6.9Z"/><path class="cls-4" d="M518,700.86c2.17,53.68,8.45,129-141.62,129-116.31,0-127.28-73.83-127.28-134.51,0-55.93,42.52-124.07,99.2-125.76,26.95-.76,32.49,15.34,36.94,19.54,2.53-4.57,9.83-19.63,38.56-19.15C470.91,568.49,515,627.2,518,700.86Z"/><path class="cls-5" d="M306,736.2a10.09,10.09,0,1,1-8.41-11.53A10.1,10.1,0,0,1,306,736.2Z"/><path class="cls-5" d="M479.28,733.71a8.47,8.47,0,1,1-7.06-9.68A8.49,8.49,0,0,1,479.28,733.71Z"/><path class="cls-6" d="M380,661.79c0,28.43-22.2,51.49-49.6,51.48s-49.59-23-49.59-51.48,22.21-51.48,49.59-51.48S380,633.35,380,661.79Z"/><path class="cls-4" d="M355.58,660.2c0,13.91-11,25.18-24.51,25.18s-24.52-11.27-24.52-25.18,11-25.18,24.52-25.18S355.58,646.3,355.58,660.2Z"/><path class="cls-6" d="M342.7,658.49A11.16,11.16,0,1,1,331.55,647,11.32,11.32,0,0,1,342.7,658.49Z"/><path class="cls-6" d="M326.35,674.66a4.58,4.58,0,1,1-4.58-4.7A4.65,4.65,0,0,1,326.35,674.66Z"/><path class="cls-7" d="M302.14,599.75c-1.44-3.68.31-6.35,2.83-6.86a4.52,4.52,0,0,1,5.52,4c.56,3-.29,6.76-1.91,10.2C308.58,607.06,303.43,603,302.14,599.75Z"/><path class="cls-7" d="M321.4,594.9c-.75-3.87,1.44-6.19,4-6.24a4.53,4.53,0,0,1,4.71,4.9c0,3.09-1.49,6.6-3.71,9.7C326.41,603.26,322.07,598.36,321.4,594.9Z"/><path class="cls-7" d="M341.42,595.17c.31-3.94,3.06-5.58,5.54-4.94a4.53,4.53,0,0,1,3.24,6c-.82,3-3.21,5.95-6.18,8.34C344,604.56,341.15,598.68,341.42,595.17Z"/><path class="cls-6" d="M386.74,661.62c0,28.43,22.21,51.49,49.61,51.49s49.59-23.06,49.59-51.49-22.21-51.48-49.59-51.48S386.74,633.19,386.74,661.62Z"/><path class="cls-4" d="M411.16,660c0,13.91,11,25.18,24.52,25.18s24.51-11.27,24.51-25.18-11-25.18-24.51-25.18S411.16,646.13,411.16,660Z"/><path class="cls-6" d="M424,658.32a11.16,11.16,0,1,0,11.15-11.45A11.31,11.31,0,0,0,424,658.32Z"/><path class="cls-6" d="M440.4,674.49a4.58,4.58,0,1,0,4.57-4.7A4.64,4.64,0,0,0,440.4,674.49Z"/><path class="cls-7" d="M464.6,599.58c1.44-3.68-.31-6.35-2.83-6.86a4.52,4.52,0,0,0-5.52,4c-.56,3,.28,6.76,1.91,10.21C458.16,606.9,463.32,602.86,464.6,599.58Z"/><path class="cls-7" d="M445.34,594.73c.76-3.87-1.44-6.19-4-6.24a4.54,4.54,0,0,0-4.72,4.91c0,3.08,1.5,6.59,3.72,9.68C440.33,603.08,444.67,598.19,445.34,594.73Z"/><path class="cls-7" d="M425.32,595c-.31-3.94-3.06-5.58-5.54-4.94a4.54,4.54,0,0,0-3.24,6c.82,3,3.21,6,6.18,8.34C422.72,604.39,425.6,598.51,425.32,595Z"/><path class="cls-8" d="M395.51,724.39c1.91,10.78-4.31,17.13-11.43,17.13s-13-4.92-12.9-13.82c.13-8.56,4.46-18.28,10.77-26.75C382,701,393.8,714.76,395.51,724.39Z"/><path class="cls-6" d="M431.21,786c0,14.81-19.91,26.81-44.47,26.81s-44.47-12-44.47-26.81,19.91-26.81,44.47-26.81S431.21,771.19,431.21,786Z"/><path class="cls-4" d="M374.81,763.45c1.81,2.67,10.61,40.75,10.61,40.75s7.77-33.59,9.5-40.75C392,761.64,381.66,760.3,374.81,763.45Z"/><path class="cls-9" d="M268.17,599.26c-24.52-7.83-19.64-76.67-16.18-76.85s59.06-8.77,79.93,34.12C285.78,569.45,277.21,591.42,268.17,599.26Z"/><path class="cls-9" d="M501.15,599.26c24.52-7.83,19.64-76.67,16.18-76.85s-59.06-8.77-79.94,34.12C483.54,569.45,492.11,591.42,501.15,599.26Z"/><path class="cls-10" d="M271.06,584.84c-16.59-5.29-13.29-51.88-10.95-52s40-5.94,54.09,23.08C283,564.68,277.18,579.54,271.06,584.84Z"/><path class="cls-10" d="M497.74,583.72c16.59-5.3,13.29-51.88,10.95-52s-40-5.94-54.09,23.09C485.82,563.55,491.62,578.42,497.74,583.72Z"/><path class="cls-7" d="M739.67,861.2s-92.61,25.15-140.16,24.2-172.86-28-207-28S212.2,887.51,164.8,883,56.46,862.1,56.46,862.1L52.2,836.35s71.3,20.58,111.25,20.58S342.22,837,393.39,836.35s149.92,20.11,206.12,21,146.06-21,146.06-21Z"/></svg>