<?xml version="1.0" encoding="utf-8"?>
<!-- Generator: Adobe Illustrator 19.2.1, SVG Export Plug-In . SVG Version: 6.00 Build 0)  -->
<svg version="1.1" id="Capa_1" xmlns="http://www.w3.org/2000/svg" xmlns:xlink="http://www.w3.org/1999/xlink" x="0px" y="0px"
	 viewBox="0 0 1410 1200" style="enable-background:new 0 0 1410 1200;" xml:space="preserve">
<style type="text/css">
	.st0{fill:#E91E79;}
	.st1{fill:#BD272D;}
	.st2{fill:#29A7DE;}
	.st3{fill:#87DE3F;}
	.st4{fill:#FFFFFF;}
	.st5{fill:#1D1D1B;}
	.st6{fill:#29AAE1;}
	.st7{fill:#FFFF00;}
	.st8{fill:#F7AC3B;}
	.st9{fill:#E2E2E2;}
</style>
<path class="st0" d="M1407.9,544.1c0,0-340.4-479.9-713.6-334.6C321.2,354.8,470.5,957.6,342.5,970.6
	c-83.3,8.5-146.7-216.7-133.6-345.6c12.2-119.6,17.4-216.2-9.5-210.1c-32.5,2.5-50.9,111.7-50.9,111.7S134.4,417.3,102,422.3
	C69.6,427.4,76.7,533,76.7,533s-20.5-123.6-60.9-99.4c-35.3,21.1-1.8,58.6,5.5,142.5c16.2,184.4,9.5,514.7,247.2,603.9
	c214.6,80.5,223-107.7,223-107.7s-2.3,40.5-3.3,109.8c467.3-1.6,920.2,0,920.2,0L1407.9,544.1z"/>
<g>
	<g>
		<path class="st1" d="M801.6,193.3c-10-2-19.1-4-28.8,0.2c-5.4,2.3-0.7,10.1,4.6,7.8c7-3,14.7-0.7,21.8,0.8
			C804.8,203.2,807.3,194.5,801.6,193.3L801.6,193.3z"/>
	</g>
</g>
<g>
	<g>
		<path class="st1" d="M743.2,201.6c-8.2,0.8-14.6,6-22.5,7.7c-5.7,1.3-3.3,10,2.4,8.8c7-1.6,12.9-6.7,20-7.4
			C749,210.2,749,201.1,743.2,201.6L743.2,201.6z"/>
	</g>
</g>
<g>
	<g>
		<path class="st1" d="M693.2,220.5c-5.5,5.2-14,5.8-20,10.6c-4.5,3.7,1.9,10.1,6.4,6.4c6-4.9,14.2-5.1,20-10.6
			C703.9,222.9,697.5,216.5,693.2,220.5L693.2,220.5z"/>
	</g>
</g>
<g>
	<g>
		<path class="st1" d="M647.7,244c-5.1,4.4-11.1,7.7-17.2,10.3c-2.3,1-2.7,4.3-1.6,6.2c1.3,2.4,4,2.6,6.2,1.6
			c6.9-2.9,13.4-6.7,19.1-11.7C658.5,246.5,652.1,240.1,647.7,244L647.7,244z"/>
	</g>
</g>
<g>
	<g>
		<path class="st1" d="M782,209.8c-9.2-1-17.6,2.4-26.2,5.1c-5.6,1.7-3.2,10.5,2.4,8.8c7.8-2.5,15.4-5.7,23.7-4.8
			C787.8,219.5,787.8,210.4,782,209.8L782,209.8z"/>
	</g>
</g>
<g>
	<g>
		<path class="st1" d="M733.3,226.9c-7.1,2.3-15.9,1.6-21.2,7.7c-3.8,4.4,2.6,10.9,6.4,6.4c3.8-4.4,11.9-3.7,17.2-5.4
			C741.2,233.8,738.9,225.1,733.3,226.9L733.3,226.9z"/>
	</g>
</g>
<g>
	<g>
		<path class="st1" d="M690.2,245.1c-7.5,2.1-15.5,5.3-20.9,11.1c-4,4.3,2.4,10.7,6.4,6.4c4.4-4.7,10.9-7,16.9-8.7
			C698.2,252.3,695.8,243.5,690.2,245.1L690.2,245.1z"/>
	</g>
</g>
<g>
	<g>
		<path class="st1" d="M816.7,231.1c-8-1.6-15.9-3.6-23.9-5.2c-5.7-1.2-8.2,7.6-2.4,8.8c8,1.6,15.9,3.6,23.9,5.2
			C820,241,822.4,232.3,816.7,231.1L816.7,231.1z"/>
	</g>
</g>
<g>
	<g>
		<path class="st1" d="M771.1,231.6c-9.1,1.2-19.1,2.1-26.3,8.5c-4.4,3.9,2.1,10.3,6.4,6.4c5.1-4.5,13.4-5,19.8-5.9
			C776.8,239.9,776.9,230.8,771.1,231.6L771.1,231.6z"/>
	</g>
</g>
<g>
	<g>
		<path class="st1" d="M720.9,261.8c5.8,0,5.9-9.1,0-9.1C715,252.7,715,261.8,720.9,261.8L720.9,261.8z"/>
	</g>
</g>
<g>
	<g>
		<path class="st1" d="M717.3,252.9c-8.2,2.7-14.4,9.4-22.6,12c-5.6,1.7-3.2,10.5,2.4,8.8c8.3-2.6,14.4-9.3,22.6-12
			C725.3,259.8,722.9,251,717.3,252.9L717.3,252.9z"/>
	</g>
</g>
<g>
	<g>
		<path class="st1" d="M695.8,294.3c4.8-5.2,12.5-6.1,18.5-9.6c5.1-2.9,0.5-10.8-4.6-7.8c-6.8,3.9-14.8,5-20.3,11
			C685.3,292.2,691.7,298.6,695.8,294.3L695.8,294.3z"/>
	</g>
</g>
<g>
	<g>
		<path class="st1" d="M738.6,273.6c7.2-4,14.6-6.5,22.7-8c5.7-1.1,3.3-9.8-2.4-8.8c-8.8,1.6-17,4.6-24.9,8.9
			C728.9,268.6,733.5,276.5,738.6,273.6L738.6,273.6z"/>
	</g>
</g>
<g>
	<g>
		<path class="st1" d="M786.7,259.3c7.5,0.4,15.1-0.8,22.4,1.7c5.5,1.9,7.9-6.9,2.4-8.8c-8.1-2.8-16.5-1.5-24.8-2
			C780.9,249.8,780.9,258.9,786.7,259.3L786.7,259.3z"/>
	</g>
</g>
<g>
	<g>
		<path class="st1" d="M831.9,279.6c-5.8-4.5-11.1-9.4-18.4-11c-5.7-1.3-8.1,7.5-2.4,8.8c5.8,1.3,9.9,5.1,14.4,8.7
			c1.9,1.5,4.5,1.9,6.4,0C833.5,284.4,833.8,281.1,831.9,279.6L831.9,279.6z"/>
	</g>
</g>
<g>
	<g>
		<path class="st1" d="M791.4,268.4c-7.4-1.8-18.5-1.5-24.8,3.3c-4.6,3.5,0,11.4,4.6,7.8c4.4-3.4,12.5-3.7,17.8-2.4
			C794.7,278.6,797.1,269.9,791.4,268.4L791.4,268.4z"/>
	</g>
</g>
<g>
	<g>
		<path class="st1" d="M748.7,280.8c-8.5,0.4-17,3.3-24.4,7.5c-5.1,2.9-0.5,10.8,4.6,7.8c5.9-3.4,12.9-6,19.8-6.3
			C754.5,289.6,754.6,280.5,748.7,280.8L748.7,280.8z"/>
	</g>
</g>
<g>
	<g>
		<path class="st1" d="M791.9,300.8c8.9,1.8,16.4,5.4,24.1,10.2c5,3.1,9.6-4.8,4.6-7.8c-8.3-5.1-16.7-9.1-26.3-11.1
			C788.6,290.9,786.1,299.6,791.9,300.8L791.9,300.8z"/>
	</g>
</g>
<g>
	<g>
		<path class="st1" d="M750.5,308.4c6.6-2.8,12.5-8.3,20-7.7c5.8,0.5,5.8-8.6,0-9.1c-9.4-0.8-16.5,5.5-24.6,8.9
			C740.5,302.8,745.2,310.7,750.5,308.4L750.5,308.4z"/>
	</g>
</g>
<g>
	<g>
		<path class="st1" d="M716.6,322.9c4.7-3.5,10-6,14.5-9.8c1.9-1.6,1.6-4.8,0-6.4c-1.9-1.9-4.5-1.6-6.4,0c-3.9,3.2-8.6,5.4-12.6,8.4
			c-2,1.5-3,3.9-1.6,6.2C711.5,323.2,714.6,324.3,716.6,322.9L716.6,322.9z"/>
	</g>
</g>
<g>
	<g>
		<path class="st1" d="M680.7,346.9c5.2-5.4,11.4-9.1,18.4-11.7c5.4-2,3.1-10.8-2.4-8.8c-8.5,3.1-16.1,7.5-22.4,14.1
			C670.2,344.6,676.6,351.1,680.7,346.9L680.7,346.9z"/>
	</g>
</g>
<g>
	<g>
		<path class="st1" d="M639.6,378.7c6.5-5.8,12.8-11.8,20.3-16.3c5-3,0.5-10.8-4.6-7.8c-8.2,4.8-15.1,11.3-22.1,17.7
			C628.8,376.2,635.3,382.6,639.6,378.7L639.6,378.7z"/>
	</g>
</g>
<g>
	<g>
		<path class="st1" d="M613.2,408.9c2.3-5.7,6.8-9.4,11.3-13.4c4.4-3.9-2.1-10.3-6.4-6.4c-5.8,5.2-10.6,10.1-13.6,17.4
			c-0.9,2.3,1,5,3.2,5.6C610.2,412.8,612.3,411.1,613.2,408.9L613.2,408.9z"/>
	</g>
</g>
<g>
	<g>
		<path class="st1" d="M591.8,443.7c1.2-5.8,3.8-13.1,9.2-16.2c5-3,0.5-10.8-4.6-7.8c-7.4,4.4-11.6,13.5-13.4,21.6
			C581.8,446.9,590.6,449.4,591.8,443.7L591.8,443.7z"/>
	</g>
</g>
<g>
	<g>
		<path class="st1" d="M637.8,401.9c4.4-4.6,8-9.9,13.1-13.9c1.9-1.5,1.6-4.8,0-6.4c-1.9-1.9-4.5-1.5-6.4,0
			c-5.1,3.9-8.6,9.3-13.1,13.9C627.3,399.6,633.7,406.1,637.8,401.9L637.8,401.9z"/>
	</g>
</g>
<g>
	<g>
		<path class="st1" d="M674.6,370.6c2.6-2.4,5.2-5.7,8.6-7.1c2.3-0.9,3.9-3,3.2-5.6c-0.6-2.1-3.3-4.1-5.6-3.2
			c-5.1,2.1-8.6,5.8-12.6,9.4C663.8,368.1,670.3,374.5,674.6,370.6L674.6,370.6z"/>
	</g>
</g>
<g>
	<g>
		<path class="st1" d="M676.1,281.1c5.8,0,5.9-9.1,0-9.1C670.3,272.1,670.3,281.1,676.1,281.1L676.1,281.1z"/>
	</g>
</g>
<g>
	<g>
		<path class="st1" d="M712.1,345.1c6.2-5.1,14.3-7.3,21.2-11.4c5-3,0.5-10.8-4.6-7.8c-7.6,4.5-16.1,7.1-23.1,12.8
			C701.1,342.3,707.6,348.7,712.1,345.1L712.1,345.1z"/>
	</g>
</g>
<g>
	<g>
		<path class="st1" d="M762.3,323.6c8.3-1,22.2-6.5,29.5-0.5c4.5,3.7,11-2.7,6.4-6.4c-10.6-8.6-23.9-3.7-36-2.2
			C756.5,315.2,756.5,324.3,762.3,323.6L762.3,323.6z"/>
	</g>
</g>
<g>
	<g>
		<path class="st1" d="M814.5,337.5c4.3,1.9,7.6,5.9,9.7,10c2.6,5.2,10.5,0.6,7.8-4.6c-2.7-5.3-7.5-10.8-13-13.3
			c-2.2-1-4.9-0.6-6.2,1.6C811.7,333.2,812.2,336.5,814.5,337.5L814.5,337.5z"/>
	</g>
</g>
<g>
	<g>
		<path class="st1" d="M652.1,274.1c5.8,0,5.9-9.1,0-9.1C646.3,265,646.3,274.1,652.1,274.1L652.1,274.1z"/>
	</g>
</g>
<g>
	<g>
		<path class="st1" d="M513.8,378.8c-3.8,4.5-5.2,10.2-8.6,14.9c-1.5,2-0.3,5.1,1.6,6.2c2.3,1.3,4.8,0.4,6.2-1.6c2.9-4,4-9.2,7.2-13
			C524,380.8,517.6,374.3,513.8,378.8L513.8,378.8z"/>
	</g>
</g>
<g>
	<g>
		<path class="st1" d="M489.9,425.9c-3.3,6.7-5.2,13.8-7.6,20.8c-1.9,5.5,6.9,7.9,8.8,2.4c2.1-6.2,3.8-12.7,6.7-18.7
			C500.3,425.3,492.5,420.6,489.9,425.9L489.9,425.9z"/>
	</g>
</g>
<g>
	<g>
		<path class="st1" d="M466.5,481.2c-2,5.8-2.9,12-4.9,17.8c-1.9,5.5,6.9,7.9,8.8,2.4c2-5.8,2.9-12,4.9-17.8
			C477.2,478.1,468.4,475.7,466.5,481.2L466.5,481.2z"/>
	</g>
</g>
<g>
	<g>
		<path class="st1" d="M454.5,530.1c-1.3,6.6-2.6,13.3-3.9,19.9c-1.1,5.7,7.6,8.2,8.8,2.4c1.3-6.6,2.6-13.3,3.9-19.9
			C464.4,526.8,455.6,524.4,454.5,530.1L454.5,530.1z"/>
	</g>
</g>
<g>
	<g>
		<path class="st1" d="M444.8,579c-2.2,5.9-4.1,11.9-4.5,18.2c-0.3,5.8,8.8,5.8,9.1,0c0.3-5.5,2.2-10.7,4.1-15.8
			C455.6,575.9,446.9,573.5,444.8,579L444.8,579z"/>
	</g>
</g>
<g>
	<g>
		<path class="st1" d="M435,628.8c-1.6,8.1-3.2,16.3-4.8,24.4c-1.1,5.7,7.6,8.2,8.8,2.4c1.6-8.1,3.2-16.3,4.8-24.4
			C444.9,625.5,436.1,623,435,628.8L435,628.8z"/>
	</g>
</g>
<g>
	<g>
		<path class="st1" d="M426.2,687.2c-1.3,6.8-2.2,13.6-2.1,20.6c0,5.8,9.1,5.9,9.1,0c0-6.1,0.6-12.1,1.8-18.2
			C436.1,683.9,427.4,681.5,426.2,687.2L426.2,687.2z"/>
	</g>
</g>
<g>
	<g>
		<path class="st1" d="M422.1,736.7c-1.7,8.8-2.4,17.6-2.8,26.5c-0.2,5.9,8.9,5.8,9.1,0c0.3-8.1,1-16.1,2.5-24.1
			C432,733.4,423.2,731,422.1,736.7L422.1,736.7z"/>
	</g>
</g>
<g>
	<g>
		<path class="st1" d="M417.7,792.6c-0.6,7-1.9,13.8-3.2,20.7c-1.1,5.7,7.6,8.2,8.8,2.4c1.5-7.7,2.9-15.3,3.5-23.1
			C427.3,786.8,418.2,786.8,417.7,792.6L417.7,792.6z"/>
	</g>
</g>
<g>
	<g>
		<path class="st1" d="M411.9,845.7c-1.5,8-2.2,16.1-3.3,24.1c-0.7,5.8,8.3,5.7,9.1,0c0.9-7.2,1.6-14.5,3-21.7
			C421.7,842.4,413,839.9,411.9,845.7L411.9,845.7z"/>
	</g>
</g>
<g>
	<g>
		<path class="st1" d="M405,901.7c-1.8,8.2-6.5,15.2-9.3,23.1c-1.9,5.5,6.9,7.9,8.8,2.4c2.7-7.9,7.4-14.9,9.3-23.1
			C415.1,898.4,406.3,896,405,901.7L405,901.7z"/>
	</g>
</g>
<g>
	<g>
		<path class="st1" d="M387.6,947.2c-1.5,7-4.6,12.8-10.2,17.4c-4.5,3.7,2,10.1,6.4,6.4c6.6-5.5,10.7-13,12.5-21.4
			C397.6,943.9,388.8,941.4,387.6,947.2L387.6,947.2z"/>
	</g>
</g>
<g>
	<g>
		<path class="st1" d="M353.7,981.3c-9,2.5-18.4,4.9-27.5,1.6c-5.5-2-7.9,6.8-2.4,8.8c10.6,3.8,21.8,1.3,32.4-1.6
			C361.8,988.6,359.4,979.8,353.7,981.3L353.7,981.3z"/>
	</g>
</g>
<g>
	<g>
		<path class="st1" d="M296.6,966.3c-10.6-3.6-15.3-13.5-19.6-23c-2.4-5.3-10.3-0.7-7.8,4.6c5.5,12,11.9,22.7,25,27.2
			C299.7,976.9,302.1,968.2,296.6,966.3L296.6,966.3z"/>
	</g>
</g>
<g>
	<g>
		<path class="st1" d="M252.8,912c0.1-9.8-6.9-19.3-12.2-27.1c-3.2-4.8-11.1-0.3-7.8,4.6c4.2,6.3,11,14.6,10.9,22.6
			C243.6,917.8,252.7,917.8,252.8,912L252.8,912z"/>
	</g>
</g>
<g>
	<g>
		<path class="st1" d="M230.1,864.7c0.4-10.1-2.4-23.1-9-31.1c-3.7-4.5-10.1,1.9-6.4,6.4c4.9,6,6.6,17.2,6.3,24.6
			C220.8,870.6,229.9,870.5,230.1,864.7L230.1,864.7z"/>
	</g>
</g>
<g>
	<g>
		<path class="st1" d="M119.4,559.9c-1.4,8.5,0.7,16.2,1.3,24.5c0.4,5.8,9.5,5.8,9.1,0c-0.5-7.3-2.9-14.7-1.7-22.1
			C129.1,556.5,120.4,554.1,119.4,559.9L119.4,559.9z"/>
	</g>
</g>
<g>
	<g>
		<path class="st1" d="M197.2,782.6c2.8,9.1,0.1,19,6.1,27.1c3.5,4.6,11.4,0.1,7.8-4.6c-5.3-7.1-2.7-16.8-5.2-25
			C204.3,774.7,195.5,777,197.2,782.6L197.2,782.6z"/>
	</g>
</g>
<g>
	<g>
		<path class="st1" d="M188.7,719.1c-0.4,8.2,4.6,16.7,2.6,24.7c-1.4,5.7,7.3,8.1,8.8,2.4c2.4-9.3-2.7-17.8-2.2-27.1
			C198,713.3,189,713.3,188.7,719.1L188.7,719.1z"/>
	</g>
</g>
<g>
	<g>
		<path class="st1" d="M183.1,656.7c3.5,10.6-1.3,21.7,2.1,32.4c1.7,5.6,10.5,3.2,8.8-2.4c-3.3-10.5,1.5-21.7-2.1-32.4
			C190,648.7,181.2,651.1,183.1,656.7L183.1,656.7z"/>
	</g>
</g>
<g>
	<g>
		<path class="st1" d="M161.8,619.8c0.2,8.5,1.6,16.9,2,25.3c0.3,5.8,9.4,5.9,9.1,0c-0.4-8.5-1.8-16.8-2-25.3
			C170.7,613.9,161.6,613.9,161.8,619.8L161.8,619.8z"/>
	</g>
</g>
<g>
	<g>
		<path class="st1" d="M165.1,683.1c-2.2,10.8,1.7,20.8,1.4,31.6c-0.2,5.9,8.9,5.8,9.1,0c0.3-9.8-3.7-19.4-1.7-29.2
			C175.1,679.8,166.3,677.4,165.1,683.1L165.1,683.1z"/>
	</g>
</g>
<g>
	<g>
		<path class="st1" d="M174.9,750.7c-0.4,8.4,3.8,16.8,2.5,25.1c-0.9,5.7,7.9,8.2,8.8,2.4c1.4-9.5-2.6-18.2-2.2-27.5
			C184.3,744.9,175.2,744.9,174.9,750.7L174.9,750.7z"/>
	</g>
</g>
<g>
	<g>
		<path class="st1" d="M185,820.7c1.8,8.2,5.7,15.8,7.5,24c1.3,5.7,10,3.3,8.8-2.4c-1.8-8.2-5.7-15.8-7.5-24
			C192.5,812.5,183.7,815,185,820.7L185,820.7z"/>
	</g>
</g>
<g>
	<g>
		<path class="st1" d="M201.2,877.9c2.9,1.4,4.6,5.8,6.1,8.5c1.9,3.5,3.5,7.1,5.1,10.8c2.4,5.3,10.2,0.7,7.8-4.6
			c-1.9-4.3-3.8-8.5-6.1-12.6c-2-3.6-4.5-8-8.3-9.9C200.6,867.4,196,875.3,201.2,877.9L201.2,877.9z"/>
	</g>
</g>
<g>
	<g>
		<path class="st1" d="M230.1,925.5c1.4,4.4,2.7,8.9,5.1,12.8c2.2,3.6,6.2,5.6,8.1,9.1c2.7,5.2,10.6,0.6,7.8-4.6
			c-1.8-3.5-5.1-5-7.4-8c-2.6-3.4-3.7-7.7-4.9-11.7C237.1,917.5,228.4,919.9,230.1,925.5L230.1,925.5z"/>
	</g>
</g>
<g>
	<g>
		<path class="st1" d="M272,986.4c7.6,3.3,13.5,9.4,20.9,13.1c5.2,2.6,9.8-5.2,4.6-7.8c-7.4-3.7-13.3-9.8-20.9-13.1
			C271.2,976.3,266.6,984.1,272,986.4L272,986.4z"/>
	</g>
</g>
<g>
	<g>
		<path class="st1" d="M364.8,1005.9c8.6-2.6,16.1-8.8,23-14.4c4.5-3.7-1.9-10.1-6.4-6.4c-5.6,4.6-12,9.9-19,12.1
			C356.8,998.9,359.2,1007.7,364.8,1005.9L364.8,1005.9z"/>
	</g>
</g>
<g>
	<g>
		<path class="st1" d="M411.5,962.2c4.3-7.4,6.5-15.7,10.3-23.4c2.5-5.2-5.3-9.9-7.8-4.6c-3.7,7.7-5.9,16-10.3,23.4
			C400.7,962.7,408.5,967.3,411.5,962.2L411.5,962.2z"/>
	</g>
</g>
<g>
	<g>
		<path class="st1" d="M429.5,905.4c1.7-8.4,3.3-16.9,5-25.3c1.1-5.7-7.6-8.2-8.8-2.4c-1.7,8.4-3.3,16.9-5,25.3
			C419.6,908.7,428.4,911.1,429.5,905.4L429.5,905.4z"/>
	</g>
</g>
<g>
	<g>
		<path class="st1" d="M439.7,846.7c1.5-7.2,4.1-14.1,4.2-21.6c0.1-5.9-9-5.9-9.1,0c-0.1,6.6-2.5,12.8-3.9,19.2
			C429.7,850,438.5,852.4,439.7,846.7L439.7,846.7z"/>
	</g>
</g>
<g>
	<g>
		<path class="st1" d="M443.3,795.2c1.3-9,3-17.9,2.9-27c0-5.8-9.1-5.9-9.1,0c0.1,8.3-1.4,16.4-2.6,24.6
			C433.7,798.5,442.5,801,443.3,795.2L443.3,795.2z"/>
	</g>
</g>
<g>
	<g>
		<path class="st1" d="M450.8,733.7c1.2-6.3,2.1-12.8,3.3-19.1c1.1-5.7-7.7-8.2-8.8-2.4c-1.2,6.3-2.1,12.8-3.3,19.1
			C440.9,737,449.7,739.4,450.8,733.7L450.8,733.7z"/>
	</g>
</g>
<g>
	<g>
		<path class="st1" d="M453.7,687.7c1.5-7.5,3-15.1,4.5-22.6c1.1-5.7-7.6-8.2-8.8-2.4c-1.5,7.5-3,15.1-4.5,22.6
			C443.8,691,452.6,693.5,453.7,687.7L453.7,687.7z"/>
	</g>
</g>
<g>
	<g>
		<path class="st1" d="M461.6,631.4c1.8-8.6,4.7-16.9,6.5-25.5c1.2-5.7-7.6-8.1-8.8-2.4c-1.8,8.6-4.7,16.9-6.5,25.5
			C451.6,634.7,460.4,637.2,461.6,631.4L461.6,631.4z"/>
	</g>
</g>
<g>
	<g>
		<path class="st1" d="M473.6,575.5c1.3-6.5,3-12.9,4.3-19.4c1.2-5.7-7.6-8.2-8.8-2.4c-1.3,6.5-3,12.9-4.3,19.4
			C463.6,578.8,472.4,581.2,473.6,575.5L473.6,575.5z"/>
	</g>
</g>
<g>
	<g>
		<path class="st1" d="M481.8,533.9c1.5-7.7,2.2-15.6,4.6-23.1c1.7-5.6-7-8-8.8-2.4c-2.3,7.5-3.1,15.4-4.6,23.1
			C471.9,537.2,480.7,539.6,481.8,533.9L481.8,533.9z"/>
	</g>
</g>
<g>
	<g>
		<path class="st1" d="M495.7,482.5c1.7-6.2,3.1-13.3,7.1-18.5c3.5-4.6-2.8-11-6.4-6.4c-5.1,6.6-7.3,14.5-9.4,22.5
			C485.4,485.8,494.2,488.2,495.7,482.5L495.7,482.5z"/>
	</g>
</g>
<g>
	<g>
		<path class="st1" d="M519.1,430.7c1.7-7.4,6.7-13.5,8.4-20.9c1.3-5.7-7.5-8.1-8.8-2.4c-1.7,7.4-6.7,13.5-8.4,20.9
			C509,434,517.8,436.5,519.1,430.7L519.1,430.7z"/>
	</g>
</g>
<g>
	<g>
		<path class="st1" d="M523.8,461.8c0.9-6.5,3.4-13.7,7.6-18.8c3.7-4.5-2.7-10.9-6.4-6.4c-5.3,6.3-8.8,14.7-10,22.8
			C514.2,465.1,522.9,467.5,523.8,461.8L523.8,461.8z"/>
	</g>
</g>
<g>
	<g>
		<path class="st1" d="M537.8,426.9c5.8,0,5.9-9.1,0-9.1C531.9,417.8,531.9,426.9,537.8,426.9L537.8,426.9z"/>
	</g>
</g>
<g>
	<g>
		<path class="st1" d="M506.2,482.5c-1.6,7.2-5.4,13.6-7.8,20.6c-2,5.5,6.8,7.9,8.8,2.4c2.5-6.9,6.2-13.3,7.8-20.6
			C516.2,479.2,507.5,476.8,506.2,482.5L506.2,482.5z"/>
	</g>
</g>
<g>
	<g>
		<path class="st1" d="M492.7,531.6c-1.1,5.6-2.6,11-4.8,16.2c-2.3,5.3,5.5,9.9,7.8,4.6c2.6-6,4.5-12,5.8-18.4
			C502.7,528.3,493.9,525.8,492.7,531.6L492.7,531.6z"/>
	</g>
</g>
<g>
	<g>
		<path class="st1" d="M485.4,580.9c-1.4,6.9-2.7,13.8-3.6,20.8c-0.7,5.8,8.3,5.7,9.1,0c0.8-6.2,2-12.3,3.2-18.3
			C495.2,577.6,486.5,575.2,485.4,580.9L485.4,580.9z"/>
	</g>
</g>
<g>
	<g>
		<path class="st1" d="M473.7,632.7c-1.3,6.3-2.5,12.7-3.8,19c-1.1,5.7,7.6,8.2,8.8,2.4c1.3-6.3,2.5-12.7,3.8-19
			C483.6,629.4,474.8,626.9,473.7,632.7L473.7,632.7z"/>
	</g>
</g>
<g>
	<g>
		<path class="st1" d="M465.5,683.7c-1.5,8.5-1.5,17,0.1,25.5c1.1,5.7,9.9,3.3,8.8-2.4c-1.3-6.8-1.4-13.9-0.1-20.7
			C475.3,680.4,466.5,678,465.5,683.7L465.5,683.7z"/>
	</g>
</g>
<g>
	<g>
		<path class="st1" d="M460.7,738.7c-1.3,6.8-2.7,13.6-4,20.4c-1.1,5.7,7.6,8.2,8.8,2.4c1.3-6.8,2.7-13.6,4-20.4
			C470.6,735.4,461.9,733,460.7,738.7L460.7,738.7z"/>
	</g>
</g>
<g>
	<g>
		<path class="st1" d="M455.5,792.1c0.3,7.2-0.5,14.3-0.9,21.4c-0.4,5.8,8.7,5.8,9.1,0c0.5-7.2,1.2-14.3,0.9-21.4
			C464.3,786.2,455.2,786.2,455.5,792.1L455.5,792.1z"/>
	</g>
</g>
<g>
	<g>
		<path class="st1" d="M447.5,846.2c-1.6,7.6-4.9,15.1-3.1,23c1.3,5.7,10,3.3,8.8-2.4c-1.3-5.9,1.9-12.4,3.1-18.1
			C457.5,842.9,448.7,840.4,447.5,846.2L447.5,846.2z"/>
	</g>
</g>
<g>
	<g>
		<path class="st1" d="M441.6,902.3c-1.4,7.6-2.2,15.3-4.9,22.5c-2.1,5.5,6.7,7.9,8.8,2.4c2.7-7.3,3.5-15,4.9-22.5
			C451.4,899,442.7,896.6,441.6,902.3L441.6,902.3z"/>
	</g>
</g>
<g>
	<g>
		<path class="st1" d="M422.6,960.2c-1.9,8.1-9.1,13.4-13.6,20.1c-3.2,4.9,4.6,9.4,7.8,4.6c5-7.6,12.4-13,14.5-22.3
			C432.7,956.9,423.9,954.5,422.6,960.2L422.6,960.2z"/>
	</g>
</g>
<g>
	<g>
		<path class="st1" d="M335.2,1006.4c-5.5-1-11.2-0.5-16.6-1.9c-5.7-1.4-8.1,7.3-2.4,8.8c5.5,1.4,11.1,0.9,16.6,1.9
			C338.5,1016.1,341,1007.4,335.2,1006.4L335.2,1006.4z"/>
	</g>
</g>
<g>
	<g>
		<path class="st1" d="M373.1,1012.2c-4.5,5.9-14.4,9.2-21.6,10.1c-5.7,0.7-5.8,9.8,0,9.1c10.8-1.4,22.7-5.7,29.4-14.6
			C384.5,1012.2,376.6,1007.6,373.1,1012.2L373.1,1012.2z"/>
	</g>
</g>
<g>
	<g>
		<path class="st1" d="M306.6,1018.1c-7-1.6-12-7.4-18.8-9.8c-5.5-2-7.9,6.8-2.4,8.8c6.8,2.5,11.5,8.2,18.8,9.8
			C309.9,1028.2,312.3,1019.4,306.6,1018.1L306.6,1018.1z"/>
	</g>
</g>
<g>
	<g>
		<path class="st1" d="M259,986.7c-2.6-4-5-8.2-8-11.9c-2.3-2.9-6.4-4.6-7.1-8.4c-1-5.8-9.8-3.3-8.8,2.4c0.8,4.5,3.7,6.9,7,9.8
			c3.8,3.4,6.2,8.5,9,12.7C254.4,996.2,262.2,991.6,259,986.7L259,986.7z"/>
	</g>
</g>
<g>
	<g>
		<path class="st1" d="M197.7,913.5c0.8,4.2,3.4,7.6,6.4,10.6c2.8,2.9,6.3,5.5,7.5,9.5c1.6,5.6,10.4,3.2,8.8-2.4
			c-1.3-4.3-3.9-7.7-7-10.8c-2.8-2.8-6.1-5.3-6.8-9.4C205.4,905.3,196.6,907.7,197.7,913.5L197.7,913.5z"/>
	</g>
</g>
<g>
	<g>
		<path class="st1" d="M174.6,852.2c-0.9,9.3,1.7,20,5.8,28.2c2.6,5.2,10.5,0.6,7.8-4.6c-3.5-6.9-5.4-16-4.6-23.7
			C184.3,846.4,175.2,846.5,174.6,852.2L174.6,852.2z"/>
	</g>
</g>
<g>
	<g>
		<path class="st1" d="M160,790.3c0.9,3.7,2.3,7.2,3.6,10.8c1.1,3,2.8,6.8,2.2,10.1c-1.2,5.7,7.6,8.2,8.8,2.4
			c1.8-8.9-3.8-17.2-5.8-25.7C167.4,782.2,158.6,784.6,160,790.3L160,790.3z"/>
	</g>
</g>
<g>
	<g>
		<path class="st1" d="M150.8,724.5c-2,9.6,2,19.9,5.1,28.8c1.9,5.5,10.7,3.1,8.8-2.4c-2.4-7-6.7-16.4-5.1-24
			C160.8,721.2,152.1,718.8,150.8,724.5L150.8,724.5z"/>
	</g>
</g>
<g>
	<g>
		<path class="st1" d="M141.5,653.4c-1,9.2,2.4,18.1,4.5,27c1.3,5.7,10.1,3.3,8.8-2.4c-1.9-8.1-5-16.1-4.1-24.6
			C151.2,647.6,142.1,647.6,141.5,653.4L141.5,653.4z"/>
	</g>
</g>
<g>
	<g>
		<path class="st1" d="M135.4,600.6c-1.9,8.5-0.2,16.7,0.3,25.3c0.3,5.8,9.4,5.9,9.1,0c-0.4-7.6-2.2-15.3-0.6-22.9
			C145.4,597.3,136.6,594.9,135.4,600.6L135.4,600.6z"/>
	</g>
</g>
<g>
	<g>
		<path class="st1" d="M118.2,620.7c-1.6,9.7,0.9,18.9,2.9,28.4c1.2,5.7,9.9,3.3,8.8-2.4c-1.6-7.7-4.2-15.6-2.9-23.5
			C127.9,617.4,119.2,615,118.2,620.7L118.2,620.7z"/>
	</g>
</g>
<g>
	<g>
		<path class="st1" d="M125.5,688.8c-0.6,8.8,1.9,17.2,2.9,26c0.6,5.8,9.7,5.8,9.1,0c-0.9-8.7-3.4-17.2-2.9-26
			C135,682.9,125.9,683,125.5,688.8L125.5,688.8z"/>
	</g>
</g>
<g>
	<g>
		<path class="st1" d="M135.4,752.5c-2.3,11.4,2.3,21.9,2.4,33.2c0.1,5.8,9.2,5.9,9.1,0c-0.1-10.3-4.9-20.5-2.8-30.8
			C145.4,749.2,136.6,746.8,135.4,752.5L135.4,752.5z"/>
	</g>
</g>
<g>
	<g>
		<path class="st1" d="M143,817.6c3.9,7.4,3.9,16.1,6.8,23.9c2.1,5.4,10.9,3.1,8.8-2.4c-3.3-8.5-3.5-17.8-7.8-26
			C148.2,807.8,140.3,812.4,143,817.6L143,817.6z"/>
	</g>
</g>
<g>
	<g>
		<path class="st1" d="M158.5,887.3c7.3,5.1,8.7,16.9,13,24.3c2.9,5.1,10.8,0.5,7.8-4.6c-5.4-9.3-6.9-21-16.3-27.6
			C158.2,876.1,153.7,884,158.5,887.3L158.5,887.3z"/>
	</g>
</g>
<g>
	<g>
		<path class="st1" d="M194,944.2c2.8,10.1,8.9,19,15.5,26.9c3.8,4.5,10.2-2,6.4-6.4c-5.6-6.7-10.8-14.4-13.2-22.9
			C201.2,936.2,192.4,938.6,194,944.2L194,944.2z"/>
	</g>
</g>
<g>
	<g>
		<path class="st1" d="M230.6,1002c9.3,1.3,13.9,11.7,23.1,14c5.7,1.4,8.1-7.4,2.4-8.8c-4.5-1.1-7.5-4.7-10.8-7.6
			c-3.6-3.1-7.5-5.7-12.3-6.4C227.2,992.4,224.8,1001.1,230.6,1002L230.6,1002z"/>
	</g>
</g>
<g>
	<g>
		<path class="st1" d="M550.6,447.3c1.3-4,2.5-8,3.8-12c1.8-5.6-7-8-8.8-2.4c-1.3,4-2.5,8-3.8,12
			C540.1,450.5,548.8,452.9,550.6,447.3L550.6,447.3z"/>
	</g>
</g>
<g>
	<g>
		<path class="st1" d="M529.2,468.3c-1.7,7.4-5.9,13.8-8.4,20.9c-1.9,5.5,6.8,7.9,8.8,2.4c2.5-7.1,6.7-13.5,8.4-20.9
			C539.3,465,530.5,462.6,529.2,468.3L529.2,468.3z"/>
	</g>
</g>
<g>
	<g>
		<path class="st1" d="M519.1,514.7c-1.4,7-2.4,14-5,20.6c-2.1,5.4,6.6,7.8,8.8,2.4c2.6-6.6,3.7-13.7,5-20.6
			C529,511.4,520.2,509,519.1,514.7L519.1,514.7z"/>
	</g>
</g>
<g>
	<g>
		<path class="st1" d="M507.6,556.2c-1.4,7.1-2.8,14.2-4.2,21.3c-1.1,5.7,7.6,8.2,8.8,2.4c1.4-7.1,2.8-14.2,4.2-21.3
			C517.5,552.9,508.8,550.4,507.6,556.2L507.6,556.2z"/>
	</g>
</g>
<g>
	<g>
		<path class="st1" d="M497.1,607.2c-1.5,7.3-3.3,14.4-5.7,21.5c-1.8,5.6,7,8,8.8,2.4c2.3-7,4.2-14.2,5.7-21.5
			C507,603.9,498.2,601.5,497.1,607.2L497.1,607.2z"/>
	</g>
</g>
<g>
	<g>
		<path class="st1" d="M487.3,658.9c-1.8,8.6-4.2,17-4.1,25.8c0.1,5.8,9.2,5.9,9.1,0c-0.1-8,2.2-15.6,3.8-23.4
			C497.3,655.6,488.5,653.2,487.3,658.9L487.3,658.9z"/>
	</g>
</g>
<g>
	<g>
		<path class="st1" d="M481.1,714.4c-0.4,6.3-1.9,12.5-1.9,18.9c0.1,5.8,9.1,5.9,9.1,0c-0.1-6.4,1.5-12.6,1.9-18.9
			C490.6,708.6,481.5,708.6,481.1,714.4L481.1,714.4z"/>
	</g>
</g>
<g>
	<g>
		<path class="st1" d="M477.5,760.9c-1.7,8.2-3.9,16.1-2.5,24.5c1,5.8,9.8,3.3,8.8-2.4c-1.1-6.5,1.2-13.3,2.5-19.7
			C487.5,757.6,478.7,755.1,477.5,760.9L477.5,760.9z"/>
	</g>
</g>
<g>
	<g>
		<path class="st1" d="M473.2,813.6c-1.3,6.9-0.9,15.2-4.5,21.5c-2.9,5.1,4.9,9.7,7.8,4.6c4.1-7.2,3.9-15.7,5.4-23.6
			C483,810.3,474.3,807.9,473.2,813.6L473.2,813.6z"/>
	</g>
</g>
<g>
	<g>
		<path class="st1" d="M467.2,863.2c-1.3,7.2-1.1,15.6-5.5,21.7c-3.4,4.8,4.5,9.3,7.8,4.6c4.9-6.9,4.9-15.8,6.4-23.9
			C477,859.9,468.2,857.5,467.2,863.2L467.2,863.2z"/>
	</g>
</g>
<g>
	<g>
		<path class="st1" d="M454.3,923.7c-1.7,7.9-4.4,15.5-7.4,23c-2.1,5.5,6.7,7.8,8.8,2.4c2.9-7.5,5.7-15.1,7.4-23
			C464.2,920.4,455.5,918,454.3,923.7L454.3,923.7z"/>
	</g>
</g>
<g>
	<g>
		<path class="st1" d="M421,991.2c-4.1,7.6-11.6,12.7-19,16.9c-5.1,2.9-0.5,10.8,4.6,7.8c8.6-4.9,17.4-11.2,22.2-20.1
			C431.6,990.6,423.7,986,421,991.2L421,991.2z"/>
	</g>
</g>
<g>
	<g>
		<path class="st1" d="M559.4,449.4c-1.6,6.7-6.2,12-9.4,18.1c-2.7,5.2,5.2,9.8,7.8,4.6c3.5-6.8,8.5-12.7,10.3-20.2
			C569.5,446.1,560.8,443.7,559.4,449.4L559.4,449.4z"/>
	</g>
</g>
<g>
	<g>
		<path class="st1" d="M543.6,486.7c-1.3,6.5-2,13.5-4.8,19.6c-2.5,5.3,5.4,9.9,7.8,4.6c3.2-6.9,4.3-14.3,5.7-21.7
			C553.5,483.4,544.7,480.9,543.6,486.7L543.6,486.7z"/>
	</g>
</g>
<g>
	<g>
		<path class="st1" d="M532.4,534.5c-1.5,7.7-3.1,15.5-4.6,23.2c-1.1,5.7,7.6,8.2,8.8,2.4c1.5-7.7,3.1-15.5,4.6-23.2
			C542.3,531.2,533.5,528.7,532.4,534.5L532.4,534.5z"/>
	</g>
</g>
<g>
	<g>
		<path class="st1" d="M521.9,584.3c-1.5,7.6-3.1,15.1-5.6,22.4c-1.9,5.5,6.8,7.9,8.8,2.4c2.6-7.3,4.1-14.8,5.6-22.4
			C531.8,581,523.1,578.5,521.9,584.3L521.9,584.3z"/>
	</g>
</g>
<g>
	<g>
		<path class="st1" d="M512.8,633.7c-1.4,7-2.8,13.9-4.1,20.9c-1.1,5.7,7.6,8.2,8.8,2.4c1.4-7,2.8-13.9,4.1-20.9
			C522.7,630.4,513.9,627.9,512.8,633.7L512.8,633.7z"/>
	</g>
</g>
<g>
	<g>
		<path class="st1" d="M503.7,682.5c-1.5,7.5-3,15.1-4.5,22.6c-1.1,5.7,7.6,8.2,8.8,2.4c1.5-7.5,3-15.1,4.5-22.6
			C513.6,679.2,504.9,676.8,503.7,682.5L503.7,682.5z"/>
	</g>
</g>
<g>
	<g>
		<path class="st1" d="M498.5,734c0,8-0.8,15.8-2.3,23.6c-1.1,5.7,7.7,8.2,8.8,2.4c1.7-8.6,2.6-17.2,2.7-26
			C507.6,728.1,498.5,728.1,498.5,734L498.5,734z"/>
	</g>
</g>
<g>
	<g>
		<path class="st1" d="M494.8,785.6c-1.5,7.8-3,15.7-2.2,23.7c0.6,5.8,9.7,5.8,9.1,0c-0.7-7.2,0.5-14.2,1.9-21.3
			C504.7,782.3,495.9,779.9,494.8,785.6L494.8,785.6z"/>
	</g>
</g>
<g>
	<g>
		<path class="st1" d="M491.3,837.4c-0.8,6.6-1,13.6-3.7,19.8c-2.3,5.3,5.5,9.9,7.8,4.6c3.4-7.8,4-16,5-24.3
			C501,831.6,491.9,831.7,491.3,837.4L491.3,837.4z"/>
	</g>
</g>
<g>
	<g>
		<path class="st1" d="M482.2,889.2c-1.5,7.3-2.9,14.7-4.4,22c-1.1,5.7,7.6,8.2,8.8,2.4c1.5-7.3,2.9-14.7,4.4-22
			C492.1,885.9,483.3,883.5,482.2,889.2L482.2,889.2z"/>
	</g>
</g>
<g>
	<g>
		<path class="st1" d="M463.4,950.6c-2.5,8.6-9.2,14.5-15.4,20.6c-4.1,4.1,2.3,10.6,6.4,6.4c7.3-7.3,14.7-14.4,17.7-24.7
			C473.8,947.4,465,945,463.4,950.6L463.4,950.6z"/>
	</g>
</g>
<g>
	<g>
		<path class="st1" d="M381.3,1043.2c7.4-1.2,14.9-3,21.6-6.7c5.1-2.8,0.5-10.7-4.6-7.8c-5.9,3.3-12.8,4.7-19.4,5.7
			C373.1,1035.3,375.6,1044.1,381.3,1043.2L381.3,1043.2z"/>
	</g>
</g>
<g>
	<g>
		<path class="st1" d="M433.9,1016.7c9.7-6.1,18.8-13.9,25.2-23.5c3.3-4.9-4.6-9.4-7.8-4.6c-5.5,8.2-13.6,15-22,20.2
			C424.4,1012,428.9,1019.8,433.9,1016.7L433.9,1016.7z"/>
	</g>
</g>
<g>
	<g>
		<path class="st1" d="M491.7,958.1c1.8-8.4,6-16,8.4-24.3c1.6-5.6-7.1-8-8.8-2.4c-2.4,8.2-6.6,15.8-8.4,24.3
			C481.7,961.4,490.4,963.8,491.7,958.1L491.7,958.1z"/>
	</g>
</g>
<g>
	<g>
		<path class="st1" d="M507.8,898c1.9-9.5,3.7-19,6.8-28.2c1.8-5.6-6.9-8-8.8-2.4c-3,9.2-4.9,18.7-6.8,28.2
			C497.9,901.3,506.6,903.7,507.8,898L507.8,898z"/>
	</g>
</g>
<g>
	<g>
		<path class="st1" d="M519.8,834.1c1.8-8.9,4.7-17.8,4-27c-0.4-5.8-9.5-5.8-9.1,0c0.6,8.4-2.1,16.4-3.7,24.5
			C509.9,837.4,518.6,839.8,519.8,834.1L519.8,834.1z"/>
	</g>
</g>
<g>
	<g>
		<path class="st1" d="M522.7,782.8c1.5-7.3,2.9-14.7,4.4-22c1.1-5.7-7.6-8.2-8.8-2.4c-1.5,7.3-2.9,14.7-4.4,22
			C512.8,786.1,521.6,788.5,522.7,782.8L522.7,782.8z"/>
	</g>
</g>
<g>
	<g>
		<path class="st1" d="M527.5,730.7c0.6-8.5,2.1-16.9,3.2-25.3c0.7-5.8-8.4-5.7-9.1,0c-1.1,8.4-2.6,16.8-3.2,25.3
			C518,736.5,527.1,736.5,527.5,730.7L527.5,730.7z"/>
	</g>
</g>
<g>
	<g>
		<path class="st1" d="M531.7,679.1c1.2-6,2.4-12,3.6-18c1.1-5.7-7.6-8.2-8.8-2.4c-1.2,6-2.4,12-3.6,18
			C521.8,682.4,530.6,684.8,531.7,679.1L531.7,679.1z"/>
	</g>
</g>
<g>
	<g>
		<path class="st1" d="M537,634.3c1.5-7.3,2.9-14.7,4.4-22c1.1-5.7-7.6-8.2-8.8-2.4c-1.5,7.3-2.9,14.7-4.4,22
			C527.1,637.6,535.8,640.1,537,634.3L537,634.3z"/>
	</g>
</g>
<g>
	<g>
		<path class="st1" d="M548.6,587.8c1.7-7.9,4.8-15.5,6.4-23.4c1.2-5.7-7.5-8.1-8.8-2.4c-1.7,7.9-4.8,15.5-6.4,23.4
			C538.6,591.1,547.4,593.5,548.6,587.8L548.6,587.8z"/>
	</g>
</g>
<g>
	<g>
		<path class="st1" d="M559.9,539.4c1.8-8.7,4.1-17.3,6.9-25.8c1.9-5.6-6.9-7.9-8.8-2.4c-2.8,8.5-5.1,17-6.9,25.8
			C550,542.7,558.8,545.1,559.9,539.4L559.9,539.4z"/>
	</g>
</g>
<g>
	<g>
		<path class="st1" d="M573.2,487.8c1.6-7.7,4.6-14.5,8.8-21.2c3.1-5-4.8-9.6-7.8-4.6c-4.5,7.3-7.9,15-9.7,23.4
			C563.2,491.1,572,493.5,573.2,487.8L573.2,487.8z"/>
	</g>
</g>
<g>
	<g>
		<path class="st1" d="M615.3,420.1c-1.5,6.3-7.3,10.1-10.6,15.4c-3.1,5,4.7,9.5,7.8,4.6c3.9-6.2,9.8-10.1,11.6-17.6
			C625.4,416.8,616.6,414.3,615.3,420.1L615.3,420.1z"/>
	</g>
</g>
<g>
	<g>
		<path class="st1" d="M593.7,456.2c-1.2,5.3-5.6,8.8-7.9,13.5c-2.5,5.3,5.4,9.9,7.8,4.6c2.6-5.6,7.3-9.5,8.8-15.7
			C603.7,452.9,595,450.5,593.7,456.2L593.7,456.2z"/>
	</g>
</g>
<g>
	<g>
		<path class="st1" d="M579.9,498.7c5.8,0,5.9-9.1,0-9.1C574.1,489.6,574.1,498.7,579.9,498.7L579.9,498.7z"/>
	</g>
</g>
<g>
	<g>
		<path class="st1" d="M532.3,779.2c-1.3,6.4-2.5,12.8-3.8,19.1c-1.1,5.7,7.6,8.2,8.8,2.4c1.3-6.4,2.5-12.8,3.8-19.1
			C542.1,775.9,533.4,773.4,532.3,779.2L532.3,779.2z"/>
	</g>
</g>
<g>
	<g>
		<path class="st1" d="M530.5,834.3c-1,8.9,0.8,18-1.7,26.7c-1.6,5.6,7.1,8,8.8,2.4c2.8-9.6,0.9-19.4,2.1-29.2
			C540.2,828.5,531.1,828.6,530.5,834.3L530.5,834.3z"/>
	</g>
</g>
<g>
	<g>
		<path class="st1" d="M518.8,892.9c-1.5,7.5-2.4,15.4-5.4,22.5c-2.3,5.3,5.6,10,7.8,4.6c3.4-7.9,4.7-16.2,6.3-24.6
			C528.7,889.6,519.9,887.1,518.8,892.9L518.8,892.9z"/>
	</g>
</g>
<g>
	<g>
		<path class="st1" d="M497.3,965.2c-2,7.1-6.1,17-13.5,20.1c-5.3,2.2-3,11,2.4,8.8c10.7-4.5,16.7-15.7,19.8-26.4
			C507.7,961.9,498.9,959.5,497.3,965.2L497.3,965.2z"/>
	</g>
</g>
<g>
	<g>
		<path class="st1" d="M441.6,1022.4c-6.6,7.4-13.8,12.9-22.6,17.6c-5.2,2.7-0.6,10.6,4.6,7.8c9.4-4.9,17.3-11.1,24.4-19
			C451.9,1024.5,445.5,1018.1,441.6,1022.4L441.6,1022.4z"/>
	</g>
</g>
<g>
	<g>
		<path class="st1" d="M343.3,1040.7c-7.7-1.6-15.2-4.1-23-5.7c-5.7-1.2-8.1,7.6-2.4,8.8c7.7,1.6,15.2,4.1,23,5.7
			C346.6,1050.7,349,1041.9,343.3,1040.7L343.3,1040.7z"/>
	</g>
</g>
<g>
	<g>
		<path class="st1" d="M397.9,1047.8c-10.2,2.9-19.6,7.8-30.4,7.4c-5.9-0.2-5.8,8.9,0,9.1c11.8,0.4,21.8-4.6,32.9-7.8
			C406,1055,403.6,1046.2,397.9,1047.8L397.9,1047.8z"/>
	</g>
</g>
<g>
	<g>
		<path class="st1" d="M99.3,594.1c-1.1,5-0.9,9.6,0.1,14.6c0.9,4.8,2.3,9,0.9,13.9c-1.5,5.7,7.2,8.1,8.8,2.4
			c2.7-9.8-3.1-18.9-1-28.5C109.2,590.9,100.5,588.4,99.3,594.1L99.3,594.1z"/>
	</g>
</g>
<g>
	<g>
		<path class="st1" d="M101.8,654.3c-2.1,10.1-4.3,19.6,1.4,29c3.1,5,10.9,0.4,7.8-4.6c-4.4-7.1-2.1-14.4-0.5-22
			C111.8,651,103,648.6,101.8,654.3L101.8,654.3z"/>
	</g>
</g>
<g>
	<g>
		<path class="st1" d="M111.7,717.2c-2.2,9.2-1.1,18.1,0.5,27.2c1,5.8,9.8,3.3,8.8-2.4c-1.3-7.5-2.3-14.9-0.5-22.4
			C121.8,713.9,113.1,711.5,111.7,717.2L111.7,717.2z"/>
	</g>
</g>
<g>
	<g>
		<path class="st1" d="M116.3,782.6c0.1,9.8,1.5,19.7,4.3,29.1c1.7,5.6,10.4,3.2,8.8-2.4c-2.6-8.7-3.9-17.7-4-26.7
			C125.4,776.8,116.3,776.7,116.3,782.6L116.3,782.6z"/>
	</g>
</g>
<g>
	<g>
		<path class="st1" d="M128.3,848.2c6.1,6.5,4.7,17.1,9.3,24.6c3,5,10.9,0.4,7.8-4.6c-5.2-8.4-3.5-18.8-10.7-26.4
			C130.7,837.5,124.2,843.9,128.3,848.2L128.3,848.2z"/>
	</g>
</g>
<g>
	<g>
		<path class="st1" d="M153,916.8c5.4,8.4,7.5,18.1,15.8,24.3c4.7,3.5,9.2-4.4,4.6-7.8c-6.5-4.8-8.3-14.5-12.6-21.1
			C157.7,907.3,149.8,911.8,153,916.8L153,916.8z"/>
	</g>
</g>
<g>
	<g>
		<path class="st1" d="M183,972.2c5.2,8.3,11.3,16,18,23c4.1,4.2,10.5-2.2,6.4-6.4c-6.3-6.5-11.9-13.5-16.6-21.2
			C187.8,962.6,179.9,967.2,183,972.2L183,972.2z"/>
	</g>
</g>
<g>
	<g>
		<path class="st1" d="M78.6,625.6c-2.3,10.1-0.5,20.3-1.7,30.4c-0.7,5.8,8.4,5.8,9.1,0c1.1-9.3-0.7-18.8,1.4-28
			C88.6,622.3,79.9,619.9,78.6,625.6L78.6,625.6z"/>
	</g>
</g>
<g>
	<g>
		<path class="st1" d="M84.3,685.3c-1,9.3,0.6,18.6,2.8,27.6c1.4,5.7,10.1,3.3,8.8-2.4c-2-8.3-3.4-16.6-2.5-25.2
			C94.1,679.5,85,679.5,84.3,685.3L84.3,685.3z"/>
	</g>
</g>
<g>
	<g>
		<path class="st1" d="M93.7,747.4c-2.2,10,0.7,19.6,0.3,29.6c-0.3,5.8,8.8,5.8,9.1,0c0.4-9.1-2.6-18.1-0.6-27.2
			C103.7,744.1,95,741.6,93.7,747.4L93.7,747.4z"/>
	</g>
</g>
<g>
	<g>
		<path class="st1" d="M97.1,815.3c3.7,7.1,6.5,14.5,8.2,22.3c1.2,5.7,10,3.3,8.8-2.4c-1.8-8.6-5-16.7-9.1-24.5
			C102.2,805.6,94.4,810.1,97.1,815.3L97.1,815.3z"/>
	</g>
</g>
<g>
	<g>
		<path class="st1" d="M115.5,875.3c0.6,9.1,3.9,19.9,11.4,25.7c4.6,3.6,11-2.8,6.4-6.4c-5.6-4.4-8.2-12.4-8.7-19.3
			C124.2,869.5,115.1,869.4,115.5,875.3L115.5,875.3z"/>
	</g>
</g>
<g>
	<g>
		<path class="st1" d="M59.6,662.9c1.3,7.2,3,14.7,1.2,21.9c-1.4,5.7,7.4,8.1,8.8,2.4c2.1-9,0.3-17.9-1.2-26.8
			C67.4,654.7,58.6,657.1,59.6,662.9L59.6,662.9z"/>
	</g>
</g>
<g>
	<g>
		<path class="st1" d="M65.9,717.8c-0.9,9.2,4.2,18.4,1.7,27.4c-1.6,5.6,7.2,8.1,8.8,2.4c2.8-10.1-2.4-19.7-1.4-29.8
			C75.5,712,66.4,712,65.9,717.8L65.9,717.8z"/>
	</g>
</g>
<g>
	<g>
		<path class="st1" d="M69.8,777c1.2,9.8,3.7,19.6,3.2,29.6c-0.3,5.8,8.8,5.8,9.1,0c0.5-10-2-19.7-3.2-29.6
			C78.2,771.3,69.1,771.2,69.8,777L69.8,777z"/>
	</g>
</g>
<g>
	<g>
		<path class="st1" d="M38.9,689.5c-0.9,7.8-1.2,15.6,1.3,23.1c1.8,5.5,10.6,3.2,8.8-2.4c-2.2-6.8-1.7-13.8-0.9-20.7
			C48.6,683.7,39.5,683.8,38.9,689.5L38.9,689.5z"/>
	</g>
</g>
<g>
	<g>
		<path class="st1" d="M47.3,744.8c-0.2,10.6,0.3,21.2,2,31.7c0.9,5.8,9.7,3.3,8.8-2.4c-1.5-9.7-1.8-19.5-1.6-29.3
			C56.4,739,47.4,739,47.3,744.8L47.3,744.8z"/>
	</g>
</g>
<g>
	<g>
		<path class="st1" d="M82.6,839.6c3.8,7.8,8.9,14.8,13.7,22c3.3,4.8,11.1,0.3,7.8-4.6c-4.8-7.2-10-14.2-13.7-22
			C88,829.7,80.1,834.3,82.6,839.6L82.6,839.6z"/>
	</g>
</g>
<g>
	<g>
		<path class="st1" d="M53.4,805.1c1,9.9,3,19.5,4.9,29.3c1.1,5.7,9.9,3.3,8.8-2.4c-1.7-8.9-3.6-17.8-4.5-26.8
			C61.9,799.4,52.8,799.3,53.4,805.1L53.4,805.1z"/>
	</g>
</g>
<g>
	<g>
		<path class="st1" d="M75.3,869.1c7,6.4,10.5,15.5,16.6,22.6c3.8,4.4,10.2-2,6.4-6.4c-6.2-7.1-9.6-16.1-16.6-22.6
			C77.4,858.7,71,865.1,75.3,869.1L75.3,869.1z"/>
	</g>
</g>
<g>
	<g>
		<path class="st1" d="M114.2,919.5c5.9,5.7,14,12.4,16,20.7c1.4,5.7,10.2,3.3,8.8-2.4c-2.4-9.9-11.3-17.9-18.4-24.7
			C116.4,909.1,109.9,915.5,114.2,919.5L114.2,919.5z"/>
	</g>
</g>
<g>
	<g>
		<path class="st1" d="M143.5,963.3c7.9,6.2,9.5,17.2,17,23.9c4.4,3.9,10.8-2.5,6.4-6.4c-7.4-6.6-9-17.5-17-23.9
			C145.4,953.3,138.9,959.7,143.5,963.3L143.5,963.3z"/>
	</g>
</g>
<g>
	<g>
		<path class="st1" d="M73.7,897.1c-1.4,6,0.9,8.8,3.5,13.8c3,5.6,3.2,12.6,5,18.6c1.7,5.6,10.4,3.2,8.8-2.4
			c-1.5-5.1-2.2-10.4-3.7-15.5c-0.6-2-1.4-4-2.5-5.9c-1.3-2.2-2.9-3.5-2.3-6.2C83.8,893.8,75.1,891.4,73.7,897.1L73.7,897.1z"/>
	</g>
</g>
<g>
	<g>
		<path class="st1" d="M107.9,944.8c6.8,5.7,8.3,15.9,12.6,23.4c2.9,5.1,10.7,0.5,7.8-4.6c-4.7-8.3-6.4-18.8-14-25.2
			C109.9,934.6,103.5,941,107.9,944.8L107.9,944.8z"/>
	</g>
</g>
<g>
	<g>
		<path class="st1" d="M92.8,970.8c2.3,10,2.6,22.4,10.7,29.8c4.3,3.9,10.8-2.5,6.4-6.4c-6.6-6-6.5-17.6-8.4-25.8
			C100.3,962.7,91.5,965.1,92.8,970.8L92.8,970.8z"/>
	</g>
</g>
<g>
	<g>
		<path class="st1" d="M130.5,990.3c2.7,7,5.3,14,8.6,20.8c2.6,5.2,10.4,0.6,7.8-4.6c-3-6-5.3-12.3-7.7-18.6
			C137.2,982.5,128.4,984.9,130.5,990.3L130.5,990.3z"/>
	</g>
</g>
<g>
	<g>
		<path class="st1" d="M150.5,1033.2c3.6,7.5,8.4,14.1,13.4,20.7c3.5,4.6,11.4,0.1,7.8-4.6c-4.9-6.6-9.8-13.3-13.4-20.7
			C155.8,1023.4,148,1028,150.5,1033.2L150.5,1033.2z"/>
	</g>
</g>
<g>
	<g>
		<path class="st1" d="M183.3,1079.1c7.2,7,13.6,14.8,21,21.6c4.3,4,10.7-2.5,6.4-6.4c-7.4-6.8-13.8-14.6-21-21.6
			C185.5,1068.6,179.1,1075,183.3,1079.1L183.3,1079.1z"/>
	</g>
</g>
<g>
	<g>
		<path class="st1" d="M231.1,1123c9.6,4,16.7,12.6,27.3,14.4c5.7,1,8.2-7.8,2.4-8.8c-10.2-1.8-17.8-10.5-27.3-14.4
			C228.1,1112,225.8,1120.8,231.1,1123L231.1,1123z"/>
	</g>
</g>
<g>
	<g>
		<path class="st1" d="M282.8,1151.3c10.7,2.4,19.4,10,30.8,9c5.8-0.5,5.8-9.6,0-9.1c-10.3,0.9-18.7-6.5-28.4-8.7
			C279.5,1141.3,277,1150.1,282.8,1151.3L282.8,1151.3z"/>
	</g>
</g>
<g>
	<g>
		<path class="st1" d="M341.4,1165.9c11.1,0.7,21.5-3,32.3-4.9c5.8-1,3.3-9.8-2.4-8.8c-10,1.8-19.6,5.2-29.9,4.5
			C335.6,1156.4,335.6,1165.5,341.4,1165.9L341.4,1165.9z"/>
	</g>
</g>
<g>
	<g>
		<path class="st1" d="M398.6,1147.8c8.5-3.4,17.1-8.3,23.4-15c4-4.3-2.4-10.7-6.4-6.4c-5.2,5.5-12.4,9.8-19.4,12.7
			C390.8,1141.2,393.2,1150,398.6,1147.8L398.6,1147.8z"/>
	</g>
</g>
<g>
	<g>
		<path class="st1" d="M441.8,1109c6.6-7.7,12.9-16,17-25.4c2.3-5.3-5.5-9.9-7.8-4.6c-3.8,8.7-9.4,16.4-15.6,23.6
			C431.6,1107,438,1113.4,441.8,1109L441.8,1109z"/>
	</g>
</g>
<g>
	<g>
		<path class="st1" d="M470.8,1054.6c3.7-10.8,12.9-18.6,17.2-29.1c2.2-5.4-6.6-7.8-8.8-2.4c-4.3,10.6-13.5,18.2-17.2,29.1
			C460.1,1057.8,468.9,1060.1,470.8,1054.6L470.8,1054.6z"/>
	</g>
</g>
<g>
	<g>
		<path class="st1" d="M466.9,1018.3c2.3-3.6,5.2-6.6,8.5-9.3c1.9-1.6,1.6-4.8,0-6.4c-1.9-1.9-4.5-1.6-6.4,0
			c-3.9,3.2-7.3,6.9-10,11.1C455.9,1018.6,463.8,1023.2,466.9,1018.3L466.9,1018.3z"/>
	</g>
</g>
<g>
	<g>
		<path class="st1" d="M481.7,1056.1c-2,10.3-2.6,21.1-10.4,28.9c-4.1,4.1,2.3,10.6,6.4,6.4c9.1-9.1,10.4-20.8,12.7-32.9
			C491.6,1052.8,482.9,1050.4,481.7,1056.1L481.7,1056.1z"/>
	</g>
</g>
<g>
	<g>
		<path class="st1" d="M447.9,1118.8c-4.1,7.5-8,15.7-14.9,21c-4.6,3.5-0.1,11.4,4.6,7.8c8.4-6.4,13.2-15.1,18.2-24.3
			C458.5,1118.2,450.7,1113.6,447.9,1118.8L447.9,1118.8z"/>
	</g>
</g>
<g>
	<g>
		<path class="st1" d="M405.7,1158.2c-6.4,5.5-12.8,10.2-21.5,10.7c-5.8,0.3-5.9,9.4,0,9.1c11.3-0.7,19.5-6.2,27.9-13.3
			C416.6,1160.8,410.1,1154.4,405.7,1158.2L405.7,1158.2z"/>
	</g>
</g>
<g>
	<g>
		<path class="st1" d="M344.8,1176.1c-10.6-1-20.8-1.1-30.9-5c-5.5-2.1-7.8,6.7-2.4,8.8c10.8,4.2,22,4.2,33.3,5.3
			C350.6,1185.8,350.6,1176.7,344.8,1176.1L344.8,1176.1z"/>
	</g>
</g>
<g>
	<g>
		<path class="st1" d="M275.8,1159.4c-8.6-3.1-15.1-9.9-24.3-11.4c-5.7-1-8.2,7.8-2.4,8.8c9,1.5,15.8,8.4,24.3,11.4
			C278.9,1170.2,281.3,1161.4,275.8,1159.4L275.8,1159.4z"/>
	</g>
</g>
<g>
	<g>
		<path class="st1" d="M221.1,1131.4c-9.1-4.8-17.9-10.5-24.9-18.2c-3.9-4.3-10.4,2.1-6.4,6.4c7.5,8.2,17,14.5,26.7,19.7
			C221.6,1141.9,226.2,1134.1,221.1,1131.4L221.1,1131.4z"/>
	</g>
</g>
<g>
	<g>
		<path class="st1" d="M171.9,1087.3c-7.9-5.3-14.3-12-20.5-19.2c-3.8-4.4-10.2,2-6.4,6.4c6.7,7.8,13.8,14.8,22.3,20.6
			C172.2,1098.4,176.7,1090.5,171.9,1087.3L171.9,1087.3z"/>
	</g>
</g>
<g>
	<g>
		<path class="st1" d="M138.4,1044.4c-1.6-8.7-7-15.1-10.6-23c-2.4-5.3-10.3-0.7-7.8,4.6c3.3,7.1,8.2,12.9,9.7,20.8
			C130.7,1052.5,139.5,1050.1,138.4,1044.4L138.4,1044.4z"/>
	</g>
</g>
<g>
	<g>
		<path class="st1" d="M161.4,1009.1c2.8,0.2,5.1,3.5,6.5,5.6c1.9,2.8,3.5,5.9,5.6,8.6c1.5,2,3.9,2.9,6.2,1.6c2-1.1,3.1-4.3,1.6-6.2
			c-5.6-7.5-9.3-17.7-20-18.7C155.6,999.5,155.6,1008.6,161.4,1009.1L161.4,1009.1z"/>
	</g>
</g>
<g>
	<g>
		<path class="st1" d="M183.4,1044.7c5,4.7,13.7,9.4,15.7,16.4c1.6,5.6,10.4,3.2,8.8-2.4c-2.6-9.1-11.5-14.3-18-20.4
			C185.6,1034.3,179.2,1040.7,183.4,1044.7L183.4,1044.7z"/>
	</g>
</g>
<g>
	<g>
		<path class="st1" d="M219.5,1087c8,3.3,14.7,8.7,20.8,14.8c4.1,4.2,10.5-2.3,6.4-6.4c-7.2-7.3-15.3-13.2-24.8-17.1
			C216.5,1076,214.2,1084.8,219.5,1087L219.5,1087z"/>
	</g>
</g>
<g>
	<g>
		<path class="st1" d="M265.6,1116.4c9.8,4.2,14.9,14.3,25.5,17.3c5.6,1.6,8-7.1,2.4-8.8c-9.5-2.7-14.3-12.6-23.3-16.4
			C264.9,1106.2,260.2,1114.1,265.6,1116.4L265.6,1116.4z"/>
	</g>
</g>
<g>
	<g>
		<path class="st1" d="M315.7,1140.4c11,2.2,21.6,4.9,31.9-0.9c5.1-2.9,0.5-10.7-4.6-7.8c-7.9,4.5-16.6,1.6-24.9,0
			C312.4,1130.4,309.9,1139.2,315.7,1140.4L315.7,1140.4z"/>
	</g>
</g>
<g>
	<g>
		<path class="st1" d="M366.2,1137.8c10.7-3.4,21.6-5.9,31.6-11.3c5.1-2.8,0.6-10.6-4.6-7.8c-9.2,5-19.5,7.2-29.4,10.4
			C358.2,1130.8,360.6,1139.6,366.2,1137.8L366.2,1137.8z"/>
	</g>
</g>
<g>
	<g>
		<path class="st1" d="M411.4,1105c1.9-8.4,9.9-12.4,15.5-18.2c4-4.2-2.4-10.7-6.4-6.4c-6.8,7.1-15.4,11.9-17.8,22.2
			C401.3,1108.3,410.1,1110.7,411.4,1105L411.4,1105z"/>
	</g>
</g>
<g>
	<g>
		<path class="st1" d="M440,1060c2-4.3,5.3-7.5,9.1-10.1c4.8-3.3,0.3-11.2-4.6-7.8c-5.1,3.5-9.8,7.7-12.4,13.4
			c-1,2.2-0.6,4.9,1.6,6.2C435.7,1062.7,438.9,1062.2,440,1060L440,1060z"/>
	</g>
</g>
<g>
	<g>
		<path class="st1" d="M340.5,1115.1c10.3,2.2,20.2,6.1,30.3,1.2c5.3-2.5,0.7-10.4-4.6-7.8c-7.2,3.4-16.1-0.6-23.3-2.1
			C337.3,1105.2,334.8,1113.9,340.5,1115.1L340.5,1115.1z"/>
	</g>
</g>
<g>
	<g>
		<path class="st1" d="M282.5,1100.7c9.3,2,17.9,6.4,27.3,8.4c5.7,1.2,8.1-7.5,2.4-8.8c-9.3-2-17.9-6.4-27.3-8.4
			C279.2,1090.7,276.8,1099.4,282.5,1100.7L282.5,1100.7z"/>
	</g>
</g>
<g>
	<g>
		<path class="st1" d="M220.4,1055.2c8.2,1.3,16.5,7.3,21.6,13.7c3.6,4.6,10-1.9,6.4-6.4c-5.9-7.4-16-14.6-25.6-16.1
			C217.1,1045.6,214.6,1054.3,220.4,1055.2L220.4,1055.2z"/>
	</g>
</g>
<g>
	<g>
		<path class="st1" d="M198.2,1018.2c3.3,0.2,6.9,4,9.2,6c3.2,2.7,6.2,5.6,9.7,7.8c4.9,3.2,9.5-4.7,4.6-7.8
			c-7.6-4.9-13.8-14.4-23.5-15.1C192.4,1008.8,192.4,1017.8,198.2,1018.2L198.2,1018.2z"/>
	</g>
</g>
<g>
	<g>
		<path class="st1" d="M264.2,1068.5c8.4,3.7,15.5,9.5,23.9,13.2c5.3,2.3,9.9-5.5,4.6-7.8c-8.4-3.7-15.5-9.5-23.9-13.2
			C263.5,1058.3,258.8,1066.1,264.2,1068.5L264.2,1068.5z"/>
	</g>
</g>
<g>
	<g>
		<path class="st1" d="M317.4,1088.9c9.3,3.2,18,7.5,28,7.9c5.9,0.2,5.8-8.9,0-9.1c-9-0.3-17.2-4.7-25.6-7.5
			C314.3,1078.2,311.9,1087,317.4,1088.9L317.4,1088.9z"/>
	</g>
</g>
<g>
	<g>
		<path class="st1" d="M375.9,1085.9c11.8,0.4,21.4-7.1,31.6-11.7c5.3-2.4,0.7-10.2-4.6-7.8c-8.6,3.9-17.1,10.8-27,10.5
			C370,1076.6,370.1,1085.7,375.9,1085.9L375.9,1085.9z"/>
	</g>
</g>
<g>
	<g>
		<path class="st1" d="M307.8,1061.1c10,2.7,19.3,7.3,29.5,9.4c5.7,1.2,8.1-7.5,2.4-8.8c-10.1-2.2-19.5-6.8-29.5-9.4
			C304.6,1050.8,302.2,1059.5,307.8,1061.1L307.8,1061.1z"/>
	</g>
</g>
<g>
	<g>
		<path class="st1" d="M237.9,1033.7c5.6,3.5,10.2,8.3,15.1,12.7c4.3,3.9,10.8-2.5,6.4-6.4c-5.4-5-10.7-10.2-17-14.1
			C237.5,1022.8,233,1030.6,237.9,1033.7L237.9,1033.7z"/>
	</g>
</g>
<g>
	<g>
		<path class="st1" d="M271.1,1033.3c8.1,1.8,14.1,8,22.1,10.4c5.6,1.7,8-7.1,2.4-8.8c-7.9-2.4-13.8-8.5-22.1-10.4
			C267.8,1023.3,265.4,1032,271.1,1033.3L271.1,1033.3z"/>
	</g>
</g>
<g>
	<g>
		<path class="st1" d="M546.7,861.6c-1.6,8.4-2.2,16.9-3.1,25.3c-0.7,5.8,8.4,5.8,9.1,0c0.9-7.7,1.4-15.3,2.8-22.9
			C556.6,858.3,547.8,855.8,546.7,861.6L546.7,861.6z"/>
	</g>
</g>
<g>
	<g>
		<path class="st1" d="M546.6,823.1c5.8,0,5.9-9.1,0-9.1C540.7,814,540.7,823.1,546.6,823.1L546.6,823.1z"/>
	</g>
</g>
<g>
	<g>
		<path class="st1" d="M535.5,915.4c-2,9.9-4.4,19.6-6.4,29.5c-1.1,5.7,7.6,8.2,8.8,2.4c2-9.9,4.4-19.6,6.4-29.5
			C545.4,912.1,536.6,909.7,535.5,915.4L535.5,915.4z"/>
	</g>
</g>
<g>
	<g>
		<path class="st1" d="M506.2,990.4c-1.3,5.9-4,11.5-7.8,16.1c-3.7,4.5,2.7,11,6.4,6.4c4.8-5.9,8.5-12.7,10.2-20.1
			C516.2,987.1,507.4,984.7,506.2,990.4L506.2,990.4z"/>
	</g>
</g>
<g>
	<g>
		<path class="st1" d="M524.9,974.8c-1.6,8.3-2.7,16.7-4.4,25.1c-1.1,5.7,7.7,8.2,8.8,2.4c1.6-8.3,2.7-16.7,4.4-25.1
			C534.8,971.5,526,969.1,524.9,974.8L524.9,974.8z"/>
	</g>
</g>
<g>
	<g>
		<path class="st1" d="M511.2,1038.4c-2,10.3-3.5,20.6-5.5,30.9c-1.1,5.7,7.7,8.2,8.8,2.4c2-10.3,3.5-20.6,5.5-30.9
			C521,1035.1,512.3,1032.7,511.2,1038.4L511.2,1038.4z"/>
	</g>
</g>
<g>
	<g>
		<path class="st1" d="M500,1098.3c-0.8,6.9-1.5,13.8-1.7,20.8c-0.1,5.9,9,5.9,9.1,0c0.2-7,0.9-13.9,1.7-20.8
			C509.7,1092.5,500.6,1092.6,500,1098.3L500,1098.3z"/>
	</g>
</g>
<g>
	<g>
		<path class="st1" d="M504.7,1146.9c-1.4,7.8-1.4,15.4-1.2,23.3c0.2,5.8,9.3,5.9,9.1,0c-0.2-7-0.4-14,0.9-20.9
			C514.5,1143.6,505.7,1141.2,504.7,1146.9L504.7,1146.9z"/>
	</g>
</g>
<g>
	<g>
		<path class="st1" d="M562,885c-1.7,8.2-3.8,16.4-5.4,24.6c-1.2,5.7,7.6,8.2,8.8,2.4c1.7-8.2,3.8-16.4,5.4-24.6
			C572,881.7,563.2,879.2,562,885L562,885z"/>
	</g>
</g>
<g>
	<g>
		<path class="st1" d="M549.8,941.1c-1.6,7.9-3.1,15.7-4.7,23.6c-1.1,5.7,7.6,8.2,8.8,2.4c1.6-7.9,3.1-15.7,4.7-23.6
			C559.7,937.8,551,935.4,549.8,941.1L549.8,941.1z"/>
	</g>
</g>
<g>
	<g>
		<path class="st1" d="M539.2,1008.7c-1.8,8.9-3.5,17.9-5.3,26.8c-1.1,5.7,7.6,8.2,8.8,2.4c1.8-8.9,3.5-17.9,5.3-26.8
			C549.1,1005.4,540.4,1003,539.2,1008.7L539.2,1008.7z"/>
	</g>
</g>
<g>
	<g>
		<path class="st1" d="M527.9,1069c-1.8,8.8-4.5,17.5-4.6,26.5c-0.1,5.9,9,5.9,9.1,0c0.1-8.2,2.6-16.1,4.3-24.1
			C537.8,1065.7,529.1,1063.2,527.9,1069L527.9,1069z"/>
	</g>
</g>
<g>
	<g>
		<path class="st1" d="M525.1,1116.9c-3,7.8-2.2,16-2.5,24.2c-0.2,5.9,8.9,5.8,9.1,0c0.2-7.4-0.6-14.7,2.1-21.8
			C536,1113.9,527.2,1111.5,525.1,1116.9L525.1,1116.9z"/>
	</g>
</g>
<g>
	<g>
		<path class="st1" d="M575,909.8c-1.7,8.3-3.4,16.3-2.2,24.8c0.8,5.8,9.6,3.3,8.8-2.4c-1-6.7,0.9-13.5,2.2-20
			C584.9,906.5,576.1,904.1,575,909.8L575,909.8z"/>
	</g>
</g>
<g>
	<g>
		<path class="st1" d="M565.1,965.3c-1.2,6.5-1.5,13.8-5.3,19.5c-3.2,4.9,4.6,9.5,7.8,4.6c4.3-6.4,4.8-14.3,6.2-21.7
			C575,962,566.2,959.6,565.1,965.3L565.1,965.3z"/>
	</g>
</g>
<g>
	<g>
		<path class="st1" d="M556.8,1007.2c-1.1,5.7-1.8,11.5-2.9,17.3c-1.1,5.7,7.7,8.2,8.8,2.4c1.1-5.7,1.8-11.5,2.9-17.3
			C566.7,1003.9,557.9,1001.4,556.8,1007.2L556.8,1007.2z"/>
	</g>
</g>
<g>
	<g>
		<path class="st1" d="M551.3,1043.5c-1.4,7.2-2.8,14.4-3.7,21.7c-0.7,5.8,8.4,5.7,9.1,0c0.8-6.5,2.1-12.9,3.3-19.3
			C561.2,1040.2,552.5,1037.7,551.3,1043.5L551.3,1043.5z"/>
	</g>
</g>
<g>
	<g>
		<path class="st1" d="M542.6,1088.2c-0.9,6.7-2.5,13.3-2.9,20.1c-0.3,5.8,8.8,5.8,9.1,0c0.3-6.8,2-13.4,2.9-20.1
			C552.4,1082.4,543.3,1082.4,542.6,1088.2L542.6,1088.2z"/>
	</g>
</g>
<g>
	<g>
		<path class="st1" d="M540.8,1139.7c-0.9,7.4-1.8,14.9-2.7,22.3c-0.7,5.8,8.4,5.7,9.1,0c0.9-7.4,1.8-14.9,2.7-22.3
			C550.6,1133.9,541.5,1133.9,540.8,1139.7L540.8,1139.7z"/>
	</g>
</g>
<g>
	<g>
		<path class="st1" d="M590.3,934.2c-1.1,8.7-0.6,17.5-3.5,25.9c-2,5.5,6.8,7.9,8.8,2.4c3.2-9.2,2.7-18.8,3.9-28.4
			C600.1,928.4,591,928.4,590.3,934.2L590.3,934.2z"/>
	</g>
</g>
<g>
	<g>
		<path class="st1" d="M581,980.7c-1.5,7.7-3,15.4-4.6,23.1c-1.1,5.7,7.6,8.2,8.8,2.4c1.5-7.7,3-15.4,4.6-23.1
			C590.9,977.4,582.2,975,581,980.7L581,980.7z"/>
	</g>
</g>
<g>
	<g>
		<path class="st1" d="M573,1027.1c-1.6,8.4-2.2,16.8-2.1,25.4c0.1,5.8,9.1,5.9,9.1,0c-0.1-7.7,0.4-15.4,1.8-22.9
			C582.8,1023.8,574.1,1021.4,573,1027.1L573,1027.1z"/>
	</g>
</g>
<g>
	<g>
		<path class="st1" d="M565.6,1075.8c-1.6,7.9-3.6,15.8-4.1,23.9c-0.3,5.8,8.7,5.8,9.1,0c0.4-7.3,2.3-14.3,3.8-21.4
			C575.5,1072.5,566.7,1070.1,565.6,1075.8L565.6,1075.8z"/>
	</g>
</g>
<g>
	<g>
		<path class="st1" d="M560,1123.8c-1.6,8.1-2.7,16.2-4.2,24.3c-1.1,5.7,7.7,8.2,8.8,2.4c1.6-8.1,2.7-16.2,4.2-24.3
			C569.9,1120.5,561.1,1118.1,560,1123.8L560,1123.8z"/>
	</g>
</g>
<g>
	<g>
		<path class="st1" d="M607.8,952.6c-1.6,8.1-3.2,16.1-4.8,24.2c-1.1,5.7,7.6,8.2,8.8,2.4c1.6-8.1,3.2-16.1,4.8-24.2
			C617.7,949.3,608.9,946.8,607.8,952.6L607.8,952.6z"/>
	</g>
</g>
<g>
	<g>
		<path class="st1" d="M597.4,1002.4c-1.4,7-2.8,14-4.1,20.9c-1.1,5.7,7.6,8.2,8.8,2.4c1.4-7,2.8-14,4.1-20.9
			C607.3,999.1,598.5,996.6,597.4,1002.4L597.4,1002.4z"/>
	</g>
</g>
<g>
	<g>
		<path class="st1" d="M589.5,1051c-1.7,8.8-3.4,17.7-4.1,26.6c-0.4,5.8,8.7,5.8,9.1,0c0.6-8.2,2.2-16.2,3.8-24.2
			C599.3,1047.7,590.6,1045.3,589.5,1051L589.5,1051z"/>
	</g>
</g>
<g>
	<g>
		<path class="st1" d="M583.8,1105.1c-1.3,7.4-1.4,14.9-3.3,22.2c-1.5,5.7,7.3,8.1,8.8,2.4c1.9-7.3,1.9-14.8,3.3-22.2
			C593.6,1101.8,584.8,1099.3,583.8,1105.1L583.8,1105.1z"/>
	</g>
</g>
<g>
	<g>
		<path class="st1" d="M578.7,1148.1c-1.1,8.7-0.4,17.6-1.9,26.3c-1,5.7,7.7,8.2,8.8,2.4c1.7-9.5,1.1-19.1,2.2-28.7
			C588.5,1142.3,579.4,1142.3,578.7,1148.1L578.7,1148.1z"/>
	</g>
</g>
<g>
	<g>
		<path class="st1" d="M623.9,975.3c-1.6,8.5-2.3,17.7-6.5,25.4c-2.7,5.2,5.1,9.8,7.8,4.6c4.6-8.6,5.6-18.2,7.4-27.6
			C633.8,972,625,969.5,623.9,975.3L623.9,975.3z"/>
	</g>
</g>
<g>
	<g>
		<path class="st1" d="M613.9,1031.8c-1.4,8-0.6,16.2-2.5,24c-1.4,5.7,7.4,8.1,8.8,2.4c1.9-7.9,1.1-16.1,2.5-24
			C623.6,1028.5,614.9,1026.1,613.9,1031.8L613.9,1031.8z"/>
	</g>
</g>
<g>
	<g>
		<path class="st1" d="M607.1,1077.4c-1.7,8.8-3.5,17.5-5.2,26.3c-1.1,5.7,7.6,8.2,8.8,2.4c1.7-8.8,3.5-17.5,5.2-26.3
			C617,1074.1,608.2,1071.6,607.1,1077.4L607.1,1077.4z"/>
	</g>
</g>
<g>
	<g>
		<path class="st1" d="M600.7,1129.8c-0.8,7.1-0.8,14.2-2,21.2c-1,5.7,7.7,8.2,8.8,2.4c1.4-7.8,1.5-15.8,2.4-23.6
			C610.5,1124,601.4,1124,600.7,1129.8L600.7,1129.8z"/>
	</g>
</g>
<g>
	<g>
		<path class="st1" d="M638,1003.1c-2.1,8.7-2.4,17.5-2.4,26.4c0,5.8,9.1,5.9,9.1,0c0-8.1,0.1-16.1,2-24
			C648.1,999.9,639.3,997.5,638,1003.1L638,1003.1z"/>
	</g>
</g>
<g>
	<g>
		<path class="st1" d="M644.3,965.4c-0.6,2.9-1.1,5.7-1.7,8.6c-0.5,2.4,0.7,4.9,3.2,5.6c2.2,0.6,5.1-0.8,5.6-3.2
			c0.6-2.9,1.1-5.7,1.7-8.6c0.5-2.4-0.7-4.9-3.2-5.6C647.7,961.6,644.8,962.9,644.3,965.4L644.3,965.4z"/>
	</g>
</g>
<g>
	<g>
		<path class="st1" d="M660.7,987c-1.7,6.9-0.2,14-1.9,20.8c-1.4,5.7,7.4,8.1,8.8,2.4c1.7-6.9,0.2-14,1.9-20.8
			C670.8,983.7,662,981.3,660.7,987L660.7,987z"/>
	</g>
</g>
<g>
	<g>
		<path class="st1" d="M630.6,1060.2c-1.5,7.9-2.1,15.9-3.6,23.8c-1.1,5.7,7.7,8.2,8.8,2.4c1.5-7.9,2.1-15.9,3.6-23.8
			C640.4,1056.9,631.6,1054.5,630.6,1060.2L630.6,1060.2z"/>
	</g>
</g>
<g>
	<g>
		<path class="st1" d="M625.3,1112.2c-1.5,7.8-2.5,15.6-3.4,23.4c-0.7,5.8,8.4,5.7,9.1,0c0.8-7,1.8-14,3.1-21
			C635.2,1108.9,626.4,1106.4,625.3,1112.2L625.3,1112.2z"/>
	</g>
</g>
<g>
	<g>
		<path class="st1" d="M652.8,1033c-0.7,5.8-2.2,11.5-2.3,17.4c-0.1,5.9,9,5.9,9.1,0c0.1-5.9,1.6-11.6,2.3-17.4
			c0.3-2.5-2.3-4.5-4.5-4.5C654.6,1028.4,653.1,1030.5,652.8,1033L652.8,1033z"/>
	</g>
</g>
<g>
	<g>
		<path class="st1" d="M648.1,1078.8c-1.6,8.3-2.3,16.6-3.8,24.9c-1.1,5.7,7.7,8.2,8.8,2.4c1.6-8.3,2.2-16.6,3.8-24.9
			C658,1075.5,649.2,1073,648.1,1078.8L648.1,1078.8z"/>
	</g>
</g>
<g>
	<g>
		<path class="st1" d="M677.8,1002.1c-1.5,7.5-3,15-4.5,22.5c-1.1,5.7,7.6,8.2,8.8,2.4c1.5-7.5,3-15,4.5-22.5
			C687.7,998.8,678.9,996.3,677.8,1002.1L677.8,1002.1z"/>
	</g>
</g>
<g>
	<g>
		<path class="st1" d="M669.5,1049.7c-0.8,6.7-1.1,13.4-2.4,20c-1.1,5.7,7.7,8.2,8.8,2.4c1.4-7.4,1.8-15,2.7-22.5
			C679.3,1043.9,670.2,1043.9,669.5,1049.7L669.5,1049.7z"/>
	</g>
</g>
<g>
	<g>
		<path class="st1" d="M664.2,1098.7c-2.1,10.4-4.1,20.8-6.2,31.1c-1.1,5.7,7.6,8.2,8.8,2.4c2.1-10.4,4.1-20.8,6.2-31.1
			C674.1,1095.4,665.4,1092.9,664.2,1098.7L664.2,1098.7z"/>
	</g>
</g>
<g>
	<g>
		<path class="st1" d="M640.8,1132.5c-1.9,8.7,1.5,17.5-1.2,26c-1.8,5.6,6.9,8,8.8,2.4c2.9-8.7-0.6-17.3,1.2-26
			C650.8,1129.3,642.1,1126.8,640.8,1132.5L640.8,1132.5z"/>
	</g>
</g>
<g>
	<g>
		<path class="st1" d="M616.1,1153.9c-1.6,6.7-0.6,13.5-1.8,20.3c-1,5.7,7.8,8.2,8.8,2.4c1.1-6.7,0.2-13.7,1.8-20.3
			C626.3,1150.6,617.5,1148.2,616.1,1153.9L616.1,1153.9z"/>
	</g>
</g>
<g>
	<g>
		<path class="st1" d="M691.4,1068.4c-1.8,9.1-3.6,18.2-5.4,27.4c-1.1,5.7,7.6,8.2,8.8,2.4c1.8-9.1,3.6-18.2,5.4-27.4
			C701.3,1065.1,692.6,1062.6,691.4,1068.4L691.4,1068.4z"/>
	</g>
</g>
<g>
	<g>
		<path class="st1" d="M694.1,1029.3c-1.2,5.9-2.3,11.8-3.5,17.7c-1.1,5.7,7.6,8.2,8.8,2.4c1.2-5.9,2.3-11.8,3.5-17.7
			C704,1026,695.3,1023.6,694.1,1029.3L694.1,1029.3z"/>
	</g>
</g>
<g>
	<g>
		<path class="st1" d="M713.5,1013.1c-1.3,8.1,0.9,16.4-0.9,24.4c-1.3,5.7,7.5,8.1,8.8,2.4c1.8-8.1-0.4-16.2,0.9-24.4
			C723.2,1009.7,714.4,1007.3,713.5,1013.1L713.5,1013.1z"/>
	</g>
</g>
<g>
	<g>
		<path class="st1" d="M712.3,1055.8c-1.5,7.4-2.8,14.8-3.8,22.2c-0.7,5.8,8.4,5.7,9.1,0c0.8-6.7,2.1-13.2,3.4-19.8
			C722.2,1052.5,713.5,1050,712.3,1055.8L712.3,1055.8z"/>
	</g>
</g>
<g>
	<g>
		<path class="st1" d="M682.1,1121.2c-2.8,9.7-1.9,20.9-7.3,29.7c-3.1,5,4.8,9.6,7.8,4.6c6-9.7,5.1-21.3,8.2-31.9
			C692.5,1118,683.8,1115.6,682.1,1121.2L682.1,1121.2z"/>
	</g>
</g>
<g>
	<g>
		<path class="st1" d="M657.8,1153.7c-1.4,7.5-2.5,15.1-3.9,22.7c-1.1,5.7,7.7,8.2,8.8,2.4c1.4-7.5,2.5-15.1,3.9-22.7
			C667.7,1150.4,658.9,1148,657.8,1153.7L657.8,1153.7z"/>
	</g>
</g>
<g>
	<g>
		<path class="st1" d="M705.2,1097.3c-1.6,8.1-3.2,16.1-4.8,24.2c-1.1,5.7,7.6,8.2,8.8,2.4c1.6-8.1,3.2-16.1,4.8-24.2
			C715.1,1094,706.4,1091.6,705.2,1097.3L705.2,1097.3z"/>
	</g>
</g>
<g>
	<g>
		<path class="st1" d="M697.6,1149.3c-1.9,9.3-4.4,18.7-4,28.3c0.3,5.8,9.4,5.9,9.1,0c-0.4-8.8,1.9-17.3,3.6-25.8
			C707.5,1146,698.8,1143.6,697.6,1149.3L697.6,1149.3z"/>
	</g>
</g>
<g>
	<g>
		<path class="st1" d="M736.8,1032.8c-2.2,8.4-2,17.1-3.5,25.6c-1,5.7,7.7,8.2,8.8,2.4c1.5-8.5,1.3-17.2,3.5-25.6
			C747.1,1029.5,738.3,1027.1,736.8,1032.8L736.8,1032.8z"/>
	</g>
</g>
<g>
	<g>
		<path class="st1" d="M724.6,1086.7c-1.5,7.7-3,15.4-4.6,23c-1.1,5.7,7.6,8.2,8.8,2.4c1.5-7.7,3-15.4,4.6-23
			C734.5,1083.4,725.8,1081,724.6,1086.7L724.6,1086.7z"/>
	</g>
</g>
<g>
	<g>
		<path class="st1" d="M720.6,1131.2c-0.8,7.6-2.3,15.2-3.8,22.7c-1.1,5.7,7.6,8.2,8.8,2.4c1.6-8.3,3.2-16.7,4.1-25.1
			C730.3,1125.4,721.2,1125.4,720.6,1131.2L720.6,1131.2z"/>
	</g>
</g>
<g>
	<g>
		<path class="st1" d="M757.5,1029.9c-1.5,4.1-2.4,8.3-4,12.3c-0.9,2.3,1,5,3.2,5.6c2.6,0.7,4.7-0.9,5.6-3.2c1.6-4,2.5-8.3,4-12.3
			c0.8-2.3-0.9-5-3.2-5.6C760.6,1026,758.3,1027.6,757.5,1029.9L757.5,1029.9z"/>
	</g>
</g>
<g>
	<g>
		<path class="st1" d="M751.9,1065.9c-1.3,6.9-2.1,14-6,20c-3.2,4.9,4.6,9.5,7.8,4.6c4.4-6.7,5.5-14.5,6.9-22.2
			C761.8,1062.6,753,1060.1,751.9,1065.9L751.9,1065.9z"/>
	</g>
</g>
<g>
	<g>
		<path class="st1" d="M741.2,1108.5c-2.1,8.2-1.1,16.5-1.7,24.8c-0.4,5.8,8.7,5.8,9.1,0c0.6-7.5-0.5-15,1.4-22.4
			C751.4,1105.3,742.7,1102.9,741.2,1108.5L741.2,1108.5z"/>
	</g>
</g>
<g>
	<g>
		<path class="st1" d="M739.1,1147.4c-2,9.5-3.6,18.5-3.2,28.4c0.2,5.8,9.3,5.9,9.1,0c-0.4-9.1,1-17.2,2.9-26
			C749,1144.2,740.3,1141.7,739.1,1147.4L739.1,1147.4z"/>
	</g>
</g>
<g>
	<g>
		<path class="st1" d="M776.3,1040.7c-1.9,9.6-3.8,19.1-5.7,28.7c-1.1,5.7,7.6,8.2,8.8,2.4c1.9-9.6,3.8-19.1,5.7-28.7
			C786.1,1037.4,777.4,1035,776.3,1040.7L776.3,1040.7z"/>
	</g>
</g>
<g>
	<g>
		<path class="st1" d="M763.3,1092.1c0.2,5.7,0.3,11.4,0.5,17c0.2,5.8,9.3,5.9,9.1,0c-0.2-5.7-0.3-11.4-0.5-17
			C772.2,1086.2,763.1,1086.2,763.3,1092.1L763.3,1092.1z"/>
	</g>
</g>
<g>
	<g>
		<path class="st1" d="M760.1,1135.1c0.3,7,0.4,14,0.1,21.1c-0.2,5.9,8.9,5.8,9.1,0c0.3-7,0.2-14-0.1-21.1
			C768.9,1129.3,759.8,1129.3,760.1,1135.1L760.1,1135.1z"/>
	</g>
</g>
<g>
	<g>
		<path class="st1" d="M783.7,1148.7c-1.2,6.1-2.4,12.1-3.6,18.2c-1.1,5.7,7.6,8.2,8.8,2.4c1.2-6.1,2.4-12.1,3.6-18.2
			C793.5,1145.4,784.8,1143,783.7,1148.7L783.7,1148.7z"/>
	</g>
</g>
<g>
	<g>
		<path class="st1" d="M793.6,1078.9c-1.2,6.1-2.4,12.1-3.6,18.2c-1.1,5.7,7.6,8.2,8.8,2.4c1.2-6.1,2.4-12.1,3.6-18.2
			C803.5,1075.6,794.7,1073.2,793.6,1078.9L793.6,1078.9z"/>
	</g>
</g>
<g>
	<g>
		<path class="st1" d="M803.1,1033.5c0.8,4.2,0.3,8.3-1.1,12.3c-1.9,5.6,6.9,7.9,8.8,2.4c1.9-5.6,2.1-11.3,1.1-17.1
			C810.8,1025.3,802,1027.8,803.1,1033.5L803.1,1033.5z"/>
	</g>
</g>
<g>
	<g>
		<path class="st1" d="M821.2,1050.6c-2.4,7.3-3.3,14.9-2.5,22.6c0.6,5.8,9.7,5.8,9.1,0c-0.7-6.9,0-13.5,2.2-20.2
			C831.8,1047.5,823,1045.1,821.2,1050.6L821.2,1050.6z"/>
	</g>
</g>
<g>
	<g>
		<path class="st1" d="M813.5,1099.8c-2.8,8.9-4.1,18.1-4.1,27.4c0,5.8,9.1,5.9,9.1,0c0-8.6,1.2-16.8,3.8-25
			C824,1096.6,815.3,1094.2,813.5,1099.8L813.5,1099.8z"/>
	</g>
</g>
<g>
	<g>
		<path class="st1" d="M805.6,1146.5c-1.3,8.7-2.6,17.4-3.9,26.1c-0.9,5.7,7.9,8.2,8.8,2.4c1.3-8.7,2.6-17.4,3.9-26.1
			C815.2,1143.2,806.4,1140.7,805.6,1146.5L805.6,1146.5z"/>
	</g>
</g>
<g>
	<g>
		<path class="st1" d="M848.1,1039.2c-0.4,3.9-0.7,7.8-1.1,11.7c-0.2,2.4,2.3,4.5,4.5,4.5c2.7,0,4.3-2.1,4.5-4.5
			c0.4-3.9,0.7-7.8,1.1-11.7c0.2-2.4-2.3-4.5-4.5-4.5C850,1034.7,848.3,1036.8,848.1,1039.2L848.1,1039.2z"/>
	</g>
</g>
<g>
	<g>
		<path class="st1" d="M838.5,1077.9c-1.5,7.3-2.9,14.7-4.4,22c-1.1,5.7,7.6,8.2,8.8,2.4c1.5-7.3,2.9-14.7,4.4-22
			C848.4,1074.6,839.7,1072.1,838.5,1077.9L838.5,1077.9z"/>
	</g>
</g>
<g>
	<g>
		<path class="st1" d="M831.7,1132.5c-0.8,7.8-1.7,15.6-2.5,23.4c-0.6,5.8,8.5,5.8,9.1,0c0.8-7.8,1.7-15.6,2.5-23.4
			C841.4,1126.7,832.3,1126.7,831.7,1132.5L831.7,1132.5z"/>
	</g>
</g>
<g>
	<g>
		<path class="st1" d="M852.9,1150.6c-0.8,6.8-1.5,13.6-2.3,20.5c-0.6,5.8,8.5,5.8,9.1,0c0.8-6.8,1.5-13.6,2.3-20.5
			C862.6,1144.8,853.5,1144.9,852.9,1150.6L852.9,1150.6z"/>
	</g>
</g>
<g>
	<g>
		<path class="st1" d="M858.5,1098c-0.6,6.2-1.2,12.4-1.8,18.6c-0.6,5.8,8.5,5.8,9.1,0c0.6-6.2,1.2-12.4,1.8-18.6
			C868.1,1092.2,859,1092.2,858.5,1098L858.5,1098z"/>
	</g>
</g>
<g>
	<g>
		<path class="st1" d="M868.3,1042.3c-0.2,7.8-0.9,15.5-2.3,23.1c-1,5.7,7.7,8.2,8.8,2.4c1.5-8.5,2.4-17,2.6-25.5
			C877.5,1036.4,868.4,1036.4,868.3,1042.3L868.3,1042.3z"/>
	</g>
</g>
<g>
	<g>
		<path class="st1" d="M888.9,1061.9c-2.7,10.4-4.9,20.9-6.6,31.6c-0.9,5.7,7.8,8.2,8.8,2.4c1.7-10.6,3.9-21.1,6.6-31.6
			C899.1,1058.7,890.3,1056.3,888.9,1061.9L888.9,1061.9z"/>
	</g>
</g>
<g>
	<g>
		<path class="st1" d="M881,1129.3c-0.8,8.1-1.6,16.2-2.4,24.4c-0.6,5.8,8.5,5.8,9.1,0c0.8-8.1,1.6-16.2,2.4-24.4
			C890.6,1123.5,881.5,1123.5,881,1129.3L881,1129.3z"/>
	</g>
</g>
<g>
	<g>
		<path class="st1" d="M911.1,1037.8c1.2,7.8,2,15.5,2.4,23.4c0.4,5.8,9.4,5.9,9.1,0c-0.5-8.6-1.5-17.2-2.8-25.8
			C919,1029.6,910.2,1032,911.1,1037.8L911.1,1037.8z"/>
	</g>
</g>
<g>
	<g>
		<path class="st1" d="M905.1,1096c-2.6,9.7-3.5,19.7-2.4,29.7c0.6,5.8,9.7,5.8,9.1,0c-1-9.3-0.3-18.3,2.1-27.3
			C915.4,1092.7,906.6,1090.3,905.1,1096L905.1,1096z"/>
	</g>
</g>
<g>
	<g>
		<path class="st1" d="M897.3,1150.8c-0.7,8.5-1.4,17-2.1,25.5c-0.5,5.8,8.6,5.8,9.1,0c0.7-8.5,1.4-17,2.1-25.5
			C906.9,1145,897.8,1145,897.3,1150.8L897.3,1150.8z"/>
	</g>
</g>
<g>
	<g>
		<path class="st1" d="M934.1,1058.2c1,10.5,1.9,20.9,2.9,31.4c0.5,5.8,9.6,5.8,9.1,0c-1-10.5-1.9-20.9-2.9-31.4
			C942.7,1052.4,933.6,1052.4,934.1,1058.2L934.1,1058.2z"/>
	</g>
</g>
<g>
	<g>
		<path class="st1" d="M926.8,1117.5c0.1,11.4-0.6,22.8-2.1,34c-0.8,5.7,8,8.2,8.8,2.4c1.7-12.1,2.5-24.2,2.5-36.5
			C935.9,1111.7,926.8,1111.7,926.8,1117.5L926.8,1117.5z"/>
	</g>
</g>
<g>
	<g>
		<path class="st1" d="M954.2,1033.5c1,6.5,2,13,3,19.5c0.9,5.8,9.6,3.3,8.8-2.4c-1-6.5-2-13-3-19.5
			C962.1,1025.3,953.3,1027.8,954.2,1033.5L954.2,1033.5z"/>
	</g>
</g>
<g>
	<g>
		<path class="st1" d="M955.7,1085.1c-1.4,8.7-2.7,17.4-4.1,26c-0.9,5.7,7.9,8.2,8.8,2.4c1.4-8.7,2.7-17.4,4.1-26
			C965.3,1081.8,956.6,1079.3,955.7,1085.1L955.7,1085.1z"/>
	</g>
</g>
<g>
	<g>
		<path class="st1" d="M952,1147.3c0.2,9.2-0.2,18.4-1,27.6c-0.5,5.8,8.6,5.8,9.1,0c0.8-9.2,1.2-18.4,1-27.6
			C960.9,1141.5,951.9,1141.5,952,1147.3L952,1147.3z"/>
	</g>
</g>
<g>
	<g>
		<path class="st1" d="M1115,978c-1.6,8.3-3.3,16.6-4.9,24.9c-1.1,5.7,7.6,8.2,8.8,2.4c1.6-8.3,3.3-16.6,4.9-24.9
			C1124.9,974.7,1116.1,972.2,1115,978L1115,978z"/>
	</g>
</g>
<g>
	<g>
		<path class="st1" d="M980,1029.6c-0.5,10.8-0.9,21.7-1.4,32.5c-0.3,5.8,8.8,5.8,9.1,0c0.5-10.8,0.9-21.7,1.4-32.5
			C989.4,1023.7,980.3,1023.7,980,1029.6L980,1029.6z"/>
	</g>
</g>
<g>
	<g>
		<path class="st1" d="M978.5,1104.5c-1.6,8.3-2,16.6-1.1,25c0.7,5.7,9.8,5.8,9.1,0c-0.9-7.6-0.7-15.1,0.7-22.6
			C988.3,1101.2,979.6,1098.8,978.5,1104.5L978.5,1104.5z"/>
	</g>
</g>
<g>
	<g>
		<path class="st1" d="M1232.2,806.8c-1.8,9.3-3.7,18.5-5.5,27.8c-1.1,5.7,7.6,8.2,8.8,2.4c1.8-9.3,3.7-18.5,5.5-27.8
			C1242.1,803.5,1233.3,801.1,1232.2,806.8L1232.2,806.8z"/>
	</g>
</g>
<g>
	<g>
		<path class="st1" d="M1007.6,1053.6c-3.1,12.2-4.7,24.6-4.7,37.2c0,5.8,9.1,5.9,9.1,0c0-11.8,1.4-23.3,4.3-34.8
			C1017.8,1050.3,1009,1047.9,1007.6,1053.6L1007.6,1053.6z"/>
	</g>
</g>
<g>
	<g>
		<path class="st1" d="M1005,1011.7c1.2,2.7,1.6,5.8,1.1,8.8c-0.4,2.4,0.6,4.9,3.2,5.6c2.2,0.6,5.2-0.7,5.6-3.2
			c1-5.5,0.3-10.7-2-15.8c-1-2.2-4.3-2.8-6.2-1.6C1004.3,1006.8,1003.9,1009.5,1005,1011.7L1005,1011.7z"/>
	</g>
</g>
<g>
	<g>
		<path class="st1" d="M1001.9,1131.3c-0.6,8.8-1.1,17.6-1.7,26.4c-0.4,5.8,8.7,5.8,9.1,0c0.6-8.8,1.1-17.6,1.7-26.4
			C1011.4,1125.5,1002.3,1125.5,1001.9,1131.3L1001.9,1131.3z"/>
	</g>
</g>
<g>
	<g>
		<path class="st1" d="M1176.1,1010.5c-1.3,8.7-3.3,17.3-6.1,25.6c-1.9,5.6,6.9,7.9,8.8,2.4c2.8-8.4,4.8-16.9,6.1-25.6
			C1185.6,1007.2,1176.9,1004.7,1176.1,1010.5L1176.1,1010.5z"/>
	</g>
</g>
<g>
	<g>
		<path class="st1" d="M1139.2,998.4c1.7,12.9,0.6,25.6-3.5,38c-1.8,5.6,6.9,8,8.8,2.4c4.3-13.1,5.6-26.8,3.8-40.4
			C1147.5,992.7,1138.4,992.6,1139.2,998.4L1139.2,998.4z"/>
	</g>
</g>
<g>
	<g>
		<path class="st1" d="M1038,1009.2c-0.9,13.1-1.8,26.2-2.7,39.2c-0.4,5.8,8.7,5.8,9.1,0c0.9-13.1,1.8-26.2,2.7-39.2
			C1047.4,1003.3,1038.3,1003.3,1038,1009.2L1038,1009.2z"/>
	</g>
</g>
<g>
	<g>
		<path class="st1" d="M1028.5,1092.5c-1.7,9.1-1.8,17.9-0.6,27.1c0.8,5.8,9.6,3.3,8.8-2.4c-1-7.4-0.8-14.9,0.6-22.3
			C1038.3,1089.2,1029.6,1086.8,1028.5,1092.5L1028.5,1092.5z"/>
	</g>
</g>
<g>
	<g>
		<path class="st1" d="M1028.9,1141.6c-1.3,10.7-2.6,21.4-3.8,32c-0.7,5.8,8.4,5.7,9.1,0c1.3-10.7,2.6-21.4,3.8-32
			C1038.7,1135.8,1029.6,1135.8,1028.9,1141.6L1028.9,1141.6z"/>
	</g>
</g>
<g>
	<g>
		<path class="st1" d="M1154.2,972.8c0,9.6,0,19.1,0,28.7c0,5.8,9.1,5.9,9.1,0c0-9.6,0-19.1,0-28.7
			C1163.3,966.9,1154.2,966.9,1154.2,972.8L1154.2,972.8z"/>
	</g>
</g>
<g>
	<g>
		<path class="st1" d="M1058.6,1044.9c0.8,12.7,0.9,25.4,0.4,38.1c-0.2,5.9,8.8,5.8,9.1,0c0.5-12.7,0.4-25.4-0.4-38.1
			C1067.3,1039.1,1058.2,1039,1058.6,1044.9L1058.6,1044.9z"/>
	</g>
</g>
<g>
	<g>
		<path class="st1" d="M1063.1,993c-1.3,6.8-2.3,13.7-2.8,20.6c-0.4,5.8,8.7,5.8,9.1,0c0.5-6.1,1.3-12.1,2.4-18.1
			C1073,989.7,1064.3,987.2,1063.1,993L1063.1,993z"/>
	</g>
</g>
<g>
	<g>
		<path class="st1" d="M1088.7,1004c-2,12.3-3.6,24.7-4.8,37.1c-0.5,5.8,8.6,5.8,9.1,0c1.1-11.6,2.5-23.1,4.4-34.6
			C1098.4,1000.7,1089.6,998.2,1088.7,1004L1088.7,1004z"/>
	</g>
</g>
<g>
	<g>
		<path class="st1" d="M1095.7,974.5c-0.9,2.3-0.9,5.1,0,7.4c0.4,1.1,1,2.1,2.1,2.7c1,0.6,2.4,0.8,3.5,0.5c2.1-0.7,4.1-3.2,3.2-5.6
			c-0.1-0.3-0.2-0.6-0.3-1c-0.1-0.5-0.1-0.4,0,0.2c0-0.2,0-0.3,0-0.5c0-0.2,0-0.3,0-0.5c-0.1,0.6-0.1,0.7,0,0.4
			c0.1-0.4,0.2-0.8,0.4-1.1c0.4-1,0.1-2.6-0.5-3.5c-0.6-0.9-1.6-1.8-2.7-2.1C1098.7,970.8,1096.7,972.2,1095.7,974.5L1095.7,974.5z"
			/>
	</g>
</g>
<g>
	<g>
		<path class="st1" d="M1055.6,1120c-0.7,10-1.9,20-3.6,29.9c-1,5.7,7.8,8.2,8.8,2.4c1.8-10.7,3.2-21.5,4-32.3
			C1065.1,1114.1,1056,1114.2,1055.6,1120L1055.6,1120z"/>
	</g>
</g>
<g>
	<g>
		<path class="st1" d="M1077.3,1146c-2.3,10.9-2.5,21.8-0.7,32.8c0.9,5.8,9.7,3.3,8.8-2.4c-1.5-9.3-1.2-18.8,0.7-28
			C1087.3,1142.7,1078.6,1140.3,1077.3,1146L1077.3,1146z"/>
	</g>
</g>
<g>
	<g>
		<path class="st1" d="M1084,1082.6c-1.6,10.8-2.2,21.7-1.6,32.6c0.3,5.8,9.4,5.9,9.1,0c-0.5-10.1-0.2-20.2,1.3-30.2
			C1093.6,1079.3,1084.9,1076.9,1084,1082.6L1084,1082.6z"/>
	</g>
</g>
<g>
	<g>
		<path class="st1" d="M1108.1,1032c-1.2,12.7-2.4,25.4-3.6,38.1c-0.6,5.8,8.5,5.8,9.1,0c1.2-12.7,2.4-25.4,3.6-38.1
			C1117.7,1026.1,1108.7,1026.2,1108.1,1032L1108.1,1032z"/>
	</g>
</g>
<g>
	<g>
		<path class="st1" d="M1102.7,1106.4c-0.3,14.1-1.3,28.2-3,42.2c-0.7,5.8,8.4,5.7,9.1,0c1.7-14,2.7-28.1,3-42.2
			C1111.9,1100.6,1102.8,1100.6,1102.7,1106.4L1102.7,1106.4z"/>
	</g>
</g>
<g>
	<g>
		<path class="st1" d="M1128.8,1072c0.8,10.6,1.4,21.3,1.7,31.9c0.2,5.8,9.3,5.9,9.1,0c-0.3-10.6-0.9-21.3-1.7-31.9
			C1137.5,1066.2,1128.4,1066.1,1128.8,1072L1128.8,1072z"/>
	</g>
</g>
<g>
	<g>
		<path class="st1" d="M1123.4,1137.4c-0.7,9.8-1.4,19.6-2.1,29.5c-0.4,5.8,8.7,5.8,9.1,0c0.7-9.8,1.4-19.6,2.1-29.5
			C1132.9,1131.6,1123.8,1131.6,1123.4,1137.4L1123.4,1137.4z"/>
	</g>
</g>
<g>
	<g>
		<path class="st1" d="M1150.9,1102.8c-1.5,11.2-2.2,22.4-1.8,33.8c0.2,5.8,9.3,5.9,9.1,0c-0.3-10.5,0.1-20.9,1.5-31.3
			C1160.4,1099.5,1151.7,1097,1150.9,1102.8L1150.9,1102.8z"/>
	</g>
</g>
<g>
	<g>
		<path class="st1" d="M1177,1125.2c-1,9.1-2,18.2-3,27.2c-0.6,5.8,8.5,5.8,9.1,0c1-9.1,2-18.2,3-27.2
			C1186.8,1119.4,1177.7,1119.4,1177,1125.2L1177,1125.2z"/>
	</g>
</g>
<g>
	<g>
		<path class="st1" d="M1158.8,1059.1c-2.2,5.4-2.6,11.5-1.2,17.2c1.7,6.8,12.3,3.9,10.5-2.9c-1-3.9-0.3-7.7,1.2-11.4
			c1.1-2.7-1.2-6-3.8-6.7C1162.4,1054.4,1159.9,1056.3,1158.8,1059.1L1158.8,1059.1z"/>
	</g>
</g>
<g>
	<g>
		<path class="st1" d="M1199.1,1150c0.4,8.6,0,17.1-1.1,25.7c-0.8,5.8,8.3,5.7,9.1,0c1.1-8.5,1.5-17.1,1.1-25.7
			C1207.9,1144.2,1198.8,1144.1,1199.1,1150L1199.1,1150z"/>
	</g>
</g>
<g>
	<g>
		<path class="st1" d="M1200.5,1107c-0.2,6.6-0.3,13.1-0.5,19.7c-0.1,5.9,8.9,5.8,9.1,0c0.2-6.6,0.3-13.1,0.5-19.7
			C1209.8,1101.1,1200.7,1101.1,1200.5,1107L1200.5,1107z"/>
	</g>
</g>
<g>
	<g>
		<path class="st1" d="M1221.9,1135.1c0.3,7.6,0,15.1-1,22.6c-0.7,5.8,8.4,5.7,9.1,0c0.9-7.5,1.3-15,1-22.6
			C1230.8,1129.2,1221.7,1129.2,1221.9,1135.1L1221.9,1135.1z"/>
	</g>
</g>
<g>
	<g>
		<path class="st1" d="M1252.9,1133c0,9.8-0.9,19.4-2.8,29c-1.2,5.7,7.6,8.2,8.8,2.4c2.1-10.4,3.2-20.9,3.1-31.5
			C1262,1127.1,1252.9,1127.1,1252.9,1133L1252.9,1133z"/>
	</g>
</g>
<g>
	<g>
		<path class="st1" d="M1278.3,1147.2c-0.5,4.5-1,9.1-1.5,13.6c-0.3,2.4,2.3,4.5,4.5,4.5c2.7,0,4.3-2.1,4.5-4.5
			c0.5-4.5,1-9.1,1.5-13.6c0.3-2.4-2.3-4.5-4.5-4.5C1280.2,1142.6,1278.6,1144.7,1278.3,1147.2L1278.3,1147.2z"/>
	</g>
</g>
<g>
	<g>
		<path class="st1" d="M1323.4,1147.1c-0.7,6.8-1.4,13.6-2.2,20.5c-0.6,5.8,8.5,5.8,9.1,0c0.7-6.8,1.4-13.6,2.2-20.5
			C1333.1,1141.3,1324.1,1141.3,1323.4,1147.1L1323.4,1147.1z"/>
	</g>
</g>
<g>
	<g>
		<path class="st1" d="M1302.3,1124.5c-1,10.3-2.8,20.5-5.2,30.5c-1.4,5.7,7.4,8.1,8.8,2.4c2.6-10.9,4.5-21.8,5.6-33
			C1312,1118.7,1302.9,1118.7,1302.3,1124.5L1302.3,1124.5z"/>
	</g>
</g>
<g>
	<g>
		<path class="st1" d="M1384.2,1161.6c-0.6,2.9-1.1,5.7-1.7,8.6c-0.5,2.4,0.7,4.9,3.2,5.6c2.2,0.6,5.1-0.8,5.6-3.2
			c0.6-2.9,1.1-5.7,1.7-8.6c0.5-2.4-0.7-4.9-3.2-5.6C1387.5,1157.8,1384.6,1159.2,1384.2,1161.6L1384.2,1161.6z"/>
	</g>
</g>
<g>
	<g>
		<path class="st1" d="M1389.9,1121.6c-3.6,7.5-6.5,15.3-8.5,23.5c-1.4,5.7,7.3,8.1,8.8,2.4c1.8-7.4,4.3-14.4,7.6-21.3
			C1400.3,1120.9,1392.4,1116.3,1389.9,1121.6L1389.9,1121.6z"/>
	</g>
</g>
<g>
	<g>
		<path class="st1" d="M1359.5,1131.9c-1.3,12.3-4,24.3-7.8,36c-1.8,5.6,7,8,8.8,2.4c4.1-12.5,6.7-25.4,8.1-38.5
			C1369.2,1126.1,1360.1,1126.2,1359.5,1131.9L1359.5,1131.9z"/>
	</g>
</g>
<g>
	<g>
		<path class="st1" d="M1383.5,799.7c0.6,6.9-0.4,13.6-3.3,19.9c-2.5,5.3,5.4,9.9,7.8,4.6c3.6-7.7,5.3-15.9,4.6-24.5
			C1392.1,793.9,1383,793.9,1383.5,799.7L1383.5,799.7z"/>
	</g>
</g>
<g>
	<g>
		<path class="st1" d="M1183.1,949c-2.3,11.8-4.7,23.6-7,35.4c-1.1,5.7,7.6,8.2,8.8,2.4c2.3-11.8,4.7-23.6,7-35.4
			C1193,945.7,1184.2,943.3,1183.1,949L1183.1,949z"/>
	</g>
</g>
<g>
	<g>
		<path class="st1" d="M1179.4,1076.4c1.2,9.4,2.5,18.8,3.7,28.2c0.8,5.7,9.9,5.8,9.1,0c-1.2-9.4-2.5-18.8-3.7-28.2
			C1187.8,1070.7,1178.7,1070.6,1179.4,1076.4L1179.4,1076.4z"/>
	</g>
</g>
<g>
	<g>
		<path class="st1" d="M1197,982.2c2,9.4,3,18.8,3.3,28.4c0.2,5.8,9.3,5.9,9.1,0c-0.3-10.4-1.5-20.7-3.6-30.8
			C1204.6,974.1,1195.8,976.5,1197,982.2L1197,982.2z"/>
	</g>
</g>
<g>
	<g>
		<path class="st1" d="M1202.1,1043.7c0.1,8.8,1.2,17.4,3,26c1.2,5.7,10,3.3,8.8-2.4c-1.7-7.8-2.6-15.6-2.7-23.6
			C1211.1,1037.9,1202,1037.9,1202.1,1043.7L1202.1,1043.7z"/>
	</g>
</g>
<g>
	<g>
		<path class="st1" d="M1253.3,799.7c-2.5,6.8-3.7,13.8-3.6,21.1c0.1,5.8,9.2,5.9,9.1,0c-0.1-6.5,1-12.6,3.3-18.6
			C1264.2,796.6,1255.4,794.2,1253.3,799.7L1253.3,799.7z"/>
	</g>
</g>
<g>
	<g>
		<path class="st1" d="M1243.2,856.3c0.6,7.8,0.4,15.5-0.9,23.2c-1,5.7,7.8,8.2,8.8,2.4c1.4-8.5,1.9-17,1.2-25.6
			C1251.8,850.5,1242.7,850.5,1243.2,856.3L1243.2,856.3z"/>
	</g>
</g>
<g>
	<g>
		<path class="st1" d="M1228.8,903.5c0,8.6-0.1,17.2-0.1,25.8c0,5.9,9.1,5.9,9.1,0c0-8.6,0.1-17.2,0.1-25.8
			C1237.9,897.7,1228.9,897.7,1228.8,903.5L1228.8,903.5z"/>
	</g>
</g>
<g>
	<g>
		<path class="st1" d="M1224.2,958.1c2.2,8.3,3.3,16.7,3.2,25.4c0,5.9,9.1,5.9,9.1,0c0-9.4-1.2-18.7-3.6-27.8
			C1231.5,950,1222.7,952.4,1224.2,958.1L1224.2,958.1z"/>
	</g>
</g>
<g>
	<g>
		<path class="st1" d="M1225.9,1018c0.6,6.4,1.1,12.8,1.7,19.2c0.5,5.8,9.6,5.8,9.1,0c-0.6-6.4-1.1-12.8-1.7-19.2
			C1234.5,1012.3,1225.4,1012.2,1225.9,1018L1225.9,1018z"/>
	</g>
</g>
<g>
	<g>
		<path class="st1" d="M1231.5,1067.7c-2,8.4-1.9,16.9,0.6,25.2c1.6,5.6,10.4,3.2,8.8-2.4c-2-6.8-2.2-13.5-0.6-20.3
			C1241.6,1064.4,1232.9,1062,1231.5,1067.7L1231.5,1067.7z"/>
	</g>
</g>
<g>
	<g>
		<path class="st1" d="M1271.9,829.1c0,7.7-0.1,15.5-0.1,23.2c0,5.9,9.1,5.9,9.1,0c0-7.7,0.1-15.5,0.1-23.2
			C1281.1,823.3,1272,823.3,1271.9,829.1L1271.9,829.1z"/>
	</g>
</g>
<g>
	<g>
		<path class="st1" d="M1260.8,887.2c0.8,12.8,0.7,25.6-0.3,38.4c-0.4,5.8,8.7,5.8,9.1,0c0.9-12.8,1-25.6,0.3-38.4
			C1269.6,881.4,1260.5,881.3,1260.8,887.2L1260.8,887.2z"/>
	</g>
</g>
<g>
	<g>
		<path class="st1" d="M1252.7,967.3c2,10.5,2,21.2,0.1,31.7c-1.1,5.7,7.7,8.2,8.8,2.4c2.2-12.2,2.2-24.3-0.1-36.5
			C1260.4,959.1,1251.6,961.6,1252.7,967.3L1252.7,967.3z"/>
	</g>
</g>
<g>
	<g>
		<path class="st1" d="M1255.1,1032.7c-0.2,8.4,0.6,16.8,2.1,25.1c1,5.7,9.8,3.3,8.8-2.4c-1.4-7.5-1.9-15.1-1.7-22.7
			C1264.3,1026.9,1255.2,1026.9,1255.1,1032.7L1255.1,1032.7z"/>
	</g>
</g>
<g>
	<g>
		<path class="st1" d="M1252.8,1094.4c-3.8,6.1-5.7,13.1-5.7,20.3c0,5.8,9.1,5.9,9.1,0c0-5.7,1.5-10.9,4.5-15.7
			C1263.8,1094,1255.9,1089.4,1252.8,1094.4L1252.8,1094.4z"/>
	</g>
</g>
<g>
	<g>
		<path class="st1" d="M1293.7,805.5c-1.3,9.4-2.6,18.8-4,28.1c-0.8,5.7,8,8.2,8.8,2.4c1.3-9.4,2.6-18.8,4-28.1
			C1303.2,802.2,1294.5,799.7,1293.7,805.5L1293.7,805.5z"/>
	</g>
</g>
<g>
	<g>
		<path class="st1" d="M1293.2,858.7c-2.8,9.1-3.7,18.4-2.9,27.9c0.5,5.8,9.6,5.8,9.1,0c-0.8-8.7,0-17.1,2.5-25.5
			C1303.7,855.5,1294.9,853.1,1293.2,858.7L1293.2,858.7z"/>
	</g>
</g>
<g>
	<g>
		<path class="st1" d="M1286.4,929.9c-1.2,9.5-2.4,19-3.5,28.5c-0.7,5.8,8.4,5.7,9.1,0c1.2-9.5,2.4-19,3.5-28.5
			C1296.2,924.1,1287.1,924.2,1286.4,929.9L1286.4,929.9z"/>
	</g>
</g>
<g>
	<g>
		<path class="st1" d="M1281.1,995.9c1.5,7.7,1.8,15.4,1,23.3c-0.6,5.8,8.5,5.8,9.1,0c0.9-8.6,0.4-17.1-1.3-25.7
			C1288.7,987.7,1280,990.2,1281.1,995.9L1281.1,995.9z"/>
	</g>
</g>
<g>
	<g>
		<path class="st1" d="M1276.6,1056.4c2.3,7.9,3.1,16,1.9,24.2c-0.8,5.7,7.9,8.2,8.8,2.4c1.4-9.8,0.9-19.5-1.9-29
			C1283.7,1048.4,1275,1050.8,1276.6,1056.4L1276.6,1056.4z"/>
	</g>
</g>
<g>
	<g>
		<path class="st1" d="M1272.3,1110.3c0.5,3.4,0.5,6.9-0.1,10.3c-0.4,2.4,0.6,4.9,3.2,5.6c2.2,0.6,5.2-0.7,5.6-3.2
			c0.9-5.1,0.9-10,0.1-15.1c-0.4-2.4-3.4-3.8-5.6-3.2C1272.8,1105.4,1271.9,1107.8,1272.3,1110.3L1272.3,1110.3z"/>
	</g>
</g>
<g>
	<g>
		<path class="st1" d="M1136.7,937.7c0.8,5.5,1.7,11,2.5,16.5c0.4,2.4,3.4,3.7,5.6,3.2c2.6-0.7,3.5-3.2,3.2-5.6
			c-0.8-5.5-1.7-11-2.5-16.5c-0.4-2.4-3.4-3.7-5.6-3.2C1137.3,932.8,1136.3,935.3,1136.7,937.7L1136.7,937.7z"/>
	</g>
</g>
<g>
	<g>
		<path class="st1" d="M1322,837.6c-2.2,8.1-3,16.5-2.2,24.9c0.5,5.8,9.6,5.8,9.1,0c-0.7-7.6-0.1-15,1.9-22.4
			C1332.3,834.3,1323.5,831.9,1322,837.6L1322,837.6z"/>
	</g>
</g>
<g>
	<g>
		<path class="st1" d="M1314,897.5c-1.3,10.8-1.8,21.6-1.5,32.4c0.2,5.8,9.3,5.9,9.1,0c-0.3-10.8,0.2-21.6,1.5-32.4
			C1323.8,891.7,1314.7,891.8,1314,897.5L1314,897.5z"/>
	</g>
</g>
<g>
	<g>
		<path class="st1" d="M1311.7,962.7c-2.3,8-3.3,16.2-3,24.5c0.2,5.8,9.3,5.9,9.1,0c-0.3-7.6,0.6-14.8,2.6-22.1
			C1322.1,959.5,1313.3,957.1,1311.7,962.7L1311.7,962.7z"/>
	</g>
</g>
<g>
	<g>
		<path class="st1" d="M1308.7,1019.1c-3.8,7.8-5.7,16-5.7,24.7c0,5.8,9.1,5.9,9.1,0c-0.1-7,1.4-13.8,4.4-20.1
			C1319.1,1018.4,1311.3,1013.8,1308.7,1019.1L1308.7,1019.1z"/>
	</g>
</g>
<g>
	<g>
		<path class="st1" d="M1301.4,1081.8c-1,8.1-2.1,16.1-3.1,24.2c-0.7,5.8,8.4,5.7,9.1,0c1-8.1,2.1-16.1,3.1-24.2
			C1311.2,1076,1302.1,1076,1301.4,1081.8L1301.4,1081.8z"/>
	</g>
</g>
<g>
	<g>
		<path class="st1" d="M1342.9,857.7c-3.2,6.6-5,13.4-5.2,20.7c-0.2,5.9,8.9,5.8,9.1,0c0.2-5.6,1.5-11.1,4-16.2
			C1353.3,857,1345.5,852.4,1342.9,857.7L1342.9,857.7z"/>
	</g>
</g>
<g>
	<g>
		<path class="st1" d="M1338.5,909.5c-2.6,12.8-4.2,25.8-4.7,38.9c-0.2,5.9,8.9,5.8,9.1,0c0.5-12.3,1.9-24.4,4.3-36.5
			C1348.4,906.2,1339.6,903.8,1338.5,909.5L1338.5,909.5z"/>
	</g>
</g>
<g>
	<g>
		<path class="st1" d="M1332.7,987.7c-0.5,9.3-1.1,18.7-1.6,28c-0.3,5.8,8.7,5.8,9.1,0c0.5-9.3,1.1-18.7,1.6-28
			C1342.1,981.9,1333,981.9,1332.7,987.7L1332.7,987.7z"/>
	</g>
</g>
<g>
	<g>
		<path class="st1" d="M1329.9,1052.9c-0.6,6.9-1.2,13.7-1.8,20.6c-0.5,5.8,8.6,5.8,9.1,0c0.6-6.9,1.2-13.7,1.8-20.6
			C1339.5,1047.1,1330.4,1047.1,1329.9,1052.9L1329.9,1052.9z"/>
	</g>
</g>
<g>
	<g>
		<path class="st1" d="M1326,1112c-1.2,4.4-2.4,8.9-3.7,13.3c-1.6,5.6,7.2,8.1,8.8,2.4c1.2-4.4,2.4-8.9,3.7-13.3
			C1336.3,1108.8,1327.6,1106.4,1326,1112L1326,1112z"/>
	</g>
</g>
<g>
	<g>
		<path class="st1" d="M1221.5,864.3c-2.1,10.5-4.2,21.1-6.2,31.6c-1.1,5.7,7.6,8.2,8.8,2.4c2.1-10.5,4.2-21.1,6.2-31.6
			C1231.4,861,1222.6,858.6,1221.5,864.3L1221.5,864.3z"/>
	</g>
</g>
<g>
	<g>
		<path class="st1" d="M1375.7,835.1c-4,8.9-6.8,18-8.3,27.6c-0.9,5.7,7.9,8.2,8.8,2.4c1.4-8.8,3.7-17.3,7.4-25.4
			C1386,834.4,1378.1,829.8,1375.7,835.1L1375.7,835.1z"/>
	</g>
</g>
<g>
	<g>
		<path class="st1" d="M1361.9,896.8c0.2,8.7-0.4,17.3-1.8,25.9c-1,5.7,7.8,8.2,8.8,2.4c1.6-9.4,2.3-18.8,2.1-28.3
			C1370.9,891,1361.8,890.9,1361.9,896.8L1361.9,896.8z"/>
	</g>
</g>
<g>
	<g>
		<path class="st1" d="M1357.8,954.1c-0.2,7.4-0.4,14.9-0.5,22.3c-0.1,5.9,9,5.8,9.1,0c0.2-7.4,0.4-14.9,0.5-22.3
			C1367.1,948.3,1358,948.3,1357.8,954.1L1357.8,954.1z"/>
	</g>
</g>
<g>
	<g>
		<path class="st1" d="M1355.7,1011.9c-2.4,9.6-3.1,19.4-1.9,29.3c0.7,5.7,9.8,5.8,9.1,0c-1.1-9.1-0.6-18,1.6-26.9
			C1365.9,1008.6,1357.1,1006.2,1355.7,1011.9L1355.7,1011.9z"/>
	</g>
</g>
<g>
	<g>
		<path class="st1" d="M1358.3,1085.5c5.8,0,5.9-9.1,0-9.1C1352.4,1076.4,1352.4,1085.5,1358.3,1085.5L1358.3,1085.5z"/>
	</g>
</g>
<g>
	<g>
		<path class="st1" d="M1353.9,1080c-1.4,11.3-3.3,22.6-5.7,33.8c-1.2,5.7,7.6,8.1,8.8,2.4c2.5-12,4.5-24,6-36.2
			C1363.7,1074.2,1354.6,1074.2,1353.9,1080L1353.9,1080z"/>
	</g>
</g>
<g>
	<g>
		<path class="st1" d="M1195.4,879.4c-2.1,7.2-4.1,14.4-6.2,21.7c-1.6,5.6,7.2,8,8.8,2.4c2.1-7.2,4.1-14.4,6.2-21.7
			C1205.8,876.2,1197,873.8,1195.4,879.4L1195.4,879.4z"/>
	</g>
</g>
<g>
	<g>
		<path class="st1" d="M1391.6,863.1c-1.8,7.7-2.8,15.4-3.2,23.2c-0.3,5.8,8.8,5.8,9.1,0c0.3-7,1.3-14,2.9-20.8
			C1401.7,859.8,1392.9,857.4,1391.6,863.1L1391.6,863.1z"/>
	</g>
</g>
<g>
	<g>
		<path class="st1" d="M1385.7,921.7c-0.1,7.1-0.1,14.3-0.2,21.4c-0.1,5.9,9,5.9,9.1,0c0.1-7.1,0.1-14.3,0.2-21.4
			C1394.9,915.9,1385.8,915.9,1385.7,921.7L1385.7,921.7z"/>
	</g>
</g>
<g>
	<g>
		<path class="st1" d="M1383.3,970.8c-2.3,8-3.3,16.2-3.1,24.5c0.2,5.8,9.2,5.9,9.1,0c-0.2-7.5,0.7-14.8,2.8-22.1
			C1393.7,967.6,1384.9,965.2,1383.3,970.8L1383.3,970.8z"/>
	</g>
</g>
<g>
	<g>
		<path class="st1" d="M1378.7,1029.9c-2.1,9.7-2.2,19.4-0.3,29.1c1.1,5.7,9.9,3.3,8.8-2.4c-1.6-8.1-1.5-16.2,0.3-24.3
			C1388.7,1026.6,1380,1024.2,1378.7,1029.9L1378.7,1029.9z"/>
	</g>
</g>
<g>
	<g>
		<path class="st1" d="M1377,1090.1c-3.4,6.7-5.4,13.7-6.2,21.2c-0.6,5.8,8.5,5.8,9.1,0c0.6-5.8,2.3-11.4,5-16.7
			C1387.5,1089.4,1379.7,1084.8,1377,1090.1L1377,1090.1z"/>
	</g>
</g>
<g>
	<g>
		<path class="st1" d="M1207.4,914c-1.6,8.3-3.3,16.6-4.9,24.9c-1.1,5.7,7.6,8.2,8.8,2.4c1.6-8.3,3.3-16.6,4.9-24.9
			C1217.3,910.7,1208.5,908.3,1207.4,914L1207.4,914z"/>
	</g>
</g>
<g>
	<g>
		<path class="st1" d="M1392.5,1006.3c-0.1,10.8-0.3,21.5-0.4,32.3c-0.1,5.9,9,5.9,9.1,0c0.1-10.8,0.3-21.5,0.4-32.3
			C1401.7,1000.4,1392.6,1000.4,1392.5,1006.3L1392.5,1006.3z"/>
	</g>
</g>
<g>
	<g>
		<path class="st1" d="M1397.3,1067.8c-0.6,4.7-1.2,9.4-1.8,14.1c-0.3,2.4,2.3,4.5,4.5,4.5c2.7,0,4.2-2.1,4.5-4.5
			c0.6-4.7,1.2-9.4,1.8-14.1c0.3-2.4-2.3-4.5-4.5-4.5C1399.1,1063.3,1397.6,1065.4,1397.3,1067.8L1397.3,1067.8z"/>
	</g>
</g>
<g>
	<g>
		<path class="st1" d="M1169.2,914.1c-1.3,8.7-2.7,17.4-4,26.1c-0.9,5.7,7.9,8.2,8.8,2.4c1.3-8.7,2.7-17.4,4-26.1
			C1178.9,910.8,1170.1,908.3,1169.2,914.1L1169.2,914.1z"/>
	</g>
</g>
<g>
	<g>
		<path class="st1" d="M1343.3,802.6c-2.3,9.8-4.6,19.7-6.8,29.5c-1.3,5.7,7.4,8.1,8.8,2.4c2.3-9.8,4.6-19.7,6.8-29.5
			C1353.4,799.3,1344.6,796.9,1343.3,802.6L1343.3,802.6z"/>
	</g>
</g>
<g>
	<g>
		<path class="st1" d="M822.2,202.7c8.2-4.2,17.5-5.9,26.7-4.6c5.7,0.8,8.2-8,2.4-8.8c-11.8-1.7-23.1,0.1-33.7,5.6
			C812.4,197.5,817,205.3,822.2,202.7L822.2,202.7z"/>
	</g>
</g>
<g>
	<g>
		<path class="st1" d="M869.4,200.9c10,1.3,19.9,3.2,29.7,5.5c5.7,1.4,8.1-7.4,2.4-8.8c-10.6-2.6-21.3-4.5-32.1-5.9
			C863.6,191,863.7,200.1,869.4,200.9L869.4,200.9z"/>
	</g>
</g>
<g>
	<g>
		<path class="st1" d="M923.8,210.1c7.4,1.5,14.9,2.9,22.3,4.4c5.7,1.1,8.2-7.6,2.4-8.8c-7.4-1.5-14.9-2.9-22.3-4.4
			C920.5,200.2,918,208.9,923.8,210.1L923.8,210.1z"/>
	</g>
</g>
<g>
	<g>
		<path class="st1" d="M961.6,219.3c3.3,1.6,6.7,2.8,10.3,3.7c2.4,0.6,4.9-0.7,5.6-3.2c0.6-2.3-0.8-5-3.2-5.6
			c-2.8-0.6-5.6-1.5-8.2-2.7c-2.2-1-4.9-0.6-6.2,1.6C958.9,215.1,959.4,218.3,961.6,219.3L961.6,219.3z"/>
	</g>
</g>
<g>
	<g>
		<path class="st1" d="M834.6,221.2c8.8-3.8,18.5-4.5,27.9-2.4c5.7,1.3,8.1-7.5,2.4-8.8c-11.9-2.7-23.7-1.4-34.9,3.4
			C824.6,215.7,829.2,223.5,834.6,221.2L834.6,221.2z"/>
	</g>
</g>
<g>
	<g>
		<path class="st1" d="M890.4,223.5c6.5,0.4,12.8,1.3,19.2,2.5c5.7,1.1,8.2-7.7,2.4-8.8c-7.1-1.4-14.4-2.3-21.6-2.8
			C884.5,214,884.6,223.1,890.4,223.5L890.4,223.5z"/>
	</g>
</g>
<g>
	<g>
		<path class="st1" d="M932.8,231.5c7,1.7,14,3.5,21,5.2c5.7,1.4,8.1-7.4,2.4-8.8c-7-1.7-14-3.5-21-5.2
			C929.5,221.3,927.1,230.1,932.8,231.5L932.8,231.5z"/>
	</g>
</g>
<g>
	<g>
		<path class="st1" d="M835.6,244c6.3-1.8,12.6-2.6,19.2-2.5c5.9,0.1,5.9-9,0-9.1c-7.3-0.1-14.6,0.8-21.6,2.8
			C827.5,236.8,829.9,245.5,835.6,244L835.6,244z"/>
	</g>
</g>
<g>
	<g>
		<path class="st1" d="M873.6,241.1c3.6,0.3,7.2,0.6,10.8,0.9c2.4,0.2,4.5-2.2,4.5-4.5c0-2.6-2.1-4.3-4.5-4.5
			c-3.6-0.3-7.2-0.6-10.8-0.9c-2.4-0.2-4.5,2.2-4.5,4.5C869.1,239.2,871.2,240.9,873.6,241.1L873.6,241.1z"/>
	</g>
</g>
<g>
	<g>
		<path class="st1" d="M905.8,245.2c7.1,1.4,14.2,2.8,21.2,4.2c5.7,1.1,8.2-7.6,2.4-8.8c-7.1-1.4-14.2-2.8-21.2-4.2
			C902.5,235.3,900.1,244,905.8,245.2L905.8,245.2z"/>
	</g>
</g>
<g>
	<g>
		<path class="st1" d="M839.8,264.4c8.7-3.6,17.7-5.7,27.1-6.3c5.8-0.4,5.9-9.5,0-9.1c-10.2,0.6-20.1,2.8-29.5,6.6
			C832,257.8,834.4,266.6,839.8,264.4L839.8,264.4z"/>
	</g>
</g>
<g>
	<g>
		<path class="st1" d="M880.4,262.2c7.4,1.5,14.9,2.9,22.3,4.4c5.7,1.1,8.2-7.6,2.4-8.8c-7.4-1.5-14.9-2.9-22.3-4.4
			C877.1,252.3,874.6,261.1,880.4,262.2L880.4,262.2z"/>
	</g>
</g>
<g>
	<g>
		<path class="st1" d="M917.7,268.5c6,1.2,12,2.4,18.1,3.6c5.7,1.1,8.2-7.6,2.4-8.8c-6-1.2-12-2.4-18.1-3.6
			C914.4,258.6,912,267.4,917.7,268.5L917.7,268.5z"/>
	</g>
</g>
<g>
	<g>
		<path class="st1" d="M849.9,288.1c8.4-4.2,17.2-6.2,26.6-6.2c5.8,0,5.9-9.1,0-9.1c-10.9,0.1-21.4,2.6-31.2,7.5
			C840.1,282.9,844.7,290.7,849.9,288.1L849.9,288.1z"/>
	</g>
</g>
<g>
	<g>
		<path class="st1" d="M890,286.2c4.6,0.9,9.2,1.8,13.8,2.7c5.7,1.1,8.2-7.6,2.4-8.8c-4.6-0.9-9.2-1.8-13.8-2.7
			C886.7,276.3,884.2,285,890,286.2L890,286.2z"/>
	</g>
</g>
<g>
	<g>
		<path class="st1" d="M844.8,315.8c2.3-2.9,5.2-5.1,8.8-6.2c5.6-1.7,3.2-10.5-2.4-8.8c-5,1.5-9.5,4.4-12.8,8.5
			c-1.5,1.9-1.9,4.6,0,6.4C840,317.4,843.3,317.8,844.8,315.8L844.8,315.8z"/>
	</g>
</g>
<g>
	<g>
		<path class="st1" d="M869,308.9c8-1.9,16.1-3.5,24.3-4.8c5.8-0.9,3.3-9.7-2.4-8.8c-8.2,1.3-16.2,2.9-24.3,4.8
			C860.9,301.5,863.3,310.3,869,308.9L869,308.9z"/>
	</g>
</g>
<g>
	<g>
		<path class="st1" d="M841.4,336c3.1-2.3,6.1-4.6,9.2-7c2-1.5,3-3.9,1.6-6.2c-1.1-1.9-4.3-3.1-6.2-1.6c-3.1,2.3-6.1,4.6-9.2,7
			c-2,1.5-3,3.9-1.6,6.2C836.3,336.3,839.4,337.5,841.4,336L841.4,336z"/>
	</g>
</g>
<g>
	<g>
		<path class="st1" d="M925.1,292.4c7-0.4,13.8,0.1,20.7,1.6c5.7,1.2,8.1-7.5,2.4-8.8c-7.6-1.7-15.3-2.3-23.1-1.9
			C919.3,283.6,919.3,292.7,925.1,292.4L925.1,292.4z"/>
	</g>
</g>
<g>
	<g>
		<path class="st1" d="M968.1,298.5c7.7,1.9,15.4,3.8,23.1,5.8c5.7,1.4,8.1-7.4,2.4-8.8c-7.7-1.9-15.4-3.8-23.1-5.8
			C964.8,288.3,962.4,297.1,968.1,298.5L968.1,298.5z"/>
	</g>
</g>
<g>
	<g>
		<path class="st1" d="M1015.6,315.1c6.3,2.3,11.8,5.9,16.6,10.5c4.2,4.1,10.7-2.4,6.4-6.4c-6-5.7-12.9-10-20.6-12.9
			C1012.5,304.3,1010.2,313.1,1015.6,315.1L1015.6,315.1z"/>
	</g>
</g>
<g>
	<g>
		<path class="st1" d="M1056.5,336.5c6.7,3.2,13,7.1,18.8,11.9c4.5,3.7,10.9-2.7,6.4-6.4c-6.3-5.3-13.1-9.8-20.6-13.3
			C1055.9,326.1,1051.2,334,1056.5,336.5L1056.5,336.5z"/>
	</g>
</g>
<g>
	<g>
		<path class="st1" d="M1091.8,359.8c6.4,4.9,12.8,9.8,19.2,14.8c4.6,3.6,9.2-4.3,4.6-7.8c-6.4-4.9-12.8-9.8-19.2-14.8
			C1091.7,348.3,1087.2,356.2,1091.8,359.8L1091.8,359.8z"/>
	</g>
</g>
<g>
	<g>
		<path class="st1" d="M1129.1,393.7c5,2.7,9.5,5.9,13.5,10c4.1,4.2,10.6-2.3,6.4-6.4c-4.5-4.6-9.7-8.4-15.3-11.4
			C1128.6,383.2,1124,391,1129.1,393.7L1129.1,393.7z"/>
	</g>
</g>
<g>
	<g>
		<path class="st1" d="M1161.5,425.2c4.8,4.2,9.2,8.8,13,13.8c1.5,2,3.9,2.9,6.2,1.6c1.9-1.1,3.1-4.3,1.6-6.2
			c-4.3-5.7-9-11-14.4-15.7C1163.5,414.9,1157.1,421.3,1161.5,425.2L1161.5,425.2z"/>
	</g>
</g>
<g>
	<g>
		<path class="st1" d="M1190.9,463.1c4.1,7.4,8.2,14.8,12.3,22.2c2.8,5.1,10.7,0.5,7.8-4.6c-4.1-7.4-8.2-14.8-12.3-22.2
			C1195.9,453.4,1188,458,1190.9,463.1L1190.9,463.1z"/>
	</g>
</g>
<g>
	<g>
		<path class="st1" d="M1217.2,509c4.8,6.6,8.7,13.7,11.5,21.4c2,5.4,10.8,3.1,8.8-2.4c-3.1-8.4-7.2-16.3-12.4-23.5
			C1221.6,499.8,1213.7,504.3,1217.2,509L1217.2,509z"/>
	</g>
</g>
<g>
	<g>
		<path class="st1" d="M1242.1,565.4c2.9,9.4,6.1,18.7,9.6,27.9c2.1,5.4,10.8,3.1,8.8-2.4c-3.5-9.2-6.7-18.5-9.6-27.9
			C1249.2,557.4,1240.4,559.8,1242.1,565.4L1242.1,565.4z"/>
	</g>
</g>
<g>
	<g>
		<path class="st1" d="M1255.7,627.4c3.2,8.5,4.9,17.1,5.1,26.1c0.1,5.8,9.2,5.9,9.1,0c-0.2-9.8-2-19.4-5.4-28.6
			C1262.4,619.6,1253.6,621.9,1255.7,627.4L1255.7,627.4z"/>
	</g>
</g>
<g>
	<g>
		<path class="st1" d="M1261.6,689.2c-0.4,9.7-1.4,19.4-3.2,29c-1,5.7,7.7,8.2,8.8,2.4c1.9-10.4,3.1-20.9,3.5-31.4
			C1270.9,683.4,1261.8,683.4,1261.6,689.2L1261.6,689.2z"/>
	</g>
</g>
<g>
	<g>
		<path class="st1" d="M1255.8,753c-1.6,8.1-3.2,16.3-4.8,24.4c-1.1,5.7,7.6,8.2,8.8,2.4c1.6-8.1,3.2-16.3,4.8-24.4
			C1265.7,749.7,1257,747.3,1255.8,753L1255.8,753z"/>
	</g>
</g>
<g>
	<g>
		<path class="st1" d="M1271,782.5c-1.6,8.1-3.2,16.3-4.8,24.4c-1.1,5.7,7.6,8.2,8.8,2.4c1.6-8.1,3.2-16.3,4.8-24.4
			C1280.9,779.2,1272.1,776.8,1271,782.5L1271,782.5z"/>
	</g>
</g>
<g>
	<g>
		<path class="st1" d="M1276.4,726.4c-0.2,8.8-0.4,17.6-0.6,26.3c-0.1,5.9,9,5.9,9.1,0c0.2-8.8,0.4-17.6,0.6-26.3
			C1285.6,720.5,1276.5,720.5,1276.4,726.4L1276.4,726.4z"/>
	</g>
</g>
<g>
	<g>
		<path class="st1" d="M1284.5,657.3c0,9.9,0.1,19.8,0.1,29.7c0,5.8,9.1,5.9,9.1,0c0-9.9-0.1-19.8-0.1-29.7
			C1293.6,651.5,1284.5,651.5,1284.5,657.3L1284.5,657.3z"/>
	</g>
</g>
<g>
	<g>
		<path class="st1" d="M1269.4,596c1.3,7.5,2.6,15.1,4,22.6c1,5.8,9.8,3.3,8.8-2.4c-1.3-7.5-2.6-15.1-4-22.6
			C1277.2,587.8,1268.4,590.3,1269.4,596L1269.4,596z"/>
	</g>
</g>
<g>
	<g>
		<path class="st1" d="M1247.5,532.9c3.7,7.7,7.4,15.3,11.1,23c2.5,5.3,10.4,0.7,7.8-4.6c-3.7-7.7-7.4-15.3-11.1-23
			C1252.9,523.1,1245,527.7,1247.5,532.9L1247.5,532.9z"/>
	</g>
</g>
<g>
	<g>
		<path class="st1" d="M1222.1,480.2c7.3,5.1,12.9,11.9,16.9,19.8c2.7,5.2,10.5,0.6,7.8-4.6c-4.8-9.3-11.7-17-20.2-23.1
			C1221.9,469,1217.3,476.9,1222.1,480.2L1222.1,480.2z"/>
	</g>
</g>
<g>
	<g>
		<path class="st1" d="M1190.9,428.1c4.7,6.4,9.3,12.8,14,19.2c3.4,4.7,11.3,0.1,7.8-4.6c-4.7-6.4-9.3-12.8-14-19.2
			C1195.3,418.8,1187.4,423.3,1190.9,428.1L1190.9,428.1z"/>
	</g>
</g>
<g>
	<g>
		<path class="st1" d="M1147.6,383.1c2,4.4,5.8,7.2,9.7,10c4.6,3.3,8.3,7.1,11.1,12.1c2.9,5.1,10.8,0.5,7.8-4.6
			c-2.7-4.7-6.1-8.9-10.3-12.3c-3.7-3-8.4-5.2-10.5-9.7C1153.1,373.2,1145.2,377.9,1147.6,383.1L1147.6,383.1z"/>
	</g>
</g>
<g>
	<g>
		<path class="st1" d="M1114.6,354.5c6,5.7,12.5,11,19.2,15.9c4.8,3.4,9.3-4.5,4.6-7.8c-6.1-4.4-11.9-9.3-17.4-14.5
			C1116.7,344,1110.3,350.4,1114.6,354.5L1114.6,354.5z"/>
	</g>
</g>
<g>
	<g>
		<path class="st1" d="M1147.8,355.1c6.1,1.4,11.2,4.7,14.5,10c3.1,4.9,11,0.4,7.8-4.6c-4.6-7.2-11.6-12.3-20-14.2
			C1144.5,345.1,1142.1,353.9,1147.8,355.1L1147.8,355.1z"/>
	</g>
</g>
<g>
	<g>
		<path class="st1" d="M1181.3,392.7c7.1,4.2,13.3,9.6,18.7,15.9c3.8,4.5,10.2-2,6.4-6.4c-5.8-6.9-12.8-12.7-20.6-17.3
			C1180.9,381.9,1176.3,389.7,1181.3,392.7L1181.3,392.7z"/>
	</g>
</g>
<g>
	<g>
		<path class="st1" d="M1217.3,438.9c4,5.9,8,11.8,12.1,17.7c3.3,4.8,11.2,0.3,7.8-4.6c-4-5.9-8-11.8-12.1-17.7
			C1221.9,429.5,1214,434.1,1217.3,438.9L1217.3,438.9z"/>
	</g>
</g>
<g>
	<g>
		<path class="st1" d="M1252.8,489.8c3.8,8.8,7.6,17.7,11.3,26.5c2.3,5.4,10.1,0.7,7.8-4.6c-3.8-8.8-7.6-17.7-11.3-26.5
			C1258.3,479.9,1250.5,484.5,1252.8,489.8L1252.8,489.8z"/>
	</g>
</g>
<g>
	<g>
		<path class="st1" d="M1274.5,552.4c2.2,7.3,4.4,14.5,6.6,21.8c1.7,5.6,10.5,3.2,8.8-2.4c-2.2-7.3-4.4-14.5-6.6-21.8
			C1281.6,544.4,1272.8,546.8,1274.5,552.4L1274.5,552.4z"/>
	</g>
</g>
<g>
	<g>
		<path class="st1" d="M1295.2,607.7c0.7,8.5,1.4,17.1,2,25.6c0.5,5.8,9.6,5.8,9.1,0c-0.7-8.5-1.4-17.1-2-25.6
			C1303.9,601.9,1294.8,601.8,1295.2,607.7L1295.2,607.7z"/>
	</g>
</g>
<g>
	<g>
		<path class="st1" d="M1299.6,691.1c-0.3,8.7-1.3,17.3-3.2,25.8c-1.2,5.7,7.5,8.1,8.8,2.4c2-9.3,3.2-18.7,3.5-28.2
			C1308.9,685.2,1299.8,685.2,1299.6,691.1L1299.6,691.1z"/>
	</g>
</g>
<g>
	<g>
		<path class="st1" d="M1299.9,754c-2.4,9.5-4.1,19.2-5.2,29c-0.7,5.8,8.4,5.8,9.1,0c1-9,2.7-17.8,4.8-26.5
			C1310.1,750.7,1301.3,748.3,1299.9,754L1299.9,754z"/>
	</g>
</g>
<g>
	<g>
		<path class="st1" d="M1130,331.7c-2.5-2.8-4.5-5.9-6.1-9.2c-1.1-2.2-4.2-2.8-6.2-1.6c-2.2,1.3-2.7,4-1.6,6.2c2,4,4.6,7.7,7.5,11.1
			c1.6,1.8,4.8,1.7,6.4,0C1131.9,336.3,1131.7,333.5,1130,331.7L1130,331.7z"/>
	</g>
</g>
<g>
	<g>
		<path class="st1" d="M1130.6,318.8c6.9,6.1,14.3,11.3,22.4,15.6c5.2,2.8,9.8-5.1,4.6-7.8c-7.4-4-14.3-8.7-20.6-14.2
			C1132.7,308.5,1126.2,314.9,1130.6,318.8L1130.6,318.8z"/>
	</g>
</g>
<g>
	<g>
		<path class="st1" d="M1178.5,361.3c4.8,5.2,10.2,9.7,16.2,13.5c5,3.1,9.5-4.8,4.6-7.8c-5.4-3.3-10.1-7.4-14.3-12
			C1181,350.5,1174.5,357,1178.5,361.3L1178.5,361.3z"/>
	</g>
</g>
<g>
	<g>
		<path class="st1" d="M1213.2,401.8c4.6,4.7,8.3,10,11.1,15.9c2.5,5.3,10.3,0.7,7.8-4.6c-3.1-6.6-7.4-12.6-12.5-17.8
			C1215.5,391.2,1209.1,397.6,1213.2,401.8L1213.2,401.8z"/>
	</g>
</g>
<g>
	<g>
		<path class="st1" d="M1244,447.4c4.4,5.2,7.9,11,10.6,17.3c2.3,5.4,10.2,0.7,7.8-4.6c-3-7-7.1-13.3-12-19.1
			C1246.6,436.5,1240.2,443,1244,447.4L1244,447.4z"/>
	</g>
</g>
<g>
	<g>
		<path class="st1" d="M1280.2,512.9c3.2,7.1,6.3,14.3,9.5,21.4c2.4,5.3,10.2,0.7,7.8-4.6c-3.2-7.1-6.3-14.3-9.5-21.4
			C1285.6,503,1277.8,507.6,1280.2,512.9L1280.2,512.9z"/>
	</g>
</g>
<g>
	<g>
		<path class="st1" d="M1300.9,565.3c4.2,5.8,7.4,12,9.4,18.9c1.6,5.6,10.4,3.2,8.8-2.4c-2.2-7.6-5.6-14.7-10.3-21.1
			C1305.4,556.1,1297.5,560.6,1300.9,565.3L1300.9,565.3z"/>
	</g>
</g>
<g>
	<g>
		<path class="st1" d="M1312.8,644.1c0.4,6.7,0.9,13.5,1.3,20.2c0.4,5.8,9.5,5.9,9.1,0c-0.4-6.7-0.9-13.5-1.3-20.2
			C1321.5,638.3,1312.4,638.3,1312.8,644.1L1312.8,644.1z"/>
	</g>
</g>
<g>
	<g>
		<path class="st1" d="M1127.6,295.3c2.6,1.6,5.2,3.3,7.9,4.9c2.1,1.3,5,0.4,6.2-1.6c1.3-2.2,0.5-4.9-1.6-6.2
			c-2.6-1.6-5.2-3.3-7.9-4.9c-2.1-1.3-5-0.4-6.2,1.6C1124.7,291.3,1125.5,294,1127.6,295.3L1127.6,295.3z"/>
	</g>
</g>
<g>
	<g>
		<path class="st1" d="M1155.2,318.9c5.8,3.8,11,8.3,15.6,13.5c3.9,4.4,10.3-2.1,6.4-6.4c-5.1-5.8-11-10.7-17.4-14.9
			C1154.8,307.9,1150.3,315.7,1155.2,318.9L1155.2,318.9z"/>
	</g>
</g>
<g>
	<g>
		<path class="st1" d="M1193.3,349.6c6.8,4.3,12.8,9.8,17.5,16.3c3.4,4.7,11.3,0.2,7.8-4.6c-5.7-7.9-12.6-14.4-20.8-19.6
			C1192.9,338.6,1188.3,346.5,1193.3,349.6L1193.3,349.6z"/>
	</g>
</g>
<g>
	<g>
		<path class="st1" d="M1224.3,381.3c2.5,2.3,5,4.7,7.4,7c1.8,1.7,4.7,1.8,6.4,0c1.7-1.7,1.8-4.7,0-6.4c-2.5-2.3-5-4.7-7.4-7
			c-1.8-1.7-4.7-1.8-6.4,0C1222.6,376.5,1222.5,379.6,1224.3,381.3L1224.3,381.3z"/>
	</g>
</g>
<g>
	<g>
		<path class="st1" d="M1242.8,410.3c4.2,3.8,7.4,8.2,9.8,13.2c2.5,5.3,10.4,0.7,7.8-4.6c-2.7-5.7-6.5-10.8-11.2-15.1
			C1244.9,400,1238.5,406.4,1242.8,410.3L1242.8,410.3z"/>
	</g>
</g>
<g>
	<g>
		<path class="st1" d="M1270.4,455.9c4.2,7.1,7.9,14.4,11.2,22c2.3,5.4,10.1,0.7,7.8-4.6c-3.2-7.6-7-14.9-11.2-22
			C1275.3,446.2,1267.4,450.8,1270.4,455.9L1270.4,455.9z"/>
	</g>
</g>
<g>
	<g>
		<path class="st1" d="M1301.9,515c5.1,6.7,10.3,13.4,15.4,20.2c3.5,4.6,11.4,0.1,7.8-4.6c-5.1-6.7-10.3-13.4-15.4-20.2
			C1306.2,505.8,1298.3,510.3,1301.9,515L1301.9,515z"/>
	</g>
</g>
<g>
	<g>
		<path class="st1" d="M1327.9,571c0.5,10.6,2.4,20.9,5.8,30.9c1.9,5.5,10.7,3.1,8.8-2.4c-3.2-9.3-5-18.7-5.5-28.5
			C1336.7,565.2,1327.6,565.2,1327.9,571L1327.9,571z"/>
	</g>
</g>
<g>
	<g>
		<path class="st1" d="M1332.1,622.5c1.2,6.2,2.5,12.4,3.7,18.5c1.1,5.7,9.9,3.3,8.8-2.4c-1.2-6.2-2.5-12.4-3.7-18.5
			C1339.8,614.3,1331,616.8,1332.1,622.5L1332.1,622.5z"/>
	</g>
</g>
<g>
	<g>
		<path class="st1" d="M1333.6,668.1c-0.7,10.9-1.4,21.8-2,32.7c-0.4,5.8,8.7,5.8,9.1,0c0.7-10.9,1.4-21.8,2-32.7
			C1343.1,662.2,1334,662.2,1333.6,668.1L1333.6,668.1z"/>
	</g>
</g>
<g>
	<g>
		<path class="st1" d="M1326.5,725c-1.6,8.1-3.2,16.3-4.8,24.4c-1.1,5.7,7.6,8.2,8.8,2.4c1.6-8.1,3.2-16.3,4.8-24.4
			C1336.4,721.7,1327.6,719.3,1326.5,725L1326.5,725z"/>
	</g>
</g>
<g>
	<g>
		<path class="st1" d="M1319.3,783.2c-2.4,6.2-3.8,12.5-4.6,19.1c-0.7,5.8,8.4,5.7,9.1,0c0.7-5.7,2.2-11.3,4.3-16.7
			C1330.2,780.1,1321.4,777.8,1319.3,783.2L1319.3,783.2z"/>
	</g>
</g>
<g>
	<g>
		<path class="st1" d="M1340.4,757.7c-0.4,8-1.1,15.9-2.3,23.8c-0.9,5.7,7.9,8.2,8.8,2.4c1.3-8.7,2.2-17.4,2.6-26.2
			C1349.8,751.8,1340.7,751.8,1340.4,757.7L1340.4,757.7z"/>
	</g>
</g>
<g>
	<g>
		<path class="st1" d="M1352.4,693.9c0.1,11,0.3,22.1,0.4,33.1c0.1,5.8,9.2,5.9,9.1,0c-0.1-11-0.3-22.1-0.4-33.1
			C1361.4,688.1,1352.3,688.1,1352.4,693.9L1352.4,693.9z"/>
	</g>
</g>
<g>
	<g>
		<path class="st1" d="M1358.9,638.7c-1.5,7.7-1.9,15.3-1.1,23.1c0.6,5.8,9.7,5.8,9.1,0c-0.8-6.9-0.6-13.8,0.7-20.7
			C1368.8,635.4,1360,633,1358.9,638.7L1358.9,638.7z"/>
	</g>
</g>
<g>
	<g>
		<path class="st1" d="M1352.6,591.5c3.3,5.7,4.9,11.7,5,18.3c0.1,5.8,9.1,5.9,9.1,0c-0.1-8.1-2.2-15.8-6.2-22.9
			C1357.5,581.9,1349.7,586.5,1352.6,591.5L1352.6,591.5z"/>
	</g>
</g>
<g>
	<g>
		<path class="st1" d="M1336.4,535.2c4.5,6.6,7.4,13.6,9,21.4c1.1,5.7,9.9,3.3,8.8-2.4c-1.7-8.5-5-16.5-9.9-23.6
			C1341,525.7,1333.1,530.3,1336.4,535.2L1336.4,535.2z"/>
	</g>
</g>
<g>
	<g>
		<path class="st1" d="M1303.2,482.5c6.7,6.2,12.3,13.3,16.7,21.3c2.8,5.1,10.7,0.5,7.8-4.6c-4.8-8.6-10.9-16.4-18.2-23.2
			C1305.3,472.1,1298.9,478.5,1303.2,482.5L1303.2,482.5z"/>
	</g>
</g>
<g>
	<g>
		<path class="st1" d="M1290.3,431.3c-4.8-8.4-10.3-16.2-16.4-23.6c-3.7-4.5-10.1,1.9-6.4,6.4c5.6,6.8,10.6,14.1,15,21.8
			C1285.4,440.9,1293.3,436.3,1290.3,431.3L1290.3,431.3z"/>
	</g>
</g>
<g>
	<g>
		<path class="st1" d="M1295.9,449.8c1.6,3.3,3.1,6.5,4.7,9.8c1.1,2.2,4.2,2.8,6.2,1.6c2.3-1.3,2.7-4,1.6-6.2
			c-1.6-3.3-3.1-6.5-4.7-9.8c-1.1-2.2-4.2-2.8-6.2-1.6C1295.3,444.9,1294.9,447.6,1295.9,449.8L1295.9,449.8z"/>
	</g>
</g>
<g>
	<g>
		<path class="st1" d="M1326.8,484.7c8.6,7.1,15.8,15.4,21.4,25.1c2.9,5.1,10.8,0.5,7.8-4.6c-6-10.3-13.6-19.4-22.8-27
			C1328.7,474.5,1322.2,480.9,1326.8,484.7L1326.8,484.7z"/>
	</g>
</g>
<g>
	<g>
		<path class="st1" d="M1360,535.9c4.7,7.4,8.5,15.2,11.3,23.5c1.9,5.5,10.7,3.1,8.8-2.4c-3.1-9-7.2-17.6-12.3-25.7
			C1364.7,526.4,1356.8,531,1360,535.9L1360,535.9z"/>
	</g>
</g>
<g>
	<g>
		<path class="st1" d="M1377.7,605.1c-1.1,8.8-1.3,17.5-0.6,26.3c0.4,5.8,9.5,5.8,9.1,0c-0.6-8.8-0.4-17.6,0.6-26.3
			C1387.5,599.3,1378.4,599.3,1377.7,605.1L1377.7,605.1z"/>
	</g>
</g>
<g>
	<g>
		<path class="st1" d="M1380.6,668.6c-0.8,8.3-1.5,16.6-2.3,24.9c-0.5,5.8,8.6,5.8,9.1,0c0.8-8.3,1.5-16.6,2.3-24.9
			C1390.3,662.7,1381.2,662.8,1380.6,668.6L1380.6,668.6z"/>
	</g>
</g>
<g>
	<g>
		<path class="st1" d="M1375.5,728.1c-1.8,9.2-3.6,18.4-5.5,27.6c-1.1,5.7,7.6,8.2,8.8,2.4c1.8-9.2,3.6-18.4,5.5-27.6
			C1385.4,724.8,1376.7,722.4,1375.5,728.1L1375.5,728.1z"/>
	</g>
</g>
<g>
	<g>
		<path class="st1" d="M1364.6,783.5c-0.6,5.4-2,10.6-4,15.7c-2.1,5.5,6.7,7.8,8.8,2.4c2.3-5.9,3.6-11.8,4.3-18.1
			C1374.3,777.7,1365.2,777.7,1364.6,783.5L1364.6,783.5z"/>
	</g>
</g>
<g>
	<g>
		<path class="st1" d="M1395.9,754.1c-3.6,7.3-6.3,14.9-8,22.8c-1.2,5.7,7.6,8.1,8.8,2.4c1.5-7.2,3.8-14.1,7-20.6
			C1406.4,753.5,1398.5,748.9,1395.9,754.1L1395.9,754.1z"/>
	</g>
</g>
<g>
	<g>
		<path class="st1" d="M1396.3,701.5c-0.5,7.6-0.9,15.3-1.4,22.9c-0.4,5.8,8.7,5.8,9.1,0c0.5-7.6,0.9-15.3,1.4-22.9
			C1405.8,695.6,1396.7,695.6,1396.3,701.5L1396.3,701.5z"/>
	</g>
</g>
<g>
	<g>
		<path class="st1" d="M1392.4,577.2c2.8,7.7,4.2,15.6,4.1,23.8c-0.1,5.9,9,5.9,9.1,0c0.1-9-1.3-17.8-4.4-26.2
			C1399.2,569.4,1390.5,571.7,1392.4,577.2L1392.4,577.2z"/>
	</g>
</g>
<g>
	<g>
		<path class="st1" d="M1384.3,543.1c1.8,2.1,2.9,4.8,3.2,7.6c0.2,2.4,2,4.5,4.5,4.5c2.3,0,4.7-2.1,4.5-4.5c-0.4-5.3-2.3-10-5.8-14
			c-1.6-1.9-4.8-1.6-6.4,0C1382.5,538.6,1382.7,541.3,1384.3,543.1L1384.3,543.1z"/>
	</g>
</g>
<g>
	<g>
		<path class="st1" d="M1376.3,579.3c-0.2,1.1-0.4,2.1-0.6,3.2c-0.2,1.2-0.2,2.4,0.5,3.5c0.6,0.9,1.6,1.8,2.7,2.1
			c2.3,0.5,5.1-0.7,5.6-3.2c0.2-1.1,0.4-2.1,0.6-3.2c0.2-1.2,0.2-2.4-0.5-3.5c-0.6-0.9-1.6-1.8-2.7-2.1
			C1379.6,575.6,1376.8,576.8,1376.3,579.3L1376.3,579.3z"/>
	</g>
</g>
<g>
	<g>
		<path class="st1" d="M1158.9,1144.2c-1,9.1-2,18.2-3,27.2c-0.6,5.8,8.5,5.8,9.1,0c1-9.1,2-18.2,3-27.2
			C1168.6,1138.4,1159.5,1138.4,1158.9,1144.2L1158.9,1144.2z"/>
	</g>
</g>
<g>
	<g>
		<path class="st1" d="M977.1,1156.3c-0.2,5.1-0.4,10.3-0.6,15.4c-0.2,4.4,6.6,4.4,6.8,0c0.2-5.1,0.4-10.3,0.6-15.4
			C984.1,1152,977.3,1152,977.1,1156.3L977.1,1156.3z"/>
	</g>
</g>
<path class="st2" d="M577,438.7c-58.3-7.9-74.6-164.8-66.9-166.5c7.7-1.8,129.4-43.1,193.4,45.1C604.8,364.6,594.2,417.4,577,438.7z
	"/>
<path class="st2" d="M1101.3,346.4c52.1-27.3,13.8-180.3,6-179.4c-7.9,1-136.4,3.6-166.4,108.4
	C1049.9,286.3,1077.9,332.3,1101.3,346.4z"/>
<path class="st3" d="M577.8,405.1c-39.4-5.3-50.5-111.5-45.2-112.7c5.2-1.2,87.6-29.2,130.9,30.5C596.6,355,589.4,390.7,577.8,405.1
	z"/>
<path class="st3" d="M1087.5,312.8c35.3-18.5,9.4-122,4-121.4c-5.3,0.7-92.3,2.5-112.6,73.4C1052.7,272.1,1071.6,303.3,1087.5,312.8
	z"/>
<path class="st4" d="M1237,594.8c54,335.1-223.3,407.5-301.9,421.4c-261.8,46.1-369.9-129.4-393.9-266
	c-22.2-125.9,77.5-383.8,204.4-410.1c60.4-12.4,79.2,21.6,90.9,29.3c3.9-11.3,14.3-48.1,79.2-58.4
	C1021.1,289.1,1210.2,428.5,1237,594.8z"/>
<path class="st2" d="M646.3,682.3c0.2,12.8-9.9,23.3-22.6,23.5c-12.7,0.2-23.3-9.9-23.5-22.6c-0.3-12.7,9.9-23.3,22.6-23.5
	C635.5,659.5,646,669.6,646.3,682.3z"/>
<path class="st2" d="M1171.3,600.7c0.2,10.7-8.3,19.5-19,19.7c-10.7,0.2-19.5-8.3-19.7-19c-0.2-10.7,8.3-19.5,19-19.7
	C1162.3,581.5,1171.1,590,1171.3,600.7z"/>
<path class="st5" d="M801.3,536.2c8.4,47.9-22.2,93.3-68.3,101.5c-46.1,8.1-90.4-24.1-98.8-72.1c-8.4-47.9,22.2-93.3,68.3-101.5
	C748.6,456,792.8,488.3,801.3,536.2z"/>
<path class="st4" d="M759.7,540.7c4.1,23.4-11,45.7-33.8,49.7c-22.8,4-44.6-11.7-48.8-35.2c-4.1-23.4,11-45.7,33.8-49.7
	C733.7,501.6,755.5,517.3,759.7,540.7z"/>
<path class="st5" d="M737.5,541.7c1.9,10.7-5,20.8-15.4,22.6c-10.4,1.8-20.3-5.3-22.2-16c-1.9-10.7,5-20.8,15.4-22.6
	C725.6,523.8,735.6,531,737.5,541.7z"/>
<path class="st5" d="M714.7,573.8c0.8,4.4-2.1,8.5-6.3,9.3c-4.2,0.7-8.3-2.2-9.1-6.6c-0.8-4.4,2.1-8.5,6.3-9.3
	C709.8,566.5,713.9,569.4,714.7,573.8z"/>
<g>
	<path class="st6" d="M651.7,454.7c-3.5-5.8-1.4-10.8,2.7-12.4c4.1-1.6,8.6-0.1,10.5,5.1c1.8,4.9,1.5,11.5-0.2,17.8
		C664.7,465.1,654.8,459.9,651.7,454.7z"/>
	<path class="st6" d="M682.7,440.8c-2.4-6.3,0.6-10.9,4.9-11.7c4.3-0.8,8.4,1.5,9.4,6.9c0.9,5.2-0.6,11.6-3.4,17.4
		C693.6,453.4,684.8,446.5,682.7,440.8z"/>
	<path class="st6" d="M716.5,435.3c-0.7-6.7,3.5-10.3,7.9-10c4.4,0.4,7.7,3.7,7.2,9.1c-0.5,5.2-3.6,11-7.9,15.9
		C723.7,450.4,717.1,441.3,716.5,435.3z"/>
</g>
<path class="st5" d="M970.8,534.9c8.1,46.1,50.7,77.2,95.1,69.3c44.4-7.8,73.8-51.6,65.7-97.7c-8.1-46.1-50.7-77.1-95.1-69.3
	C992.2,445.1,962.7,488.8,970.8,534.9z"/>
<path class="st4" d="M1010,525.3c4,22.6,25,37.7,46.9,33.8c21.9-3.9,36.5-25.3,32.6-47.8c-4-22.5-25-37.7-46.9-33.8
	C1020.6,481.4,1006,502.8,1010,525.3z"/>
<path class="st5" d="M1030.4,518.9c1.8,10.3,11.4,17.2,21.4,15.4c10-1.8,16.6-11.5,14.8-21.8c-1.8-10.3-11.4-17.2-21.4-15.4
	C1035.2,498.9,1028.6,508.6,1030.4,518.9z"/>
<path class="st5" d="M1061.5,540.4c0.7,4.2,4.7,7,8.8,6.3c4.1-0.7,6.8-4.7,6.1-8.9c-0.7-4.2-4.7-7-8.8-6.3
	C1063.5,532.2,1060.8,536.2,1061.5,540.4z"/>
<g>
	<path class="st6" d="M1079.4,412c1.3-6.4-2.3-10.2-6.5-10.3c-4.2-0.1-7.8,2.7-7.8,8c0,5.1,2.4,10.9,6,16
		C1071,425.7,1078.3,417.7,1079.4,412z"/>
	<path class="st6" d="M1046.8,409.7c0.1-6.5-4.1-9.6-8.3-9c-4.2,0.7-7.2,4.1-6.3,9.3c0.9,5,4.3,10.3,8.8,14.6
		C1041,424.7,1046.7,415.5,1046.8,409.7z"/>
	<path class="st6" d="M1014.4,415.8c-1.6-6.3-6.5-8.2-10.4-6.4c-3.8,1.8-5.8,5.9-3.5,10.6c2.2,4.6,6.9,8.7,12.4,11.8
		C1012.8,431.8,1015.8,421.4,1014.4,415.8z"/>
</g>
<path class="st3" d="M933.3,704.3c8,38.8-13.8,62.4-39.6,63.1c-25.7,0.7-47.7-16.5-48.1-48.7c-0.4-31,14.2-66.6,36.2-97.9
	C881.8,620.9,926.1,669.7,933.3,704.3z"/>
<path class="st5" d="M1160.1,671c44.1,29,23.1,233.6-215.9,285.3c-222.4,48.1-358-146.2-332.8-192.6
	c43.5-80.2,158.5,75.8,300.6,41.4C1042.6,773.4,1110.3,638.2,1160.1,671z"/>
<path class="st4" d="M879.7,823.8c3.9,2.7,28.1,46.6,28.1,46.6s6.9-43.7,8.5-53.1C910.6,816.1,891.5,817.7,879.7,823.8z"/>
<path class="st7" d="M719.2,289.7c22.7,22.4,143.7,24.8,184.7-27.4c6.9-34.8,38.5-254.1,38.5-254.1L887,83.5L843.8,4.6l-47.4,84.5
	l-83.1-62.5l-22.1,85.6l-72.8-60.1C618.4,52.2,710.5,269.5,719.2,289.7z"/>
<ellipse transform="matrix(0.1939 -0.981 0.981 0.1939 501.6613 688.675)" class="st7" cx="669.9" cy="39.1" rx="15.9" ry="16"/>
<ellipse transform="matrix(0.1939 -0.981 0.981 0.1939 602.6669 789.5954)" class="st7" cx="781.8" cy="28.1" rx="15.9" ry="16"/>
<ellipse transform="matrix(0.1939 -0.981 0.981 0.1939 700.0253 891.3978)" class="st7" cx="892.4" cy="19.7" rx="15.9" ry="16"/>
<path class="st8" d="M724.6,70.6l2,34c-0.1,1.5,0,3,0.4,4.4l40.5,159.1c0.7,2.6,1.9,5,3.6,7l10.5,17.5l-1.8-27.6l-40.3-164.6
	L724.6,70.6z"/>
<path class="st8" d="M844.2,53.2L839,86.8c-0.4,1.4-0.6,2.9-0.6,4.4l5.9,164.1c0.1,2.7,0.8,5.3,2,7.6l6.6,19.4l4-27.3l-4.6-169.4
	L844.2,53.2z"/>
<path class="st8" d="M795.8,100.1l-0.5,28.8c-0.1,1.3-0.1,2.5,0,3.7l16.2,133.5c0.3,2.2,0.9,4.2,1.8,5.8l5.5,14.4l0.3-23.4
	l-15.9-138.2L795.8,100.1z"/>
<path class="st8" d="M886.2,93.6l-4.3,26c-0.3,1.1-0.4,2.3-0.5,3.4l-4.8,121.9c-0.1,2,0.2,3.8,0.7,5.4l2.5,13.5l3.4-21.1l5.7-126.1
	L886.2,93.6z"/>
<path class="st8" d="M693.7,120.7l4.9,27.3c0.1,1.2,0.4,2.4,0.7,3.5l38.4,122.5c0.6,2,1.5,3.7,2.6,5.1l7.2,12.5l-4.1-22.1l-38.9-127
	L693.7,120.7z"/>
<path class="st9" d="M925.8,117.4c0,0-15.6,110.8-22,144.8c-7.8,24.2-128.1,70.4-184.7,27.4C929.5,274,925.8,117.4,925.8,117.4z"/>
</svg>
