<?xml version="1.0" encoding="utf-8"?>
<!-- Generator: Adobe Illustrator 19.2.1, SVG Export Plug-In . SVG Version: 6.00 Build 0)  -->
<svg version="1.1" id="Capa_1" xmlns="http://www.w3.org/2000/svg" xmlns:xlink="http://www.w3.org/1999/xlink" x="0px" y="0px"
	 viewBox="0 0 565.6 380.9" style="enable-background:new 0 0 565.6 380.9;" xml:space="preserve">
<style type="text/css">
	.st0{fill:#F7AC3B;}
	.st1{fill:#F8EA21;}
	.st2{fill:#FFFFFF;}
	.st3{fill:#1D1D1B;}
	.st4{fill:#FF41D2;}
	.st5{fill:#65C4CC;}
	.st6{fill:#00FFFF;}
	.st7{fill:#ED5A24;}
	.st8{opacity:0.3;fill:#666666;}
	.st9{fill:none;stroke:#FFFF00;stroke-width:0.989;stroke-miterlimit:10;}
	.st10{fill:none;stroke:#FFFF00;stroke-width:2;stroke-miterlimit:10;}
</style>
<g>
	<path class="st0" d="M460.4,380.5c-17-137.4-74.6-341-183.1-350.8C139,26.7,72.7,248,51.5,380"/>
	<g>
		<path class="st1" d="M281.2,39.5c3.7,0.7,7.3,1.9,10.6,3.8c1.9,1.1,0.1,4.1-1.8,2.9c-3-1.8-6.3-2.8-9.7-3.5
			C278,42.4,279,39.1,281.2,39.5"/>
		<path class="st1" d="M303.7,49.1c3.2,0.7,6.1,2.1,8.9,3.8c1.9,1.2,0.1,4.1-1.8,2.9c-2.5-1.6-5.1-2.7-8-3.4
			C300.5,51.9,301.5,48.6,303.7,49.1"/>
		<path class="st1" d="M325.7,62c0.9,1,1.9,1.9,2.8,2.9c1.5,1.6-1,4-2.5,2.4c-0.9-1-1.9-1.9-2.8-2.9C321.7,62.8,324.2,60.4,325.7,62
			"/>
		<path class="st1" d="M280.2,57.7c2.7,1.1,5.6,1.8,8.5,2.5c2.2,0.5,1.2,3.8-1,3.3c-2.9-0.6-5.7-1.3-8.5-2.5
			C277.2,60.2,278.1,56.8,280.2,57.7"/>
		<path class="st1" d="M305.4,66.4c2.3,1.3,4.1,3.1,5.9,4.9c1.5,1.6-1,4-2.5,2.4c-1.6-1.7-3.2-3.3-5.2-4.4
			C301.6,68.2,303.5,65.3,305.4,66.4"/>
		<path class="st1" d="M370.3,115c1.1,1.7,2.7,2.9,3.9,4.6c1.2,1.9-1.8,3.5-3,1.7c-1.1-1.7-2.7-2.9-3.9-4.6
			C366,114.8,369,113.2,370.3,115"/>
		<path class="st1" d="M380.8,134.4c0.5,2.1,1.4,4,2.8,5.5c1.5,1.6-1,4-2.5,2.4c-1.8-2-3.1-4.4-3.7-7.1
			C376.9,133.1,380.3,132.2,380.8,134.4"/>
		<path class="st1" d="M388,157.4c2.1,1.6,2.8,3.8,3.5,6.2c0.6,2.1-2.7,3-3.4,0.8c-0.4-1.4-0.7-3.2-2-4.1
			C384.4,159,386.2,156,388,157.4"/>
		<path class="st1" d="M398.9,181c1.1,2.4,2.2,4.7,2.9,7.3c0.5,2.2-2.8,3-3.4,0.8c-0.6-2.3-1.5-4.4-2.5-6.5
			C394.9,180.6,398,179,398.9,181"/>
		<path class="st1" d="M408.6,204.5c1.4,2,2.8,4.1,3.8,6.3c1,2-2.1,3.7-3,1.7c-1.1-2.2-2.4-4.3-3.8-6.3c-0.5-0.8-0.1-1.9,0.7-2.3
			C407.1,203.3,408.1,203.7,408.6,204.5"/>
		<path class="st1" d="M417.3,231.2c0.5,1.7,0.5,3.4,1,5.1c0.6,2.1-2.8,3-3.4,0.8c-0.5-1.7-0.5-3.5-1-5.1
			C413.3,229.9,416.7,229.1,417.3,231.2"/>
		<path class="st1" d="M422.8,255.9c1.2,1.9,1.8,4,2.3,6.1c0.5,2.2-2.8,3-3.3,0.8c-0.4-1.9-1-3.7-2-5.3
			C418.6,255.7,421.6,254,422.8,255.9"/>
		<path class="st1" d="M431,282.5c0,1.2-0.2,2.6,0.3,3.7c0.4,0.9,0.2,1.9-0.7,2.4c-0.7,0.4-2,0.2-2.3-0.7c-0.7-1.7-0.7-3.6-0.7-5.4
			C427.6,280.2,431,280.3,431,282.5"/>
		<path class="st1" d="M437.8,304.4c0.6,2.2,0.5,4.5,0.5,6.7c0,2.2-3.5,2.2-3.5-0.1c0-1.9,0.2-3.9-0.4-5.8
			C433.8,303.1,437.2,302.2,437.8,304.4"/>
		<path class="st1" d="M433.1,328.3c-1.2,1.7-2.3,3.4-3.5,5c-1.3,1.8-4.2,0-2.9-1.8c1.2-1.7,2.3-3.4,3.5-5
			C431.4,324.7,434.4,326.5,433.1,328.3"/>
		<path class="st1" d="M422.9,351.4c-1.3,2.4-2.3,4.9-3.6,7.3c-1,2-4,0.2-2.9-1.8c1.3-2.4,2.3-4.9,3.6-7.3
			C421,347.6,424,349.4,422.9,351.4"/>
		<path class="st1" d="M411.7,373.3c-1.2,2.2-2.7,4.1-4.1,6.2c-1.3,1.8-4.2,0-2.9-1.8c1.4-2,2.9-4,4.1-6.2
			C409.8,369.5,412.7,371.3,411.7,373.3"/>
		<path class="st1" d="M442.9,332.3c0.5,1.9,0.5,3.8,1,5.7c0.6,2.1-2.8,3-3.4,0.8c-0.5-1.9-0.5-3.8-1-5.7
			C438.9,331,442.2,330.2,442.9,332.3"/>
		<path class="st1" d="M448,357.2c-0.4,1.3-0.6,2.7-0.6,4.1c-0.1,2.2-3.5,2.1-3.5-0.1c0-1.7,0.2-3.4,0.7-5
			C445.4,354.1,448.7,355.1,448,357.2"/>
		<path class="st1" d="M438.1,368.4l-0.1,5.7c-0.1,2.2-3.5,2.2-3.5-0.1l0.1-5.7C434.7,366.1,438.2,366.2,438.1,368.4"/>
		<path class="st1" d="M419.9,302.5c-0.5-1.1-0.6-2.3-1.1-3.4c-0.4-0.9-0.2-1.9,0.7-2.4c0.7-0.4,2-0.2,2.4,0.7
			c0.5,1.1,0.6,2.3,1.1,3.4c0.4,0.9,0.2,1.9-0.7,2.4C421.5,303.6,420.3,303.3,419.9,302.5"/>
		<path class="st1" d="M415.1,282.6c-0.5-2.6-1.4-5.2-2.5-7.6c-0.9-2,2.1-3.7,3-1.7c1.3,2.7,2.3,5.5,2.8,8.4
			C418.8,284,415.5,284.8,415.1,282.6"/>
		<path class="st1" d="M406.8,253.9c-0.5-1.3-0.5-2.7-1-4c-0.4-0.9-0.2-1.9,0.7-2.4c0.7-0.4,2-0.2,2.4,0.7c0.5,1.3,0.5,2.7,1,4
			c0.4,0.9,0.2,1.9-0.7,2.4C408.4,255,407.1,254.7,406.8,253.9"/>
		<path class="st1" d="M400.3,232.9c-0.9-3-2-6-2.6-9.1c-0.4-2.2,2.9-3,3.4-0.9c0.6,3.1,1.7,6.1,2.6,9.1
			C404.3,234.2,400.9,235,400.3,232.9"/>
		<path class="st1" d="M392,207c-1.8-1.3-2.8-2.9-3.5-5.1c-0.7-2.1,2.7-3,3.4-0.8c0.4,1.2,0.9,2.2,2,3
			C395.6,205.4,393.8,208.3,392,207"/>
		<path class="st1" d="M385.7,184.2c-1.5-1.1-2.9-2.4-4.5-3.5c-1.8-1.3,0-4.2,1.8-2.9c1.5,1.1,2.9,2.4,4.5,3.5
			C389.3,182.5,387.5,185.5,385.7,184.2"/>
		<path class="st1" d="M375.1,159.2c-2.1-2.2-3.5-4.7-4.3-7.7c-0.5-2.2,2.8-3,3.4-0.8c0.6,2.4,1.7,4.3,3.4,6.1
			C379.1,158.5,376.6,160.9,375.1,159.2"/>
		<path class="st1" d="M361,134.9c-0.6-2-0.5-4.1-0.5-6.2c0-2.2,3.5-2.1,3.5,0.1c0,1.8-0.1,3.5,0.4,5.2
			C364.9,136.2,361.6,137,361,134.9"/>
		<path class="st1" d="M294.7,80.1c-2.1-0.5-4.2-0.6-6.2-1.3c-2.1-0.7-1.1-4,1-3.3c2,0.7,4.2,0.7,6.2,1.3
			C297.8,77.3,296.8,80.6,294.7,80.1"/>
		<path class="st1" d="M317.2,96.9c-2.4-1.6-4.8-3.4-7.4-4.5c-2-0.9-1-4.2,1-3.3c3,1.3,5.5,3.2,8.3,4.9
			C320.9,95.1,319.1,98.1,317.2,96.9"/>
		<path class="st1" d="M333.9,113.2c-2-1.1-3.7-2.7-5.6-4.1c-1.8-1.3,0-4.2,1.8-2.9c1.9,1.3,3.5,3,5.6,4.1
			C337.6,111.3,335.8,114.2,333.9,113.2"/>
		<path class="st1" d="M358.5,154c-1.5-2-3.5-3.6-5.3-5.4c-1.6-1.6,0.9-4,2.5-2.4c2,2,4.1,3.9,5.8,6.2c0.6,0.8,0.1,1.9-0.7,2.4
			C359.9,155.2,359,154.7,358.5,154"/>
		<path class="st1" d="M363.9,170.5c0.5,1.1,1.1,2.3,1.6,3.4c0.9,2-2.1,3.7-3,1.7c-0.5-1.1-1.1-2.3-1.6-3.4
			C359.9,170.2,363,168.5,363.9,170.5"/>
		<path class="st1" d="M341.7,135c-1-2.9-3.4-4.9-5.9-6.5c-1.9-1.2-0.1-4.1,1.8-2.9c3.3,2.1,6.1,4.8,7.4,8.6
			C345.7,136.3,342.4,137.1,341.7,135"/>
		<path class="st1" d="M317.5,115.9c-2-2.1-3.9-4-6.3-5.6c-1.9-1.2-0.1-4.2,1.8-2.9c2.6,1.7,4.9,3.8,7,6.1
			C321.6,115.1,319.1,117.5,317.5,115.9"/>
		<path class="st1" d="M295.6,98.1c-2-1.1-4.2-1.5-6.5-1.6c-2.2-0.1-2.2-3.5,0.1-3.5c2.9,0.1,5.6,0.8,8.2,2.1
			C299.4,96.2,297.5,99.1,295.6,98.1"/>
		<path class="st1" d="M276.4,91.4c-1.2,0.5-2.4,0.7-3.7,0.7c-2.2,0-2.2-3.5,0.1-3.5c0.7,0,1.3,0,2-0.3c0.9-0.4,1.9-0.2,2.4,0.7
			C277.5,89.8,277.3,91.1,276.4,91.4"/>
		<path class="st1" d="M278.3,75.9c-0.5,0.4-1.2,0.7-1.7,1.1c-1.7,1.4-4.1-1.1-2.4-2.5c0.5-0.4,1.2-0.7,1.7-1.1
			C277.6,72,280,74.5,278.3,75.9"/>
		<path class="st1" d="M281.6,107.6c-2.4-0.9-4.5-0.6-6.6,0.8c-1.8,1.2-3.5-1.8-1.7-3c2.8-1.9,6.1-2.3,9.3-1.1
			C284.6,105.1,283.7,108.4,281.6,107.6"/>
		<path class="st1" d="M302.7,119.6c-1.5-1.5-3.4-2.5-5.4-3.1c-2.1-0.6-1.1-3.9,1-3.3c2.6,0.8,5,2.1,6.9,4
			C306.8,118.8,304.3,121.2,302.7,119.6"/>
		<path class="st1" d="M327.1,138c-1.6-1.1-3.4-1.9-5-3c-1.8-1.2,0-4.2,1.8-2.9c1.6,1.1,3.4,1.9,5,3
			C330.7,136.3,328.9,139.2,327.1,138"/>
		<path class="st1" d="M341.8,152.2c-1.8-0.1-3.4-1-4.3-2.7c-1.1-2,2-3.6,3-1.7c0.3,0.6,0.7,0.8,1.3,0.9
			C344.1,148.9,344,152.3,341.8,152.2"/>
		<path class="st1" d="M308.8,134.9c-2.5-0.6-4.9-1.2-7.3-1.9c-2.1-0.6-1.2-3.9,1-3.3c2.4,0.7,4.9,1.3,7.3,1.9
			C312,132.1,311,135.4,308.8,134.9"/>
		<path class="st1" d="M287.4,125.4c-2.1-0.5-4.2-0.6-6.3-0.6c-2.2,0-2.2-3.5,0.1-3.5c2.4,0.1,4.9,0.2,7.3,0.8
			C290.6,122.6,289.6,125.9,287.4,125.4"/>
		<path class="st1" d="M268.1,125.1c-0.6,0.7-1.1,1.5-1.7,2.2c-1.5,1.6-3.9-0.9-2.4-2.5c0.6-0.7,1.1-1.5,1.8-2.2
			C267.2,120.9,269.6,123.4,268.1,125.1"/>
		<path class="st1" d="M375.1,190.9c1.7,1.8,2.8,4,4.1,6.1c1.2,1.9-1.9,3.6-3,1.7c-1.2-1.8-2.1-3.8-3.6-5.4
			C371.1,191.6,373.6,189.2,375.1,190.9"/>
		<path class="st1" d="M388.7,216.3c0,1.1,0.4,2.2,0.8,3.1c0.9,2-2.1,3.7-3,1.7c-0.7-1.5-1.2-3.2-1.3-4.9
			C385.2,214,388.7,214,388.7,216.3"/>
		<path class="st1" d="M391,238.6c0.6,1.9,1.5,3.8,2.1,5.7c0.7,2.1-2.7,3-3.4,0.8c-0.6-1.9-1.5-3.8-2.1-5.7
			C386.9,237.3,390.3,236.5,391,238.6"/>
		<path class="st1" d="M395.7,259c0,2,0.9,3.8,1.9,5.4c1.2,1.9-1.9,3.6-3,1.7c-1.4-2.2-2.3-4.6-2.4-7.2
			C392.2,256.7,395.7,256.8,395.7,259"/>
		<path class="st1" d="M403.4,286.1c1.1,1.9,1.7,4.1,2.3,6.1c0.6,2.1-2.7,3-3.4,0.8c-0.6-1.8-1-3.7-2-5.3
			C399.2,285.9,402.2,284.2,403.4,286.1"/>
		<path class="st1" d="M413.1,308.5c1.1,2.2,2.3,4.3,2.9,6.7c0.5,2.2-2.8,3-3.4,0.8c-0.5-2.1-1.6-4-2.5-5.9
			C409.1,308.2,412.1,306.5,413.1,308.5"/>
		<path class="st1" d="M412.8,331c0,0.9-0.1,1.7,0.3,2.5c0.4,0.9,0.2,1.9-0.7,2.4c-0.7,0.4-2,0.2-2.3-0.7c-0.6-1.4-0.7-2.8-0.7-4.3
			C409.4,328.7,412.9,328.7,412.8,331"/>
		<path class="st1" d="M396.3,305.1c1.1,3,2.1,6.1,3.2,9.2c0.8,2.1-2.6,2.9-3.4,0.8c-1.1-3-2.1-6.1-3.2-9.2
			C392.2,303.9,395.6,303.1,396.3,305.1"/>
		<path class="st1" d="M387.9,278.7c0,1.6,0.5,3.1,1,4.7c0.7,2.1-2.7,3-3.4,0.8c-0.6-1.8-1.1-3.7-1.1-5.6
			C384.4,276.4,387.9,276.5,387.9,278.7"/>
		<path class="st1" d="M381.1,298c0.5,2.3,1,4.6,1.6,6.8c0.5,2.2-2.9,3-3.4,0.8c-0.5-2.3-1-4.6-1.6-6.8
			C377.3,296.7,380.6,295.8,381.1,298"/>
		<path class="st1" d="M407.3,346.9c0.4,1.9,1,3.8,1.6,5.7c0.7,2.1-2.7,3-3.4,0.8c-0.6-1.9-1.1-3.8-1.6-5.7
			C403.5,345.5,406.8,344.7,407.3,346.9"/>
		<path class="st1" d="M389.6,324.9c1.1,3.4,2.1,6.9,3.2,10.3c0.7,2.1-2.7,3-3.4,0.8c-1.1-3.4-2.1-6.9-3.2-10.3
			C385.6,323.6,389,322.8,389.6,324.9"/>
		<path class="st1" d="M374.5,315.8c-0.4,1.7-0.6,3.4,0.3,4.9c1.1,1.9-1.9,3.6-3,1.7c-1.4-2.3-1.2-5-0.6-7.6
			C371.7,312.7,375.1,313.6,374.5,315.8"/>
		<path class="st1" d="M379.7,337.5c-0.5,2.6,0.1,5.2,1,7.6c0.8,2.1-2.6,2.9-3.4,0.8c-1.1-3.1-1.6-6.2-0.9-9.5
			C376.8,334.3,380.1,335.3,379.7,337.5"/>
		<path class="st1" d="M394.2,353.3c0,2.2,0.5,4.3,0.9,6.4c0.5,2.2-2.9,3-3.4,0.8c-0.5-2.4-1-4.8-1-7.3
			C390.7,351,394.2,351,394.2,353.3"/>
		<path class="st1" d="M383.1,367.2l-0.1,5.1c0,2.2-3.5,2.1-3.5-0.1l0.1-5.1C379.7,364.9,383.1,365,383.1,367.2"/>
		<path class="st1" d="M396,374.3l-0.1,2.3c0,2.2-3.5,2.2-3.5-0.1l0-2.3C392.6,372,396,372.1,396,374.3"/>
		<path class="st1" d="M364.4,333.8c-0.5,1.4-0.5,2.7-0.1,4.2c0.6,2.1-2.8,3-3.4,0.8c-0.6-2-0.5-4,0.1-6
			C361.8,330.7,365.1,331.6,364.4,333.8"/>
		<path class="st1" d="M370.3,352.7c-0.1,2.9-0.1,5.8,0.3,8.6c0.4,2.2-3,3-3.4,0.8c-0.5-3.2-0.5-6.4-0.4-9.6
			C366.9,350.4,370.4,350.5,370.3,352.7"/>
		<path class="st1" d="M361.9,366.1c0,2.4,0.9,4.4,1.9,6.6c0.9,2-2.1,3.7-3,1.7c-1.3-2.7-2.3-5.3-2.3-8.3
			C358.4,363.8,361.9,363.9,361.9,366.1"/>
		<path class="st1" d="M353.2,353c0.5,1.7,0.5,3.5,1,5.1c0.6,2.1-2.8,3-3.4,0.8c-0.5-1.7-0.5-3.5-1-5.1
			C349.3,351.7,352.6,350.9,353.2,353"/>
		<path class="st1" d="M345.6,366.9c1.9,2.1,2.6,4.7,2.6,7.5c0,2.2-3.5,2.2-3.5-0.1c0-1.9-0.4-3.6-1.7-5.1
			C341.7,367.6,344.2,365.2,345.6,366.9"/>
		<path class="st1" d="M340.7,357.2c-2.2,0-2.2-3.5,0.1-3.5C343,353.8,342.9,357.3,340.7,357.2"/>
		<path class="st1" d="M330.9,363.2c0.1,0.7,0.5,1.5,0.5,2.3c0.2,2.2-3.3,2.1-3.5-0.1c0-0.7-0.5-1.5-0.5-2.3
			C327.3,360.9,330.7,361,330.9,363.2"/>
		<path class="st1" d="M320.6,366.3c0,2.1-0.1,4.3,0.4,6.4c0.5,2.2-2.9,3-3.4,0.8c-0.5-2.4-0.5-4.8-0.5-7.3
			C317.2,364,320.6,364.1,320.6,366.3"/>
		<path class="st1" d="M234.7,45.9c-3.4,0.5-6.8,1.4-9.9,3c-2,1.1-3.6-2-1.7-3c3.3-1.8,7-2.8,10.7-3.3
			C236.1,42.2,237,45.6,234.7,45.9"/>
		<path class="st1" d="M211.8,54.5c-2.9,0.6-5.6,1.6-8.2,3.1c-1.9,1.1-3.6-1.9-1.7-3c2.8-1.6,5.8-2.8,9-3.4
			C213.2,50.7,214,54.1,211.8,54.5"/>
		<path class="st1" d="M190.8,65.5c-1,0.9-1.9,1.9-2.9,2.8c-1.6,1.5-4-1-2.4-2.5c1-0.9,1.9-1.9,2.9-2.8
			C190,61.5,192.4,64,190.8,65.5"/>
		<path class="st1" d="M234.9,64.1c-2.8,1-5.7,1.6-8.6,2.1c-2.2,0.4-3-3-0.8-3.4c2.9-0.5,5.8-1.1,8.6-2.1
			C236.2,60,237,63.3,234.9,64.1"/>
		<path class="st1" d="M210.2,71.3c-2.1,1-3.7,2.6-5.4,4.1c-1.6,1.5-4-1-2.4-2.5c1.9-1.8,3.8-3.5,6.1-4.7
			C210.5,67.3,212.2,70.3,210.2,71.3"/>
		<path class="st1" d="M80.7,297.2c0.5-1.1,0.7-2.3,1.2-3.4c0.4-0.8,1.6-1,2.4-0.6c0.9,0.5,1,1.5,0.6,2.4c-0.5,1.1-0.7,2.3-1.2,3.4
			c-0.4,0.8-1.6,1-2.4,0.6C80.4,299.1,80.3,298.1,80.7,297.2"/>
		<path class="st1" d="M86,278.5c0.7-2.9,1.8-5.6,3.2-8.3c1-2,4-0.2,2.9,1.8c-1.2,2.4-2.2,4.9-2.8,7.5
			C88.8,281.6,85.5,280.6,86,278.5"/>
		<path class="st1" d="M95.9,249.3c0.6-1.2,0.6-2.7,1.2-4c0.4-0.9,1.6-1,2.4-0.6c0.9,0.5,1,1.5,0.6,2.4c-0.6,1.2-0.6,2.7-1.2,3.9
			c-0.4,0.9-1.6,1-2.4,0.6C95.6,251.2,95.5,250.1,95.9,249.3"/>
		<path class="st1" d="M103,229.4c1.1-3,2.3-5.9,3-9c0.5-2.2,3.8-1.2,3.3,1c-0.7,3.1-2,6-3,9C105.6,232.5,102.3,231.5,103,229.4"/>
		<path class="st1" d="M114.1,201.9c1.1-0.7,1.7-1.7,2.1-2.9c0.8-2.1,4.1-1.1,3.3,1c-0.8,2.1-1.8,3.7-3.7,4.9
			C113.9,206.2,112.2,203.2,114.1,201.9"/>
		<path class="st1" d="M121.4,179.4c1.6-1,3-2.3,4.6-3.3c1.9-1.2,3.5,1.8,1.7,3c-1.6,1-3,2.3-4.6,3.3
			C121.2,183.6,119.5,180.6,121.4,179.4"/>
		<path class="st1" d="M132.4,155.5c1.7-1.7,3-3.6,3.7-6c0.6-2.1,3.9-1.2,3.3,1c-0.8,2.9-2.4,5.4-4.6,7.5
			C133.2,159.5,130.8,157,132.4,155.5"/>
		<path class="st1" d="M146.6,133.3c0.6-1.7,0.6-3.4,0.6-5.2c0-2.2,3.5-2.2,3.5,0.1c0,2-0.1,4.2-0.8,6.1
			C149.2,136.4,145.9,135.4,146.6,133.3"/>
		<path class="st1" d="M217.8,79.1c2.1-0.4,4.2-0.4,6.3-1c2.1-0.6,3,2.8,0.8,3.4c-2,0.6-4.2,0.6-6.3,1
			C216.4,82.9,215.6,79.6,217.8,79.1"/>
		<path class="st1" d="M193.7,95.2c2.8-1.6,5.5-3.4,8.5-4.5c2.1-0.8,2.9,2.6,0.8,3.4c-2.7,1.1-5.1,2.8-7.6,4.2
			C193.4,99.4,191.8,96.3,193.7,95.2"/>
		<path class="st1" d="M176.3,110.7c2.1-1,3.8-2.6,5.8-3.8c1.9-1.2,3.5,1.8,1.7,3c-1.9,1.3-3.7,2.8-5.8,3.8
			C176,114.7,174.3,111.7,176.3,110.7"/>
		<path class="st1" d="M148.7,151.6c1.8-2.2,4-3.9,6.1-5.9c1.6-1.5,4,1,2.4,2.5c-1.8,1.7-3.9,3.2-5.5,5.2c-0.6,0.7-1.5,1.1-2.4,0.6
			C148.5,153.6,148.1,152.4,148.7,151.6"/>
		<path class="st1" d="M148.4,171.6c-0.6,1.1-1.2,2.2-1.8,3.4c-1,2-4,0.1-2.9-1.8c0.6-1.1,1.2-2.2,1.8-3.4
			C146.5,167.8,149.4,169.6,148.4,171.6"/>
		<path class="st1" d="M165.9,134.3c1.4-3.8,4.4-6.3,7.8-8.2c1.9-1.1,3.6,1.9,1.7,3c-2.6,1.5-5.1,3.3-6.2,6.2
			C168.4,137.3,165.1,136.3,165.9,134.3"/>
		<path class="st1" d="M191.8,114.8c2.3-2.2,4.6-4.2,7.3-5.8c1.9-1.1,3.6,1.9,1.7,3c-2.5,1.4-4.5,3.3-6.6,5.3
			C192.6,118.8,190.2,116.3,191.8,114.8"/>
		<path class="st1" d="M215.2,97.4c2.7-1.2,5.4-1.8,8.3-1.8c2.2,0,2.2,3.5-0.1,3.5c-2.3,0-4.4,0.4-6.5,1.3
			C214.9,101.3,213.2,98.3,215.2,97.4"/>
		<path class="st1" d="M238.1,91.7c0.6,0.3,1.3,0.4,2,0.4c2.2,0.1,2.2,3.5-0.1,3.5c-1.3,0-2.5-0.3-3.7-0.9c-0.9-0.4-1-1.6-0.6-2.4
			C236.3,91.4,237.3,91.3,238.1,91.7"/>
		<path class="st1" d="M237.7,76.6c0.5,0.4,1.2,0.7,1.7,1.2c1.7,1.5-0.8,3.9-2.5,2.4c-0.5-0.4-1.2-0.7-1.7-1.2
			C233.5,77.5,236,75.1,237.7,76.6"/>
		<path class="st1" d="M229.6,107.2c3.2-1.1,6.5-0.5,9.2,1.5c1.8,1.3,0,4.3-1.8,2.9c-2-1.5-4.2-1.9-6.6-1.1
			C228.4,111.3,227.5,107.9,229.6,107.2"/>
		<path class="st1" d="M206.4,119.1c2-1.9,4.5-3.1,7.1-3.7c2.2-0.5,3,2.8,0.8,3.4c-2.1,0.5-4,1.4-5.5,2.8
			C207.2,123.1,204.8,120.6,206.4,119.1"/>
		<path class="st1" d="M168.4,149c0.6,0,1-0.3,1.4-0.8c1.1-1.9,4.1-0.1,2.9,1.8c-1,1.6-2.5,2.4-4.4,2.5
			C166.1,152.5,166.2,149,168.4,149"/>
		<path class="st1" d="M223,124.7c2.4-0.5,4.8-0.5,7.3-0.5c2.2,0,2.1,3.5-0.1,3.5c-2.1,0-4.3-0.1-6.4,0.4
			C221.7,128.5,220.8,125.1,223,124.7"/>
		<path class="st1" d="M245.7,126.2c0.6,0.7,1,1.6,1.7,2.3c1.5,1.7-1,4.1-2.5,2.4c-0.6-0.7-1-1.6-1.7-2.3
			C241.7,126.9,244.2,124.5,245.7,126.2"/>
		<path class="st1" d="M135.7,192.1c-1.6,1.5-2.6,3.5-3.8,5.2c-1.3,1.8-4.2,0-2.9-1.8c1.4-2,2.6-4.2,4.4-5.9
			C134.9,188,137.3,190.5,135.7,192.1"/>
		<path class="st1" d="M122.1,214.4c-0.1,1.7-0.7,3.3-1.5,4.8c-1,2-3.9,0.2-2.9-1.8c0.5-0.9,0.9-2,1-3.1
			C118.8,212.1,122.2,212.2,122.1,214.4"/>
		<path class="st1" d="M118.7,237.5c-0.7,1.9-1.7,3.7-2.4,5.6c-0.8,2.1-4.1,1.1-3.3-1c0.7-1.9,1.7-3.7,2.4-5.6
			C116.1,234.4,119.4,235.4,118.7,237.5"/>
		<path class="st1" d="M113.2,256.8c-0.1,2.6-1.2,4.9-2.7,7.1c-1.3,1.8-4.2,0-2.9-1.8c1.1-1.6,2.1-3.3,2.2-5.3
			C109.9,254.5,113.3,254.6,113.2,256.8"/>
		<path class="st1" d="M103.8,285.3c-1.1,1.6-1.6,3.4-2.2,5.2c-0.7,2.1-4.1,1.1-3.3-1c0.7-2.1,1.4-4.2,2.6-6
			C102.1,281.6,105,283.4,103.8,285.3"/>
		<path class="st1" d="M93.1,307.2c-1,1.9-2.2,3.7-2.8,5.8c-0.6,2.1-3.9,1.1-3.3-1c0.7-2.4,2-4.4,3.2-6.6
			C91.2,303.4,94.1,305.3,93.1,307.2"/>
		<path class="st1" d="M92.9,327.9c0,1.5-0.2,2.9-0.9,4.3c-0.4,0.9-1.6,1-2.4,0.6c-0.9-0.5-1-1.5-0.6-2.4c0.4-0.8,0.4-1.7,0.4-2.5
			C89.5,325.6,92.9,325.7,92.9,327.9"/>
		<path class="st1" d="M110.4,303.8c-1.3,3-2.4,6-3.6,9c-0.9,2-4.2,1.1-3.3-1c1.3-3,2.4-6,3.6-9
			C107.9,300.8,111.2,301.7,110.4,303.8"/>
		<path class="st1" d="M120.1,276.8c-0.1,1.9-0.7,3.7-1.3,5.5c-0.7,2.1-4.1,1.1-3.3-1c0.5-1.5,1.1-3,1.2-4.6
			C116.8,274.5,120.2,274.6,120.1,276.8"/>
		<path class="st1" d="M125.9,297.3c-0.6,2.3-1.2,4.5-1.9,6.8c-0.6,2.1-3.9,1.2-3.3-1c0.6-2.3,1.2-4.5,1.9-6.8
			C123.1,294.2,126.4,295.2,125.9,297.3"/>
		<path class="st1" d="M104.1,335.7c-0.5,1.9-1.2,3.8-1.8,5.6c-0.7,2.1-4.1,1.1-3.3-1c0.7-1.9,1.3-3.7,1.8-5.6
			C101.4,332.6,104.7,333.6,104.1,335.7"/>
		<path class="st1" d="M116.2,323.8c-1.2,3.4-2.4,6.8-3.6,10.1c-0.7,2.1-4.1,1.1-3.3-1c1.2-3.4,2.4-6.8,3.6-10.1
			C113.6,320.7,116.9,321.7,116.2,323.8"/>
		<path class="st1" d="M125.6,335c0.5,3.3-0.1,6.4-1.3,9.4c-0.8,2-4.2,1.1-3.3-1c1-2.4,1.7-4.9,1.3-7.6
			C121.9,333.7,125.3,332.8,125.6,335"/>
		<path class="st1" d="M110.5,351c-0.1,2.5-0.7,4.9-1.4,7.2c-0.6,2.1-3.9,1.2-3.3-1c0.6-2.1,1.1-4.2,1.2-6.3
			C107.2,348.7,110.6,348.8,110.5,351"/>
		<path class="st1" d="M121,365.5l-0.1,5.1c-0.1,2.2-3.5,2.1-3.5-0.1l0.1-5.1C117.6,363.2,121,363.2,121,365.5"/>
		<path class="st1" d="M107.8,372l-0.1,2.3c0,2.2-3.5,2.1-3.5-0.1l0.1-2.3C104.4,369.7,107.8,369.8,107.8,372"/>
		<path class="st1" d="M134.4,351.6c-0.1,3.2-0.2,6.4-0.8,9.5c-0.5,2.2-3.8,1.2-3.3-1c0.6-2.8,0.6-5.7,0.7-8.6
			C131,349.3,134.4,349.3,134.4,351.6"/>
		<path class="st1" d="M140.2,371.9c-0.1,3-1.3,5.6-2.7,8.2c-1,2-4,0.2-2.9-1.8c1.1-2.1,2.1-4.1,2.2-6.5
			C136.8,369.6,140.3,369.6,140.2,371.9"/>
		<path class="st1" d="M151.3,353.5c-0.6,1.7-0.7,3.4-1.2,5.1c-0.7,2.1-4,1.1-3.3-1c0.5-1.7,0.7-3.4,1.2-5.1
			C148.7,350.4,152,351.4,151.3,353.5"/>
		<path class="st1" d="M157.3,369.2c-1.4,1.4-1.8,3.1-1.9,5c-0.1,2.2-3.5,2.2-3.5-0.1c0.1-2.8,0.9-5.4,2.9-7.4
			C156.5,365.1,158.9,367.6,157.3,369.2"/>
		<path class="st1" d="M165.9,368l-0.1,5.7c0,2.2-3.5,2.2-3.5-0.1l0.1-5.7C162.5,365.7,166,365.8,165.9,368"/>
		<path class="st1" d="M179.7,368.1c-0.1,2.5-0.2,4.9-0.8,7.3c-0.5,2.2-3.9,1.2-3.3-1c0.5-2.1,0.6-4.2,0.6-6.3
			C176.3,365.8,179.8,365.9,179.7,368.1"/>
		<path class="st1" d="M260.1,41.3c-2.1,0.4-4.2,0.5-6.3,1c-2.2,0.5-3-2.9-0.8-3.4c2.1-0.4,4.2-0.6,6.3-1
			C261.4,37.4,262.3,40.8,260.1,41.3"/>
		<path class="st1" d="M255.3,55.3c-1.9,0.6-3.8,1-5.7,1.6c-2.1,0.6-3-2.7-0.8-3.4c1.9-0.6,3.8-1,5.7-1.6
			C256.5,51.4,257.4,54.7,255.3,55.3"/>
		<path class="st1" d="M256.7,71.9c-2.2,0-4.3,0.5-6.4,0.9c-2.2,0.5-3-2.9-0.8-3.4c2.4-0.5,4.8-1,7.3-1
			C259,68.5,258.9,71.9,256.7,71.9"/>
		<path class="st1" d="M256.3,88.9l-3.4-0.1c-2.2,0-2.1-3.5,0.1-3.5l3.4,0.1C258.6,85.5,258.5,89,256.3,88.9"/>
		<path class="st1" d="M253.1,105.3c-0.5,0-1-0.1-1.6-0.3c-0.2-0.1-0.3-0.1-0.5-0.2c0,0-0.4-0.2-0.2-0.1c-0.9-0.1-1.7-0.8-1.7-1.8
			c0-0.9,0.8-1.8,1.8-1.7c0.8,0.1,1.5,0.6,2.3,0.6C255.4,102.1,255.3,105.5,253.1,105.3"/>
		<path class="st1" d="M250.6,117.2c-2.2-0.1-2.2-3.5,0.1-3.5C252.9,113.8,252.8,117.3,250.6,117.2"/>
		<path class="st1" d="M189,88.4c-1.8,1.3-3.8,2.6-5.2,4.4c-1.3,1.8-4.3,0-2.9-1.8c1.7-2.3,4.1-3.9,6.4-5.6c0.8-0.5,1.9-0.1,2.4,0.7
			C190.2,86.9,189.8,87.8,189,88.4"/>
		<path class="st1" d="M163.5,116.7c-0.4,0.9-0.4,2.1-0.4,3.1c-0.1,2.2-3.5,2.2-3.5-0.1c0-1.7,0.2-3.3,0.9-4.8
			c0.4-0.9,1.6-1,2.4-0.6C163.8,114.8,163.9,115.9,163.5,116.7"/>
		<path class="st1" d="M139.1,167.8c0.5,1.2,0.7,2.4,0.7,3.7c0,2.2-3.5,2.2-3.5-0.1c0-0.7,0-1.3-0.3-2
			C135.1,167.5,138.2,165.8,139.1,167.8"/>
		<path class="st1" d="M78.5,319.4c-0.7,3.4-1.8,6.7-2.5,10.2c-0.4,2.2-3.8,1.2-3.3-1c0.7-3.4,1.8-6.7,2.5-10.2
			C75.6,316.3,78.9,317.3,78.5,319.4"/>
		<path class="st1" d="M81.9,346.8c-0.6,2.3-0.6,4.6-0.7,6.9c0,2.2-3.5,2.2-3.5-0.1c0.1-2.6,0.1-5.3,0.8-7.8
			C79.1,343.6,82.4,344.6,81.9,346.8"/>
		<path class="st1" d="M91.7,367.6l-0.1,5.7c0,2.2-3.5,2.1-3.5-0.1l0.1-5.7C88.3,365.3,91.7,365.3,91.7,367.6"/>
		<path class="st1" d="M127.4,166.2c-2.2,0-2.2-3.5,0.1-3.5C129.7,162.8,129.6,166.2,127.4,166.2"/>
		<path class="st1" d="M112,194.2c-2.2-0.1-2.2-3.5,0.1-3.5C114.3,190.8,114.2,194.3,112,194.2"/>
		<path class="st1" d="M197.4,128.5c-2.3,0.5-4.6,0.5-6.8,1c-2.2,0.5-3-2.9-0.8-3.4c2.3-0.5,4.6-0.5,6.8-1
			C198.7,124.7,199.6,128,197.4,128.5"/>
		<path class="st1" d="M67.3,378.2c-1.2-0.7-1.7-1.7-2.3-2.9c-0.9-2,2.1-3.7,3-1.7c0.3,0.7,0.4,1.3,1,1.7
			C71,376.3,69.2,379.3,67.3,378.2"/>
		<path class="st1" d="M64,362.4l0,1.7c0,2.2-3.5,2.2-3.5-0.1l0-1.7C60.6,360.1,64,360.2,64,362.4"/>
	</g>
	<g>
		<path class="st2" d="M114.5,236c-3.3,49,24.5,133.8,122.7,137.5c101.1,3.8,143.5-73.5,144.7-129c1.1-51.1-39.8-114.4-96.1-117.2
			c-26.8-1.3-32.6,13.3-37.1,17c-2.4-4.2-9.4-18.2-38-18.4C164,123.7,119,168.7,114.5,236"/>
		<path class="st3" d="M251.4,231.9c-0.7,30.2,22.4,55.2,51.5,55.8c29.1,0.6,53.2-23.3,53.9-53.5c0.7-30.2-22.4-55.2-51.4-55.8
			C276.2,177.8,252,201.7,251.4,231.9"/>
		<path class="st2" d="M277.3,230.8c-0.3,14.8,11.1,27,25.4,27.3c14.4,0.3,26.3-11.4,26.6-26.2c0.3-14.8-11.1-27-25.4-27.3
			C289.6,204.3,277.7,216,277.3,230.8"/>
		<path class="st3" d="M291,229.3c-0.1,6.7,5,12.3,11.6,12.4c6.5,0.1,12-5.2,12.1-11.9c0.1-6.7-5-12.3-11.6-12.4
			C296.6,217.2,291.2,222.6,291,229.3"/>
		<path class="st3" d="M308,246.9c-0.1,2.8,2.1,5,4.8,5.1c2.7,0.1,4.9-2.1,5-4.9c0.1-2.8-2.1-5-4.7-5.1
			C310.3,241.9,308.1,244.1,308,246.9"/>
		<path class="st4" d="M339.6,173.1c2.1-3.6,0.7-6.7-1.9-7.7c-2.6-0.9-5.3,0.1-6.4,3.3c-1.1,3.1-0.8,7.1,0.4,11
			C331.7,179.7,337.7,176.3,339.6,173.1"/>
		<path class="st4" d="M320.1,164.9c1.4-3.9-0.5-6.7-3.2-7.2c-2.7-0.4-5.2,1-5.7,4.4c-0.5,3.2,0.5,7.2,2.3,10.8
			C313.5,172.9,318.9,168.4,320.1,164.9"/>
		<path class="st4" d="M299.1,162c0.3-4.2-2.3-6.3-5-6.1c-2.7,0.3-4.8,2.4-4.4,5.8c0.4,3.2,2.4,6.8,5.1,9.7
			C294.8,171.4,298.8,165.7,299.1,162"/>
		<path class="st3" d="M221.4,226.9c-0.6,24.8-20.4,44.5-44.2,43.9c-23.9-0.5-42.8-21.1-42.2-45.8c0.6-24.8,20.4-44.4,44.2-43.9
			C203.1,181.5,222,202.1,221.4,226.9"/>
		<path class="st2" d="M200.2,225c-0.3,12.1-10,21.7-21.9,21.5c-11.8-0.3-21.1-10.3-20.9-22.4c0.3-12.1,10.1-21.7,21.9-21.5
			C191.1,202.8,200.4,212.9,200.2,225"/>
		<path class="st3" d="M189,223.3c-0.1,5.5-4.6,9.9-9.9,9.8c-5.4-0.1-9.6-4.7-9.5-10.2c0.1-5.5,4.6-9.9,10-9.8
			C184.9,213.2,189.1,217.7,189,223.3"/>
		<path class="st3" d="M174.4,237c0,2.3-1.9,4.1-4.1,4c-2.2,0-3.9-1.9-3.9-4.2c0.1-2.3,1.9-4.1,4.1-4
			C172.7,232.9,174.5,234.8,174.4,237"/>
		<path class="st4" d="M148.5,176.4c-2-2.8-1.1-5.4,1-6.4c2-0.9,4.4-0.3,5.5,2.2c1.1,2.4,1.2,5.8,0.5,9
			C155.5,181.2,150.3,178.9,148.5,176.4"/>
		<path class="st4" d="M163.8,168.3c-1.4-3.1-0.1-5.5,2.1-6.1c2.2-0.6,4.3,0.4,5,3.2c0.7,2.6,0.1,5.9-1.1,9
			C169.8,174.3,165.1,171.1,163.8,168.3"/>
		<path class="st4" d="M180.8,164.3c-0.6-3.4,1.4-5.4,3.6-5.3c2.2,0,4.1,1.6,4,4.4c-0.1,2.7-1.5,5.7-3.5,8.3
			C185,171.7,181.3,167.3,180.8,164.3"/>
		<path class="st5" d="M221.3,278.2c-1.6,7.8,2.9,12.6,8.1,12.7c5.2,0.1,9.6-3.4,9.7-9.9c0-6.3-3-13.4-7.4-19.7
			C231.6,261.2,222.7,271.1,221.3,278.2"/>
		<path d="M247.3,338.8c0,0-7.7,1.8-18.2,0.7c-12.5-1.4-18.7-5.2-18.7-5.2s0.4,20,16.1,21.8C242.1,357.9,247.3,338.8,247.3,338.8"/>
		<polygon class="st2" points="242.6,341.1 236.2,341.6 237.7,347.9 		"/>
		<polyline class="st2" points="220.6,339.7 214.3,338 217,345.2 		"/>
		<path class="st6" d="M305.1,315.3c-0.1,5.4,4.2,9.9,9.6,10c5.4,0.1,9.9-4.2,10-9.6c0.1-5.4-4.2-9.9-9.6-10
			C309.7,305.6,305.2,309.9,305.1,315.3"/>
		<path class="st6" d="M148.1,298.9c-0.1,5.4,4.2,9.9,9.6,10c5.4,0.1,9.9-4.2,10-9.6c0.1-5.4-4.2-9.9-9.6-10
			C152.7,289.2,148.2,293.5,148.1,298.9"/>
	</g>
	<g>
		<path class="st7" d="M165.9,106.8c-6.4,6.7-55.3-56.6-20.7-104.9c10.8,46.9,48.3,73.2,48.3,73.2S173.8,87.1,165.9,106.8"/>
		<path class="st6" d="M187.7,75.1c0,0-0.7,0-2,0.1c-1.3,0.1-3.1,0.3-5.2,0.4c-1.1,0.1-2.2,0.1-3.4,0.2c-1.2,0.1-2.5,0-3.9,0.1
			c-2.7,0.1-5.5,0.1-8.4,0.1c-5.7,0-11.5-0.1-15.8,0.1c-2.2,0-4,0.2-5.2,0.3c-1.3,0.1-2,0.2-2,0.2s0.7,0.1,2,0.3
			c1.3,0.1,3,0.4,5.2,0.6c2.2,0.2,4.7,0.5,7.4,0.6c2.7,0.2,5.6,0.2,8.5,0.3c1.5,0,2.9-0.1,4.3-0.1c1.4,0,2.8-0.2,4.2-0.3
			c1.4-0.1,2.7-0.2,3.9-0.4c1.2-0.2,2.4-0.4,3.5-0.6c2.2-0.3,3.9-1,5.1-1.3C187,75.3,187.7,75.1,187.7,75.1"/>
		<path class="st6" d="M177.7,64.4c0,0-0.7-0.1-1.8-0.2c-1.2-0.1-2.9-0.2-4.8-0.5c-1-0.1-2-0.3-3.2-0.4c-1.1-0.1-2.3-0.4-3.5-0.6
			c-2.5-0.4-5-0.9-7.7-1.4c-5.2-1-10.4-2-14.4-2.7c-2-0.3-3.7-0.5-4.8-0.6c-1.2-0.1-1.8-0.2-1.8-0.2s0.6,0.2,1.7,0.6
			c1.1,0.4,2.7,0.9,4.6,1.5c1.9,0.6,4.2,1.2,6.6,1.9c2.4,0.7,5.1,1.2,7.7,1.8c1.3,0.2,2.7,0.4,4,0.6c1.3,0.2,2.6,0.3,3.9,0.4
			c1.3,0.1,2.5,0.3,3.6,0.3c1.2,0,2.3,0,3.3,0c2,0,3.7-0.3,4.8-0.4C177,64.5,177.7,64.4,177.7,64.4"/>
		<path class="st6" d="M162.9,48c0,0-0.5-0.1-1.3-0.3c-0.8-0.2-2-0.3-3.3-0.7c-0.7-0.2-1.4-0.4-2.1-0.6c-0.8-0.1-1.5-0.5-2.4-0.7
			c-1.7-0.5-3.4-1.1-5.1-1.7c-3.5-1.2-7-2.5-9.7-3.3c-2.7-0.8-4.6-1.1-4.6-1.1s1.6,1,4.1,2.4c1.2,0.7,2.7,1.4,4.3,2.1
			c1.6,0.8,3.4,1.4,5.1,2.1c0.9,0.3,1.8,0.6,2.7,0.8c0.9,0.3,1.8,0.4,2.7,0.6c0.9,0.2,1.7,0.4,2.6,0.4c0.8,0.1,1.6,0.1,2.3,0.2
			c1.4,0.1,2.6-0.1,3.4-0.1C162.4,48.1,162.9,48,162.9,48"/>
		<path class="st6" d="M155.1,31.1c0,0-0.3-0.1-0.9-0.2c-0.3-0.1-0.6-0.1-1.1-0.2c-0.4-0.1-0.9-0.1-1.3-0.2c-0.5-0.1-1-0.3-1.5-0.4
			c-0.5-0.1-1-0.3-1.6-0.5c-0.5-0.2-1.1-0.5-1.7-0.7c-0.5-0.3-1.1-0.6-1.7-0.9c-0.6-0.3-1.1-0.6-1.7-0.9c-0.5-0.3-1.1-0.6-1.6-1
			c-1.1-0.6-2.1-1.2-3-1.7c-1.8-1-3.1-1.4-3.1-1.4s0.9,1.1,2.3,2.5c0.7,0.7,1.6,1.5,2.6,2.3c0.5,0.4,1,0.8,1.6,1.2
			c0.6,0.4,1.1,0.8,1.7,1.1c0.6,0.3,1.3,0.6,1.9,0.9c0.6,0.3,1.3,0.4,2,0.6c0.6,0.2,1.3,0.3,1.9,0.3c0.6,0.1,1.2,0.1,1.7,0.1
			c0.5,0,1-0.1,1.4-0.2c0.4-0.1,0.8-0.2,1-0.2C154.8,31.2,155.1,31.1,155.1,31.1"/>
		<path class="st6" d="M172.1,89.5c0,0-0.3,0.1-0.9,0.3c-0.3,0.1-0.6,0.2-1,0.4c-0.4,0.1-0.8,0.4-1.3,0.5c-0.5,0.1-1,0.3-1.5,0.4
			c-0.5,0.2-1,0.3-1.6,0.4c-0.6,0.1-1.2,0.2-1.8,0.3c-0.6,0.1-1.2,0.1-1.9,0.2c-0.6,0.1-1.3,0.1-1.9,0.1c-0.6,0-1.3,0.1-1.9,0.1
			c-1.2,0-2.4,0.1-3.4,0.2c-2,0.2-3.4,0.5-3.4,0.5s1.3,0.4,3.3,0.8c1,0.2,2.1,0.4,3.4,0.5c0.6,0.1,1.3,0.1,2,0.1
			c0.7,0,1.4,0.1,2.1,0c0.7-0.1,1.4-0.2,2.1-0.3c0.7-0.1,1.3-0.4,2-0.6c0.6-0.2,1.2-0.5,1.8-0.8c0.5-0.3,1-0.6,1.5-0.9
			c0.4-0.3,0.7-0.6,1-0.9c0.3-0.3,0.5-0.5,0.8-0.8C171.9,89.8,172.1,89.5,172.1,89.5"/>
	</g>
	<g>
		<path class="st7" d="M347,122.2c7.1,8.2,68-63.6,29.8-122.2c-15.1,54.5-60.6,83.5-60.6,83.5S338.7,98.6,347,122.2"/>
		<path class="st6" d="M325.8,80.7c0,0,0.7,0.3,2,0.7c0.6,0.2,1.4,0.5,2.3,0.7c0.9,0.3,1.9,0.6,3.1,0.8c1.1,0.2,2.4,0.5,3.7,0.8
			c1.3,0.3,2.7,0.4,4.2,0.6c1.5,0.2,2.9,0.4,4.5,0.5c1.5,0.1,3.1,0.2,4.6,0.3c3.1,0.1,6.2,0.2,9.1,0.1c2.9,0,5.6-0.1,7.9-0.3
			c2.3-0.2,4.3-0.3,5.6-0.4c1.4-0.1,2.1-0.2,2.1-0.2s-0.8-0.1-2.1-0.3c-1.4-0.1-3.3-0.4-5.6-0.5c-4.6-0.3-10.8-0.5-17-0.8
			c-3.1-0.2-6.2-0.3-9-0.5c-1.4-0.1-2.8-0.1-4.1-0.3c-1.3-0.1-2.6-0.3-3.7-0.4c-2.3-0.2-4.2-0.5-5.6-0.7
			C326.6,80.8,325.8,80.7,325.8,80.7"/>
		<path class="st6" d="M337,69.7c0,0,0.7,0.1,2,0.3c1.3,0.1,3,0.5,5.2,0.6c1.1,0,2.3,0.1,3.5,0.1c1.3,0.1,2.6-0.1,3.9-0.1
			c1.4-0.1,2.8-0.1,4.2-0.3c1.4-0.2,2.9-0.3,4.3-0.5c2.8-0.5,5.7-0.9,8.3-1.5c2.6-0.6,5.1-1.1,7.2-1.7c2.1-0.6,3.8-1,5-1.3
			c1.2-0.3,1.9-0.6,1.9-0.6s-0.7,0-2,0.1c-1.3,0.1-3.1,0.2-5.2,0.5c-4.3,0.5-10,1.4-15.6,2.2c-2.8,0.4-5.6,0.8-8.3,1.1
			c-1.3,0.1-2.6,0.4-3.8,0.4c-1.2,0.1-2.4,0.2-3.4,0.3c-2.1,0.2-4,0.2-5.2,0.3C337.8,69.6,337,69.7,337,69.7"/>
		<path class="st6" d="M353.8,52.8c0,0,0.5,0.1,1.4,0.2c0.9,0.1,2.1,0.3,3.7,0.3c0.8,0,1.6,0,2.5-0.1c0.9,0,1.8-0.2,2.8-0.3
			c0.9-0.2,2-0.3,2.9-0.6c1-0.3,2-0.5,3-0.8c1.9-0.6,3.9-1.3,5.6-2c1.8-0.7,3.4-1.4,4.7-2.1c2.7-1.3,4.5-2.3,4.5-2.3s-2,0.3-5,1
			c-2.9,0.8-6.8,1.9-10.6,3.1c-1.9,0.5-3.8,1.1-5.6,1.5c-0.9,0.2-1.8,0.5-2.6,0.6c-0.8,0.2-1.6,0.3-2.3,0.5
			c-1.5,0.3-2.7,0.4-3.6,0.6C354.3,52.7,353.8,52.8,353.8,52.8"/>
		<path class="st6" d="M363,34.9c0,0,0.3,0.1,1,0.3c0.3,0.1,0.7,0.2,1.1,0.3c0.4,0.1,0.9,0.3,1.5,0.3c0.6,0,1.2,0,1.8,0
			c0.3,0,0.7,0,1,0c0.3,0,0.7-0.1,1-0.2c0.7-0.2,1.4-0.3,2.1-0.5c0.7-0.3,1.4-0.6,2.1-0.9c0.7-0.3,1.3-0.7,1.9-1.1
			c0.6-0.4,1.2-0.8,1.8-1.2c1.1-0.8,2.1-1.6,2.9-2.3c1.6-1.4,2.6-2.5,2.6-2.5s-1.4,0.4-3.4,1.4c-1,0.5-2.1,1.1-3.2,1.7
			c-0.6,0.3-1.2,0.6-1.8,1c-0.6,0.3-1.2,0.7-1.8,0.9c-0.6,0.3-1.2,0.6-1.8,0.9c-0.6,0.2-1.2,0.4-1.8,0.7c-0.6,0.2-1.2,0.4-1.7,0.5
			c-0.6,0.1-1.1,0.3-1.6,0.4c-0.5,0.1-1,0.1-1.5,0.2c-0.4,0.1-0.8,0.1-1.1,0.1C363.3,34.8,363,34.9,363,34.9"/>
		<path class="st6" d="M341.9,97c0,0,0.2,0.3,0.7,0.8c0.2,0.2,0.5,0.5,0.8,0.8c0.3,0.3,0.6,0.7,1.1,1c0.5,0.3,1,0.7,1.6,1
			c0.3,0.2,0.6,0.3,0.9,0.5c0.3,0.2,0.6,0.3,1,0.4c0.7,0.2,1.3,0.5,2.1,0.7c0.7,0.1,1.5,0.3,2.2,0.4c0.7,0.1,1.5,0.1,2.2,0.1
			c0.7,0.1,1.4,0,2.1,0c1.4-0.1,2.6-0.2,3.7-0.4c2.1-0.3,3.6-0.6,3.6-0.6c0,0-1.4-0.4-3.6-0.7c-1.1-0.1-2.3-0.2-3.7-0.3
			c-0.7,0-1.3-0.1-2-0.2c-0.7-0.1-1.4-0.1-2-0.2c-0.7-0.1-1.4-0.2-2-0.3c-0.6-0.2-1.3-0.3-1.9-0.5c-0.6-0.1-1.2-0.3-1.7-0.5
			c-0.5-0.2-1.1-0.4-1.6-0.5c-0.5-0.2-0.9-0.5-1.3-0.6c-0.4-0.2-0.7-0.4-1-0.5C342.2,97.1,341.9,97,341.9,97"/>
	</g>
	<path class="st0" d="M370.9,335.6c44,22.5,87.8,22.1,106,13c30.3-12.7,56.9-84.9,65.5-78.9c7,4.8-2,18.6-2,18.6s9.6-12.1,13.9-9.4
		c5.8,3.8-4.3,15.5-4.3,15.5s9.7-9.7,14-4.2c5.1,6.5-58.7,78.6-113.8,77.6c-29-0.5-44.9-5.9-44.9-5.9"/>
	<path class="st8" d="M375.3,343c105.7,49.4,142.1-54,160.6-64.7c3.7-3.2,7.4-1.6,7.8-1.4c6.1,4.6,1.2,13.2,1.2,13.2s6.5-4.7,10-2.6
		c3.9,2.2,2.8,7,2.8,7s-1.5,4.7-3.7,6.1c0,0,6.7-5.7,9.7,2.4c5.2,16.8-34.6,54.7-77.7,69.7c-32.2,11.2-65.7,4.6-86.3-6.1
		c5.6-0.9,34.3,11.3,62.8,5.5c34.7-7,97.8-54.1,96.8-65.3c-3.2-7.2-13.3,0.4-13.3,0.4s11-10.1,4.3-14.6c-3.9-2.6-12.7,7.5-12.7,7.5
		s7.9-17.5,1.5-16.8C509.7,286,501.9,405.6,375.3,343"/>
	<path class="st9" d="M375.3,343c105.7,49.4,142.1-54,160.6-64.7c3.7-3.2,7.4-1.6,7.8-1.4c6.1,4.6,1.2,13.2,1.2,13.2s6.5-4.7,10-2.6
		c3.9,2.2,2.8,7,2.8,7s-1.5,4.7-3.7,6.1c0,0,6.7-5.7,9.7,2.4c5.2,16.8-34.6,54.7-77.7,69.7c-32.2,11.2-65.7,4.6-86.3-6.1
		c5.6-0.9,34.3,11.3,62.8,5.5c34.7-7,97.8-54.1,96.8-65.3c-3.2-7.2-13.3,0.4-13.3,0.4s11-10.1,4.3-14.6c-3.9-2.6-12.7,7.5-12.7,7.5
		s7.9-17.5,1.5-16.8C509.7,286,501.9,405.6,375.3,343z"/>
	<path class="st10" d="M400,355.5c42,10,58.9,6.8,77.2-2.3c30.3-12.7,56.9-84.9,65.5-78.9c7,4.8-2,18.6-2,18.6s9.6-12.1,13.9-9.4
		c5.8,3.8-4.3,15.5-4.3,15.5s9.7-9.7,14-4.2c5.1,6.5-58.7,78.6-113.8,77.6c-29-0.5-44.9-5.9-44.9-5.9"/>
	<path class="st0" d="M95,316c-1.6,10.7-8.3,27.1-23.5,32.2C40,357.9,9.5,322.6,6.7,332.7c-2.3,8.2,12.9,11.4,12.9,11.4
		S4.4,341,2.9,345.8c-2.1,6.6,13.3,9.1,13.3,9.1s-13.7-1.2-13.4,5.8c0.3,8.3,59.2,12,76.6,1.7c11.4-6.8,15.2-20.4,15.2-20.4"/>
	<path class="st8" d="M97,322.1c-31.9,55.9-70.8,8.1-86.3,8.7c-3.5-0.5-6.5,0.8-6.7,4.7c-1.9,5.2,5.2,8.9,5.2,8.9s-6.8,0.9-8.2,3.6
		c-2.5,4.9,0.4,6.5,0.4,6.5s3.6,2.8,5.5,2.7c0,0-7.3,1.8-6,7.8c3.5,12.3,44.4,19.5,75.3,8.2c13.8-5.1,18.4-14.3,21-25.1
		c-2.3,3.5-9.9,19-23.8,21.5c-25.1,4.6-65.1,2-68.9-5.2c-0.9-5.7,9.1-5.9,9.1-5.9s-10.1-4-7.8-9.3c1.4-3.1,9.3-3.3,9.3-3.3
		s-8.4-2.5-6.3-10.9C11.5,324.9,76.2,388.7,97,322.1"/>
	<path class="st10" d="M94.3,318.3c-1.6,10.7-8.3,27.1-23.5,32.2C39.4,360.1,8.8,324.9,6,335c-2.3,8.2,12.9,11.4,12.9,11.4
		s-15.1-3.1-16.6,1.7c-2.1,6.6,13.3,9.1,13.3,9.1S1.9,356,2.1,363c0.3,8.3,59.2,12,76.6,1.7c11.4-6.8,15.2-20.4,15.2-20.4"/>
</g>
</svg>
