<?xml version="1.0" encoding="utf-8"?>
<!-- Generator: Adobe Illustrator 19.2.1, SVG Export Plug-In . SVG Version: 6.00 Build 0)  -->
<svg version="1.1" id="Capa_1" xmlns="http://www.w3.org/2000/svg" xmlns:xlink="http://www.w3.org/1999/xlink" x="0px" y="0px"
	 viewBox="0 0 693.4 863.8" style="enable-background:new 0 0 693.4 863.8;" xml:space="preserve">
<style type="text/css">
	.st0{opacity:0.2;fill:#4D4D4D;enable-background:new    ;}
	.st1{fill:#ED1E79;}
	.st2{opacity:0.4;fill:#4D4D4D;enable-background:new    ;}
	.st3{fill:#D4145A;}
	.st4{fill:none;}
	.st5{fill:#FFFFFF;}
	.st6{fill:#FFFF00;}
	.st7{fill:#1D1D1B;}
	.st8{fill:#29ABE2;}
	.st9{fill:#C69C6D;}
	.st10{fill:#FCEE21;}
	.st11{fill:#FF00FF;}
</style>
<g id="Monstruo_Prepare">
	<ellipse class="st0" cx="332.6" cy="845" rx="134.8" ry="18.7"/>
	<path class="st1" d="M169.7,589.8c-13.3-13.9-125.9-84.9-11.1-580.2c1-2.6,1.1-9.6,8.9-8.6c8,0.8,3.9,22.3-0.1,32.3
		c7.2-12,9.2-35.3,21.9-33.2s5.1,31,4,39c2.5-3.8,6.1-33.6,16.7-33.3c3.5,0.5,8.8,0.3,3.9,19.4c-160,548.7-37.2,531.1-37.2,531.1
		s31.2-100.5,155.9-98.5s147.5,85.7,157.2,99c115.5-10.6-44.3-500.2-54.9-534.5C433,12,435.1,9.5,439.8,7.6
		c7.2-1.3,16.2,24.8,16.8,27.6c-6-26.5-3.3-32.1,3.8-33.9c7.1-1.8,13.6,14.3,20.6,30.4c-4.3-17.9-5-29.1,1.3-30.1
		c6.3-1.1,10.3,11.6,10.3,11.6s136,474.3,5.5,576.7c20.2,109-23,240.5-23,240.5s34.1-1.3,29.1,13.8s-55.2,0-55.2,0s15.7-14.8,5.4-26
		c-13-11.8-67.1-19.6-117.3-20c-134.5,3.4-121.6,27.9-121.2,31.8c0.4,3.8,2.7,7.9,8.7,14.5c-4.2,1.2-58.3,17.4-63.2-0.3
		s35.5-15,35.5-15S144.2,704.6,169.7,589.8z"/>
	<path class="st2" d="M334.7,798.2c0,0-96.1-6.1-119.2,11.9c-21.4,17.5,9.1,34.3,9.1,34.3s-25.2-22,7.3-33.4
		C261.8,799.4,334.7,798.2,334.7,798.2z"/>
	<path class="st2" d="M339,798.2c0,0,96.1-6.1,119.2,11.9c21.4,17.5-9.1,34.3-9.1,34.3s25.2-22-7.3-33.4
		C411.9,799.4,339,798.2,339,798.2z"/>
	<g>
		<g>
			<path class="st3" d="M326.8,471.1"/>
			<g>
				<path class="st3" d="M326.8,474.6c4.4,0,4.4-6.9,0-6.9S322.4,474.6,326.8,474.6L326.8,474.6z"/>
			</g>
		</g>
		<g>
			<path class="st3" d="M312.4,466.1"/>
			<g>
				<path class="st3" d="M312.4,469.6c4.4,0,4.4-6.9,0-6.9S308,469.6,312.4,469.6L312.4,469.6z"/>
			</g>
		</g>
		<g>
			<path class="st3" d="M295.3,467.3"/>
			<g>
				<path class="st3" d="M295.3,470.7c4.4,0,4.4-6.9,0-6.9C290.8,463.8,290.8,470.7,295.3,470.7L295.3,470.7z"/>
			</g>
		</g>
		<g>
			<path class="st3" d="M282.5,471.1"/>
			<g>
				<path class="st3" d="M282.5,474.6c4.4,0,4.4-6.9,0-6.9S278.1,474.6,282.5,474.6L282.5,474.6z"/>
			</g>
		</g>
		<g>
			<path class="st3" d="M203.8,524.3"/>
			<g>
				<path class="st3" d="M203.8,527.8c4.4,0,4.4-6.9,0-6.9C199.4,520.9,199.4,527.8,203.8,527.8L203.8,527.8z"/>
			</g>
		</g>
		<g>
			<path class="st3" d="M192.8,538.7"/>
			<g>
				<path class="st3" d="M192.8,542.2c4.4,0,4.4-6.9,0-6.9C188.3,535.3,188.3,542.2,192.8,542.2L192.8,542.2z"/>
			</g>
		</g>
		<g>
			<path class="st3" d="M185,557.6"/>
			<g>
				<path class="st3" d="M185,561c4.4,0,4.4-6.9,0-6.9S180.6,561,185,561L185,561z"/>
			</g>
		</g>
		<g>
			<path class="st3" d="M171.5,577.5"/>
			<g>
				<path class="st3" d="M171.5,581c4.4,0,4.4-6.9,0-6.9C167,574.1,167,581,171.5,581L171.5,581z"/>
			</g>
		</g>
		<g>
			<path class="st3" d="M167,598.6"/>
			<g>
				<path class="st3" d="M167,602c4.4,0,4.4-6.9,0-6.9S162.6,602,167,602L167,602z"/>
			</g>
		</g>
		<g>
			<path class="st3" d="M164.8,620.7"/>
			<g>
				<path class="st3" d="M164.8,624.2c4.4,0,4.4-6.9,0-6.9C160.4,617.3,160.4,624.2,164.8,624.2L164.8,624.2z"/>
			</g>
		</g>
		<g>
			<path class="st3" d="M162.6,645.1"/>
			<g>
				<path class="st3" d="M162.6,648.5c4.4,0,4.4-6.9,0-6.9C158.2,641.6,158.2,648.5,162.6,648.5L162.6,648.5z"/>
			</g>
		</g>
		<g>
			<path class="st3" d="M163.7,668.4"/>
			<g>
				<path class="st3" d="M163.7,671.8c4.4,0,4.4-6.9,0-6.9C159.3,664.9,159.3,671.8,163.7,671.8L163.7,671.8z"/>
			</g>
		</g>
		<g>
			<path class="st3" d="M163.2,688.9"/>
			<g>
				<path class="st3" d="M163.2,692.3c4.4,0,4.4-6.9,0-6.9C158.7,685.4,158.7,692.3,163.2,692.3L163.2,692.3z"/>
			</g>
		</g>
		<g>
			<path class="st3" d="M167,712.1"/>
			<g>
				<path class="st3" d="M167,715.6c4.4,0,4.4-6.9,0-6.9C162.6,708.7,162.6,715.6,167,715.6L167,715.6z"/>
			</g>
		</g>
		<g>
			<path class="st3" d="M171.5,734.3"/>
			<g>
				<path class="st3" d="M171.5,737.7c4.4,0,4.4-6.9,0-6.9C167,730.8,167,737.7,171.5,737.7L171.5,737.7z"/>
			</g>
		</g>
		<g>
			<path class="st3" d="M185.6,758.7"/>
			<g>
				<path class="st3" d="M185.6,762.1c4.4,0,4.4-6.9,0-6.9C181.1,755.2,181.1,762.1,185.6,762.1L185.6,762.1z"/>
			</g>
		</g>
		<g>
			<path class="st3" d="M191.1,784.1"/>
			<g>
				<path class="st3" d="M191.1,787.6c4.4,0,4.4-6.9,0-6.9C186.7,780.7,186.7,787.6,191.1,787.6L191.1,787.6z"/>
			</g>
		</g>
		<g>
			<path class="st3" d="M197.8,809.1"/>
			<g>
				<path class="st3" d="M197.8,812.5c4.4,0,4.4-6.9,0-6.9C193.3,805.6,193.3,812.5,197.8,812.5L197.8,812.5z"/>
			</g>
		</g>
		<g>
			<path class="st3" d="M203.3,827.4"/>
			<g>
				<path class="st3" d="M203.3,830.8c4.4,0,4.4-6.9,0-6.9C198.9,823.9,198.8,830.8,203.3,830.8L203.3,830.8z"/>
			</g>
		</g>
		<g>
			<path class="st3" d="M319.1,481.1"/>
			<g>
				<path class="st3" d="M319.1,484.6c4.4,0,4.4-6.9,0-6.9C314.6,477.7,314.6,484.6,319.1,484.6L319.1,484.6z"/>
			</g>
		</g>
		<g>
			<path class="st3" d="M305.8,479.4"/>
			<g>
				<path class="st3" d="M305.8,482.9c4.4,0,4.4-6.9,0-6.9C301.3,476,301.3,482.9,305.8,482.9L305.8,482.9z"/>
			</g>
		</g>
		<g>
			<path class="st3" d="M292.5,481.7"/>
			<g>
				<path class="st3" d="M292.5,485.1c4.4,0,4.4-6.9,0-6.9S288,485.1,292.5,485.1L292.5,485.1z"/>
			</g>
		</g>
		<g>
			<path class="st3" d="M275.9,487.2"/>
			<g>
				<path class="st3" d="M275.9,490.6c4.4,0,4.4-6.9,0-6.9C271.4,483.7,271.4,490.6,275.9,490.6L275.9,490.6z"/>
			</g>
		</g>
		<g>
			<path class="st3" d="M257,496.1"/>
			<g>
				<path class="st3" d="M257,499.5c4.4,0,4.4-6.9,0-6.9S252.6,499.5,257,499.5L257,499.5z"/>
			</g>
		</g>
		<g>
			<path class="st3" d="M240.4,505.5"/>
			<g>
				<path class="st3" d="M240.4,508.9c4.4,0,4.4-6.9,0-6.9S236,508.9,240.4,508.9L240.4,508.9z"/>
			</g>
		</g>
		<g>
			<path class="st3" d="M230.4,518.2"/>
			<g>
				<path class="st3" d="M230.4,521.7c4.4,0,4.4-6.9,0-6.9S226,521.7,230.4,521.7L230.4,521.7z"/>
			</g>
		</g>
		<g>
			<path class="st3" d="M219.4,529.9"/>
			<g>
				<path class="st3" d="M219.4,533.3c4.4,0,4.4-6.9,0-6.9C214.9,526.4,214.9,533.3,219.4,533.3L219.4,533.3z"/>
			</g>
		</g>
		<g>
			<path class="st3" d="M207.2,537.6"/>
			<g>
				<path class="st3" d="M207.2,541.1c4.4,0,4.4-6.9,0-6.9C202.7,534.2,202.7,541.1,207.2,541.1L207.2,541.1z"/>
			</g>
		</g>
		<g>
			<path class="st3" d="M199.4,553.7"/>
			<g>
				<path class="st3" d="M199.4,557.1c4.4,0,4.4-6.9,0-6.9C195,550.2,195,557.1,199.4,557.1L199.4,557.1z"/>
			</g>
		</g>
		<g>
			<path class="st3" d="M195,570.9"/>
			<g>
				<path class="st3" d="M195,574.3c4.4,0,4.4-6.9,0-6.9C190.5,567.4,190.5,574.3,195,574.3L195,574.3z"/>
			</g>
		</g>
		<g>
			<path class="st3" d="M216,549.2"/>
			<g>
				<path class="st3" d="M216,552.7c4.4,0,4.4-6.9,0-6.9S211.6,552.7,216,552.7L216,552.7z"/>
			</g>
		</g>
		<g>
			<path class="st3" d="M188.3,589.7"/>
			<g>
				<path class="st3" d="M188.3,593.1c4.4,0,4.4-6.9,0-6.9C183.9,586.2,183.9,593.1,188.3,593.1L188.3,593.1z"/>
			</g>
		</g>
		<g>
			<path class="st3" d="M184.5,611.8"/>
			<g>
				<path class="st3" d="M184.5,615.3c4.4,0,4.4-6.9,0-6.9C180,608.4,180,615.3,184.5,615.3L184.5,615.3z"/>
			</g>
		</g>
		<g>
			<path class="st3" d="M172.6,633.5"/>
			<g>
				<path class="st3" d="M172.6,636.9c4.4,0,4.4-6.9,0-6.9C168.1,630,168.1,636.9,172.6,636.9L172.6,636.9z"/>
			</g>
		</g>
		<g>
			<path class="st3" d="M182.2,656.2"/>
			<g>
				<path class="st3" d="M182.2,659.6c4.4,0,4.4-6.9,0-6.9C177.8,652.7,177.8,659.6,182.2,659.6L182.2,659.6z"/>
			</g>
		</g>
		<g>
			<path class="st3" d="M173.1,678.9"/>
			<g>
				<path class="st3" d="M173.1,682.3c4.4,0,4.4-6.9,0-6.9C168.7,675.4,168.7,682.3,173.1,682.3L173.1,682.3z"/>
			</g>
		</g>
		<g>
			<path class="st3" d="M185,699.4"/>
			<g>
				<path class="st3" d="M185,702.8c4.4,0,4.4-6.9,0-6.9C180.6,695.9,180.6,702.8,185,702.8L185,702.8z"/>
			</g>
		</g>
		<g>
			<path class="st3" d="M188.3,721"/>
			<g>
				<path class="st3" d="M188.3,724.4c4.4,0,4.4-6.9,0-6.9C183.9,717.5,183.9,724.4,188.3,724.4L188.3,724.4z"/>
			</g>
		</g>
		<g>
			<path class="st3" d="M192.2,745.4c0.6-0.6,0.6-0.6,0.6-1.1"/>
			<g>
				<path class="st3" d="M194.7,747.8c1-1,1.6-2.1,1.6-3.5c0-1.8-1.6-3.5-3.5-3.5c-1.9,0.1-3.4,1.5-3.4,3.5c0,0.1,0,0.2,0,0.3
					c0-0.3,0.1-0.6,0.1-0.9c0,0.1,0,0.1-0.1,0.2c0.1-0.3,0.2-0.5,0.3-0.8c0,0.1-0.1,0.1-0.1,0.1c0.2-0.2,0.4-0.5,0.5-0.7
					c-0.1,0.1-0.3,0.3-0.4,0.4c-1.3,1.3-1.4,3.6,0,4.9C191.1,749.1,193.3,749.2,194.7,747.8L194.7,747.8z"/>
			</g>
		</g>
		<g>
			<path class="st3" d="M199.4,767.5"/>
			<g>
				<path class="st3" d="M199.4,771c4.4,0,4.4-6.9,0-6.9S195,771,199.4,771L199.4,771z"/>
			</g>
		</g>
		<g>
			<path class="st3" d="M205,793.6"/>
			<g>
				<path class="st3" d="M205,797c4.4,0,4.4-6.9,0-6.9C200.5,790.1,200.5,797,205,797L205,797z"/>
			</g>
		</g>
		<g>
			<path class="st3" d="M212.7,812.4"/>
			<g>
				<path class="st3" d="M212.7,815.9c4.4,0,4.4-6.9,0-6.9S208.3,815.9,212.7,815.9L212.7,815.9z"/>
			</g>
		</g>
		<g>
			<path class="st3" d="M207.2,568.6"/>
			<g>
				<path class="st3" d="M207.2,572.1c4.4,0,4.4-6.9,0-6.9C202.7,565.2,202.7,572.1,207.2,572.1L207.2,572.1z"/>
			</g>
		</g>
		<g>
			<line class="st4" x1="202.7" y1="588.6" x2="202.7" y2="588"/>
			<g>
				<path class="st3" d="M206.2,588.6c0-0.2,0-0.4,0-0.6c0-1.8-1.6-3.5-3.4-3.5c-1.9,0.1-3.4,1.5-3.4,3.5c0,0.2,0,0.4,0,0.6
					c0,1.8,1.6,3.5,3.4,3.5C204.6,591.9,206.2,590.5,206.2,588.6L206.2,588.6z"/>
			</g>
		</g>
		<g>
			<path class="st3" d="M197.8,608"/>
			<g>
				<path class="st3" d="M197.8,611.4c4.4,0,4.4-6.9,0-6.9C193.3,604.5,193.3,611.4,197.8,611.4L197.8,611.4z"/>
			</g>
		</g>
		<g>
			<path class="st3" d="M196.1,627.9"/>
			<g>
				<path class="st3" d="M196.1,631.4c4.4,0,4.4-6.9,0-6.9C191.7,624.5,191.6,631.4,196.1,631.4L196.1,631.4z"/>
			</g>
		</g>
		<g>
			<path class="st3" d="M194.4,646.8"/>
			<g>
				<path class="st3" d="M194.4,650.2c4.4,0,4.4-6.9,0-6.9S190,650.2,194.4,650.2L194.4,650.2z"/>
			</g>
		</g>
		<g>
			<path class="st3" d="M195,668.9"/>
			<g>
				<path class="st3" d="M195,672.4c4.4,0,4.4-6.9,0-6.9C190.5,665.5,190.5,672.4,195,672.4L195,672.4z"/>
			</g>
		</g>
		<g>
			<path class="st3" d="M195,689.4"/>
			<g>
				<path class="st3" d="M195,692.9c4.4,0,4.4-6.9,0-6.9C190.5,686,190.5,692.9,195,692.9L195,692.9z"/>
			</g>
		</g>
		<g>
			<path class="st3" d="M200,711.6"/>
			<g>
				<path class="st3" d="M200,715c4.4,0,4.4-6.9,0-6.9C195.5,708.1,195.5,715,200,715L200,715z"/>
			</g>
		</g>
		<g>
			<path class="st3" d="M204.4,731.5"/>
			<g>
				<path class="st3" d="M204.4,735c4.4,0,4.4-6.9,0-6.9S200,735,204.4,735L204.4,735z"/>
			</g>
		</g>
		<g>
			<path class="st3" d="M207.7,752"/>
			<g>
				<path class="st3" d="M207.7,755.5c4.4,0,4.4-6.9,0-6.9S203.3,755.5,207.7,755.5L207.7,755.5z"/>
			</g>
		</g>
		<g>
			<path class="st3" d="M213.8,776.9"/>
			<g>
				<path class="st3" d="M213.8,780.4c4.4,0,4.4-6.9,0-6.9C209.4,773.5,209.4,780.4,213.8,780.4L213.8,780.4z"/>
			</g>
		</g>
		<g>
			<path class="st3" d="M219.4,799.1"/>
			<g>
				<path class="st3" d="M219.4,802.6c4.4,0,4.4-6.9,0-6.9C214.9,795.7,214.9,802.6,219.4,802.6L219.4,802.6z"/>
			</g>
		</g>
		<g>
			<path class="st3" d="M208.8,695.5"/>
			<g>
				<path class="st3" d="M208.8,699c4.4,0,4.4-6.9,0-6.9C204.4,692.1,204.4,699,208.8,699L208.8,699z"/>
			</g>
		</g>
		<g>
			<path class="st3" d="M214.9,718.8"/>
			<g>
				<path class="st3" d="M214.9,722.2c4.4,0,4.4-6.9,0-6.9S210.5,722.2,214.9,722.2L214.9,722.2z"/>
			</g>
		</g>
		<g>
			<path class="st3" d="M219.4,739.3"/>
			<g>
				<path class="st3" d="M219.4,742.7c4.4,0,4.4-6.9,0-6.9C214.9,735.8,214.9,742.7,219.4,742.7L219.4,742.7z"/>
			</g>
		</g>
		<g>
			<path class="st3" d="M223.8,759.8"/>
			<g>
				<path class="st3" d="M223.8,763.2c4.4,0,4.4-6.9,0-6.9C219.4,756.3,219.3,763.2,223.8,763.2L223.8,763.2z"/>
			</g>
		</g>
		<g>
			<path class="st3" d="M228.8,785.8"/>
			<g>
				<path class="st3" d="M228.8,789.3c4.4,0,4.4-6.9,0-6.9C224.3,782.4,224.3,789.3,228.8,789.3L228.8,789.3z"/>
			</g>
		</g>
		<g>
			<path class="st3" d="M233.8,804.1"/>
			<g>
				<path class="st3" d="M233.8,807.5c4.4,0,4.4-6.9,0-6.9C229.3,800.6,229.3,807.5,233.8,807.5L233.8,807.5z"/>
			</g>
		</g>
		<g>
			<path class="st3" d="M230.4,726"/>
			<g>
				<path class="st3" d="M230.4,729.4c4.4,0,4.4-6.9,0-6.9S226,729.4,230.4,729.4L230.4,729.4z"/>
			</g>
		</g>
		<g>
			<path class="st3" d="M234.9,745.9"/>
			<g>
				<path class="st3" d="M234.9,749.4c4.4,0,4.4-6.9,0-6.9C230.4,742.5,230.4,749.4,234.9,749.4L234.9,749.4z"/>
			</g>
		</g>
		<g>
			<path class="st3" d="M237.1,770.3"/>
			<g>
				<path class="st3" d="M237.1,773.7c4.4,0,4.4-6.9,0-6.9C232.6,766.8,232.6,773.7,237.1,773.7L237.1,773.7z"/>
			</g>
		</g>
		<g>
			<path class="st3" d="M242.6,793.6"/>
			<g>
				<path class="st3" d="M242.6,797c4.4,0,4.4-6.9,0-6.9C238.2,790.1,238.2,797,242.6,797L242.6,797z"/>
			</g>
		</g>
		<g>
			<path class="st3" d="M247.1,737.1"/>
			<g>
				<path class="st3" d="M247.1,740.5c4.4,0,4.4-6.9,0-6.9C242.6,733.6,242.6,740.5,247.1,740.5L247.1,740.5z"/>
			</g>
		</g>
		<g>
			<path class="st3" d="M249.3,759.2"/>
			<g>
				<path class="st3" d="M249.3,762.7c4.4,0,4.4-6.9,0-6.9C244.8,755.8,244.8,762.7,249.3,762.7L249.3,762.7z"/>
			</g>
		</g>
		<g>
			<path class="st3" d="M251.5,780.3"/>
			<g>
				<path class="st3" d="M251.5,783.7c4.4,0,4.4-6.9,0-6.9S247,783.7,251.5,783.7L251.5,783.7z"/>
			</g>
		</g>
		<g>
			<path class="st3" d="M256.5,796.9"/>
			<g>
				<path class="st3" d="M256.5,800.3c4.4,0,4.4-6.9,0-6.9C252,793.4,252,800.3,256.5,800.3L256.5,800.3z"/>
			</g>
		</g>
		<g>
			<path class="st3" d="M260.4,746.5"/>
			<g>
				<path class="st3" d="M260.4,749.9c4.4,0,4.4-6.9,0-6.9C255.9,743,255.9,749.9,260.4,749.9L260.4,749.9z"/>
			</g>
		</g>
		<g>
			<path class="st3" d="M262,766.4"/>
			<g>
				<path class="st3" d="M262,769.9c4.4,0,4.4-6.9,0-6.9S257.6,769.9,262,769.9L262,769.9z"/>
			</g>
		</g>
		<g>
			<path class="st3" d="M268.7,786.9"/>
			<g>
				<path class="st3" d="M268.7,790.4c4.4,0,4.4-6.9,0-6.9C264.2,783.5,264.2,790.4,268.7,790.4L268.7,790.4z"/>
			</g>
		</g>
		<g>
			<path class="st3" d="M273.7,757.6"/>
			<g>
				<path class="st3" d="M273.7,761c4.4,0,4.4-6.9,0-6.9C269.2,754.1,269.2,761,273.7,761L273.7,761z"/>
			</g>
		</g>
		<g>
			<path class="st3" d="M277.5,774.7"/>
			<g>
				<path class="st3" d="M277.5,778.2c4.4,0,4.4-6.9,0-6.9S273.1,778.2,277.5,778.2L277.5,778.2z"/>
			</g>
		</g>
		<g>
			<path class="st3" d="M280.3,796.9"/>
			<g>
				<path class="st3" d="M280.3,800.3c4.4,0,4.4-6.9,0-6.9C275.9,793.4,275.9,800.3,280.3,800.3L280.3,800.3z"/>
			</g>
		</g>
		<g>
			<path class="st3" d="M288.6,749.8"/>
			<g>
				<path class="st3" d="M288.6,753.2c4.4,0,4.4-6.9,0-6.9S284.2,753.2,288.6,753.2L288.6,753.2z"/>
			</g>
		</g>
		<g>
			<path class="st3" d="M287.5,765.3"/>
			<g>
				<path class="st3" d="M287.5,768.8c4.4,0,4.4-6.9,0-6.9C283.1,761.9,283.1,768.8,287.5,768.8L287.5,768.8z"/>
			</g>
		</g>
		<g>
			<path class="st3" d="M291.4,783"/>
			<g>
				<path class="st3" d="M291.4,786.5c4.4,0,4.4-6.9,0-6.9C286.9,779.6,286.9,786.5,291.4,786.5L291.4,786.5z"/>
			</g>
		</g>
		<g>
			<path class="st3" d="M302.5,793"/>
			<g>
				<path class="st3" d="M302.5,796.5c4.4,0,4.4-6.9,0-6.9C298,789.6,298,796.5,302.5,796.5L302.5,796.5z"/>
			</g>
		</g>
		<g>
			<path class="st3" d="M303,774.2"/>
			<g>
				<path class="st3" d="M303,777.6c4.4,0,4.4-6.9,0-6.9C298.6,770.7,298.6,777.6,303,777.6L303,777.6z"/>
			</g>
		</g>
		<g>
			<path class="st3" d="M304.1,756.4"/>
			<g>
				<path class="st3" d="M304.1,759.9c4.4,0,4.4-6.9,0-6.9S299.7,759.9,304.1,759.9L304.1,759.9z"/>
			</g>
		</g>
		<g>
			<path class="st3" d="M315.8,768.1"/>
			<g>
				<path class="st3" d="M315.8,771.5c4.4,0,4.4-6.9,0-6.9C311.3,764.6,311.3,771.5,315.8,771.5L315.8,771.5z"/>
			</g>
		</g>
		<g>
			<path class="st3" d="M315.8,786.9"/>
			<g>
				<path class="st3" d="M315.8,790.4c4.4,0,4.4-6.9,0-6.9C311.3,783.5,311.3,790.4,315.8,790.4L315.8,790.4z"/>
			</g>
		</g>
		<g>
			<path class="st3" d="M325.7,755.3"/>
			<g>
				<path class="st3" d="M325.7,758.8c4.4,0,4.4-6.9,0-6.9C321.3,751.9,321.3,758.8,325.7,758.8L325.7,758.8z"/>
			</g>
		</g>
		<g>
			<path class="st3" d="M327.9,776.9"/>
			<g>
				<path class="st3" d="M327.9,780.4c4.4,0,4.4-6.9,0-6.9S323.5,780.4,327.9,780.4L327.9,780.4z"/>
			</g>
		</g>
		<g>
			<path class="st3" d="M327.4,794.7"/>
			<g>
				<path class="st3" d="M327.4,798.1c4.4,0,4.4-6.9,0-6.9C323,791.2,322.9,798.1,327.4,798.1L327.4,798.1z"/>
			</g>
		</g>
		<g>
			<path class="st3" d="M335.7,767"/>
			<g>
				<path class="st3" d="M335.7,770.4c4.4,0,4.4-6.9,0-6.9C331.3,763.5,331.3,770.4,335.7,770.4L335.7,770.4z"/>
			</g>
		</g>
		<g>
			<path class="st3" d="M339,788.6"/>
			<g>
				<path class="st3" d="M339,792c4.4,0,4.4-6.9,0-6.9S334.6,792,339,792L339,792z"/>
			</g>
		</g>
		<g>
			<path class="st3" d="M346.8,753.7"/>
			<g>
				<path class="st3" d="M346.8,757.1c4.4,0,4.4-6.9,0-6.9C342.3,750.2,342.3,757.1,346.8,757.1L346.8,757.1z"/>
			</g>
		</g>
		<g>
			<path class="st3" d="M349,776.4"/>
			<g>
				<path class="st3" d="M349,779.8c4.4,0,4.4-6.9,0-6.9C344.6,772.9,344.6,779.8,349,779.8L349,779.8z"/>
			</g>
		</g>
		<g>
			<path class="st3" d="M352.3,793"/>
			<g>
				<path class="st3" d="M352.3,796.5c4.4,0,4.4-6.9,0-6.9S347.9,796.5,352.3,796.5L352.3,796.5z"/>
			</g>
		</g>
		<g>
			<path class="st3" d="M356.8,764.2"/>
			<g>
				<path class="st3" d="M356.8,767.7c4.4,0,4.4-6.9,0-6.9C352.3,760.8,352.3,767.7,356.8,767.7L356.8,767.7z"/>
			</g>
		</g>
		<g>
			<path class="st3" d="M361.7,781.9"/>
			<g>
				<path class="st3" d="M361.7,785.4c4.4,0,4.4-6.9,0-6.9C357.3,778.5,357.3,785.4,361.7,785.4L361.7,785.4z"/>
			</g>
		</g>
		<g>
			<path class="st3" d="M366.2,753.7"/>
			<g>
				<path class="st3" d="M366.2,757.1c4.4,0,4.4-6.9,0-6.9C361.7,750.2,361.7,757.1,366.2,757.1L366.2,757.1z"/>
			</g>
		</g>
		<g>
			<path class="st3" d="M371.2,771.4"/>
			<g>
				<path class="st3" d="M371.2,774.9c4.4,0,4.4-6.9,0-6.9C366.7,768,366.7,774.9,371.2,774.9L371.2,774.9z"/>
			</g>
		</g>
		<g>
			<path class="st3" d="M373.4,794.1"/>
			<g>
				<path class="st3" d="M373.4,797.6c4.4,0,4.4-6.9,0-6.9C368.9,790.7,368.9,797.6,373.4,797.6L373.4,797.6z"/>
			</g>
		</g>
		<g>
			<path class="st3" d="M381.1,755.9"/>
			<g>
				<path class="st3" d="M381.1,759.3c4.4,0,4.4-6.9,0-6.9C376.7,752.4,376.7,759.3,381.1,759.3L381.1,759.3z"/>
			</g>
		</g>
		<g>
			<path class="st3" d="M383.9,778.6"/>
			<g>
				<path class="st3" d="M383.9,782.1c4.4,0,4.4-6.9,0-6.9C379.5,775.2,379.5,782.1,383.9,782.1L383.9,782.1z"/>
			</g>
		</g>
		<g>
			<path class="st3" d="M393.4,766.7"/>
			<g>
				<path class="st3" d="M393.4,770.2c4.4,0,4.4-6.9,0-6.9C388.9,763.3,388.9,770.2,393.4,770.2L393.4,770.2z"/>
			</g>
		</g>
		<g>
			<path class="st3" d="M396.1,789.3"/>
			<g>
				<path class="st3" d="M396.1,792.8c4.4,0,4.4-6.9,0-6.9C391.6,785.9,391.6,792.8,396.1,792.8L396.1,792.8z"/>
			</g>
		</g>
		<g>
			<path class="st3" d="M398.7,748.3"/>
			<g>
				<path class="st3" d="M398.7,751.8c4.4,0,4.4-6.9,0-6.9C394.3,744.9,394.3,751.8,398.7,751.8L398.7,751.8z"/>
			</g>
		</g>
		<g>
			<path class="st3" d="M404.9,776.3"/>
			<g>
				<path class="st3" d="M404.9,779.7c4.4,0,4.4-6.9,0-6.9C400.4,772.8,400.4,779.7,404.9,779.7L404.9,779.7z"/>
			</g>
		</g>
		<g>
			<path class="st3" d="M409.1,799.3"/>
			<g>
				<path class="st3" d="M409.1,802.7c4.4,0,4.4-6.9,0-6.9S404.6,802.7,409.1,802.7L409.1,802.7z"/>
			</g>
		</g>
		<g>
			<path class="st3" d="M412.9,757.9"/>
			<g>
				<path class="st3" d="M412.9,761.3c4.4,0,4.4-6.9,0-6.9C408.5,754.4,408.5,761.3,412.9,761.3L412.9,761.3z"/>
			</g>
		</g>
		<g>
			<path class="st3" d="M417.1,786.3"/>
			<g>
				<path class="st3" d="M417.1,789.7c4.4,0,4.4-6.9,0-6.9S412.7,789.7,417.1,789.7L417.1,789.7z"/>
			</g>
		</g>
		<g>
			<path class="st3" d="M411.4,740.6"/>
			<g>
				<path class="st3" d="M411.4,744.1c4.4,0,4.4-6.9,0-6.9C407,737.2,406.9,744.1,411.4,744.1L411.4,744.1z"/>
			</g>
		</g>
		<g>
			<path class="st3" d="M426,746"/>
			<g>
				<path class="st3" d="M426,749.5c4.4,0,4.4-6.9,0-6.9C421.5,742.6,421.5,749.5,426,749.5L426,749.5z"/>
			</g>
		</g>
		<g>
			<path class="st3" d="M425.6,770.5"/>
			<g>
				<path class="st3" d="M425.6,774c4.4,0,4.4-6.9,0-6.9C421.1,767.1,421.1,774,425.6,774L425.6,774z"/>
			</g>
		</g>
		<g>
			<path class="st3" d="M427.5,799.7"/>
			<g>
				<path class="st3" d="M427.5,803.1c4.4,0,4.4-6.9,0-6.9C423.1,796.2,423,803.1,427.5,803.1L427.5,803.1z"/>
			</g>
		</g>
		<g>
			<path class="st3" d="M437.5,784.7"/>
			<g>
				<path class="st3" d="M437.5,788.2c4.4,0,4.4-6.9,0-6.9C433,781.3,433,788.2,437.5,788.2L437.5,788.2z"/>
			</g>
		</g>
		<g>
			<path class="st3" d="M439,758.3"/>
			<g>
				<path class="st3" d="M439,761.7c4.4,0,4.4-6.9,0-6.9S434.5,761.7,439,761.7L439,761.7z"/>
			</g>
		</g>
		<g>
			<path class="st3" d="M437.5,732.6"/>
			<g>
				<path class="st3" d="M437.5,736c4.4,0,4.4-6.9,0-6.9C433,729.1,433,736,437.5,736L437.5,736z"/>
			</g>
		</g>
		<g>
			<path class="st3" d="M445.9,717.3"/>
			<g>
				<path class="st3" d="M445.9,720.7c4.4,0,4.4-6.9,0-6.9S441.4,720.7,445.9,720.7L445.9,720.7z"/>
			</g>
		</g>
		<g>
			<path class="st3" d="M448.2,742.9"/>
			<g>
				<path class="st3" d="M448.2,746.4c4.4,0,4.4-6.9,0-6.9C443.8,739.5,443.7,746.4,448.2,746.4L448.2,746.4z"/>
			</g>
		</g>
		<g>
			<path class="st3" d="M449.7,772.5"/>
			<g>
				<path class="st3" d="M449.7,775.9c4.4,0,4.4-6.9,0-6.9C445.3,769,445.3,775.9,449.7,775.9L449.7,775.9z"/>
			</g>
		</g>
		<g>
			<path class="st3" d="M444,798.1"/>
			<g>
				<path class="st3" d="M444,801.6c4.4,0,4.4-6.9,0-6.9C439.5,794.7,439.5,801.6,444,801.6L444,801.6z"/>
			</g>
		</g>
		<g>
			<path class="st3" d="M454.7,810.4"/>
			<g>
				<path class="st3" d="M454.7,813.9c4.4,0,4.4-6.9,0-6.9C450.3,807,450.3,813.9,454.7,813.9L454.7,813.9z"/>
			</g>
		</g>
		<g>
			<path class="st3" d="M457,791.6c0.4,0,0.4,0,0.8-0.4"/>
			<g>
				<path class="st3" d="M457,795.1c1.3,0,2.3-0.5,3.2-1.4c1.3-1.3,1.4-3.6,0-4.9c-1.4-1.3-3.5-1.4-4.9,0c-0.1,0.1-0.2,0.2-0.3,0.3
					c0.2-0.2,0.5-0.4,0.7-0.5l-0.1,0.1c0.3-0.1,0.5-0.2,0.8-0.3c0,0,0,0-0.1,0c0.3,0,0.6-0.1,0.9-0.1c-0.1,0-0.2,0-0.3,0
					c-1.8,0-3.5,1.6-3.5,3.5C453.6,793.5,455.1,795.1,457,795.1L457,795.1z"/>
			</g>
		</g>
		<g>
			<path class="st3" d="M459.7,759"/>
			<g>
				<path class="st3" d="M459.7,762.5c4.4,0,4.4-6.9,0-6.9C455.3,755.6,455.2,762.5,459.7,762.5L459.7,762.5z"/>
			</g>
		</g>
		<g>
			<path class="st3" d="M459.7,728.4"/>
			<g>
				<path class="st3" d="M459.7,731.8c4.4,0,4.4-6.9,0-6.9C455.3,724.9,455.2,731.8,459.7,731.8L459.7,731.8z"/>
			</g>
		</g>
		<g>
			<path class="st3" d="M459.7,697.3"/>
			<g>
				<path class="st3" d="M459.7,700.8c4.4,0,4.4-6.9,0-6.9C455.3,693.9,455.2,700.8,459.7,700.8L459.7,700.8z"/>
			</g>
		</g>
		<g>
			<path class="st3" d="M458.2,828"/>
			<g>
				<path class="st3" d="M458.2,831.5c4.4,0,4.4-6.9,0-6.9C453.8,824.6,453.8,831.5,458.2,831.5L458.2,831.5z"/>
			</g>
		</g>
		<g>
			<path class="st3" d="M461.7,806.2"/>
			<g>
				<path class="st3" d="M461.7,809.6c4.4,0,4.4-6.9,0-6.9C457.2,802.7,457.2,809.6,461.7,809.6L461.7,809.6z"/>
			</g>
		</g>
		<g>
			<path class="st3" d="M461.7,779"/>
			<g>
				<path class="st3" d="M461.7,782.4c4.4,0,4.4-6.9,0-6.9C457.2,775.5,457.2,782.4,461.7,782.4L461.7,782.4z"/>
			</g>
		</g>
		<g>
			<path class="st3" d="M461.3,747.2"/>
			<g>
				<path class="st3" d="M461.3,750.6c4.4,0,4.4-6.9,0-6.9C456.8,743.7,456.8,750.6,461.3,750.6L461.3,750.6z"/>
			</g>
		</g>
		<g>
			<path class="st3" d="M461.7,714.6"/>
			<g>
				<path class="st3" d="M461.7,718c4.4,0,4.4-6.9,0-6.9C457.2,711.1,457.2,718,461.7,718L461.7,718z"/>
			</g>
		</g>
		<g>
			<path class="st3" d="M483.7,726.1"/>
			<g>
				<path class="st3" d="M483.7,729.6c4.4,0,4.4-6.9,0-6.9C479.3,722.7,479.2,729.6,483.7,729.6L483.7,729.6z"/>
			</g>
		</g>
		<g>
			<path class="st3" d="M462.4,685.4"/>
			<g>
				<path class="st3" d="M462.4,688.9c4.4,0,4.4-6.9,0-6.9S458,688.9,462.4,688.9L462.4,688.9z"/>
			</g>
		</g>
		<g>
			<path class="st3" d="M461.3,660.9"/>
			<g>
				<path class="st3" d="M461.3,664.4c4.4,0,4.4-6.9,0-6.9C456.8,657.5,456.8,664.4,461.3,664.4L461.3,664.4z"/>
			</g>
		</g>
		<g>
			<path class="st3" d="M472,674.3"/>
			<g>
				<path class="st3" d="M472,677.8c4.4,0,4.4-6.9,0-6.9C467.6,670.9,467.6,677.8,472,677.8L472,677.8z"/>
			</g>
		</g>
		<g>
			<path class="st3" d="M470.9,700.4"/>
			<g>
				<path class="st3" d="M470.9,703.8c4.4,0,4.4-6.9,0-6.9C466.4,696.9,466.4,703.8,470.9,703.8L470.9,703.8z"/>
			</g>
		</g>
		<g>
			<path class="st3" d="M470.5,731.8"/>
			<g>
				<path class="st3" d="M470.5,735.3c4.4,0,4.4-6.9,0-6.9C466,728.4,466,735.3,470.5,735.3L470.5,735.3z"/>
			</g>
		</g>
		<g>
			<path class="st3" d="M470.9,762.5"/>
			<g>
				<path class="st3" d="M470.9,765.9c4.4,0,4.4-6.9,0-6.9C466.4,759,466.4,765.9,470.9,765.9L470.9,765.9z"/>
			</g>
		</g>
		<g>
			<path class="st3" d="M469.7,791.6"/>
			<g>
				<path class="st3" d="M469.7,795.1c4.4,0,4.4-6.9,0-6.9C465.3,788.2,465.3,795.1,469.7,795.1L469.7,795.1z"/>
			</g>
		</g>
		<g>
			<path class="st3" d="M415.7,763.5"/>
			<g>
				<path class="st3" d="M415.7,766.9c4.4,0,4.4-6.9,0-6.9C411.2,760,411.2,766.9,415.7,766.9L415.7,766.9z"/>
			</g>
		</g>
		<g>
			<path class="st3" d="M419.9,733.2"/>
			<g>
				<path class="st3" d="M419.9,736.6c4.4,0,4.4-6.9,0-6.9C415.4,729.7,415.4,736.6,419.9,736.6L419.9,736.6z"/>
			</g>
		</g>
		<g>
			<path class="st3" d="M487.6,710.6"/>
			<g>
				<path class="st3" d="M487.6,714c4.4,0,4.4-6.9,0-6.9S483.2,714,487.6,714L487.6,714z"/>
			</g>
		</g>
		<g>
			<path class="st3" d="M490.3,684.1"/>
			<g>
				<path class="st3" d="M490.3,687.6c4.4,0,4.4-6.9,0-6.9C485.9,680.7,485.9,687.6,490.3,687.6L490.3,687.6z"/>
			</g>
		</g>
		<g>
			<path class="st3" d="M326.7,489.6c0.4,0.4,0.4,0.4,0.4,0.4"/>
			<g>
				<path class="st3" d="M324.2,492c0.1,0.1,0.3,0.3,0.4,0.4c1.3,1.3,3.6,1.4,4.9,0s1.4-3.5,0-4.9c-0.1-0.1-0.3-0.3-0.4-0.4
					c-1.3-1.3-3.6-1.4-4.9,0C323,488.5,322.9,490.6,324.2,492L324.2,492z"/>
			</g>
		</g>
		<g>
			<path class="st3" d="M334.3,499.5"/>
			<g>
				<path class="st3" d="M334.3,503c4.4,0,4.4-6.9,0-6.9S329.9,503,334.3,503L334.3,503z"/>
			</g>
		</g>
		<g>
			<path class="st3" d="M346.2,489.6"/>
			<g>
				<path class="st3" d="M346.2,493c4.4,0,4.4-6.9,0-6.9C341.8,486.1,341.8,493,346.2,493L346.2,493z"/>
			</g>
		</g>
		<g>
			<path class="st3" d="M361.9,485"/>
			<g>
				<path class="st3" d="M361.9,488.4c4.4,0,4.4-6.9,0-6.9S357.5,488.4,361.9,488.4L361.9,488.4z"/>
			</g>
		</g>
		<g>
			<path class="st3" d="M378,486.1"/>
			<g>
				<path class="st3" d="M378,489.6c4.4,0,4.4-6.9,0-6.9S373.6,489.6,378,489.6L378,489.6z"/>
			</g>
		</g>
		<g>
			<path class="st3" d="M398,490.3"/>
			<g>
				<path class="st3" d="M398,493.8c4.4,0,4.4-6.9,0-6.9C393.5,486.9,393.5,493.8,398,493.8L398,493.8z"/>
			</g>
		</g>
		<g>
			<path class="st3" d="M412.2,498.8"/>
			<g>
				<path class="st3" d="M412.2,502.2c4.4,0,4.4-6.9,0-6.9C407.7,495.3,407.7,502.2,412.2,502.2L412.2,502.2z"/>
			</g>
		</g>
		<g>
			<path class="st3" d="M428.3,511.4"/>
			<g>
				<path class="st3" d="M428.3,514.9c4.4,0,4.4-6.9,0-6.9C423.8,508,423.8,514.9,428.3,514.9L428.3,514.9z"/>
			</g>
		</g>
		<g>
			<path class="st3" d="M440.1,526.4"/>
			<g>
				<path class="st3" d="M440.1,529.8c4.4,0,4.4-6.9,0-6.9C435.7,522.9,435.7,529.8,440.1,529.8L440.1,529.8z"/>
			</g>
		</g>
		<g>
			<path class="st3" d="M449.3,540.5"/>
			<g>
				<path class="st3" d="M449.3,544c4.4,0,4.4-6.9,0-6.9S444.9,544,449.3,544L449.3,544z"/>
			</g>
		</g>
		<g>
			<path class="st3" d="M461.6,561.6"/>
			<g>
				<path class="st3" d="M461.6,565.1c4.4,0,4.4-6.9,0-6.9C457.2,558.2,457.2,565.1,461.6,565.1L461.6,565.1z"/>
			</g>
		</g>
		<g>
			<path class="st3" d="M460.5,587.3"/>
			<g>
				<path class="st3" d="M460.5,590.8c4.4,0,4.4-6.9,0-6.9C456.1,583.9,456.1,590.8,460.5,590.8L460.5,590.8z"/>
			</g>
		</g>
		<g>
			<path class="st3" d="M463.2,606.5"/>
			<g>
				<path class="st3" d="M463.2,609.9c4.4,0,4.4-6.9,0-6.9C458.8,603,458.7,609.9,463.2,609.9L463.2,609.9z"/>
			</g>
		</g>
		<g>
			<path class="st3" d="M464.7,634.1"/>
			<g>
				<path class="st3" d="M464.7,637.5c4.4,0,4.4-6.9,0-6.9C460.3,630.6,460.3,637.5,464.7,637.5L464.7,637.5z"/>
			</g>
		</g>
		<g>
			<path class="st3" d="M478.4,674.5"/>
			<g>
				<path class="st3" d="M478.4,678c4.4,0,4.4-6.9,0-6.9S474,678,478.4,678L478.4,678z"/>
			</g>
		</g>
		<g>
			<path class="st3" d="M478.4,645.4"/>
			<g>
				<path class="st3" d="M478.4,648.9c4.4,0,4.4-6.9,0-6.9S474,648.9,478.4,648.9L478.4,648.9z"/>
			</g>
		</g>
		<g>
			<path class="st3" d="M477.7,619.7"/>
			<g>
				<path class="st3" d="M477.7,623.2c4.4,0,4.4-6.9,0-6.9C473.2,616.3,473.2,623.2,477.7,623.2L477.7,623.2z"/>
			</g>
		</g>
		<g>
			<path class="st3" d="M469.3,572.4"/>
			<g>
				<path class="st3" d="M469.3,575.8c4.4,0,4.4-6.9,0-6.9C464.9,568.9,464.9,575.8,469.3,575.8L469.3,575.8z"/>
			</g>
		</g>
		<g>
			<path class="st3" d="M458.2,545.9"/>
			<g>
				<path class="st3" d="M458.2,549.4c4.4,0,4.4-6.9,0-6.9C453.8,542.5,453.8,549.4,458.2,549.4L458.2,549.4z"/>
			</g>
		</g>
		<g>
			<path class="st3" d="M457,528.3"/>
			<g>
				<path class="st3" d="M457,531.7c4.4,0,4.4-6.9,0-6.9S452.6,531.7,457,531.7L457,531.7z"/>
			</g>
		</g>
		<g>
			<path class="st3" d="M460.9,532.1"/>
			<g>
				<path class="st3" d="M460.9,535.6c4.4,0,4.4-6.9,0-6.9C456.5,528.7,456.4,535.6,460.9,535.6L460.9,535.6z"/>
			</g>
		</g>
		<g>
			<path class="st3" d="M471.2,556.6"/>
			<g>
				<path class="st3" d="M471.2,560.1c4.4,0,4.4-6.9,0-6.9C466.8,553.2,466.8,560.1,471.2,560.1L471.2,560.1z"/>
			</g>
		</g>
		<g>
			<path class="st3" d="M483.8,604.8"/>
			<g>
				<path class="st3" d="M483.8,608.2c4.4,0,4.4-6.9,0-6.9S479.4,608.2,483.8,608.2L483.8,608.2z"/>
			</g>
		</g>
		<g>
			<path class="st3" d="M488.8,633.5"/>
			<g>
				<path class="st3" d="M488.8,637c4.4,0,4.4-6.9,0-6.9C484.3,630.1,484.3,637,488.8,637L488.8,637z"/>
			</g>
		</g>
		<g>
			<path class="st3" d="M488.8,659.6"/>
			<g>
				<path class="st3" d="M488.8,663c4.4,0,4.4-6.9,0-6.9C484.3,656.1,484.3,663,488.8,663L488.8,663z"/>
			</g>
		</g>
		<g>
			<path class="st3" d="M337,482.3"/>
			<g>
				<path class="st3" d="M337,485.7c4.4,0,4.4-6.9,0-6.9C332.6,478.8,332.6,485.7,337,485.7L337,485.7z"/>
			</g>
		</g>
		<g>
			<path class="st3" d="M350.1,475"/>
			<g>
				<path class="st3" d="M350.1,478.4c4.4,0,4.4-6.9,0-6.9C345.6,471.5,345.6,478.4,350.1,478.4L350.1,478.4z"/>
			</g>
		</g>
		<g>
			<path class="st3" d="M370,473.5"/>
			<g>
				<path class="st3" d="M370,476.9c4.4,0,4.4-6.9,0-6.9S365.5,476.9,370,476.9L370,476.9z"/>
			</g>
		</g>
		<g>
			<path class="st3" d="M383.4,471.5"/>
			<g>
				<path class="st3" d="M383.4,475c4.4,0,4.4-6.9,0-6.9S379,475,383.4,475L383.4,475z"/>
			</g>
		</g>
		<g>
			<path class="st3" d="M360,465.8"/>
			<g>
				<path class="st3" d="M360,469.2c4.4,0,4.4-6.9,0-6.9C355.6,462.3,355.6,469.2,360,469.2L360,469.2z"/>
			</g>
		</g>
		<g>
			<path class="st3" d="M341.6,465.4"/>
			<g>
				<path class="st3" d="M341.6,468.9c4.4,0,4.4-6.9,0-6.9S337.2,468.9,341.6,468.9L341.6,468.9z"/>
			</g>
		</g>
		<g>
			<path class="st3" d="M170.5,45.9"/>
			<g>
				<path class="st3" d="M170.5,49.4c4.4,0,4.4-6.9,0-6.9S166,49.4,170.5,49.4L170.5,49.4z"/>
			</g>
		</g>
		<g>
			<path class="st3" d="M155.9,55.2"/>
			<g>
				<path class="st3" d="M155.9,58.7c4.4,0,4.4-6.9,0-6.9S151.5,58.7,155.9,58.7L155.9,58.7z"/>
			</g>
		</g>
		<g>
			<path class="st3" d="M178.5,59.9"/>
			<g>
				<path class="st3" d="M178.5,63.3c4.4,0,4.4-6.9,0-6.9C174,56.4,174,63.3,178.5,63.3L178.5,63.3z"/>
			</g>
		</g>
		<g>
			<path class="st3" d="M147.3,72.5"/>
			<g>
				<path class="st3" d="M147.3,75.9c4.4,0,4.4-6.9,0-6.9C142.8,69,142.8,75.9,147.3,75.9L147.3,75.9z"/>
			</g>
		</g>
		<g>
			<path class="st3" d="M166.5,69.8"/>
			<g>
				<path class="st3" d="M166.5,73.3c4.4,0,4.4-6.9,0-6.9S162.1,73.3,166.5,73.3L166.5,73.3z"/>
			</g>
		</g>
		<g>
			<path class="st3" d="M179.1,81.1"/>
			<g>
				<path class="st3" d="M179.1,84.5c4.4,0,4.4-6.9,0-6.9C174.7,77.6,174.7,84.5,179.1,84.5L179.1,84.5z"/>
			</g>
		</g>
		<g>
			<path class="st3" d="M153.3,87.7"/>
			<g>
				<path class="st3" d="M153.3,91.2c4.4,0,4.4-6.9,0-6.9C148.8,84.3,148.8,91.2,153.3,91.2L153.3,91.2z"/>
			</g>
		</g>
		<g>
			<path class="st3" d="M167.8,91.7"/>
			<g>
				<path class="st3" d="M167.8,95.1c4.4,0,4.4-6.9,0-6.9C163.4,88.2,163.4,95.1,167.8,95.1L167.8,95.1z"/>
			</g>
		</g>
		<g>
			<path class="st3" d="M142,104.3"/>
			<g>
				<path class="st3" d="M142,107.7c4.4,0,4.4-6.9,0-6.9C137.5,100.8,137.5,107.7,142,107.7L142,107.7z"/>
			</g>
		</g>
		<g>
			<path class="st3" d="M156.6,103.6"/>
			<g>
				<path class="st3" d="M156.6,107.1c4.4,0,4.4-6.9,0-6.9C152.1,100.2,152.1,107.1,156.6,107.1L156.6,107.1z"/>
			</g>
		</g>
		<g>
			<path class="st3" d="M171.2,109.6"/>
			<g>
				<path class="st3" d="M171.2,113c4.4,0,4.4-6.9,0-6.9C166.7,106.1,166.7,113,171.2,113L171.2,113z"/>
			</g>
		</g>
		<g>
			<path class="st3" d="M149.3,117.6"/>
			<g>
				<path class="st3" d="M149.3,121c4.4,0,4.4-6.9,0-6.9C144.8,114.1,144.8,121,149.3,121L149.3,121z"/>
			</g>
		</g>
		<g>
			<path class="st3" d="M159.9,120.9"/>
			<g>
				<path class="st3" d="M159.9,124.3c4.4,0,4.4-6.9,0-6.9C155.4,117.4,155.4,124.3,159.9,124.3L159.9,124.3z"/>
			</g>
		</g>
		<g>
			<path class="st3" d="M136.7,128.8"/>
			<g>
				<path class="st3" d="M136.7,132.3c4.4,0,4.4-6.9,0-6.9C132.2,125.4,132.2,132.3,136.7,132.3L136.7,132.3z"/>
			</g>
		</g>
		<g>
			<path class="st3" d="M147.9,136.1"/>
			<g>
				<path class="st3" d="M147.9,139.6c4.4,0,4.4-6.9,0-6.9C143.5,132.7,143.5,139.6,147.9,139.6L147.9,139.6z"/>
			</g>
		</g>
		<g>
			<path class="st3" d="M164.5,136.1"/>
			<g>
				<path class="st3" d="M164.5,139.6c4.4,0,4.4-6.9,0-6.9C160.1,132.7,160.1,139.6,164.5,139.6L164.5,139.6z"/>
			</g>
		</g>
		<g>
			<path class="st3" d="M136.7,148.1"/>
			<g>
				<path class="st3" d="M136.7,151.5c4.4,0,4.4-6.9,0-6.9C132.2,144.6,132.2,151.5,136.7,151.5L136.7,151.5z"/>
			</g>
		</g>
		<g>
			<path class="st3" d="M155.9,150.7"/>
			<g>
				<path class="st3" d="M155.9,154.2c4.4,0,4.4-6.9,0-6.9S151.5,154.2,155.9,154.2L155.9,154.2z"/>
			</g>
		</g>
		<g>
			<path class="st3" d="M127.4,166.6"/>
			<g>
				<path class="st3" d="M127.4,170.1c4.4,0,4.4-6.9,0-6.9C123,163.2,122.9,170.1,127.4,170.1L127.4,170.1z"/>
			</g>
		</g>
		<g>
			<path class="st3" d="M144,163.3"/>
			<g>
				<path class="st3" d="M144,166.8c4.4,0,4.4-6.9,0-6.9C139.5,159.9,139.5,166.8,144,166.8L144,166.8z"/>
			</g>
		</g>
		<g>
			<path class="st3" d="M155.9,171.9"/>
			<g>
				<path class="st3" d="M155.9,175.4c4.4,0,4.4-6.9,0-6.9S151.5,175.4,155.9,175.4L155.9,175.4z"/>
			</g>
		</g>
		<g>
			<path class="st3" d="M138.7,180.5"/>
			<g>
				<path class="st3" d="M138.7,184c4.4,0,4.4-6.9,0-6.9C134.2,177.1,134.2,184,138.7,184L138.7,184z"/>
			</g>
		</g>
		<g>
			<path class="st3" d="M124.7,189.8"/>
			<g>
				<path class="st3" d="M124.7,193.3c4.4,0,4.4-6.9,0-6.9C120.3,186.4,120.3,193.3,124.7,193.3L124.7,193.3z"/>
			</g>
		</g>
		<g>
			<path class="st3" d="M149.3,193.1"/>
			<g>
				<path class="st3" d="M149.3,196.6c4.4,0,4.4-6.9,0-6.9C144.8,189.7,144.8,196.6,149.3,196.6L149.3,196.6z"/>
			</g>
		</g>
		<g>
			<path class="st3" d="M136.7,201.8"/>
			<g>
				<path class="st3" d="M136.7,205.2c4.4,0,4.4-6.9,0-6.9C132.2,198.3,132.2,205.2,136.7,205.2L136.7,205.2z"/>
			</g>
		</g>
		<g>
			<path class="st3" d="M122.7,217"/>
			<g>
				<path class="st3" d="M122.7,220.5c4.4,0,4.4-6.9,0-6.9C118.3,213.6,118.3,220.5,122.7,220.5L122.7,220.5z"/>
			</g>
		</g>
		<g>
			<path class="st3" d="M142,219"/>
			<g>
				<path class="st3" d="M142,222.5c4.4,0,4.4-6.9,0-6.9C137.5,215.6,137.5,222.5,142,222.5L142,222.5z"/>
			</g>
		</g>
		<g>
			<path class="st3" d="M131.4,231.6"/>
			<g>
				<path class="st3" d="M131.4,235.1c4.4,0,4.4-6.9,0-6.9C126.9,228.2,126.9,235.1,131.4,235.1L131.4,235.1z"/>
			</g>
		</g>
		<g>
			<path class="st3" d="M118.8,242.9"/>
			<g>
				<path class="st3" d="M118.8,246.3c4.4,0,4.4-6.9,0-6.9C114.3,239.4,114.3,246.3,118.8,246.3L118.8,246.3z"/>
			</g>
		</g>
		<g>
			<path class="st3" d="M137.3,246.9"/>
			<g>
				<path class="st3" d="M137.3,250.3c4.4,0,4.4-6.9,0-6.9C132.9,243.4,132.9,250.3,137.3,250.3L137.3,250.3z"/>
			</g>
		</g>
		<g>
			<path class="st3" d="M124.1,258.1"/>
			<g>
				<path class="st3" d="M124.1,261.6c4.4,0,4.4-6.9,0-6.9C119.6,254.7,119.6,261.6,124.1,261.6L124.1,261.6z"/>
			</g>
		</g>
		<g>
			<path class="st3" d="M116.1,274.7"/>
			<g>
				<path class="st3" d="M116.1,278.2c4.4,0,4.4-6.9,0-6.9C111.7,271.3,111.7,278.2,116.1,278.2L116.1,278.2z"/>
			</g>
		</g>
		<g>
			<path class="st3" d="M130.7,276"/>
			<g>
				<path class="st3" d="M130.7,279.5c4.4,0,4.4-6.9,0-6.9S126.3,279.5,130.7,279.5L130.7,279.5z"/>
			</g>
		</g>
		<g>
			<path class="st3" d="M122.7,291.3"/>
			<g>
				<path class="st3" d="M122.7,294.7c4.4,0,4.4-6.9,0-6.9C118.3,287.8,118.3,294.7,122.7,294.7L122.7,294.7z"/>
			</g>
		</g>
		<g>
			<path class="st3" d="M112.8,303.2"/>
			<g>
				<path class="st3" d="M112.8,306.7c4.4,0,4.4-6.9,0-6.9C108.4,299.8,108.4,306.7,112.8,306.7L112.8,306.7z"/>
			</g>
		</g>
		<g>
			<path class="st3" d="M124.7,309.2"/>
			<g>
				<path class="st3" d="M124.7,312.6c4.4,0,4.4-6.9,0-6.9S120.3,312.6,124.7,312.6L124.7,312.6z"/>
			</g>
		</g>
		<g>
			<path class="st3" d="M114.1,324.4"/>
			<g>
				<path class="st3" d="M114.1,327.9c4.4,0,4.4-6.9,0-6.9S109.7,327.9,114.1,327.9L114.1,327.9z"/>
			</g>
		</g>
		<g>
			<path class="st3" d="M107.5,341"/>
			<g>
				<path class="st3" d="M107.5,344.5c4.4,0,4.4-6.9,0-6.9S103,344.5,107.5,344.5L107.5,344.5z"/>
			</g>
		</g>
		<g>
			<path class="st3" d="M123.4,335.7"/>
			<g>
				<path class="st3" d="M123.4,339.2c4.4,0,4.4-6.9,0-6.9C119,332.3,119,339.2,123.4,339.2L123.4,339.2z"/>
			</g>
		</g>
		<g>
			<path class="st3" d="M115.5,353"/>
			<g>
				<path class="st3" d="M115.5,356.4c4.4,0,4.4-6.9,0-6.9C111,349.5,111,356.4,115.5,356.4L115.5,356.4z"/>
			</g>
		</g>
		<g>
			<path class="st3" d="M107.5,369.5"/>
			<g>
				<path class="st3" d="M107.5,373c4.4,0,4.4-6.9,0-6.9S103,373,107.5,373L107.5,373z"/>
			</g>
		</g>
		<g>
			<path class="st3" d="M118.1,372.2"/>
			<g>
				<path class="st3" d="M118.1,375.6c4.4,0,4.4-6.9,0-6.9S113.7,375.6,118.1,375.6L118.1,375.6z"/>
			</g>
		</g>
		<g>
			<path class="st3" d="M112.8,386.8"/>
			<g>
				<path class="st3" d="M112.8,390.2c4.4,0,4.4-6.9,0-6.9C108.4,383.3,108.4,390.2,112.8,390.2L112.8,390.2z"/>
			</g>
		</g>
		<g>
			<path class="st3" d="M108.8,402.7"/>
			<g>
				<path class="st3" d="M108.8,406.1c4.4,0,4.4-6.9,0-6.9S104.4,406.1,108.8,406.1L108.8,406.1z"/>
			</g>
		</g>
		<g>
			<path class="st3" d="M116.1,410.7"/>
			<g>
				<path class="st3" d="M116.1,414.1c4.4,0,4.4-6.9,0-6.9S111.7,414.1,116.1,414.1L116.1,414.1z"/>
			</g>
		</g>
		<g>
			<path class="st3" d="M111.5,427.2"/>
			<g>
				<path class="st3" d="M111.5,430.7c4.4,0,4.4-6.9,0-6.9C107,423.8,107,430.7,111.5,430.7L111.5,430.7z"/>
			</g>
		</g>
		<g>
			<path class="st3" d="M114.8,444.5"/>
			<g>
				<path class="st3" d="M114.8,447.9c4.4,0,4.4-6.9,0-6.9S110.3,447.9,114.8,447.9L114.8,447.9z"/>
			</g>
		</g>
		<g>
			<path class="st3" d="M115.5,463"/>
			<g>
				<path class="st3" d="M115.5,466.5c4.4,0,4.4-6.9,0-6.9C111,459.6,111,466.5,115.5,466.5L115.5,466.5z"/>
			</g>
		</g>
		<g>
			<path class="st3" d="M116.8,480.3"/>
			<g>
				<path class="st3" d="M116.8,483.7c4.4,0,4.4-6.9,0-6.9C112.3,476.8,112.3,483.7,116.8,483.7L116.8,483.7z"/>
			</g>
		</g>
		<g>
			<path class="st3" d="M119.4,498.9"/>
			<g>
				<path class="st3" d="M119.4,502.3c4.4,0,4.4-6.9,0-6.9S115,502.3,119.4,502.3L119.4,502.3z"/>
			</g>
		</g>
		<g>
			<path class="st3" d="M124.7,521.4"/>
			<g>
				<path class="st3" d="M124.7,524.8c4.4,0,4.4-6.9,0-6.9C120.3,517.9,120.3,524.8,124.7,524.8L124.7,524.8z"/>
			</g>
		</g>
		<g>
			<path class="st3" d="M133.4,538.6"/>
			<g>
				<path class="st3" d="M133.4,542.1c4.4,0,4.4-6.9,0-6.9C128.9,535.2,128.9,542.1,133.4,542.1L133.4,542.1z"/>
			</g>
		</g>
		<g>
			<path class="st3" d="M140.7,554.6"/>
			<g>
				<path class="st3" d="M140.7,558c4.4,0,4.4-6.9,0-6.9C136.2,551.1,136.2,558,140.7,558L140.7,558z"/>
			</g>
		</g>
		<g>
			<path class="st3" d="M147.9,567.8"/>
			<g>
				<path class="st3" d="M147.9,571.3c4.4,0,4.4-6.9,0-6.9C143.5,564.4,143.5,571.3,147.9,571.3L147.9,571.3z"/>
			</g>
		</g>
		<g>
			<path class="st3" d="M157.9,561.8"/>
			<g>
				<path class="st3" d="M157.9,565.3c4.4,0,4.4-6.9,0-6.9C153.5,558.4,153.4,565.3,157.9,565.3L157.9,565.3z"/>
			</g>
		</g>
		<g>
			<path class="st3" d="M157.9,575.1"/>
			<g>
				<path class="st3" d="M157.9,578.6c4.4,0,4.4-6.9,0-6.9C153.5,571.7,153.4,578.6,157.9,578.6L157.9,578.6z"/>
			</g>
		</g>
		<g>
			<path class="st3" d="M459.4,45.6"/>
			<g>
				<path class="st3" d="M459.4,49.1c4.4,0,4.4-6.9,0-6.9C454.9,42.2,454.9,49.1,459.4,49.1L459.4,49.1z"/>
			</g>
		</g>
		<g>
			<path class="st3" d="M474.4,54.3"/>
			<g>
				<path class="st3" d="M474.4,57.7c4.4,0,4.4-6.9,0-6.9C469.9,50.8,469.9,57.7,474.4,57.7L474.4,57.7z"/>
			</g>
		</g>
		<g>
			<path class="st3" d="M452,59.9"/>
			<g>
				<path class="st3" d="M452,63.3c4.4,0,4.4-6.9,0-6.9C447.6,56.4,447.6,63.3,452,63.3L452,63.3z"/>
			</g>
		</g>
		<g>
			<path class="st3" d="M483.7,71.2"/>
			<g>
				<path class="st3" d="M483.7,74.6c4.4,0,4.4-6.9,0-6.9C479.3,67.7,479.3,74.6,483.7,74.6L483.7,74.6z"/>
			</g>
		</g>
		<g>
			<path class="st3" d="M464.4,69.3"/>
			<g>
				<path class="st3" d="M464.4,72.8c4.4,0,4.4-6.9,0-6.9C459.9,65.9,459.9,72.8,464.4,72.8L464.4,72.8z"/>
			</g>
		</g>
		<g>
			<path class="st3" d="M452.3,81.1"/>
			<g>
				<path class="st3" d="M452.3,84.6c4.4,0,4.4-6.9,0-6.9C447.8,77.7,447.8,84.6,452.3,84.6L452.3,84.6z"/>
			</g>
		</g>
		<g>
			<path class="st3" d="M478.4,86.6"/>
			<g>
				<path class="st3" d="M478.4,90.1c4.4,0,4.4-6.9,0-6.9S473.9,90.1,478.4,90.1L478.4,90.1z"/>
			</g>
		</g>
		<g>
			<path class="st3" d="M464,91.2"/>
			<g>
				<path class="st3" d="M464,94.7c4.4,0,4.4-6.9,0-6.9C459.5,87.8,459.5,94.7,464,94.7L464,94.7z"/>
			</g>
		</g>
		<g>
			<path class="st3" d="M490.4,102.7"/>
			<g>
				<path class="st3" d="M490.4,106.2c4.4,0,4.4-6.9,0-6.9C485.9,99.3,485.9,106.2,490.4,106.2L490.4,106.2z"/>
			</g>
		</g>
		<g>
			<path class="st3" d="M475.8,102.7"/>
			<g>
				<path class="st3" d="M475.8,106.1c4.4,0,4.4-6.9,0-6.9C471.3,99.2,471.3,106.1,475.8,106.1L475.8,106.1z"/>
			</g>
		</g>
		<g>
			<path class="st3" d="M461.4,109.3"/>
			<g>
				<path class="st3" d="M461.4,112.7c4.4,0,4.4-6.9,0-6.9C457,105.8,457,112.7,461.4,112.7L461.4,112.7z"/>
			</g>
		</g>
		<g>
			<path class="st3" d="M483.6,116.3"/>
			<g>
				<path class="st3" d="M483.6,119.7c4.4,0,4.4-6.9,0-6.9C479.2,112.8,479.2,119.7,483.6,119.7L483.6,119.7z"/>
			</g>
		</g>
		<g>
			<path class="st3" d="M496.7,127"/>
			<g>
				<path class="st3" d="M496.7,130.5c4.4,0,4.4-6.9,0-6.9C492.3,123.6,492.3,130.5,496.7,130.5L496.7,130.5z"/>
			</g>
		</g>
		<g>
			<path class="st3" d="M485.8,134.8"/>
			<g>
				<path class="st3" d="M485.8,138.2c4.4,0,4.4-6.9,0-6.9C481.3,131.3,481.3,138.2,485.8,138.2L485.8,138.2z"/>
			</g>
		</g>
		<g>
			<path class="st3" d="M469.2,135.5"/>
			<g>
				<path class="st3" d="M469.2,138.9c4.4,0,4.4-6.9,0-6.9C464.8,132,464.8,138.9,469.2,138.9L469.2,138.9z"/>
			</g>
		</g>
		<g>
			<path class="st3" d="M497.5,146.2"/>
			<g>
				<path class="st3" d="M497.5,149.7c4.4,0,4.4-6.9,0-6.9S493.1,149.7,497.5,149.7L497.5,149.7z"/>
			</g>
		</g>
		<g>
			<path class="st3" d="M478.4,149.7"/>
			<g>
				<path class="st3" d="M478.4,153.1c4.4,0,4.4-6.9,0-6.9C474,146.2,474,153.1,478.4,153.1L478.4,153.1z"/>
			</g>
		</g>
		<g>
			<path class="st3" d="M507.6,164.4"/>
			<g>
				<path class="st3" d="M507.6,167.8c4.4,0,4.4-6.9,0-6.9C503.2,160.9,503.2,167.8,507.6,167.8L507.6,167.8z"/>
			</g>
		</g>
		<g>
			<path class="st3" d="M490.9,161.8"/>
			<g>
				<path class="st3" d="M490.9,165.2c4.4,0,4.4-6.9,0-6.9S486.5,165.2,490.9,165.2L490.9,165.2z"/>
			</g>
		</g>
		<g>
			<path class="st3" d="M479.3,170.9"/>
			<g>
				<path class="st3" d="M479.3,174.3c4.4,0,4.4-6.9,0-6.9C474.9,167.4,474.9,174.3,479.3,174.3L479.3,174.3z"/>
			</g>
		</g>
		<g>
			<path class="st3" d="M496.9,178.8"/>
			<g>
				<path class="st3" d="M496.9,182.2c4.4,0,4.4-6.9,0-6.9S492.5,182.2,496.9,182.2L496.9,182.2z"/>
			</g>
		</g>
		<g>
			<path class="st3" d="M511.2,187.5"/>
			<g>
				<path class="st3" d="M511.2,190.9c4.4,0,4.4-6.9,0-6.9S506.8,190.9,511.2,190.9L511.2,190.9z"/>
			</g>
		</g>
		<g>
			<path class="st3" d="M486.9,191.8"/>
			<g>
				<path class="st3" d="M486.9,195.3c4.4,0,4.4-6.9,0-6.9C482.4,188.4,482.4,195.3,486.9,195.3L486.9,195.3z"/>
			</g>
		</g>
		<g>
			<path class="st3" d="M499.8,199.9"/>
			<g>
				<path class="st3" d="M499.8,203.3c4.4,0,4.4-6.9,0-6.9C495.4,196.4,495.4,203.3,499.8,203.3L499.8,203.3z"/>
			</g>
		</g>
		<g>
			<path class="st3" d="M514.4,214.5"/>
			<g>
				<path class="st3" d="M514.4,218c4.4,0,4.4-6.9,0-6.9S509.9,218,514.4,218L514.4,218z"/>
			</g>
		</g>
		<g>
			<path class="st3" d="M495.3,217.3"/>
			<g>
				<path class="st3" d="M495.3,220.8c4.4,0,4.4-6.9,0-6.9C490.8,213.9,490.8,220.8,495.3,220.8L495.3,220.8z"/>
			</g>
		</g>
		<g>
			<path class="st3" d="M506.4,229.5"/>
			<g>
				<path class="st3" d="M506.4,232.9c4.4,0,4.4-6.9,0-6.9S502,232.9,506.4,232.9L506.4,232.9z"/>
			</g>
		</g>
		<g>
			<path class="st3" d="M519.5,240.2"/>
			<g>
				<path class="st3" d="M519.5,243.7c4.4,0,4.4-6.9,0-6.9C515,236.8,515,243.7,519.5,243.7L519.5,243.7z"/>
			</g>
		</g>
		<g>
			<path class="st3" d="M501.1,245"/>
			<g>
				<path class="st3" d="M501.1,248.4c4.4,0,4.4-6.9,0-6.9S496.6,248.4,501.1,248.4L501.1,248.4z"/>
			</g>
		</g>
		<g>
			<path class="st3" d="M514.8,255.7"/>
			<g>
				<path class="st3" d="M514.8,259.1c4.4,0,4.4-6.9,0-6.9C510.4,252.2,510.4,259.1,514.8,259.1L514.8,259.1z"/>
			</g>
		</g>
		<g>
			<path class="st3" d="M523.5,271.9"/>
			<g>
				<path class="st3" d="M523.5,275.3c4.4,0,4.4-6.9,0-6.9C519,268.4,519,275.3,523.5,275.3L523.5,275.3z"/>
			</g>
		</g>
		<g>
			<path class="st3" d="M509,273.8"/>
			<g>
				<path class="st3" d="M509,277.3c4.4,0,4.4-6.9,0-6.9C504.5,270.4,504.5,277.3,509,277.3L509,277.3z"/>
			</g>
		</g>
		<g>
			<path class="st3" d="M517.6,288.7"/>
			<g>
				<path class="st3" d="M517.6,292.2c4.4,0,4.4-6.9,0-6.9C513.1,285.3,513.1,292.2,517.6,292.2L517.6,292.2z"/>
			</g>
		</g>
		<g>
			<path class="st3" d="M528,300.2"/>
			<g>
				<path class="st3" d="M528,303.7c4.4,0,4.4-6.9,0-6.9C523.6,296.8,523.6,303.7,528,303.7L528,303.7z"/>
			</g>
		</g>
		<g>
			<path class="st3" d="M516.3,306.7"/>
			<g>
				<path class="st3" d="M516.3,310.2c4.4,0,4.4-6.9,0-6.9C511.9,303.3,511.9,310.2,516.3,310.2L516.3,310.2z"/>
			</g>
		</g>
		<g>
			<path class="st3" d="M527.6,321.5"/>
			<g>
				<path class="st3" d="M527.6,324.9c4.4,0,4.4-6.9,0-6.9C523.2,318,523.2,324.9,527.6,324.9L527.6,324.9z"/>
			</g>
		</g>
		<g>
			<path class="st3" d="M534.9,337.8"/>
			<g>
				<path class="st3" d="M534.9,341.2c4.4,0,4.4-6.9,0-6.9C530.5,334.3,530.5,341.2,534.9,341.2L534.9,341.2z"/>
			</g>
		</g>
		<g>
			<path class="st3" d="M518.8,333.2"/>
			<g>
				<path class="st3" d="M518.8,336.6c4.4,0,4.4-6.9,0-6.9C514.4,329.7,514.4,336.6,518.8,336.6L518.8,336.6z"/>
			</g>
		</g>
		<g>
			<path class="st3" d="M527.5,350"/>
			<g>
				<path class="st3" d="M527.5,353.5c4.4,0,4.4-6.9,0-6.9S523,353.5,527.5,353.5L527.5,353.5z"/>
			</g>
		</g>
		<g>
			<path class="st3" d="M536.2,366.3"/>
			<g>
				<path class="st3" d="M536.2,369.7c4.4,0,4.4-6.9,0-6.9C531.7,362.8,531.7,369.7,536.2,369.7L536.2,369.7z"/>
			</g>
		</g>
		<g>
			<path class="st3" d="M525.7,369.4"/>
			<g>
				<path class="st3" d="M525.7,372.8c4.4,0,4.4-6.9,0-6.9C521.2,365.9,521.2,372.8,525.7,372.8L525.7,372.8z"/>
			</g>
		</g>
		<g>
			<path class="st3" d="M531.6,383.7"/>
			<g>
				<path class="st3" d="M531.6,387.2c4.4,0,4.4-6.9,0-6.9C527.1,380.3,527.1,387.2,531.6,387.2L531.6,387.2z"/>
			</g>
		</g>
		<g>
			<path class="st3" d="M536.2,399.4"/>
			<g>
				<path class="st3" d="M536.2,402.9c4.4,0,4.4-6.9,0-6.9S531.8,402.9,536.2,402.9L536.2,402.9z"/>
			</g>
		</g>
		<g>
			<path class="st3" d="M529.3,407.7"/>
			<g>
				<path class="st3" d="M529.3,411.2c4.4,0,4.4-6.9,0-6.9C524.9,404.3,524.8,411.2,529.3,411.2L529.3,411.2z"/>
			</g>
		</g>
		<g>
			<path class="st3" d="M534.6,424.1"/>
			<g>
				<path class="st3" d="M534.6,427.5c4.4,0,4.4-6.9,0-6.9C530.2,420.6,530.2,427.5,534.6,427.5L534.6,427.5z"/>
			</g>
		</g>
		<g>
			<path class="st3" d="M532.1,441.4"/>
			<g>
				<path class="st3" d="M532.1,444.9c4.4,0,4.4-6.9,0-6.9C527.6,438,527.6,444.9,532.1,444.9L532.1,444.9z"/>
			</g>
		</g>
		<g>
			<path class="st3" d="M532.2,460"/>
			<g>
				<path class="st3" d="M532.2,463.5c4.4,0,4.4-6.9,0-6.9S527.8,463.5,532.2,463.5L532.2,463.5z"/>
			</g>
		</g>
		<g>
			<path class="st3" d="M531.6,477.3"/>
			<g>
				<path class="st3" d="M531.6,480.7c4.4,0,4.4-6.9,0-6.9C527.2,473.8,527.2,480.7,531.6,480.7L531.6,480.7z"/>
			</g>
		</g>
		<g>
			<path class="st3" d="M529.8,496"/>
			<g>
				<path class="st3" d="M529.8,499.4c4.4,0,4.4-6.9,0-6.9C525.3,492.5,525.3,499.4,529.8,499.4L529.8,499.4z"/>
			</g>
		</g>
		<g>
			<path class="st3" d="M525.4,518.7"/>
			<g>
				<path class="st3" d="M525.4,522.2c4.4,0,4.4-6.9,0-6.9S521,522.2,525.4,522.2L525.4,522.2z"/>
			</g>
		</g>
		<g>
			<path class="st3" d="M517.5,536.3"/>
			<g>
				<path class="st3" d="M517.5,539.8c4.4,0,4.4-6.9,0-6.9C513.1,532.9,513.1,539.8,517.5,539.8L517.5,539.8z"/>
			</g>
		</g>
		<g>
			<path class="st3" d="M510.9,552.5"/>
			<g>
				<path class="st3" d="M510.9,556c4.4,0,4.4-6.9,0-6.9S506.5,556,510.9,556L510.9,556z"/>
			</g>
		</g>
		<g>
			<path class="st3" d="M504.2,566.1"/>
			<g>
				<path class="st3" d="M504.2,569.5c4.4,0,4.4-6.9,0-6.9C499.8,562.6,499.8,569.5,504.2,569.5L504.2,569.5z"/>
			</g>
		</g>
		<g>
			<path class="st3" d="M494,560.5"/>
			<g>
				<path class="st3" d="M494,564c4.4,0,4.4-6.9,0-6.9S489.6,564,494,564L494,564z"/>
			</g>
		</g>
		<g>
			<path class="st3" d="M494.6,573.8"/>
			<g>
				<path class="st3" d="M494.6,577.2c4.4,0,4.4-6.9,0-6.9C490.1,570.3,490.1,577.2,494.6,577.2L494.6,577.2z"/>
			</g>
		</g>
	</g>
	<g>
		<path class="st5" d="M465.8,624.3c2.2,53.7,8.4,129-141.6,129c-116.3,0-127.3-73.8-127.3-134.5c0-55.9,42.5-124.1,99.2-125.8
			c27-0.8,32.5,15.3,36.9,19.5c2.5-4.6,9.8-19.6,38.6-19.2C418.7,491.9,462.8,550.6,465.8,624.3z"/>
		<path class="st6" d="M253.8,659.6c-0.9,5.5-6,9.3-11.5,8.4c-5.5-0.9-9.3-6-8.4-11.5c0.9-5.5,6-9.3,11.5-8.4
			C250.9,648.9,254.7,654.1,253.8,659.6z"/>
		<path class="st6" d="M427.1,657.1c-0.7,4.6-5.1,7.8-9.7,7.1s-7.8-5.1-7.1-9.7c0.7-4.6,5-7.8,9.7-7.1
			C424.6,648.2,427.8,652.5,427.1,657.1z"/>
		<path class="st7" d="M327.8,585.2c0,28.4-22.2,51.5-49.6,51.5s-49.6-23.1-49.6-51.5s22.2-51.5,49.6-51.5S327.8,556.8,327.8,585.2z
			"/>
		<path class="st5" d="M303.4,583.6c0,13.9-11,25.2-24.5,25.2s-24.5-11.3-24.5-25.2s11-25.2,24.5-25.2
			C292.4,558.4,303.4,569.7,303.4,583.6z"/>
		<path class="st7" d="M290.5,581.9c0,6.3-5,11.5-11.2,11.5s-11.2-5.1-11.2-11.5c0-6.3,5-11.5,11.2-11.5S290.5,575.6,290.5,581.9z"
			/>
		<path class="st7" d="M274.1,598.1c0,2.6-2,4.7-4.6,4.7c-2.5,0-4.6-2.1-4.6-4.7c0-2.6,2.1-4.7,4.6-4.7
			C272.1,593.4,274.1,595.5,274.1,598.1z"/>
		<g>
			<path class="st8" d="M249.9,523.2c-1.4-3.7,0.3-6.3,2.8-6.9c2.5-0.5,4.9,0.8,5.5,4c0.6,3-0.3,6.8-1.9,10.2
				C256.4,530.5,251.2,526.4,249.9,523.2z"/>
			<path class="st8" d="M269.2,518.3c-0.7-3.9,1.4-6.2,4-6.2s4.7,1.7,4.7,4.9c0,3.1-1.5,6.6-3.7,9.7
				C274.2,526.7,269.9,521.8,269.2,518.3z"/>
			<path class="st8" d="M289.2,518.6c0.3-3.9,3.1-5.6,5.5-4.9c2.5,0.6,4.1,2.9,3.2,6c-0.8,3-3.2,6-6.2,8.3
				C291.8,528,288.9,522.1,289.2,518.6z"/>
		</g>
		<path class="st7" d="M334.5,585c0,28.4,22.2,51.5,49.6,51.5s49.6-23.1,49.6-51.5s-22.2-51.5-49.6-51.5S334.5,556.6,334.5,585z"/>
		<path class="st5" d="M359,583.4c0,13.9,11,25.2,24.5,25.2s24.5-11.3,24.5-25.2s-11-25.2-24.5-25.2
			C369.9,558.3,359,569.5,359,583.4z"/>
		<path class="st7" d="M371.8,581.7c0,6.3,5,11.5,11.2,11.5s11.2-5.1,11.2-11.5c0-6.3-5-11.5-11.2-11.5
			C376.8,570.3,371.8,575.4,371.8,581.7z"/>
		<path class="st7" d="M388.2,597.9c0,2.6,2,4.7,4.6,4.7c2.5,0,4.6-2.1,4.6-4.7c0-2.6-2.1-4.7-4.6-4.7
			C390.2,593.2,388.2,595.3,388.2,597.9z"/>
		<g>
			<path class="st8" d="M412.4,523c1.4-3.7-0.3-6.3-2.8-6.9c-2.5-0.5-4.9,0.8-5.5,4c-0.6,3,0.3,6.8,1.9,10.2
				C406,530.3,411.1,526.3,412.4,523z"/>
			<path class="st8" d="M393.1,518.1c0.8-3.9-1.4-6.2-4-6.2s-4.7,1.7-4.7,4.9c0,3.1,1.5,6.6,3.7,9.7
				C388.1,526.5,392.5,521.6,393.1,518.1z"/>
			<path class="st8" d="M373.1,518.4c-0.3-3.9-3.1-5.6-5.5-4.9c-2.5,0.6-4.1,2.9-3.2,6c0.8,3,3.2,5.9,6.2,8.3
				C370.5,527.8,373.4,521.9,373.1,518.4z"/>
		</g>
		<path class="st9" d="M343.3,647.8c1.9,10.8-4.3,17.1-11.4,17.1s-13-4.9-12.9-13.8c0.1-8.6,4.5-18.3,10.8-26.7
			C329.7,624.4,341.6,638.2,343.3,647.8z"/>
		<path class="st7" d="M379,709.4c0,14.8-19.9,26.8-44.5,26.8s-44.5-12-44.5-26.8s19.9-26.8,44.5-26.8
			C359.1,682.6,379,694.6,379,709.4z"/>
		<path class="st5" d="M322.6,686.9c1.8,2.7,10.6,40.8,10.6,40.8s7.8-33.6,9.5-40.8C339.8,685,329.5,683.7,322.6,686.9z"/>
	</g>
	<g>
		<path class="st10" d="M216,522.7c-24.5-7.8-19.6-76.7-16.2-76.8c3.5-0.2,59.1-8.8,79.9,34.1C233.6,492.9,225,514.8,216,522.7z"/>
		<path class="st10" d="M448.9,522.7c24.5-7.8,19.6-76.7,16.2-76.8c-3.5-0.2-59.1-8.8-79.9,34.1
			C431.3,492.9,439.9,514.8,448.9,522.7z"/>
		<path class="st11" d="M218.9,508.2c-16.6-5.3-13.3-51.9-10.9-52c2.3-0.1,40-5.9,54.1,23.1C230.8,488.1,225,502.9,218.9,508.2z"/>
		<path class="st11" d="M445.5,507.1c16.6-5.3,13.3-51.9,10.9-52c-2.3-0.1-40-5.9-54.1,23.1C433.6,487,439.4,501.8,445.5,507.1z"/>
	</g>
	<path class="st8" d="M687.5,784.6c0,0-92.6,25.1-140.2,24.2c-47.6-1-172.9-28-207-28S160,810.9,112.6,806.4S4.3,785.5,4.3,785.5
		L0,759.7c0,0,71.3,20.6,111.2,20.6s178.8-19.9,229.9-20.6s149.9,20.1,206.1,21.1c56.2,0.9,146.1-21.1,146.1-21.1L687.5,784.6z"/>
	<path class="st2" d="M178.3,557.9c-0.4,1.7-6,23.5-6.9,32.5c-0.3,1.2-33.2-36.6-33.9-89C148.1,559.6,175.9,558.3,178.3,557.9z"/>
	<path class="st2" d="M490.1,556.7c0.4,1.7,5.4,16.8,7.9,32.7c2-2.5,31.1-36.6,31.7-89C521.4,560.2,490.9,556.1,490.1,556.7z"/>
</g>
</svg>
