<?xml version="1.0" encoding="utf-8"?>
<!-- Generator: Adobe Illustrator 19.2.1, SVG Export Plug-In . SVG Version: 6.00 Build 0)  -->
<svg version="1.1" id="Capa_1" xmlns="http://www.w3.org/2000/svg" xmlns:xlink="http://www.w3.org/1999/xlink" x="0px" y="0px"
	 viewBox="0 0 280.1 371.3" style="enable-background:new 0 0 280.1 371.3;" xml:space="preserve">
<style type="text/css">
	.st0{fill:#F4F4F4;enable-background:new    ;}
	.st1{fill:#29ABE2;}
	.st2{fill:#00FF00;}
	.st3{opacity:0.2;fill:#4D4D4D;enable-background:new    ;}
	.st4{fill:#095270;}
	.st5{fill:#A7D5E0;}
	.st6{fill:#FFFFFF;}
	.st7{fill:#1D1D1B;}
	.st8{fill:#FFFF00;}
	.st9{fill:#ED1E79;}
	.st10{fill:#00FFFF;}
	.st11{fill:#E5007E;}
</style>
<g>
	<g>
		<ellipse class="st0" cx="140.4" cy="352.6" rx="134.8" ry="18.7"/>
		<path class="st1" d="M65.1,353.3c0,0-32,8.1-40.6,3c3.8-11.5,23.9-12.4,23.9-12.4L17.6,9.8l34.5,41.7c0,0,53.6-10.7,92.7-10
			c39.1,0.8,80.4,10.7,80.4,10.7L260,9.7l-23.6,336.1c0,0,21.9,6.6,17.8,11.4c-26.3,2.4-36-2.8-36-2.8s22-62.9-76.7-65.8
			c-23.4-0.7-42.7,7.5-54.2,14.8C55.3,323.9,65.1,353.3,65.1,353.3z"/>
		<polygon class="st2" points="23.2,26.3 29,63.4 47.4,54.6 		"/>
		<polyline class="st2" points="249.5,62.2 255,25.4 230.8,54.1 		"/>
		<path class="st3" d="M198.4,261.8c0.5,3.5,3.7,4.1,5.4,4.4c9.6,1.9,30.9-6.5,37.8,5.5c0.1-1.8,0.5-7.6,1-14.3
			c-3.1,0.8-13.9,4.2-31.1,5.8c-1.2,0.1-10.6,1.5-10.3-1.6c0.1-4.1,6.8-5,6.9-5.3c0,0-9,1.2-9.3-2.7c-0.6-3.6,9.2-4.1,9.2-4.4
			c-0.7,0-9.8,1-9.4-5c0.9-4.1,45.3-3.5,45.3-4.1c0.4-5.1,0.6-8.8,0.6-8.8s-9.1,8-22.9,8.6c-0.8,0-8.7,0.3-9.5,0.4
			c-1.7,0.2-9.7,0.8-9.7,0.8c-0.9,0.6-5.2-0.1-5.2,4c0,4.6,6.3,3.7,5.4,4.2c-1.1,0.6-5.1,0.6-5.1,4c0.1,5.6,9.9,2.9,7.5,3.6
			C202.2,257.8,198,258,198.4,261.8z"/>
		<path class="st3" d="M81.9,234.5c-0.5,3.5-3.7,4.1-5.4,4.4c-9.6,1.9-30.2-6.5-37.2,5.5c-0.1-1.8-0.8-7.5-1.3-14.2
			c3.1,0.8,12.7,2.8,29.8,5c1.2,0.1,12.2,0.8,12-1.8c-0.1-4.1-6.8-4.9-6.8-5.3c0,0,8.6,0.6,8.9-3c0.6-3.6-8.6-4-8.6-4.3
			c0.7,0,9.1,0.8,8.7-5.1c-0.6-3.6-45.4-2.4-45.5-3.1c-0.5-5.1-0.9-8.7-0.9-8.7s8.4,7.4,22.3,8c0.8,0,9.5,0.2,10.3,0.3
			c1.7,0.2,9.7,0.7,9.7,0.7c0.9,0.6,5.3-0.3,5.3,3.8c0,4.6-5.8,4-4.8,4.5c1.1,0.6,4.6,1.2,4.5,4.7c-0.1,5.6-8.1,1.9-5.7,2.6
			C79.8,229.5,82.3,230.7,81.9,234.5z"/>
		<path class="st3" d="M135.7,288.8c0,0-56.5-5.4-69.7,19.6c-12.1,24.3-0.9,44.9-0.9,44.9s-7.4-21,9.7-39.3
			C97.1,288.9,135.7,288.8,135.7,288.8z"/>
		<path class="st3" d="M143.6,288.8c0,0,62.4-5.5,75.6,19.6c12.1,24.3-0.9,46.1-0.9,46.1s8.5-23.1-7.4-41.9
			C188.6,287.6,143.6,288.8,143.6,288.8z"/>
		<g>
			<g>
				<path class="st4" d="M29.7,71.4c1.4,1.9,1.9,3.7,2.3,5.6"/>
				<g>
					<path class="st5" d="M27.8,72.5c1.1,1.6,1.6,3.2,2.1,5.1c0.7,2.6,4.7,1.5,4-1.1c-0.5-2.2-1.2-4.3-2.5-6.1
						c-0.7-0.9-1.8-1.4-2.9-0.8C27.7,70.1,27.2,71.5,27.8,72.5L27.8,72.5z"/>
				</g>
			</g>
			<g>
				<path class="st4" d="M39,66.1c0.6,1.6,0.6,3.2,1,4.8"/>
				<g>
					<path class="st5" d="M37,66.6c0.5,1.6,0.6,3.2,1,4.8c0.7,2.6,4.7,1.5,4-1.1c-0.4-1.6-0.5-3.2-1-4.8c-0.4-1.1-1.4-1.8-2.6-1.5
						C37.4,64.3,36.6,65.5,37,66.6L37,66.6z"/>
				</g>
			</g>
			<g>
				<path class="st4" d="M48.1,61.5c0.3,1.8,0.8,3.8,1.6,5.3"/>
				<g>
					<path class="st5" d="M46.1,62.1c0.4,2,0.9,4,1.8,5.8c0.5,1,1.9,1.3,2.9,0.8c1-0.6,1.2-1.8,0.8-2.9c-0.7-1.5-1-3.2-1.3-4.8
						c-0.2-1.1-1.5-1.7-2.6-1.5C46.4,59.8,45.9,61,46.1,62.1L46.1,62.1z"/>
				</g>
			</g>
			<g>
				<path class="st4" d="M59.5,58.2c0.1,1.6,0.1,3.1,0.3,4.7"/>
				<g>
					<path class="st5" d="M57.5,58.2c0.1,1.6,0.1,3.1,0.3,4.7c0.1,1.1,0.9,2.1,2.1,2.1c1,0,2.2-1,2.1-2.1c-0.2-1.5-0.2-3.1-0.3-4.7
						c-0.1-1.1-0.9-2.1-2.1-2.1C58.5,56.1,57.4,57.1,57.5,58.2L57.5,58.2z"/>
				</g>
			</g>
			<g>
				<path class="st4" d="M30.4,87.6c0,1.8,0.1,4,1,5.5"/>
				<g>
					<path class="st5" d="M28.3,87.6c0,2.3,0.2,4.6,1.3,6.6c1.3,2.4,4.9,0.3,3.6-2.1c-0.7-1.4-0.7-3-0.7-4.5
						C32.5,84.9,28.3,84.9,28.3,87.6L28.3,87.6z"/>
				</g>
			</g>
			<g>
				<path class="st4" d="M38.8,81.2c0.1,1.1,0.1,2.1,0.1,3.1"/>
				<g>
					<path class="st5" d="M36.7,81.2c0.1,1,0.1,2.1,0.1,3.1c0,1.1,1,2.1,2.1,2.1c1.1-0.1,2.1-0.9,2.1-2.1c0-1,0-2.1-0.1-3.1
						c-0.1-1.1-0.9-2.1-2.1-2.1C37.8,79.1,36.6,80,36.7,81.2L36.7,81.2z"/>
				</g>
			</g>
			<g>
				<path class="st4" d="M46.8,76.6c-0.1,1.8,0.1,3.2,1.1,4.7"/>
				<g>
					<path class="st5" d="M44.7,76.6c-0.1,2,0.3,4,1.4,5.7c1.5,2.2,5.1,0.1,3.6-2.1c-0.8-1.2-0.9-2.2-0.8-3.6c0.1-1.1-1-2.1-2.1-2.1
						C45.6,74.5,44.8,75.5,44.7,76.6L44.7,76.6z"/>
				</g>
			</g>
			<g>
				<path class="st4" d="M58,72.5c0,1.4,0,3,0,4.5"/>
				<g>
					<path class="st5" d="M55.9,72.5c0,1.5,0,3,0,4.5c0,2.7,4.2,2.7,4.2,0c0-1.5,0-3,0-4.5C60.1,69.8,55.9,69.8,55.9,72.5L55.9,72.5
						z"/>
				</g>
			</g>
			<g>
				<path class="st4" d="M58.2,87.6c0.1,1.2,0.2,2.4,0.2,3.7"/>
				<g>
					<path class="st5" d="M56.1,87.6c0.1,1.2,0.2,2.4,0.2,3.7c0,1.1,1,2.1,2.1,2.1s2.1-1,2.1-2.1c0-1.2-0.1-2.4-0.2-3.7
						c-0.1-1.1-0.9-2.1-2.1-2.1C57.2,85.5,56,86.5,56.1,87.6L56.1,87.6z"/>
				</g>
			</g>
			<g>
				<path class="st4" d="M46.6,88.8c0.2,1,0.3,2,0.6,3"/>
				<g>
					<path class="st5" d="M44.5,89.4c0.2,1,0.3,2,0.6,3c0.2,1.1,1.5,1.8,2.6,1.5c1.1-0.4,1.7-1.4,1.5-2.6c-0.2-1-0.3-2-0.6-3
						c-0.2-1.1-1.5-1.8-2.6-1.5C44.9,87.2,44.3,88.2,44.5,89.4L44.5,89.4z"/>
				</g>
			</g>
			<g>
				<path class="st4" d="M38.1,93.1c0.2,1.2,0.3,2.4,0.7,3.5"/>
				<g>
					<path class="st5" d="M36.1,93.7c0.2,1.2,0.3,2.4,0.7,3.5c0.3,1.1,1.5,1.8,2.6,1.5s1.8-1.5,1.5-2.6c-0.3-1.2-0.5-2.4-0.7-3.5
						s-1.6-1.7-2.6-1.5C36.4,91.4,35.9,92.6,36.1,93.7L36.1,93.7z"/>
				</g>
			</g>
			<g>
				<path class="st4" d="M32.5,107.4c0,1.7,0.6,3,0.9,4.4"/>
				<g>
					<path class="st5" d="M30.4,107.4c0,1.7,0.6,3.3,1,5c0.6,2.6,4.7,1.5,4-1.1c-0.3-1.3-0.8-2.5-0.8-3.9
						C34.5,104.8,30.3,104.7,30.4,107.4L30.4,107.4z"/>
				</g>
			</g>
			<g>
				<path class="st4" d="M45.9,103.2c0.1,1.4,0.2,3,0.2,4.4"/>
				<g>
					<path class="st5" d="M43.8,103.2c0.1,1.5,0.2,3,0.2,4.4c0,2.7,4.2,2.7,4.2,0c0-1.5-0.1-3-0.2-4.4c-0.1-1.1-0.9-2.1-2.1-2.1
						C44.8,101.1,43.7,102.1,43.8,103.2L43.8,103.2z"/>
				</g>
			</g>
			<g>
				<path class="st4" d="M54.9,101.2c0.1,1.6,0.1,3,0.3,4.5"/>
				<g>
					<path class="st5" d="M52.8,101.2c0.1,1.5,0.1,3,0.3,4.5c0.1,1.1,0.9,2.1,2.1,2.1c1,0,2.2-1,2.1-2.1c-0.2-1.5-0.2-3-0.3-4.5
						c-0.1-1.1-0.9-2.1-2.1-2.1C53.8,99.1,52.7,100.1,52.8,101.2L52.8,101.2z"/>
				</g>
			</g>
			<g>
				<path class="st4" d="M40.2,117.2c0.8,1.6,1,3.4,1.4,5.2"/>
				<g>
					<path class="st5" d="M38.4,118.3c0.7,1.5,0.9,3.2,1.2,4.7c0.6,2.6,4.7,1.5,4-1.1c-0.5-2-0.8-3.9-1.7-5.7
						c-0.5-1-1.9-1.3-2.9-0.8C38.1,116,38,117.2,38.4,118.3L38.4,118.3z"/>
				</g>
			</g>
			<g>
				<path class="st4" d="M51.4,115c0.2,1.8,0.2,3.7,0.2,5.4"/>
				<g>
					<path class="st5" d="M49.4,115c0.2,1.8,0.2,3.6,0.2,5.4c0,2.7,4.2,2.7,4.2,0c0-1.8,0-3.6-0.2-5.4c-0.1-1.1-0.9-2.1-2.1-2.1
						C50.4,112.9,49.2,113.9,49.4,115L49.4,115z"/>
				</g>
			</g>
			<g>
				<path class="st4" d="M62,113.9c0.4,1.6,1,3.1,1.3,4.7"/>
				<g>
					<path class="st5" d="M60,114.4c0.5,1.6,1,3.1,1.3,4.7c0.2,1.1,1.5,1.8,2.6,1.5c1.1-0.3,1.7-1.5,1.5-2.6
						c-0.4-1.6-0.9-3.1-1.3-4.7C63.3,110.7,59.2,111.8,60,114.4L60,114.4z"/>
				</g>
			</g>
			<g>
				<path class="st4" d="M33.4,125.5c0.8,2.2,1,4.7,1.7,6.9"/>
				<g>
					<path class="st5" d="M31.3,126.1c0.7,2.2,1,4.6,1.7,6.9c0.7,2.6,4.8,1.5,4-1.1c-0.6-2.3-0.9-4.6-1.7-6.9
						C34.5,122.4,30.5,123.5,31.3,126.1L31.3,126.1z"/>
				</g>
			</g>
			<g>
				<path class="st4" d="M47.7,128.8c0.1,1.3,0.2,2.7,0.2,4"/>
				<g>
					<path class="st5" d="M45.6,128.8c0.1,1.3,0.2,2.7,0.2,4c0,2.7,4.2,2.7,4.2,0c0-1.3-0.1-2.7-0.2-4c-0.1-1.1-0.9-2.1-2.1-2.1
						C46.6,126.8,45.5,127.7,45.6,128.8L45.6,128.8z"/>
				</g>
			</g>
			<g>
				<path class="st4" d="M59.4,126.6c0.6,2.1,0.8,4.2,0.8,6.3"/>
				<g>
					<path class="st5" d="M57.4,127.2c0.5,1.9,0.7,3.8,0.7,5.8c0,2.7,4.2,2.7,4.2,0c0-2.3-0.3-4.6-0.9-6.9
						C60.8,123.5,56.8,124.6,57.4,127.2L57.4,127.2z"/>
				</g>
			</g>
			<g>
				<path class="st4" d="M42,140.6c0,2.7,0.9,5.2,0.8,7.8"/>
				<g>
					<path class="st5" d="M39.9,140.6c0.1,2.6,0.8,5.1,0.8,7.8c0,2.7,4.1,2.7,4.2,0c0-2.6-0.7-5.2-0.8-7.8
						C44,137.9,39.9,137.9,39.9,140.6L39.9,140.6z"/>
				</g>
			</g>
			<g>
				<path class="st4" d="M55.9,141c-0.7,1.8-0.1,4,0.1,6"/>
				<g>
					<path class="st5" d="M53.9,140.5c-0.7,2.2-0.2,4.4,0,6.5c0.1,1.1,0.9,2.1,2.1,2.1c1,0,2.2-1,2.1-2.1c-0.2-1.8-0.7-3.7-0.2-5.4
						C58.7,139,54.7,137.9,53.9,140.5L53.9,140.5z"/>
				</g>
			</g>
			<g>
				<path class="st4" d="M35.1,149.9c0.4,2.7,1.2,5.1,2.3,7.5"/>
				<g>
					<path class="st5" d="M33.1,150.5c0.5,2.8,1.4,5.4,2.5,8c1.1,2.5,4.7,0.3,3.6-2.1c-1-2.3-1.7-4.6-2.1-7
						C36.7,146.7,32.7,147.8,33.1,150.5L33.1,150.5z"/>
				</g>
			</g>
			<g>
				<path class="st4" d="M51.1,155c-0.6,1.6-0.6,3.3-0.6,4.9"/>
				<g>
					<path class="st5" d="M49.1,154.5c-0.6,1.7-0.6,3.6-0.6,5.4c0,2.7,4.2,2.7,4.2,0c0-1.5,0-2.9,0.5-4.3
						C54,153,49.9,151.9,49.1,154.5L49.1,154.5z"/>
				</g>
			</g>
			<g>
				<path class="st4" d="M42,164.8c0.2,1.7,0.3,3.7,1,5.1"/>
				<g>
					<path class="st5" d="M39.9,164.8c0.3,2.1,0.4,4.2,1.3,6.2c0.4,1,2,1.3,2.9,0.8c1.1-0.6,1.2-1.8,0.8-2.9c-0.5-1.2-0.5-2.7-0.7-4
						c-0.1-1.1-0.9-2.1-2.1-2.1C41,162.7,39.8,163.7,39.9,164.8L39.9,164.8z"/>
				</g>
			</g>
			<g>
				<path class="st4" d="M38.4,177.9c0.6,2.1,1.4,4,2.1,6"/>
				<g>
					<path class="st5" d="M36.3,178.4c0.6,2,1.4,4,2.1,6c0.9,2.5,4.9,1.4,4-1.1c-0.7-2-1.5-3.9-2.1-6
						C39.7,174.7,35.6,175.8,36.3,178.4L36.3,178.4z"/>
				</g>
			</g>
			<g>
				<path class="st4" d="M53,168.2c0,2.1,0,4.2,0,6.3"/>
				<g>
					<path class="st5" d="M50.9,168.2c0,2.1,0,4.2,0,6.3c0,2.7,4.2,2.7,4.2,0c0-2.1,0-4.2,0-6.3C55.1,165.5,50.9,165.5,50.9,168.2
						L50.9,168.2z"/>
				</g>
			</g>
			<g>
				<path class="st4" d="M52.2,185.3c0,2,0.2,4.1,0.6,6.1"/>
				<g>
					<path class="st5" d="M50.1,185.3c0,2.2,0.3,4.5,0.6,6.7c0.2,1.1,1.6,1.7,2.6,1.5c1.2-0.3,1.6-1.5,1.5-2.6
						c-0.3-1.8-0.5-3.7-0.5-5.5C54.3,182.6,50.1,182.6,50.1,185.3L50.1,185.3z"/>
				</g>
			</g>
			<g>
				<path class="st4" d="M45.3,191.4c0.4,1.7,0.8,3.3,1,4.9"/>
				<g>
					<path class="st5" d="M43.3,192c0.4,1.6,0.8,3.2,1,4.9c0.2,1.1,1.6,1.7,2.6,1.5c1.2-0.3,1.6-1.5,1.5-2.6c-0.2-1.6-0.6-3.3-1-4.9
						C46.7,188.2,42.6,189.4,43.3,192L43.3,192z"/>
				</g>
			</g>
			<g>
				<path class="st4" d="M38.9,199.4c0.4,2.4,1.1,4.8,1.7,7.1"/>
				<g>
					<path class="st5" d="M36.9,200c0.5,2.4,1.1,4.7,1.7,7.1c0.6,2.6,4.7,1.5,4-1.1c-0.6-2.4-1.2-4.7-1.7-7.1
						C40.4,196.2,36.4,197.3,36.9,200L36.9,200z"/>
				</g>
			</g>
			<g>
				<path class="st4" d="M51.9,202.9c0.7,2.3,1.2,4.5,2,6.8"/>
				<g>
					<path class="st5" d="M49.9,203.5c0.6,2.3,1.2,4.5,2,6.8c0.9,2.5,4.9,1.4,4-1.1c-0.8-2.2-1.4-4.5-2-6.8
						C53.2,199.8,49.1,200.9,49.9,203.5L49.9,203.5z"/>
				</g>
			</g>
			<g>
				<path class="st4" d="M65.4,201.3c0.7,1.9,0.8,4,1.2,6"/>
				<g>
					<path class="st5" d="M63.4,201.8c0.6,1.9,0.8,4,1.2,6c0.6,2.6,4.6,1.5,4-1.1c-0.4-2-0.6-4-1.2-6
						C66.6,198.2,62.6,199.3,63.4,201.8L63.4,201.8z"/>
				</g>
			</g>
			<g>
				<path class="st4" d="M40.6,212.4c0.1,0.4,0.1,1,0.2,1.4"/>
				<g>
					<path class="st5" d="M38.6,212.9l0.1,0.3c0.1,0-0.1-0.4,0,0c0,0.4,0.1,0.7,0.2,1.1c0.2,1.1,1.5,1.8,2.6,1.5
						c1.1-0.4,1.7-1.4,1.5-2.6l-0.1-0.3c-0.1,0,0.1,0.4,0,0c0-0.4-0.1-0.7-0.2-1.1c-0.2-1.1-1.5-1.8-2.6-1.5
						C38.9,210.7,38.3,211.8,38.6,212.9L38.6,212.9z"/>
				</g>
			</g>
			<g>
				<path class="st4" d="M43.8,235.4c0.6,2.2,0.8,4.5,1.1,6.8"/>
				<g>
					<path class="st5" d="M41.8,236c0.5,2.2,0.8,4.5,1.1,6.8c0.2,1.1,1.6,1.7,2.6,1.5c1.2-0.3,1.6-1.5,1.5-2.6
						c-0.3-2.3-0.6-4.5-1.1-6.8C45.2,232.3,41.1,233.4,41.8,236L41.8,236z"/>
				</g>
			</g>
			<g>
				<path class="st4" d="M59.2,238.5c0.1,1.3-0.1,2.7-0.1,3.9"/>
				<g>
					<path class="st5" d="M57.1,238.5c0.1,1.3-0.1,2.6-0.1,3.9c0,2.7,4.2,2.7,4.2,0c0-1.3,0.2-2.6,0.1-3.9c-0.1-1.1-0.9-2.1-2.1-2.1
						C58.1,236.5,57,237.4,57.1,238.5L57.1,238.5z"/>
				</g>
			</g>
			<g>
				<path class="st4" d="M69.4,239.4c0.2,1.3,0.7,2.7,0.9,4"/>
				<g>
					<path class="st5" d="M67.4,240c0.2,1.3,0.6,2.6,0.9,4c0.2,1.1,1.6,1.7,2.6,1.5c1.2-0.3,1.7-1.5,1.5-2.6c-0.2-1.3-0.6-2.6-0.9-4
						c-0.2-1.1-1.6-1.7-2.6-1.5C67.7,237.7,67.2,238.9,67.4,240L67.4,240z"/>
				</g>
			</g>
			<g>
				<path class="st4" d="M80.8,238.8c0.3,1.1,0.6,2.2,0.9,3.3"/>
				<g>
					<path class="st5" d="M78.8,239.3c0.3,1.1,0.6,2.2,0.9,3.3c0.3,1,1.5,1.8,2.6,1.5s1.8-1.4,1.5-2.6c-0.3-1.1-0.6-2.2-0.9-3.3
						c-0.3-1-1.5-1.8-2.6-1.5C79.2,237.1,78.5,238.2,78.8,239.3L78.8,239.3z"/>
				</g>
			</g>
			<g>
				<path class="st4" d="M52.2,247.3c0.1,1.4,0.2,3,0.3,4.4"/>
				<g>
					<path class="st5" d="M50.1,247.3c0.1,1.5,0.2,3,0.3,4.4c0.1,1.1,0.9,2.1,2.1,2.1c1.1,0,2.2-1,2.1-2.1c-0.1-1.5-0.2-3-0.3-4.4
						c-0.1-1.1-0.9-2.1-2.1-2.1C51.2,245.2,50,246.2,50.1,247.3L50.1,247.3z"/>
				</g>
			</g>
			<g>
				<path class="st4" d="M46,257.5c0.2,1.2,0.4,2.4,0.8,3.7"/>
				<g>
					<path class="st5" d="M44,258.1c0.2,1.2,0.5,2.5,0.8,3.7c0.3,1.1,1.5,1.8,2.6,1.5s1.8-1.5,1.5-2.6c-0.3-1.2-0.6-2.4-0.8-3.7
						c-0.2-1.1-1.6-1.7-2.6-1.5C44.3,255.8,43.8,257,44,258.1L44,258.1z"/>
				</g>
			</g>
			<g>
				<path class="st4" d="M47.8,275.9c0.1,0.9,0.2,1.9,0.2,2.8"/>
				<g>
					<path class="st5" d="M45.7,275.9c0.1,0.9,0.2,1.8,0.2,2.8c0,1.1,1,2.1,2.1,2.1c1.1-0.1,2.1-0.9,2.1-2.1c0-0.9-0.1-1.9-0.2-2.8
						c-0.1-1.1-0.9-2.1-2.1-2.1C46.8,273.9,45.5,274.8,45.7,275.9L45.7,275.9z"/>
				</g>
			</g>
			<g>
				<path class="st4" d="M54.8,263.3c0,2.1,0.4,4.4,0.9,6.5"/>
				<g>
					<path class="st5" d="M52.7,263.3c0,2.4,0.5,4.8,1,7.1c0.6,2.6,4.6,1.5,4-1.1c-0.4-2-0.8-4-0.8-6
						C56.8,260.6,52.6,260.6,52.7,263.3L52.7,263.3z"/>
				</g>
			</g>
			<g>
				<path class="st4" d="M64.2,250.8c-0.1,1.6,0,3.1,0,4.8"/>
				<g>
					<path class="st5" d="M62.1,250.8c-0.1,1.6,0,3.2,0,4.8c0,2.7,4.2,2.7,4.2,0c0-1.6-0.1-3.2,0-4.8c0.1-1.1-1-2.1-2.1-2.1
						C63,248.7,62.2,249.6,62.1,250.8L62.1,250.8z"/>
				</g>
			</g>
			<g>
				<path class="st4" d="M65.9,267.7c0.1,2,0.3,4,0.8,6"/>
				<g>
					<path class="st5" d="M63.8,267.7c0.1,2.2,0.4,4.4,0.9,6.5c0.6,2.6,4.6,1.5,4-1.1c-0.4-1.8-0.6-3.6-0.7-5.4
						C67.8,265,63.6,265,63.8,267.7L63.8,267.7z"/>
				</g>
			</g>
			<g>
				<path class="st4" d="M72,256.5c0.4,1.9,0.9,3.7,1.2,5.5"/>
				<g>
					<path class="st5" d="M69.9,257.1c0.4,1.8,0.9,3.7,1.2,5.5c0.2,1.1,1.6,1.7,2.6,1.5c1.2-0.3,1.7-1.5,1.5-2.6
						c-0.3-1.9-0.8-3.7-1.2-5.5C73.4,253.3,69.3,254.5,69.9,257.1L69.9,257.1z"/>
				</g>
			</g>
			<g>
				<path class="st4" d="M77.5,247.8c0.4,1.4,1,2.9,1.3,4.3"/>
				<g>
					<path class="st5" d="M75.5,248.3c0.5,1.4,1,2.9,1.3,4.3c0.6,2.6,4.7,1.5,4-1.1c-0.4-1.5-0.9-2.9-1.3-4.3
						C78.7,244.6,74.7,245.7,75.5,248.3L75.5,248.3z"/>
				</g>
			</g>
			<g>
				<path class="st4" d="M80.6,265.2c0.2,1.6,0.3,3.3,0.8,4.8"/>
				<g>
					<path class="st5" d="M78.6,265.7c0.2,1.6,0.3,3.2,0.8,4.8c0.7,2.6,4.8,1.5,4-1.1c-0.4-1.6-0.6-3.2-0.8-4.8
						c-0.2-1.1-1.6-1.7-2.6-1.5C78.9,263.5,78.4,264.6,78.6,265.7L78.6,265.7z"/>
				</g>
			</g>
			<g>
				<path class="st4" d="M87.7,252.9c0.3,2.3,0.7,4.9,1.6,7.1"/>
				<g>
					<path class="st5" d="M85.7,253.4c0.3,2.4,0.7,4.8,1.6,7.1c0.9,2.5,5,1.4,4-1.1c-0.9-2.3-1.2-4.7-1.6-7.1
						c-0.2-1.1-1.6-1.7-2.6-1.5C86,251.2,85.5,252.3,85.7,253.4L85.7,253.4z"/>
				</g>
			</g>
			<g>
				<path class="st4" d="M100.3,261.7c0,1.7,0,3.4,0,5.1"/>
				<g>
					<path class="st5" d="M98.2,261.7c0,1.7,0,3.4,0,5.1c0,2.7,4.2,2.7,4.2,0c0-1.7,0-3.4,0-5.1C102.3,259,98.2,259,98.2,261.7
						L98.2,261.7z"/>
				</g>
			</g>
			<g>
				<path class="st4" d="M91.6,269.7c0.2,2.1,0.4,4.3,0.8,6.4"/>
				<g>
					<path class="st5" d="M89.5,269.7c0.2,2.3,0.5,4.7,0.9,7c0.2,1.1,1.6,1.7,2.6,1.5c1.2-0.3,1.6-1.5,1.5-2.6
						c-0.3-2-0.5-3.9-0.7-5.9c-0.1-1.1-0.9-2.1-2.1-2.1C90.6,267.6,89.4,268.6,89.5,269.7L89.5,269.7z"/>
				</g>
			</g>
			<g>
				<path class="st4" d="M74.7,276.7c0.2,1.7,0.3,3.2,0.4,4.9"/>
				<g>
					<path class="st5" d="M72.6,276.7c0.2,1.6,0.3,3.3,0.4,4.9c0.1,1.1,0.9,2.1,2.1,2.1c1.1,0,2.2-1,2.1-2.1
						c-0.1-1.6-0.2-3.3-0.4-4.9c-0.1-1.1-0.9-2.1-2.1-2.1C73.7,274.6,72.5,275.6,72.6,276.7L72.6,276.7z"/>
				</g>
			</g>
			<g>
				<path class="st4" d="M57.8,279.4c0,1.6,0,3.1,0,4.7"/>
				<g>
					<path class="st5" d="M55.7,279.4c0,1.6,0,3.1,0,4.7c0,2.7,4.2,2.7,4.2,0c0-1.6,0-3.1,0-4.7C59.9,276.7,55.7,276.7,55.7,279.4
						L55.7,279.4z"/>
				</g>
			</g>
			<g>
				<path class="st4" d="M51,293.1c0.1,1.6,0.1,3.2,0.4,4.8"/>
				<g>
					<path class="st5" d="M48.9,293.1c0.1,1.8,0.2,3.6,0.5,5.3c0.2,1.1,1.5,1.7,2.6,1.5c1.2-0.3,1.7-1.5,1.5-2.6
						c-0.3-1.4-0.3-2.8-0.4-4.2C53,292,52.2,291,51,291C49.9,291,48.8,292,48.9,293.1L48.9,293.1z"/>
				</g>
			</g>
			<g>
				<path class="st4" d="M67.6,288.1c0.1,1.7,0,3.4,0,5.1"/>
				<g>
					<path class="st5" d="M65.5,288.1c0.1,1.7,0,3.4,0,5.1c0,2.7,4.2,2.7,4.2,0c0-1.7,0.1-3.4,0-5.1
						C69.6,285.5,65.4,285.4,65.5,288.1L65.5,288.1z"/>
				</g>
			</g>
			<g>
				<path class="st4" d="M60.7,299.2c0,1.4,0.1,2.9,0.2,4.3"/>
				<g>
					<path class="st5" d="M58.6,299.2c0,1.4,0.1,2.9,0.2,4.3c0.1,1.1,0.9,2.1,2.1,2.1c1.1,0,2.2-1,2.1-2.1c-0.1-1.4-0.2-2.9-0.2-4.3
						C62.7,296.5,58.5,296.5,58.6,299.2L58.6,299.2z"/>
				</g>
			</g>
			<g>
				<path class="st4" d="M51.2,311.3c0.4,2.2-0.1,5.4,0.8,7.1"/>
				<g>
					<path class="st5" d="M49.2,311.9c0.4,2.6-0.2,5.1,1,7.6c1.1,2.4,4.7,0.3,3.6-2.1c-0.4-0.8-0.3-2-0.3-2.9c0-1.2-0.1-2.4-0.3-3.7
						C52.8,308.1,48.8,309.2,49.2,311.9L49.2,311.9z"/>
				</g>
			</g>
			<g>
				<path class="st4" d="M61.5,317.3c-0.3,1.3-0.6,2.6-0.9,3.9"/>
				<g>
					<path class="st5" d="M59.5,316.8c-0.3,1.3-0.6,2.6-0.9,3.9c-0.3,1.1,0.4,2.3,1.5,2.6c1.1,0.3,2.3-0.4,2.6-1.5
						c0.3-1.3,0.6-2.6,0.9-3.9c0.3-1.1-0.4-2.3-1.5-2.6C61,315,59.8,315.6,59.5,316.8L59.5,316.8z"/>
				</g>
			</g>
			<g>
				<path class="st4" d="M54.9,330.7c0,1.8,0.1,3.4,0.3,5.2"/>
				<g>
					<path class="st5" d="M52.8,330.7c0,1.7,0.1,3.5,0.3,5.2c0.1,1.1,0.9,2.1,2.1,2.1c1,0,2.2-1,2.1-2.1c-0.2-1.7-0.3-3.5-0.3-5.2
						C57,328,52.8,328,52.8,330.7L52.8,330.7z"/>
				</g>
			</g>
			<g>
				<path class="st4" d="M68.9,304.3c0.2,2,0.1,4,0.1,5.9"/>
				<g>
					<path class="st5" d="M66.8,304.3c0.2,2,0.1,3.9,0.1,5.9c0,2.7,4.2,2.7,4.2,0c0-2,0.1-3.9-0.1-5.9c-0.1-1.1-0.9-2.1-2.1-2.1
						C67.8,302.2,66.7,303.2,66.8,304.3L66.8,304.3z"/>
				</g>
			</g>
			<g>
				<path class="st4" d="M77.5,291.5c0.1,1.9,0.3,3.8,0.4,5.7"/>
				<g>
					<path class="st5" d="M75.4,291.5c0.1,1.9,0.3,3.8,0.4,5.7c0.2,2.7,4.4,2.7,4.2,0c-0.1-1.9-0.3-3.8-0.4-5.7
						C79.4,288.8,75.2,288.8,75.4,291.5L75.4,291.5z"/>
				</g>
			</g>
			<g>
				<path class="st4" d="M84.8,280.8c0.2,1.4,0.8,2.9,0.9,4.4"/>
				<g>
					<path class="st5" d="M82.8,281.4c0.2,1.3,0.7,2.6,0.8,3.9c0.1,1.1,0.9,2.1,2.1,2.1c1.1,0,2.2-1,2.1-2.1c-0.2-1.7-0.7-3.3-1-5
						c-0.2-1.1-1.6-1.7-2.6-1.5C83.1,279.1,82.6,280.3,82.8,281.4L82.8,281.4z"/>
				</g>
			</g>
			<g>
				<path class="st4" d="M85.6,295.9c0.3,0.7,0.6,1.4,0.7,2.1"/>
				<g>
					<path class="st5" d="M83.8,297c0.2,0.5-0.1-0.4,0.1,0.1c0.1,0.2,0.1,0.3,0.2,0.5c0.1,0.3,0.2,0.6,0.2,1
						c0.2,1.1,1.6,1.8,2.6,1.5c1.2-0.4,1.7-1.4,1.5-2.6c-0.2-0.9-0.5-1.8-0.9-2.6c-0.5-1-2-1.3-2.9-0.8
						C83.5,294.7,83.3,295.9,83.8,297L83.8,297z"/>
				</g>
			</g>
			<g>
				<path class="st4" d="M94.5,285.4c0.3,2.1,0.6,4.2,0.9,6.3"/>
				<g>
					<path class="st5" d="M92.5,285.9c0.3,2.1,0.6,4.2,0.9,6.3c0.2,1.1,1.6,1.7,2.6,1.5c1.2-0.3,1.6-1.5,1.5-2.6
						c-0.3-2.1-0.6-4.2-0.9-6.3c-0.2-1.1-1.6-1.7-2.6-1.5C92.7,283.7,92.3,284.8,92.5,285.9L92.5,285.9z"/>
				</g>
			</g>
			<g>
				<path class="st4" d="M101.1,275.3c0.4,1.7,0.7,3.3,0.8,5"/>
				<g>
					<path class="st5" d="M99.1,275.8c0.4,1.5,0.6,2.9,0.7,4.4c0.1,1.1,0.9,2.1,2.1,2.1c1.1,0,2.2-1,2.1-2.1
						c-0.1-1.9-0.4-3.7-0.9-5.5C102.5,272.1,98.5,273.2,99.1,275.8L99.1,275.8z"/>
				</g>
			</g>
			<g>
				<path class="st4" d="M109.9,265.8c-0.2,1.9,0.4,3.8,0.6,5.5"/>
				<g>
					<path class="st5" d="M107.8,265.8c-0.2,1.9,0.4,3.7,0.6,5.5c0.1,1.1,0.9,2.1,2.1,2.1c1.1,0,2.2-1,2.1-2.1
						c-0.2-1.9-0.7-3.7-0.6-5.5c0.1-1.1-1-2.1-2.1-2.1C108.7,263.7,107.9,264.7,107.8,265.8L107.8,265.8z"/>
				</g>
			</g>
			<g>
				<path class="st4" d="M109.9,281.9c0.4,1.6,0.4,3.3,0.4,5"/>
				<g>
					<path class="st5" d="M107.9,282.5c0.4,1.5,0.4,2.9,0.4,4.4c0,2.7,4.2,2.7,4.2,0c0-1.9,0-3.7-0.5-5.5
						C111.2,278.8,107.2,279.9,107.9,282.5L107.9,282.5z"/>
				</g>
			</g>
			<g>
				<path class="st4" d="M119.3,275.2c0.1,1,0.4,2.1,0.7,3.1"/>
				<g>
					<path class="st5" d="M117.2,275.2c0.2,1.2,0.5,2.4,0.7,3.7c0.2,1.1,1.5,1.8,2.6,1.5c1.1-0.4,1.7-1.4,1.5-2.6
						c-0.1-0.5-0.2-1-0.3-1.4c-0.1-0.2-0.1-0.4-0.2-0.7c0-0.1-0.1-0.8-0.1-0.4c-0.1-1.1-0.9-2.1-2.1-2.1
						C118.3,273.1,117.1,274,117.2,275.2L117.2,275.2z"/>
				</g>
			</g>
			<g>
				<path class="st4" d="M130.2,271.5c0,0.6-0.1,1.1-0.2,1.7"/>
				<g>
					<path class="st5" d="M128.1,271.5c0,0.1-0.1,0.9,0,0.4c0,0.2-0.1,0.5-0.1,0.7c-0.2,1.1,0.3,2.3,1.5,2.6c1,0.2,2.3-0.3,2.6-1.5
						c0.1-0.7,0.3-1.5,0.3-2.2c0-1.1-1-2.1-2.1-2.1C129,269.5,128.1,270.3,128.1,271.5L128.1,271.5z"/>
				</g>
			</g>
			<g>
				<path class="st4" d="M129.1,279.5c0.1,1,0.2,2,0.3,3"/>
				<g>
					<path class="st5" d="M127,279.5c0.1,1,0.2,2,0.3,3c0.1,1.1,0.9,2.1,2.1,2.1c1,0,2.2-0.9,2.1-2.1c-0.1-1-0.2-2-0.3-3
						c-0.1-1.1-0.9-2.1-2.1-2.1C128.1,277.4,126.9,278.3,127,279.5L127,279.5z"/>
				</g>
			</g>
			<g>
				<path class="st4" d="M139.5,273.8c0.4,1.7,0.2,3.5,0.2,5.3"/>
				<g>
					<path class="st5" d="M137.5,274.4c0.4,1.6,0.2,3.2,0.1,4.8c0,2.7,4.2,2.7,4.2,0c0-2,0.2-3.9-0.3-5.9
						C140.9,270.6,136.9,271.8,137.5,274.4L137.5,274.4z"/>
				</g>
			</g>
			<g>
				<path class="st4" d="M149.1,279.5c0,1.1,0,2.2,0,3.3"/>
				<g>
					<path class="st5" d="M147,279.5c0,1.1,0,2.2,0,3.3c0,1.1,1,2.1,2.1,2.1c1.1-0.1,2.1-0.9,2.1-2.1c0-1.1,0-2.2,0-3.3
						c0-1.1-1-2.1-2.1-2.1C147.9,277.4,147,278.3,147,279.5L147,279.5z"/>
				</g>
			</g>
			<g>
				<path class="st4" d="M156.7,270.7c-0.2,1.8-0.2,3.7-0.2,5.4"/>
				<g>
					<path class="st5" d="M154.6,270.7c-0.2,1.8-0.2,3.6-0.2,5.4c0,2.7,4.2,2.7,4.2,0c0-1.8,0-3.6,0.2-5.4c0.1-1.1-1.1-2.1-2.1-2.1
						C155.5,268.6,154.8,269.6,154.6,270.7L154.6,270.7z"/>
				</g>
			</g>
			<g>
				<path class="st4" d="M162.6,280.8c0,1.7,0,3.2,0.1,4.8"/>
				<g>
					<path class="st5" d="M160.5,280.8c0,1.6,0,3.2,0.1,4.8c0.1,1.1,0.9,2.1,2.1,2.1c1.1,0,2.2-1,2.1-2.1c-0.1-1.6-0.1-3.2-0.1-4.8
						C164.7,278.1,160.5,278.1,160.5,280.8L160.5,280.8z"/>
				</g>
			</g>
			<g>
				<path class="st4" d="M171.5,269.1c-0.3,1.8-0.6,3.8-1.2,5.3"/>
				<g>
					<path class="st5" d="M169.4,268.5c-0.3,1.8-0.5,3.6-1.2,5.3c-0.4,1,0.5,2.3,1.5,2.6c1.2,0.3,2.1-0.4,2.6-1.5
						c0.7-1.7,0.9-3.5,1.2-5.3c0.2-1.1-0.3-2.3-1.5-2.6C171,266.8,169.7,267.4,169.4,268.5L169.4,268.5z"/>
				</g>
			</g>
			<g>
				<path class="st4" d="M175.1,277.6c0,1.1-0.1,2.2-0.2,3.3"/>
				<g>
					<path class="st5" d="M173,277.6c0,1.1-0.1,2.2-0.2,3.3c-0.1,1.1,1,2.1,2.1,2.1c1.2-0.1,2-0.9,2.1-2.1c0.1-1.1,0.2-2.2,0.2-3.3
						c0-1.1-1-2.1-2.1-2.1C174,275.6,173,276.4,173,277.6L173,277.6z"/>
				</g>
			</g>
			<g>
				<path class="st4" d="M182.8,284.3c0,2-0.6,4-0.8,6"/>
				<g>
					<path class="st5" d="M180.7,284.3c0,2-0.5,4-0.8,6c-0.1,1.1,1.1,2.1,2.1,2.1c1.2,0,2-1,2.1-2.1c0.2-2,0.7-4,0.8-6
						C184.9,281.6,180.7,281.6,180.7,284.3L180.7,284.3z"/>
				</g>
			</g>
			<g>
				<path class="st4" d="M183.2,268.9c-0.1,1.6-0.7,3.1-0.7,4.8"/>
				<g>
					<path class="st5" d="M181.1,268.9c-0.1,1.6-0.6,3.1-0.7,4.8c-0.1,2.7,4.1,2.7,4.2,0c0-1.6,0.5-3.2,0.7-4.8
						c0.1-1.1-1-2.1-2.1-2.1C182,266.9,181.2,267.8,181.1,268.9L181.1,268.9z"/>
				</g>
			</g>
			<g>
				<path class="st4" d="M190.7,277.6c-0.1,2.2,0.9,4.2,1.1,6.3"/>
				<g>
					<path class="st5" d="M188.6,277.6c0,2.2,0.8,4.2,1.1,6.3c0.1,1.1,0.9,2.1,2.1,2.1c1,0,2.2-1,2.1-2.1c-0.3-2.1-1.1-4.2-1.1-6.3
						C192.8,274.9,188.6,274.9,188.6,277.6L188.6,277.6z"/>
				</g>
			</g>
			<g>
				<path class="st4" d="M197.5,288.2c0,2.1,0.2,4.1,0.3,6.1"/>
				<g>
					<path class="st5" d="M195.4,288.2c0,2,0.2,4.1,0.3,6.1c0.2,2.7,4.3,2.7,4.2,0c-0.1-2-0.3-4.1-0.3-6.1
						C199.6,285.6,195.4,285.5,195.4,288.2L195.4,288.2z"/>
				</g>
			</g>
			<g>
				<path class="st4" d="M197.6,270.9c0,1.7,0.3,3.2,0.8,4.8"/>
				<g>
					<path class="st5" d="M195.6,270.9c0,1.8,0.4,3.6,0.9,5.3c0.7,2.6,4.8,1.5,4-1.1c-0.4-1.4-0.7-2.8-0.7-4.2
						C199.7,268.3,195.5,268.2,195.6,270.9L195.6,270.9z"/>
				</g>
			</g>
			<g>
				<path class="st4" d="M205,281.1c0.6,1.4,0.8,2.9,1.1,4.3"/>
				<g>
					<path class="st5" d="M202.9,281.7c0.5,1.4,0.8,2.9,1.1,4.3c0.2,1.1,1.5,1.8,2.6,1.5s1.7-1.5,1.5-2.6c-0.3-1.5-0.6-2.9-1.1-4.3
						c-0.4-1.1-1.4-1.8-2.6-1.5C203.4,279.4,202.6,280.6,202.9,281.7L202.9,281.7z"/>
				</g>
			</g>
			<g>
				<path class="st4" d="M207.8,294.7c0.1,2.2,0.4,4.3,0.4,6.4"/>
				<g>
					<path class="st5" d="M205.8,294.7c0.1,2.1,0.4,4.3,0.4,6.4c0,2.7,4.2,2.7,4.2,0c0-2.2-0.3-4.3-0.4-6.4
						C209.8,292,205.6,292,205.8,294.7L205.8,294.7z"/>
				</g>
			</g>
			<g>
				<path class="st4" d="M215.5,287.2c0.4,2.6,1.2,5.3,1.9,7.9"/>
				<g>
					<path class="st5" d="M213.5,287.8c0.5,2.7,1.2,5.3,1.9,7.9s4.7,1.5,4-1.1s-1.4-5.2-1.9-7.9S213,285.2,213.5,287.8L213.5,287.8z
						"/>
				</g>
			</g>
			<g>
				<path class="st4" d="M222.4,299c0.2,1.7,0.1,3.3,0.1,5"/>
				<g>
					<path class="st5" d="M220.3,299c0.2,1.7,0.1,3.3,0.1,5c0,2.7,4.2,2.7,4.2,0c0-1.7,0.1-3.3-0.1-5c-0.1-1.1-0.9-2.1-2.1-2.1
						C221.4,296.9,220.2,297.9,220.3,299L220.3,299z"/>
				</g>
			</g>
			<g>
				<path class="st4" d="M221.9,280.4c0.1,1.9,0.6,3.9,0.7,5.8"/>
				<g>
					<path class="st5" d="M219.8,280.4c0.1,1.9,0.5,3.8,0.7,5.8c0.2,2.7,4.4,2.7,4.2,0c-0.1-1.9-0.5-3.8-0.7-5.8
						C223.8,277.7,219.7,277.7,219.8,280.4L219.8,280.4z"/>
				</g>
			</g>
			<g>
				<path class="st4" d="M232.4,287.9c0.2,2.2,0.3,4.4,0.4,6.7"/>
				<g>
					<path class="st5" d="M230.3,287.9c0.2,2.2,0.3,4.4,0.4,6.7c0.1,2.7,4.3,2.7,4.2,0c-0.1-2.2-0.2-4.4-0.4-6.7
						c-0.1-1.1-0.9-2.1-2.1-2.1C231.3,285.8,230.2,286.8,230.3,287.9L230.3,287.9z"/>
				</g>
			</g>
			<g>
				<path class="st4" d="M233.4,303.9c0.1,2.1,0.9,4.1,0.9,6.3"/>
				<g>
					<path class="st5" d="M231.3,303.9c0.2,2.1,0.8,4.2,0.9,6.3c0.1,2.7,4.2,2.7,4.2,0c-0.1-2.2-0.7-4.2-0.9-6.3
						C235.3,301.2,231.1,301.2,231.3,303.9L231.3,303.9z"/>
				</g>
			</g>
			<g>
				<path class="st4" d="M216.3,309.1c0.7,1.2,1.1,2.6,1.3,3.9"/>
				<g>
					<path class="st5" d="M214.5,310.2c0.6,1.1,0.9,2.2,1.1,3.4c0.2,1.1,1.6,1.7,2.6,1.5c1.2-0.3,1.7-1.5,1.5-2.6
						c-0.3-1.5-0.8-3-1.5-4.4c-0.5-1-1.9-1.3-2.9-0.8C214.2,307.9,213.9,309.2,214.5,310.2L214.5,310.2z"/>
				</g>
			</g>
			<g>
				<path class="st4" d="M227,313.5c0,2.6-0.3,5.1-0.3,7.5"/>
				<g>
					<path class="st5" d="M224.9,313.5c0,2.5-0.3,5-0.3,7.5c0,2.7,4.2,2.7,4.2,0c0-2.5,0.3-5,0.3-7.5
						C229.2,310.8,225,310.8,224.9,313.5L224.9,313.5z"/>
				</g>
			</g>
			<g>
				<path class="st4" d="M234.5,327.5c0,1.3,0,2.8-0.2,4.1"/>
				<g>
					<path class="st5" d="M232.4,327.5c0,1.2,0,2.4-0.1,3.5c-0.2,1.1,0.3,2.2,1.5,2.6c1,0.3,2.4-0.3,2.6-1.5
						c0.2-1.6,0.3-3.1,0.3-4.7C236.6,324.8,232.4,324.8,232.4,327.5L232.4,327.5z"/>
				</g>
			</g>
			<g>
				<path class="st4" d="M223.6,329.5c0.4,1.9,0.8,3.8,1.2,5.7"/>
				<g>
					<path class="st5" d="M221.6,330.1c0.4,1.9,0.8,3.8,1.2,5.7c0.6,2.6,4.6,1.5,4-1.1c-0.4-1.9-0.8-3.8-1.2-5.7
						C225,326.3,221,327.4,221.6,330.1L221.6,330.1z"/>
				</g>
			</g>
			<g>
				<path class="st4" d="M231.1,341.6c0,1-0.3,2-0.4,3"/>
				<g>
					<path class="st5" d="M229,341.6c0,0.1-0.1,0.9,0,0.5c0,0.2-0.1,0.4-0.1,0.6c-0.1,0.6-0.2,1.2-0.3,1.8c-0.1,1.1,1.1,2.1,2.1,2.1
						c1.3-0.1,1.9-0.9,2.1-2.1c0,0.4,0.1-0.4,0.1-0.5c0-0.2,0.1-0.4,0.1-0.6c0.1-0.6,0.2-1.2,0.2-1.8c0-1.1-1-2.1-2.1-2.1
						C230,339.6,229.1,340.4,229,341.6L229,341.6z"/>
				</g>
			</g>
			<g>
				<path class="st4" d="M212.3,271.8c0.6,2.2,0.3,4.5,0.6,6.9"/>
				<g>
					<path class="st5" d="M210.3,272.4c0.5,2.1,0.3,4.2,0.5,6.3c0.2,2.7,4.4,2.7,4.2,0c-0.2-2.5-0.1-5-0.6-7.4
						C213.7,268.6,209.7,269.8,210.3,272.4L210.3,272.4z"/>
				</g>
			</g>
			<g>
				<path class="st4" d="M233.1,270.6c0.2,1.9-0.2,3.8-0.3,5.7"/>
				<g>
					<path class="st5" d="M231,270.6c0.2,1.9-0.2,3.8-0.3,5.7c-0.1,1.1,1,2.1,2.1,2.1c1.2,0,2-1,2.1-2.1c0.1-1.9,0.5-3.8,0.3-5.7
						c-0.1-1.1-0.9-2.1-2.1-2.1C232.1,268.5,230.9,269.5,231,270.6L231,270.6z"/>
				</g>
			</g>
			<g>
				<path class="st4" d="M223,264.5c0,1.6,0,3.1,0,4.5"/>
				<g>
					<path class="st5" d="M221,264.5c0,1.5,0,3,0,4.5c0,2.7,4.2,2.7,4.2,0c0-1.5,0-3,0-4.5C225.1,261.8,221,261.8,221,264.5
						L221,264.5z"/>
				</g>
			</g>
			<g>
				<path class="st4" d="M192.6,259.8c0,1.6-0.7,2.9-1,4.4"/>
				<g>
					<path class="st5" d="M190.6,259.8c0,1.3-0.6,2.6-0.9,3.9c-0.3,1.1,0.3,2.3,1.5,2.6c1.1,0.3,2.3-0.4,2.6-1.5
						c0.4-1.7,1-3.2,1.1-5C194.8,257.2,190.6,257.2,190.6,259.8L190.6,259.8z"/>
				</g>
			</g>
			<g>
				<path class="st4" d="M205.6,265.8c0.1,1,0.1,1.9,0.1,2.9"/>
				<g>
					<path class="st5" d="M203.5,265.8c0.1,1,0.1,1.9,0.1,2.9c0,1.1,1,2.1,2.1,2.1c1.1-0.1,2.1-0.9,2.1-2.1c0-1,0-1.9-0.1-2.9
						c-0.1-1.1-0.9-2.1-2.1-2.1C204.6,263.8,203.4,264.7,203.5,265.8L203.5,265.8z"/>
				</g>
			</g>
			<g>
				<path class="st4" d="M240.1,237.2c0.2-2.4,0.6-4.9,0.9-7.2"/>
				<g>
					<path class="st5" d="M242.2,237.2c0.2-2.2,0.5-4.4,0.8-6.7c0.2-1.1-0.3-2.2-1.5-2.6c-1-0.3-2.4,0.3-2.6,1.5
						c-0.4,2.6-0.7,5.2-1,7.8C237.8,239.9,242,239.9,242.2,237.2L242.2,237.2z"/>
				</g>
			</g>
			<g>
				<path class="st4" d="M229.3,230.7c0.1,1.7-0.2,3.3-0.2,5"/>
				<g>
					<path class="st5" d="M227.2,230.7c0.1,1.7-0.2,3.3-0.2,5c0,2.7,4.1,2.7,4.2,0c0-1.7,0.3-3.3,0.2-5
						C231.2,228,227,228,227.2,230.7L227.2,230.7z"/>
				</g>
			</g>
			<g>
				<path class="st4" d="M213.1,230.2c0.2,1.6-0.6,3.1-0.4,4.8"/>
				<g>
					<path class="st5" d="M211,230.2c0.2,1.6-0.5,3.2-0.4,4.8c0.1,2.7,4.3,2.7,4.2,0c-0.1-1.6,0.6-3.1,0.4-4.8
						c-0.1-1.1-0.9-2.1-2.1-2.1C212,228.1,210.9,229.1,211,230.2L211,230.2z"/>
				</g>
			</g>
			<g>
				<path class="st4" d="M221.9,225.2c0,1.7,0,3.2,0,4.8"/>
				<g>
					<path class="st5" d="M219.8,225.2c0,1.6,0,3.2,0,4.8c0,2.7,4.2,2.7,4.2,0c0-1.6,0-3.2,0-4.8C224,222.5,219.8,222.5,219.8,225.2
						L219.8,225.2z"/>
				</g>
			</g>
			<g>
				<path class="st4" d="M212.4,216.8c-0.3,1.1-0.9,2.2-1.1,3.4"/>
				<g>
					<path class="st5" d="M210.4,216.3c-0.4,1.2-0.9,2.2-1.1,3.4c-0.2,1.1,0.3,2.3,1.5,2.6c1,0.2,2.3-0.3,2.6-1.5
						c0.2-1.2,0.7-2.3,1.1-3.4c0.3-1-0.4-2.3-1.5-2.6C211.8,214.5,210.7,215.1,210.4,216.3L210.4,216.3z"/>
				</g>
			</g>
			<g>
				<path class="st4" d="M203.6,228c0.1,2.3,0,4.7,0,6.9"/>
				<g>
					<path class="st5" d="M201.5,228c0.1,2.3,0,4.6,0,6.9c0,2.7,4.2,2.7,4.2,0c0-2.3,0.1-4.6,0-6.9
						C205.6,225.3,201.4,225.3,201.5,228L201.5,228z"/>
				</g>
			</g>
			<g>
				<path class="st4" d="M234.7,217.8c0.1,1.4,0.1,2.8,0.1,4.2"/>
				<g>
					<path class="st5" d="M232.6,217.8c0.1,1.4,0.1,2.8,0.1,4.2c0,2.7,4.2,2.7,4.2,0c0-1.4,0-2.8-0.1-4.2c-0.1-1.1-0.9-2.1-2.1-2.1
						C233.6,215.7,232.5,216.7,232.6,217.8L232.6,217.8z"/>
				</g>
			</g>
			<g>
				<path class="st4" d="M223.7,212.8c0,1.1-0.1,2.1-0.2,3.2"/>
				<g>
					<path class="st5" d="M221.6,212.8c0,1.1-0.1,2.1-0.2,3.2c-0.1,1.1,1,2.1,2.1,2.1c1.2-0.1,2-0.9,2.1-2.1
						c0.1-1.1,0.2-2.1,0.2-3.2s-1-2.1-2.1-2.1C222.6,210.8,221.6,211.6,221.6,212.8L221.6,212.8z"/>
				</g>
			</g>
			<g>
				<path class="st4" d="M241.3,207.2c0.6,1.6,0.8,3.3,0.9,5"/>
				<g>
					<path class="st5" d="M239.3,207.7c0.5,1.4,0.7,2.9,0.8,4.4c0.1,1.1,0.9,2.1,2.1,2.1c1.1,0,2.2-1,2.1-2.1
						c-0.1-1.9-0.4-3.8-1-5.5C242.5,204.1,238.5,205.2,239.3,207.7L239.3,207.7z"/>
				</g>
			</g>
			<g>
				<path class="st4" d="M232.8,202.9c0,2.1,0,4.1-0.1,6.1"/>
				<g>
					<path class="st5" d="M230.7,202.9c0,2,0,4.1-0.1,6.1c-0.1,2.7,4,2.7,4.2,0c0.1-2,0.1-4.1,0.1-6.1
						C234.9,200.2,230.7,200.2,230.7,202.9L230.7,202.9z"/>
				</g>
			</g>
			<g>
				<path class="st4" d="M218.3,204.5c-0.4,1.4-1.1,2.9-1.4,4.3"/>
				<g>
					<path class="st5" d="M216.3,203.9c-0.5,1.5-1.1,2.8-1.4,4.3c-0.6,2.6,3.4,3.7,4,1.1c0.4-1.5,1-2.9,1.4-4.3
						C221.1,202.5,217.1,201.4,216.3,203.9L216.3,203.9z"/>
				</g>
			</g>
			<g>
				<path class="st4" d="M225.5,196.6c0,1.7-0.2,3.3-0.3,5"/>
				<g>
					<path class="st5" d="M223.4,196.6c0,1.7-0.2,3.3-0.3,5c-0.1,1.1,1,2.1,2.1,2.1c1.2,0,2-1,2.1-2.1c0.1-1.7,0.3-3.3,0.3-5
						C227.6,193.9,223.4,193.9,223.4,196.6L223.4,196.6z"/>
				</g>
			</g>
			<g>
				<path class="st4" d="M214.7,188.5c0.6,2,0.1,4.2,0.8,6.2"/>
				<g>
					<path class="st5" d="M212.7,189.1c0.5,2,0.2,4.2,0.8,6.2c0.8,2.6,4.8,1.5,4-1.1c-0.6-2-0.3-4.2-0.8-6.2
						C216.1,185.3,212.1,186.5,212.7,189.1L212.7,189.1z"/>
				</g>
			</g>
			<g>
				<path class="st4" d="M241.9,192c-0.1,1.4-0.1,2.8-0.1,4.2"/>
				<g>
					<path class="st5" d="M239.8,192c-0.1,1.4-0.1,2.8-0.1,4.2c0,2.7,4.2,2.7,4.2,0c0-1.4,0-2.8,0.1-4.2c0.1-1.1-1-2.1-2.1-2.1
						C240.7,189.9,239.9,190.8,239.8,192L239.8,192z"/>
				</g>
			</g>
			<g>
				<path class="st4" d="M234.8,186.7c0.3,1.9,0.6,3.9,0.8,5.8"/>
				<g>
					<path class="st5" d="M232.8,187.3c0.3,1.7,0.5,3.5,0.7,5.2c0.1,1.1,0.9,2.1,2.1,2.1c1,0,2.2-1,2.1-2.1
						c-0.2-2.1-0.5-4.2-0.9-6.3c-0.2-1.1-1.6-1.7-2.6-1.5C233.1,185.1,232.6,186.2,232.8,187.3L232.8,187.3z"/>
				</g>
			</g>
			<g>
				<path class="st4" d="M225.6,181.8c0.1,1.7-0.6,3.4-0.8,5"/>
				<g>
					<path class="st5" d="M223.5,181.8c0.1,1.5-0.5,2.9-0.7,4.4c-0.2,1.1,0.3,2.3,1.5,2.6c1,0.3,2.4-0.3,2.6-1.5
						c0.3-1.9,0.9-3.7,0.9-5.5C227.6,179.1,223.4,179.1,223.5,181.8L223.5,181.8z"/>
				</g>
			</g>
			<g>
				<path class="st4" d="M218.6,173.9c0.1,1.6,0.1,3.1,0.1,4.7"/>
				<g>
					<path class="st5" d="M216.5,173.9c0.1,1.6,0.1,3.1,0.1,4.7c0,2.7,4.2,2.7,4.2,0c0-1.6,0-3.1-0.1-4.7c-0.1-1.1-0.9-2.1-2.1-2.1
						C217.5,171.8,216.4,172.7,216.5,173.9L216.5,173.9z"/>
				</g>
			</g>
			<g>
				<path class="st4" d="M233.4,171.5c-0.1,1.6-0.1,3.1-0.1,4.7"/>
				<g>
					<path class="st5" d="M231.3,171.5c-0.1,1.6-0.1,3.1-0.1,4.7c0,2.7,4.2,2.7,4.2,0c0-1.6,0-3.1,0.1-4.7c0.1-1.1-1-2.1-2.1-2.1
						C232.2,169.5,231.3,170.4,231.3,171.5L231.3,171.5z"/>
				</g>
			</g>
			<g>
				<path class="st4" d="M242.8,176.3c0.6,2.1,0.4,4.3,0.4,6.5"/>
				<g>
					<path class="st5" d="M240.8,176.9c0.5,2,0.4,4,0.4,6c0,2.7,4.2,2.7,4.2,0c0-2.4,0-4.8-0.5-7.1
						C244.2,173.1,240.1,174.3,240.8,176.9L240.8,176.9z"/>
				</g>
			</g>
			<g>
				<path class="st4" d="M240.5,160.7c-0.1,2-0.3,3.9-0.3,5.9"/>
				<g>
					<path class="st5" d="M238.4,160.7c-0.1,2-0.3,3.9-0.3,5.9c0,2.7,4.2,2.7,4.2,0c0-2,0.2-3.9,0.3-5.9
						C242.7,158,238.5,158,238.4,160.7L238.4,160.7z"/>
				</g>
			</g>
			<g>
				<path class="st4" d="M225.3,161.1c0.6,2.2,0.7,4.5,0.8,6.9"/>
				<g>
					<path class="st5" d="M223.2,161.7c0.5,2.1,0.6,4.2,0.7,6.3c0.1,2.7,4.3,2.7,4.2,0c-0.1-2.5-0.3-5-0.9-7.4
						C226.7,157.9,222.6,159.1,223.2,161.7L223.2,161.7z"/>
				</g>
			</g>
			<g>
				<path class="st4" d="M232.4,153.6c0.3,1.9,0.8,3.9,1.4,5.7"/>
				<g>
					<path class="st5" d="M230.3,154.1c0.3,1.9,0.8,3.8,1.4,5.7c0.4,1.1,1.4,1.8,2.6,1.5c1-0.3,1.8-1.5,1.5-2.6
						c-0.7-1.8-1.1-3.7-1.4-5.7c-0.2-1.1-1.6-1.7-2.6-1.5C230.6,151.9,230.1,153,230.3,154.1L230.3,154.1z"/>
				</g>
			</g>
			<g>
				<path class="st4" d="M244,146.3c0.6,1.8,1,3.5,1.1,5.3"/>
				<g>
					<path class="st5" d="M242,146.8c0.5,1.6,0.9,3.1,1,4.8c0.1,1.1,0.9,2.1,2.1,2.1c1.1,0,2.2-1,2.1-2.1c-0.2-2-0.6-4-1.2-5.9
						C245.2,143.1,241.2,144.2,242,146.8L242,146.8z"/>
				</g>
			</g>
			<g>
				<path class="st4" d="M235.9,139.4c1,1.9,1.1,4.4,1.6,6.5"/>
				<g>
					<path class="st5" d="M234.1,140.4c0.9,1.8,0.9,4.1,1.3,6c0.5,2.6,4.6,1.5,4-1.1c-0.5-2.4-0.7-4.8-1.8-7
						C236.5,135.9,232.9,138,234.1,140.4L234.1,140.4z"/>
				</g>
			</g>
			<g>
				<path class="st4" d="M225.7,139.7c0.1,2.6,0.1,5,0.4,7.4"/>
				<g>
					<path class="st5" d="M223.6,139.7c0.1,2.5,0.1,5,0.4,7.4c0.1,1.1,0.9,2.1,2.1,2.1c1,0,2.2-1,2.1-2.1c-0.3-2.5-0.3-4.9-0.4-7.4
						C227.7,137,223.5,137,223.6,139.7L223.6,139.7z"/>
				</g>
			</g>
			<g>
				<path class="st4" d="M246.2,127.3c0.2,2.2,0,4.4,0,6.5"/>
				<g>
					<path class="st5" d="M244.1,127.3c0.2,2.2,0,4.4,0,6.5c0,2.7,4.2,2.7,4.2,0c0-2.2,0.2-4.4,0-6.5
						C248.1,124.6,243.9,124.6,244.1,127.3L244.1,127.3z"/>
				</g>
			</g>
			<g>
				<path class="st4" d="M232.4,125.7c0,1.6,0,3.1,0,4.7"/>
				<g>
					<path class="st5" d="M230.3,125.7c0,1.6,0,3.1,0,4.7c0,2.7,4.2,2.7,4.2,0c0-1.6,0-3.1,0-4.7C234.5,123,230.3,123,230.3,125.7
						L230.3,125.7z"/>
				</g>
			</g>
			<g>
				<path class="st4" d="M239.9,119.6c0.1,1.6,0,3.1,0,4.8"/>
				<g>
					<path class="st5" d="M237.8,119.6c0.1,1.6,0,3.2,0,4.8c0,2.7,4.2,2.7,4.2,0c0-1.6,0.1-3.2,0-4.8c-0.1-1.1-0.9-2.1-2.1-2.1
						C238.8,117.5,237.7,118.5,237.8,119.6L237.8,119.6z"/>
				</g>
			</g>
			<g>
				<path class="st4" d="M247.3,109.4c0.4,1.3,0.6,2.6,0.7,3.9"/>
				<g>
					<path class="st5" d="M245.3,110c0.4,1.1,0.5,2.2,0.6,3.3s0.9,2.1,2.1,2.1c1.1,0,2.2-1,2.1-2.1c-0.1-1.5-0.3-3-0.7-4.4
						c-0.3-1.1-1.5-1.8-2.6-1.5C245.7,107.7,245,108.9,245.3,110L245.3,110z"/>
				</g>
			</g>
			<g>
				<path class="st4" d="M230.6,105.3c0.2,2.6-0.1,5.3,0.3,7.9"/>
				<g>
					<path class="st5" d="M228.5,105.3c0.2,2.8,0,5.6,0.4,8.4c0.2,1.1,1.6,1.7,2.6,1.5c1.2-0.3,1.6-1.5,1.5-2.6
						c-0.4-2.4-0.1-4.9-0.3-7.3C232.5,102.7,228.3,102.6,228.5,105.3L228.5,105.3z"/>
				</g>
			</g>
			<g>
				<path class="st4" d="M237.5,101c0.6,2.1,1.1,4.2,1.8,6.3"/>
				<g>
					<path class="st5" d="M235.4,101.6c0.6,2.1,1.1,4.2,1.8,6.3c0.8,2.6,4.8,1.5,4-1.1c-0.7-2.1-1.2-4.2-1.8-6.3
						C238.8,97.8,234.8,98.9,235.4,101.6L235.4,101.6z"/>
				</g>
			</g>
			<g>
				<path class="st4" d="M247.2,89.4c0.2,1.9,0.2,3.9,0,5.8"/>
				<g>
					<path class="st5" d="M245.1,89.4c0.2,1.9,0.2,3.8,0,5.8c-0.1,1.1,1,2.1,2.1,2.1c1.2,0,2-1,2.1-2.1c0.2-1.9,0.2-3.8,0-5.8
						c-0.1-1.1-0.9-2.1-2.1-2.1C246.2,87.3,245,88.2,245.1,89.4L245.1,89.4z"/>
				</g>
			</g>
			<g>
				<path class="st4" d="M230.8,86.2c0,2.4,0.1,4.8,0.2,7.2"/>
				<g>
					<path class="st5" d="M228.7,86.2c0,2.4,0.1,4.8,0.2,7.2c0.1,2.7,4.3,2.7,4.2,0c-0.1-2.4-0.2-4.8-0.2-7.2
						C232.9,83.6,228.7,83.6,228.7,86.2L228.7,86.2z"/>
				</g>
			</g>
			<g>
				<path class="st4" d="M240.2,81.3c0,2.4,0.9,5.1,0.4,7.4"/>
				<g>
					<path class="st5" d="M238.1,81.3c0.1,2.3,0.9,4.6,0.5,6.9c-0.2,1.1,0.3,2.2,1.5,2.6c1,0.3,2.4-0.3,2.6-1.5
						c0.4-2.7-0.3-5.3-0.4-8C242.3,78.6,238.1,78.6,238.1,81.3L238.1,81.3z"/>
				</g>
			</g>
			<g>
				<path class="st4" d="M250.8,72.8c0.2,1.7,0.1,3.2,0.1,4.8"/>
				<g>
					<path class="st5" d="M248.7,72.8c0.2,1.6,0.1,3.2,0.1,4.8c0,2.7,4.2,2.7,4.2,0c0-1.6,0.1-3.2-0.1-4.8c-0.1-1.1-0.9-2.1-2.1-2.1
						C249.7,70.7,248.5,71.7,248.7,72.8L248.7,72.8z"/>
				</g>
			</g>
			<g>
				<path class="st4" d="M232.8,69.8c0.3,1.9,0.3,4.3,1.6,5.9"/>
				<g>
					<path class="st5" d="M230.8,70.4c0.4,2.2,0.4,4.5,1.8,6.4c0.7,0.9,1.8,1.4,2.9,0.8c0.9-0.5,1.4-1.9,0.8-2.9
						c-1.1-1.5-1-3.6-1.3-5.4c-0.2-1.1-1.6-1.7-2.6-1.5C231.1,68.1,230.6,69.3,230.8,70.4L230.8,70.4z"/>
				</g>
			</g>
			<g>
				<path class="st4" d="M221.2,70.2c0,1.9,0,3.7,0,5.5"/>
				<g>
					<path class="st5" d="M219.1,70.2c0,1.8,0,3.7,0,5.5c0,2.7,4.2,2.7,4.2,0c0-1.8,0-3.7,0-5.5C223.2,67.5,219.1,67.5,219.1,70.2
						L219.1,70.2z"/>
				</g>
			</g>
			<g>
				<path class="st4" d="M243.1,65.4c-0.1,1.6,0.1,3,0.6,4.5"/>
				<g>
					<path class="st5" d="M241,65.4c-0.1,1.7,0.2,3.4,0.6,5.1c0.7,2.6,4.8,1.5,4-1.1c-0.4-1.3-0.6-2.6-0.5-4c0.1-1.1-1-2.1-2.1-2.1
						C241.9,63.3,241.1,64.3,241,65.4L241,65.4z"/>
				</g>
			</g>
			<g>
				<path class="st4" d="M226.7,59.5c0,1.4-0.3,2.9-0.7,4.3"/>
				<g>
					<path class="st5" d="M224.6,59.5c0,1.3-0.3,2.5-0.6,3.8c-0.3,1.1,0.3,2.3,1.5,2.6c1.1,0.3,2.3-0.4,2.6-1.5
						c0.4-1.6,0.7-3.2,0.7-4.9C228.8,56.8,224.7,56.8,224.6,59.5L224.6,59.5z"/>
				</g>
			</g>
			<g>
				<path class="st4" d="M214.3,57.4c0.1,1.9,0.1,3.8,0.1,5.7"/>
				<g>
					<path class="st5" d="M212.2,57.4c0.1,1.9,0.1,3.8,0.1,5.7c0,2.7,4.2,2.7,4.2,0c0-1.9,0-3.8-0.1-5.7
						C216.2,54.7,212,54.7,212.2,57.4L212.2,57.4z"/>
				</g>
			</g>
			<g>
				<path class="st4" d="M209.5,69.6c0.3,1.8,0.7,3.4,0.9,5.2"/>
				<g>
					<path class="st5" d="M207.5,70.2c0.3,1.5,0.6,3.1,0.8,4.7c0.1,1.1,0.9,2.1,2.1,2.1c1,0,2.2-1,2.1-2.1c-0.3-1.9-0.6-3.9-1-5.8
						c-0.2-1.1-1.5-1.7-2.6-1.5C207.8,67.9,207.3,69.1,207.5,70.2L207.5,70.2z"/>
				</g>
			</g>
		</g>
		<g>
			<path class="st6" d="M209.6,212.1c-9.8,36.8-21.8,61.8-68.5,61.9c-45.7,0.1-60.2-36.5-74-85c-6.3-22,15.6-93.2,28.2-106.1
				c16.3-16.5,14.2-2.4,41.1-2.4s75.8-17.6,90,0C240.7,98.2,215.5,190,209.6,212.1z"/>
			<path class="st7" d="M133.9,124.2c0,24.8,19.4,45,43.3,45s43.3-20.1,43.3-45c0-24.8-19.4-44.9-43.3-44.9
				C153.3,79.3,133.9,99.4,133.9,124.2z"/>
			<ellipse class="st6" cx="176.6" cy="122.8" rx="21.4" ry="22"/>
			<path class="st7" d="M166.5,121.4c0,5.5,4.4,10,9.7,10c5.4,0,9.7-4.5,9.7-10s-4.4-10-9.7-10C170.8,111.3,166.5,115.8,166.5,121.4
				z"/>
			<ellipse class="st7" cx="184.8" cy="135.5" rx="4" ry="4.1"/>
			<path class="st8" d="M149.5,174.4c1,6.7-3,10.6-7.4,10.4c-4.4-0.1-8-3.3-7.8-8.9c0.2-5.3,3.1-11.3,7.2-16.4
				C141.5,159.6,148.6,168.4,149.5,174.4z"/>
			<path class="st7" d="M188.8,232.4c0,19.2-25.4,31-47.5,31s-46.5-11.8-46.5-31s25.1-38.8,47.2-38.8
				C164,193.6,188.8,213.2,188.8,232.4z"/>
			<path class="st6" d="M146.6,197.3c0.3,1.4,2.2,12.5,2.2,12.5s5.6-8.2,7.1-10.5C155.2,198.2,148.9,196.2,146.6,197.3z"/>
			<path class="st6" d="M157.9,200.2c-0.2,2-1.8,17.7-1.8,17.7s10.8-8.9,13.7-11.4C169.2,204.8,161.4,199.6,157.9,200.2z"/>
			<path class="st6" d="M171.1,207.7c-0.2,0.8-2.1,7.2-2.1,7.2s5.1-2.8,6.5-3.7C175.4,210.5,172.6,207.8,171.1,207.7z"/>
			<path class="st6" d="M159.1,258.1c-0.6-0.6-5.9-4.8-5.9-4.8s0.1,5.9,0.2,7.5C154.1,261,158.4,259.4,159.1,258.1z"/>
			<path class="st6" d="M172.2,252.5c-1.4-1.4-16.3-21.2-16.3-21.2s6.8,21.9,7,25.7C166.6,256.5,169.7,255,172.2,252.5z"/>
			
				<ellipse transform="matrix(0.1545 -0.988 0.988 0.1545 -96.2492 248.7484)" class="st9" cx="97.2" cy="180.6" rx="6.1" ry="6.1"/>
			
				<ellipse transform="matrix(0.1545 -0.988 0.988 0.1545 -16.0521 346.0673)" class="st9" cx="194.2" cy="182.4" rx="5.1" ry="5.1"/>
		</g>
		<path class="st10" d="M218,44c-5.2-22-29.3-41.8-76.4-43.9C94.5-2,64.2,50.3,64.2,50.3s-0.6,90.5-12.1,159.5
			c13.6,2.1,67.3-91.9,67.3-91.9s-0.4,25.6-10.1,41.7C130.3,163.7,223.3,66,218,44z"/>
		<path class="st3" d="M52.2,209.8c10.9-16.5,71.8-103.4,78-160.2c1.6,2,12.9,39-0.8,77.7c7.3,2.2,53.9-30.1,83.8-66.8
			c0,1.5-69.8,108.5-103.9,99c10.3-22.1,9.4-32.3,9.4-32.3S63.4,213.3,52.2,209.8z"/>
		<g>
			<path class="st11" d="M201.6,71.9c1.3-3.2-0.3-5.5-2.5-6c-2.2-0.4-4.3,0.7-4.8,3.5c-0.5,2.6,0.2,5.9,1.7,8.9
				C196,78.2,200.5,74.7,201.6,71.9z"/>
			<path class="st11" d="M184.8,67.6c0.7-3.4-1.3-5.4-3.5-5.4s-4.1,1.5-4.1,4.3c0,2.7,1.3,5.8,3.2,8.5
				C180.4,74.9,184.2,70.6,184.8,67.6z"/>
			<path class="st11" d="M167.3,67.9c-0.3-3.4-2.7-4.9-4.8-4.3c-2.2,0.6-3.6,2.5-2.8,5.2c0.7,2.6,2.8,5.2,5.4,7.3
				C165,76.1,167.6,70.9,167.3,67.9z"/>
		</g>
		<path class="st1" d="M35.5,193.6c-16.9-2-30.7,1.1-27.7,11.8c4.8,12.7,74.3,4.1,74.3,10.7c0,5.4-9.8,4.7-9.8,4.7s9.8,0.7,9.9,3.9
			c0.1,4.4-9.7,3.3-9.7,3.3s8.6,1.7,7.2,5.9C77.9,239,0,228.4,0,206.8c0-19.2,34.2-26.2,34.2-26.2L35.5,193.6z"/>
		<g>
			<g>
				<path class="st4" d="M30.7,184.8c-1.2,0-2.4,0.1-3.5,0.4"/>
				<g>
					<path class="st5" d="M30.7,183.8c-1.3,0-2.5,0.2-3.7,0.5c-1.3,0.4-0.7,2.4,0.6,2c1-0.3,2.1-0.4,3.2-0.4
						C32,185.9,32,183.8,30.7,183.8L30.7,183.8z"/>
				</g>
			</g>
			<g>
				<path class="st4" d="M31.3,188.7c-0.9,0-1.6,0-2.6,0.2"/>
				<g>
					<path class="st5" d="M31.3,187.7c-1,0-1.9,0-2.8,0.2c-0.6,0.1-0.9,0.8-0.7,1.3c0.2,0.6,0.7,0.8,1.3,0.7
						c0.8-0.1,1.5-0.1,2.3-0.1C32.6,189.8,32.6,187.7,31.3,187.7L31.3,187.7z"/>
				</g>
			</g>
			<g>
				<path class="st4" d="M25,187.7c-0.5,0.2-0.9,0.2-1.2,0.3"/>
				<g>
					<path class="st5" d="M24.7,186.7c-0.4,0.1-0.8,0.1-1.2,0.3c-0.5,0.2-0.9,0.7-0.7,1.3c0.1,0.5,0.8,0.9,1.3,0.7
						c0.4-0.2,0.8-0.2,1.2-0.3C26.5,188.3,26,186.3,24.7,186.7L24.7,186.7z"/>
				</g>
			</g>
			<g>
				<path class="st4" d="M19.6,187.8c-0.4,0.4-1.1,0.7-1.5,1.1"/>
				<g>
					<path class="st5" d="M18.8,187.1c-0.4,0.4-0.9,0.6-1.3,0.9c-1.1,0.7-0.1,2.5,1.1,1.8c0.6-0.4,1.2-0.7,1.7-1.2
						C21.3,187.6,19.8,186.2,18.8,187.1L18.8,187.1z"/>
				</g>
			</g>
			<g>
				<path class="st4" d="M21.2,190.8c-0.5,0-0.9,0.2-1.2,0.3"/>
				<g>
					<path class="st5" d="M21.2,189.8c-0.6,0-1.2,0.2-1.7,0.4c-0.5,0.2-0.6,1-0.4,1.4c0.3,0.5,0.9,0.6,1.4,0.4
						c0.2-0.1,0.4-0.1,0.7-0.2C22.6,191.8,22.6,189.7,21.2,189.8L21.2,189.8z"/>
				</g>
			</g>
			<g>
				<path class="st4" d="M14.9,191.4c-0.7,0.1-1.3,0.3-1.9,0.8"/>
				<g>
					<path class="st5" d="M14.6,190.4c-0.8,0.2-1.5,0.4-2.2,0.9c-0.5,0.3-0.7,0.9-0.4,1.4s1,0.7,1.4,0.4c0.5-0.4,1.1-0.5,1.7-0.6
						c0.6-0.1,0.9-0.8,0.7-1.3C15.8,190.6,15.2,190.3,14.6,190.4L14.6,190.4z"/>
				</g>
			</g>
			<g>
				<path class="st4" d="M9.2,193.4c-0.3,0.3-0.8,0.6-1.1,0.8"/>
				<g>
					<path class="st5" d="M8.5,192.6c-0.3,0.2-0.5,0.4-0.8,0.6c-1.2,0.6-0.1,2.4,1.1,1.8c0.5-0.2,0.9-0.6,1.3-0.9
						C10.9,193.2,9.5,191.7,8.5,192.6L8.5,192.6z"/>
				</g>
			</g>
			<g>
				<path class="st4" d="M7.1,197.6c-0.1,0.4-0.3,0.8-0.4,1.2"/>
				<g>
					<path class="st5" d="M6.1,197.3c-0.1,0.4-0.3,0.8-0.4,1.2c-0.4,1.3,1.6,1.8,2,0.6c0.1-0.4,0.3-0.8,0.4-1.2
						C8.6,196.6,6.6,196,6.1,197.3L6.1,197.3z"/>
				</g>
			</g>
			<g>
				<path class="st4" d="M3.4,200.6c-0.1,0.6-0.3,1.2-0.5,1.8"/>
				<g>
					<path class="st5" d="M2.4,200.3c-0.1,0.6-0.3,1.2-0.5,1.8c-0.3,1.3,1.7,1.9,2,0.6c0.2-0.6,0.3-1.2,0.5-1.8
						C4.7,199.6,2.7,199,2.4,200.3L2.4,200.3z"/>
				</g>
			</g>
			<g>
				<path class="st4" d="M5.6,204.2c0.1,0.6,0.3,1.2,0.4,1.8"/>
				<g>
					<path class="st5" d="M4.6,204.5c0.1,0.6,0.3,1.2,0.4,1.8c0.3,1.3,2.3,0.8,2-0.6c-0.1-0.6-0.3-1.2-0.4-1.8
						C6.3,202.6,4.3,203.2,4.6,204.5L4.6,204.5z"/>
				</g>
			</g>
			<g>
				<path class="st4" d="M2.8,207.8c0.3,0.6,0.6,1.1,1.1,1.5"/>
				<g>
					<path class="st5" d="M1.9,208.3c0.3,0.6,0.7,1.2,1.2,1.7c0.9,1,2.4-0.5,1.5-1.5c-0.4-0.4-0.6-0.8-0.9-1.3
						C3.1,206.1,1.3,207.1,1.9,208.3L1.9,208.3z"/>
				</g>
			</g>
			<g>
				<path class="st4" d="M8,210.2c0.3,0.3,0.6,0.4,0.9,0.8"/>
				<g>
					<path class="st5" d="M7.3,210.9c0.3,0.3,0.6,0.5,0.9,0.8c1,0.9,2.5-0.6,1.5-1.5c-0.3-0.3-0.6-0.5-0.9-0.8
						C7.8,208.5,6.3,210,7.3,210.9L7.3,210.9z"/>
				</g>
			</g>
			<g>
				<path class="st4" d="M7.4,214.1c0.6,0.4,1.2,0.9,1.8,1.2"/>
				<g>
					<path class="st5" d="M6.9,215c0.6,0.4,1.2,0.9,1.8,1.2c1.2,0.6,2.3-1.2,1.1-1.8c-0.6-0.3-1.2-0.8-1.8-1.2
						c-0.5-0.3-1.2-0.1-1.4,0.4C6.2,214.1,6.4,214.6,6.9,215L6.9,215z"/>
				</g>
			</g>
			<g>
				<path class="st4" d="M12.8,212.3c0.8,0.1,1.5,0.1,2.3,0.1"/>
				<g>
					<path class="st5" d="M12.5,213.3c0.8,0.2,1.7,0.2,2.5,0.2c1.3,0,1.3-2.1,0-2.1c-0.7,0-1.3,0-2-0.1c-0.6-0.1-1.1,0.2-1.3,0.7
						C11.7,212.5,12,213.2,12.5,213.3L12.5,213.3z"/>
				</g>
			</g>
			<g>
				<path class="st4" d="M13.1,215.4c0.6,0.3,1.1,0.5,1.6,0.6"/>
				<g>
					<path class="st5" d="M12.6,216.3c0.6,0.3,1.2,0.5,1.9,0.7c1.3,0.3,1.9-1.7,0.6-2c-0.5-0.1-0.9-0.3-1.4-0.5s-1.1-0.1-1.4,0.4
						C12,215.4,12.1,216.1,12.6,216.3L12.6,216.3z"/>
				</g>
			</g>
			<g>
				<path class="st4" d="M14.3,218.7c0.9,0.8,2.1,0.9,3.2,0.9"/>
				<g>
					<path class="st5" d="M13.6,219.5c1.1,0.9,2.5,1.2,3.9,1.2c1.3,0,1.3-2.1,0-2.1c-0.8,0-1.7-0.1-2.4-0.6c-0.4-0.3-1-0.4-1.5,0
						C13.2,218.4,13.1,219.1,13.6,219.5L13.6,219.5z"/>
				</g>
			</g>
			<g>
				<path class="st4" d="M18.2,216.5c0.7,0.3,1.6,0.3,2.4,0.3"/>
				<g>
					<path class="st5" d="M17.9,217.5c0.9,0.3,1.8,0.3,2.7,0.3c1.3,0,1.3-2.1,0-2.1c-0.7,0-1.4,0-2.1-0.3c-0.5-0.2-1.1,0.2-1.3,0.7
						C17.1,216.8,17.4,217.3,17.9,217.5L17.9,217.5z"/>
				</g>
			</g>
			<g>
				<path class="st4" d="M20.9,213.8c0.6,0.1,1.2,0.1,2,0.1"/>
				<g>
					<path class="st5" d="M20.6,214.8c0.7,0.2,1.5,0.2,2.2,0.2c1.3,0,1.3-2.1,0-2.1c-0.6,0-1.1,0-1.7-0.1
						C19.9,212.5,19.3,214.5,20.6,214.8L20.6,214.8z"/>
				</g>
			</g>
			<g>
				<path class="st4" d="M23.6,221.1c0.5,0.1,1.1,0.1,1.6,0.1"/>
				<g>
					<path class="st5" d="M23.3,222.1c0.6,0.2,1.3,0.2,1.9,0.2c1.3,0,1.3-2.1,0-2.1c-0.5,0-0.9,0-1.4-0.1
						C22.6,219.8,22.1,221.8,23.3,222.1L23.3,222.1z"/>
				</g>
			</g>
			<g>
				<path class="st4" d="M25.1,218c0.5,0.1,0.9,0.1,1.2,0.1"/>
				<g>
					<path class="st5" d="M24.8,219c0.5,0.1,1,0.2,1.5,0.2c1.3,0,1.3-2.1,0-2.1c-0.3,0-0.6,0-0.9-0.1
						C24.1,216.6,23.6,218.6,24.8,219L24.8,219z"/>
				</g>
			</g>
			<g>
				<path class="st4" d="M27.2,215c0.5,0.1,1.1,0.1,1.5,0.1"/>
				<g>
					<path class="st5" d="M26.9,216c0.6,0.2,1.2,0.2,1.8,0.2c1.3,0,1.3-2.1,0-2.1c-0.4,0-0.8,0-1.2-0.1
						C26.2,213.6,25.7,215.6,26.9,216L26.9,216z"/>
				</g>
			</g>
			<g>
				<path class="st4" d="M29,221.1c0.4,0.1,1.1,0.1,1.6,0.1"/>
				<g>
					<path class="st5" d="M28.7,222.1c0.6,0.2,1.3,0.2,1.9,0.2c1.3,0,1.3-2.1,0-2.1c-0.5,0-0.9,0-1.4-0.1
						C28,219.8,27.5,221.8,28.7,222.1L28.7,222.1z"/>
				</g>
			</g>
			<g>
				<path class="st4" d="M32.3,218c0.1,0,0.3,0,0.5,0"/>
				<g>
					<path class="st5" d="M32.3,219c0.2,0,0.3,0,0.5,0c1.3,0,1.3-2.1,0-2.1c-0.2,0-0.3,0-0.5,0C31,216.9,31,219,32.3,219L32.3,219z"
						/>
				</g>
			</g>
			<g>
				<path class="st4" d="M33.1,224c0.9,0.1,2,0.1,3,0.1"/>
				<g>
					<path class="st5" d="M32.8,225c1.1,0.2,2.2,0.2,3.3,0.2c1.3,0,1.3-2.1,0-2.1c-0.9,0-1.8,0-2.7-0.1c-0.6-0.1-1.1,0.1-1.3,0.7
						C31.9,224.2,32.2,224.9,32.8,225L32.8,225z"/>
				</g>
			</g>
			<g>
				<path class="st4" d="M36.7,220.5c0.6,0,1.2,0.1,1.8,0.1"/>
				<g>
					<path class="st5" d="M36.7,221.6c0.6,0,1.2,0.1,1.8,0.1c1.3,0,1.3-2.1,0-2.1c-0.6,0-1.2-0.1-1.8-0.1
						C35.3,219.5,35.3,221.6,36.7,221.6L36.7,221.6z"/>
				</g>
			</g>
			<g>
				<path class="st4" d="M36.2,215.3c0.5,0.1,1.1,0.3,1.5,0.3"/>
				<g>
					<path class="st5" d="M35.9,216.3c0.6,0.2,1.2,0.3,1.8,0.3c1.3,0,1.3-2,0-2.1c-0.4,0-0.8-0.1-1.2-0.3
						C35.2,213.9,34.7,215.9,35.9,216.3L35.9,216.3z"/>
				</g>
			</g>
			<g>
				<path class="st4" d="M40.6,217.8c0.6,0.2,1.1,0.2,1.6,0.3"/>
				<g>
					<path class="st5" d="M40.3,218.8c0.5,0.1,1.1,0.2,1.6,0.3c1.3,0.3,1.9-1.7,0.6-2c-0.5-0.1-1.1-0.2-1.6-0.3
						C39.5,216.5,39,218.5,40.3,218.8L40.3,218.8z"/>
				</g>
			</g>
			<g>
				<path class="st4" d="M40.9,223.7c0.6,0.1,1.2,0.3,1.8,0.4"/>
				<g>
					<path class="st5" d="M40.6,224.7c0.6,0.1,1.2,0.3,1.8,0.4c1.3,0.3,1.9-1.7,0.6-2c-0.6-0.1-1.2-0.3-1.8-0.4
						C39.8,222.4,39.3,224.4,40.6,224.7L40.6,224.7z"/>
				</g>
			</g>
			<g>
				<path class="st4" d="M45.4,221.3c0.6,0,1.2,0,1.6,0.1"/>
				<g>
					<path class="st5" d="M45.4,222.3c0.5,0,0.9,0,1.4,0.1c1.3,0.4,1.8-1.6,0.6-2c-0.6-0.2-1.3-0.2-1.9-0.2
						C44,220.2,44,222.3,45.4,222.3L45.4,222.3z"/>
				</g>
			</g>
			<g>
				<path class="st4" d="M45.5,215.6c0.8,0.5,1.7,0.6,2.6,0.6"/>
				<g>
					<path class="st5" d="M45,216.5c0.9,0.5,2,0.7,3.1,0.7c1.3,0,1.3-2.1,0-2.1c-0.7,0-1.4-0.1-2-0.5C44.9,214,43.8,215.8,45,216.5
						L45,216.5z"/>
				</g>
			</g>
			<g>
				<path class="st4" d="M47.3,225.8c0.7,0.1,1.5,0.1,2.1,0.1"/>
				<g>
					<path class="st5" d="M47,226.8c0.8,0.1,1.6,0.2,2.4,0.2c1.3,0,1.3-2.1,0-2.1c-0.6,0-1.2,0-1.8-0.1s-1.1,0.2-1.3,0.7
						C46.2,226,46.5,226.7,47,226.8L47,226.8z"/>
				</g>
			</g>
			<g>
				<path class="st4" d="M50.9,219.8c0.6,0.1,1.2,0.1,1.8,0.1"/>
				<g>
					<path class="st5" d="M50.6,220.8c0.7,0.2,1.4,0.2,2.1,0.2c1.3,0,1.3-2.1,0-2.1c-0.5,0-1,0-1.5-0.1
						C49.9,218.5,49.3,220.5,50.6,220.8L50.6,220.8z"/>
				</g>
			</g>
			<g>
				<path class="st4" d="M52.3,223.5c0.5,0.3,0.9,0.4,1.5,0.4"/>
				<g>
					<path class="st5" d="M51.7,224.4c0.6,0.4,1.3,0.6,2,0.6c1.3,0,1.3-2.1,0-2.1c-0.4,0-0.7-0.1-1-0.3
						C51.7,221.9,50.6,223.7,51.7,224.4L51.7,224.4z"/>
				</g>
			</g>
			<g>
				<path class="st4" d="M56.8,221.9c0.6,0.1,1.2,0.1,1.8,0.3"/>
				<g>
					<path class="st5" d="M56.5,222.9c0.6,0.1,1.2,0.2,1.8,0.3c1.3,0.3,1.9-1.7,0.6-2c-0.6-0.1-1.2-0.2-1.8-0.3
						C55.7,220.6,55.2,222.6,56.5,222.9L56.5,222.9z"/>
				</g>
			</g>
			<g>
				<path class="st4" d="M55.6,216.8c0.5,0.3,0.9,0.6,1.5,0.8"/>
				<g>
					<path class="st5" d="M55,217.7c0.5,0.4,1.1,0.7,1.8,0.9c1.3,0.4,1.9-1.7,0.6-2c-0.5-0.1-0.9-0.4-1.3-0.6
						c-0.5-0.3-1.2-0.1-1.4,0.4C54.4,216.8,54.6,217.4,55,217.7L55,217.7z"/>
				</g>
			</g>
			<g>
				<path class="st4" d="M57.7,226.5c0.5,0,1.1,0,1.5,0"/>
				<g>
					<path class="st5" d="M57.7,227.6c0.5,0,1,0,1.5,0c1.3,0,1.3-2.1,0-2.1c-0.5,0-1,0-1.5,0C56.3,225.5,56.3,227.6,57.7,227.6
						L57.7,227.6z"/>
				</g>
			</g>
			<g>
				<path class="st4" d="M61.7,220.1c0.8,0.1,1.4,0.1,2.1,0.3"/>
				<g>
					<path class="st5" d="M61.4,221.1c0.7,0.1,1.4,0.2,2.1,0.3c0.6,0.1,1.1-0.2,1.3-0.7c0.1-0.5-0.2-1.2-0.7-1.3
						c-0.7-0.1-1.4-0.2-2.1-0.3c-0.6-0.1-1.1,0.2-1.3,0.7C60.6,220.3,60.9,221,61.4,221.1L61.4,221.1z"/>
				</g>
			</g>
			<g>
				<path class="st4" d="M63.1,224.6c0.3,0.1,0.6,0.1,0.9,0.1"/>
				<g>
					<path class="st5" d="M62.8,225.6c0.4,0.2,0.8,0.2,1.2,0.2c1.3,0,1.3-2.1,0-2.1c-0.2,0-0.4,0-0.6-0.1c-0.5-0.2-1.2,0.2-1.3,0.7
						C61.9,224.9,62.3,225.4,62.8,225.6L62.8,225.6z"/>
				</g>
			</g>
			<g>
				<path class="st4" d="M67.4,223.1c0.3,0.2,0.8,0.5,1.1,0.5"/>
				<g>
					<path class="st5" d="M66.9,224c0.5,0.3,1,0.5,1.6,0.6s1-0.5,1-1c0-0.6-0.5-1-1-1c0.2,0-0.1-0.1-0.1-0.1
						c-0.1-0.1-0.3-0.1-0.4-0.2C66.8,221.6,65.7,223.4,66.9,224L66.9,224z"/>
				</g>
			</g>
		</g>
		<path class="st3" d="M33.5,181.4l1,12.1c0,0-9.9-1.1-17.8,0.5C13.2,194.5,33.5,181.4,33.5,181.4z"/>
		<path class="st1" d="M244.4,220.8c16.9-2.4,30.7,0.3,28,11.1c-4.4,12.8-74.2,6-74,12.6c0.2,5.4,10,4.5,10,4.5s-9.8,1-9.8,4.2
			c0,4.4,9.8,3,9.8,3s-8.5,1.9-7.1,6.1c1.7,5,79.4-7.6,78.8-29.3c-0.5-19.2-34.9-25.3-34.9-25.3L244.4,220.8z"/>
		<path class="st3" d="M246.1,208.5l-0.7,12.1c0,0,9.7-1.4,17.7,0.2C266.5,221.2,246.1,208.5,246.1,208.5z"/>
		<g>
			<g>
				<path class="st4" d="M249.5,211.8c1.2,0,2.4,0.1,3.5,0.4"/>
				<g>
					<path class="st5" d="M249.5,212.8c1.1,0,2.1,0.1,3.2,0.4c1.3,0.4,1.9-1.7,0.6-2c-1.2-0.3-2.5-0.5-3.7-0.5
						C248.2,210.7,248.2,212.8,249.5,212.8L249.5,212.8z"/>
				</g>
			</g>
			<g>
				<path class="st4" d="M248.9,215.7c0.9,0,1.7,0,2.6,0.2"/>
				<g>
					<path class="st5" d="M248.9,216.7c0.8,0,1.5,0,2.3,0.1c0.6,0.1,1.1-0.1,1.3-0.7c0.1-0.5-0.2-1.2-0.7-1.3
						c-0.9-0.1-1.9-0.2-2.8-0.2C247.6,214.6,247.6,216.7,248.9,216.7L248.9,216.7z"/>
				</g>
			</g>
			<g>
				<path class="st4" d="M255.2,214.6c0.5,0.2,0.9,0.2,1.2,0.3"/>
				<g>
					<path class="st5" d="M254.9,215.6c0.4,0.1,0.8,0.1,1.2,0.3c0.5,0.2,1.2-0.2,1.3-0.7c0.2-0.6-0.2-1.1-0.7-1.3
						c-0.4-0.2-0.8-0.2-1.2-0.3C254.2,213.2,253.6,215.2,254.9,215.6L254.9,215.6z"/>
				</g>
			</g>
			<g>
				<path class="st4" d="M260.6,214.8c0.4,0.4,1.1,0.7,1.5,1.1"/>
				<g>
					<path class="st5" d="M259.9,215.5c0.5,0.5,1.1,0.8,1.7,1.2c1.1,0.7,2.2-1.1,1.1-1.8c-0.4-0.3-0.9-0.5-1.3-0.9
						C260.4,213.1,258.9,214.6,259.9,215.5L259.9,215.5z"/>
				</g>
			</g>
			<g>
				<path class="st4" d="M259,217.8c0.5,0,0.9,0.2,1.2,0.3"/>
				<g>
					<path class="st5" d="M259,218.8c0.2,0,0.5,0.1,0.7,0.2c0.5,0.2,1.1,0.1,1.4-0.4s0.1-1.2-0.4-1.4c-0.6-0.3-1.1-0.4-1.7-0.4
						C257.6,216.7,257.6,218.8,259,218.8L259,218.8z"/>
				</g>
			</g>
			<g>
				<path class="st4" d="M265.3,218.4c0.7,0.1,1.3,0.3,1.9,0.8"/>
				<g>
					<path class="st5" d="M265,219.4c0.6,0.1,1.2,0.3,1.7,0.6c0.5,0.3,1.2,0.1,1.4-0.4c0.3-0.5,0.1-1.1-0.4-1.4
						c-0.7-0.5-1.4-0.7-2.2-0.9c-0.6-0.1-1.1,0.2-1.3,0.7C264.1,218.6,264.4,219.3,265,219.4L265,219.4z"/>
				</g>
			</g>
			<g>
				<path class="st4" d="M271,220.3c0.3,0.3,0.8,0.6,1.1,0.8"/>
				<g>
					<path class="st5" d="M270.2,221.1c0.4,0.4,0.8,0.7,1.3,0.9c1.2,0.6,2.2-1.2,1.1-1.8c-0.3-0.2-0.6-0.3-0.8-0.6
						C270.7,218.6,269.2,220.1,270.2,221.1L270.2,221.1z"/>
				</g>
			</g>
			<g>
				<path class="st4" d="M273.1,224.5c0.1,0.4,0.3,0.8,0.4,1.2"/>
				<g>
					<path class="st5" d="M272.1,224.8c0.1,0.4,0.3,0.8,0.4,1.2c0.2,0.5,0.7,0.9,1.3,0.7c0.5-0.1,0.9-0.8,0.7-1.3
						c-0.1-0.4-0.3-0.8-0.4-1.2c-0.2-0.5-0.7-0.9-1.3-0.7C272.3,223.6,271.9,224.3,272.1,224.8L272.1,224.8z"/>
				</g>
			</g>
			<g>
				<path class="st4" d="M276.8,227.5c0.1,0.6,0.3,1.2,0.5,1.8"/>
				<g>
					<path class="st5" d="M275.8,227.8c0.1,0.6,0.3,1.2,0.5,1.8c0.3,1.3,2.3,0.8,2-0.6c-0.2-0.6-0.3-1.2-0.5-1.8
						C277.5,225.9,275.5,226.5,275.8,227.8L275.8,227.8z"/>
				</g>
			</g>
			<g>
				<path class="st4" d="M274.6,231.1c-0.1,0.6-0.3,1.2-0.4,1.8"/>
				<g>
					<path class="st5" d="M273.6,230.8c-0.1,0.6-0.3,1.2-0.4,1.8c-0.3,1.3,1.7,1.9,2,0.6c0.1-0.6,0.3-1.2,0.4-1.8
						C275.9,230.1,273.9,229.5,273.6,230.8L273.6,230.8z"/>
				</g>
			</g>
			<g>
				<path class="st4" d="M277.4,234.7c-0.3,0.6-0.6,1-1.1,1.5"/>
				<g>
					<path class="st5" d="M276.5,234.2c-0.2,0.5-0.5,0.9-0.9,1.3c-0.9,1,0.5,2.4,1.5,1.5c0.5-0.5,0.9-1.1,1.2-1.7
						C278.9,234,277.1,233,276.5,234.2L276.5,234.2z"/>
				</g>
			</g>
			<g>
				<path class="st4" d="M272.2,237.1c-0.3,0.3-0.6,0.4-0.9,0.8"/>
				<g>
					<path class="st5" d="M271.4,236.4c-0.3,0.3-0.6,0.5-0.9,0.8c-1,0.9,0.5,2.4,1.5,1.5c0.3-0.3,0.6-0.5,0.9-0.8
						C273.9,236.9,272.4,235.5,271.4,236.4L271.4,236.4z"/>
				</g>
			</g>
			<g>
				<path class="st4" d="M272.8,241c-0.6,0.4-1.2,0.9-1.8,1.2"/>
				<g>
					<path class="st5" d="M272.2,240.1c-0.6,0.4-1.2,0.9-1.8,1.2c-1.2,0.6-0.1,2.4,1.1,1.8c0.6-0.3,1.2-0.8,1.8-1.2
						c0.5-0.3,0.7-0.9,0.4-1.4S272.7,239.8,272.2,240.1L272.2,240.1z"/>
				</g>
			</g>
			<g>
				<path class="st4" d="M267.4,239.2c-0.8,0.1-1.5,0.1-2.3,0.1"/>
				<g>
					<path class="st5" d="M267.1,238.2c-0.6,0.1-1.3,0.1-2,0.1c-1.3,0-1.3,2.1,0,2.1c0.9,0,1.7,0,2.5-0.2c0.6-0.1,0.9-0.8,0.7-1.3
						C268.2,238.4,267.6,238.1,267.1,238.2L267.1,238.2z"/>
				</g>
			</g>
			<g>
				<path class="st4" d="M267.1,242.4c-0.6,0.3-1.1,0.5-1.6,0.6"/>
				<g>
					<path class="st5" d="M266.5,241.5c-0.5,0.2-0.9,0.4-1.4,0.5c-1.3,0.3-0.8,2.4,0.6,2c0.7-0.2,1.3-0.4,1.9-0.7
						c0.5-0.2,0.6-1,0.4-1.4C267.7,241.3,267,241.2,266.5,241.5L266.5,241.5z"/>
				</g>
			</g>
			<g>
				<path class="st4" d="M265.9,245.7c-0.9,0.8-2.1,0.9-3.2,0.9"/>
				<g>
					<path class="st5" d="M265.1,244.9c-0.7,0.5-1.6,0.6-2.4,0.6c-1.3,0-1.3,2.1,0,2.1c1.4,0,2.7-0.3,3.9-1.2c0.4-0.3,0.4-1.1,0-1.5
						S265.6,244.6,265.1,244.9L265.1,244.9z"/>
				</g>
			</g>
			<g>
				<path class="st4" d="M262,243.4c-0.7,0.3-1.6,0.3-2.4,0.3"/>
				<g>
					<path class="st5" d="M261.7,242.4c-0.7,0.3-1.4,0.3-2.1,0.3c-1.3,0-1.3,2.1,0,2.1c0.9,0,1.8,0,2.7-0.3c0.5-0.2,0.9-0.7,0.7-1.3
						C262.8,242.6,262.2,242.2,261.7,242.4L261.7,242.4z"/>
				</g>
			</g>
			<g>
				<path class="st4" d="M259.3,240.7c-0.6,0.1-1.2,0.1-2,0.1"/>
				<g>
					<path class="st5" d="M259,239.7c-0.5,0.1-1.1,0.1-1.7,0.1c-1.3,0-1.3,2.1,0,2.1c0.7,0,1.5,0,2.2-0.2
						C260.9,241.4,260.3,239.4,259,239.7L259,239.7z"/>
				</g>
			</g>
			<g>
				<path class="st4" d="M256.6,248.1c-0.5,0.1-1.1,0.1-1.6,0.1"/>
				<g>
					<path class="st5" d="M256.3,247.1c-0.4,0.1-0.9,0.1-1.4,0.1c-1.3,0-1.3,2.1,0,2.1c0.6,0,1.3,0,1.9-0.2
						C258.1,248.7,257.6,246.7,256.3,247.1L256.3,247.1z"/>
				</g>
			</g>
			<g>
				<path class="st4" d="M255.1,244.9c-0.5,0.1-0.9,0.1-1.2,0.1"/>
				<g>
					<path class="st5" d="M254.8,243.9c-0.3,0.1-0.6,0.1-0.9,0.1c-1.3,0-1.3,2.1,0,2.1c0.5,0,1,0,1.5-0.2
						C256.6,245.5,256.1,243.5,254.8,243.9L254.8,243.9z"/>
				</g>
			</g>
			<g>
				<path class="st4" d="M253,241.9c-0.5,0.1-1.1,0.1-1.5,0.1"/>
				<g>
					<path class="st5" d="M252.7,240.9c-0.4,0.1-0.8,0.1-1.2,0.1c-1.3,0-1.3,2.1,0,2.1c0.6,0,1.2,0,1.8-0.2
						C254.5,242.5,254,240.5,252.7,240.9L252.7,240.9z"/>
				</g>
			</g>
			<g>
				<path class="st4" d="M251.2,248.1c-0.4,0.1-1.1,0.1-1.6,0.1"/>
				<g>
					<path class="st5" d="M250.9,247.1c-0.4,0.1-0.9,0.1-1.4,0.1c-1.3,0-1.3,2.1,0,2.1c0.6,0,1.3,0,1.9-0.2
						C252.7,248.7,252.2,246.7,250.9,247.1L250.9,247.1z"/>
				</g>
			</g>
			<g>
				<path class="st4" d="M247.9,244.9c-0.1,0-0.3,0-0.5,0"/>
				<g>
					<path class="st5" d="M247.9,243.9c-0.2,0-0.3,0-0.5,0c-1.3,0-1.3,2.1,0,2.1c0.2,0,0.3,0,0.5,0
						C249.2,246,249.2,243.9,247.9,243.9L247.9,243.9z"/>
				</g>
			</g>
			<g>
				<path class="st4" d="M247.1,250.9c-0.9,0.1-2,0.1-3,0.1"/>
				<g>
					<path class="st5" d="M246.8,249.9c-0.9,0.1-1.8,0.1-2.7,0.1c-1.3,0-1.3,2.1,0,2.1c1.1,0,2.2,0,3.3-0.2c0.6-0.1,0.9-0.8,0.7-1.3
						C248,250,247.4,249.8,246.8,249.9L246.8,249.9z"/>
				</g>
			</g>
			<g>
				<path class="st4" d="M243.5,247.5c-0.6,0-1.2,0.1-1.8,0.1"/>
				<g>
					<path class="st5" d="M243.5,246.4c-0.6,0-1.2,0.1-1.8,0.1c-1.3,0-1.3,2.1,0,2.1c0.6,0,1.2-0.1,1.8-0.1
						C244.9,248.5,244.9,246.4,243.5,246.4L243.5,246.4z"/>
				</g>
			</g>
			<g>
				<path class="st4" d="M244,242.2c-0.5,0.1-1.1,0.3-1.5,0.3"/>
				<g>
					<path class="st5" d="M243.7,241.2c-0.4,0.1-0.8,0.2-1.2,0.3c-1.3,0-1.3,2.1,0,2.1c0.6,0,1.2-0.2,1.8-0.3
						C245.5,242.8,245,240.8,243.7,241.2L243.7,241.2z"/>
				</g>
			</g>
			<g>
				<path class="st4" d="M239.6,244.8c-0.6,0.2-1.1,0.2-1.6,0.3"/>
				<g>
					<path class="st5" d="M239.3,243.8c-0.5,0.1-1.1,0.2-1.6,0.3c-1.3,0.3-0.8,2.3,0.6,2c0.5-0.1,1.1-0.2,1.6-0.3
						C241.2,245.5,240.6,243.4,239.3,243.8L239.3,243.8z"/>
				</g>
			</g>
			<g>
				<path class="st4" d="M239.3,250.6c-0.6,0.1-1.2,0.3-1.8,0.4"/>
				<g>
					<path class="st5" d="M239,249.6c-0.6,0.1-1.2,0.3-1.8,0.4c-1.3,0.3-0.8,2.3,0.6,2c0.6-0.1,1.2-0.3,1.8-0.4
						C240.9,251.3,240.3,249.3,239,249.6L239,249.6z"/>
				</g>
			</g>
			<g>
				<path class="st4" d="M234.8,248.2c-0.6,0-1.2,0-1.6,0.1"/>
				<g>
					<path class="st5" d="M234.8,247.2c-0.6,0-1.3,0-1.9,0.2c-1.3,0.4-0.7,2.4,0.6,2c0.4-0.1,0.9-0.1,1.4-0.1
						C236.2,249.3,236.2,247.2,234.8,247.2L234.8,247.2z"/>
				</g>
			</g>
			<g>
				<path class="st4" d="M234.7,242.5c-0.8,0.5-1.7,0.6-2.6,0.6"/>
				<g>
					<path class="st5" d="M234.1,241.6c-0.6,0.4-1.3,0.4-2,0.5c-1.3,0-1.3,2.1,0,2.1c1.1,0,2.1-0.2,3.1-0.7
						C236.4,242.8,235.3,240.9,234.1,241.6L234.1,241.6z"/>
				</g>
			</g>
			<g>
				<path class="st4" d="M232.9,252.7c-0.7,0.1-1.5,0.1-2.1,0.1"/>
				<g>
					<path class="st5" d="M232.6,251.7c-0.6,0.1-1.2,0.1-1.8,0.1c-1.3,0-1.3,2.1,0,2.1c0.8,0,1.6,0,2.4-0.2c0.6-0.1,0.9-0.8,0.7-1.3
						C233.7,251.9,233.1,251.6,232.6,251.7L232.6,251.7z"/>
				</g>
			</g>
			<g>
				<path class="st4" d="M229.3,246.7c-0.6,0.1-1.2,0.1-1.8,0.1"/>
				<g>
					<path class="st5" d="M229,245.7c-0.5,0.1-1,0.1-1.5,0.1c-1.3,0-1.3,2.1,0,2.1c0.7,0,1.4,0,2.1-0.2
						C230.9,247.4,230.3,245.4,229,245.7L229,245.7z"/>
				</g>
			</g>
			<g>
				<path class="st4" d="M227.9,250.5c-0.5,0.3-0.9,0.4-1.5,0.4"/>
				<g>
					<path class="st5" d="M227.4,249.6c-0.3,0.2-0.6,0.3-1,0.3c-1.3,0-1.3,2.1,0,2.1c0.7,0,1.4-0.2,2-0.6
						C229.6,250.6,228.5,248.8,227.4,249.6L227.4,249.6z"/>
				</g>
			</g>
			<g>
				<path class="st4" d="M223.4,248.8c-0.6,0.1-1.2,0.1-1.8,0.3"/>
				<g>
					<path class="st5" d="M223.1,247.8c-0.6,0.1-1.2,0.2-1.8,0.3c-1.3,0.3-0.8,2.3,0.6,2c0.6-0.1,1.2-0.2,1.8-0.3
						C225,249.5,224.4,247.5,223.1,247.8L223.1,247.8z"/>
				</g>
			</g>
			<g>
				<path class="st4" d="M224.6,243.7c-0.5,0.3-0.9,0.6-1.5,0.8"/>
				<g>
					<path class="st5" d="M224.1,242.8c-0.4,0.3-0.8,0.5-1.3,0.6c-1.3,0.4-0.7,2.4,0.6,2c0.6-0.2,1.2-0.5,1.8-0.9
						c0.5-0.3,0.7-0.9,0.4-1.4C225.2,242.7,224.6,242.5,224.1,242.8L224.1,242.8z"/>
				</g>
			</g>
			<g>
				<path class="st4" d="M222.5,253.5c-0.5,0-1.1,0-1.5,0"/>
				<g>
					<path class="st5" d="M222.5,252.4c-0.5,0-1,0-1.5,0c-1.3,0-1.3,2.1,0,2.1c0.5,0,1,0,1.5,0C223.9,254.5,223.9,252.4,222.5,252.4
						L222.5,252.4z"/>
				</g>
			</g>
			<g>
				<path class="st4" d="M218.5,247c-0.8,0.1-1.4,0.1-2.1,0.3"/>
				<g>
					<path class="st5" d="M218.2,246c-0.7,0.1-1.4,0.2-2.1,0.3c-0.6,0.1-0.9,0.8-0.7,1.3c0.2,0.6,0.7,0.8,1.3,0.7
						c0.7-0.1,1.4-0.2,2.1-0.3c0.6-0.1,0.9-0.8,0.7-1.3S218.7,245.9,218.2,246L218.2,246z"/>
				</g>
			</g>
			<g>
				<path class="st4" d="M217.1,251.5c-0.3,0.1-0.6,0.1-0.9,0.1"/>
				<g>
					<path class="st5" d="M216.8,250.5c-0.2,0.1-0.4,0.1-0.6,0.1c-1.3,0-1.3,2.1,0,2.1c0.4,0,0.8,0,1.2-0.2c0.5-0.2,0.9-0.7,0.7-1.3
						C218,250.7,217.4,250.3,216.8,250.5L216.8,250.5z"/>
				</g>
			</g>
			<g>
				<path class="st4" d="M212.8,250c-0.3,0.2-0.8,0.5-1.1,0.5"/>
				<g>
					<path class="st5" d="M212.2,249.1c-0.1,0.1-0.3,0.1-0.4,0.2c-0.1,0-0.3,0.1-0.1,0.1c-0.6,0.1-1,0.4-1,1c0,0.5,0.5,1.1,1,1
						c0.6-0.1,1.1-0.3,1.6-0.6C214.5,250.3,213.4,248.5,212.2,249.1L212.2,249.1z"/>
				</g>
			</g>
		</g>
	</g>
</g>
</svg>
