<?xml version="1.0" encoding="utf-8"?>
<!-- Generator: Adobe Illustrator 19.2.1, SVG Export Plug-In . SVG Version: 6.00 Build 0)  -->
<svg version="1.1" id="Capa_1" xmlns="http://www.w3.org/2000/svg" xmlns:xlink="http://www.w3.org/1999/xlink" x="0px" y="0px"
	 viewBox="0 0 1380 780" style="enable-background:new 0 0 1380 780;" xml:space="preserve">
<style type="text/css">
	.st0{fill:#ED1E79;}
	.st1{fill:none;}
	.st2{fill:#FFFFFF;}
	.st3{font-family:'Myfrida-BoldItalic';}
	.st4{font-size:73.0375px;}
	.st5{fill:#39B54A;}
	.st6{fill:#FCEE21;}
	.st7{fill:#FF00FF;}
	.st8{fill:#D9E021;}
	.st9{fill:#8CC63F;}
	.st10{fill:#CCCCCC;}
	.st11{fill:#FFFF00;}
	.st12{fill:#1D1D1B;}
	.st13{fill:#29ABE2;}
	.st14{fill:#C69C6D;}
</style>
<g>
	<g>
		<path class="st0" d="M1047.5,2.9c-125.1,12.4-207.6,15-210.9,124.9c-1.5,50.8,14.2,68.6,38.9,74.6c4.4,1.1-32,34.6-29.5,34.4
			c0,0,11.3,0.5,50.4-22.5c30.2-17.7,126.2,4.4,238,4.9c80.8,0.4,151.4-28.5,165.5-64.3c6.5-16.5,9.7-29.5,7.1-55.8
			c-0.7-6.6-10.9-32.9-12.7-35.6C1258.1,9.3,1152.4-7.5,1047.5,2.9"/>
	</g>
	<g>
		<rect x="825.3" y="53" class="st1" width="479.7" height="85.8"/>
		<text transform="matrix(1 0 0 1 872.2137 104.0951)" class="st2 st3 st4">now, Select </text>
		<rect x="878.1" y="126.3" class="st1" width="351.6" height="81.9"/>
		<text transform="matrix(1 0 0 1 895.7029 177.3265)" class="st2 st3 st4">a chapter</text>
	</g>
	<path class="st5" d="M320.3,213.1c0,0,16.7-167.3,205.9-168C683,44.5,711.2,149,723.9,169.5c2.3,6.1,6.6,16.9,10,41.5
		c15.3,82.6,1.6,175.5-11.6,236.2c-202.1-1.1-267,1.5-388.1,0c-16-58.9-32.1-149.8-12.9-236.2"/>
	<path class="st6" d="M379.4,126.6c-30.8-9.8-24.7-96.3-20.3-96.6c4.3-0.2,74.2-11,100.4,42.9C401.5,89.1,390.8,116.7,379.4,126.6z"
		/>
	<path class="st6" d="M672.2,126.6c30.8-9.8,24.7-96.3,20.3-96.6c-4.3-0.2-74.2-11-100.4,42.9C650,89.1,660.8,116.7,672.2,126.6z"/>
	<path class="st7" d="M383,108.4c-20.9-6.7-16.7-65.2-13.8-65.3c2.9-0.1,50.2-7.5,68,29C398,83.1,390.7,101.8,383,108.4z"/>
	<path class="st7" d="M667.9,107c20.9-6.7,16.7-65.2,13.8-65.3c-2.9-0.1-50.2-7.5-68,29C652.9,81.7,660.2,100.4,667.9,107z"/>
	<g>
		<g>
			<path class="st8" d="M518.7,66.1c5.6,0,5.6-8.7,0-8.7C513.1,57.5,513.1,66.1,518.7,66.1L518.7,66.1z"/>
		</g>
	</g>
	<g>
		<g>
			<path class="st8" d="M500.6,59.9c5.6,0,5.6-8.7,0-8.7C495,51.2,495,59.9,500.6,59.9L500.6,59.9z"/>
		</g>
	</g>
	<g>
		<g>
			<path class="st8" d="M479,61.3c5.6,0,5.6-8.7,0-8.7C473.5,52.6,473.5,61.3,479,61.3L479,61.3z"/>
		</g>
	</g>
	<g>
		<g>
			<path class="st8" d="M463,66.1c5.6,0,5.6-8.7,0-8.7C457.5,57.5,457.4,66.1,463,66.1L463,66.1z"/>
		</g>
	</g>
	<g>
		<g>
			<path class="st8" d="M364.2,133c5.6,0,5.6-8.7,0-8.7C358.6,124.3,358.6,133,364.2,133L364.2,133z"/>
		</g>
	</g>
	<g>
		<g>
			<path class="st8" d="M350.3,151.1c5.6,0,5.6-8.7,0-8.7C344.7,142.4,344.7,151.1,350.3,151.1L350.3,151.1z"/>
		</g>
	</g>
	<g>
		<g>
			<path class="st8" d="M340.5,174.7c5.6,0,5.6-8.7,0-8.7C334.9,166.1,334.9,174.7,340.5,174.7L340.5,174.7z"/>
		</g>
	</g>
	<g>
		<g>
			<path class="st8" d="M333.5,199.8c5.6,0,5.6-8.7,0-8.7C328,191.1,328,199.8,333.5,199.8L333.5,199.8z"/>
		</g>
	</g>
	<g>
		<g>
			<path class="st8" d="M328,226.3c5.6,0,5.6-8.7,0-8.7C322.4,217.6,322.4,226.3,328,226.3L328,226.3z"/>
		</g>
	</g>
	<g>
		<g>
			<path class="st8" d="M325.2,254.1c5.6,0,5.6-8.7,0-8.7C319.6,245.4,319.6,254.1,325.2,254.1L325.2,254.1z"/>
		</g>
	</g>
	<g>
		<g>
			<path class="st8" d="M322.4,284.7c5.6,0,5.6-8.7,0-8.7C316.8,276.1,316.8,284.7,322.4,284.7L322.4,284.7z"/>
		</g>
	</g>
	<g>
		<g>
			<path class="st8" d="M323.8,314c5.6,0,5.6-8.7,0-8.7C318.2,305.3,318.2,314,323.8,314L323.8,314z"/>
		</g>
	</g>
	<g>
		<g>
			<path class="st8" d="M323.1,339.7c5.6,0,5.6-8.7,0-8.7C317.5,331.1,317.5,339.7,323.1,339.7L323.1,339.7z"/>
		</g>
	</g>
	<g>
		<g>
			<path class="st8" d="M328,369c5.6,0,5.6-8.7,0-8.7C322.4,360.3,322.4,369,328,369L328,369z"/>
		</g>
	</g>
	<g>
		<g>
			<path class="st8" d="M333.5,396.8c5.6,0,5.6-8.7,0-8.7C328,388.1,328,396.8,333.5,396.8L333.5,396.8z"/>
		</g>
	</g>
	<g>
		<g>
			<path class="st8" d="M341.2,427.4c5.6,0,5.6-8.7,0-8.7C335.6,418.8,335.6,427.4,341.2,427.4L341.2,427.4z"/>
		</g>
	</g>
	<g>
		<g>
			<path class="st8" d="M509,78.7c5.6,0,5.6-8.7,0-8.7C503.4,70,503.4,78.7,509,78.7L509,78.7z"/>
		</g>
	</g>
	<g>
		<g>
			<path class="st8" d="M492.3,76.6c5.6,0,5.6-8.7,0-8.7C486.7,67.9,486.7,76.6,492.3,76.6L492.3,76.6z"/>
		</g>
	</g>
	<g>
		<g>
			<path class="st8" d="M475.6,79.4c5.6,0,5.6-8.7,0-8.7C470,70.7,470,79.4,475.6,79.4L475.6,79.4z"/>
		</g>
	</g>
	<g>
		<g>
			<path class="st8" d="M454.7,86.3c5.6,0,5.6-8.7,0-8.7C449.1,77.7,449.1,86.3,454.7,86.3L454.7,86.3z"/>
		</g>
	</g>
	<g>
		<g>
			<path class="st8" d="M431,97.5c5.6,0,5.6-8.7,0-8.7C425.4,88.8,425.4,97.5,431,97.5L431,97.5z"/>
		</g>
	</g>
	<g>
		<g>
			<path class="st8" d="M410.1,109.3c5.6,0,5.6-8.7,0-8.7C404.5,100.6,404.5,109.3,410.1,109.3L410.1,109.3z"/>
		</g>
	</g>
	<g>
		<g>
			<path class="st8" d="M397.6,125.3c5.6,0,5.6-8.7,0-8.7C392,116.6,392,125.3,397.6,125.3L397.6,125.3z"/>
		</g>
	</g>
	<g>
		<g>
			<path class="st8" d="M383.7,139.9c5.6,0,5.6-8.7,0-8.7C378.1,131.3,378.1,139.9,383.7,139.9L383.7,139.9z"/>
		</g>
	</g>
	<g>
		<g>
			<path class="st8" d="M368.4,149.7c5.6,0,5.6-8.7,0-8.7C362.8,141,362.8,149.7,368.4,149.7L368.4,149.7z"/>
		</g>
	</g>
	<g>
		<g>
			<path class="st8" d="M358.6,169.9c5.6,0,5.6-8.7,0-8.7C353,161.2,353,169.9,358.6,169.9L358.6,169.9z"/>
		</g>
	</g>
	<g>
		<g>
			<path class="st8" d="M353,191.4c5.6,0,5.6-8.7,0-8.7C347.5,182.8,347.5,191.4,353,191.4L353,191.4z"/>
		</g>
	</g>
	<g>
		<g>
			<path class="st8" d="M379.5,164.3c5.6,0,5.6-8.7,0-8.7C373.9,155.6,373.9,164.3,379.5,164.3L379.5,164.3z"/>
		</g>
	</g>
	<g>
		<g>
			<path class="st8" d="M344.7,215.1c5.6,0,5.6-8.7,0-8.7C339.1,206.4,339.1,215.1,344.7,215.1L344.7,215.1z"/>
		</g>
	</g>
	<g>
		<g>
			<path class="st8" d="M339.8,243c5.6,0,5.6-8.7,0-8.7C334.2,234.3,334.2,243,339.8,243L339.8,243z"/>
		</g>
	</g>
	<g>
		<g>
			<path class="st8" d="M334.9,270.1c5.6,0,5.6-8.7,0-8.7C329.4,261.4,329.4,270.1,334.9,270.1L334.9,270.1z"/>
		</g>
	</g>
	<g>
		<g>
			<path class="st8" d="M337,298.7c5.6,0,5.6-8.7,0-8.7C331.5,290,331.4,298.7,337,298.7L337,298.7z"/>
		</g>
	</g>
	<g>
		<g>
			<path class="st8" d="M335.6,327.2c5.6,0,5.6-8.7,0-8.7C330.1,318.5,330,327.2,335.6,327.2L335.6,327.2z"/>
		</g>
	</g>
	<g>
		<g>
			<path class="st8" d="M340.5,353c5.6,0,5.6-8.7,0-8.7C334.9,344.3,334.9,353,340.5,353L340.5,353z"/>
		</g>
	</g>
	<g>
		<g>
			<path class="st8" d="M344.7,380.1c5.6,0,5.6-8.7,0-8.7C339.1,371.4,339.1,380.1,344.7,380.1L344.7,380.1z"/>
		</g>
	</g>
	<g>
		<g>
			<path class="st8" d="M352.6,409.5c0.5-0.5,1-1,1.3-1.6c0.5-0.9,0.7-1.9,0.7-2.8c0-1.1-0.5-2.3-1.3-3.1c-0.8-0.8-2-1.3-3.1-1.3
				c-2.4,0.1-4.3,1.9-4.3,4.3c0,0.1,0,0.3,0,0.4c0.1-0.4,0.1-0.8,0.2-1.2c0,0.1,0,0.1-0.1,0.2c0.1-0.3,0.3-0.7,0.4-1
				c0,0.1-0.1,0.1-0.1,0.2c0.2-0.3,0.5-0.6,0.7-0.9c-0.2,0.2-0.3,0.3-0.5,0.5c-0.8,0.8-1.3,2-1.3,3.1c0,1.1,0.5,2.3,1.3,3.1
				C348.2,411.1,350.9,411.2,352.6,409.5L352.6,409.5z"/>
		</g>
	</g>
	<g>
		<g>
			<path class="st8" d="M358.6,438.6c5.6,0,5.6-8.7,0-8.7C353,429.9,353,438.6,358.6,438.6L358.6,438.6z"/>
		</g>
	</g>
	<g>
		<g>
			<path class="st8" d="M368.4,188.7c5.6,0,5.6-8.7,0-8.7C362.8,180,362.8,188.7,368.4,188.7L368.4,188.7z"/>
		</g>
	</g>
	<g>
		<g>
			<path class="st8" d="M367.1,209.4c0-0.2,0-0.5,0-0.7c0-1.1-0.5-2.3-1.3-3.1c-0.8-0.8-2-1.3-3.1-1.3c-2.3,0.1-4.3,1.9-4.3,4.3
				c0,0.2,0,0.5,0,0.7c0,1.1,0.5,2.3,1.3,3.1c0.8,0.8,2,1.3,3.1,1.3C365.1,213.6,367.1,211.8,367.1,209.4L367.1,209.4z"/>
		</g>
	</g>
	<g>
		<g>
			<path class="st8" d="M356.5,238.1c5.6,0,5.6-8.7,0-8.7C350.9,229.4,350.9,238.1,356.5,238.1L356.5,238.1z"/>
		</g>
	</g>
	<g>
		<g>
			<path class="st8" d="M354.4,263.2c5.6,0,5.6-8.7,0-8.7C348.9,254.5,348.8,263.2,354.4,263.2L354.4,263.2z"/>
		</g>
	</g>
	<g>
		<g>
			<path class="st8" d="M352.3,286.8c5.6,0,5.6-8.7,0-8.7C346.8,278.2,346.8,286.8,352.3,286.8L352.3,286.8z"/>
		</g>
	</g>
	<g>
		<g>
			<path class="st8" d="M353,314.7c5.6,0,5.6-8.7,0-8.7C347.5,306,347.5,314.7,353,314.7L353,314.7z"/>
		</g>
	</g>
	<g>
		<g>
			<path class="st8" d="M353,340.4c5.6,0,5.6-8.7,0-8.7C347.5,331.8,347.5,340.4,353,340.4L353,340.4z"/>
		</g>
	</g>
	<g>
		<g>
			<path class="st8" d="M359.3,368.3c5.6,0,5.6-8.7,0-8.7C353.7,359.6,353.7,368.3,359.3,368.3L359.3,368.3z"/>
		</g>
	</g>
	<g>
		<g>
			<path class="st8" d="M364.9,393.3c5.6,0,5.6-8.7,0-8.7C359.3,384.7,359.3,393.3,364.9,393.3L364.9,393.3z"/>
		</g>
	</g>
	<g>
		<g>
			<path class="st8" d="M369.1,419.1c5.6,0,5.6-8.7,0-8.7C363.5,410.4,363.5,419.1,369.1,419.1L369.1,419.1z"/>
		</g>
	</g>
	<g>
		<g>
			<path class="st8" d="M376.7,450.4c5.6,0,5.6-8.7,0-8.7C371.1,441.7,371.1,450.4,376.7,450.4L376.7,450.4z"/>
		</g>
	</g>
	<g>
		<g>
			<path class="st8" d="M370.4,348.1c5.6,0,5.6-8.7,0-8.7C364.9,339.4,364.9,348.1,370.4,348.1L370.4,348.1z"/>
		</g>
	</g>
	<g>
		<g>
			<path class="st8" d="M378.1,377.3c5.6,0,5.6-8.7,0-8.7C372.5,368.7,372.5,377.3,378.1,377.3L378.1,377.3z"/>
		</g>
	</g>
	<g>
		<g>
			<path class="st8" d="M383.7,403.1c5.6,0,5.6-8.7,0-8.7C378.1,394.4,378.1,403.1,383.7,403.1L383.7,403.1z"/>
		</g>
	</g>
	<g>
		<g>
			<path class="st8" d="M389.2,428.8c5.6,0,5.6-8.7,0-8.7C383.7,420.2,383.7,428.8,389.2,428.8L389.2,428.8z"/>
		</g>
	</g>
	<g>
		<g>
			<path class="st8" d="M397.6,386.4c5.6,0,5.6-8.7,0-8.7C392,377.7,392,386.4,397.6,386.4L397.6,386.4z"/>
		</g>
	</g>
	<g>
		<g>
			<path class="st8" d="M403.2,411.4c5.6,0,5.6-8.7,0-8.7C397.6,402.8,397.6,411.4,403.2,411.4L403.2,411.4z"/>
		</g>
	</g>
	<g>
		<g>
			<path class="st8" d="M405.9,442.1c5.6,0,5.6-8.7,0-8.7C400.4,433.4,400.4,442.1,405.9,442.1L405.9,442.1z"/>
		</g>
	</g>
	<g>
		<g>
			<path class="st8" d="M418.5,400.3c5.6,0,5.6-8.7,0-8.7C412.9,391.6,412.9,400.3,418.5,400.3L418.5,400.3z"/>
		</g>
	</g>
	<g>
		<g>
			<path class="st8" d="M421.3,428.1c5.6,0,5.6-8.7,0-8.7C415.7,419.5,415.7,428.1,421.3,428.1L421.3,428.1z"/>
		</g>
	</g>
	<g>
		<g>
			<path class="st8" d="M424,446.6c5.6,0,5.6-8.7,0-8.7C418.5,437.9,418.5,446.6,424,446.6L424,446.6z"/>
		</g>
	</g>
	<g>
		<g>
			<path class="st8" d="M435.2,412.1c5.6,0,5.6-8.7,0-8.7C429.6,403.5,429.6,412.1,435.2,412.1L435.2,412.1z"/>
		</g>
	</g>
	<g>
		<g>
			<path class="st8" d="M437.3,437.2c5.6,0,5.6-8.7,0-8.7C431.7,428.5,431.7,437.2,437.3,437.2L437.3,437.2z"/>
		</g>
	</g>
	<g>
		<g>
			<path class="st8" d="M451.9,426.1c5.6,0,5.6-8.7,0-8.7C446.3,417.4,446.3,426.1,451.9,426.1L451.9,426.1z"/>
		</g>
	</g>
	<g>
		<g>
			<path class="st8" d="M456.8,447.6c5.6,0,5.6-8.7,0-8.7C451.2,439,451.2,447.6,456.8,447.6L456.8,447.6z"/>
		</g>
	</g>
	<g>
		<g>
			<path class="st8" d="M470.7,416.3c5.6,0,5.6-8.7,0-8.7C465.1,407.6,465.1,416.3,470.7,416.3L470.7,416.3z"/>
		</g>
	</g>
	<g>
		<g>
			<path class="st8" d="M469.3,435.8c5.6,0,5.6-8.7,0-8.7C463.7,427.1,463.7,435.8,469.3,435.8L469.3,435.8z"/>
		</g>
	</g>
	<g>
		<g>
			<path class="st8" d="M488.8,446.9c5.6,0,5.6-8.7,0-8.7C483.2,438.3,483.2,446.9,488.8,446.9L488.8,446.9z"/>
		</g>
	</g>
	<g>
		<g>
			<path class="st8" d="M490.2,424.7c5.6,0,5.6-8.7,0-8.7C484.6,416,484.6,424.7,490.2,424.7L490.2,424.7z"/>
		</g>
	</g>
	<g>
		<g>
			<path class="st8" d="M504.8,439.3c5.6,0,5.6-8.7,0-8.7C499.2,430.6,499.2,439.3,504.8,439.3L504.8,439.3z"/>
		</g>
	</g>
	<g>
		<g>
			<path class="st8" d="M517.3,423.3c5.6,0,5.6-8.7,0-8.7C511.8,414.6,511.7,423.3,517.3,423.3L517.3,423.3z"/>
		</g>
	</g>
	<g>
		<g>
			<path class="st8" d="M520.1,450.4c5.6,0,5.6-8.7,0-8.7C514.5,441.7,514.5,450.4,520.1,450.4L520.1,450.4z"/>
		</g>
	</g>
	<g>
		<g>
			<path class="st8" d="M529.9,437.9c5.6,0,5.6-8.7,0-8.7C524.3,429.2,524.3,437.9,529.9,437.9L529.9,437.9z"/>
		</g>
	</g>
	<g>
		<g>
			<path class="st8" d="M543.8,421.2c5.6,0,5.6-8.7,0-8.7C538.2,412.5,538.2,421.2,543.8,421.2L543.8,421.2z"/>
		</g>
	</g>
	<g>
		<g>
			<path class="st8" d="M546.6,449.7c5.6,0,5.6-8.7,0-8.7C541,441.1,541,449.7,546.6,449.7L546.6,449.7z"/>
		</g>
	</g>
	<g>
		<g>
			<path class="st8" d="M556.3,434.4c5.6,0,5.6-8.7,0-8.7C550.7,425.7,550.7,434.4,556.3,434.4L556.3,434.4z"/>
		</g>
	</g>
	<g>
		<g>
			<path class="st8" d="M568.2,421.2c5.6,0,5.6-8.7,0-8.7C562.6,412.5,562.6,421.2,568.2,421.2L568.2,421.2z"/>
		</g>
	</g>
	<g>
		<g>
			<path class="st8" d="M574.4,443.5c5.6,0,5.6-8.7,0-8.7C568.8,434.8,568.8,443.5,574.4,443.5L574.4,443.5z"/>
		</g>
	</g>
	<g>
		<g>
			<path class="st8" d="M586.9,424c5.6,0,5.6-8.7,0-8.7C581.4,415.3,581.4,424,586.9,424L586.9,424z"/>
		</g>
	</g>
	<g>
		<g>
			<path class="st8" d="M590.4,452.5c5.6,0,5.6-8.7,0-8.7C584.9,443.8,584.8,452.5,590.4,452.5L590.4,452.5z"/>
		</g>
	</g>
	<g>
		<g>
			<path class="st8" d="M602.3,437.6c5.6,0,5.6-8.7,0-8.7C596.8,428.9,596.7,437.6,602.3,437.6L602.3,437.6z"/>
		</g>
	</g>
	<g>
		<g>
			<path class="st8" d="M609.1,414.4c5.6,0,5.6-8.7,0-8.7C603.5,405.8,603.5,414.4,609.1,414.4L609.1,414.4z"/>
		</g>
	</g>
	<g>
		<g>
			<path class="st8" d="M616.8,449.6c5.6,0,5.6-8.7,0-8.7C611.2,440.9,611.2,449.6,616.8,449.6L616.8,449.6z"/>
		</g>
	</g>
	<g>
		<g>
			<path class="st8" d="M626.9,426.5c5.6,0,5.6-8.7,0-8.7C621.3,417.8,621.3,426.5,626.9,426.5L626.9,426.5z"/>
		</g>
	</g>
	<g>
		<g>
			<path class="st8" d="M625,404.8c5.6,0,5.6-8.7,0-8.7C619.4,396.1,619.4,404.8,625,404.8L625,404.8z"/>
		</g>
	</g>
	<g>
		<g>
			<path class="st8" d="M643.3,411.5c5.6,0,5.6-8.7,0-8.7C637.7,402.9,637.7,411.5,643.3,411.5L643.3,411.5z"/>
		</g>
	</g>
	<g>
		<g>
			<path class="st8" d="M642.8,442.4c5.6,0,5.6-8.7,0-8.7C637.2,433.7,637.2,442.4,642.8,442.4L642.8,442.4z"/>
		</g>
	</g>
	<g>
		<g>
			<path class="st8" d="M659.7,427c5.6,0,5.6-8.7,0-8.7C654.1,418.3,654.1,427,659.7,427L659.7,427z"/>
		</g>
	</g>
	<g>
		<g>
			<path class="st8" d="M657.7,394.7c5.6,0,5.6-8.7,0-8.7C652.2,386,652.1,394.7,657.7,394.7L657.7,394.7z"/>
		</g>
	</g>
	<g>
		<g>
			<path class="st8" d="M668.3,375.4c5.6,0,5.6-8.7,0-8.7C662.8,366.8,662.7,375.4,668.3,375.4L668.3,375.4z"/>
		</g>
	</g>
	<g>
		<g>
			<path class="st8" d="M671.2,407.7c5.6,0,5.6-8.7,0-8.7C665.6,399,665.6,407.7,671.2,407.7L671.2,407.7z"/>
		</g>
	</g>
	<g>
		<g>
			<path class="st8" d="M673.1,444.8c5.6,0,5.6-8.7,0-8.7C667.6,436.1,667.6,444.8,673.1,444.8L673.1,444.8z"/>
		</g>
	</g>
	<g>
		<g>
			<path class="st8" d="M685.7,427.9c5.6,0,5.6-8.7,0-8.7C680.1,419.3,680.1,427.9,685.7,427.9L685.7,427.9z"/>
		</g>
	</g>
	<g>
		<g>
			<path class="st8" d="M685.7,389.4c5.6,0,5.6-8.7,0-8.7C680.1,380.7,680.1,389.4,685.7,389.4L685.7,389.4z"/>
		</g>
	</g>
	<g>
		<g>
			<path class="st8" d="M685.7,350.4c5.6,0,5.6-8.7,0-8.7C680.1,341.7,680.1,350.4,685.7,350.4L685.7,350.4z"/>
		</g>
	</g>
	<g>
		<g>
			<path class="st8" d="M698.2,446c5.6,0,5.6-8.7,0-8.7C692.6,437.3,692.6,446,698.2,446L698.2,446z"/>
		</g>
	</g>
	<g>
		<g>
			<path class="st8" d="M697.7,413c5.6,0,5.6-8.7,0-8.7C692.1,404.3,692.1,413,697.7,413L697.7,413z"/>
		</g>
	</g>
	<g>
		<g>
			<path class="st8" d="M698.2,372.1c5.6,0,5.6-8.7,0-8.7C692.6,363.4,692.6,372.1,698.2,372.1L698.2,372.1z"/>
		</g>
	</g>
	<g>
		<g>
			<path class="st8" d="M685.7,367.7c5.6,0,5.6-8.7,0-8.7C680.1,359,680.1,367.7,685.7,367.7L685.7,367.7z"/>
		</g>
	</g>
	<g>
		<g>
			<path class="st8" d="M699.2,335.4c5.6,0,5.6-8.7,0-8.7C693.6,326.8,693.6,335.4,699.2,335.4L699.2,335.4z"/>
		</g>
	</g>
	<g>
		<g>
			<path class="st8" d="M697.7,304.6c5.6,0,5.6-8.7,0-8.7C692.1,295.9,692.1,304.6,697.7,304.6L697.7,304.6z"/>
		</g>
	</g>
	<g>
		<g>
			<path class="st8" d="M711.2,321.5c5.6,0,5.6-8.7,0-8.7C705.6,312.8,705.6,321.5,711.2,321.5L711.2,321.5z"/>
		</g>
	</g>
	<g>
		<g>
			<path class="st8" d="M709.8,354.2c5.6,0,5.6-8.7,0-8.7C704.2,345.6,704.2,354.2,709.8,354.2L709.8,354.2z"/>
		</g>
	</g>
	<g>
		<g>
			<path class="st8" d="M709.3,393.7c5.6,0,5.6-8.7,0-8.7C703.7,385.1,703.7,393.7,709.3,393.7L709.3,393.7z"/>
		</g>
	</g>
	<g>
		<g>
			<path class="st8" d="M709.8,432.3c5.6,0,5.6-8.7,0-8.7C704.2,423.6,704.2,432.3,709.8,432.3L709.8,432.3z"/>
		</g>
	</g>
	<g>
		<g>
			<path class="st8" d="M720.8,411.5c5.6,0,5.6-8.7,0-8.7C715.3,402.9,715.2,411.5,720.8,411.5L720.8,411.5z"/>
		</g>
	</g>
	<g>
		<g>
			<path class="st8" d="M726.1,373.5c5.6,0,5.6-8.7,0-8.7C720.5,364.8,720.5,373.5,726.1,373.5L726.1,373.5z"/>
		</g>
	</g>
	<g>
		<g>
			<path class="st8" d="M727.1,338.8c5.6,0,5.6-8.7,0-8.7C721.5,330.1,721.5,338.8,727.1,338.8L727.1,338.8z"/>
		</g>
	</g>
	<g>
		<g>
			<path class="st8" d="M730.5,305.6c5.6,0,5.6-8.7,0-8.7C724.9,296.9,724.9,305.6,730.5,305.6L730.5,305.6z"/>
		</g>
	</g>
	<g>
		<g>
			<path class="st8" d="M515.5,88c0.2,0.2,0.3,0.3,0.5,0.5c0.8,0.8,2,1.3,3.1,1.3c1.1,0,2.3-0.5,3.1-1.3c1.6-1.7,1.7-4.4,0-6.1
				c-0.2-0.2-0.3-0.3-0.5-0.5c-0.8-0.8-2-1.3-3.1-1.3c-1.1,0-2.3,0.5-3.1,1.3C513.9,83.6,513.7,86.3,515.5,88L515.5,88z"/>
		</g>
	</g>
	<g>
		<g>
			<path class="st8" d="M528.2,101.8c5.6,0,5.6-8.7,0-8.7C522.6,93.2,522.6,101.8,528.2,101.8L528.2,101.8z"/>
		</g>
	</g>
	<g>
		<g>
			<path class="st8" d="M543.1,89.3c5.6,0,5.6-8.7,0-8.7C537.5,80.6,537.5,89.3,543.1,89.3L543.1,89.3z"/>
		</g>
	</g>
	<g>
		<g>
			<path class="st8" d="M562.8,83.5c5.6,0,5.6-8.7,0-8.7C557.3,74.9,557.3,83.5,562.8,83.5L562.8,83.5z"/>
		</g>
	</g>
	<g>
		<g>
			<path class="st8" d="M583.1,85c5.6,0,5.6-8.7,0-8.7C577.5,76.3,577.5,85,583.1,85L583.1,85z"/>
		</g>
	</g>
	<g>
		<g>
			<path class="st8" d="M608.1,90.3c5.6,0,5.6-8.7,0-8.7C602.5,81.6,602.5,90.3,608.1,90.3L608.1,90.3z"/>
		</g>
	</g>
	<g>
		<g>
			<path class="st8" d="M625.9,100.9c5.6,0,5.6-8.7,0-8.7C620.4,92.2,620.3,100.9,625.9,100.9L625.9,100.9z"/>
		</g>
	</g>
	<g>
		<g>
			<path class="st8" d="M646.2,116.8c5.6,0,5.6-8.7,0-8.7C640.6,108.1,640.6,116.8,646.2,116.8L646.2,116.8z"/>
		</g>
	</g>
	<g>
		<g>
			<path class="st8" d="M661.1,135.5c5.6,0,5.6-8.7,0-8.7C655.5,126.9,655.5,135.5,661.1,135.5L661.1,135.5z"/>
		</g>
	</g>
	<g>
		<g>
			<path class="st8" d="M672.7,153.4c5.6,0,5.6-8.7,0-8.7C667.1,144.7,667.1,153.4,672.7,153.4L672.7,153.4z"/>
		</g>
	</g>
	<g>
		<g>
			<path class="st8" d="M688.1,179.9c5.6,0,5.6-8.7,0-8.7C682.5,171.2,682.5,179.9,688.1,179.9L688.1,179.9z"/>
		</g>
	</g>
	<g>
		<g>
			<path class="st8" d="M696.7,212.1c5.6,0,5.6-8.7,0-8.7C691.2,203.5,691.2,212.1,696.7,212.1L696.7,212.1z"/>
		</g>
	</g>
	<g>
		<g>
			<path class="st8" d="M700.1,236.2c5.6,0,5.6-8.7,0-8.7C694.5,227.5,694.5,236.2,700.1,236.2L700.1,236.2z"/>
		</g>
	</g>
	<g>
		<g>
			<path class="st8" d="M702,270.9c5.6,0,5.6-8.7,0-8.7C696.5,262.2,696.5,270.9,702,270.9L702,270.9z"/>
		</g>
	</g>
	<g>
		<g>
			<path class="st8" d="M715.5,293.5c5.6,0,5.6-8.7,0-8.7C710,284.9,709.9,293.5,715.5,293.5L715.5,293.5z"/>
		</g>
	</g>
	<g>
		<g>
			<path class="st8" d="M715.5,256.9c5.6,0,5.6-8.7,0-8.7C710,248.3,709.9,256.9,715.5,256.9L715.5,256.9z"/>
		</g>
	</g>
	<g>
		<g>
			<path class="st8" d="M714.6,224.7c5.6,0,5.6-8.7,0-8.7C709,216,709,224.7,714.6,224.7L714.6,224.7z"/>
		</g>
	</g>
	<g>
		<g>
			<path class="st8" d="M707.8,193.3c5.6,0,5.6-8.7,0-8.7C702.2,184.7,702.2,193.3,707.8,193.3L707.8,193.3z"/>
		</g>
	</g>
	<g>
		<g>
			<path class="st8" d="M693.9,160.1c5.6,0,5.6-8.7,0-8.7C688.3,151.4,688.3,160.1,693.9,160.1L693.9,160.1z"/>
		</g>
	</g>
	<g>
		<g>
			<path class="st8" d="M682.3,138c5.6,0,5.6-8.7,0-8.7C676.7,129.3,676.7,138,682.3,138L682.3,138z"/>
		</g>
	</g>
	<g>
		<g>
			<path class="st8" d="M697.2,142.8c5.6,0,5.6-8.7,0-8.7C691.6,134.1,691.6,142.8,697.2,142.8L697.2,142.8z"/>
		</g>
	</g>
	<g>
		<g>
			<path class="st8" d="M710.2,173.6c5.6,0,5.6-8.7,0-8.7C704.7,164.9,704.6,173.6,710.2,173.6L710.2,173.6z"/>
		</g>
	</g>
	<g>
		<g>
			<path class="st8" d="M722.3,205.9c5.6,0,5.6-8.7,0-8.7C716.7,197.2,716.7,205.9,722.3,205.9L722.3,205.9z"/>
		</g>
	</g>
	<g>
		<g>
			<path class="st8" d="M728.5,242c5.6,0,5.6-8.7,0-8.7C723,233.3,722.9,242,728.5,242L728.5,242z"/>
		</g>
	</g>
	<g>
		<g>
			<path class="st8" d="M728.5,274.7c5.6,0,5.6-8.7,0-8.7C723,266.1,722.9,274.7,728.5,274.7L728.5,274.7z"/>
		</g>
	</g>
	<g>
		<g>
			<path class="st8" d="M531.5,80.1c5.6,0,5.6-8.7,0-8.7C526,71.5,525.9,80.1,531.5,80.1L531.5,80.1z"/>
		</g>
	</g>
	<g>
		<g>
			<path class="st8" d="M547.9,71c5.6,0,5.6-8.7,0-8.7C542.3,62.3,542.3,71,547.9,71L547.9,71z"/>
		</g>
	</g>
	<g>
		<g>
			<path class="st8" d="M573,69.1c5.6,0,5.6-8.7,0-8.7C567.4,60.4,567.4,69.1,573,69.1L573,69.1z"/>
		</g>
	</g>
	<g>
		<g>
			<path class="st8" d="M589.8,66.7c5.6,0,5.6-8.7,0-8.7C584.2,58,584.2,66.7,589.8,66.7L589.8,66.7z"/>
		</g>
	</g>
	<g>
		<g>
			<path class="st8" d="M560.4,59.4c5.6,0,5.6-8.7,0-8.7C554.9,50.8,554.8,59.4,560.4,59.4L560.4,59.4z"/>
		</g>
	</g>
	<g>
		<g>
			<path class="st8" d="M537.3,59c5.6,0,5.6-8.7,0-8.7C531.7,50.3,531.7,59,537.3,59L537.3,59z"/>
		</g>
	</g>
	<g>
		<path class="st5" d="M331,171.4c-14.1,5.1-111.8,15.7-134,176.2C182.4,452,80.6,417.7,25.5,474.7c-67.1,69.4,15.5,186.8,53,216
			c7.1,7.4,37.4,33.5,50.7,19.2c3.7-11.8-26.6-20.3-25.6-33.7c7.5,15.3,34.3,29.4,42.3,15.3c8.7-15.3-33.3-19.6-30.1-29.2
			c0.7,5.7,34.3,13.9,36.2,0c2.7-8.8-8.8-12.1-22.8-20.8C75.6,605.7-9.3,566.9,55.9,500.5c47.6-48.6,152.1-11.3,176.6-148.1
			c24.4-136.2,87.8-139.4,87.8-139.4"/>
		<g>
			<g>
				<path class="st9" d="M30.6,484.1c5.6,0,5.6-8.7,0-8.7C25,475.4,25,484.1,30.6,484.1L30.6,484.1z"/>
			</g>
		</g>
		<g>
			<g>
				<path class="st9" d="M8.5,532.1c5.6,0,5.6-8.7,0-8.7C2.9,523.4,2.9,532.1,8.5,532.1L8.5,532.1z"/>
			</g>
		</g>
		<g>
			<g>
				<path class="st9" d="M25.6,502.6c5.6,0,5.6-8.7,0-8.7C20,493.9,20,502.6,25.6,502.6L25.6,502.6z"/>
			</g>
		</g>
		<g>
			<g>
				<path class="st9" d="M22.6,546.2c5.6,0,5.6-8.7,0-8.7C17,537.5,17,546.2,22.6,546.2L22.6,546.2z"/>
			</g>
		</g>
		<g>
			<g>
				<path class="st9" d="M13.1,511.5c5.6,0,5.6-8.7,0-8.7C7.5,502.9,7.5,511.5,13.1,511.5L13.1,511.5z"/>
			</g>
		</g>
		<g>
			<g>
				<path class="st9" d="M25.6,522.1c5.6,0,5.6-8.7,0-8.7C20,513.4,20,522.1,25.6,522.1L25.6,522.1z"/>
			</g>
		</g>
		<g>
			<g>
				<path class="st9" d="M13.1,576.1c5.6,0,5.6-8.7,0-8.7C7.5,567.4,7.5,576.1,13.1,576.1L13.1,576.1z"/>
			</g>
		</g>
		<g>
			<g>
				<path class="st9" d="M8.5,554.8c5.6,0,5.6-8.7,0-8.7C2.9,546.1,2.9,554.8,8.5,554.8L8.5,554.8z"/>
			</g>
		</g>
		<g>
			<g>
				<path class="st9" d="M38.8,595.4c5.6,0,5.6-8.7,0-8.7C33.2,586.8,33.2,595.4,38.8,595.4L38.8,595.4z"/>
			</g>
		</g>
		<g>
			<g>
				<path class="st9" d="M25.6,604.6c5.6,0,5.6-8.7,0-8.7C20,595.9,20,604.6,25.6,604.6L25.6,604.6z"/>
			</g>
		</g>
		<g>
			<g>
				<path class="st9" d="M25.6,565c5.6,0,5.6-8.7,0-8.7C20,556.3,20,565,25.6,565L25.6,565z"/>
			</g>
		</g>
		<g>
			<g>
				<path class="st9" d="M40.8,618.6c5.6,0,5.6-8.7,0-8.7C35.2,609.9,35.2,618.6,40.8,618.6L40.8,618.6z"/>
			</g>
		</g>
		<g>
			<g>
				<path class="st9" d="M25.6,584.1c5.6,0,5.6-8.7,0-8.7C20,575.4,20,584.1,25.6,584.1L25.6,584.1z"/>
			</g>
		</g>
		<g>
			<g>
				<path class="st9" d="M41.8,639.1c5.6,0,5.6-8.7,0-8.7C36.2,630.4,36.2,639.1,41.8,639.1L41.8,639.1z"/>
			</g>
		</g>
		<g>
			<g>
				<path class="st9" d="M65.9,671.6c5.6,0,5.6-8.7,0-8.7C60.3,663,60.3,671.6,65.9,671.6L65.9,671.6z"/>
			</g>
		</g>
		<g>
			<g>
				<path class="st9" d="M95.3,663.9c5.6,0,5.6-8.7,0-8.7C89.7,655.2,89.7,663.9,95.3,663.9L95.3,663.9z"/>
			</g>
		</g>
		<g>
			<g>
				<path class="st9" d="M55.9,658.9c5.6,0,5.6-8.7,0-8.7C50.3,650.2,50.3,658.9,55.9,658.9L55.9,658.9z"/>
			</g>
		</g>
		<g>
			<g>
				<path class="st9" d="M79,666.7c5.6,0,5.6-8.7,0-8.7C73.4,658,73.4,666.7,79,666.7L79,666.7z"/>
			</g>
		</g>
		<g>
			<g>
				<path class="st9" d="M55.8,632.8c5.6,0,5.6-8.7,0-8.7C50.2,624.1,50.2,632.8,55.8,632.8L55.8,632.8z"/>
			</g>
		</g>
		<g>
			<g>
				<path class="st9" d="M72.6,645.8c5.6,0,5.6-8.7,0-8.7C67,637.1,67,645.8,72.6,645.8L72.6,645.8z"/>
			</g>
		</g>
		<g>
			<g>
				<path class="st9" d="M90.9,642.8c5.6,0,5.6-8.7,0-8.7C85.3,634.1,85.3,642.8,90.9,642.8L90.9,642.8z"/>
			</g>
		</g>
		<g>
			<g>
				<path class="st9" d="M76.3,623.4c5.6,0,5.6-8.7,0-8.7C70.7,614.8,70.7,623.4,76.3,623.4L76.3,623.4z"/>
			</g>
		</g>
		<g>
			<g>
				<path class="st9" d="M59.5,610.9c5.6,0,5.6-8.7,0-8.7C53.9,602.2,53.9,610.9,59.5,610.9L59.5,610.9z"/>
			</g>
		</g>
		<g>
			<g>
				<path class="st9" d="M40.8,496.1c5.6,0,5.6-8.7,0-8.7C35.2,487.4,35.2,496.1,40.8,496.1L40.8,496.1z"/>
			</g>
		</g>
		<g>
			<g>
				<path class="st9" d="M45.9,480.9c5.6,0,5.6-8.7,0-8.7C40.3,472.3,40.3,480.9,45.9,480.9L45.9,480.9z"/>
			</g>
		</g>
		<g>
			<g>
				<path class="st9" d="M56.1,465.1c5.6,0,5.6-8.7,0-8.7C50.5,456.4,50.5,465.1,56.1,465.1L56.1,465.1z"/>
			</g>
		</g>
		<g>
			<g>
				<path class="st9" d="M61.6,480.9c5.6,0,5.6-8.7,0-8.7C56,472.3,56,480.9,61.6,480.9L61.6,480.9z"/>
			</g>
		</g>
		<g>
			<g>
				<path class="st9" d="M79.6,454.1c5.6,0,5.6-8.7,0-8.7C74,445.4,74,454.1,79.6,454.1L79.6,454.1z"/>
			</g>
		</g>
		<g>
			<g>
				<path class="st9" d="M70.7,468.2c5.6,0,5.6-8.7,0-8.7C65.2,459.5,65.1,468.2,70.7,468.2L70.7,468.2z"/>
			</g>
		</g>
		<g>
			<g>
				<path class="st9" d="M84.6,470.9c5.6,0,5.6-8.7,0-8.7C79,462.2,79,470.9,84.6,470.9L84.6,470.9z"/>
			</g>
		</g>
		<g>
			<g>
				<path class="st9" d="M93.6,457.6c5.6,0,5.6-8.7,0-8.7C88,448.9,88,457.6,93.6,457.6L93.6,457.6z"/>
			</g>
		</g>
		<g>
			<g>
				<path class="st9" d="M106,446.5c5.6,0,5.6-8.7,0-8.7C100.5,437.8,100.4,446.5,106,446.5L106,446.5z"/>
			</g>
		</g>
		<g>
			<g>
				<path class="st9" d="M120.3,454.1c5.6,0,5.6-8.7,0-8.7C114.7,445.4,114.7,454.1,120.3,454.1L120.3,454.1z"/>
			</g>
		</g>
		<g>
			<g>
				<path class="st9" d="M136.6,454.1c5.6,0,5.6-8.7,0-8.7C131,445.4,131,454.1,136.6,454.1L136.6,454.1z"/>
			</g>
		</g>
		<g>
			<g>
				<path class="st9" d="M108.6,462.6c5.6,0,5.6-8.7,0-8.7C103,453.9,103,462.6,108.6,462.6L108.6,462.6z"/>
			</g>
		</g>
		<g>
			<g>
				<path class="st9" d="M128.1,442.1c5.6,0,5.6-8.7,0-8.7C122.5,433.4,122.5,442.1,128.1,442.1L128.1,442.1z"/>
			</g>
		</g>
		<g>
			<g>
				<path class="st9" d="M160.3,432.3c5.6,0,5.6-8.7,0-8.7C154.7,423.6,154.7,432.3,160.3,432.3L160.3,432.3z"/>
			</g>
		</g>
		<g>
			<g>
				<path class="st9" d="M156.4,447.6c5.6,0,5.6-8.7,0-8.7C150.8,439,150.8,447.6,156.4,447.6L156.4,447.6z"/>
			</g>
		</g>
		<g>
			<g>
				<path class="st9" d="M144.8,438.3c5.6,0,5.6-8.7,0-8.7C139.3,429.6,139.3,438.3,144.8,438.3L144.8,438.3z"/>
			</g>
		</g>
		<g>
			<g>
				<path class="st9" d="M170.9,419.1c5.6,0,5.6-8.7,0-8.7C165.3,410.4,165.3,419.1,170.9,419.1L170.9,419.1z"/>
			</g>
		</g>
		<g>
			<g>
				<path class="st9" d="M183.6,421.2c5.6,0,5.6-8.7,0-8.7C178,412.5,178,421.2,183.6,421.2L183.6,421.2z"/>
			</g>
		</g>
		<g>
			<g>
				<path class="st9" d="M174.6,435.8c5.6,0,5.6-8.7,0-8.7C169,427.1,169,435.8,174.6,435.8L174.6,435.8z"/>
			</g>
		</g>
		<g>
			<g>
				<path class="st9" d="M183.6,406.9c5.6,0,5.6-8.7,0-8.7C178,398.2,178,406.9,183.6,406.9L183.6,406.9z"/>
			</g>
		</g>
		<g>
			<g>
				<path class="st9" d="M197.9,403.1c5.6,0,5.6-8.7,0-8.7C192.3,394.4,192.3,403.1,197.9,403.1L197.9,403.1z"/>
			</g>
		</g>
		<g>
			<g>
				<path class="st9" d="M195.1,386.4c5.6,0,5.6-8.7,0-8.7C189.5,377.7,189.5,386.4,195.1,386.4L195.1,386.4z"/>
			</g>
		</g>
		<g>
			<g>
				<path class="st9" d="M209.1,386.4c5.6,0,5.6-8.7,0-8.7C203.5,377.7,203.5,386.4,209.1,386.4L209.1,386.4z"/>
			</g>
		</g>
		<g>
			<g>
				<path class="st9" d="M214.9,304.6c5.6,0,5.6-8.7,0-8.7C209.3,295.9,209.3,304.6,214.9,304.6L214.9,304.6z"/>
			</g>
		</g>
		<g>
			<g>
				<path class="st9" d="M223.1,286.8c5.6,0,5.6-8.7,0-8.7C217.5,278.2,217.5,286.8,223.1,286.8L223.1,286.8z"/>
			</g>
		</g>
		<g>
			<g>
				<path class="st9" d="M230.6,266.6c5.6,0,5.6-8.7,0-8.7C225,257.9,225,266.6,230.6,266.6L230.6,266.6z"/>
			</g>
		</g>
		<g>
			<g>
				<path class="st9" d="M240.1,246.6c5.6,0,5.6-8.7,0-8.7C234.5,237.9,234.5,246.6,240.1,246.6L240.1,246.6z"/>
			</g>
		</g>
		<g>
			<g>
				<path class="st9" d="M251.1,232c5.6,0,5.6-8.7,0-8.7C245.5,223.4,245.5,232,251.1,232L251.1,232z"/>
			</g>
		</g>
		<g>
			<g>
				<path class="st9" d="M270.4,217.5c5.6,0,5.6-8.7,0-8.7C264.9,208.8,264.8,217.5,270.4,217.5L270.4,217.5z"/>
			</g>
		</g>
		<g>
			<g>
				<path class="st9" d="M287.5,203.6c5.6,0,5.6-8.7,0-8.7C282,195,282,203.6,287.5,203.6L287.5,203.6z"/>
			</g>
		</g>
		<g>
			<g>
				<path class="st9" d="M303.2,192.8c5.6,0,5.6-8.7,0-8.7C297.6,184.1,297.6,192.8,303.2,192.8L303.2,192.8z"/>
			</g>
		</g>
		<g>
			<g>
				<path class="st9" d="M311,205.1c5.6,0,5.6-8.7,0-8.7C305.4,196.4,305.4,205.1,311,205.1L311,205.1z"/>
			</g>
		</g>
		<g>
			<g>
				<path class="st9" d="M318.4,190.1c5.6,0,5.6-8.7,0-8.7C312.9,181.5,312.8,190.1,318.4,190.1L318.4,190.1z"/>
			</g>
		</g>
		<g>
			<g>
				<path class="st9" d="M202.1,373.6c5.6,0,5.6-8.7,0-8.7C196.5,364.9,196.5,373.6,202.1,373.6L202.1,373.6z"/>
			</g>
		</g>
		<g>
			<g>
				<path class="st9" d="M205.1,353c5.6,0,5.6-8.7,0-8.7C199.5,344.3,199.5,353,205.1,353L205.1,353z"/>
			</g>
		</g>
		<g>
			<g>
				<path class="st9" d="M209.1,336.6c5.6,0,5.6-8.7,0-8.7C203.5,327.9,203.5,336.6,209.1,336.6L209.1,336.6z"/>
			</g>
		</g>
		<g>
			<g>
				<path class="st9" d="M211.6,320.4c5.6,0,5.6-8.7,0-8.7C206,311.7,206,320.4,211.6,320.4L211.6,320.4z"/>
			</g>
		</g>
		<g>
			<g>
				<path class="st9" d="M212.6,365.5c5.6,0,5.6-8.7,0-8.7C207,356.9,207,365.5,212.6,365.5L212.6,365.5z"/>
			</g>
		</g>
		<g>
			<g>
				<path class="st9" d="M217.1,348.1c5.6,0,5.6-8.7,0-8.7C211.5,339.4,211.5,348.1,217.1,348.1L217.1,348.1z"/>
			</g>
		</g>
		<g>
			<g>
				<path class="st9" d="M223.1,327.2c5.6,0,5.6-8.7,0-8.7C217.5,318.5,217.5,327.2,223.1,327.2L223.1,327.2z"/>
			</g>
		</g>
		<g>
			<g>
				<path class="st9" d="M228.1,309.7c5.6,0,5.6-8.7,0-8.7C222.5,301,222.5,309.7,228.1,309.7L228.1,309.7z"/>
			</g>
		</g>
		<g>
			<g>
				<path class="st9" d="M234.6,293.5c5.6,0,5.6-8.7,0-8.7C229,284.9,229,293.5,234.6,293.5L234.6,293.5z"/>
			</g>
		</g>
		<g>
			<g>
				<path class="st9" d="M240.1,278.1c5.6,0,5.6-8.7,0-8.7C234.5,269.4,234.5,278.1,240.1,278.1L240.1,278.1z"/>
			</g>
		</g>
		<g>
			<g>
				<path class="st9" d="M249.3,263.2c5.6,0,5.6-8.7,0-8.7C243.7,254.5,243.7,263.2,249.3,263.2L249.3,263.2z"/>
			</g>
		</g>
		<g>
			<g>
				<path class="st9" d="M255.1,246.6c5.6,0,5.6-8.7,0-8.7C249.5,237.9,249.5,246.6,255.1,246.6L255.1,246.6z"/>
			</g>
		</g>
		<g>
			<g>
				<path class="st9" d="M266.6,234.1c5.6,0,5.6-8.7,0-8.7C261,225.4,261,234.1,266.6,234.1L266.6,234.1z"/>
			</g>
		</g>
		<g>
			<g>
				<path class="st9" d="M287.2,217.5c5.6,0,5.6-8.7,0-8.7C281.7,208.8,281.6,217.5,287.2,217.5L287.2,217.5z"/>
			</g>
		</g>
		<path class="st10" d="M320.3,213.1c0.5-2.1,0.9-12.9,4.9-23.6c0.3-1.5-81.8,35.7-75.6,99.8C270.4,226.7,317.8,211.3,320.3,213.1z"
			/>
	</g>
	<path class="st2" d="M693.4,254.2c2.7,67.4,10.6,162.1-178,162.1c-146.2,0-159.9-92.8-159.9-169c0-70.3,53.4-155.9,124.6-158
		c33.9-1,40.8,19.3,46.4,24.5c3.2-5.7,12.4-24.7,48.4-24.1C634.2,87.9,689.6,161.7,693.4,254.2z"/>
	<path class="st11" d="M427,298.6c-1.1,6.9-7.6,11.7-14.5,10.6c-6.9-1.1-11.7-7.6-10.6-14.5c1.1-6.9,7.6-11.7,14.5-10.6
		C423.3,285.2,428.1,291.7,427,298.6z"/>
	<path class="st11" d="M644.7,295.5c-0.9,5.8-6.4,9.8-12.2,8.9c-5.8-0.9-9.8-6.4-8.9-12.2c0.9-5.8,6.3-9.8,12.2-8.9
		C641.6,284.2,645.6,289.7,644.7,295.5z"/>
	<path class="st12" d="M519.9,205.1c0,35.7-27.9,64.7-62.3,64.7c-34.4,0-62.3-29-62.3-64.7c0-35.7,27.9-64.7,62.3-64.7
		C492,140.4,519.9,169.4,519.9,205.1z"/>
	<path class="st2" d="M489.2,203.1c0,17.5-13.8,31.6-30.8,31.6c-17,0-30.8-14.2-30.8-31.6c0-17.5,13.8-31.6,30.8-31.6
		C475.5,171.5,489.2,185.7,489.2,203.1z"/>
	<path class="st12" d="M473.1,201c0,8-6.3,14.4-14,14.4c-7.7,0-14-6.4-14-14.4c0-8,6.3-14.4,14-14.4
		C466.8,186.6,473.1,193,473.1,201z"/>
	<path class="st12" d="M452.5,221.3c0,3.3-2.6,5.9-5.8,5.9c-3.2,0-5.8-2.6-5.8-5.9c0-3.3,2.6-5.9,5.8-5.9
		C449.9,215.4,452.5,218,452.5,221.3z"/>
	<g>
		<path class="st13" d="M422.1,127.2c-1.8-4.6,0.4-8,3.6-8.6c3.2-0.6,6.2,1,6.9,5c0.7,3.8-0.4,8.5-2.4,12.8
			C430.2,136.4,423.7,131.3,422.1,127.2z"/>
		<path class="st13" d="M446.3,121.1c-0.9-4.9,1.8-7.8,5-7.8c3.2,0,5.9,2.1,5.9,6.2c0,3.9-1.9,8.3-4.7,12.2
			C452.6,131.6,447.1,125.4,446.3,121.1z"/>
		<path class="st13" d="M471.5,121.4c0.4-4.9,3.8-7,7-6.2c3.1,0.8,5.1,3.6,4.1,7.5c-1,3.7-4,7.5-7.8,10.5
			C474.7,133.2,471.1,125.8,471.5,121.4z"/>
	</g>
	<path class="st12" d="M528.4,204.9c0,35.7,27.9,64.7,62.3,64.7c34.4,0,62.3-29,62.3-64.7c0-35.7-27.9-64.7-62.3-64.7
		C556.3,140.2,528.4,169.2,528.4,204.9z"/>
	<path class="st2" d="M559.1,202.9c0,17.5,13.8,31.6,30.8,31.6c17,0,30.8-14.2,30.8-31.6c0-17.5-13.8-31.6-30.8-31.6
		C572.9,171.3,559.1,185.5,559.1,202.9z"/>
	<path class="st12" d="M575.3,200.8c0,8,6.3,14.4,14,14.4c7.8,0,14-6.4,14-14.4c0-8-6.3-14.4-14-14.4
		C581.5,186.4,575.3,192.8,575.3,200.8z"/>
	<path class="st12" d="M595.8,221.1c0,3.3,2.6,5.9,5.8,5.9c3.2,0,5.7-2.6,5.7-5.9c0-3.3-2.6-5.9-5.7-5.9
		C598.4,215.2,595.8,217.8,595.8,221.1z"/>
	<g>
		<path class="st13" d="M626.2,127c1.8-4.6-0.4-8-3.5-8.6c-3.2-0.6-6.2,1-6.9,5c-0.7,3.8,0.4,8.5,2.4,12.8
			C618.1,136.2,624.6,131.1,626.2,127z"/>
		<path class="st13" d="M602,120.9c0.9-4.9-1.8-7.8-5-7.8c-3.2,0-5.9,2.1-5.9,6.2c0,3.9,1.9,8.3,4.7,12.2
			C595.7,131.4,601.2,125.2,602,120.9z"/>
		<path class="st13" d="M576.9,121.2c-0.4-4.9-3.8-7-7-6.2c-3.1,0.8-5.1,3.6-4.1,7.5c1,3.7,4,7.5,7.8,10.5
			C573.6,133,577.2,125.6,576.9,121.2z"/>
	</g>
	<path class="st14" d="M539.4,283.8c2.4,13.5-5.4,21.5-14.4,21.5c-8.9,0-16.4-6.2-16.2-17.4c0.2-10.8,5.6-23,13.5-33.6
		C522.4,254.3,537.3,271.7,539.4,283.8z"/>
	<path class="st12" d="M584.3,361.2c0,18.6-25,33.7-55.9,33.7c-30.9,0-55.9-15.1-55.9-33.7c0-18.6,25-33.7,55.9-33.7
		C559.3,327.5,584.3,342.6,584.3,361.2z"/>
	<path class="st2" d="M513.4,332.9c2.3,3.3,13.3,51.2,13.3,51.2s9.8-42.2,11.9-51.2C535,330.6,522,328.9,513.4,332.9z"/>
	<g>
		<path class="st5" d="M734.2,231.7c2.5,5,16.1-17.3,31.7,16.7c30.9,67.4,111.1,132.3,177.5,145.1c85.7,16.4,243.5-32.2,297.7-15.6
			c28.8,8.8,24.5,36,26.8,61.4c-0.2,6.8-0.5,23.2,11.5,23.2c10.8-1.5,10.8-14,10.8-25.3c6,18.5,0,29.8,13.7,29.8
			c7.8,0,10.7-20.3,12.1-29.8c1.7,9-1.4,32.3,14.1,27.3c13-5.1,6.3-26.7,3.2-54.8c-3.2-36-14.8-74.2-67.3-78.7
			c-57.3-4.9-155.3,22.7-251.9,32.3c-70.8,7-97.6-13.5-119.2-28.9c-49.7-35.5-102.6-110.1-109.7-122.5c-20-35.1-58.9-35.1-58.9-35.1
			"/>
		<g>
			<g>
				<path class="st9" d="M1113.9,378.1c5.6,0,5.6-8.7,0-8.7C1108.3,369.4,1108.3,378.1,1113.9,378.1L1113.9,378.1z"/>
			</g>
		</g>
		<g>
			<g>
				<path class="st9" d="M1188,347.9c5.6,0,5.6-8.7,0-8.7C1182.4,339.2,1182.4,347.9,1188,347.9L1188,347.9z"/>
			</g>
		</g>
		<g>
			<g>
				<path class="st9" d="M1096.4,380.1c5.6,0,5.6-8.7,0-8.7C1090.8,371.4,1090.8,380.1,1096.4,380.1L1096.4,380.1z"/>
			</g>
		</g>
		<g>
			<g>
				<path class="st9" d="M1305,430.9c5.6,0,5.6-8.7,0-8.7C1299.4,422.2,1299.4,430.9,1305,430.9L1305,430.9z"/>
			</g>
		</g>
		<g>
			<g>
				<path class="st9" d="M1140.3,359c5.6,0,5.6-8.7,0-8.7C1134.7,350.3,1134.7,359,1140.3,359L1140.3,359z"/>
			</g>
		</g>
		<g>
			<g>
				<path class="st9" d="M1101.2,363.7c5.6,0,5.6-8.7,0-8.7C1095.7,355.1,1095.7,363.7,1101.2,363.7L1101.2,363.7z"/>
			</g>
		</g>
		<g>
			<g>
				<path class="st9" d="M1314.5,411.8c5.6,0,5.6-8.7,0-8.7C1308.9,403.1,1308.9,411.8,1314.5,411.8L1314.5,411.8z"/>
			</g>
		</g>
		<g>
			<g>
				<path class="st9" d="M1315.9,392.9c5.6,0,5.6-8.7,0-8.7C1310.4,384.2,1310.3,392.9,1315.9,392.9L1315.9,392.9z"/>
			</g>
		</g>
		<g>
			<g>
				<path class="st9" d="M1290.1,418.2c5.6,0,5.6-8.7,0-8.7C1284.6,409.5,1284.6,418.2,1290.1,418.2L1290.1,418.2z"/>
			</g>
		</g>
		<g>
			<g>
				<path class="st9" d="M1297.1,401.2c5.6,0,5.6-8.7,0-8.7C1291.5,392.5,1291.5,401.2,1297.1,401.2L1297.1,401.2z"/>
			</g>
		</g>
		<g>
			<g>
				<path class="st9" d="M1296.1,381.4c5.6,0,5.6-8.7,0-8.7C1290.5,372.7,1290.5,381.4,1296.1,381.4L1296.1,381.4z"/>
			</g>
		</g>
		<g>
			<g>
				<path class="st9" d="M1277.5,404c5.6,0,5.6-8.7,0-8.7C1271.9,395.3,1271.9,404,1277.5,404L1277.5,404z"/>
			</g>
		</g>
		<g>
			<g>
				<path class="st9" d="M1278,390c5.6,0,5.6-8.7,0-8.7C1272.5,381.3,1272.5,390,1278,390L1278,390z"/>
			</g>
		</g>
		<g>
			<g>
				<path class="st9" d="M926.6,378.1c5.6,0,5.6-8.7,0-8.7C921,369.4,921,378.1,926.6,378.1L926.6,378.1z"/>
			</g>
		</g>
		<g>
			<g>
				<path class="st9" d="M920.3,363.7c5.6,0,5.6-8.7,0-8.7C914.7,355.1,914.7,363.7,920.3,363.7L920.3,363.7z"/>
			</g>
		</g>
		<g>
			<g>
				<path class="st9" d="M1261.9,378.1c5.6,0,5.6-8.7,0-8.7C1256.4,369.4,1256.3,378.1,1261.9,378.1L1261.9,378.1z"/>
			</g>
		</g>
		<g>
			<g>
				<path class="st9" d="M908.6,377.2c5.6,0,5.6-8.7,0-8.7C903,368.6,903,377.2,908.6,377.2L908.6,377.2z"/>
			</g>
		</g>
		<g>
			<g>
				<path class="st9" d="M971.8,390c5.6,0,5.6-8.7,0-8.7C966.2,381.3,966.2,390,971.8,390L971.8,390z"/>
			</g>
		</g>
		<g>
			<g>
				<path class="st9" d="M899.9,363.7c5.6,0,5.6-8.7,0-8.7C894.3,355.1,894.3,363.7,899.9,363.7L899.9,363.7z"/>
			</g>
		</g>
		<g>
			<g>
				<path class="st9" d="M945.9,372.2c5.6,0,5.6-8.7,0-8.7C940.3,363.5,940.3,372.2,945.9,372.2L945.9,372.2z"/>
			</g>
		</g>
		<g>
			<g>
				<path class="st9" d="M1194.6,363.7c5.6,0,5.6-8.7,0-8.7C1189,355.1,1189,363.7,1194.6,363.7L1194.6,363.7z"/>
			</g>
		</g>
		<g>
			<g>
				<path class="st9" d="M943.1,387.4c5.6,0,5.6-8.7,0-8.7C937.5,378.7,937.5,387.4,943.1,387.4L943.1,387.4z"/>
			</g>
		</g>
		<g>
			<g>
				<path class="st9" d="M881.9,363.7c5.6,0,5.6-8.7,0-8.7C876.3,355.1,876.3,363.7,881.9,363.7L881.9,363.7z"/>
			</g>
		</g>
		<g>
			<g>
				<path class="st9" d="M1176.6,366.9c5.6,0,5.6-8.7,0-8.7C1171,358.2,1171,366.9,1176.6,366.9L1176.6,366.9z"/>
			</g>
		</g>
		<g>
			<g>
				<path class="st9" d="M894.5,347.9c5.6,0,5.6-8.7,0-8.7C888.9,339.2,888.9,347.9,894.5,347.9L894.5,347.9z"/>
			</g>
		</g>
		<g>
			<g>
				<path class="st9" d="M878.1,347.9c5.6,0,5.6-8.7,0-8.7C872.5,339.2,872.5,347.9,878.1,347.9L878.1,347.9z"/>
			</g>
		</g>
		<g>
			<g>
				<path class="st9" d="M1154.3,370c5.6,0,5.6-8.7,0-8.7C1148.7,361.3,1148.7,370,1154.3,370L1154.3,370z"/>
			</g>
		</g>
		<g>
			<g>
				<path class="st9" d="M1134.9,377.2c5.6,0,5.6-8.7,0-8.7C1129.3,368.6,1129.3,377.2,1134.9,377.2L1134.9,377.2z"/>
			</g>
		</g>
		<g>
			<g>
				<path class="st9" d="M960.6,380.1c5.6,0,5.6-8.7,0-8.7C955,371.4,955,380.1,960.6,380.1L960.6,380.1z"/>
			</g>
		</g>
		<g>
			<g>
				<path class="st9" d="M1119.4,363.7c5.6,0,5.6-8.7,0-8.7C1113.8,355.1,1113.8,363.7,1119.4,363.7L1119.4,363.7z"/>
			</g>
		</g>
		<g>
			<g>
				<path class="st9" d="M863.6,347.9c5.6,0,5.6-8.7,0-8.7C858,339.2,858,347.9,863.6,347.9L863.6,347.9z"/>
			</g>
		</g>
		<g>
			<g>
				<path class="st9" d="M872.2,332.9c5.6,0,5.6-8.7,0-8.7C866.7,324.2,866.6,332.9,872.2,332.9L872.2,332.9z"/>
			</g>
		</g>
		<g>
			<g>
				<path class="st9" d="M857.2,331.9c5.6,0,5.6-8.7,0-8.7C851.7,323.2,851.6,331.9,857.2,331.9L857.2,331.9z"/>
			</g>
		</g>
		<g>
			<g>
				<path class="st9" d="M840.9,329.2c5.6,0,5.6-8.7,0-8.7C835.3,320.6,835.3,329.2,840.9,329.2L840.9,329.2z"/>
			</g>
		</g>
		<g>
			<g>
				<path class="st9" d="M855.2,317.2c5.6,0,5.6-8.7,0-8.7C849.7,308.6,849.6,317.2,855.2,317.2L855.2,317.2z"/>
			</g>
		</g>
		<g>
			<g>
				<path class="st9" d="M839.4,313.8c5.6,0,5.6-8.7,0-8.7C833.9,305.2,833.9,313.8,839.4,313.8L839.4,313.8z"/>
			</g>
		</g>
		<g>
			<g>
				<path class="st9" d="M825.3,317.9c5.6,0,5.6-8.7,0-8.7C819.7,309.2,819.7,317.9,825.3,317.9L825.3,317.9z"/>
			</g>
		</g>
		<g>
			<g>
				<path class="st9" d="M822.3,302.2c5.6,0,5.6-8.7,0-8.7C816.7,293.5,816.7,302.2,822.3,302.2L822.3,302.2z"/>
			</g>
		</g>
		<g>
			<g>
				<path class="st9" d="M839.9,298.2c5.6,0,5.6-8.7,0-8.7C834.3,289.5,834.3,298.2,839.9,298.2L839.9,298.2z"/>
			</g>
		</g>
		<g>
			<g>
				<path class="st9" d="M807.9,294.4c5.6,0,5.6-8.7,0-8.7C802.3,285.7,802.3,294.4,807.9,294.4L807.9,294.4z"/>
			</g>
		</g>
		<g>
			<g>
				<path class="st9" d="M794.7,277.7c5.6,0,5.6-8.7,0-8.7C789.1,269.1,789.1,277.7,794.7,277.7L794.7,277.7z"/>
			</g>
		</g>
		<g>
			<g>
				<path class="st9" d="M807.9,263.3c5.6,0,5.6-8.7,0-8.7C802.3,254.6,802.3,263.3,807.9,263.3L807.9,263.3z"/>
			</g>
		</g>
		<g>
			<g>
				<path class="st9" d="M799.2,250.7c5.6,0,5.6-8.7,0-8.7C793.7,242,793.6,250.7,799.2,250.7L799.2,250.7z"/>
			</g>
		</g>
		<g>
			<g>
				<path class="st9" d="M785.9,241.8c5.6,0,5.6-8.7,0-8.7C780.3,233.1,780.3,241.8,785.9,241.8L785.9,241.8z"/>
			</g>
		</g>
		<g>
			<g>
				<path class="st9" d="M783.9,225.4c5.6,0,5.6-8.7,0-8.7C778.3,216.8,778.3,225.4,783.9,225.4L783.9,225.4z"/>
			</g>
		</g>
		<g>
			<g>
				<path class="st9" d="M768.6,222.2c5.6,0,5.6-8.7,0-8.7C763,213.6,763,222.2,768.6,222.2L768.6,222.2z"/>
			</g>
		</g>
		<g>
			<g>
				<path class="st9" d="M768.6,205.9c5.6,0,5.6-8.7,0-8.7C763,197.2,763,205.9,768.6,205.9L768.6,205.9z"/>
			</g>
		</g>
		<g>
			<g>
				<path class="st9" d="M748.6,193.3c5.6,0,5.6-8.7,0-8.7C743,184.7,743,193.3,748.6,193.3L748.6,193.3z"/>
			</g>
		</g>
		<g>
			<g>
				<path class="st9" d="M827.3,288c5.6,0,5.6-8.7,0-8.7C821.7,279.3,821.7,288,827.3,288L827.3,288z"/>
			</g>
		</g>
		<g>
			<g>
				<path class="st9" d="M813.4,279c5.6,0,5.6-8.7,0-8.7C807.9,270.4,807.9,279,813.4,279L813.4,279z"/>
			</g>
		</g>
		<g>
			<g>
				<path class="st9" d="M789,263.3c5.6,0,5.6-8.7,0-8.7C783.4,254.6,783.4,263.3,789,263.3L789,263.3z"/>
			</g>
		</g>
		<g>
			<g>
				<path class="st9" d="M772.2,245.8c5.6,0,5.6-8.7,0-8.7C766.6,237.1,766.6,245.8,772.2,245.8L772.2,245.8z"/>
			</g>
		</g>
		<g>
			<g>
				<path class="st9" d="M756.4,230.5c5.6,0,5.6-8.7,0-8.7C750.8,221.8,750.8,230.5,756.4,230.5L756.4,230.5z"/>
			</g>
		</g>
		<g>
			<g>
				<path class="st9" d="M743.8,216.3c5.6,0,5.6-8.7,0-8.7C738.2,207.6,738.2,216.3,743.8,216.3L743.8,216.3z"/>
			</g>
		</g>
		<g>
			<g>
				<path class="st9" d="M755,207c5.6,0,5.6-8.7,0-8.7C749.4,198.3,749.4,207,755,207L755,207z"/>
			</g>
		</g>
		<g>
			<g>
				<path class="st9" d="M739.3,201.4c5.6,0,5.6-8.7,0-8.7C733.7,192.8,733.7,201.4,739.3,201.4L739.3,201.4z"/>
			</g>
		</g>
		<path class="st10" d="M736.8,231.9c-0.4-2.1-3-29.5-6.4-40.4c-0.2-1.2,26.8-6.4,43.5,56.7c3.3,12.4,7.7,25,18.8,41.8
			c-19.4-19.7-29.2-52.4-38.3-58.2C746.8,227,738.2,231,736.8,231.9z"/>
		<g>
			<g>
				<path class="st9" d="M1167.8,355c5.6,0,5.6-8.7,0-8.7C1162.2,346.3,1162.2,355,1167.8,355L1167.8,355z"/>
			</g>
		</g>
		<g>
			<g>
				<path class="st9" d="M979.9,377.2c5.6,0,5.6-8.7,0-8.7C974.3,368.6,974.3,377.2,979.9,377.2L979.9,377.2z"/>
			</g>
		</g>
		<g>
			<g>
				<path class="st9" d="M989.9,390c5.6,0,5.6-8.7,0-8.7C984.3,381.3,984.3,390,989.9,390L989.9,390z"/>
			</g>
		</g>
		<g>
			<g>
				<path class="st9" d="M999.8,380.1c5.6,0,5.6-8.7,0-8.7C994.2,371.4,994.2,380.1,999.8,380.1L999.8,380.1z"/>
			</g>
		</g>
		<g>
			<g>
				<path class="st9" d="M1012.6,390c5.6,0,5.6-8.7,0-8.7C1007,381.3,1007,390,1012.6,390L1012.6,390z"/>
			</g>
		</g>
		<g>
			<g>
				<path class="st9" d="M1024.8,376.3c5.6,0,5.6-8.7,0-8.7C1019.2,367.6,1019.2,376.3,1024.8,376.3L1024.8,376.3z"/>
			</g>
		</g>
		<g>
			<g>
				<path class="st9" d="M1035.9,386.4c5.6,0,5.6-8.7,0-8.7C1030.3,377.7,1030.3,386.4,1035.9,386.4L1035.9,386.4z"/>
			</g>
		</g>
		<g>
			<g>
				<path class="st9" d="M1045.1,372.2c5.6,0,5.6-8.7,0-8.7C1039.5,363.5,1039.5,372.2,1045.1,372.2L1045.1,372.2z"/>
			</g>
		</g>
		<g>
			<g>
				<path class="st9" d="M1053.9,384c5.6,0,5.6-8.7,0-8.7C1048.3,375.3,1048.3,384,1053.9,384L1053.9,384z"/>
			</g>
		</g>
		<g>
			<g>
				<path class="st9" d="M1062.6,370c5.6,0,5.6-8.7,0-8.7C1057,361.3,1057,370,1062.6,370L1062.6,370z"/>
			</g>
		</g>
		<g>
			<g>
				<path class="st9" d="M1071.2,382.1c5.6,0,5.6-8.7,0-8.7C1065.7,373.4,1065.6,382.1,1071.2,382.1L1071.2,382.1z"/>
			</g>
		</g>
		<g>
			<g>
				<path class="st9" d="M1083.9,370c5.6,0,5.6-8.7,0-8.7C1078.3,361.3,1078.3,370,1083.9,370L1083.9,370z"/>
			</g>
		</g>
		<g>
			<g>
				<path class="st9" d="M1216.2,363.7c5.6,0,5.6-8.7,0-8.7C1210.6,355.1,1210.6,363.7,1216.2,363.7L1216.2,363.7z"/>
			</g>
		</g>
		<g>
			<g>
				<path class="st9" d="M1241.2,366.9c5.6,0,5.6-8.7,0-8.7C1235.7,358.2,1235.6,366.9,1241.2,366.9L1241.2,366.9z"/>
			</g>
		</g>
		<g>
			<g>
				<path class="st9" d="M1207.9,347.9c5.6,0,5.6-8.7,0-8.7C1202.3,339.2,1202.3,347.9,1207.9,347.9L1207.9,347.9z"/>
			</g>
		</g>
		<g>
			<g>
				<path class="st9" d="M1226.5,351c5.6,0,5.6-8.7,0-8.7C1220.9,342.3,1220.9,351,1226.5,351L1226.5,351z"/>
			</g>
		</g>
		<g>
			<g>
				<path class="st9" d="M1241.2,345.6c5.6,0,5.6-8.7,0-8.7C1235.7,336.9,1235.6,345.6,1241.2,345.6L1241.2,345.6z"/>
			</g>
		</g>
		<g>
			<g>
				<path class="st9" d="M1257.8,359c5.6,0,5.6-8.7,0-8.7C1252.2,350.3,1252.2,359,1257.8,359L1257.8,359z"/>
			</g>
		</g>
		<g>
			<g>
				<path class="st9" d="M1266.5,345.6c5.6,0,5.6-8.7,0-8.7C1260.9,336.9,1260.9,345.6,1266.5,345.6L1266.5,345.6z"/>
			</g>
		</g>
		<g>
			<g>
				<path class="st9" d="M1273.1,365c5.6,0,5.6-8.7,0-8.7C1267.5,356.3,1267.5,365,1273.1,365L1273.1,365z"/>
			</g>
		</g>
		<g>
			<g>
				<path class="st9" d="M1285.9,351c5.6,0,5.6-8.7,0-8.7C1280.3,342.3,1280.3,351,1285.9,351L1285.9,351z"/>
			</g>
		</g>
		<g>
			<g>
				<path class="st9" d="M1290.1,365c5.6,0,5.6-8.7,0-8.7C1284.6,356.3,1284.6,365,1290.1,365L1290.1,365z"/>
			</g>
		</g>
		<g>
			<g>
				<path class="st9" d="M1307.9,366.9c5.6,0,5.6-8.7,0-8.7C1302.3,358.2,1302.3,366.9,1307.9,366.9L1307.9,366.9z"/>
			</g>
		</g>
	</g>
</g>
</svg>
