<?xml version="1.0" encoding="utf-8"?>
<!-- Generator: Adobe Illustrator 19.2.1, SVG Export Plug-In . SVG Version: 6.00 Build 0)  -->
<svg version="1.1" id="Capa_1" xmlns="http://www.w3.org/2000/svg" xmlns:xlink="http://www.w3.org/1999/xlink" x="0px" y="0px"
	 viewBox="0 0 616.6 681.9" style="enable-background:new 0 0 616.6 681.9;" xml:space="preserve">
<style type="text/css">
	.st0{opacity:0.4;fill:#C7C7C7;}
	.st1{fill:#F6AB3B;}
	.st2{fill:#EC5A24;}
	.st3{fill:#F7E921;}
	.st4{fill:#E1E1E1;stroke:#FFFF00;stroke-miterlimit:10;}
	.st5{fill:none;stroke:#FFFF00;stroke-miterlimit:10;}
	.st6{fill:#E1E1E1;}
	.st7{fill:#FFFFFF;}
	.st8{fill:#1D1D1B;}
	.st9{fill:#FF41D1;}
	.st10{fill:#65C3CB;}
	.st11{fill:#00FFFF;}
</style>
<ellipse class="st0" cx="361.1" cy="586.5" rx="255.5" ry="92.8"/>
<path class="st1" d="M342.4,681.9c0,0,84.4-4.5,143.8-30.6c26.6-12.5,52.7-32.8,61.8-43.9c29.4-35.6,34.5-71.1,27.4-136.2
	C558.8,315.9,486.1,46,351.3,36.8c-161.1,0-231.5,262.4-251.6,414c-8.1,61.2-10.2,126.5,30.2,169c6.2,6.5-35.9,25.7-43.8,27.4
	c-3.1-12.3-6-17.8-13.6-14.7c-8.3,5-4.9,20.4,7.4,27.1c19.1-4,51.9-18.4,87.2-24.9c0,0,53.4,2.5,90.5,1.6
	c50.4,1.7,65.6,3.3,78.7,3.5c27.3,0.4,42.9,2.5,92.9-3.5c-63,32.2-81.3,32.2-81.3,32.2s-5.4-17.6-15-10
	C327.4,668.6,342.4,681.9,342.4,681.9z"/>
<path class="st2" d="M433.9,141.4c8.4,9.3,76.6-74.9,31.1-141.4c-16,63.1-67.6,97.7-67.6,97.7S423.8,114.4,433.9,141.4z"/>
<path class="st2" d="M225.1,128.3C218,136.2,160,64.6,198.7,8.1c13.6,53.7,57.5,83,57.5,83S233.7,105.4,225.1,128.3z"/>
<g>
	<g>
		<path class="st3" d="M355.3,50.6c4,0.7,8,1.8,11.6,3.8c0.8,0.5,1.6-0.8,0.8-1.3c-3.7-2.1-7.8-3.3-11.9-4
			C354.8,49,354.3,50.4,355.3,50.6L355.3,50.6z"/>
	</g>
</g>
<g>
	<g>
		<path class="st3" d="M381.4,61c3.4,0.7,6.6,2.1,9.6,3.8c0.8,0.5,1.6-0.8,0.8-1.3c-3.1-1.8-6.4-3.2-10-4
			C380.9,59.4,380.5,60.8,381.4,61L381.4,61z"/>
	</g>
</g>
<g>
	<g>
		<path class="st3" d="M405.9,74.6c1.1,1.1,2.2,2.2,3.3,3.3c0.7,0.7,1.7-0.4,1.1-1.1c-1.1-1.1-2.2-2.2-3.3-3.3
			C406.3,72.8,405.3,73.9,405.9,74.6L405.9,74.6z"/>
	</g>
</g>
<g>
	<g>
		<path class="st3" d="M354.6,71.5c3.2,1.2,6.5,1.9,9.8,2.6c0.9,0.2,1.3-1.3,0.4-1.4c-3.3-0.7-6.6-1.4-9.8-2.6
			C354.1,69.7,353.8,71.1,354.6,71.5L354.6,71.5z"/>
	</g>
</g>
<g>
	<g>
		<path class="st3" d="M383.2,80.6c2.5,1.3,4.4,3.2,6.4,5.1c0.7,0.7,1.7-0.4,1.1-1.1c-2-2-4.1-4-6.7-5.3
			C383.1,78.8,382.4,80.1,383.2,80.6L383.2,80.6z"/>
	</g>
</g>
<g>
	<g>
		<path class="st3" d="M458.1,133.9c1.3,1.9,3.2,3.3,4.6,5.2c0.5,0.8,1.8,0,1.3-0.8c-1.3-1.9-3.2-3.3-4.6-5.2
			C458.9,132.3,457.6,133.1,458.1,133.9L458.1,133.9z"/>
	</g>
</g>
<g>
	<g>
		<path class="st3" d="M470.5,155.3c0.7,2.8,2.1,5.4,4.1,7.5c0.7,0.7,1.7-0.4,1.1-1.1c-1.9-1.9-3-4.3-3.7-6.9
			C471.7,154,470.2,154.3,470.5,155.3L470.5,155.3z"/>
	</g>
</g>
<g>
	<g>
		<path class="st3" d="M480.6,183.2c1.7,1.3,2.3,3.5,2.9,5.4c0.3,0.9,1.7,0.5,1.4-0.4c-0.8-2.4-1.5-4.8-3.6-6.3
			C480.6,181.3,479.8,182.6,480.6,183.2L480.6,183.2z"/>
	</g>
</g>
<g>
	<g>
		<path class="st3" d="M492.8,209.1c1.2,2.5,2.5,5,3.2,7.7c0.2,0.9,1.7,0.5,1.4-0.4c-0.8-2.8-2-5.4-3.3-8
			C493.6,207.4,492.3,208.2,492.8,209.1L492.8,209.1z"/>
	</g>
</g>
<g>
	<g>
		<path class="st3" d="M504.5,235.9c1.7,2.3,3.3,4.6,4.6,7.2c0.4,0.9,1.7,0.1,1.3-0.8c-1.3-2.6-2.9-4.9-4.6-7.2
			C505.3,234.3,503.9,235.1,504.5,235.9L504.5,235.9z"/>
	</g>
</g>
<g>
	<g>
		<path class="st3" d="M514.9,265.7c0.6,1.9,0.7,4,1.3,5.9c0.3,0.9,1.7,0.5,1.4-0.4c-0.6-1.9-0.7-4-1.3-5.9
			C516.1,264.4,514.6,264.8,514.9,265.7L514.9,265.7z"/>
	</g>
</g>
<g>
	<g>
		<path class="st3" d="M522.2,294.7c1.3,2,2,4.1,2.5,6.4c0.2,0.9,1.7,0.5,1.4-0.4c-0.6-2.4-1.4-4.6-2.7-6.7
			C522.9,293.1,521.6,293.9,522.2,294.7L522.2,294.7z"/>
	</g>
</g>
<g>
	<g>
		<path class="st3" d="M531.9,323.7c0,1.9,0,3.9,0.8,5.6c0.4,0.9,1.7,0.1,1.3-0.8c-0.7-1.5-0.6-3.3-0.6-4.9
			C533.4,322.8,531.9,322.8,531.9,323.7L531.9,323.7z"/>
	</g>
</g>
<g>
	<g>
		<path class="st3" d="M540.4,349.4c0.7,2.3,0.6,4.7,0.6,7c0,1,1.5,1,1.5,0c0-2.5,0-5-0.7-7.4C541.6,348.1,540.1,348.5,540.4,349.4
			L540.4,349.4z"/>
	</g>
</g>
<g>
	<g>
		<path class="st3" d="M535.9,375c-1.3,2-2.6,3.9-3.9,5.9c-0.5,0.8,0.8,1.6,1.3,0.8c1.3-2,2.6-3.9,3.9-5.9
			C537.7,374.9,536.4,374.2,535.9,375L535.9,375z"/>
	</g>
</g>
<g>
	<g>
		<path class="st3" d="M524.8,401.8c-1.4,2.8-2.5,5.7-3.9,8.5c-0.4,0.9,0.9,1.6,1.3,0.8c1.4-2.8,2.5-5.7,3.9-8.5
			C526.5,401.7,525.2,400.9,524.8,401.8L524.8,401.8z"/>
	</g>
</g>
<g>
	<g>
		<path class="st3" d="M512.4,427.3c-1.3,2.5-3,4.8-4.6,7.2c-0.5,0.8,0.8,1.6,1.3,0.8c1.6-2.4,3.3-4.7,4.6-7.2
			C514.1,427.2,512.8,426.4,512.4,427.3L512.4,427.3z"/>
	</g>
</g>
<g>
	<g>
		<path class="st3" d="M498,450.1c-0.8,1.5-2,2.6-3.1,3.8c-0.7,0.7,0.4,1.7,1.1,1.1c1.2-1.2,2.6-2.5,3.4-4.1
			C499.7,450,498.4,449.3,498,450.1L498,450.1z"/>
	</g>
</g>
<g>
	<g>
		<path class="st3" d="M479.3,466.2c-1.4,0.7-2.5,1.9-3.9,2.6c-0.9,0.5-0.1,1.7,0.8,1.3c1.4-0.7,2.5-1.9,3.9-2.6
			C480.9,467.1,480.2,465.8,479.3,466.2L479.3,466.2z"/>
	</g>
</g>
<g>
	<g>
		<path class="st3" d="M457.1,474.1c-2.3,1.6-4.7,2.5-7.5,2.5c-1,0-1,1.5,0,1.5c3,0,5.8-0.9,8.2-2.7
			C458.6,474.8,457.9,473.5,457.1,474.1L457.1,474.1z"/>
	</g>
</g>
<g>
	<g>
		<path class="st3" d="M434.6,477.9c-1.5,0-3,0-4.6,0c-1,0-1,1.5,0,1.5c1.5,0,3,0,4.6,0C435.5,479.4,435.6,477.9,434.6,477.9
			L434.6,477.9z"/>
	</g>
</g>
<g>
	<g>
		<path class="st3" d="M411.7,483.8c-2,0-3.9,0-5.9,0c-1,0-1,1.5,0,1.5c2,0,3.9,0,5.9,0C412.7,485.3,412.7,483.8,411.7,483.8
			L411.7,483.8z"/>
	</g>
</g>
<g>
	<g>
		<path class="st3" d="M390.3,485.3c-0.4,0.4-0.9,0.4-1.4,0.4c-1,0-1,1.5,0,1.5c1,0,1.8-0.2,2.5-0.9
			C392,485.7,391,484.6,390.3,485.3L390.3,485.3z"/>
	</g>
</g>
<g>
	<g>
		<path class="st3" d="M546.9,381.4c0.7,2.1,0.7,4.4,1.3,6.5c0.3,0.9,1.7,0.5,1.4-0.4c-0.7-2.1-0.7-4.4-1.3-6.5
			C548.1,380.1,546.7,380.5,546.9,381.4L546.9,381.4z"/>
	</g>
</g>
<g>
	<g>
		<path class="st3" d="M553.5,408.5c-0.6,1.8-0.7,3.6-0.7,5.4c0,1,1.5,1,1.5,0c0-1.7,0.1-3.4,0.6-5
			C555.2,408,553.8,407.6,553.5,408.5L553.5,408.5z"/>
	</g>
</g>
<g>
	<g>
		<path class="st3" d="M556.7,433.5c0,1.3,0,2.6,0,3.9c0,1,1.5,1,1.5,0c0-1.3,0-2.6,0-3.9C558.2,432.6,556.7,432.6,556.7,433.5
			L556.7,433.5z"/>
	</g>
</g>
<g>
	<g>
		<path class="st3" d="M562.6,456.4c0,1.7,0,3.5,0,5.2c0,1,1.5,1,1.5,0c0-1.7,0-3.5,0-5.2C564.1,455.4,562.6,455.4,562.6,456.4
			L562.6,456.4z"/>
	</g>
</g>
<g>
	<g>
		<path class="st3" d="M563.3,488.4c0,1.3,0,2.6,0,3.9c0,1,1.5,1,1.5,0c0-1.3,0-2.6,0-3.9C564.8,487.5,563.3,487.5,563.3,488.4
			L563.3,488.4z"/>
	</g>
</g>
<g>
	<g>
		<path class="st3" d="M565.2,510.7c0,1.7,0,3.5,0,5.2c0,1,1.5,1,1.5,0c0-1.7,0-3.5,0-5.2C566.7,509.7,565.2,509.7,565.2,510.7
			L565.2,510.7z"/>
	</g>
</g>
<g>
	<g>
		<path class="st3" d="M562.6,537.5c0,3-0.5,6-1.9,8.8c-0.4,0.9,0.9,1.6,1.3,0.8c1.4-3,2-6.2,2.1-9.5
			C564.1,536.5,562.6,536.5,562.6,537.5L562.6,537.5z"/>
	</g>
</g>
<g>
	<g>
		<path class="st3" d="M556.8,563.9c-1.1,1.7-2.1,3.5-3.3,5.2c-0.5,0.8,0.8,1.6,1.3,0.8c1.1-1.7,2.1-3.5,3.3-5.2
			C558.6,563.8,557.3,563.1,556.8,563.9L556.8,563.9z"/>
	</g>
</g>
<g>
	<g>
		<path class="st3" d="M543,585c-0.6,2.2-1.5,4.5-3.1,6.2c-0.7,0.7,0.4,1.8,1.1,1.1c1.8-1.9,2.8-4.4,3.5-6.9
			C544.7,584.4,543.3,584,543,585L543,585z"/>
	</g>
</g>
<g>
	<g>
		<path class="st3" d="M527.5,603.6c-2.4,2.4-5,4.4-8.2,5.7c-0.9,0.4-0.5,1.8,0.4,1.4c3.4-1.4,6.2-3.5,8.8-6.1
			C529.3,604,528.2,602.9,527.5,603.6L527.5,603.6z"/>
	</g>
</g>
<g>
	<g>
		<path class="st3" d="M505,617.1c-2.3,0.6-4.5,1.9-7,1.9c-1,0-1,1.5,0,1.5c2.6-0.1,4.9-1.3,7.4-2
			C506.3,618.3,505.9,616.9,505,617.1L505,617.1z"/>
	</g>
</g>
<g>
	<g>
		<path class="st3" d="M477.7,626.3c-2.8,0-5.7,0-8.5,0c-1,0-1,1.5,0,1.5c2.8,0,5.7,0,8.5,0C478.7,627.8,478.7,626.3,477.7,626.3
			L477.7,626.3z"/>
	</g>
</g>
<g>
	<g>
		<path class="st3" d="M542.3,422.4c0,2.2,0,4.4,0,6.5c0,1,1.5,1,1.5,0c0-2.2,0-4.4,0-6.5C543.8,421.4,542.3,421.4,542.3,422.4
			L542.3,422.4z"/>
	</g>
</g>
<g>
	<g>
		<path class="st3" d="M543,449c-0.6,2.1-0.6,4.2,0,6.3c0.3,0.9,1.7,0.5,1.4-0.4c-0.6-1.9-0.6-3.6,0-5.5
			C544.8,448.5,543.3,448.1,543,449L543,449z"/>
	</g>
</g>
<g>
	<g>
		<path class="st3" d="M549.6,473.1c0.6,1.3,0.6,2.8,0.6,4.2c0,1,1.5,1,1.5,0c0-1.7,0-3.4-0.8-5
			C550.5,471.5,549.2,472.3,549.6,473.1L549.6,473.1z"/>
	</g>
</g>
<g>
	<g>
		<path class="st3" d="M549,501.8c-0.6,1.4-0.8,2.8-0.8,4.3c0,1,1.5,1,1.5,0c0-1.2,0-2.4,0.6-3.5C550.7,501.7,549.4,500.9,549,501.8
			L549,501.8z"/>
	</g>
</g>
<g>
	<g>
		<path class="st3" d="M551.6,522c-0.7,1.6-0.8,3.3-0.8,5c0,1,1.5,1,1.5,0c0-1.4,0-2.9,0.6-4.2C553.3,521.9,552,521.2,551.6,522
			L551.6,522z"/>
	</g>
</g>
<g>
	<g>
		<path class="st3" d="M547.1,550c-1.3,1.4-1.9,3.1-2.7,4.7c-0.4,0.9,0.9,1.6,1.3,0.8c0.7-1.5,1.3-3.2,2.5-4.4
			C548.9,550.4,547.8,549.3,547.1,550L547.1,550z"/>
	</g>
</g>
<g>
	<g>
		<path class="st3" d="M536,569c-1.2,1.2-2,2.6-2.7,4.1c-0.4,0.9,0.9,1.6,1.3,0.8c0.7-1.4,1.4-2.7,2.5-3.8
			C537.8,569.3,536.7,568.3,536,569L536,569z"/>
	</g>
</g>
<g>
	<g>
		<path class="st3" d="M526.4,586.5c-1.9,1.3-3.3,3.2-5.2,4.6c-0.8,0.5,0,1.8,0.8,1.3c1.9-1.3,3.3-3.2,5.2-4.6
			C527.9,587.2,527.2,585.9,526.4,586.5L526.4,586.5z"/>
	</g>
</g>
<g>
	<g>
		<path class="st3" d="M504.5,598.5c-1.1,2.1-2.3,4.2-4.8,4.9c-0.9,0.3-0.5,1.7,0.4,1.4c2.9-0.8,4.4-3.1,5.7-5.6
			C506.3,598.4,505,597.7,504.5,598.5L504.5,598.5z"/>
	</g>
</g>
<g>
	<g>
		<path class="st3" d="M482.1,609.3c-1.8,0.6-3.7,0.6-5.4,1.4c-0.9,0.4-0.1,1.7,0.8,1.3c1.6-0.7,3.4-0.7,5-1.2
			C483.4,610.4,483,609,482.1,609.3L482.1,609.3z"/>
	</g>
</g>
<g>
	<g>
		<path class="st3" d="M452,617.1c-1.8,0.6-3.5,1.4-5.2,2c-0.9,0.3-0.5,1.8,0.4,1.4c1.8-0.6,3.5-1.4,5.2-2
			C453.3,618.3,453,616.8,452,617.1L452,617.1z"/>
	</g>
</g>
<g>
	<g>
		<path class="st3" d="M499.8,633.9c-2.9,0.7-6,0.6-9,0.6c-1,0-1,1.5,0,1.5c3.1,0,6.3,0,9.4-0.7
			C501.1,635.1,500.7,633.7,499.8,633.9L499.8,633.9z"/>
	</g>
</g>
<g>
	<g>
		<path class="st3" d="M528,439.2c-0.5,1.6-0.7,3.1-0.7,4.8c0,1,1.5,1,1.5,0c0-1.5,0.2-2.9,0.6-4.4
			C529.7,438.7,528.3,438.3,528,439.2L528,439.2z"/>
	</g>
</g>
<g>
	<g>
		<path class="st3" d="M533.8,466.2c0,1.6,0.6,3,0.7,4.6c0,1,1.5,1,1.5,0c0-1.6-0.6-3-0.7-4.6C535.3,465.2,533.8,465.2,533.8,466.2
			L533.8,466.2z"/>
	</g>
</g>
<g>
	<g>
		<path class="st3" d="M534.5,485.2c0,2,0,3.9,0,5.9c0,1,1.5,1,1.5,0c0-2,0-3.9,0-5.9C536,484.2,534.5,484.2,534.5,485.2
			L534.5,485.2z"/>
	</g>
</g>
<g>
	<g>
		<path class="st3" d="M536.5,512.6c0,1.5,0,3.1,0,4.6c0,1,1.5,1,1.5,0c0-1.5,0-3.1,0-4.6C538,511.7,536.5,511.6,536.5,512.6
			L536.5,512.6z"/>
	</g>
</g>
<g>
	<g>
		<path class="st3" d="M535.8,535.5c0,1.7,0,3.5,0,5.2c0,1,1.5,1,1.5,0c0-1.7,0-3.5,0-5.2C537.3,534.5,535.8,534.5,535.8,535.5
			L535.8,535.5z"/>
	</g>
</g>
<g>
	<g>
		<path class="st3" d="M526,555.8c0,1-0.4,2-1.1,2.7c-0.7,0.7,0.4,1.8,1.1,1.1c1-1,1.5-2.4,1.5-3.8C527.5,554.8,526,554.8,526,555.8
			L526,555.8z"/>
	</g>
</g>
<g>
	<g>
		<path class="st3" d="M513.8,574.2c-1.1,1.1-2.2,2.2-3.3,3.3c-0.7,0.7,0.4,1.7,1.1,1.1c1.1-1.1,2.2-2.2,3.3-3.3
			C515.5,574.6,514.5,573.5,513.8,574.2L513.8,574.2z"/>
	</g>
</g>
<g>
	<g>
		<path class="st3" d="M499.3,582.2c-1.6,2.1-3.4,4.2-6.1,4.9c-0.9,0.3-0.5,1.7,0.4,1.4c3-0.8,5.1-3.1,7-5.6
			C501.2,582.2,499.9,581.4,499.3,582.2L499.3,582.2z"/>
	</g>
</g>
<g>
	<g>
		<path class="st3" d="M472,593.8c-1.1,1-2.5,1.2-3.8,1.8c-0.9,0.4-0.1,1.7,0.8,1.3c1.4-0.7,2.9-0.9,4.1-2.1
			C473.7,594.2,472.7,593.1,472,593.8L472,593.8z"/>
	</g>
</g>
<g>
	<g>
		<path class="st3" d="M453.5,603.4c-2,0-3.9,0-5.9,0c-1,0-1,1.5,0,1.5c2,0,3.9,0,5.9,0C454.5,604.9,454.5,603.4,453.5,603.4
			L453.5,603.4z"/>
	</g>
</g>
<g>
	<g>
		<path class="st3" d="M425.1,612c-1.5,0.7-3.1,0.6-4.6,1.3c-0.9,0.4-0.1,1.7,0.8,1.3c1.5-0.7,3.1-0.6,4.6-1.3
			C426.7,612.9,425.9,611.6,425.1,612L425.1,612z"/>
	</g>
</g>
<g>
	<g>
		<path class="st3" d="M514.3,460.5c0.6,2.4,0.6,4.9,1.3,7.2c0.3,0.9,1.7,0.5,1.4-0.4c-0.7-2.3-0.8-4.8-1.3-7.2
			C515.5,459.2,514,459.6,514.3,460.5L514.3,460.5z"/>
	</g>
</g>
<g>
	<g>
		<path class="st3" d="M518.8,488.6c0.5,1.7,0.6,3.3,0.6,5c0,1,1.5,1,1.5,0c0-1.9-0.1-3.6-0.7-5.4
			C520,487.3,518.5,487.7,518.8,488.6L518.8,488.6z"/>
	</g>
</g>
<g>
	<g>
		<path class="st3" d="M520.1,508.7c0,1.7,0,3.5,0,5.2c0,1,1.5,1,1.5,0c0-1.7,0-3.5,0-5.2C521.6,507.7,520.1,507.7,520.1,508.7
			L520.1,508.7z"/>
	</g>
</g>
<g>
	<g>
		<path class="st3" d="M520.1,528.8c-0.6,2-0.7,4-0.7,6.1c0,1,1.5,1,1.5,0c0-1.9,0.1-3.8,0.6-5.7
			C521.9,528.2,520.4,527.8,520.1,528.8L520.1,528.8z"/>
	</g>
</g>
<g>
	<g>
		<path class="st3" d="M509,550.3c-0.7,2-1.9,3.9-2,6.1c0,1,1.5,1,1.5,0c0.1-2,1.3-3.8,1.9-5.7C510.8,549.8,509.3,549.4,509,550.3
			L509,550.3z"/>
	</g>
</g>
<g>
	<g>
		<path class="st3" d="M489.6,566.3c-2,2-3.9,3.9-5.9,5.9c-0.7,0.7,0.4,1.7,1.1,1.1c2-2,3.9-3.9,5.9-5.9
			C491.4,566.7,490.3,565.7,489.6,566.3L489.6,566.3z"/>
	</g>
</g>
<g>
	<g>
		<path class="st3" d="M465.4,577.4c-0.8,0.8-1.8,1.2-2.6,2c-0.7,0.7,0.4,1.7,1.1,1.1c0.8-0.8,1.8-1.2,2.6-2
			C467.2,577.8,466.1,576.8,465.4,577.4L465.4,577.4z"/>
	</g>
</g>
<g>
	<g>
		<path class="st3" d="M448.6,584.5c-2.8,1.3-5.7,1.8-8.8,1.9c-1,0-1,1.5,0,1.5c3.3,0,6.5-0.6,9.5-2.1
			C450.2,585.4,449.5,584.1,448.6,584.5L448.6,584.5z"/>
	</g>
</g>
<g>
	<g>
		<path class="st3" d="M424.4,590.4c-2.4,1.1-5.1,1.3-7.7,1.9c-0.9,0.2-0.5,1.7,0.4,1.4c2.7-0.6,5.5-0.8,8-2
			C426,591.3,425.3,590,424.4,590.4L424.4,590.4z"/>
	</g>
</g>
<g>
	<g>
		<path class="st3" d="M524.8,345.6c-0.6-1.3-0.7-2.7-1.3-3.9c-0.4-0.9-1.7-0.1-1.3,0.8c0.6,1.3,0.7,2.7,1.3,3.9
			C523.9,347.2,525.2,346.4,524.8,345.6L524.8,345.6z"/>
	</g>
</g>
<g>
	<g>
		<path class="st3" d="M519,323.5c-0.7-3.3-1.9-6.3-3.3-9.3c-0.4-0.9-1.7-0.1-1.3,0.8c1.4,2.9,2.5,5.8,3.2,9
			C517.7,324.9,519.2,324.5,519,323.5L519,323.5z"/>
	</g>
</g>
<g>
	<g>
		<path class="st3" d="M508.4,290c-0.7-1.5-0.6-3.1-1.3-4.6c-0.4-0.9-1.7-0.1-1.3,0.8c0.7,1.5,0.6,3.1,1.3,4.6
			C507.5,291.6,508.8,290.9,508.4,290L508.4,290z"/>
	</g>
</g>
<g>
	<g>
		<path class="st3" d="M500.7,266.7c-1.2-3.5-2.5-6.9-3.3-10.5c-0.2-0.9-1.6-0.5-1.4,0.4c0.8,3.6,2.1,7,3.3,10.5
			C499.5,268,501,267.6,500.7,266.7L500.7,266.7z"/>
	</g>
</g>
<g>
	<g>
		<path class="st3" d="M489.2,235.5c-1.5-1.1-2.3-2.4-2.9-4.1c-0.3-0.9-1.8-0.5-1.4,0.4c0.7,2.1,1.7,3.7,3.6,5
			C489.3,237.3,490,236,489.2,235.5L489.2,235.5z"/>
	</g>
</g>
<g>
	<g>
		<path class="st3" d="M481.4,209.3c-1.8-1.2-3.4-2.7-5.2-3.9c-0.8-0.5-1.6,0.8-0.8,1.3c1.8,1.2,3.4,2.7,5.2,3.9
			C481.4,211.2,482.2,209.9,481.4,209.3L481.4,209.3z"/>
	</g>
</g>
<g>
	<g>
		<path class="st3" d="M469.1,181.4c-2.1-2.2-3.6-4.6-4.4-7.5c-0.2-0.9-1.7-0.5-1.4,0.4c0.8,3.2,2.5,5.8,4.8,8.2
			C468.7,183.1,469.8,182,469.1,181.4L469.1,181.4z"/>
	</g>
</g>
<g>
	<g>
		<path class="st3" d="M453,154.9c-0.6-2.1-0.6-4.2-0.6-6.3c0-1-1.5-1-1.5,0c0,2.3,0,4.6,0.7,6.7C451.8,156.2,453.2,155.8,453,154.9
			L453,154.9z"/>
	</g>
</g>
<g>
	<g>
		<path class="st3" d="M373.3,91.6c-2.4-0.6-4.9-0.6-7.2-1.3c-0.9-0.3-1.3,1.2-0.4,1.4c2.3,0.7,4.8,0.8,7.2,1.3
			C373.9,93.3,374.3,91.8,373.3,91.6L373.3,91.6z"/>
	</g>
</g>
<g>
	<g>
		<path class="st3" d="M400.3,110.6c-3.1-1.9-6-3.9-9.3-5.3c-0.9-0.4-1.3,1.1-0.4,1.4c3.2,1.3,6,3.4,9,5.2
			C400.4,112.4,401.1,111.1,400.3,110.6L400.3,110.6z"/>
	</g>
</g>
<g>
	<g>
		<path class="st3" d="M419.9,128.9c-2.4-1.2-4.3-3.1-6.5-4.6c-0.8-0.5-1.6,0.8-0.8,1.3c2.2,1.5,4.1,3.3,6.5,4.6
			C420,130.7,420.8,129.4,419.9,128.9L419.9,128.9z"/>
	</g>
</g>
<g>
	<g>
		<path class="st3" d="M450.3,176.3c-1.9-2.5-4.4-4.5-6.7-6.7c-0.7-0.7-1.7,0.4-1.1,1.1c2.2,2.1,4.6,4,6.4,6.4
			C449.6,177.8,450.9,177,450.3,176.3L450.3,176.3z"/>
	</g>
</g>
<g>
	<g>
		<path class="st3" d="M452.2,197.9c0.7,1.3,1.3,2.6,2,3.9c0.4,0.9,1.7,0.1,1.3-0.8c-0.7-1.3-1.3-2.6-2-3.9
			C453.1,196.3,451.8,197.1,452.2,197.9L452.2,197.9z"/>
	</g>
</g>
<g>
	<g>
		<path class="st3" d="M430.7,155.5c-1.5-4-4.6-6.8-8.2-8.9c-0.8-0.5-1.6,0.8-0.8,1.3c3.2,2,6.2,4.4,7.5,8
			C429.6,156.8,431.1,156.4,430.7,155.5L430.7,155.5z"/>
	</g>
</g>
<g>
	<g>
		<path class="st3" d="M401.8,133c-2.5-2.5-5-4.8-8-6.7c-0.8-0.5-1.6,0.8-0.8,1.3c2.9,1.8,5.3,4,7.7,6.4
			C401.4,134.7,402.5,133.7,401.8,133L401.8,133z"/>
	</g>
</g>
<g>
	<g>
		<path class="st3" d="M375.5,112.6c-2.8-1.4-5.7-2-8.9-2.1c-1,0-1,1.5,0,1.5c2.9,0,5.5,0.6,8.1,1.9
			C375.6,114.3,376.4,113,375.5,112.6L375.5,112.6z"/>
	</g>
</g>
<g>
	<g>
		<path class="st3" d="M350.5,105.4c-0.9,0.4-1.9,0.5-2.9,0.6c-1,0-1,1.5,0,1.5c1.3,0,2.5-0.2,3.6-0.8
			C352.2,106.3,351.4,105,350.5,105.4L350.5,105.4z"/>
	</g>
</g>
<g>
	<g>
		<path class="st3" d="M351.7,87.9c-0.6,0.5-1.4,0.8-2,1.3c-0.7,0.7,0.4,1.7,1.1,1.1c0.6-0.5,1.4-0.8,2-1.3
			C353.5,88.3,352.4,87.2,351.7,87.9L351.7,87.9z"/>
	</g>
</g>
<g>
	<g>
		<path class="st3" d="M359,123.6c-3.4-1.2-6.8-0.7-9.7,1.4c-0.8,0.6,0,1.9,0.8,1.3c2.6-1.9,5.5-2.3,8.6-1.2
			C359.5,125.4,359.9,124,359,123.6L359,123.6z"/>
	</g>
</g>
<g>
	<g>
		<path class="st3" d="M384.8,137.6c-2.1-2-4.7-3.4-7.5-4.1c-0.9-0.2-1.3,1.2-0.4,1.4c2.6,0.7,4.9,1.9,6.9,3.7
			C384.4,139.3,385.5,138.2,384.8,137.6L384.8,137.6z"/>
	</g>
</g>
<g>
	<g>
		<path class="st3" d="M412.7,157.7c-1.9-1.2-4-2-5.9-3.3c-0.8-0.5-1.6,0.8-0.8,1.3c1.9,1.2,4,2,5.9,3.3
			C412.8,159.5,413.6,158.2,412.7,157.7L412.7,157.7z"/>
	</g>
</g>
<g>
	<g>
		<path class="st3" d="M428.7,173.3c-1.1,0-2.1-0.6-2.6-1.6c-0.5-0.9-1.8-0.1-1.3,0.8c0.8,1.5,2.3,2.3,3.9,2.3
			C429.7,174.8,429.7,173.3,428.7,173.3L428.7,173.3z"/>
	</g>
</g>
<g>
	<g>
		<path class="st3" d="M391,154.4c-2.9-0.6-5.7-1.3-8.5-2c-0.9-0.2-1.3,1.2-0.4,1.4c2.8,0.7,5.6,1.4,8.5,2
			C391.5,156,391.9,154.6,391,154.4L391,154.4z"/>
	</g>
</g>
<g>
	<g>
		<path class="st3" d="M366.2,143.9c-2.7-0.6-5.3-0.7-8-0.7c-1,0-1,1.5,0,1.5c2.6,0,5.1,0,7.6,0.6
			C366.7,145.6,367.1,144.1,366.2,143.9L366.2,143.9z"/>
	</g>
</g>
<g>
	<g>
		<path class="st3" d="M341.2,144.7c-0.8,0.8-1.2,1.8-2,2.6c-0.7,0.7,0.4,1.8,1.1,1.1c0.8-0.8,1.2-1.8,2-2.6
			C343,145.1,341.9,144,341.2,144.7L341.2,144.7z"/>
	</g>
</g>
<g>
	<g>
		<path class="st3" d="M466.1,221.6c1.8,1.9,3,4.2,4.5,6.4c0.5,0.8,1.8,0.1,1.3-0.8c-1.5-2.3-2.8-4.7-4.7-6.7
			C466.5,219.9,465.4,220.9,466.1,221.6L466.1,221.6z"/>
	</g>
</g>
<g>
	<g>
		<path class="st3" d="M481.5,248.6c0,1.7,0.7,3.4,1.4,5c0.4,0.9,1.7,0.1,1.3-0.8c-0.6-1.3-1.2-2.8-1.2-4.2
			C483,247.6,481.5,247.6,481.5,248.6L481.5,248.6z"/>
	</g>
</g>
<g>
	<g>
		<path class="st3" d="M484.8,274.9c0.8,2.2,1.8,4.3,2.6,6.5c0.3,0.9,1.8,0.5,1.4-0.4c-0.8-2.2-1.8-4.3-2.6-6.5
			C486,273.6,484.5,274,484.8,274.9L484.8,274.9z"/>
	</g>
</g>
<g>
	<g>
		<path class="st3" d="M490.7,297.6c0.1,2.8,1.2,5.3,2.7,7.6c0.5,0.8,1.8,0.1,1.3-0.8c-1.3-2.1-2.4-4.3-2.5-6.8
			C492.2,296.6,490.7,296.6,490.7,297.6L490.7,297.6z"/>
	</g>
</g>
<g>
	<g>
		<path class="st3" d="M500.6,330c1.2,2,1.8,4.2,2.5,6.4c0.3,0.9,1.7,0.5,1.4-0.4c-0.8-2.3-1.4-4.7-2.7-6.7
			C501.4,328.4,500.1,329.2,500.6,330L500.6,330z"/>
	</g>
</g>
<g>
	<g>
		<path class="st3" d="M512.4,355.5c1.2,2.3,2.5,4.5,3.2,7c0.3,0.9,1.7,0.5,1.4-0.4c-0.7-2.6-2.1-5-3.3-7.4
			C513.2,353.9,511.9,354.6,512.4,355.5L512.4,355.5z"/>
	</g>
</g>
<g>
	<g>
		<path class="st3" d="M512.3,379.9c0,1.5,0.1,2.9,0.8,4.3c0.4,0.9,1.7,0.1,1.3-0.8c-0.5-1.1-0.5-2.3-0.6-3.5
			C513.8,379,512.3,379,512.3,379.9L512.3,379.9z"/>
	</g>
</g>
<g>
	<g>
		<path class="st3" d="M492.7,351.4c1.4,3.5,2.6,7,3.9,10.5c0.4,0.9,1.8,0.5,1.4-0.4c-1.4-3.5-2.6-7-3.9-10.5
			C493.8,350.1,492.3,350.5,492.7,351.4L492.7,351.4z"/>
	</g>
</g>
<g>
	<g>
		<path class="st3" d="M482.2,320.4c0,2.1,0.7,4.1,1.3,6.1c0.3,0.9,1.8,0.5,1.4-0.4c-0.6-1.9-1.2-3.7-1.3-5.7
			C483.7,319.5,482.2,319.5,482.2,320.4L482.2,320.4z"/>
	</g>
</g>
<g>
	<g>
		<path class="st3" d="M475,343.5c0.7,2.6,1.3,5.2,2,7.8c0.2,0.9,1.7,0.5,1.4-0.4c-0.7-2.6-1.3-5.2-2-7.8
			C476.3,342.2,474.8,342.6,475,343.5L475,343.5z"/>
	</g>
</g>
<g>
	<g>
		<path class="st3" d="M506.4,399.1c0.6,2.2,1.2,4.4,2,6.5c0.3,0.9,1.8,0.5,1.4-0.4c-0.7-2.2-1.4-4.3-2-6.5
			C507.6,397.8,506.2,398.1,506.4,399.1L506.4,399.1z"/>
	</g>
</g>
<g>
	<g>
		<path class="st3" d="M485.5,374.2c1.3,3.9,2.6,7.8,3.9,11.8c0.3,0.9,1.8,0.5,1.4-0.4c-1.3-3.9-2.6-7.8-3.9-11.8
			C486.6,372.9,485.2,373.3,485.5,374.2L485.5,374.2z"/>
	</g>
</g>
<g>
	<g>
		<path class="st3" d="M467.9,362.7c-0.6,2.6-0.7,5.4,0.7,7.8c0.5,0.8,1.8,0.1,1.3-0.8c-1.2-2-1.1-4.4-0.6-6.6
			C469.5,362.2,468.1,361.8,467.9,362.7L467.9,362.7z"/>
	</g>
</g>
<g>
	<g>
		<path class="st3" d="M474.4,387.6c-0.6,3.5,0,6.9,1.3,10.2c0.3,0.9,1.8,0.5,1.4-0.4c-1.2-3-1.9-6.1-1.3-9.4
			C476,387,474.5,386.6,474.4,387.6L474.4,387.6z"/>
	</g>
</g>
<g>
	<g>
		<path class="st3" d="M491.4,406.1c0.1,2.7,0.7,5.4,1.3,8c0.2,0.9,1.7,0.5,1.4-0.4c-0.6-2.5-1.2-5-1.3-7.6
			C492.8,405.1,491.3,405.1,491.4,406.1L491.4,406.1z"/>
	</g>
</g>
<g>
	<g>
		<path class="st3" d="M478.9,422.4c0,2,0,3.9,0,5.9c0,1,1.5,1,1.5,0c0-2,0-3.9,0-5.9C480.4,421.4,478.9,421.4,478.9,422.4
			L478.9,422.4z"/>
	</g>
</g>
<g>
	<g>
		<path class="st3" d="M494,430.3c0,0.9,0,1.7,0,2.6c0,1,1.5,1,1.5,0c0-0.9,0-1.7,0-2.6C495.5,429.3,494,429.3,494,430.3L494,430.3z
			"/>
	</g>
</g>
<g>
	<g>
		<path class="st3" d="M456.7,383.7c-0.6,2.1-0.6,4.2,0,6.3c0.3,0.9,1.7,0.5,1.4-0.4c-0.6-1.9-0.6-3.6,0-5.5
			C458.5,383.1,457,382.7,456.7,383.7L456.7,383.7z"/>
	</g>
</g>
<g>
	<g>
		<path class="st3" d="M463.9,406.1c0,3.6,0,7.1,0.7,10.7c0.2,0.9,1.6,0.5,1.4-0.4c-0.6-3.4-0.6-6.8-0.6-10.3
			C465.4,405.1,463.9,405.1,463.9,406.1L463.9,406.1z"/>
	</g>
</g>
<g>
	<g>
		<path class="st3" d="M473.8,442.4c1.3,2.1,1.8,4.4,1.9,6.8c0,1,1.5,1,1.5,0c0-2.7-0.6-5.3-2.1-7.6
			C474.6,440.8,473.3,441.6,473.8,442.4L473.8,442.4z"/>
	</g>
</g>
<g>
	<g>
		<path class="st3" d="M455.4,431.6c0.1,3.2,1.3,6,2.7,8.9c0.4,0.9,1.7,0.1,1.3-0.8c-1.3-2.6-2.4-5.2-2.5-8.1
			C456.9,430.6,455.4,430.6,455.4,431.6L455.4,431.6z"/>
	</g>
</g>
<g>
	<g>
		<path class="st3" d="M444.3,407.6c0.6,1.9,0.7,4,1.3,5.9c0.3,0.9,1.7,0.5,1.4-0.4c-0.6-1.9-0.7-4-1.3-5.9
			C445.5,406.3,444,406.7,444.3,407.6L444.3,407.6z"/>
	</g>
</g>
<g>
	<g>
		<path class="st3" d="M436.7,424.9c1.8,1.9,2.4,4.2,2.4,6.7c0,1,1.5,1,1.5,0c0-2.9-0.8-5.6-2.8-7.7
			C437.1,423.1,436,424.2,436.7,424.9L436.7,424.9z"/>
	</g>
</g>
<g>
	<g>
		<path class="st3" d="M432.6,410.7c1,0,1-1.5,0-1.5C431.7,409.2,431.7,410.7,432.6,410.7L432.6,410.7z"/>
	</g>
</g>
<g>
	<g>
		<path class="st3" d="M444.3,445.9c0,2.3,0.6,4.6,1.3,6.7c0.3,0.9,1.7,0.5,1.4-0.4c-0.7-2-1.2-4.2-1.3-6.3
			C445.8,445,444.3,445,444.3,445.9L444.3,445.9z"/>
	</g>
</g>
<g>
	<g>
		<path class="st3" d="M460,454.2c-0.7,2.2-0.7,4.7,0,6.9c0.3,0.9,1.7,0.5,1.4-0.4c-0.6-2-0.6-4.1,0-6.1
			C461.7,453.7,460.3,453.3,460,454.2L460,454.2z"/>
	</g>
</g>
<g>
	<g>
		<path class="st3" d="M433.2,458.4c0,1.7,0,3.4,0.8,5c0.4,0.9,1.7,0.1,1.3-0.8c-0.6-1.3-0.6-2.8-0.6-4.2
			C434.7,457.4,433.2,457.4,433.2,458.4L433.2,458.4z"/>
	</g>
</g>
<g>
	<g>
		<path class="st3" d="M426,438.1c0,2.2,0,4.4,0,6.5c0,1,1.5,1,1.5,0c0-2.2,0-4.4,0-6.5C427.5,437.1,426,437.1,426,438.1L426,438.1z
			"/>
	</g>
</g>
<g>
	<g>
		<path class="st3" d="M418.8,419.1c0,0.9,0.6,1.7,0.7,2.6c0,1,1.5,1,1.5,0c0-0.9-0.6-1.7-0.7-2.6
			C420.3,418.2,418.8,418.2,418.8,419.1L418.8,419.1z"/>
	</g>
</g>
<g>
	<g>
		<path class="st3" d="M407.7,430.9c0,2.7,0.1,5.4,0.7,8c0.2,0.9,1.7,0.5,1.4-0.4c-0.6-2.5-0.6-5.1-0.6-7.6
			C409.2,429.9,407.7,429.9,407.7,430.9L407.7,430.9z"/>
	</g>
</g>
<g>
	<g>
		<path class="st3" d="M414.3,453.6c-0.6,1.8-0.7,3.6-0.7,5.4c0,1,1.5,1,1.5,0c0-1.7,0.1-3.4,0.6-5
			C416,453.1,414.5,452.7,414.3,453.6L414.3,453.6z"/>
	</g>
</g>
<g>
	<g>
		<path class="st3" d="M396.6,443.3c0,2.4,0,4.8,0,7.2c0,1,1.5,1,1.5,0c0-2.4,0-4.8,0-7.2C398.1,442.4,396.6,442.4,396.6,443.3
			L396.6,443.3z"/>
	</g>
</g>
<g>
	<g>
		<path class="st3" d="M381.5,438.8c0,1.1,0,2.2,0,3.3c0,1,1.5,1,1.5,0c0-1.1,0-2.2,0-3.3C383,437.8,381.5,437.8,381.5,438.8
			L381.5,438.8z"/>
	</g>
</g>
<g>
	<g>
		<path class="st3" d="M384.3,454.7c-0.6,1.4-0.8,2.8-0.8,4.3c0,1,1.5,1,1.5,0c0-1.2,0-2.4,0.6-3.5
			C386,454.6,384.7,453.8,384.3,454.7L384.3,454.7z"/>
	</g>
</g>
<g>
	<g>
		<path class="st3" d="M397.3,465c1,0,1-1.5,0-1.5C396.4,463.5,396.4,465,397.3,465L397.3,465z"/>
	</g>
</g>
<g>
	<g>
		<path class="st3" d="M502.5,474.1c0,2.9,0.2,5.6,1.4,8.2c0.4,0.9,1.7,0.1,1.3-0.8c-1.1-2.4-1.2-4.9-1.2-7.5
			C504,473.1,502.5,473.1,502.5,474.1L502.5,474.1z"/>
	</g>
</g>
<g>
	<g>
		<path class="st3" d="M505.1,500.9c0,1.3,0,2.6,0,3.9c0,1,1.5,1,1.5,0c0-1.3,0-2.6,0-3.9C506.6,499.9,505.1,499.9,505.1,500.9
			L505.1,500.9z"/>
	</g>
</g>
<g>
	<g>
		<path class="st3" d="M504.4,523.1c0,2,0,3.9,0,5.9c0,1,1.5,1,1.5,0c0-2,0-3.9,0-5.9C505.9,522.1,504.4,522.1,504.4,523.1
			L504.4,523.1z"/>
	</g>
</g>
<g>
	<g>
		<path class="st3" d="M495.3,542.5c-0.7,2.1-2,3.9-3.2,5.7c-0.5,0.8,0.8,1.6,1.3,0.8c1.3-1.9,2.6-3.9,3.3-6.1
			C497.1,542,495.6,541.6,495.3,542.5L495.3,542.5z"/>
	</g>
</g>
<g>
	<g>
		<path class="st3" d="M477.2,557.2c-1.9,1.9-4.3,3-6.9,3.7c-0.9,0.2-0.5,1.7,0.4,1.4c2.8-0.7,5.4-2.1,7.5-4.1
			C479,557.6,477.9,556.5,477.2,557.2L477.2,557.2z"/>
	</g>
</g>
<g>
	<g>
		<path class="st3" d="M453.2,564.9c-1.3,0.7-2.6,1.3-3.9,2c-0.9,0.4-0.1,1.7,0.8,1.3c1.3-0.7,2.6-1.3,3.9-2
			C454.8,565.8,454,564.5,453.2,564.9L453.2,564.9z"/>
	</g>
</g>
<g>
	<g>
		<path class="st3" d="M431.3,572.7c-3.1,0-6.3,0.1-9.4,0.7c-0.9,0.2-0.5,1.6,0.4,1.4c3-0.6,5.9-0.6,9-0.6
			C432.3,574.2,432.3,572.7,431.3,572.7L431.3,572.7z"/>
	</g>
</g>
<g>
	<g>
		<path class="st3" d="M488.2,488.8c1.3,2,2,4.1,2.5,6.4c0.2,0.9,1.7,0.5,1.4-0.4c-0.6-2.4-1.4-4.6-2.7-6.7
			C489,487.2,487.7,488,488.2,488.8L488.2,488.8z"/>
	</g>
</g>
<g>
	<g>
		<path class="st3" d="M488.7,512.6c0,2,0,3.9,0,5.9c0,1,1.5,1,1.5,0c0-2,0-3.9,0-5.9C490.2,511.7,488.7,511.6,488.7,512.6
			L488.7,512.6z"/>
	</g>
</g>
<g>
	<g>
		<path class="st3" d="M481,534.5c-0.7,1.3-1.3,2.6-2,3.9c-0.4,0.9,0.9,1.6,1.3,0.8c0.7-1.3,1.3-2.6,2-3.9
			C482.7,534.4,481.4,533.6,481,534.5L481,534.5z"/>
	</g>
</g>
<g>
	<g>
		<path class="st3" d="M469.2,489.3c0.6,1.8,1.8,3.1,2.7,4.8c0.4,0.9,1.7,0.1,1.3-0.8c-0.8-1.5-2-2.8-2.5-4.4
			C470.3,488,468.8,488.4,469.2,489.3L469.2,489.3z"/>
	</g>
</g>
<g>
	<g>
		<path class="st3" d="M472.4,508.7c0,2.8,0,5.7,0,8.5c0,1,1.5,1,1.5,0c0-2.8,0-5.7,0-8.5C473.9,507.7,472.4,507.7,472.4,508.7
			L472.4,508.7z"/>
	</g>
</g>
<g>
	<g>
		<path class="st3" d="M466.5,533.5c0,2.6-0.7,5.1-1.3,7.6c-0.2,0.9,1.2,1.3,1.4,0.4c0.7-2.7,1.3-5.3,1.3-8
			C468,532.6,466.5,532.6,466.5,533.5L466.5,533.5z"/>
	</g>
</g>
<g>
	<g>
		<path class="st3" d="M452.8,498c-0.6,2.4-0.7,4.9-0.7,7.4c0,1,1.5,1,1.5,0c0-2.4,0.1-4.7,0.6-7C454.5,497.5,453,497.1,452.8,498
			L452.8,498z"/>
	</g>
</g>
<g>
	<g>
		<path class="st3" d="M452.8,522.2c-0.5,1.7-0.8,3.5-1.3,5.2c-0.3,0.9,1.2,1.3,1.4,0.4c0.5-1.7,0.8-3.5,1.3-5.2
			C454.6,521.7,453.1,521.3,452.8,522.2L452.8,522.2z"/>
	</g>
</g>
<g>
	<g>
		<path class="st3" d="M451.6,544.9c-0.7,1.4-1.9,2.5-2.6,3.9c-0.5,0.9,0.8,1.6,1.3,0.8c0.7-1.4,1.9-2.5,2.6-3.9
			C453.3,544.8,452,544.1,451.6,544.9L451.6,544.9z"/>
	</g>
</g>
<g>
	<g>
		<path class="st3" d="M437.1,508c0,3.3,0,6.5,0,9.8c0,1,1.5,1,1.5,0c0-3.3,0-6.5,0-9.8C438.6,507.1,437.1,507.1,437.1,508
			L437.1,508z"/>
	</g>
</g>
<g>
	<g>
		<path class="st3" d="M437.2,534.5c-0.9,1.8-1.4,3.6-1.4,5.6c0,1,1.5,1,1.5,0c0-1.7,0.5-3.3,1.2-4.9
			C438.9,534.4,437.6,533.6,437.2,534.5L437.2,534.5z"/>
	</g>
</g>
<g>
	<g>
		<path class="st3" d="M433.9,556c-0.6,1.1-1.6,1.6-2.5,2.5c-0.7,0.7,0.4,1.7,1.1,1.1c1-0.9,2.1-1.5,2.7-2.8
			C435.7,555.9,434.4,555.2,433.9,556L433.9,556z"/>
	</g>
</g>
<g>
	<g>
		<path class="st3" d="M416.2,508.5c-0.7,2.4-0.7,4.9-0.7,7.4c0,1,1.5,1,1.5,0c0-2.3-0.1-4.7,0.6-7
			C417.9,508,416.5,507.6,416.2,508.5L416.2,508.5z"/>
	</g>
</g>
<g>
	<g>
		<path class="st3" d="M422.1,527.6c0,2.6,0,5.2,0,7.8c0,1,1.5,1,1.5,0c0-2.6,0-5.2,0-7.8C423.6,526.7,422.1,526.7,422.1,527.6
			L422.1,527.6z"/>
	</g>
</g>
<g>
	<g>
		<path class="st3" d="M414.3,551c-0.5,1.7-0.8,3.5-1.3,5.2c-0.3,0.9,1.2,1.3,1.4,0.4c0.5-1.7,0.8-3.5,1.3-5.2
			C416,550.5,414.5,550.1,414.3,551L414.3,551z"/>
	</g>
</g>
<g>
	<g>
		<path class="st3" d="M396.6,513.7c-0.6,1.8-0.7,3.6-0.7,5.4c0,1,1.5,1,1.5,0c0-1.7,0.1-3.4,0.6-5
			C398.3,513.2,396.9,512.8,396.6,513.7L396.6,513.7z"/>
	</g>
</g>
<g>
	<g>
		<path class="st3" d="M401.2,533.3c-0.6,1.8-1.3,3.5-1.3,5.4c0,1,1.5,1,1.5,0c0-1.8,0.7-3.4,1.3-5
			C402.9,532.8,401.5,532.4,401.2,533.3L401.2,533.3z"/>
	</g>
</g>
<g>
	<g>
		<path class="st3" d="M400.5,558.2c-0.6,2.7-0.7,5.3-0.7,8c0,1,1.5,1,1.5,0c0-2.6,0-5.1,0.6-7.6
			C402.2,557.6,400.7,557.2,400.5,558.2L400.5,558.2z"/>
	</g>
</g>
<g>
	<g>
		<path class="st3" d="M403.1,581c-0.6,1.6-1.7,2.9-2.5,4.4c-0.4,0.9,0.8,1.6,1.3,0.8c0.9-1.6,2.1-3,2.7-4.8
			C404.9,580.5,403.5,580.1,403.1,581L403.1,581z"/>
	</g>
</g>
<g>
	<g>
		<path class="st3" d="M402.5,601.3c-0.6,2-0.7,4-0.7,6.1c0,1,1.5,1,1.5,0c0-1.9,0-3.8,0.6-5.7C404.2,600.8,402.8,600.4,402.5,601.3
			L402.5,601.3z"/>
	</g>
</g>
<g>
	<g>
		<path class="st3" d="M404.5,622.7c-0.5,1.1-0.8,2.2-1.3,3.3c-0.4,0.9,0.9,1.6,1.3,0.8c0.5-1.1,0.8-2.2,1.3-3.3
			C406.2,622.6,404.9,621.8,404.5,622.7L404.5,622.7z"/>
	</g>
</g>
<g>
	<g>
		<path class="st3" d="M368.5,445.7c-0.6,2.7-0.7,5.3-0.7,8c0,1,1.5,1,1.5,0c0-2.6,0-5.1,0.6-7.6
			C370.2,445.2,368.7,444.8,368.5,445.7L368.5,445.7z"/>
	</g>
</g>
<g>
	<g>
		<path class="st3" d="M382.3,516.6c1,0,1-1.5,0-1.5C381.3,515.1,381.3,516.6,382.3,516.6L382.3,516.6z"/>
	</g>
</g>
<g>
	<g>
		<path class="st3" d="M386.1,532.7c-0.6,2-0.7,4-0.7,6.1c0,1,1.5,1,1.5,0c0-1.9,0-3.8,0.6-5.7C387.9,532.2,386.4,531.8,386.1,532.7
			L386.1,532.7z"/>
	</g>
</g>
<g>
	<g>
		<path class="st3" d="M385.5,554.9c-0.6,1.8-0.7,3.6-0.7,5.4c0,1,1.5,1,1.5,0c0-1.7,0.1-3.4,0.6-5
			C387.2,554.4,385.8,554,385.5,554.9L385.5,554.9z"/>
	</g>
</g>
<g>
	<g>
		<path class="st3" d="M384.9,576.3c-0.6,1.4-0.8,2.8-0.8,4.3c0,1,1.5,1,1.5,0c0-1.2,0-2.4,0.6-3.5
			C386.6,576.2,385.3,575.4,384.9,576.3L384.9,576.3z"/>
	</g>
</g>
<g>
	<g>
		<path class="st3" d="M384.8,598.9c0,3.1,0,6.3,0.7,9.3c0.2,0.9,1.7,0.5,1.4-0.4c-0.7-2.9-0.6-6-0.6-8.9
			C386.3,597.9,384.8,597.9,384.8,598.9L384.8,598.9z"/>
	</g>
</g>
<g>
	<g>
		<path class="st3" d="M384.9,626.6c-0.6,1.3-0.7,2.7-1.3,3.9c-0.4,0.9,0.9,1.6,1.3,0.8c0.6-1.3,0.7-2.7,1.3-3.9
			C386.6,626.5,385.3,625.7,384.9,626.6L384.9,626.6z"/>
	</g>
</g>
<g>
	<g>
		<path class="st3" d="M368.5,517.4c0.5,2.2,0,4.1-0.7,6.1c-0.3,0.9,1.1,1.3,1.4,0.4c0.8-2.3,1.2-4.5,0.7-6.9
			C369.7,516.1,368.3,516.4,368.5,517.4L368.5,517.4z"/>
	</g>
</g>
<g>
	<g>
		<path class="st3" d="M368.5,547.7c-0.6,2.7-0.7,5.3-0.7,8c0,1,1.5,1,1.5,0c0-2.6,0-5.1,0.6-7.6
			C370.2,547.2,368.7,546.8,368.5,547.7L368.5,547.7z"/>
	</g>
</g>
<g>
	<g>
		<path class="st3" d="M367.8,574.7c0,2.6,0,5.2,0,7.8c0,1,1.5,1,1.5,0c0-2.6,0-5.2,0-7.8C369.3,573.7,367.8,573.7,367.8,574.7
			L367.8,574.7z"/>
	</g>
</g>
<g>
	<g>
		<path class="st3" d="M368.6,602.9c1,0,1-1.5,0-1.5C367.6,601.4,367.6,602.9,368.6,602.9L368.6,602.9z"/>
	</g>
</g>
<g>
	<g>
		<path class="st3" d="M368.5,600.2c0,4.6,0.1,9.2,0.7,13.7c0.1,0.9,1.6,1,1.5,0c-0.6-4.6-0.7-9.1-0.7-13.7
			C370,599.2,368.5,599.2,368.5,600.2L368.5,600.2z"/>
	</g>
</g>
<g>
	<g>
		<path class="st3" d="M369.1,629.6c0,2.2-0.6,4.3-0.7,6.5c0,1,1.5,1,1.5,0c0-2.2,0.6-4.3,0.7-6.5
			C370.6,628.7,369.1,628.7,369.1,629.6L369.1,629.6z"/>
	</g>
</g>
<g>
	<g>
		<path class="st3" d="M350.8,451.2c0,2.8,0,5.7,0,8.5c0,1,1.5,1,1.5,0c0-2.8,0-5.7,0-8.5C352.3,450.2,350.8,450.2,350.8,451.2
			L350.8,451.2z"/>
	</g>
</g>
<g>
	<g>
		<path class="st3" d="M349.5,475.4c0,2.8,0,5.7,0,8.5c0,1,1.5,1,1.5,0c0-2.8,0-5.7,0-8.5C351,474.4,349.5,474.4,349.5,475.4
			L349.5,475.4z"/>
	</g>
</g>
<g>
	<g>
		<path class="st3" d="M353.4,499.5c0,2.8,0,5.7,0,8.5c0,1,1.5,1,1.5,0c0-2.8,0-5.7,0-8.5C354.9,498.6,353.4,498.6,353.4,499.5
			L353.4,499.5z"/>
	</g>
</g>
<g>
	<g>
		<path class="st3" d="M352.8,527.2c0.7,2.9,0.6,6,0.6,9c0,1,1.5,1,1.5,0c0-3.1,0-6.3-0.7-9.4C354,525.9,352.6,526.3,352.8,527.2
			L352.8,527.2z"/>
	</g>
</g>
<g>
	<g>
		<path class="st3" d="M350.8,558.4c0,2.7,0.1,5.4,0.7,8c0.2,0.9,1.7,0.5,1.4-0.4c-0.6-2.5-0.6-5.1-0.6-7.6
			C352.3,557.4,350.8,557.4,350.8,558.4L350.8,558.4z"/>
	</g>
</g>
<g>
	<g>
		<path class="st3" d="M351.5,585.2c0,2.6,0,5.2,0,7.8c0,1,1.5,1,1.5,0c0-2.6,0-5.2,0-7.8C353,584.2,351.5,584.2,351.5,585.2
			L351.5,585.2z"/>
	</g>
</g>
<g>
	<g>
		<path class="st3" d="M350.8,613.9c0,2.4,0,4.8,0,7.2c0,1,1.5,1,1.5,0c0-2.4,0-4.8,0-7.2C352.3,613,350.8,613,350.8,613.9
			L350.8,613.9z"/>
	</g>
</g>
<g>
	<g>
		<path class="st3" d="M350.8,632.6c0,0.2,0,0.4,0,0.7c0,1,1.5,1,1.5,0c0-0.2,0-0.4,0-0.7C352.3,631.6,350.8,631.6,350.8,632.6
			L350.8,632.6z"/>
	</g>
</g>
<g>
	<g>
		<path class="st3" d="M335.8,459.7c0,1.7,0,3.5,0,5.2c0,1,1.5,1,1.5,0c0-1.7,0-3.5,0-5.2C337.3,458.7,335.8,458.7,335.8,459.7
			L335.8,459.7z"/>
	</g>
</g>
<g>
	<g>
		<path class="st3" d="M334.5,489.1c0,2.8,0.6,5.7,0.7,8.5c0,1,1.5,1,1.5,0c0-2.8-0.6-5.6-0.7-8.5
			C336,488.1,334.5,488.1,334.5,489.1L334.5,489.1z"/>
	</g>
</g>
<g>
	<g>
		<path class="st3" d="M337.8,514.4c-0.6,2.7-0.7,5.3-0.7,8c0,1,1.5,1,1.5,0c0-2.6,0-5.1,0.6-7.6C339.4,513.8,338,513.4,337.8,514.4
			L337.8,514.4z"/>
	</g>
</g>
<g>
	<g>
		<path class="st3" d="M337.1,541.6c0.6,2.6,0.7,5.3,1.3,7.8c0.2,0.9,1.7,0.5,1.4-0.4c-0.6-2.6-0.7-5.3-1.3-7.8
			C338.4,540.2,336.9,540.6,337.1,541.6L337.1,541.6z"/>
	</g>
</g>
<g>
	<g>
		<path class="st3" d="M335.8,564.7c-0.6,2.8,0,5.5,0.7,8.2c0.2,0.9,1.7,0.5,1.4-0.4c-0.6-2.5-1.2-4.9-0.7-7.4
			C337.5,564.2,336,563.8,335.8,564.7L335.8,564.7z"/>
	</g>
</g>
<g>
	<g>
		<path class="st3" d="M335.1,594.3c0,2.7,0.1,5.4,0.7,8c0.2,0.9,1.7,0.5,1.4-0.4c-0.6-2.5-0.6-5.1-0.6-7.6
			C336.6,593.4,335.1,593.4,335.1,594.3L335.1,594.3z"/>
	</g>
</g>
<g>
	<g>
		<path class="st3" d="M335.1,623.1c0,2.5,0,5,0.7,7.4c0.3,0.9,1.7,0.5,1.4-0.4c-0.7-2.3-0.6-4.7-0.6-7
			C336.6,622.1,335.1,622.1,335.1,623.1L335.1,623.1z"/>
	</g>
</g>
<g>
	<g>
		<path class="st3" d="M302.1,53.8c-4.2,0.7-8.3,1.9-11.9,4c-0.8,0.5-0.1,1.8,0.8,1.3c3.6-2,7.6-3.1,11.6-3.8
			C303.4,55.1,303,53.6,302.1,53.8L302.1,53.8z"/>
	</g>
</g>
<g>
	<g>
		<path class="st3" d="M275.9,64.3c-3.6,0.8-6.9,2.2-10,4c-0.8,0.5-0.1,1.8,0.8,1.3c3-1.8,6.2-3.1,9.6-3.8
			C277.2,65.5,276.8,64.1,275.9,64.3L275.9,64.3z"/>
	</g>
</g>
<g>
	<g>
		<path class="st3" d="M250.7,78.2c-1.1,1.1-2.2,2.2-3.3,3.3c-0.7,0.7,0.4,1.7,1.1,1.1c1.1-1.1,2.2-2.2,3.3-3.3
			C252.5,78.6,251.4,77.5,250.7,78.2L250.7,78.2z"/>
	</g>
</g>
<g>
	<g>
		<path class="st3" d="M302.7,74.7c-3.2,1.2-6.5,1.9-9.8,2.6c-0.9,0.2-0.5,1.6,0.4,1.4c3.3-0.7,6.6-1.4,9.8-2.6
			C304,75.8,303.6,74.4,302.7,74.7L302.7,74.7z"/>
	</g>
</g>
<g>
	<g>
		<path class="st3" d="M273.8,84c-2.6,1.3-4.7,3.3-6.7,5.3c-0.7,0.7,0.4,1.7,1.1,1.1c2-1.9,3.9-3.8,6.4-5.1
			C275.4,84.8,274.6,83.5,273.8,84L273.8,84z"/>
	</g>
</g>
<g>
	<g>
		<path class="st3" d="M111.7,455.4c0.6,1.9,0.6,3.6,0,5.5c-0.3,0.9,1.2,1.3,1.4,0.4c0.6-2.1,0.6-4.2,0-6.3
			C112.9,454.1,111.4,454.5,111.7,455.4L111.7,455.4z"/>
	</g>
</g>
<g>
	<g>
		<path class="st3" d="M106.8,477c-0.7,1.6-0.8,3.3-0.8,5c0,1,1.5,1,1.5,0c0-1.4,0-2.9,0.6-4.2C108.5,476.9,107.2,476.2,106.8,477
			L106.8,477z"/>
	</g>
</g>
<g>
	<g>
		<path class="st3" d="M104.8,509.9c0.5,1.1,0.5,2.3,0.6,3.5c0,1,1.5,1,1.5,0c0-1.5-0.1-2.9-0.8-4.3
			C105.7,508.2,104.4,509,104.8,509.9L104.8,509.9z"/>
	</g>
</g>
<g>
	<g>
		<path class="st3" d="M102.2,530.1c0.6,1.3,0.5,2.8,0.6,4.2c0,1,1.5,1,1.5,0c0-1.7,0-3.4-0.8-5
			C103.1,528.5,101.8,529.3,102.2,530.1L102.2,530.1z"/>
	</g>
</g>
<g>
	<g>
		<path class="st3" d="M106.9,558.4c1.2,1.3,1.7,2.9,2.5,4.4c0.4,0.9,1.7,0.1,1.3-0.8c-0.8-1.7-1.4-3.4-2.7-4.7
			C107.3,556.6,106.2,557.7,106.9,558.4L106.9,558.4z"/>
	</g>
</g>
<g>
	<g>
		<path class="st3" d="M118,577.4c1.1,1.1,1.8,2.4,2.5,3.8c0.4,0.9,1.7,0.1,1.3-0.8c-0.7-1.5-1.6-2.9-2.7-4.1
			C118.4,575.6,117.3,576.7,118,577.4L118,577.4z"/>
	</g>
</g>
<g>
	<g>
		<path class="st3" d="M128,595.1c1.9,1.3,3.3,3.2,5.2,4.6c0.8,0.6,1.5-0.7,0.8-1.3c-1.9-1.3-3.3-3.2-5.2-4.6
			C127.9,593.3,127.2,594.6,128,595.1L128,595.1z"/>
	</g>
</g>
<g>
	<g>
		<path class="st3" d="M149.3,606.6c1.3,2.5,2.8,4.8,5.7,5.6c0.9,0.3,1.3-1.2,0.4-1.4c-2.5-0.7-3.7-2.7-4.8-4.9
			C150.1,605,148.8,605.8,149.3,606.6L149.3,606.6z"/>
	</g>
</g>
<g>
	<g>
		<path class="st3" d="M172.6,618.1c1.6,0.5,3.5,0.5,5,1.2c0.9,0.4,1.6-0.9,0.8-1.3c-1.7-0.8-3.6-0.8-5.4-1.4
			C172.1,616.3,171.7,617.8,172.6,618.1L172.6,618.1z"/>
	</g>
</g>
<g>
	<g>
		<path class="st3" d="M202.7,625.9c1.8,0.6,3.5,1.4,5.2,2c0.9,0.3,1.3-1.1,0.4-1.4c-1.8-0.6-3.5-1.4-5.2-2
			C202.1,624.2,201.8,625.6,202.7,625.9L202.7,625.9z"/>
	</g>
</g>
<g>
	<g>
		<path class="st3" d="M122.4,470.9c0,1.6-0.6,3-0.7,4.6c0,1,1.5,1,1.5,0c0-1.5,0.6-3,0.7-4.6C123.9,469.9,122.4,469.9,122.4,470.9
			L122.4,470.9z"/>
	</g>
</g>
<g>
	<g>
		<path class="st3" d="M119.1,492.5c0,2,0,3.9,0,5.9c0,1,1.5,1,1.5,0c0-2,0-3.9,0-5.9C120.6,491.5,119.1,491.5,119.1,492.5
			L119.1,492.5z"/>
	</g>
</g>
<g>
	<g>
		<path class="st3" d="M117.1,520c0,1.5,0,3.1,0,4.6c0,1,1.5,1,1.5,0c0-1.5,0-3.1,0-4.6C118.6,519,117.1,519,117.1,520L117.1,520z"
			/>
	</g>
</g>
<g>
	<g>
		<path class="st3" d="M117.8,542.8c0,1.7,0,3.5,0,5.2c0,1,1.5,1,1.5,0c0-1.7,0-3.5,0-5.2C119.3,541.9,117.8,541.9,117.8,542.8
			L117.8,542.8z"/>
	</g>
</g>
<g>
	<g>
		<path class="st3" d="M127.6,563.1c0,1.4,0.6,2.8,1.5,3.8c0.7,0.7,1.7-0.4,1.1-1.1c-0.7-0.7-1.1-1.7-1.1-2.7
			C129.1,562.1,127.6,562.1,127.6,563.1L127.6,563.1z"/>
	</g>
</g>
<g>
	<g>
		<path class="st3" d="M140.2,582.6c1.1,1.1,2.2,2.2,3.3,3.3c0.7,0.7,1.7-0.4,1.1-1.1c-1.1-1.1-2.2-2.2-3.3-3.3
			C140.6,580.8,139.6,581.9,140.2,582.6L140.2,582.6z"/>
	</g>
</g>
<g>
	<g>
		<path class="st3" d="M154.5,590.3c1.8,2.4,3.9,4.7,7,5.6c0.9,0.3,1.3-1.2,0.4-1.4c-2.6-0.7-4.5-2.8-6.1-4.9
			C155.2,588.8,153.9,589.5,154.5,590.3L154.5,590.3z"/>
	</g>
</g>
<g>
	<g>
		<path class="st3" d="M182.1,602.2c1.2,1.1,2.6,1.4,4.1,2.1c0.9,0.4,1.6-0.9,0.8-1.3c-1.3-0.6-2.7-0.8-3.8-1.8
			C182.4,600.5,181.4,601.5,182.1,602.2L182.1,602.2z"/>
	</g>
</g>
<g>
	<g>
		<path class="st3" d="M201.6,612.2c2,0,3.9,0,5.9,0c1,0,1-1.5,0-1.5c-2,0-3.9,0-5.9,0C200.6,610.7,200.6,612.2,201.6,612.2
			L201.6,612.2z"/>
	</g>
</g>
<g>
	<g>
		<path class="st3" d="M229.3,620.6c1.5,0.7,3.1,0.6,4.6,1.3c0.9,0.4,1.6-0.9,0.8-1.3c-1.5-0.7-3.1-0.6-4.6-1.3
			C229.2,618.9,228.4,620.2,229.3,620.6L229.3,620.6z"/>
	</g>
</g>
<g>
	<g>
		<path class="st3" d="M134.8,495.6c-0.6,1.8-0.7,3.6-0.7,5.4c0,1,1.5,1,1.5,0c0-1.7,0.1-3.4,0.6-5
			C136.6,495,135.1,494.7,134.8,495.6L134.8,495.6z"/>
	</g>
</g>
<g>
	<g>
		<path class="st3" d="M133.5,516c0,1.7,0,3.5,0,5.2c0,1,1.5,1,1.5,0c0-1.7,0-3.5,0-5.2C135,515.1,133.5,515.1,133.5,516L133.5,516z
			"/>
	</g>
</g>
<g>
	<g>
		<path class="st3" d="M133.5,536.5c0.6,1.9,0.6,3.8,0.6,5.7c0,1,1.5,1,1.5,0c0-2.1-0.1-4.1-0.7-6.1
			C134.7,535.2,133.2,535.6,133.5,536.5L133.5,536.5z"/>
	</g>
</g>
<g>
	<g>
		<path class="st3" d="M144.6,558.1c0.7,1.9,1.9,3.7,1.9,5.7c0,1,1.5,1,1.5,0c-0.1-2.2-1.3-4.1-2-6.1
			C145.7,556.8,144.3,557.1,144.6,558.1L144.6,558.1z"/>
	</g>
</g>
<g>
	<g>
		<path class="st3" d="M164.4,574.7c2,2,3.9,3.9,5.9,5.9c0.7,0.7,1.7-0.4,1.1-1.1c-2-2-3.9-3.9-5.9-5.9
			C164.8,573,163.7,574,164.4,574.7L164.4,574.7z"/>
	</g>
</g>
<g>
	<g>
		<path class="st3" d="M188.6,585.8c0.8,0.8,1.8,1.2,2.6,2c0.7,0.7,1.8-0.4,1.1-1.1c-0.8-0.8-1.8-1.2-2.6-2
			C189,584.1,187.9,585.2,188.6,585.8L188.6,585.8z"/>
	</g>
</g>
<g>
	<g>
		<path class="st3" d="M205.8,593.2c3,1.4,6.2,2,9.5,2.1c1,0,1-1.5,0-1.5c-3,0-6-0.5-8.8-1.9C205.6,591.4,204.9,592.7,205.8,593.2
			L205.8,593.2z"/>
	</g>
</g>
<g>
	<g>
		<path class="st3" d="M229.9,599c2.6,1.2,5.3,1.4,8,2c0.9,0.2,1.3-1.2,0.4-1.4c-2.6-0.6-5.2-0.8-7.7-1.9
			C229.8,597.3,229.1,598.6,229.9,599L229.9,599z"/>
	</g>
</g>
<g>
	<g>
		<path class="st3" d="M134.3,351c0.6-1.3,0.7-2.7,1.3-3.9c0.4-0.9-0.9-1.6-1.3-0.8c-0.6,1.3-0.7,2.7-1.3,3.9
			C132.6,351.1,133.9,351.9,134.3,351L134.3,351z"/>
	</g>
</g>
<g>
	<g>
		<path class="st3" d="M140.2,328.6c0.7-3.1,1.8-6.1,3.2-9c0.4-0.9-0.9-1.6-1.3-0.8c-1.5,3-2.7,6.1-3.3,9.3
			C138.6,329.1,140,329.5,140.2,328.6L140.2,328.6z"/>
	</g>
</g>
<g>
	<g>
		<path class="st3" d="M150.6,295.4c0.7-1.5,0.6-3.1,1.3-4.6c0.4-0.9-0.9-1.6-1.3-0.8c-0.7,1.5-0.6,3.1-1.3,4.6
			C148.9,295.6,150.2,296.3,150.6,295.4L150.6,295.4z"/>
	</g>
</g>
<g>
	<g>
		<path class="st3" d="M158.5,271.7c1.2-3.5,2.5-6.9,3.3-10.5c0.2-0.9-1.2-1.3-1.4-0.4c-0.8,3.6-2.1,7-3.3,10.5
			C156.8,272.3,158.2,272.6,158.5,271.7L158.5,271.7z"/>
	</g>
</g>
<g>
	<g>
		<path class="st3" d="M169.3,241.5c1.9-1.3,2.9-2.9,3.6-5c0.3-0.9-1.1-1.3-1.4-0.4c-0.6,1.7-1.4,3.1-2.9,4.1
			C167.7,240.7,168.5,242,169.3,241.5L169.3,241.5z"/>
	</g>
</g>
<g>
	<g>
		<path class="st3" d="M177.1,215.3c1.8-1.2,3.4-2.7,5.2-3.9c0.8-0.5,0-1.8-0.8-1.3c-1.8,1.2-3.4,2.7-5.2,3.9
			C175.6,214.6,176.3,215.9,177.1,215.3L177.1,215.3z"/>
	</g>
</g>
<g>
	<g>
		<path class="st3" d="M189.7,187.1c2.3-2.3,3.9-5,4.8-8.2c0.2-0.9-1.2-1.3-1.4-0.4c-0.8,2.9-2.3,5.4-4.4,7.5
			C188,186.7,189,187.8,189.7,187.1L189.7,187.1z"/>
	</g>
</g>
<g>
	<g>
		<path class="st3" d="M206.2,160c0.7-2.2,0.7-4.5,0.7-6.7c0-1-1.5-1-1.5,0c0,2.1,0,4.3-0.6,6.3C204.5,160.5,206,160.9,206.2,160
			L206.2,160z"/>
	</g>
</g>
<g>
	<g>
		<path class="st3" d="M284.8,97.7c2.4-0.6,4.9-0.6,7.2-1.3c0.9-0.3,0.5-1.7-0.4-1.4c-2.3,0.7-4.8,0.8-7.2,1.3
			C283.5,96.5,283.9,98,284.8,97.7L284.8,97.7z"/>
	</g>
</g>
<g>
	<g>
		<path class="st3" d="M258.2,116.6c2.9-1.8,5.8-3.8,9-5.2c0.9-0.4,0.5-1.8-0.4-1.4c-3.3,1.4-6.3,3.4-9.3,5.3
			C256.6,115.8,257.4,117.1,258.2,116.6L258.2,116.6z"/>
	</g>
</g>
<g>
	<g>
		<path class="st3" d="M238.6,134.9c2.4-1.2,4.3-3.1,6.5-4.6c0.8-0.5,0-1.8-0.8-1.3c-2.2,1.5-4.1,3.3-6.5,4.6
			C237,134.1,237.7,135.4,238.6,134.9L238.6,134.9z"/>
	</g>
</g>
<g>
	<g>
		<path class="st3" d="M208.8,181.7c1.9-2.4,4.3-4.3,6.4-6.4c0.7-0.7-0.4-1.7-1.1-1.1c-2.3,2.2-4.7,4.2-6.7,6.7
			C206.9,181.7,208.2,182.5,208.8,181.7L208.8,181.7z"/>
	</g>
</g>
<g>
	<g>
		<path class="st3" d="M204.2,201.9c-0.7,1.3-1.3,2.6-2,3.9c-0.4,0.9,0.9,1.6,1.3,0.8c0.7-1.3,1.3-2.6,2-3.9
			C205.9,201.8,204.6,201,204.2,201.9L204.2,201.9z"/>
	</g>
</g>
<g>
	<g>
		<path class="st3" d="M228.5,160.6c1.3-3.6,4.3-6.1,7.5-8c0.8-0.5,0.1-1.8-0.8-1.3c-3.6,2.2-6.7,4.9-8.2,8.9
			C226.7,161.1,228.1,161.5,228.5,160.6L228.5,160.6z"/>
	</g>
</g>
<g>
	<g>
		<path class="st3" d="M257,138.7c2.4-2.4,4.8-4.6,7.7-6.4c0.8-0.5,0.1-1.8-0.8-1.3c-3,1.8-5.5,4.2-8,6.7
			C255.3,138.3,256.3,139.4,257,138.7L257,138.7z"/>
	</g>
</g>
<g>
	<g>
		<path class="st3" d="M283,118.6c2.6-1.3,5.2-1.8,8.1-1.9c1,0,1-1.5,0-1.5c-3.1,0-6.1,0.7-8.9,2.1C281.4,117.7,282.2,119,283,118.6
			L283,118.6z"/>
	</g>
</g>
<g>
	<g>
		<path class="st3" d="M306.4,111.4c1.2,0.5,2.4,0.8,3.6,0.8c1,0,1-1.5,0-1.5c-1,0-2-0.1-2.9-0.6C306.3,109.7,305.6,111,306.4,111.4
			L306.4,111.4z"/>
	</g>
</g>
<g>
	<g>
		<path class="st3" d="M305,93.6c0.6,0.5,1.4,0.8,2,1.3c0.7,0.7,1.8-0.4,1.1-1.1c-0.6-0.6-1.4-0.8-2-1.3
			C305.3,91.9,304.3,93,305,93.6L305,93.6z"/>
	</g>
</g>
<g>
	<g>
		<path class="st3" d="M299.2,129.8c3.1-1.1,5.9-0.6,8.6,1.2c0.8,0.6,1.5-0.7,0.8-1.3c-2.9-2.1-6.3-2.6-9.7-1.4
			C297.9,128.6,298.3,130.1,299.2,129.8L299.2,129.8z"/>
	</g>
</g>
<g>
	<g>
		<path class="st3" d="M274,143.3c1.9-1.9,4.3-3,6.9-3.7c0.9-0.2,0.5-1.7-0.4-1.4c-2.8,0.7-5.4,2.1-7.5,4.1
			C272.3,142.9,273.3,144,274,143.3L274,143.3z"/>
	</g>
</g>
<g>
	<g>
		<path class="st3" d="M229,179.5c1.7,0,3.1-0.9,3.9-2.3c0.5-0.9-0.8-1.6-1.3-0.8c-0.5,1-1.5,1.6-2.6,1.6
			C228.1,178,228.1,179.5,229,179.5L229,179.5z"/>
	</g>
</g>
<g>
	<g>
		<path class="st3" d="M292,150c2.5-0.6,5.1-0.6,7.6-0.6c1,0,1-1.5,0-1.5c-2.7,0-5.4,0.1-8,0.7C290.7,148.8,291.1,150.2,292,150
			L292,150z"/>
	</g>
</g>
<g>
	<g>
		<path class="st3" d="M315.4,150.5c0.8,0.8,1.2,1.8,2,2.6c0.7,0.7,1.7-0.4,1.1-1.1c-0.8-0.8-1.2-1.8-2-2.6
			C315.8,148.7,314.8,149.8,315.4,150.5L315.4,150.5z"/>
	</g>
</g>
<g>
	<g>
		<path class="st3" d="M190.6,225.3c-1.9,2-3.2,4.4-4.7,6.7c-0.5,0.8,0.8,1.6,1.3,0.8c1.4-2.2,2.6-4.5,4.5-6.4
			C192.3,225.6,191.3,224.6,190.6,225.3L190.6,225.3z"/>
	</g>
</g>
<g>
	<g>
		<path class="st3" d="M174.7,253.2c0,1.4-0.6,2.9-1.2,4.2c-0.4,0.9,0.9,1.6,1.3,0.8c0.7-1.5,1.4-3.2,1.4-5
			C176.2,252.3,174.7,252.3,174.7,253.2L174.7,253.2z"/>
	</g>
</g>
<g>
	<g>
		<path class="st3" d="M171.5,279.2c-0.8,2.2-1.8,4.3-2.6,6.5c-0.3,0.9,1.1,1.3,1.4,0.4c0.8-2.2,1.8-4.3,2.6-6.5
			C173.2,278.7,171.8,278.3,171.5,279.2L171.5,279.2z"/>
	</g>
</g>
<g>
	<g>
		<path class="st3" d="M165.5,302.3c-0.1,2.5-1.2,4.7-2.5,6.8c-0.5,0.8,0.8,1.6,1.3,0.8c1.5-2.3,2.6-4.8,2.7-7.6
			C167.1,301.3,165.6,301.3,165.5,302.3L165.5,302.3z"/>
	</g>
</g>
<g>
	<g>
		<path class="st3" d="M155.8,333.9c-1.3,2.1-1.9,4.4-2.7,6.7c-0.3,0.9,1.1,1.3,1.4,0.4c0.7-2.2,1.3-4.4,2.5-6.4
			C157.7,333.8,156.4,333.1,155.8,333.9L155.8,333.9z"/>
	</g>
</g>
<g>
	<g>
		<path class="st3" d="M144.1,359.4c-1.2,2.4-2.6,4.7-3.3,7.4c-0.3,0.9,1.2,1.3,1.4,0.4c0.7-2.5,2-4.7,3.2-7
			C145.8,359.3,144.5,358.5,144.1,359.4L144.1,359.4z"/>
	</g>
</g>
<g>
	<g>
		<path class="st3" d="M144,384.6c0,1.2,0,2.4-0.6,3.5c-0.4,0.9,0.9,1.6,1.3,0.8c0.6-1.4,0.8-2.8,0.8-4.3
			C145.5,383.6,144,383.6,144,384.6L144,384.6z"/>
	</g>
</g>
<g>
	<g>
		<path class="st3" d="M163.6,355.7c-1.4,3.5-2.6,7-3.9,10.5c-0.4,0.9,1.1,1.3,1.4,0.4c1.4-3.5,2.6-7,3.9-10.5
			C165.4,355.2,164,354.8,163.6,355.7L163.6,355.7z"/>
	</g>
</g>
<g>
	<g>
		<path class="st3" d="M174,325.1c0,2-0.7,3.8-1.3,5.7c-0.3,0.9,1.1,1.3,1.4,0.4c0.7-2,1.3-4,1.3-6.1
			C175.6,324.2,174.1,324.2,174,325.1L174,325.1z"/>
	</g>
</g>
<g>
	<g>
		<path class="st3" d="M181.3,347.8c-0.7,2.6-1.3,5.2-2,7.8c-0.2,0.9,1.2,1.3,1.4,0.4c0.7-2.6,1.3-5.2,2-7.8
			C182.9,347.3,181.5,346.9,181.3,347.8L181.3,347.8z"/>
	</g>
</g>
<g>
	<g>
		<path class="st3" d="M149.9,403.4c-0.6,2.2-1.2,4.4-2,6.5c-0.3,0.9,1.1,1.3,1.4,0.4c0.7-2.2,1.4-4.3,2-6.5
			C151.6,402.8,150.1,402.4,149.9,403.4L149.9,403.4z"/>
	</g>
</g>
<g>
	<g>
		<path class="st3" d="M170.8,378.5c-1.3,3.9-2.6,7.8-3.9,11.8c-0.3,0.9,1.1,1.3,1.4,0.4c1.3-3.9,2.6-7.8,3.9-11.8
			C172.6,378,171.1,377.6,170.8,378.5L170.8,378.5z"/>
	</g>
</g>
<g>
	<g>
		<path class="st3" d="M181.9,392.7c0.6,3.3-0.1,6.4-1.3,9.4c-0.3,0.9,1.1,1.3,1.4,0.4c1.3-3.3,1.9-6.7,1.3-10.2
			C183.2,391.3,181.8,391.7,181.9,392.7L181.9,392.7z"/>
	</g>
</g>
<g>
	<g>
		<path class="st3" d="M164.9,410.8c0,2.6-0.7,5.1-1.3,7.6c-0.2,0.9,1.2,1.3,1.4,0.4c0.7-2.7,1.3-5.3,1.3-8
			C166.4,409.8,164.9,409.8,164.9,410.8L164.9,410.8z"/>
	</g>
</g>
<g>
	<g>
		<path class="st3" d="M177.3,427.1c0,2,0,3.9,0,5.9c0,1,1.5,1,1.5,0c0-2,0-3.9,0-5.9C178.8,426.1,177.3,426.1,177.3,427.1
			L177.3,427.1z"/>
	</g>
</g>
<g>
	<g>
		<path class="st3" d="M162.3,434.9c0,0.9,0,1.7,0,2.6c0,1,1.5,1,1.5,0c0-0.9,0-1.7,0-2.6C163.8,434,162.3,434,162.3,434.9
			L162.3,434.9z"/>
	</g>
</g>
<g>
	<g>
		<path class="st3" d="M192.3,410.8c0,3.4,0,6.9-0.6,10.3c-0.2,0.9,1.3,1.3,1.4,0.4c0.7-3.5,0.7-7.1,0.7-10.7
			C193.8,409.8,192.3,409.8,192.3,410.8L192.3,410.8z"/>
	</g>
</g>
<g>
	<g>
		<path class="st3" d="M199.5,434c-0.1,3-1.2,5.5-2.5,8.1c-0.4,0.9,0.9,1.6,1.3,0.8c1.4-2.8,2.6-5.6,2.7-8.9
			C201.1,433,199.6,433,199.5,434L199.5,434z"/>
	</g>
</g>
<g>
	<g>
		<path class="st3" d="M212,411.9c-0.6,1.9-0.7,4-1.3,5.9c-0.3,0.9,1.2,1.3,1.4,0.4c0.6-1.9,0.7-4,1.3-5.9
			C213.7,411.3,212.3,410.9,212,411.9L212,411.9z"/>
	</g>
</g>
<g>
	<g>
		<path class="st3" d="M220,428.5c-2,2.1-2.8,4.8-2.8,7.7c0,1,1.5,1,1.5,0c0-2.5,0.6-4.8,2.4-6.7C221.7,428.9,220.7,427.8,220,428.5
			L220,428.5z"/>
	</g>
</g>
<g>
	<g>
		<path class="st3" d="M212,450.6c0,2.2-0.6,4.3-1.3,6.3c-0.3,0.9,1.1,1.3,1.4,0.4c0.7-2.2,1.3-4.4,1.3-6.7
			C213.5,449.7,212,449.7,212,450.6L212,450.6z"/>
	</g>
</g>
<g>
	<g>
		<path class="st3" d="M223.1,463.1c0,1.4,0.1,2.9-0.6,4.2c-0.4,0.9,0.9,1.6,1.3,0.8c0.7-1.6,0.8-3.2,0.8-4.9
			C224.6,462.1,223.1,462.1,223.1,463.1L223.1,463.1z"/>
	</g>
</g>
<g>
	<g>
		<path class="st3" d="M230.3,442.8c0,2.2,0,4.4,0,6.5c0,1,1.5,1,1.5,0c0-2.2,0-4.4,0-6.5C231.8,441.8,230.3,441.8,230.3,442.8
			L230.3,442.8z"/>
	</g>
</g>
<g>
	<g>
		<path class="st3" d="M245.6,436.6c0,2.6,0,5.1-0.6,7.6c-0.2,0.9,1.2,1.3,1.4,0.4c0.6-2.7,0.7-5.3,0.7-8
			C247.1,435.6,245.6,435.6,245.6,436.6L245.6,436.6z"/>
	</g>
</g>
<g>
	<g>
		<path class="st3" d="M242,458.7c0.5,1.6,0.6,3.3,0.6,5c0,1,1.5,1,1.5,0c0-1.8-0.1-3.7-0.7-5.4C243.2,457.4,241.8,457.7,242,458.7
			L242,458.7z"/>
	</g>
</g>
<g>
	<g>
		<path class="st3" d="M259.7,448c0,2.4,0,4.8,0,7.2c0,1,1.5,1,1.5,0c0-2.4,0-4.8,0-7.2C261.2,447.1,259.7,447.1,259.7,448
			L259.7,448z"/>
	</g>
</g>
<g>
	<g>
		<path class="st3" d="M274.7,443.4c0,1.1,0,2.2,0,3.3c0,1,1.5,1,1.5,0c0-1.1,0-2.2,0-3.3C276.2,442.5,274.7,442.5,274.7,443.4
			L274.7,443.4z"/>
	</g>
</g>
<g>
	<g>
		<path class="st3" d="M272.2,460.2c0.5,1.1,0.6,2.3,0.6,3.5c0,1,1.5,1,1.5,0c0-1.5-0.1-2.9-0.8-4.3
			C273.1,458.5,271.8,459.3,272.2,460.2L272.2,460.2z"/>
	</g>
</g>
<g>
	<g>
		<path class="st3" d="M260.4,469.7c1,0,1-1.5,0-1.5C259.5,468.2,259.5,469.7,260.4,469.7L260.4,469.7z"/>
	</g>
</g>
<g>
	<g>
		<path class="st3" d="M153.8,478.7c0,2.6-0.1,5.1-1.2,7.5c-0.4,0.9,0.9,1.6,1.3,0.8c1.2-2.6,1.4-5.3,1.4-8.2
			C155.3,477.8,153.8,477.8,153.8,478.7L153.8,478.7z"/>
	</g>
</g>
<g>
	<g>
		<path class="st3" d="M148.5,508.2c0,1.3,0,2.6,0,3.9c0,1,1.5,1,1.5,0c0-1.3,0-2.6,0-3.9C150,507.2,148.5,507.2,148.5,508.2
			L148.5,508.2z"/>
	</g>
</g>
<g>
	<g>
		<path class="st3" d="M149.2,530.4c0,2,0,3.9,0,5.9c0,1,1.5,1,1.5,0c0-2,0-3.9,0-5.9C150.7,529.4,149.2,529.4,149.2,530.4
			L149.2,530.4z"/>
	</g>
</g>
<g>
	<g>
		<path class="st3" d="M158.3,550.2c0.8,2.2,2.1,4.1,3.3,6.1c0.5,0.8,1.8,0,1.3-0.8c-1.2-1.8-2.5-3.6-3.2-5.7
			C159.5,548.9,158,549.3,158.3,550.2L158.3,550.2z"/>
	</g>
</g>
<g>
	<g>
		<path class="st3" d="M176.8,565.6c2.1,2,4.7,3.4,7.5,4.1c0.9,0.2,1.3-1.2,0.4-1.4c-2.6-0.7-4.9-1.9-6.9-3.7
			C177.2,563.9,176.1,564.9,176.8,565.6L176.8,565.6z"/>
	</g>
</g>
<g>
	<g>
		<path class="st3" d="M201.2,573.5c1.3,0.7,2.6,1.3,3.9,2c0.9,0.4,1.6-0.9,0.8-1.3c-1.3-0.7-2.6-1.3-3.9-2
			C201.1,571.8,200.3,573.1,201.2,573.5L201.2,573.5z"/>
	</g>
</g>
<g>
	<g>
		<path class="st3" d="M223.8,581.5c3,0,6,0.1,9,0.6c0.9,0.2,1.3-1.3,0.4-1.4c-3.1-0.6-6.2-0.7-9.4-0.7
			C222.8,580,222.8,581.5,223.8,581.5L223.8,581.5z"/>
	</g>
</g>
<g>
	<g>
		<path class="st3" d="M165.6,495.4c-1.3,2.1-2.1,4.3-2.7,6.7c-0.2,0.9,1.2,1.3,1.4,0.4c0.6-2.3,1.3-4.4,2.5-6.4
			C167.4,495.3,166.1,494.6,165.6,495.4L165.6,495.4z"/>
	</g>
</g>
<g>
	<g>
		<path class="st3" d="M164.9,520c0,2,0,3.9,0,5.9c0,1,1.5,1,1.5,0c0-2,0-3.9,0-5.9C166.4,519,164.9,519,164.9,520L164.9,520z"/>
	</g>
</g>
<g>
	<g>
		<path class="st3" d="M172.8,542.6c0.7,1.3,1.3,2.6,2,3.9c0.4,0.9,1.7,0.1,1.3-0.8c-0.7-1.3-1.3-2.6-2-3.9
			C173.7,540.9,172.4,541.7,172.8,542.6L172.8,542.6z"/>
	</g>
</g>
<g>
	<g>
		<path class="st3" d="M184.5,496.2c-0.6,1.6-1.7,2.9-2.5,4.4c-0.4,0.9,0.8,1.6,1.3,0.8c0.9-1.6,2.1-3,2.7-4.8
			C186.3,495.7,184.8,495.3,184.5,496.2L184.5,496.2z"/>
	</g>
</g>
<g>
	<g>
		<path class="st3" d="M181.2,516c0,2.8,0,5.7,0,8.5c0,1,1.5,1,1.5,0c0-2.8,0-5.7,0-8.5C182.7,515.1,181.2,515.1,181.2,516
			L181.2,516z"/>
	</g>
</g>
<g>
	<g>
		<path class="st3" d="M187.1,540.9c0.1,2.7,0.7,5.4,1.3,8c0.2,0.9,1.7,0.5,1.4-0.4c-0.6-2.5-1.2-5-1.3-7.6
			C188.6,539.9,187.1,539.9,187.1,540.9L187.1,540.9z"/>
	</g>
</g>
<g>
	<g>
		<path class="st3" d="M200.8,505.8c0.6,2.3,0.6,4.6,0.6,7c0,1,1.5,1,1.5,0c0-2.5-0.1-4.9-0.7-7.4
			C202.1,504.4,200.6,504.8,200.8,505.8L200.8,505.8z"/>
	</g>
</g>
<g>
	<g>
		<path class="st3" d="M200.8,530c0.5,1.7,0.8,3.5,1.3,5.2c0.3,0.9,1.7,0.5,1.4-0.4c-0.5-1.7-0.8-3.5-1.3-5.2
			C202,528.6,200.5,529,200.8,530L200.8,530z"/>
	</g>
</g>
<g>
	<g>
		<path class="st3" d="M202.2,553c0.7,1.4,1.9,2.5,2.6,3.9c0.4,0.9,1.7,0.1,1.3-0.8c-0.7-1.4-1.9-2.5-2.6-3.9
			C203.1,551.4,201.8,552.2,202.2,553L202.2,553z"/>
	</g>
</g>
<g>
	<g>
		<path class="st3" d="M216.5,515.4c0,3.3,0,6.5,0,9.8c0,1,1.5,1,1.5,0c0-3.3,0-6.5,0-9.8C218,514.4,216.5,514.4,216.5,515.4
			L216.5,515.4z"/>
	</g>
</g>
<g>
	<g>
		<path class="st3" d="M216.6,542.6c0.7,1.5,1.2,3.2,1.2,4.9c0,1,1.5,1,1.5,0c0-2-0.6-3.8-1.4-5.6
			C217.5,540.9,216.2,541.7,216.6,542.6L216.6,542.6z"/>
	</g>
</g>
<g>
	<g>
		<path class="st3" d="M219.9,564.1c0.6,1.2,1.8,1.8,2.7,2.8c0.7,0.7,1.8-0.4,1.1-1.1c-0.9-0.8-1.9-1.4-2.5-2.5
			C220.7,562.5,219.4,563.3,219.9,564.1L219.9,564.1z"/>
	</g>
</g>
<g>
	<g>
		<path class="st3" d="M240.1,513.6c0.7,2.3,0.6,4.7,0.6,7c0,1,1.5,1,1.5,0c0-2.5,0-5-0.7-7.4C241.3,512.3,239.8,512.7,240.1,513.6
			L240.1,513.6z"/>
	</g>
</g>
<g>
	<g>
		<path class="st3" d="M234.2,532.3c0,2.6,0,5.2,0,7.8c0,1,1.5,1,1.5,0c0-2.6,0-5.2,0-7.8C235.7,531.4,234.2,531.4,234.2,532.3
			L234.2,532.3z"/>
	</g>
</g>
<g>
	<g>
		<path class="st3" d="M242,556.1c0.5,1.7,0.8,3.5,1.3,5.2c0.3,0.9,1.7,0.5,1.4-0.4c-0.5-1.7-0.8-3.5-1.3-5.2
			C243.2,554.7,241.8,555.1,242,556.1L242,556.1z"/>
	</g>
</g>
<g>
	<g>
		<path class="st3" d="M259.7,518.8c0.5,1.6,0.6,3.3,0.6,5c0,1,1.5,1,1.5,0c0-1.8-0.1-3.7-0.7-5.4
			C260.9,517.5,259.4,517.9,259.7,518.8L259.7,518.8z"/>
	</g>
</g>
<g>
	<g>
		<path class="st3" d="M255.1,538.4c0.6,1.7,1.2,3.2,1.3,5c0,1,1.5,1,1.5,0c0-1.9-0.7-3.6-1.3-5.4
			C256.3,537.1,254.8,537.5,255.1,538.4L255.1,538.4z"/>
	</g>
</g>
<g>
	<g>
		<path class="st3" d="M255.8,563.3c0.6,2.5,0.6,5.1,0.6,7.6c0,1,1.5,1,1.5,0c0-2.7-0.1-5.4-0.7-8
			C257,561.9,255.6,562.3,255.8,563.3L255.8,563.3z"/>
	</g>
</g>
<g>
	<g>
		<path class="st3" d="M253.2,586.1c0.6,1.8,1.8,3.1,2.7,4.8c0.4,0.9,1.7,0.1,1.3-0.8c-0.8-1.5-2-2.8-2.5-4.4
			C254.3,584.8,252.8,585.2,253.2,586.1L253.2,586.1z"/>
	</g>
</g>
<g>
	<g>
		<path class="st3" d="M253.8,606.4c0.6,1.9,0.6,3.8,0.6,5.7c0,1,1.5,1,1.5,0c0-2.1-0.1-4.1-0.7-6.1
			C255,605.1,253.5,605.5,253.8,606.4L253.8,606.4z"/>
	</g>
</g>
<g>
	<g>
		<path class="st3" d="M251.9,628.1c0.5,1.1,0.8,2.2,1.3,3.3c0.4,0.9,1.7,0.1,1.3-0.8c-0.5-1.1-0.8-2.2-1.3-3.3
			C252.8,626.5,251.5,627.3,251.9,628.1L251.9,628.1z"/>
	</g>
</g>
<g>
	<g>
		<path class="st3" d="M287.8,450.8c0.6,2.5,0.6,5.1,0.6,7.6c0,1,1.5,1,1.5,0c0-2.7-0.1-5.4-0.7-8
			C289,449.5,287.6,449.9,287.8,450.8L287.8,450.8z"/>
	</g>
</g>
<g>
	<g>
		<path class="st3" d="M275.5,521.3c1,0,1-1.5,0-1.5C274.5,519.8,274.5,521.3,275.5,521.3L275.5,521.3z"/>
	</g>
</g>
<g>
	<g>
		<path class="st3" d="M270.2,537.8c0.6,1.9,0.6,3.8,0.6,5.7c0,1,1.5,1,1.5,0c0-2.1-0.1-4.1-0.7-6.1
			C271.3,536.4,269.9,536.8,270.2,537.8L270.2,537.8z"/>
	</g>
</g>
<g>
	<g>
		<path class="st3" d="M270.8,560c0.5,1.6,0.6,3.3,0.6,5c0,1,1.5,1,1.5,0c0-1.8-0.1-3.7-0.7-5.4C272,558.7,270.5,559.1,270.8,560
			L270.8,560z"/>
	</g>
</g>
<g>
	<g>
		<path class="st3" d="M271.5,581.7c0.5,1.1,0.5,2.3,0.6,3.5c0,1,1.5,1,1.5,0c0-1.5-0.1-2.9-0.8-4.3
			C272.4,580.1,271.1,580.9,271.5,581.7L271.5,581.7z"/>
	</g>
</g>
<g>
	<g>
		<path class="st3" d="M271.4,603.6c0,3,0,6-0.6,8.9c-0.2,0.9,1.2,1.3,1.4,0.4c0.7-3.1,0.7-6.2,0.7-9.3
			C272.9,602.6,271.4,602.6,271.4,603.6L271.4,603.6z"/>
	</g>
</g>
<g>
	<g>
		<path class="st3" d="M274.1,626.2c0.6,1.3,0.7,2.7,1.3,3.9c0.4,0.9,1.7,0.1,1.3-0.8c-0.6-1.3-0.7-2.7-1.3-3.9
			C275,624.5,273.7,625.3,274.1,626.2L274.1,626.2z"/>
	</g>
</g>
<g>
	<g>
		<path class="st3" d="M287.8,521.7c-0.5,2.4-0.1,4.6,0.7,6.9c0.3,0.9,1.8,0.5,1.4-0.4c-0.7-2.1-1.1-4-0.7-6.1
			C289.5,521.1,288,520.7,287.8,521.7L287.8,521.7z"/>
	</g>
</g>
<g>
	<g>
		<path class="st3" d="M287.8,552.8c0.6,2.5,0.6,5.1,0.6,7.6c0,1,1.5,1,1.5,0c0-2.7-0.1-5.4-0.7-8
			C289,551.5,287.6,551.9,287.8,552.8L287.8,552.8z"/>
	</g>
</g>
<g>
	<g>
		<path class="st3" d="M288.4,579.4c0,2.6,0,5.2,0,7.8c0,1,1.5,1,1.5,0c0-2.6,0-5.2,0-7.8C289.9,578.4,288.4,578.4,288.4,579.4
			L288.4,579.4z"/>
	</g>
</g>
<g>
	<g>
		<path class="st3" d="M289.2,607.6c1,0,1-1.5,0-1.5C288.2,606.1,288.2,607.6,289.2,607.6L289.2,607.6z"/>
	</g>
</g>
<g>
	<g>
		<path class="st3" d="M287.8,604.9c0,4.6-0.1,9.2-0.7,13.7c-0.1,1,1.4,0.9,1.5,0c0.6-4.6,0.7-9.1,0.7-13.7
			C289.3,603.9,287.8,603.9,287.8,604.9L287.8,604.9z"/>
	</g>
</g>
<g>
	<g>
		<path class="st3" d="M305.4,455.9c0,2.8,0,5.7,0,8.5c0,1,1.5,1,1.5,0c0-2.8,0-5.7,0-8.5C306.9,454.9,305.4,454.9,305.4,455.9
			L305.4,455.9z"/>
	</g>
</g>
<g>
	<g>
		<path class="st3" d="M306.7,480c0,2.8,0,5.7,0,8.5c0,1,1.5,1,1.5,0c0-2.8,0-5.7,0-8.5C308.2,479.1,306.7,479.1,306.7,480
			L306.7,480z"/>
	</g>
</g>
<g>
	<g>
		<path class="st3" d="M302.8,504.2c0,2.8,0,5.7,0,8.5c0,1,1.5,1,1.5,0c0-2.8,0-5.7,0-8.5C304.3,503.3,302.8,503.3,302.8,504.2
			L302.8,504.2z"/>
	</g>
</g>
<g>
	<g>
		<path class="st3" d="M303.5,531.5c-0.7,3.1-0.7,6.2-0.7,9.4c0,1,1.5,1,1.5,0c0-3,0-6,0.6-9C305.1,530.9,303.7,530.5,303.5,531.5
			L303.5,531.5z"/>
	</g>
</g>
<g>
	<g>
		<path class="st3" d="M305.4,563.1c0,2.6,0,5.1-0.6,7.6c-0.2,0.9,1.2,1.3,1.4,0.4c0.6-2.7,0.7-5.3,0.7-8
			C306.9,562.1,305.4,562.1,305.4,563.1L305.4,563.1z"/>
	</g>
</g>
<g>
	<g>
		<path class="st3" d="M304.8,589.9c0,2.6,0,5.2,0,7.8c0,1,1.5,1,1.5,0c0-2.6,0-5.2,0-7.8C306.3,588.9,304.8,588.9,304.8,589.9
			L304.8,589.9z"/>
	</g>
</g>
<g>
	<g>
		<path class="st3" d="M302.8,621.1c0,2.4,0,4.8,0,7.2c0,1,1.5,1,1.5,0c0-2.4,0-4.8,0-7.2C304.3,620.2,302.8,620.2,302.8,621.1
			L302.8,621.1z"/>
	</g>
</g>
<g>
	<g>
		<path class="st3" d="M320.5,464.4c0,1.7,0,3.5,0,5.2c0,1,1.5,1,1.5,0c0-1.7,0-3.5,0-5.2C322,463.4,320.5,463.4,320.5,464.4
			L320.5,464.4z"/>
	</g>
</g>
<g>
	<g>
		<path class="st3" d="M321.8,493.8c0,2.8-0.6,5.6-0.7,8.5c0,1,1.5,1,1.5,0c0-2.8,0.6-5.6,0.7-8.5
			C323.3,492.8,321.8,492.8,321.8,493.8L321.8,493.8z"/>
	</g>
</g>
<g>
	<g>
		<path class="st3" d="M318.5,519.5c0.6,2.5,0.6,5.1,0.6,7.6c0,1,1.5,1,1.5,0c0-2.7-0.1-5.4-0.7-8
			C319.8,518.1,318.3,518.5,318.5,519.5L318.5,519.5z"/>
	</g>
</g>
<g>
	<g>
		<path class="st3" d="M319.2,545.9c-0.6,2.6-0.7,5.3-1.3,7.8c-0.2,0.9,1.2,1.3,1.4,0.4c0.6-2.6,0.7-5.3,1.3-7.8
			C320.8,545.3,319.4,544.9,319.2,545.9L319.2,545.9z"/>
	</g>
</g>
<g>
	<g>
		<path class="st3" d="M320.5,569.8c0.5,2.5,0,5-0.7,7.4c-0.2,0.9,1.2,1.3,1.4,0.4c0.7-2.7,1.3-5.4,0.7-8.2
			C321.7,568.4,320.3,568.8,320.5,569.8L320.5,569.8z"/>
	</g>
</g>
<g>
	<g>
		<path class="st3" d="M321.1,599c0,2.6,0,5.1-0.6,7.6c-0.2,0.9,1.2,1.3,1.4,0.4c0.6-2.7,0.7-5.3,0.7-8
			C322.6,598,321.1,598,321.1,599L321.1,599z"/>
	</g>
</g>
<g>
	<g>
		<path class="st3" d="M322.8,625c0,2.3,0.1,4.7-0.6,7c-0.3,0.9,1.2,1.3,1.4,0.4c0.7-2.4,0.7-4.9,0.7-7.4
			C324.3,624,322.8,624,322.8,625L322.8,625z"/>
	</g>
</g>
<g>
	<g>
		<path class="st3" d="M331.1,47.8c-2.4,0.6-4.8,0.7-7.2,1.3c-0.9,0.2-0.5,1.7,0.4,1.4c2.4-0.6,4.8-0.7,7.2-1.3
			C332.5,49,332.1,47.6,331.1,47.8L331.1,47.8z"/>
	</g>
</g>
<g>
	<g>
		<path class="st3" d="M325.9,64.2c-2.2,0.7-4.4,1.3-6.5,2c-0.9,0.3-0.5,1.7,0.4,1.4c2.2-0.7,4.4-1.3,6.5-2
			C327.2,65.3,326.8,63.9,325.9,64.2L325.9,64.2z"/>
	</g>
</g>
<g>
	<g>
		<path class="st3" d="M328.7,83.1c-2.7,0.1-5.4,0.7-8,1.3c-0.9,0.2-0.5,1.7,0.4,1.4c2.5-0.6,5-1.2,7.6-1.3
			C329.7,84.6,329.7,83.1,328.7,83.1L328.7,83.1z"/>
	</g>
</g>
<g>
	<g>
		<path class="st3" d="M328.7,102.7c-1.3,0-2.6,0-3.9,0c-1,0-1,1.5,0,1.5c1.3,0,2.6,0,3.9,0C329.7,104.2,329.7,102.7,328.7,102.7
			L328.7,102.7z"/>
	</g>
</g>
<g>
	<g>
		<path class="st3" d="M325.4,121.7c-0.9,0-1.7-0.6-2.6-0.7c-1,0-1,1.5,0,1.5c0.3,0,0.7,0.2,1,0.3c0.5,0.2,1.1,0.3,1.6,0.3
			C326.4,123.2,326.4,121.7,325.4,121.7L325.4,121.7z"/>
	</g>
</g>
<g>
	<g>
		<path class="st3" d="M322.8,136.9c1,0,1-1.5,0-1.5C321.9,135.4,321.8,136.9,322.8,136.9L322.8,136.9z"/>
	</g>
</g>
<g>
	<g>
		<path class="st3" d="M249.9,104.1c-2.4,1.8-5,3.6-6.8,6.2c-0.6,0.8,0.7,1.5,1.3,0.8c1.6-2.3,4.1-4,6.3-5.6
			C251.4,104.8,250.7,103.5,249.9,104.1L249.9,104.1z"/>
	</g>
</g>
<g>
	<g>
		<path class="st3" d="M220.2,138.4c-0.7,1.6-0.8,3.3-0.8,5c0,1,1.5,1,1.5,0c0-1.4,0-2.9,0.6-4.2
			C221.9,138.2,220.6,137.5,220.2,138.4L220.2,138.4z"/>
	</g>
</g>
<g>
	<g>
		<path class="st3" d="M193.4,200.6c0.5,1,0.5,1.8,0.6,2.9c0,1,1.5,1,1.5,0c0-1.3-0.2-2.4-0.8-3.6
			C194.3,198.9,193,199.7,193.4,200.6L193.4,200.6z"/>
	</g>
</g>
<g>
	<g>
		<path class="st3" d="M127.3,374.5c-0.7,4-1.9,7.8-2.6,11.8c-0.2,0.9,1.3,1.3,1.4,0.4c0.7-4,1.9-7.8,2.6-11.8
			C128.9,374,127.5,373.6,127.3,374.5L127.3,374.5z"/>
	</g>
</g>
<g>
	<g>
		<path class="st3" d="M131.9,405.9c-0.7,2.9-0.7,5.8-0.7,8.7c0,1,1.5,1,1.5,0c0-2.8,0-5.6,0.6-8.3
			C133.5,405.3,132.1,404.9,131.9,405.9L131.9,405.9z"/>
	</g>
</g>
<g>
	<g>
		<path class="st3" d="M143.6,430.3c0,2.2,0,4.4,0,6.5c0,1,1.5,1,1.5,0c0-2.2,0-4.4,0-6.5C145.1,429.3,143.6,429.3,143.6,430.3
			L143.6,430.3z"/>
	</g>
</g>
<g>
	<g>
		<path class="st3" d="M286.1,472.5c-0.6,4.2-0.7,8.4-0.7,12.6c0,1,1.5,1,1.5,0c0-4.1,0.1-8.2,0.6-12.2
			C287.7,472,286.3,471.6,286.1,472.5L286.1,472.5z"/>
	</g>
</g>
<g>
	<g>
		<path class="st3" d="M281.1,501.6c-0.8,0.9-0.9,2-0.9,3.1c0,1,1.5,1,1.5,0c0-0.7,0-1.6,0.4-2.1C282.8,502,281.8,500.9,281.1,501.6
			L281.1,501.6z"/>
	</g>
</g>
<g>
	<g>
		<path class="st3" d="M269.1,486.3c-0.7,3.5-0.7,7.1-0.7,10.7c0,1,1.5,1,1.5,0c0-3.4,0-6.9,0.6-10.3
			C270.8,485.7,269.3,485.3,269.1,486.3L269.1,486.3z"/>
	</g>
</g>
<g>
	<g>
		<path class="st3" d="M249.5,488.4c0,3,0,6.1,0,9.1c0,1,1.5,1,1.5,0c0-3,0-6.1,0-9.1C251,487.5,249.5,487.5,249.5,488.4
			L249.5,488.4z"/>
	</g>
</g>
<g>
	<g>
		<path class="st3" d="M233.2,478.4c-0.6,2-0.7,4-0.7,6.1c0,1,1.5,1,1.5,0c0-1.9,0-3.8,0.6-5.7C234.9,477.9,233.5,477.5,233.2,478.4
			L233.2,478.4z"/>
	</g>
</g>
<g>
	<g>
		<path class="st3" d="M229.4,498.5c-0.9,1.8-1.4,3.6-1.4,5.6c0,1,1.5,1,1.5,0c0-1.7,0.5-3.3,1.2-4.9
			C231.1,498.4,229.8,497.6,229.4,498.5L229.4,498.5z"/>
	</g>
</g>
<g>
	<g>
		<path class="st3" d="M213,481.5c-1.3,2.6-2,5.3-2.1,8.2c0,1,1.5,1,1.5,0c0-2.6,0.7-5.1,1.9-7.5C214.7,481.4,213.4,480.6,213,481.5
			L213,481.5z"/>
	</g>
</g>
<g>
	<g>
		<path class="st3" d="M198,486.6c1,0,1-1.5,0-1.5C197,485.1,197,486.6,198,486.6L198,486.6z"/>
	</g>
</g>
<g>
	<g>
		<path class="st3" d="M171.8,483.3c1,0,1-1.5,0-1.5C170.9,481.8,170.9,483.3,171.8,483.3L171.8,483.3z"/>
	</g>
</g>
<g>
	<g>
		<path class="st3" d="M182.3,196.4c1,0,1-1.5,0-1.5C181.3,194.9,181.3,196.4,182.3,196.4L182.3,196.4z"/>
	</g>
</g>
<g>
	<g>
		<path class="st3" d="M165.3,229c1,0,1-1.5,0-1.5C164.3,227.5,164.3,229,165.3,229L165.3,229z"/>
	</g>
</g>
<g>
	<g>
		<path class="st3" d="M261.2,149.8c-2.6,0.6-5.3,0.7-7.8,1.3c-0.9,0.2-0.5,1.7,0.4,1.4c2.6-0.6,5.3-0.7,7.8-1.3
			C262.5,151,262.1,149.6,261.2,149.8L261.2,149.8z"/>
	</g>
</g>
<g>
	<g>
		<path class="st3" d="M417.4,474c-1.9,0.6-3.8,0.6-5.7,0.6c-1,0-1,1.5,0,1.5c2.1,0,4.1-0.1,6.1-0.7
			C418.7,475.1,418.3,473.7,417.4,474L417.4,474z"/>
	</g>
</g>
<g>
	<g>
		<path class="st3" d="M425.1,489.1c-1.3,0.6-2.8,0.5-4.2,0.6c-1,0-1,1.5,0,1.5c1.7,0,3.4,0,5-0.8
			C426.7,490,425.9,488.7,425.1,489.1L425.1,489.1z"/>
	</g>
</g>
<g>
	<g>
		<path class="st3" d="M400.9,493c-1.1,0.5-2.3,0.5-3.5,0.6c-1,0-1,1.5,0,1.5c1.5,0,2.9-0.1,4.3-0.8
			C402.5,493.9,401.7,492.6,400.9,493L400.9,493z"/>
	</g>
</g>
<g>
	<g>
		<path class="st3" d="M398.6,476.6c-1.1,0-2.2,0-3.3,0c-1,0-1,1.5,0,1.5c1.1,0,2.2,0,3.3,0C399.6,478.1,399.6,476.6,398.6,476.6
			L398.6,476.6z"/>
	</g>
</g>
<g>
	<g>
		<path class="st3" d="M180.1,457.6c-1.5,0.5-2.9,0.6-4.4,0.6c-1,0-1,1.5,0,1.5c1.6,0,3.2-0.2,4.8-0.7
			C181.4,458.8,181,457.3,180.1,457.6L180.1,457.6z"/>
	</g>
</g>
<g>
	<g>
		<path class="st3" d="M180.4,466.3c-0.4,0.4-0.9,0.4-1.4,0.4c-1,0-1,1.5,0,1.5c1,0,1.8-0.2,2.5-0.9
			C182.2,466.7,181.2,465.7,180.4,466.3L180.4,466.3z"/>
	</g>
</g>
<g>
	<g>
		<path class="st3" d="M171.8,471.3c-0.7,0-1.3,0-2,0c-1,0-1,1.5,0,1.5c0.7,0,1.3,0,2,0C172.8,472.8,172.8,471.3,171.8,471.3
			L171.8,471.3z"/>
	</g>
</g>
<g>
	<g>
		<path class="st3" d="M167.3,462.8c-1.3,0-2.6,0-3.9,0c-1,0-1,1.5,0,1.5c1.3,0,2.6,0,3.9,0C168.2,464.3,168.2,462.8,167.3,462.8
			L167.3,462.8z"/>
	</g>
</g>
<g>
	<g>
		<path class="st3" d="M151,458.5c-0.2,0.2-0.8-0.5-0.9-0.7c-0.7-0.7-1.7,0.4-1.1,1.1c0.9,0.9,1.9,1.6,3,0.7
			C152.8,458.9,151.8,457.9,151,458.5L151,458.5z"/>
	</g>
</g>
<g>
	<g>
		<path class="st3" d="M151.6,466.8c-0.4,0-0.9,0-1.3,0c-1,0-1,1.5,0,1.5c0.4,0,0.9,0,1.3,0C152.5,468.3,152.5,466.8,151.6,466.8
			L151.6,466.8z"/>
	</g>
</g>
<g>
	<g>
		<path class="st3" d="M139,459.8c-0.2-0.2-0.5-0.4-0.8-0.6c-0.1-0.1-0.2-0.1-0.3-0.2c0,0,0-0.1,0,0c-0.1-1-1.6-1-1.5,0
			c0,0.4,0.2,0.8,0.5,1.1c0.3,0.3,0.7,0.5,1,0.8C138.7,461.5,139.7,460.5,139,459.8L139,459.8z"/>
	</g>
</g>
<g>
	<g>
		<path class="st3" d="M132.6,451.1c-0.7,0-1.5,0.1-2.1-0.4c-0.7-0.7-1.8,0.4-1.1,1.1c0.9,0.8,2,0.9,3.1,0.9
			C133.6,452.6,133.6,451.1,132.6,451.1L132.6,451.1z"/>
	</g>
</g>
<g>
	<g>
		<path class="st3" d="M123.2,452.5c-1.1-0.6-1.8-1.3-2.3-2.3c-0.4-0.9-1.7-0.1-1.3,0.8c0.7,1.3,1.6,2.2,2.9,2.9
			C123.3,454.2,124,452.9,123.2,452.5L123.2,452.5z"/>
	</g>
</g>
<g>
	<g>
		<path class="st3" d="M119.9,440.7c-0.4-0.2-0.8-0.5-1-0.9c-0.3-0.5-0.4-1-0.7-1.5c-0.4-0.9-1.7-0.1-1.3,0.8
			c0.3,0.5,0.5,1.1,0.8,1.6c0.4,0.6,0.9,0.9,1.4,1.2C120,442.5,120.8,441.2,119.9,440.7L119.9,440.7z"/>
	</g>
</g>
<g>
	<g>
		<path class="st3" d="M111.6,425c0,0.7,0,1.3,0,2c0,1,1.5,1,1.5,0c0-0.7,0-1.3,0-2C113.1,424.1,111.6,424.1,111.6,425L111.6,425z"
			/>
	</g>
</g>
<g>
	<g>
		<path class="st3" d="M474.4,637c-1.1,1.3-2.1,2.7-3,4.2c-0.5,0.8,0.8,1.6,1.3,0.8c0.8-1.4,1.7-2.7,2.7-3.9
			C476,637.3,475,636.3,474.4,637L474.4,637z"/>
	</g>
</g>
<g>
	<g>
		<path class="st3" d="M444.3,634.4c-0.5,0.9-0.9,1.8-1.1,2.8c-0.2,0.9,1.2,1.3,1.4,0.4c0.2-0.9,0.5-1.7,0.9-2.5
			C446,634.3,444.7,633.6,444.3,634.4L444.3,634.4z"/>
	</g>
</g>
<g>
	<g>
		<path class="st3" d="M466.1,650.3c-1.5,1.4-2.5,3.2-3.9,4.7c-0.7,0.7,0.4,1.8,1.1,1.1c1.4-1.5,2.4-3.3,3.9-4.7
			C467.8,650.7,466.8,649.6,466.1,650.3L466.1,650.3z"/>
	</g>
</g>
<g>
	<g>
		<path class="st3" d="M446.1,658.7c-0.6,1.1-1.2,2.2-1.9,3.1c-0.6,0.8,0.5,1.8,1.1,1.1c0.8-1.1,1.5-2.2,2.2-3.4
			C447.8,658.6,446.5,657.8,446.1,658.7L446.1,658.7z"/>
	</g>
</g>
<g>
	<g>
		<path class="st3" d="M433.3,657.3c-1,0.8-2,1.6-3.1,2.5c-0.8,0.6,0.3,1.7,1.1,1.1c1-0.8,2-1.6,3.1-2.5
			C435.1,657.8,434,656.7,433.3,657.3L433.3,657.3z"/>
	</g>
</g>
<g>
	<g>
		<path class="st3" d="M455.8,641.8c-0.2,1.4-0.4,2.7-0.8,4.1c-0.3,0.9,1.2,1.3,1.4,0.4c0.4-1.3,0.6-2.7,0.8-4.1
			C457.4,641.2,456,640.8,455.8,641.8L455.8,641.8z"/>
	</g>
</g>
<g>
	<g>
		<path class="st3" d="M446.9,645.7c-0.6,1.3-0.9,2.7-1.1,4.1c-0.1,0.9,1.3,1.4,1.4,0.4c0.2-1.3,0.4-2.5,0.9-3.7
			C448.6,645.6,447.3,644.8,446.9,645.7L446.9,645.7z"/>
	</g>
</g>
<g>
	<g>
		<path class="st3" d="M434.4,643.5c0,1.3-0.4,2.6-1.1,3.7c-0.5,0.8,0.8,1.6,1.3,0.8c0.9-1.3,1.3-2.9,1.3-4.5
			C436,642.6,434.5,642.6,434.4,643.5L434.4,643.5z"/>
	</g>
</g>
<g>
	<g>
		<path class="st3" d="M414.1,627c-0.6,1.7-1.4,3.3-2.4,4.7c-0.6,0.8,0.7,1.5,1.3,0.8c1.1-1.6,1.9-3.3,2.5-5.1
			C415.9,626.5,414.5,626.1,414.1,627L414.1,627z"/>
	</g>
</g>
<g>
	<g>
		<path class="st3" d="M456.6,628.1c-0.8,0.6-1.4,1.4-2,2c-0.7,0.7,0.4,1.8,1.1,1.1c0.7-0.7,1.3-1.4,2-2c0.3-0.3,0.3-0.8,0-1.1
			C457.4,627.7,457,627.8,456.6,628.1L456.6,628.1z"/>
	</g>
</g>
<g>
	<g>
		<path class="st3" d="M357.6,672.4c1,0,1-1.5,0-1.5C356.6,670.9,356.6,672.4,357.6,672.4L357.6,672.4z"/>
	</g>
</g>
<g>
	<g>
		<path class="st3" d="M423.4,648.5c-2.4,0.9-4.9,1.8-7.3,2.7c-0.9,0.3-0.5,1.8,0.4,1.4c2.4-0.9,4.9-1.8,7.3-2.7
			C424.7,649.6,424.3,648.2,423.4,648.5L423.4,648.5z"/>
	</g>
</g>
<g>
	<g>
		<path class="st3" d="M421.1,658.1c-1.6,0.6-3.3,1.3-4.9,1.9c-0.9,0.3-0.5,1.8,0.4,1.4c1.6-0.6,3.3-1.3,4.9-1.9
			C422.3,659.2,422,657.7,421.1,658.1L421.1,658.1z"/>
	</g>
</g>
<g>
	<g>
		<path class="st3" d="M405.8,667c-2.2,0.8-4.4,1.2-6.7,1.4c-1,0.1-1,1.6,0,1.5c2.4-0.1,4.8-0.6,7.1-1.4
			C407.1,668.2,406.7,666.7,405.8,667L405.8,667z"/>
	</g>
</g>
<g>
	<g>
		<path class="st3" d="M403.6,656.7c-1.8,1-3.6,2-5.4,3c-0.8,0.5-0.1,1.8,0.8,1.3c1.8-1,3.6-2,5.4-3
			C405.2,657.5,404.5,656.2,403.6,656.7L403.6,656.7z"/>
	</g>
</g>
<g>
	<g>
		<path class="st3" d="M385.1,668.9c-1.1,0.2-2.3,0.3-3.4,0.5c-1,0.1-0.5,1.6,0.4,1.4c1.1-0.2,2.3-0.3,3.4-0.5
			C386.5,670.2,386.1,668.8,385.1,668.9L385.1,668.9z"/>
	</g>
</g>
<g>
	<g>
		<path class="st3" d="M485.9,643.4c-0.5,0.3-1,0.7-1.5,1c-0.8,0.5,0,1.8,0.8,1.3c0.5-0.3,1-0.7,1.5-1
			C487.4,644.2,486.7,642.9,485.9,643.4L485.9,643.4z"/>
	</g>
</g>
<g>
	<g>
		<path class="st3" d="M518.8,619.2c-1.5,1.2-3.1,2.2-4.8,3.2c-0.8,0.5-0.1,1.8,0.8,1.3c1.6-1,3.2-2,4.8-3.2
			C520.3,619.9,519.6,618.6,518.8,619.2L518.8,619.2z"/>
	</g>
</g>
<g>
	<g>
		<path class="st3" d="M166.6,624.7c-2.2-0.9-4.4-1.5-6.8-1.7c-1-0.1-1,1.4,0,1.5c2.1,0.2,4.1,0.6,6,1.5
			C166.7,626.4,167.5,625.1,166.6,624.7L166.6,624.7z"/>
	</g>
</g>
<g>
	<g>
		<path class="st3" d="M145,617.6c-2.2-1.2-4.4-2.4-6.6-3.6c-0.8-0.5-1.6,0.8-0.8,1.3c2.2,1.2,4.4,2.4,6.6,3.6
			C145.1,619.4,145.9,618.1,145,617.6L145,617.6z"/>
	</g>
</g>
<g>
	<g>
		<path class="st3" d="M135,633c-2.4,0.4-4.6,1.2-6.6,2.5c-0.8,0.5-0.1,1.8,0.8,1.3c1.9-1.2,4-2,6.2-2.4
			C136.3,634.3,135.9,632.8,135,633L135,633z"/>
	</g>
</g>
<g>
	<g>
		<path class="st3" d="M118,637.4c-1.6,0.9-3.2,1.7-4.9,2.6c-0.9,0.4-0.1,1.7,0.8,1.3c1.6-0.9,3.2-1.7,4.9-2.6
			C119.7,638.3,118.9,637,118,637.4L118,637.4z"/>
	</g>
</g>
<g>
	<g>
		<path class="st3" d="M148.4,632.7c-1.1,1-2.4,1.6-3.9,1.8c-0.9,0.1-1,1.6,0,1.5c1.9-0.2,3.5-1,5-2.2
			C150.2,633.1,149.2,632,148.4,632.7L148.4,632.7z"/>
	</g>
</g>
<g>
	<g>
		<path class="st3" d="M109.9,644.8c-2.4,0.4-4.7,1-6.9,1.9c-0.9,0.3-0.5,1.8,0.4,1.4c2.2-0.9,4.5-1.5,6.9-1.9
			C111.2,646,110.8,644.6,109.9,644.8L109.9,644.8z"/>
	</g>
</g>
<g>
	<g>
		<path class="st3" d="M3.3,662.4c-1,0.6-2,1.3-3,1.9c-0.8,0.5-0.1,1.8,0.8,1.3c1-0.6,2-1.3,3-1.9C4.9,663.2,4.1,661.9,3.3,662.4
			L3.3,662.4z"/>
	</g>
</g>
<g>
	<g>
		<path class="st3" d="M371.9,667.5c-0.6,1.6-1.7,3-3.2,3.9c-0.8,0.5-0.1,1.8,0.8,1.3c1.8-1.1,3.2-2.8,3.9-4.8
			C373.6,667,372.2,666.6,371.9,667.5L371.9,667.5z"/>
	</g>
</g>
<g>
	<g>
		<path class="st3" d="M391.3,659.6c-0.3,0.2-0.7,0.3-1,0.5c-0.9,0.4-0.1,1.7,0.8,1.3c0.3-0.2,0.7-0.3,1-0.5
			C393,660.5,392.2,659.2,391.3,659.6L391.3,659.6z"/>
	</g>
</g>
<g>
	<g>
		<path class="st3" d="M194.6,628.3c-3.7-0.9-7.4-1.2-11.2-1.1c-1,0-1,1.5,0,1.5c3.6-0.2,7.2,0.2,10.8,1
			C195.1,630,195.5,628.5,194.6,628.3L194.6,628.3z"/>
	</g>
</g>
<g>
	<g>
		<path class="st3" d="M238.1,630c-2.8,0.3-5.6,0.1-8.4-0.4c-0.9-0.2-1.3,1.3-0.4,1.4c2.9,0.6,5.9,0.8,8.8,0.5
			C239,631.5,239,630,238.1,630L238.1,630z"/>
	</g>
</g>
<g>
	<g>
		<path class="st3" d="M173.4,605.4c-1.2,0.2-2.4,0-3.5-0.5c-0.9-0.4-1.6,0.9-0.8,1.3c1.5,0.7,3,0.9,4.6,0.6
			C174.8,606.7,174.4,605.2,173.4,605.4L173.4,605.4z"/>
	</g>
</g>
<g>
	<g>
		<path class="st3" d="M176.7,591c-0.8-0.2-1.5-0.4-2.3-0.6c-0.9-0.2-1.3,1.2-0.4,1.4c0.8,0.2,1.5,0.4,2.3,0.6
			C177.3,592.6,177.7,591.2,176.7,591L176.7,591z"/>
	</g>
</g>
<g>
	<g>
		<path class="st3" d="M224.3,605.3c-2,0-3.8-0.5-5.4-1.6c-0.8-0.5-1.6,0.8-0.8,1.3c1.8,1.2,3.9,1.8,6.2,1.8
			C225.2,606.8,225.2,605.3,224.3,605.3L224.3,605.3z"/>
	</g>
</g>
<g>
	<g>
		<path class="st3" d="M117.3,591.1c1.6,1.5,2.7,3.3,3.3,5.4c0.3,0.9,1.7,0.5,1.4-0.4c-0.6-2.3-1.9-4.4-3.6-6.1
			C117.6,589.4,116.6,590.4,117.3,591.1L117.3,591.1z"/>
	</g>
</g>
<path class="st4" d="M529.4,368c-32.6,130.3-151.3,87.8-174.3,96.6c-5.5,1-6.8,5.5-6.9,5.9c-0.3,8.8,10.9,10.7,10.9,10.7
	s-8.9,2.4-9.6,7.1c-0.9,5,4.3,7.6,4.3,7.6s5.3,2.1,8.1,1.1c0,0-9.9,1.9-4.9,10.4c11.3,16.8,74,8.7,118.7-18.9
	c33.3-20.6,51.8-55.4,57.1-81.5c-4.9,4.3-14.8,38.8-40.6,60.1c-31.4,25.9-119.3,48.2-128.5,39.1c-4.1-8.1,10-11.6,10-11.6
	s-17,2.5-16.1-6.8c0.5-5.4,15.9-6,15.9-6s-21.4-5.6-16.2-10.8C381,446.7,493.5,526.5,529.4,368z"/>
<path class="st5" d="M531.4,349.8c-7.1,56.4-35.8,97.8-56.3,109.3c-31.7,20.6-117.6-0.8-117.5,11.3c0.1,9.8,19,10.1,19,10.1
	s-17.8,1.3-17.9,7.1c-0.2,8,17.6,5.9,17.6,5.9s-15.5,3-13,10.7c2.9,9.1,112.8-4.9,147.5-58.1c18.2-27.9,23.5-46.6,23.5-46.6"/>
<path class="st6" d="M116,404.3c17.8,72,75.9,31.2,92.8,36.8c4,0.5,7,3,5.9,7.3c0.4,6.3-8.6,8.3-8.6,8.3s7.3,3.2,7.9,6.5
	c1.3,6.2-2.5,7-2.5,7s-4.9,1.9-6.9,1.3c0,0,7.5,4.3,4.1,10.6c-7.7,12.5-55.3,7.7-86-14.6c-13.7-9.9-15.8-21.7-15.3-34.4
	c1.5,4.6,4.9,24.1,19.6,31.4c26.4,13,71.5,22.7,77.9,15.8c2.7-6-8.2-9.4-8.2-9.4s12.5-1.2,11.5-7.8c-0.5-3.9-9.2-6.6-9.2-6.6
	s10.1-0.2,10.4-10.1C209.8,434.4,118.1,484.7,116,404.3z"/>
<path class="st5" d="M116.3,401.3c-1.6,12.3,0.7,32.6,16,43c31.7,20.6,76.6-8.8,76.5,3.2c-0.1,9.8-17.8,8.6-17.8,8.6
	s17.8,1.3,17.9,7.1c0.2,8-17.6,5.9-17.6,5.9s15.5,3,13,10.7c-2.9,9.1-69.4-5.3-85.4-22.2c-10.5-11.1-10.4-27.3-10.4-27.3"/>
<path class="st6" d="M457.5,620.6c0,0-22.9,12.3-28,15.8c-8.6,3.1-72.3,4.5-109.6,2.8C423.7,630.3,457.5,620.6,457.5,620.6z"/>
<path class="st6" d="M166.9,634.2c0,0-22.4-5.9-28.3-11.1c1.6,9.5-1.2,11.2-45.3,33C143.7,638.8,166.9,634.2,166.9,634.2z"/>
<path class="st7" d="M169.5,287.5C167,344,201.1,440.9,314.2,442.6c116.4,1.7,163.2-88.2,163.2-152.1c0-58.9-48.7-130.6-113.6-132.4
	c-30.9-0.8-37.2,16.1-42.3,20.6c-2.9-4.8-11.3-20.7-44.1-20.2C223.6,157,172.9,209.9,169.5,287.5z"/>
<path class="st8" d="M326.7,270.1c0,34.8,27.2,62.9,60.6,62.9c33.5,0,60.6-28.2,60.6-62.9c0-34.8-27.1-62.9-60.6-62.9
	C353.8,207.2,326.7,235.3,326.7,270.1z"/>
<path class="st7" d="M356.5,268.1c0,17,13.4,30.8,30,30.8c16.5,0,30-13.8,30-30.8c0-17-13.4-30.8-30-30.8
	C369.9,237.4,356.5,251.1,356.5,268.1z"/>
<path class="st8" d="M372.2,266.1c0,7.8,6.1,14,13.6,14c7.5,0,13.6-6.3,13.6-14c0-7.7-6.1-14-13.6-14
	C378.4,252,372.2,258.3,372.2,266.1z"/>
<path class="st8" d="M392.2,285.8c0,3.2,2.5,5.8,5.6,5.8c3.1,0,5.6-2.6,5.6-5.8c0-3.2-2.5-5.7-5.6-5.7
	C394.7,280.1,392.2,282.7,392.2,285.8z"/>
<g>
	<path class="st9" d="M426.7,200.1c2.3-4.2,0.6-7.7-2.4-8.8c-3-1-6.1,0.2-7.3,4c-1.2,3.6-0.7,8.2,0.7,12.7
		C417.7,208,424.6,203.9,426.7,200.1z"/>
	<path class="st9" d="M404.1,191.2c1.5-4.6-0.8-7.7-3.9-8.2c-3.1-0.4-6,1.3-6.5,5.2c-0.5,3.7,0.8,8.2,3,12.3
		C396.7,200.6,402.7,195.3,404.1,191.2z"/>
	<path class="st9" d="M379.8,188.4c0.2-4.8-2.8-7.2-5.9-6.9c-3.1,0.4-5.4,2.9-4.9,6.7c0.5,3.7,3,7.7,6.2,11.1
		C375.1,199.4,379.5,192.7,379.8,188.4z"/>
</g>
<path class="st8" d="M292.1,265c0,28.5-22.3,51.7-49.8,51.7c-27.5,0-49.8-23.1-49.8-51.7c0-28.5,22.3-51.7,49.8-51.7
	C269.8,213.4,292.1,236.5,292.1,265z"/>
<path class="st7" d="M267.6,263.4c0,14-11,25.3-24.6,25.3c-13.6,0-24.6-11.3-24.6-25.3c0-14,11-25.3,24.6-25.3
	C256.6,238.2,267.6,249.5,267.6,263.4z"/>
<path class="st8" d="M254.7,261.7c0,6.4-5,11.5-11.2,11.5c-6.2,0-11.2-5.2-11.2-11.5c0-6.4,5-11.5,11.2-11.5
	C249.6,250.2,254.7,255.4,254.7,261.7z"/>
<path class="st8" d="M238.2,277.9c0,2.6-2.1,4.7-4.6,4.7c-2.5,0-4.6-2.1-4.6-4.7c0-2.6,2.1-4.7,4.6-4.7
	C236.2,273.2,238.2,275.3,238.2,277.9z"/>
<g>
	<path class="st9" d="M206.9,208.8c-2.4-3.2-1.4-6.2,0.9-7.4c2.3-1.1,5-0.5,6.4,2.4c1.3,2.8,1.5,6.6,0.8,10.4
		C215.1,214.2,209,211.7,206.9,208.8z"/>
	<path class="st9" d="M224.3,199.1c-1.7-3.6-0.2-6.4,2.2-7.1c2.5-0.7,5,0.4,5.9,3.5c0.8,3,0.3,6.8-1.1,10.4
		C231.3,205.9,225.8,202.2,224.3,199.1z"/>
	<path class="st9" d="M243.8,194.1c-0.7-3.9,1.5-6.2,4.1-6.2c2.6,0,4.7,1.7,4.7,5c0,3.1-1.5,6.6-3.8,9.7
		C248.7,202.5,244.4,197.6,243.8,194.1z"/>
</g>
<path class="st10" d="M293.3,324.1c-1.6,9.1,3.6,14.4,9.6,14.4c6,0,11-4.1,10.8-11.6c-0.1-7.2-3.8-15.4-9.1-22.5
	C304.7,304.3,294.7,316,293.3,324.1z"/>
<path d="M324.7,393.2c0,0-8.9,2.3-21,1.3c-14.4-1.3-21.7-5.5-21.7-5.5s0.9,23,19.1,24.7C319.2,415.3,324.7,393.2,324.7,393.2z"/>
<polygon class="st7" points="319.4,396 312,396.6 313.9,403.9 "/>
<polyline class="st7" points="294,394.9 286.8,393.2 290,401.3 "/>
<circle class="st11" cx="401.9" cy="364.7" r="11.3"/>
<circle class="st11" cx="220.8" cy="349.8" r="11.3"/>
<g>
	<path class="st11" d="M249.4,91.2c0,0-0.8,0.2-2.2,0.6c-0.7,0.2-1.6,0.4-2.5,0.6c-1,0.2-2.1,0.5-3.3,0.7c-1.2,0.2-2.6,0.4-4,0.6
		c-1.4,0.2-2.9,0.4-4.5,0.5c-3.1,0.2-6.4,0.4-9.7,0.5c-3.3,0-6.6,0-9.7,0c-3.1-0.1-6-0.2-8.5-0.3c-5-0.2-8.3-0.4-8.3-0.4
		s0.8,0,2.3-0.1c1.4,0,3.5-0.1,6-0.1c2.5,0,5.4,0,8.5,0c3.1,0,6.4,0,9.7-0.1c3.3,0,6.6-0.2,9.7-0.4c1.5-0.1,3-0.2,4.4-0.4
		c1.4-0.1,2.7-0.3,4-0.4c1.2-0.1,2.4-0.3,3.4-0.5c1-0.1,1.9-0.3,2.6-0.4C248.6,91.4,249.4,91.2,249.4,91.2z"/>
</g>
<g>
	<path class="st11" d="M237.6,79.2c0,0-0.8,0.1-2.1,0.2c-0.7,0.1-1.5,0.1-2.4,0.1c-0.9,0-2,0.1-3.2,0.1c-1.2,0-2.4,0-3.7-0.1
		c-1.3,0-2.7-0.2-4.2-0.3c-1.4-0.2-2.9-0.3-4.4-0.5c-1.5-0.2-3-0.4-4.5-0.7c-3-0.5-6.1-1.1-8.9-1.7c-2.8-0.6-5.4-1.2-7.7-1.7
		c-4.5-1.1-7.5-1.8-7.5-1.8s0.8,0.1,2.1,0.3c1.3,0.2,3.2,0.5,5.5,0.9c2.3,0.4,4.9,0.9,7.7,1.4c2.8,0.6,5.8,1.1,8.9,1.6
		c1.5,0.3,3,0.5,4.5,0.7c1.5,0.2,3,0.4,4.4,0.6c1.4,0.1,2.8,0.3,4.1,0.4c1.3,0.1,2.6,0.2,3.7,0.3c1.1,0.1,2.2,0.1,3.1,0.1
		c0.9,0,1.7,0.1,2.4,0C236.8,79.2,237.6,79.2,237.6,79.2z"/>
</g>
<g>
	<path class="st11" d="M220.1,60.7c0,0-0.5,0-1.5,0.1c-0.5,0-1,0-1.7,0c-0.7,0-1.4,0-2.2-0.1c-0.8-0.1-1.7-0.2-2.6-0.3
		c-0.9-0.1-1.9-0.3-2.9-0.5c-1-0.2-2-0.4-3-0.7c-1-0.3-2.1-0.6-3.1-0.9c-2.1-0.7-4.1-1.4-6-2.2c-1.9-0.7-3.6-1.5-5.1-2.1
		c-1.5-0.6-2.7-1.2-3.6-1.6c-0.9-0.4-1.4-0.6-1.4-0.6s0.5,0.2,1.4,0.4c0.9,0.3,2.2,0.7,3.7,1.2c1.5,0.5,3.3,1.2,5.2,1.8
		c1.9,0.7,3.9,1.4,6,2c2,0.7,4.1,1.2,6,1.7c1,0.2,1.9,0.5,2.8,0.6c0.9,0.2,1.8,0.3,2.6,0.4c0.8,0.1,1.5,0.2,2.2,0.3
		c0.6,0.1,1.2,0.1,1.7,0.2C219.6,60.7,220.1,60.7,220.1,60.7z"/>
</g>
<g>
	<path class="st11" d="M210.7,41.4c0,0-0.4,0.1-1,0.2c-0.3,0-0.7,0.1-1.2,0.1c-0.5,0-1,0.1-1.6,0.1c-0.6,0-1.2,0-1.9-0.1
		c-0.3,0-0.7-0.1-1-0.2c-0.3-0.1-0.7-0.2-1.1-0.3c-0.7-0.2-1.4-0.4-2.2-0.7c-0.7-0.3-1.4-0.6-2.1-1c-2.8-1.4-5.2-3.4-7-4.8
		c-1.8-1.4-3-2.4-3-2.4s1.4,0.7,3.3,1.9c1,0.6,2.1,1.3,3.3,2.1c0.6,0.4,1.2,0.8,1.9,1.1c0.6,0.4,1.3,0.8,2,1.1c0.7,0.4,1.3,0.7,2,1
		c0.7,0.3,1.4,0.6,2,0.7c0.3,0.1,0.7,0.2,1,0.3c0.3,0.1,0.7,0.1,1,0.2c0.6,0.2,1.2,0.2,1.8,0.3c0.6,0.1,1.1,0.1,1.5,0.1
		c0.5,0.1,0.9,0,1.2,0C210.3,41.4,210.7,41.4,210.7,41.4z"/>
</g>
<g>
	<path class="st11" d="M231.8,108.3c0,0-0.3,0.3-0.8,0.7c-0.3,0.2-0.5,0.5-0.9,0.8c-0.4,0.3-0.8,0.6-1.3,0.9c-0.5,0.3-1,0.7-1.7,0.9
		c-0.3,0.1-0.6,0.3-0.9,0.4c-0.3,0.1-0.7,0.2-1,0.4c-0.7,0.3-1.4,0.4-2.2,0.6c-0.8,0.1-1.5,0.3-2.3,0.3c-3.1,0.3-6.2,0-8.5-0.2
		c-2.3-0.2-3.8-0.4-3.8-0.4s1.5-0.2,3.8-0.2c1.1,0,2.5,0,3.9,0c0.7,0,1.4,0,2.2-0.1c0.7,0,1.5-0.1,2.2-0.2c0.8-0.1,1.5-0.2,2.2-0.3
		c0.7-0.2,1.4-0.3,2.1-0.5c0.3-0.1,0.7-0.2,1-0.3c0.3-0.1,0.6-0.2,0.9-0.3c0.6-0.2,1.1-0.5,1.7-0.7c0.5-0.2,1-0.5,1.4-0.7
		c0.4-0.2,0.7-0.4,1-0.6C231.5,108.5,231.8,108.3,231.8,108.3z"/>
</g>
<g>
	<g>
		<path class="st11" d="M408.4,94.2c0,0,0.9,0.2,2.4,0.4c0.8,0.2,1.7,0.3,2.8,0.5c1.1,0.2,2.3,0.3,3.6,0.5c1.3,0.2,2.8,0.3,4.3,0.5
			c1.5,0.2,3.1,0.2,4.8,0.4c1.7,0.1,3.4,0.2,5.1,0.3c1.7,0.1,3.5,0.1,5.3,0.1c3.6,0.1,7.1,0.1,10.5,0.1c3.3,0,6.5,0,9.1,0
			c2.7,0,4.9,0.1,6.5,0.1c1.6,0.1,2.5,0.1,2.5,0.1s-3.6,0.1-8.9,0.4c-2.7,0.1-5.8,0.2-9.1,0.3c-3.3,0.1-6.9,0.1-10.5,0
			c-1.8-0.1-3.6-0.1-5.3-0.2c-1.8-0.1-3.5-0.2-5.2-0.3c-1.7-0.2-3.3-0.3-4.8-0.5c-1.5-0.2-3-0.4-4.3-0.6c-1.3-0.2-2.5-0.5-3.6-0.7
			c-1.1-0.2-2-0.4-2.7-0.6C409.3,94.4,408.4,94.2,408.4,94.2z"/>
	</g>
	<g>
		<path class="st11" d="M421.1,81.2c0,0,0.8,0,2.3,0c0.7,0,1.6,0,2.6,0c1,0,2.1-0.1,3.4-0.1c1.2,0,2.6-0.1,4-0.3
			c1.4-0.1,2.9-0.3,4.4-0.4c1.5-0.2,3.1-0.4,4.7-0.6c1.6-0.2,3.2-0.5,4.9-0.8c3.3-0.5,6.5-1.1,9.5-1.7c3-0.6,5.9-1.1,8.3-1.6
			c2.4-0.5,4.5-0.8,5.9-1c1.4-0.2,2.3-0.3,2.3-0.3s-3.2,0.8-8,1.9c-2.4,0.5-5.2,1.2-8.3,1.9c-3,0.6-6.3,1.3-9.6,1.9
			c-1.6,0.3-3.3,0.5-4.9,0.7c-1.6,0.2-3.2,0.4-4.8,0.6c-1.6,0.1-3,0.3-4.5,0.3c-1.4,0.1-2.8,0.1-4,0.1c-1.2,0-2.4,0-3.4-0.1
			c-1,0-1.9-0.1-2.6-0.1C421.9,81.3,421.1,81.2,421.1,81.2z"/>
	</g>
	<g>
		<path class="st11" d="M439.9,61.3c0,0,0.6,0,1.6-0.1c0.5,0,1.1-0.1,1.8-0.2c0.7-0.1,1.5-0.2,2.3-0.3c0.4-0.1,0.9-0.1,1.3-0.2
			c0.5-0.1,0.9-0.2,1.4-0.3c1-0.2,2-0.5,3-0.7c2.1-0.5,4.3-1.2,6.5-1.9c2.2-0.7,4.4-1.5,6.4-2.2c2-0.7,4-1.4,5.6-2
			c1.6-0.6,3-1,4-1.3c1-0.3,1.5-0.5,1.5-0.5s-0.5,0.2-1.5,0.6c-0.9,0.4-2.3,1-3.9,1.7c-1.6,0.7-3.5,1.5-5.5,2.3
			c-2,0.8-4.2,1.6-6.4,2.3c-1.1,0.3-2.2,0.7-3.3,1c-1.1,0.3-2.2,0.5-3.3,0.8c-1.1,0.2-2.1,0.4-3.1,0.5c-0.5,0.1-1,0.1-1.4,0.2
			c-0.5,0-0.9,0.1-1.4,0.1c-0.9,0.1-1.7,0.1-2.4,0.1c-0.7,0-1.3,0-1.8,0C440.5,61.3,439.9,61.3,439.9,61.3z"/>
	</g>
	<g>
		<path class="st11" d="M450,40.5c0,0,0.4,0,1.1,0c0.4,0,0.8,0,1.3,0c0.5-0.1,1.1-0.1,1.7-0.1c0.6-0.1,1.3-0.1,1.9-0.3
			c0.3-0.1,0.7-0.2,1-0.2c0.3-0.1,0.7-0.2,1.1-0.3c0.7-0.2,1.4-0.5,2.2-0.8c0.7-0.3,1.5-0.6,2.2-1c0.7-0.4,1.4-0.8,2.1-1.2
			c0.7-0.4,1.4-0.8,2-1.2c1.3-0.8,2.5-1.6,3.5-2.3c1-0.7,1.9-1.2,2.6-1.5c0.6-0.3,1-0.5,1-0.5s-1.3,1-3.3,2.5
			c-1,0.7-2.1,1.7-3.4,2.5c-0.6,0.4-1.3,0.9-2,1.3c-0.7,0.4-1.4,0.9-2.2,1.2c-0.7,0.4-1.5,0.7-2.3,1c-0.4,0.2-0.8,0.3-1.2,0.4
			c-0.4,0.1-0.8,0.2-1.2,0.3c-0.4,0.1-0.8,0.2-1.1,0.3c-0.4,0.1-0.7,0.1-1.1,0.2c-0.7,0.1-1.4,0.1-2,0.2c-0.6,0-1.2,0-1.7-0.1
			c-0.5,0-0.9-0.1-1.3-0.1C450.4,40.6,450,40.5,450,40.5z"/>
	</g>
	<g>
		<path class="st11" d="M427.4,112.5c0,0,0.4,0.2,1,0.6c0.3,0.2,0.7,0.5,1.1,0.7c0.4,0.2,0.9,0.5,1.5,0.8c0.6,0.2,1.1,0.6,1.8,0.8
			c0.3,0.1,0.7,0.2,1,0.4c0.3,0.1,0.7,0.2,1.1,0.3c0.7,0.2,1.5,0.4,2.3,0.5c0.8,0.1,1.6,0.3,2.4,0.3c0.8,0.1,1.6,0.1,2.4,0.2
			c0.8,0,1.6,0.1,2.4,0.1c1.5,0,3,0,4.2,0c1.2,0,2.3,0.1,3,0.1c0.7,0.1,1.1,0.1,1.1,0.1s-1.6,0.1-4.1,0.4c-1.2,0.1-2.7,0.2-4.2,0.3
			c-0.8,0-1.6,0.1-2.4,0c-0.8,0-1.7,0-2.5-0.1c-0.8-0.1-1.7-0.2-2.5-0.4c-0.4-0.1-0.8-0.2-1.2-0.3c-0.4-0.1-0.8-0.2-1.1-0.3
			c-0.4-0.1-0.7-0.2-1.1-0.4c-0.3-0.2-0.7-0.3-1-0.5c-0.7-0.3-1.2-0.7-1.8-1c-0.5-0.3-1-0.7-1.4-1c-0.4-0.3-0.7-0.6-1-0.8
			C427.7,112.8,427.4,112.5,427.4,112.5z"/>
	</g>
</g>
</svg>
