<?xml version="1.0" encoding="utf-8"?>
<!-- Generator: Adobe Illustrator 19.2.1, SVG Export Plug-In . SVG Version: 6.00 Build 0)  -->
<svg version="1.1" id="Capa_1" xmlns="http://www.w3.org/2000/svg" xmlns:xlink="http://www.w3.org/1999/xlink" x="0px" y="0px"
	 viewBox="0 0 550 350" style="enable-background:new 0 0 550 350;" xml:space="preserve">
<style type="text/css">
	.st0{fill:#009245;}
	.st1{fill:none;stroke:#A0DBA8;stroke-miterlimit:10;}
	.st2{fill:#39B54A;}
	.st3{fill:#FFFFFF;}
	.st4{fill:#1D1D1B;}
	.st5{fill:#F7931E;}
	.st6{fill:#FBB03B;}
	.st7{fill:#ED1E79;}
	.st8{fill:#FFC6EB;}
	.st9{fill:#C69C6D;}
	.st10{fill:none;stroke:#EBDBCB;stroke-miterlimit:10;}
	.st11{fill:#CCCCCC;}
	.st12{fill:#FFFFFF;stroke:#333333;stroke-miterlimit:10;}
	.st13{fill:#E6E6E6;stroke:#333333;stroke-linejoin:round;stroke-miterlimit:10;}
</style>
<g>
	<g>
		<path class="st0" d="M547.5,315c-173.2,63.5-299.4-91-325.2-135.7c-3.5-6.1-5.8-9.1-2.7-12c3.6-3.3,10,4,10,4s-10.6-10.4-6.1-15.1
			c4.5-4.7,12,5.1,12,5.1s-5.7-9-1.6-12.2c5.3-4.2,12.7,9.9,12.7,9.9S311.5,259.6,349.5,260c-45.7-38.4-93.9-102.9,10.3-133.5
			c0,0-3.7,10.5,0,0c43.8-125.1,124.1-10,154.9,21.9c-28.3-84.4,13.2-99.8,16.7-100.9c0.2-0.1,0.3-0.2,0.4-0.2
			c6-1.6,12.7-3.1,13.8-2.3c7.1,5-9.5,11.4-9.5,11.4s10.2-2.4,10.3,3.3c0.1,5.8-6.4,5.8-6.4,5.8s5.7,1.9,5.7,7.1c0,5.2-8,2.4-8,2.4
			s-8.7,18.3,9.8,68C547.5,188.7,548.1,277.9,547.5,315z"/>
		<g>
			<g>
				<path class="st1" d="M237.6,173.7"/>
			</g>
		</g>
		<g>
			<g>
				<path class="st2" d="M359,132.1c-1.8,0-3.7,0-5.5,0c-1.6,0-1.6,2.5,0,2.5c1.8,0,3.7,0,5.5,0C360.6,134.6,360.6,132.1,359,132.1
					L359,132.1z"/>
			</g>
		</g>
		<g>
			<g>
				<path class="st2" d="M347.6,136.1c-2.3,0.4-4.6,1.1-6.8,2c-1.5,0.6-0.8,3,0.7,2.4c2.2-0.9,4.5-1.5,6.8-2
					C349.8,138.2,349.2,135.8,347.6,136.1L347.6,136.1z"/>
			</g>
		</g>
		<g>
			<g>
				<path class="st2" d="M334.6,141.4c-2.4,0.9-4.5,2.1-6.5,3.8c-1.2,1,0.6,2.8,1.8,1.8c1.6-1.4,3.4-2.4,5.4-3.2
					C336.8,143.2,336.1,140.8,334.6,141.4L334.6,141.4z"/>
			</g>
		</g>
		<g>
			<g>
				<path class="st2" d="M322.8,149.1c-1.8,0.7-3.4,1.7-4.8,3c-1.2,1.1,0.6,2.9,1.8,1.8c1.1-1,2.3-1.8,3.7-2.3
					C325,150.9,324.4,148.5,322.8,149.1L322.8,149.1z"/>
			</g>
		</g>
		<g>
			<g>
				<path class="st2" d="M308.2,206c0.6,2.2,1.9,4.1,3.7,5.5c0.5,0.4,1.4,0.1,1.7-0.4c0.4-0.6,0.1-1.3-0.4-1.7c-1.3-1-2.2-2.4-2.6-4
					C310.2,203.8,307.8,204.4,308.2,206L308.2,206z"/>
			</g>
		</g>
		<g>
			<g>
				<path class="st2" d="M315,217c1,1.4,2.1,2.7,3.4,3.8c0.5,0.4,1.3,0.5,1.8,0c0.4-0.4,0.5-1.3,0-1.8c-1.2-1-2.2-2.1-3-3.3
					C316.2,214.4,314.1,215.6,315,217L315,217z"/>
			</g>
		</g>
		<g>
			<g>
				<path class="st2" d="M323.1,228.1c1.1,1.9,2.4,3.7,4.1,5.1c1.2,1.1,3-0.7,1.8-1.8c-1.5-1.3-2.7-2.9-3.7-4.6
					C324.5,225.4,322.3,226.6,323.1,228.1L323.1,228.1z"/>
			</g>
		</g>
		<g>
			<g>
				<path class="st2" d="M331.5,237.7c1.4,1.2,2.8,2.5,4.1,3.7c1.2,1.1,3-0.7,1.8-1.8c-1.4-1.2-2.8-2.5-4.1-3.7
					C332.1,234.8,330.3,236.6,331.5,237.7L331.5,237.7z"/>
			</g>
		</g>
		<g>
			<g>
				<path class="st2" d="M345.4,249.5c1.2,1.5,2.7,2.7,4.5,3.4c0.6,0.3,1.3,0.2,1.7-0.4c0.3-0.5,0.2-1.4-0.4-1.7
					c-1.6-0.7-2.9-1.7-4-3.1c-0.4-0.5-1.3-0.4-1.8,0C344.9,248.2,345,248.9,345.4,249.5L345.4,249.5z"/>
			</g>
		</g>
		<g>
			<g>
				<path class="st2" d="M353.6,259.5c2,1.8,4.1,3.4,6.2,5c1.3,1,2.5-1.2,1.3-2.2c-2-1.5-3.9-3-5.7-4.6
					C354.2,256.6,352.4,258.4,353.6,259.5L353.6,259.5z"/>
			</g>
		</g>
		<g>
			<g>
				<path class="st2" d="M365.8,270.7c1.4,1.4,3,2.4,4.9,3.1c0.6,0.3,1.4-0.3,1.5-0.9c0.2-0.7-0.3-1.3-0.9-1.5
					c-1.4-0.6-2.7-1.4-3.8-2.5C366.4,267.8,364.7,269.6,365.8,270.7L365.8,270.7z"/>
			</g>
		</g>
		<g>
			<g>
				<path class="st2" d="M378.3,278.1c1.6,2,3.9,3.3,6.4,3.7c1.6,0.2,2.3-2.2,0.7-2.4c-2.1-0.3-3.9-1.3-5.3-3
					C379.1,275,377.3,276.8,378.3,278.1L378.3,278.1z"/>
			</g>
		</g>
		<g>
			<g>
				<path class="st2" d="M392.5,287.5c1.6,0.4,3.2,0.9,4.9,1.3c1.6,0.4,2.2-2,0.7-2.4c-1.6-0.4-3.2-0.9-4.9-1.3
					C391.6,284.6,390.9,287.1,392.5,287.5L392.5,287.5z"/>
			</g>
		</g>
		<g>
			<g>
				<path class="st2" d="M403.2,292.4c2.2,0.6,4.5,0.9,6.8,0.6c1.6-0.1,1.6-2.6,0-2.5c-2.1,0.2-4.1,0-6.2-0.6
					C402.3,289.6,401.7,292,403.2,292.4L403.2,292.4z"/>
			</g>
		</g>
		<g>
			<g>
				<path class="st2" d="M419.5,297c1.7,0.3,3.5,0.6,5.2,1c1.6,0.3,2.2-2.1,0.7-2.4c-1.7-0.3-3.5-0.6-5.2-1
					C418.6,294.3,417.9,296.7,419.5,297L419.5,297z"/>
			</g>
		</g>
		<g>
			<g>
				<path class="st2" d="M431.2,299.2c1.8,0.3,3.7,0.5,5.5,0.4c1.6-0.1,1.6-2.6,0-2.5c-1.6,0.1-3.3,0-4.9-0.3
					C430.3,296.5,429.6,298.9,431.2,299.2L431.2,299.2z"/>
			</g>
		</g>
		<g>
			<g>
				<path class="st2" d="M447.2,301.2c1.8,0,3.7,0,5.5,0c1.6,0,1.6-2.5,0-2.5c-1.8,0-3.7,0-5.5,0
					C445.5,298.7,445.5,301.2,447.2,301.2L447.2,301.2z"/>
			</g>
		</g>
		<g>
			<g>
				<path class="st2" d="M461.8,301.5c0.8,0,1.5,0,2.3,0c1.6,0,1.6-2.5,0-2.5c-0.8,0-1.5,0-2.3,0C460.2,299,460.2,301.5,461.8,301.5
					L461.8,301.5z"/>
			</g>
		</g>
		<g>
			<g>
				<path class="st2" d="M475.5,302.2c1.6,0.1,3.3-0.1,4.9-0.4c1.6-0.3,0.9-2.7-0.7-2.4c-1.4,0.3-2.8,0.4-4.2,0.3
					C473.9,299.6,473.9,302.1,475.5,302.2L475.5,302.2z"/>
			</g>
		</g>
		<g>
			<g>
				<path class="st2" d="M487.2,301.5c2.7,0.1,5.4,0,8.1-0.3c1.6-0.2,1.6-2.7,0-2.5c-2.7,0.4-5.4,0.5-8.1,0.3
					C485.6,299,485.6,301.5,487.2,301.5L487.2,301.5z"/>
			</g>
		</g>
		<g>
			<g>
				<path class="st2" d="M505.1,300.1c1.7-0.2,3.5-0.4,5.2-0.6c1.6-0.2,1.6-2.7,0-2.5c-1.7,0.2-3.5,0.4-5.2,0.6
					C503.5,297.8,503.5,300.3,505.1,300.1L505.1,300.1z"/>
			</g>
		</g>
		<g>
			<g>
				<path class="st2" d="M519.4,298.7c1.6-0.4,3.2-0.7,4.9-1.1c1.6-0.4,0.9-2.8-0.7-2.4c-1.6,0.4-3.2,0.7-4.9,1.1
					C517.2,296.6,517.8,299,519.4,298.7L519.4,298.7z"/>
			</g>
		</g>
		<g>
			<g>
				<path class="st2" d="M530.8,296.4c2.3-0.2,4.4-0.8,6.5-1.8c1.4-0.7,0.2-2.9-1.3-2.2c-1.6,0.8-3.4,1.4-5.2,1.5
					C529.2,294,529.2,296.5,530.8,296.4L530.8,296.4z"/>
			</g>
		</g>
		<g>
			<g>
				<path class="st2" d="M546,289.2c-1.4,0.3-2.8,0.7-4.2,1c-1.6,0.4-0.9,2.8,0.7,2.4c1.4-0.3,2.8-0.7,4.2-1
					C548.3,291.3,547.6,288.9,546,289.2L546,289.2z"/>
			</g>
		</g>
		<g>
			<g>
				<path class="st2" d="M316.1,209.6c1.5,1.1,3,2.2,4.6,3.3c1.3,0.9,2.6-1.2,1.3-2.2c-1.5-1.1-3-2.2-4.6-3.3
					C316,206.5,314.8,208.7,316.1,209.6L316.1,209.6z"/>
			</g>
		</g>
		<g>
			<g>
				<path class="st2" d="M323.6,219.2c1.7,1.7,3.5,3.1,5.5,4.4c1.4,0.9,2.6-1.3,1.3-2.2c-1.8-1.1-3.5-2.5-5-4
					C324.2,216.3,322.5,218.1,323.6,219.2L323.6,219.2z"/>
			</g>
		</g>
		<g>
			<g>
				<path class="st2" d="M331,230.6c1.2,0.4,2.2,1.1,2.9,2.3c0.8,1.4,3,0.1,2.2-1.3c-1-1.7-2.5-2.9-4.4-3.4
					C330.1,227.8,329.4,230.2,331,230.6L331,230.6z"/>
			</g>
		</g>
		<g>
			<g>
				<path class="st2" d="M340.8,240.3c1.5,0.5,2.7,1.5,3.7,2.6c1,1.2,2.8-0.6,1.8-1.8c-1.3-1.5-2.9-2.6-4.8-3.3
					C339.9,237.3,339.3,239.8,340.8,240.3L340.8,240.3z"/>
			</g>
		</g>
		<g>
			<g>
				<path class="st2" d="M354.5,250.4c0.7,0.7,1.3,1.3,2,2c1.1,1.1,2.9-0.6,1.8-1.8c-0.7-0.7-1.3-1.3-2-2
					C355.1,247.5,353.4,249.3,354.5,250.4L354.5,250.4z"/>
			</g>
		</g>
		<g>
			<g>
				<path class="st2" d="M363.8,259.9c1.1,1.6,2.4,3,4,4.1c0.6,0.4,1.4,0.1,1.7-0.4c0.4-0.6,0.1-1.3-0.4-1.7c-1.2-0.9-2.3-2-3.1-3.2
					C365,257.3,362.9,258.6,363.8,259.9L363.8,259.9z"/>
			</g>
		</g>
		<g>
			<g>
				<path class="st2" d="M374.6,269.9c1.6,0.6,3.3,1.3,4.9,1.9c1.5,0.6,2.1-1.8,0.7-2.4c-1.6-0.6-3.3-1.3-4.9-1.9
					C373.8,266.9,373.1,269.4,374.6,269.9L374.6,269.9z"/>
			</g>
		</g>
		<g>
			<g>
				<path class="st2" d="M388,277.6c1.8,0.9,3.7,1.8,5.5,2.7c1.4,0.7,2.7-1.5,1.3-2.2c-1.8-0.9-3.7-1.8-5.5-2.7
					C387.8,274.8,386.5,276.9,388,277.6L388,277.6z"/>
			</g>
		</g>
		<g>
			<g>
				<path class="st2" d="M400.3,283.1c1.4,0.7,2.9,1.2,4.5,1.5c1.6,0.3,2.2-2.1,0.7-2.4c-1.4-0.2-2.7-0.6-3.9-1.3
					C400.2,280.2,398.9,282.4,400.3,283.1L400.3,283.1z"/>
			</g>
		</g>
		<g>
			<g>
				<path class="st2" d="M411.4,286.1c2.3,1.5,4.8,2.3,7.5,2.4c1.6,0.1,1.6-2.4,0-2.5c-2.3-0.1-4.3-0.8-6.2-2.1
					C411.3,283.1,410,285.2,411.4,286.1L411.4,286.1z"/>
			</g>
		</g>
		<g>
			<g>
				<path class="st2" d="M425,290.3c1.7,0.9,3.6,1.3,5.5,1.1c1.6-0.1,1.6-2.6,0-2.5c-1.5,0.1-2.9-0.1-4.3-0.8
					C424.9,287.4,423.6,289.6,425,290.3L425,290.3z"/>
			</g>
		</g>
		<g>
			<g>
				<path class="st2" d="M437.7,294.4c2.2,0,4.3,0,6.5,0c1.6,0,1.6-2.5,0-2.5c-2.2,0-4.3,0-6.5,0
					C436.1,291.9,436.1,294.4,437.7,294.4L437.7,294.4z"/>
			</g>
		</g>
		<g>
			<g>
				<path class="st2" d="M452,295.1c2.4-0.2,4.8-0.1,7.2,0.2c1.6,0.2,1.6-2.3,0-2.5c-2.4-0.3-4.8-0.4-7.2-0.2
					C450.4,292.7,450.4,295.2,452,295.1L452,295.1z"/>
			</g>
		</g>
		<g>
			<g>
				<path class="st2" d="M465.4,296c1.9-0.1,3.7-0.1,5.5,0.3c1.6,0.3,2.3-2.1,0.7-2.4c-2.1-0.3-4.1-0.5-6.2-0.3
					C463.8,293.6,463.8,296.1,465.4,296L465.4,296z"/>
			</g>
		</g>
		<g>
			<g>
				<path class="st2" d="M479.4,296.7c1.8,0,3.7,0,5.5,0c1.6,0,1.6-2.5,0-2.5c-1.8,0-3.7,0-5.5,0
					C477.8,294.2,477.8,296.7,479.4,296.7L479.4,296.7z"/>
			</g>
		</g>
		<g>
			<g>
				<path class="st2" d="M493.3,296.2c1.9-0.3,3.9-0.3,5.9-0.2c1.6,0.1,1.6-2.4,0-2.5c-2.2-0.2-4.3-0.1-6.5,0.3
					C491.1,294,491.8,296.4,493.3,296.2L493.3,296.2z"/>
			</g>
		</g>
		<g>
			<g>
				<path class="st2" d="M507.3,294.7c2.2-0.1,4.3-0.2,6.5-0.3c1.6-0.1,1.6-2.6,0-2.5c-2.2,0.1-4.3,0.2-6.5,0.3
					C505.7,292.3,505.7,294.8,507.3,294.7L507.3,294.7z"/>
			</g>
		</g>
		<g>
			<g>
				<path class="st2" d="M520.4,292.1c1.9,0.1,3.7-0.1,5.5-0.7c1.5-0.5,0.9-2.9-0.7-2.4c-1.6,0.5-3.2,0.7-4.9,0.6
					C518.8,289.5,518.8,292,520.4,292.1L520.4,292.1z"/>
			</g>
		</g>
		<g>
			<g>
				<path class="st2" d="M532.4,289.8c1.7,0,3.4-0.5,4.9-1.4c1.4-0.9,0.1-3-1.3-2.2c-1.1,0.7-2.3,1.1-3.6,1.1
					C530.8,287.3,530.8,289.8,532.4,289.8L532.4,289.8z"/>
			</g>
		</g>
		<g>
			<g>
				<path class="st2" d="M433.5,288.5c1.3,0.2,2.6,0.5,3.9,0.7c0.7,0.1,1.3-0.2,1.5-0.9c0.2-0.6-0.2-1.4-0.9-1.5
					c-1.3-0.2-2.6-0.5-3.9-0.7c-0.7-0.1-1.3,0.2-1.5,0.9C432.4,287.5,432.8,288.4,433.5,288.5L433.5,288.5z"/>
			</g>
		</g>
		<g>
			<g>
				<path class="st2" d="M443.9,289.2c2.7,0,5.4,0,8.1,0c1.6,0,1.6-2.5,0-2.5c-2.7,0-5.4,0-8.1,0
					C442.3,286.7,442.3,289.2,443.9,289.2L443.9,289.2z"/>
			</g>
		</g>
		<g>
			<g>
				<path class="st2" d="M459.2,290.1c1.5,0.1,3,0.2,4.6,0.4c1.6,0.1,1.6-2.4,0-2.5c-1.5-0.1-3-0.2-4.6-0.4
					C457.6,287.5,457.6,290,459.2,290.1L459.2,290.1z"/>
			</g>
		</g>
		<g>
			<g>
				<path class="st2" d="M471.9,290.2c1.4,0.1,2.8,0.2,4.2,0.4c1.6,0.1,1.6-2.4,0-2.5c-1.4-0.1-2.8-0.2-4.2-0.4
					C470.3,287.5,470.3,290,471.9,290.2L471.9,290.2z"/>
			</g>
		</g>
		<g>
			<g>
				<path class="st2" d="M483.9,291.8c2.4,0,4.8,0,7.2,0c1.6,0,1.6-2.5,0-2.5c-2.4,0-4.8,0-7.2,0
					C482.3,289.3,482.3,291.8,483.9,291.8L483.9,291.8z"/>
			</g>
		</g>
		<g>
			<g>
				<path class="st2" d="M499.2,291.1c1.7-0.5,3.5-1.1,5.2-1.6c1.5-0.5,0.9-2.9-0.7-2.4c-1.7,0.5-3.5,1.1-5.2,1.6
					C497,289.1,497.7,291.6,499.2,291.1L499.2,291.1z"/>
			</g>
		</g>
		<g>
			<g>
				<path class="st2" d="M510.9,288.4c1.5-0.3,3-0.6,4.6-0.9c1.6-0.3,0.9-2.7-0.7-2.4c-1.5,0.3-3,0.6-4.6,0.9
					C508.7,286.3,509.3,288.7,510.9,288.4L510.9,288.4z"/>
			</g>
		</g>
		<g>
			<g>
				<path class="st2" d="M524.9,286.1c2.2-0.2,4.4-0.5,6.5-0.7c1.6-0.2,1.6-2.7,0-2.5c-2.2,0.2-4.4,0.5-6.5,0.7
					C523.3,283.8,523.3,286.3,524.9,286.1L524.9,286.1z"/>
			</g>
		</g>
		<g>
			<g>
				<path class="st2" d="M539.6,284.6c2.2,0.2,4.4,0,6.5-0.7c1.5-0.5,0.9-2.9-0.7-2.4c-1.9,0.6-3.9,0.8-5.9,0.6
					C538,282,538,284.5,539.6,284.6L539.6,284.6z"/>
			</g>
		</g>
		<g>
			<g>
				<path class="st2" d="M462.1,285.3c2.1,0,4.1,0,6.2,0c1.6,0,1.6-2.5,0-2.5c-2.1,0-4.1,0-6.2,0
					C460.5,282.8,460.5,285.3,462.1,285.3L462.1,285.3z"/>
			</g>
		</g>
		<g>
			<g>
				<path class="st2" d="M478.4,285.8c2.1-0.3,4.1-0.4,6.2-0.2c1.6,0.1,1.6-2.4,0-2.5c-2.3-0.2-4.6,0-6.8,0.3
					C476.1,283.7,476.8,286.1,478.4,285.8L478.4,285.8z"/>
			</g>
		</g>
		<g>
			<g>
				<path class="st2" d="M491.1,285.9c2,0,3.9,0,5.9,0c1.6,0,1.6-2.5,0-2.5c-2,0-3.9,0-5.9,0C489.5,283.4,489.5,285.9,491.1,285.9
					L491.1,285.9z"/>
			</g>
		</g>
		<g>
			<g>
				<path class="st2" d="M503.4,283.6c2.2,0.1,4.3,0.1,6.5-0.2c1.6-0.2,1.6-2.7,0-2.5c-2.2,0.3-4.3,0.3-6.5,0.2
					C501.8,281,501.8,283.5,503.4,283.6L503.4,283.6z"/>
			</g>
		</g>
		<g>
			<g>
				<path class="st2" d="M517.4,281.4c2.4,0.1,4.8-0.2,7.2-1.1c1.5-0.5,0.9-3-0.7-2.4c-2.1,0.8-4.2,1.1-6.5,1
					C515.8,278.8,515.8,281.3,517.4,281.4L517.4,281.4z"/>
			</g>
		</g>
		<g>
			<g>
				<path class="st2" d="M532.4,280c1.4-0.2,2.8-0.4,4.2-0.6c0.7-0.1,1-0.9,0.9-1.5c-0.2-0.7-0.9-1-1.5-0.9
					c-1.4,0.2-2.8,0.4-4.2,0.6c-0.7,0.1-1,0.9-0.9,1.5C531,279.8,531.7,280.1,532.4,280L532.4,280z"/>
			</g>
		</g>
		<g>
			<g>
				<path class="st2" d="M542.2,277.5c1.7-0.1,3.3-0.5,4.9-1c1.5-0.5,0.9-3-0.7-2.4c-1.4,0.5-2.8,0.8-4.2,1
					C540.6,275.2,540.6,277.7,542.2,277.5L542.2,277.5z"/>
			</g>
		</g>
		<g>
			<g>
				<path class="st2" d="M476.1,279.4c0.7,0,1.3,0,2,0c1.6,0,1.6-2.5,0-2.5c-0.7,0-1.3,0-2,0C474.5,276.9,474.5,279.4,476.1,279.4
					L476.1,279.4z"/>
			</g>
		</g>
		<g>
			<g>
				<path class="st2" d="M484.9,279.3c1.6,0.8,3.2,1,4.9,0.7c0.7-0.1,1-0.9,0.9-1.5c-0.2-0.7-0.9-1-1.5-0.9c-1,0.2-2,0-2.9-0.5
					C484.7,276.4,483.5,278.5,484.9,279.3L484.9,279.3z"/>
			</g>
		</g>
		<g>
			<g>
				<path class="st2" d="M495,278.6c2,0.2,3.9,0.3,5.9,0.2c1.6-0.1,1.6-2.6,0-2.5c-2,0.1-3.9,0.1-5.9-0.2
					C493.4,275.9,493.4,278.4,495,278.6L495,278.6z"/>
			</g>
		</g>
		<g>
			<g>
				<path class="st2" d="M509.6,276.8c1.6,0,3.3,0,4.9,0c1.6,0,1.6-2.5,0-2.5c-1.6,0-3.3,0-4.9,0C508,274.3,508,276.8,509.6,276.8
					L509.6,276.8z"/>
			</g>
		</g>
		<g>
			<g>
				<path class="st2" d="M521,274.9c1.2,0,2.4,0,3.6,0c1.6,0,1.6-2.5,0-2.5c-1.2,0-2.4,0-3.6,0C519.4,272.4,519.4,274.9,521,274.9
					L521,274.9z"/>
			</g>
		</g>
		<g>
			<g>
				<path class="st2" d="M529.8,273.9c1.5,0.2,3.1,0.1,4.6-0.3c1.6-0.4,0.9-2.8-0.7-2.4c-1.3,0.3-2.6,0.4-3.9,0.2
					c-0.7-0.1-1.2,0.6-1.2,1.2C528.5,273.4,529.1,273.8,529.8,273.9L529.8,273.9z"/>
			</g>
		</g>
		<g>
			<g>
				<path class="st2" d="M540.8,273.1c0.7-0.3,1.5-0.4,2.3-0.2c0.7,0.1,1.3-0.2,1.5-0.9c0.2-0.6-0.2-1.4-0.9-1.5
					c-1.2-0.2-2.4-0.2-3.6,0.2C538.7,271.2,539.3,273.7,540.8,273.1L540.8,273.1z"/>
			</g>
		</g>
		<g>
			<g>
				<path class="st2" d="M487.5,273.2c1.2,0,2.4,0,3.6,0c1.6,0,1.6-2.5,0-2.5c-1.2,0-2.4,0-3.6,0
					C485.9,270.7,485.9,273.2,487.5,273.2L487.5,273.2z"/>
			</g>
		</g>
		<g>
			<g>
				<path class="st2" d="M418.8,122c2.1,0.6,4.3,0.9,6.5,0.9c1.6,0,1.6-2.5,0-2.5c-2,0-3.9-0.3-5.9-0.8
					C417.9,119.2,417.3,121.6,418.8,122L418.8,122z"/>
			</g>
		</g>
		<g>
			<g>
				<path class="st2" d="M430.3,123.7c1.9,1.1,4,1.8,6.1,2.2c1.6,0.3,2.2-2.1,0.7-2.4c-2-0.3-3.8-1-5.5-1.9
					C430.1,120.7,428.9,122.9,430.3,123.7L430.3,123.7z"/>
			</g>
		</g>
		<g>
			<g>
				<path class="st2" d="M445.2,128.5c1.8,0.7,3.5,1.4,5.3,2.2c1.5,0.6,2.1-1.8,0.7-2.4c-1.8-0.7-3.5-1.4-5.3-2.2
					C444.4,125.4,443.7,127.9,445.2,128.5L445.2,128.5z"/>
			</g>
		</g>
		<g>
			<g>
				<path class="st2" d="M459.2,134c2,0.7,3.9,1.5,5.9,2.2c1.5,0.6,2.2-1.8,0.7-2.4c-2-0.7-3.9-1.5-5.9-2.2
					C458.3,131,457.7,133.5,459.2,134L459.2,134z"/>
			</g>
		</g>
		<g>
			<g>
				<path class="st2" d="M470.6,139.3c1.1,0.6,2.2,1.2,3.3,1.9c1.4,0.8,2.7-1.4,1.3-2.2c-1.1-0.6-2.2-1.2-3.3-1.9
					C470.5,136.4,469.2,138.5,470.6,139.3L470.6,139.3z"/>
			</g>
		</g>
		<g>
			<g>
				<path class="st2" d="M480,147.3c1.4,0.5,2.4,1.5,3,2.8c0.7,1.4,2.9,0.2,2.2-1.3c-0.9-1.9-2.6-3.2-4.5-3.9
					C479.2,144.3,478.5,146.7,480,147.3L480,147.3z"/>
			</g>
		</g>
		<g>
			<g>
				<path class="st2" d="M491.1,155.2c0.6,2.1,2.1,3.7,4.2,4.4c0.6,0.2,1.4-0.3,1.5-0.9c0.2-0.7-0.2-1.3-0.9-1.5
					c-1.2-0.5-2.1-1.5-2.4-2.7C493.1,153,490.7,153.7,491.1,155.2L491.1,155.2z"/>
			</g>
		</g>
		<g>
			<g>
				<path class="st2" d="M500.1,167.5c0.9,1.2,1.7,2.4,2.6,3.6c0.4,0.5,1.1,0.8,1.7,0.4c0.5-0.3,0.8-1.2,0.4-1.7
					c-0.9-1.2-1.7-2.4-2.6-3.6c-0.4-0.5-1.1-0.8-1.7-0.4C500,166.1,499.7,167,500.1,167.5L500.1,167.5z"/>
			</g>
		</g>
		<g>
			<g>
				<path class="st2" d="M507.4,176.7c0.3,1.4,0.8,2.7,1.5,3.9c0.8,1.4,3,0.1,2.2-1.3c-0.6-1-1-2.1-1.2-3.3
					C509.5,174.4,507.1,175.1,507.4,176.7L507.4,176.7z"/>
			</g>
		</g>
		<g>
			<g>
				<path class="st2" d="M511.1,187.4c0.8,1.5,1.5,3,2.3,4.6c0.7,1.4,2.9,0.2,2.2-1.3c-0.8-1.5-1.5-3-2.3-4.6
					C512.6,184.7,510.4,186,511.1,187.4L511.1,187.4z"/>
			</g>
		</g>
		<g>
			<g>
				<path class="st2" d="M517.6,200.7c0.6,1.2,1.1,2.4,1.7,3.6c0.3,0.6,1.2,0.8,1.7,0.4c0.6-0.4,0.7-1.1,0.4-1.7
					c-0.6-1.2-1.1-2.4-1.7-3.6c-0.3-0.6-1.2-0.8-1.7-0.4C517.5,199.4,517.4,200.1,517.6,200.7L517.6,200.7z"/>
			</g>
		</g>
		<g>
			<g>
				<path class="st2" d="M522.2,211.5c0.4,0.8,0.8,1.5,1.3,2.3c0.8,1.4,2.9,0.1,2.2-1.3c-0.4-0.8-0.8-1.5-1.3-2.3
					C523.6,208.8,521.4,210,522.2,211.5L522.2,211.5z"/>
			</g>
		</g>
		<g>
			<g>
				<path class="st2" d="M527.7,220.6c1.1,1.6,2.6,2.9,4.3,3.7c1.4,0.7,2.7-1.5,1.3-2.2c-1.4-0.7-2.6-1.6-3.4-2.8
					C529,218,526.8,219.2,527.7,220.6L527.7,220.6z"/>
			</g>
		</g>
		<g>
			<g>
				<path class="st2" d="M537.3,226c1.8,0.8,3.7,1.5,5.5,2.3c1.5,0.6,2.1-1.8,0.7-2.4c-1.8-0.8-3.7-1.5-5.5-2.3
					C536.4,223,535.8,225.4,537.3,226L537.3,226z"/>
			</g>
		</g>
		<g>
			<g>
				<path class="st2" d="M515,208.2c0.8,1.6,1.5,3.2,2.3,4.9c0.7,1.5,2.8,0.2,2.2-1.3c-0.8-1.6-1.5-3.2-2.3-4.9
					C516.5,205.5,514.3,206.8,515,208.2L515,208.2z"/>
			</g>
		</g>
		<g>
			<g>
				<path class="st2" d="M519,218c1.2,2.3,2.9,4.2,5,5.7c1.3,0.9,2.6-1.2,1.3-2.2c-1.8-1.2-3.1-2.9-4.1-4.8
					C520.4,215.3,518.2,216.5,519,218L519,218z"/>
			</g>
		</g>
		<g>
			<g>
				<path class="st2" d="M529.6,229c1.7,1.7,4,2.7,6.4,2.6c1.6,0,1.6-2.5,0-2.5c-1.8,0-3.4-0.6-4.7-1.9
					C530.2,226,528.4,227.8,529.6,229L529.6,229z"/>
			</g>
		</g>
		<g>
			<g>
				<path class="st2" d="M540.9,233.5c0.7,0.1,1.3,0.2,2,0.3c0.7,0.1,1.3-0.2,1.5-0.9c0.2-0.6-0.2-1.4-0.9-1.5
					c-0.7-0.1-1.3-0.2-2-0.3c-0.7-0.1-1.3,0.2-1.5,0.9C539.8,232.5,540.2,233.4,540.9,233.5L540.9,233.5z"/>
			</g>
		</g>
		<g>
			<g>
				<path class="st2" d="M516.1,226.6c0.8,0.4,1.5,0.9,2.3,1.3c1.4,0.8,2.7-1.3,1.3-2.2c-0.8-0.4-1.5-0.9-2.3-1.3
					C516,223.6,514.7,225.8,516.1,226.6L516.1,226.6z"/>
			</g>
		</g>
		<g>
			<g>
				<path class="st2" d="M522.9,231.6c1.6,0.4,3.1,1,4.6,1.8c1.4,0.8,2.7-1.4,1.3-2.2c-1.6-0.9-3.4-1.6-5.2-2
					C522,228.8,521.4,231.2,522.9,231.6L522.9,231.6z"/>
			</g>
		</g>
		<g>
			<g>
				<path class="st2" d="M533.1,236.4c1.7,0.2,3.3,0.5,4.8,1.1c1.5,0.5,2.2-1.9,0.7-2.4c-1.8-0.6-3.6-1-5.5-1.2
					C531.5,233.8,531.5,236.3,533.1,236.4L533.1,236.4z"/>
			</g>
		</g>
		<g>
			<g>
				<path class="st2" d="M543.5,239.4c0.8,0,1.5,0,2.3,0c1.6,0,1.6-2.5,0-2.5c-0.8,0-1.5,0-2.3,0
					C541.9,236.9,541.8,239.4,543.5,239.4L543.5,239.4z"/>
			</g>
		</g>
		<g>
			<g>
				<path class="st2" d="M514.5,235c1.9,0.8,3.8,1.5,5.8,2.1c1.6,0.4,2.2-2,0.7-2.4c-1.8-0.5-3.5-1.1-5.2-1.8
					C514.3,232.2,513.1,234.4,514.5,235L514.5,235z"/>
			</g>
		</g>
		<g>
			<g>
				<path class="st2" d="M524.3,239.6c1.8,0.6,3.6,1.3,5.4,1.9c1.5,0.5,2.2-1.9,0.7-2.4c-1.8-0.6-3.6-1.3-5.4-1.9
					C523.4,236.6,522.8,239,524.3,239.6L524.3,239.6z"/>
			</g>
		</g>
		<g>
			<g>
				<path class="st2" d="M537.3,244c2-0.1,3.9-0.1,5.9,0.2c1.6,0.2,2.3-2.2,0.7-2.4c-2.2-0.3-4.3-0.5-6.5-0.3
					C535.7,241.6,535.7,244.1,537.3,244L537.3,244z"/>
			</g>
		</g>
		<g>
			<g>
				<path class="st2" d="M513.6,242.6c1.4,1.3,3.2,2.3,5.1,2.7c1.6,0.3,2.2-2.1,0.7-2.4c-1.5-0.3-2.9-0.9-4-2
					C514.2,239.7,512.5,241.5,513.6,242.6L513.6,242.6z"/>
			</g>
		</g>
		<g>
			<g>
				<path class="st2" d="M526.6,246.6c1.9,0.7,3.8,1.2,5.7,1.7c1.6,0.4,2.2-2.1,0.7-2.4c-2-0.4-3.9-1-5.7-1.7
					C525.8,243.7,525.1,246.1,526.6,246.6L526.6,246.6z"/>
			</g>
		</g>
		<g>
			<g>
				<path class="st2" d="M538.6,249.1c1.6,0.1,3.2,0.3,4.9,0.4c1.6,0.1,1.6-2.4,0-2.5c-1.6-0.1-3.2-0.3-4.9-0.4
					C537,246.5,537,249,538.6,249.1L538.6,249.1z"/>
			</g>
		</g>
		<g>
			<g>
				<path class="st2" d="M507.6,248.9c1,0.3,2,0.6,3,0.9c1.5,0.5,2.2-1.9,0.7-2.4c-1-0.3-2-0.6-3-0.9
					C506.8,246,506.1,248.4,507.6,248.9L507.6,248.9z"/>
			</g>
		</g>
		<g>
			<g>
				<path class="st2" d="M517.8,251.1c1.8,0.1,3.7,0.3,5.5,0.4c1.6,0.1,1.6-2.4,0-2.5c-1.8-0.1-3.7-0.3-5.5-0.4
					C516.2,248.5,516.2,251,517.8,251.1L517.8,251.1z"/>
			</g>
		</g>
		<g>
			<g>
				<path class="st2" d="M530.4,254.7c2.2,0,4.3,0,6.5,0c1.6,0,1.6-2.5,0-2.5c-2.2,0-4.3,0-6.5,0
					C528.8,252.2,528.8,254.7,530.4,254.7L530.4,254.7z"/>
			</g>
		</g>
		<g>
			<g>
				<path class="st2" d="M542.2,255c0.4,0,0.9,0,1.3,0c1.6,0,1.6-2.5,0-2.5c-0.4,0-0.9,0-1.3,0C540.6,252.5,540.5,255,542.2,255
					L542.2,255z"/>
			</g>
		</g>
		<g>
			<g>
				<path class="st2" d="M508.3,255c1.6,0.6,3.2,0.9,4.9,1c1.6,0.1,1.6-2.4,0-2.5c-1.5-0.1-2.9-0.4-4.2-0.9
					C507.4,252.1,506.8,254.5,508.3,255L508.3,255z"/>
			</g>
		</g>
		<g>
			<g>
				<path class="st2" d="M520,257.6c1.7,0.2,3.5,0.4,5.2,0.7c1.6,0.2,1.6-2.3,0-2.5c-1.7-0.2-3.5-0.4-5.2-0.7
					C518.4,254.9,518.5,257.4,520,257.6L520,257.6z"/>
			</g>
		</g>
		<g>
			<g>
				<path class="st2" d="M534.7,259c2,0.2,3.9,0.4,5.9,0.6c1.6,0.2,1.6-2.4,0-2.5c-2-0.2-3.9-0.4-5.9-0.6
					C533.1,256.4,533.1,258.9,534.7,259L534.7,259z"/>
			</g>
		</g>
		<g>
			<g>
				<path class="st2" d="M501.5,258.8c1.8,0.8,3.6,1,5.5,0.7c1.6-0.3,0.9-2.7-0.7-2.4c-1.2,0.2-2.5,0.1-3.6-0.4
					C501.3,256,500,258.2,501.5,258.8L501.5,258.8z"/>
			</g>
		</g>
		<g>
			<g>
				<path class="st2" d="M512.9,262.5c1.5,0.2,3,0.4,4.6,0.6c0.7,0.1,1.2-0.6,1.2-1.2c0-0.7-0.6-1.2-1.2-1.2c-1.5-0.2-3-0.4-4.6-0.6
					c-0.7-0.1-1.2,0.6-1.2,1.2C511.6,262,512.2,262.4,512.9,262.5L512.9,262.5z"/>
			</g>
		</g>
		<g>
			<g>
				<path class="st2" d="M527.2,263.8c2.2,0,4.3,0,6.5,0c1.6,0,1.6-2.5,0-2.5c-2.2,0-4.3,0-6.5,0
					C525.6,261.3,525.6,263.8,527.2,263.8L527.2,263.8z"/>
			</g>
		</g>
		<g>
			<g>
				<path class="st2" d="M541.5,265.8c0.7,0,1.3,0,2,0c1.6,0,1.6-2.5,0-2.5c-0.7,0-1.3,0-2,0C539.9,263.3,539.9,265.8,541.5,265.8
					L541.5,265.8z"/>
			</g>
		</g>
		<g>
			<g>
				<path class="st2" d="M496.6,264.8c1.1,0.2,2.2,0.4,3.3,0.6c0.7,0.1,1.3-0.2,1.5-0.9c0.2-0.6-0.2-1.4-0.9-1.5
					c-1.1-0.2-2.2-0.4-3.3-0.6c-0.7-0.1-1.3,0.2-1.5,0.9C495.6,263.9,495.9,264.7,496.6,264.8L496.6,264.8z"/>
			</g>
		</g>
		<g>
			<g>
				<path class="st2" d="M503.8,266.1c1.7,0.4,3.5,0.7,5.2,1.1c1.6,0.3,2.2-2.1,0.7-2.4c-1.7-0.4-3.5-0.7-5.2-1.1
					C502.9,263.3,502.2,265.7,503.8,266.1L503.8,266.1z"/>
			</g>
		</g>
		<g>
			<g>
				<path class="st2" d="M516.8,269c1.4,0,2.8,0,4.2,0c1.6,0,1.6-2.5,0-2.5c-1.4,0-2.8,0-4.2,0C515.2,266.5,515.2,269,516.8,269
					L516.8,269z"/>
			</g>
		</g>
		<g>
			<g>
				<path class="st2" d="M531.7,268.7c1.2,0.1,2.4,0.2,3.6,0.4c0.7,0.1,1.2-0.6,1.2-1.2c0-0.7-0.6-1.2-1.2-1.2
					c-1.2-0.1-2.4-0.2-3.6-0.4c-0.7-0.1-1.2,0.6-1.2,1.2C530.5,268.2,531.1,268.6,531.7,268.7L531.7,268.7z"/>
			</g>
		</g>
		<g>
			<g>
				<path class="st2" d="M496.3,271.1c1.5,0.1,3.1,0.3,4.6,0.4c1.6,0.1,1.6-2.4,0-2.5c-1.5-0.1-3.1-0.3-4.6-0.4
					C494.7,268.5,494.7,271,496.3,271.1L496.3,271.1z"/>
			</g>
		</g>
		<g>
			<g>
				<path class="st2" d="M507.7,271.9c0.7,0,1.3,0,2,0c1.6,0,1.6-2.5,0-2.5c-0.7,0-1.3,0-2,0C506.1,269.4,506.1,271.9,507.7,271.9
					L507.7,271.9z"/>
			</g>
		</g>
		<g>
			<g>
				<path class="st2" d="M356,138.3c-2.1,0.3-4.1,0.8-6.2,1.4c-1.5,0.4-0.9,2.9,0.7,2.4c2-0.6,4.1-1,6.2-1.4
					C358.3,140.4,357.6,138,356,138.3L356,138.3z"/>
			</g>
		</g>
		<g>
			<g>
				<path class="st2" d="M342.7,143.5c-2,0.5-3.9,1.1-5.9,1.6c-1.5,0.4-0.9,2.8,0.7,2.4c2-0.5,3.9-1.1,5.9-1.6
					C344.9,145.5,344.3,143.1,342.7,143.5L342.7,143.5z"/>
			</g>
		</g>
		<g>
			<g>
				<path class="st2" d="M330.7,151.2c-1,0.7-1.7,1.7-1.9,3c-0.1,0.7,0.2,1.3,0.9,1.5c0.6,0.2,1.4-0.2,1.5-0.9
					c0.1-0.6,0.4-1.2,0.8-1.5c0.5-0.4,0.8-1.1,0.4-1.7C332.1,151.1,331.3,150.8,330.7,151.2L330.7,151.2z"/>
			</g>
		</g>
		<g>
			<g>
				<path class="st2" d="M340.1,150.3c-2.2,0.8-4.2,2.2-5.7,4.1c-0.4,0.5-0.5,1.2,0,1.8c0.4,0.4,1.4,0.5,1.8,0
					c1.2-1.5,2.7-2.7,4.6-3.4C342.2,152.2,341.6,149.7,340.1,150.3L340.1,150.3z"/>
			</g>
		</g>
		<g>
			<g>
				<path class="st2" d="M347.3,149.5c1.6-0.4,3.1-0.9,4.6-1.6c1.4-0.7,0.2-2.9-1.3-2.2c-1.3,0.6-2.6,1.1-4,1.4
					C345,147.4,345.7,149.9,347.3,149.5L347.3,149.5z"/>
			</g>
		</g>
		<g>
			<g>
				<path class="st2" d="M360.3,144.1c1.2-0.1,2.4-0.3,3.6-0.4c0.7-0.1,1.2-0.5,1.2-1.2c0-0.6-0.6-1.3-1.2-1.2
					c-1.2,0.1-2.4,0.3-3.6,0.4c-0.7,0.1-1.2,0.5-1.2,1.2C359,143.5,359.6,144.2,360.3,144.1L360.3,144.1z"/>
			</g>
		</g>
		<g>
			<g>
				<path class="st2" d="M358.9,146.3c-1.3,0.4-2.5,0.8-3.8,1.2c-1.5,0.5-0.9,2.9,0.7,2.4c1.3-0.4,2.5-0.8,3.8-1.2
					C361.1,148.3,360.5,145.8,358.9,146.3L358.9,146.3z"/>
			</g>
		</g>
		<g>
			<g>
				<path class="st2" d="M347.9,152.3c-2.1-0.3-4.2,0.5-5.8,2c-1.2,1.1,0.6,2.9,1.8,1.8c1.1-1.1,2.5-1.4,4-1.2
					c0.7,0.1,1.2-0.6,1.2-1.2C349.2,152.8,348.6,152.4,347.9,152.3L347.9,152.3z"/>
			</g>
		</g>
		<g>
			<g>
				<path class="st2" d="M337.1,160.7c-1.7,0.7-3.2,1.7-4.4,3c-1.1,1.2,0.7,3,1.8,1.8c0.9-1,2-1.9,3.3-2.4c0.6-0.3,1.1-0.8,0.9-1.5
					C338.5,161,337.8,160.5,337.1,160.7L337.1,160.7z"/>
			</g>
		</g>
		<g>
			<g>
				<path class="st2" d="M321.6,202.7c0.3,1.4,1.1,2.5,2.2,3.3c0.5,0.4,1.4,0.1,1.7-0.4c0.4-0.6,0.1-1.3-0.4-1.7
					c-0.6-0.4-0.9-1.1-1.1-1.8c-0.1-0.7-0.9-1-1.5-0.9C321.8,201.4,321.5,202,321.6,202.7L321.6,202.7z"/>
			</g>
		</g>
		<g>
			<g>
				<path class="st2" d="M326.6,211.5c0.7,1.6,1.8,2.9,3.2,3.9c0.5,0.4,1.4,0.1,1.7-0.4c0.4-0.6,0.1-1.3-0.4-1.7
					c-1-0.8-1.8-1.8-2.3-3c-0.3-0.6-1.2-0.8-1.7-0.4C326.4,210.2,326.3,210.9,326.6,211.5L326.6,211.5z"/>
			</g>
		</g>
		<g>
			<g>
				<path class="st2" d="M332.8,222.5c1.2,1.6,2.7,2.9,4.4,4c1.4,0.9,2.6-1.3,1.3-2.2c-1.3-0.8-2.5-1.9-3.5-3.1
					c-0.4-0.5-1.1-0.8-1.7-0.4C332.8,221.1,332.4,222,332.8,222.5L332.8,222.5z"/>
			</g>
		</g>
		<g>
			<g>
				<path class="st2" d="M341.8,231.9c0.8,0.9,1.5,1.7,2.3,2.6c0.4,0.5,1.3,0.5,1.8,0c0.5-0.5,0.4-1.3,0-1.8
					c-0.8-0.9-1.5-1.7-2.3-2.6c-0.4-0.5-1.3-0.5-1.8,0C341.3,230.7,341.3,231.4,341.8,231.9L341.8,231.9z"/>
			</g>
		</g>
		<g>
			<g>
				<path class="st2" d="M349,239.7c1.1,0.9,2.2,1.7,3.3,2.6c0.5,0.4,1.3,0.5,1.8,0c0.4-0.4,0.5-1.3,0-1.8c-1.1-0.9-2.2-1.7-3.3-2.6
					c-0.5-0.4-1.3-0.5-1.8,0C348.5,238.4,348.5,239.3,349,239.7L349,239.7z"/>
			</g>
		</g>
		<g>
			<g>
				<path class="st2" d="M359.4,248.1c1.7,1.7,3.5,3.5,5.2,5.2c1.1,1.1,2.9-0.6,1.8-1.8c-1.7-1.7-3.5-3.5-5.2-5.2
					C360.1,245.2,358.3,247,359.4,248.1L359.4,248.1z"/>
			</g>
		</g>
		<g>
			<g>
				<path class="st2" d="M370.4,260.2c1,0.8,2,1.5,2.9,2.3c0.5,0.4,1.2,0.5,1.8,0c0.4-0.4,0.5-1.4,0-1.8c-1-0.8-2-1.5-2.9-2.3
					c-0.5-0.4-1.2-0.5-1.8,0C370,258.9,369.9,259.8,370.4,260.2L370.4,260.2z"/>
			</g>
		</g>
		<g>
			<g>
				<path class="st2" d="M354.3,238.1c0.8,1.3,1.9,2.4,3.3,3.1c0.6,0.3,1.3,0.2,1.7-0.4c0.3-0.5,0.2-1.4-0.4-1.7
					c-1-0.5-1.9-1.2-2.5-2.2C355.7,235.5,353.5,236.7,354.3,238.1L354.3,238.1z"/>
			</g>
		</g>
		<g>
			<g>
				<path class="st2" d="M348.3,230.9c0.2,0.2,0.4,0.4,0.7,0.7c1.1,1.1,2.9-0.6,1.8-1.8c-0.2-0.2-0.4-0.4-0.7-0.7
					C349,228,347.2,229.8,348.3,230.9L348.3,230.9z"/>
			</g>
		</g>
		<g>
			<g>
				<path class="st2" d="M339.6,222.7c1.1,1.1,2.2,2.2,3.2,3.3c1.1,1.1,2.9-0.6,1.8-1.8c-1.1-1.1-2.2-2.2-3.2-3.3
					C340.2,219.8,338.4,221.6,339.6,222.7L339.6,222.7z"/>
			</g>
		</g>
		<g>
			<g>
				<path class="st2" d="M333.4,212.4c0.9,0.7,1.6,1.6,2,2.7c0.2,0.6,0.8,1.1,1.5,0.9c0.6-0.2,1.1-0.9,0.9-1.5
					c-0.5-1.5-1.4-2.8-2.6-3.8c-0.5-0.4-1.3-0.5-1.8,0C332.9,211,332.8,211.9,333.4,212.4L333.4,212.4z"/>
			</g>
		</g>
		<g>
			<g>
				<path class="st2" d="M329.4,201.1c0.2,1.3,0.7,2.5,1.6,3.5c1.1,1.1,2.9-0.6,1.8-1.8c-0.5-0.5-0.8-1.1-0.9-1.7
					c-0.1-0.7-0.5-1.2-1.2-1.2C330.1,199.8,329.4,200.4,329.4,201.1L329.4,201.1z"/>
			</g>
		</g>
		<g>
			<g>
				<path class="st2" d="M340.2,163.3c-0.4,1.1-0.9,2.2-1.3,3.3c-0.3,0.6,0.3,1.4,0.9,1.5c0.7,0.2,1.3-0.2,1.5-0.9
					c0.4-1.1,0.9-2.2,1.3-3.3c0.3-0.6-0.3-1.4-0.9-1.5C341,162.3,340.5,162.7,340.2,163.3L340.2,163.3z"/>
			</g>
		</g>
		<g>
			<g>
				<path class="st2" d="M338.5,176.3c-0.1,1.9,0,3.7,0.3,5.5c0.3,1.6,2.7,0.9,2.4-0.7c-0.3-1.6-0.4-3.2-0.3-4.9
					C341.2,174.7,338.7,174.7,338.5,176.3L338.5,176.3z"/>
			</g>
		</g>
		<g>
			<g>
				<path class="st2" d="M339.8,191.6c0.3,1.6,0.8,3.1,1.5,4.5c0.7,1.4,2.9,0.2,2.2-1.3c-0.6-1.2-1-2.6-1.2-3.9
					C342,189.4,339.6,190.1,339.8,191.6L339.8,191.6z"/>
			</g>
		</g>
		<g>
			<g>
				<path class="st2" d="M342.2,205.9c0.2,1.2,0.8,2.3,1.6,3.2c1.1,1.2,2.9-0.6,1.8-1.8c-0.6-0.6-0.8-1.3-0.9-2.1
					c-0.1-0.7-0.9-1-1.5-0.9C342.3,204.6,342.1,205.3,342.2,205.9L342.2,205.9z"/>
			</g>
		</g>
		<g>
			<g>
				<path class="st2" d="M346.4,217.3c0.5,1.8,1.4,3.4,2.6,4.8c0.4,0.5,1.3,0.4,1.8,0c0.5-0.5,0.4-1.2,0-1.8
					c-0.9-1.1-1.5-2.4-1.9-3.7C348.3,215.1,345.9,215.8,346.4,217.3L346.4,217.3z"/>
			</g>
		</g>
		<g>
			<g>
				<path class="st2" d="M340.5,212.5c0,1.5,0.7,2.8,1.9,3.7c0.6,0.4,1.4,0.1,1.7-0.4c0.4-0.6,0.1-1.3-0.4-1.7
					c-0.5-0.3-0.7-0.9-0.7-1.5C343,210.8,340.5,210.8,340.5,212.5L340.5,212.5z"/>
			</g>
		</g>
		<g>
			<g>
				<path class="st2" d="M334.6,201.1c0.2,1.7,0.7,3.3,1.6,4.8c0.8,1.4,3,0.1,2.2-1.3c-0.7-1.1-1.1-2.3-1.2-3.6
					C336.9,199.5,334.4,199.5,334.6,201.1L334.6,201.1z"/>
			</g>
		</g>
		<g>
			<g>
				<path class="st2" d="M334.3,183.8c0,1.6,0,3.3,0,4.9c0,1.6,2.5,1.6,2.5,0c0-1.6,0-3.3,0-4.9
					C336.8,182.2,334.3,182.2,334.3,183.8L334.3,183.8z"/>
			</g>
		</g>
		<g>
			<g>
				<path class="st2" d="M334.1,170.5c-0.4,1.4-0.9,2.8-1.3,4.2c-0.5,1.5,1.9,2.2,2.4,0.7c0.4-1.4,0.9-2.8,1.3-4.2
					C337,169.6,334.5,169,334.1,170.5L334.1,170.5z"/>
			</g>
		</g>
		<g>
			<g>
				<path class="st2" d="M329,190.4c0.7,1.9,1.3,3.9,2,5.8c0.5,1.5,2.9,0.9,2.4-0.7c-0.7-1.9-1.3-3.9-2-5.8
					C330.9,188.2,328.5,188.8,329,190.4L329,190.4z"/>
			</g>
		</g>
		<g>
			<g>
				<path class="st2" d="M371.2,140.2c0.5-1.7,1.1-3.5,1.6-5.2c0.5-1.5-1.9-2.2-2.4-0.7c-0.5,1.7-1.1,3.5-1.6,5.2
					C368.3,141.1,370.7,141.7,371.2,140.2L371.2,140.2z"/>
			</g>
		</g>
		<g>
			<g>
				<path class="st2" d="M376.2,128.7c1.3-1.9,3-3.4,5-4.5c1.4-0.8,0.2-2.9-1.3-2.2c-2.4,1.3-4.4,3.1-5.9,5.4
					C373.1,128.8,375.3,130.1,376.2,128.7L376.2,128.7z"/>
			</g>
		</g>
		<g>
			<g>
				<path class="st2" d="M388.3,121.3c1.9-0.5,3.9-1,5.8-1.5c1.6-0.4,0.9-2.8-0.7-2.4c-1.9,0.5-3.9,1-5.8,1.5
					C386.1,119.3,386.7,121.7,388.3,121.3L388.3,121.3z"/>
			</g>
		</g>
		<g>
			<g>
				<path class="st2" d="M403.2,119.3c2.1,0.2,4.1,0.5,6.2,0.7c1.6,0.2,1.6-2.3,0-2.5c-2.1-0.2-4.1-0.5-6.2-0.7
					C401.6,116.6,401.7,119.1,403.2,119.3L403.2,119.3z"/>
			</g>
		</g>
		<g>
			<g>
				<path class="st2" d="M366.3,135c1-2.1,2.3-4,3.9-5.7c1.1-1.2-0.7-2.9-1.8-1.8c-1.8,1.8-3.2,3.9-4.3,6.2
					C363.4,135.2,365.6,136.5,366.3,135L366.3,135z"/>
			</g>
		</g>
		<g>
			<g>
				<path class="st2" d="M375.1,121.8c1.8-1.9,3.8-3.5,6.1-4.9c1.4-0.8,0.1-3-1.3-2.2c-2.4,1.5-4.6,3.2-6.6,5.2
					C372.2,121.2,373.9,123,375.1,121.8L375.1,121.8z"/>
			</g>
		</g>
		<g>
			<g>
				<path class="st2" d="M390.2,115.4c2.3-0.8,4.7-1.1,7.2-0.9c1.6,0.1,1.6-2.4,0-2.5c-2.7-0.2-5.3,0.1-7.8,1
					C388,113.5,388.7,115.9,390.2,115.4L390.2,115.4z"/>
			</g>
		</g>
		<g>
			<g>
				<path class="st2" d="M409.7,115.4c1.8,0.2,3.7,0.5,5.5,0.7c1.6,0.2,1.6-2.3,0-2.5c-1.8-0.2-3.7-0.5-5.5-0.7
					C408.1,112.7,408.2,115.2,409.7,115.4L409.7,115.4z"/>
			</g>
		</g>
		<g>
			<g>
				<path class="st2" d="M423.1,117.3c2.1,0.6,4.3,0.8,6.5,0.7c1.6-0.1,1.6-2.6,0-2.5c-2,0.1-3.9-0.1-5.8-0.6
					C422.2,114.5,421.5,116.9,423.1,117.3L423.1,117.3z"/>
			</g>
		</g>
		<g>
			<g>
				<path class="st2" d="M438,120.3c2.2,0.9,4.3,1.7,6.5,2.6c1.5,0.6,2.1-1.8,0.7-2.4c-2.2-0.9-4.3-1.7-6.5-2.6
					C437.2,117.3,436.6,119.7,438,120.3L438,120.3z"/>
			</g>
		</g>
		<g>
			<g>
				<path class="st2" d="M452.7,125.5c1.7,0.7,3.5,1.3,5.2,2c1.5,0.6,2.2-1.8,0.7-2.4c-1.7-0.7-3.5-1.3-5.2-2
					C451.8,122.5,451.2,124.9,452.7,125.5L452.7,125.5z"/>
			</g>
		</g>
		<g>
			<g>
				<path class="st2" d="M465.7,131.4c1.6,0,3.2,0.4,4.6,1c1.5,0.7,2.7-1.5,1.3-2.2c-1.9-0.8-3.8-1.3-5.9-1.4
					C464.1,128.9,464.1,131.4,465.7,131.4L465.7,131.4z"/>
			</g>
		</g>
		<g>
			<g>
				<path class="st2" d="M478,138.8c1.6,1.2,3.3,2.4,4.9,3.6c1.3,0.9,2.6-1.2,1.3-2.2c-1.6-1.2-3.3-2.4-4.9-3.6
					C478,135.7,476.7,137.8,478,138.8L478,138.8z"/>
			</g>
		</g>
		<g>
			<g>
				<path class="st2" d="M488.2,147c0.7,0.5,1.3,1.1,2,1.6c0.5,0.4,1.3,0.5,1.8,0c0.4-0.4,0.5-1.3,0-1.8c-0.7-0.5-1.3-1.1-2-1.6
					c-0.5-0.4-1.3-0.5-1.8,0C487.8,145.7,487.7,146.6,488.2,147L488.2,147z"/>
			</g>
		</g>
		<g>
			<g>
				<path class="st2" d="M499,157.4c1.2,0.9,2.1,2,2.7,3.3c0.7,1.4,2.9,0.2,2.2-1.3c-0.8-1.5-1.8-2.8-3.1-3.8
					c-0.5-0.4-1.3-0.5-1.8,0C498.6,156,498.5,156.9,499,157.4L499,157.4z"/>
			</g>
		</g>
		<g>
			<g>
				<path class="st2" d="M507.6,167.5c0.6,1.1,1.3,2.2,1.9,3.3c0.8,1.4,3,0.1,2.2-1.3c-0.6-1.1-1.3-2.2-1.9-3.3
					C508.9,164.9,506.8,166.1,507.6,167.5L507.6,167.5z"/>
			</g>
		</g>
		<g>
			<g>
				<path class="st2" d="M514.4,179.3c0.7,1.4,1.7,2.7,2.9,3.8c1.2,1.1,3-0.7,1.8-1.8c-1-1-1.8-2-2.5-3.3
					C515.8,176.6,513.6,177.8,514.4,179.3L514.4,179.3z"/>
			</g>
		</g>
		<g>
			<g>
				<path class="st2" d="M518,190.3c0.6,1.1,1.3,2.2,1.9,3.3c0.8,1.4,3,0.1,2.2-1.3c-0.6-1.1-1.3-2.2-1.9-3.3
					C519.3,187.7,517.1,188.9,518,190.3L518,190.3z"/>
			</g>
		</g>
		<g>
			<g>
				<path class="st2" d="M523.8,203c0.5,1.1,0.9,2.1,1.4,3.2c0.3,0.6,1.2,0.8,1.7,0.4c0.6-0.4,0.7-1.1,0.4-1.7
					c-0.5-1.1-0.9-2.1-1.4-3.2c-0.3-0.6-1.2-0.8-1.7-0.4C523.6,201.7,523.5,202.4,523.8,203L523.8,203z"/>
			</g>
		</g>
		<g>
			<g>
				<path class="st2" d="M529.6,212.3c1,0.8,1.9,1.5,2.9,2.3c0.5,0.4,1.3,0.5,1.8,0c0.4-0.4,0.5-1.3,0-1.8c-1-0.8-1.9-1.5-2.9-2.3
					c-0.5-0.4-1.3-0.5-1.8,0C529.1,211,529.1,211.9,529.6,212.3L529.6,212.3z"/>
			</g>
		</g>
		<g>
			<g>
				<path class="st2" d="M534.8,217.4c1.1,1.5,2.6,2.6,4.4,3.1c1.6,0.4,2.2-2,0.7-2.4c-1.1-0.3-2.2-0.9-2.9-1.9
					c-0.4-0.5-1.1-0.8-1.7-0.4C534.7,216,534.4,216.8,534.8,217.4L534.8,217.4z"/>
			</g>
		</g>
		<g>
			<g>
				<path class="st2" d="M544.4,221.8c1.6,0,1.6-2.5,0-2.5C542.8,219.3,542.8,221.8,544.4,221.8L544.4,221.8z"/>
			</g>
		</g>
		<g>
			<g>
				<path class="st2" d="M525.6,195.6c1,0.8,1.7,2,2,3.2c0.4,1.6,2.8,0.9,2.4-0.7c-0.5-1.9-1.6-3.5-3.2-4.7
					c-0.5-0.4-1.4-0.1-1.7,0.4C524.8,194.5,525.1,195.1,525.6,195.6L525.6,195.6z"/>
			</g>
		</g>
		<g>
			<g>
				<path class="st2" d="M532.2,205.9c0.8,0.8,1.5,1.5,2.3,2.3c1.1,1.1,2.9-0.6,1.8-1.8c-0.8-0.8-1.5-1.5-2.3-2.3
					C532.8,202.9,531,204.7,532.2,205.9L532.2,205.9z"/>
			</g>
		</g>
		<g>
			<g>
				<path class="st2" d="M539.5,214c0.7,0.3,1.3,0.6,2,0.9c0.6,0.3,1.3,0.2,1.7-0.4c0.3-0.5,0.2-1.4-0.4-1.7c-0.7-0.3-1.3-0.6-2-0.9
					c-0.6-0.3-1.3-0.2-1.7,0.4C538.8,212.8,538.9,213.7,539.5,214L539.5,214z"/>
			</g>
		</g>
		<g>
			<g>
				<path class="st2" d="M537.8,203.7c0.6,1.2,1.6,2.1,2.7,2.7c0.6,0.3,1.4,0.2,1.7-0.4c0.3-0.6,0.2-1.4-0.4-1.7
					c-0.8-0.4-1.4-1-1.8-1.8c-0.3-0.6-1.1-0.8-1.7-0.4C537.7,202.3,537.5,203.1,537.8,203.7L537.8,203.7z"/>
			</g>
		</g>
		<g>
			<g>
				<path class="st2" d="M531,195.8c0.8,1.5,2.1,2.5,3.7,3.2c0.6,0.3,1.4-0.3,1.5-0.9c0.2-0.7-0.2-1.3-0.9-1.5c-1-0.4-1.7-1.1-2.2-2
					C532.4,193.2,530.2,194.4,531,195.8L531,195.8z"/>
			</g>
		</g>
		<g>
			<g>
				<path class="st2" d="M522,184.4c1.1,1.3,2,2.7,2.7,4.3c0.6,1.5,2.8,0.2,2.2-1.3c-0.8-1.8-1.8-3.4-3.1-4.8
					C522.7,181.4,521,183.2,522,184.4L522,184.4z"/>
			</g>
		</g>
		<g>
			<g>
				<path class="st2" d="M516.2,172c0.9,0.7,1.8,1.5,2.7,2.2c0.5,0.4,1.3,0.5,1.8,0c0.4-0.4,0.5-1.3,0-1.8c-0.9-0.7-1.8-1.5-2.7-2.2
					c-0.5-0.4-1.3-0.5-1.8,0C515.8,170.7,515.7,171.6,516.2,172L516.2,172z"/>
			</g>
		</g>
		<g>
			<g>
				<path class="st2" d="M506.5,157.7c1.1,1.2,2.2,2.4,3.3,3.5c1.1,1.2,2.9-0.6,1.8-1.8c-1.1-1.2-2.2-2.4-3.3-3.5
					C507.1,154.8,505.4,156.5,506.5,157.7L506.5,157.7z"/>
			</g>
		</g>
		<g>
			<g>
				<path class="st2" d="M496.3,148.5c1.5,1.1,3,2.2,4.5,3.3c1.3,0.9,2.6-1.2,1.3-2.2c-1.5-1.1-3-2.2-4.5-3.3
					C496.2,145.4,495,147.6,496.3,148.5L496.3,148.5z"/>
			</g>
		</g>
		<g>
			<g>
				<path class="st2" d="M486.5,137.8c1.5,0.9,3.1,1.8,4.6,2.8c1.4,0.8,2.6-1.3,1.3-2.2c-1.5-0.9-3.1-1.8-4.6-2.8
					C486.4,134.8,485.1,136.9,486.5,137.8L486.5,137.8z"/>
			</g>
		</g>
		<g>
			<g>
				<path class="st2" d="M474.9,130.1c1.5,1.7,3.5,2.8,5.8,3.2c1.6,0.2,2.3-2.2,0.7-2.4c-1.9-0.3-3.4-1.1-4.7-2.5
					C475.6,127.1,473.8,128.9,474.9,130.1L474.9,130.1z"/>
			</g>
		</g>
		<g>
			<g>
				<path class="st2" d="M461.5,124.2c1.9,0.6,3.8,1.2,5.6,2c1.5,0.6,2.7-1.5,1.3-2.2c-2-0.9-4.1-1.6-6.2-2.2
					C460.6,121.3,459.9,123.7,461.5,124.2L461.5,124.2z"/>
			</g>
		</g>
		<g>
			<g>
				<path class="st2" d="M447.8,118c1.6,0.2,3.1,0.8,4.5,1.6c1.4,0.8,2.6-1.3,1.3-2.2c-1.8-1.1-3.7-1.7-5.8-1.9
					C446.2,115.3,446.2,117.8,447.8,118L447.8,118z"/>
			</g>
		</g>
		<g>
			<g>
				<path class="st2" d="M436.1,114.8c1.3-0.2,2.7,0.1,3.9,0.6c0.6,0.3,1.4-0.3,1.5-0.9c0.2-0.7-0.3-1.3-0.9-1.5
					c-1.7-0.7-3.4-0.8-5.2-0.6c-0.7,0.1-1,0.9-0.9,1.5C434.8,114.6,435.4,114.9,436.1,114.8L436.1,114.8z"/>
			</g>
		</g>
		<g>
			<g>
				<path class="st2" d="M367.7,123.9c1-1.8,2.1-3.4,3.5-4.9c1.1-1.2-0.7-2.9-1.8-1.8c-1.5,1.6-2.9,3.4-3.9,5.4
					C364.8,124,367,125.3,367.7,123.9L367.7,123.9z"/>
			</g>
		</g>
		<g>
			<g>
				<path class="st2" d="M380.1,112.2c1.9-1.6,4.1-2.6,6.6-3c1.6-0.3,0.9-2.7-0.7-2.4c-2.9,0.5-5.5,1.7-7.7,3.6
					C377.1,111.5,378.8,113.2,380.1,112.2L380.1,112.2z"/>
			</g>
		</g>
		<g>
			<g>
				<path class="st2" d="M395.7,109.3c1.8,0,3.7,0,5.5,0c1.6,0,1.6-2.5,0-2.5c-1.8,0-3.7,0-5.5,0
					C394.1,106.8,394.1,109.3,395.7,109.3L395.7,109.3z"/>
			</g>
		</g>
		<g>
			<g>
				<path class="st2" d="M370,113.3c2-1.4,3.9-2.8,5.9-4.2c1.3-0.9,0-3.1-1.3-2.2c-2,1.4-3.9,2.8-5.9,4.2
					C367.5,112.1,368.7,114.3,370,113.3L370,113.3z"/>
			</g>
		</g>
		<g>
			<g>
				<path class="st2" d="M384,104.1c2-0.2,3.9-0.3,5.9-0.5c1.6-0.1,1.6-2.6,0-2.5c-2,0.2-3.9,0.3-5.9,0.5
					C382.4,101.7,382.4,104.2,384,104.1L384,104.1z"/>
			</g>
		</g>
		<g>
			<g>
				<path class="st2" d="M374.8,102.7c1.6-1.8,3.1-3.7,4.4-5.8c0.9-1.3-1.3-2.6-2.2-1.3c-1.2,1.9-2.6,3.6-4,5.3
					C372,102.1,373.7,103.9,374.8,102.7L374.8,102.7z"/>
			</g>
		</g>
		<g>
			<g>
				<path class="st2" d="M383.6,91c1.3-1.4,2.7-2.8,4.2-3.9c0.5-0.4,0.4-1.3,0-1.8c-0.5-0.5-1.2-0.4-1.8,0c-1.5,1.2-2.9,2.5-4.2,3.9
					C380.8,90.4,382.6,92.2,383.6,91L383.6,91z"/>
			</g>
		</g>
		<g>
			<g>
				<path class="st2" d="M393.8,82c1.1-1.3,2.5-2.2,4.2-2.7c1.6-0.4,0.9-2.8-0.7-2.4c-2.1,0.5-3.9,1.7-5.3,3.3
					C391,81.5,392.8,83.3,393.8,82L393.8,82z"/>
			</g>
		</g>
		<g>
			<g>
				<path class="st2" d="M383.4,99.1c1.9-0.9,3.6-2.1,5-3.6c1.1-1.2-0.7-2.9-1.8-1.8c-1.3,1.4-2.8,2.4-4.5,3.2
					C380.7,97.7,382,99.8,383.4,99.1L383.4,99.1z"/>
			</g>
		</g>
		<g>
			<g>
				<path class="st2" d="M392.7,90.4c1.3-1,2.8-1.8,4.4-2.3c1.5-0.5,0.9-2.9-0.7-2.4c-1.8,0.6-3.4,1.5-5,2.6
					C390.2,89.2,391.4,91.4,392.7,90.4L392.7,90.4z"/>
			</g>
		</g>
		<g>
			<g>
				<path class="st2" d="M447.5,89.6c1.4,1,2.8,2,4.2,2.9c1.3,0.9,2.6-1.2,1.3-2.2c-1.4-1-2.8-2-4.2-2.9
					C447.4,86.5,446.2,88.6,447.5,89.6L447.5,89.6z"/>
			</g>
		</g>
		<g>
			<g>
				<path class="st2" d="M457.1,97.1c1.8,1.6,3.7,3.1,5.7,4.5c1.3,0.9,2.6-1.2,1.3-2.2c-1.8-1.3-3.5-2.7-5.2-4.1
					C457.6,94.3,455.8,96.1,457.1,97.1L457.1,97.1z"/>
			</g>
		</g>
		<g>
			<g>
				<path class="st2" d="M469,109.4c1.1,0.7,2.2,1.5,3.3,2.2c1.3,0.9,2.6-1.3,1.3-2.2c-1.1-0.7-2.2-1.5-3.3-2.2
					C468.9,106.3,467.7,108.5,469,109.4L469,109.4z"/>
			</g>
		</g>
		<g>
			<g>
				<path class="st2" d="M476.7,116.4c0.7,1.1,1.4,2.2,2.2,3.3c0.9,1.3,3,0.1,2.2-1.3c-0.7-1.1-1.4-2.2-2.2-3.3
					C478,113.8,475.9,115,476.7,116.4L476.7,116.4z"/>
			</g>
		</g>
		<g>
			<g>
				<path class="st2" d="M485.9,126.9c1.5,0.9,2.8,1.9,3.9,3.1c1.1,1.2,2.9-0.6,1.8-1.8c-1.3-1.4-2.8-2.5-4.4-3.5
					C485.8,123.9,484.6,126.1,485.9,126.9L485.9,126.9z"/>
			</g>
		</g>
		<g>
			<g>
				<path class="st2" d="M494.7,135.6c1.4,1.7,3,3.2,4.8,4.4c1.3,0.9,2.6-1.3,1.3-2.2c-1.6-1.1-3.1-2.5-4.3-4
					c-0.4-0.5-1.3-0.4-1.8,0C494.2,134.3,494.3,135.1,494.7,135.6L494.7,135.6z"/>
			</g>
		</g>
		<g>
			<g>
				<path class="st2" d="M503.3,145.4c0.8,1.4,1.7,2.7,2.9,3.7c1.2,1.1,2.9-0.7,1.8-1.8c-1-1-1.8-2-2.5-3.2
					C504.7,142.8,502.5,144,503.3,145.4L503.3,145.4z"/>
			</g>
		</g>
		<g>
			<g>
				<path class="st2" d="M512.6,155.9c1.1,0.6,2.1,1.4,2.8,2.5c0.4,0.5,1.1,0.8,1.7,0.4c0.5-0.3,0.8-1.2,0.4-1.7
					c-1-1.4-2.2-2.5-3.7-3.4C512.4,153,511.2,155.2,512.6,155.9L512.6,155.9z"/>
			</g>
		</g>
		<g>
			<g>
				<path class="st2" d="M521,162.7c0.8,2.4,2.4,4.3,4.6,5.5c1.4,0.8,2.7-1.4,1.3-2.2c-1.6-0.9-2.9-2.3-3.5-4
					C522.9,160.5,520.4,161.2,521,162.7L521,162.7z"/>
			</g>
		</g>
		<g>
			<g>
				<path class="st2" d="M529,173.1c1,1.7,2.4,3,4.1,3.9c1.4,0.7,2.7-1.4,1.3-2.2c-1.4-0.7-2.5-1.7-3.2-3
					C530.3,170.5,528.2,171.7,529,173.1L529,173.1z"/>
			</g>
		</g>
		<g>
			<g>
				<path class="st2" d="M538,183.1c1.5,1.2,3.1,2.2,4.8,3.1c1.4,0.8,2.7-1.4,1.3-2.2c-1.5-0.8-2.9-1.7-4.3-2.8
					c-0.5-0.4-1.2-0.5-1.8,0C537.6,181.7,537.5,182.6,538,183.1L538,183.1z"/>
			</g>
		</g>
		<g>
			<g>
				<path class="st2" d="M540.4,190.9c0.8,1,1.8,1.6,3,1.6c1.6,0,1.6-2.5,0-2.5c-0.3,0-0.7-0.1-0.9-0.4c-0.4-0.5-1.1-0.8-1.7-0.4
					C540.4,189.5,540,190.4,540.4,190.9L540.4,190.9z"/>
			</g>
		</g>
		<g>
			<g>
				<path class="st2" d="M530,181.5c0.9,1.5,2,2.7,3.4,3.7c0.5,0.4,1.4,0.1,1.7-0.4c0.4-0.6,0.1-1.3-0.4-1.7c-1-0.8-1.8-1.7-2.5-2.8
					C531.4,178.9,529.2,180.1,530,181.5L530,181.5z"/>
			</g>
		</g>
		<g>
			<g>
				<path class="st2" d="M522.7,175c0.8,0.9,1.5,1.7,2.3,2.6c0.5,0.5,1.3,0.5,1.8,0c0.5-0.5,0.5-1.3,0-1.8c-0.8-0.9-1.5-1.7-2.3-2.6
					c-0.5-0.5-1.3-0.5-1.8,0C522.2,173.7,522.2,174.5,522.7,175L522.7,175z"/>
			</g>
		</g>
		<g>
			<g>
				<path class="st2" d="M514.8,164.9c0.8,1.2,1.8,2.2,3,3.1c0.5,0.4,1.4,0.1,1.7-0.4c0.4-0.6,0.1-1.3-0.4-1.7
					c-0.8-0.6-1.5-1.3-2.1-2.2c-0.4-0.6-1.1-0.8-1.7-0.4C514.6,163.5,514.4,164.3,514.8,164.9L514.8,164.9z"/>
			</g>
		</g>
		<g>
			<g>
				<path class="st2" d="M531.8,191c1.2,0.9,2.4,1.7,3.6,2.6c0.5,0.4,1.4,0.1,1.7-0.4c0.4-0.6,0.1-1.3-0.4-1.7
					c-1.2-0.9-2.4-1.7-3.6-2.6c-0.5-0.4-1.4-0.1-1.7,0.4C531,190,531.2,190.6,531.8,191L531.8,191z"/>
			</g>
		</g>
		<g>
			<g>
				<path class="st2" d="M540.9,198.4c0.7,0.5,1.3,1.1,2,1.6c0.5,0.4,1.3,0.5,1.8,0c0.4-0.4,0.5-1.3,0-1.8c-0.7-0.5-1.3-1.1-2-1.6
					c-0.5-0.4-1.3-0.5-1.8,0C540.5,197.1,540.4,197.9,540.9,198.4L540.9,198.4z"/>
			</g>
		</g>
		<g>
			<g>
				<path class="st2" d="M448.5,96.7c1.1,0.5,2.1,1.2,3,2.1c1.1,1.1,2.9-0.6,1.8-1.8c-1-1-2.2-1.9-3.5-2.5c-0.6-0.3-1.4-0.2-1.7,0.4
					C447.7,95.5,447.9,96.4,448.5,96.7L448.5,96.7z"/>
			</g>
		</g>
		<g>
			<g>
				<path class="st2" d="M459.5,106.9c0.9,0.3,1.7,0.9,2.4,1.6c1.1,1.2,2.9-0.6,1.8-1.8c-1-1-2.2-1.8-3.5-2.3
					c-0.6-0.2-1.4,0.3-1.5,0.9C458.4,106.1,458.9,106.7,459.5,106.9L459.5,106.9z"/>
			</g>
		</g>
		<g>
			<g>
				<path class="st2" d="M466.5,115c1.1,1.2,2.3,2.5,3.4,3.7c1.1,1.2,2.9-0.6,1.8-1.8c-1.1-1.2-2.3-2.5-3.4-3.7
					C467.2,112.1,465.4,113.9,466.5,115L466.5,115z"/>
			</g>
		</g>
		<g>
			<g>
				<path class="st2" d="M475.1,124.4c0.8,0.5,1.5,1.1,2.3,1.6c0.6,0.4,1.4,0.1,1.7-0.4c0.4-0.6,0.1-1.3-0.4-1.7
					c-0.8-0.5-1.5-1.1-2.3-1.6c-0.6-0.4-1.4-0.1-1.7,0.4C474.3,123.3,474.6,124,475.1,124.4L475.1,124.4z"/>
			</g>
		</g>
		<g>
			<g>
				<path class="st2" d="M456.9,116.6c1.5,0.8,3,1.5,4.6,2.3c1.4,0.7,2.7-1.4,1.3-2.2c-1.5-0.8-3-1.5-4.6-2.3
					C456.7,113.7,455.5,115.9,456.9,116.6L456.9,116.6z"/>
			</g>
		</g>
		<g>
			<g>
				<path class="st2" d="M452.4,107.8c1.8,0.9,3.3,2.2,4.6,3.8c1,1.3,2.8-0.5,1.8-1.8c-1.4-1.7-3.1-3.2-5.1-4.1
					C452.2,104.9,450.9,107,452.4,107.8L452.4,107.8z"/>
			</g>
		</g>
		<g>
			<g>
				<path class="st2" d="M444.9,102.6c1.4,0.8,2.8,1.5,4.2,2.3c1.4,0.8,2.7-1.4,1.3-2.2c-1.4-0.8-2.8-1.5-4.2-2.3
					C444.7,99.7,443.5,101.8,444.9,102.6L444.9,102.6z"/>
			</g>
		</g>
		<g>
			<g>
				<path class="st2" d="M445.9,110.7c1.2,0.7,2.4,1.4,3.6,2.2c1.4,0.8,2.6-1.3,1.3-2.2c-1.2-0.7-2.4-1.4-3.6-2.2
					C445.7,107.8,444.5,109.9,445.9,110.7L445.9,110.7z"/>
			</g>
		</g>
		<g>
			<g>
				<path class="st2" d="M529.8,61.2c-1.2,1.3-2.3,2.6-3.5,4c-1.1,1.2,0.7,3,1.8,1.8c1.2-1.3,2.3-2.6,3.5-4
					C532.6,61.8,530.9,60,529.8,61.2L529.8,61.2z"/>
			</g>
		</g>
		<g>
			<g>
				<path class="st2" d="M522.1,72.2c-0.4,1.8-0.9,3.7-1.3,5.5c-0.4,1.6,2,2.2,2.4,0.7c0.4-1.8,0.9-3.7,1.3-5.5
					C524.9,71.3,522.5,70.6,522.1,72.2L522.1,72.2z"/>
			</g>
		</g>
		<g>
			<g>
				<path class="st2" d="M519.4,87.8c0,1.4,0.2,2.9,0.7,4.2c0.5,1.5,2.9,0.9,2.4-0.7c-0.4-1.2-0.6-2.3-0.6-3.6
					C521.9,86.2,519.4,86.2,519.4,87.8L519.4,87.8z"/>
			</g>
		</g>
		<g>
			<g>
				<path class="st2" d="M519.3,100.2c0.6,2.5,1.2,5,1.8,7.5c0.4,1.6,2.8,0.9,2.4-0.7c-0.6-2.5-1.2-5-1.8-7.5
					C521.3,98,518.9,98.6,519.3,100.2L519.3,100.2z"/>
			</g>
		</g>
		<g>
			<g>
				<path class="st2" d="M522.1,115.8c-0.2,2-0.1,3.9,0.2,5.9c0.2,1.6,2.6,0.9,2.4-0.7c-0.3-1.7-0.3-3.5-0.1-5.2
					C524.7,114.2,522.2,114.2,522.1,115.8L522.1,115.8z"/>
			</g>
		</g>
		<g>
			<g>
				<path class="st2" d="M524.3,131.5c0.8,1.9,1.7,3.7,2.8,5.5c0.9,1.4,3,0.1,2.2-1.3c-1-1.5-1.9-3.2-2.6-4.9
					C526.1,129.3,523.7,130,524.3,131.5L524.3,131.5z"/>
			</g>
		</g>
		<g>
			<g>
				<path class="st2" d="M530.2,146.4c0.4,1.4,1.1,2.6,2,3.8c0.4,0.5,1.3,0.4,1.8,0c0.5-0.5,0.4-1.2,0-1.8c-0.6-0.8-1.1-1.7-1.3-2.7
					C532.1,144.2,529.7,144.9,530.2,146.4L530.2,146.4z"/>
			</g>
		</g>
		<g>
			<g>
				<path class="st2" d="M535.6,157.5c0.5,1.6,1.2,3.1,2.2,4.5c0.4,0.5,1.1,0.8,1.7,0.4c0.5-0.3,0.9-1.2,0.4-1.7
					c-0.9-1.2-1.6-2.4-2-3.9C537.6,155.3,535.2,156,535.6,157.5L535.6,157.5z"/>
			</g>
		</g>
		<g>
			<g>
				<path class="st2" d="M541.1,168.2c0.8,1.2,1.6,2.3,2.4,3.5c0.9,1.3,3.1,0.1,2.2-1.3c-0.8-1.2-1.6-2.3-2.4-3.5
					C542.4,165.6,540.2,166.8,541.1,168.2L541.1,168.2z"/>
			</g>
		</g>
		<g>
			<g>
				<path class="st2" d="M528.7,69.9c-1.3,1.8-2.4,3.8-3.3,5.9c-0.6,1.5,1.8,2.1,2.4,0.7c0.8-1.9,1.8-3.6,3-5.3
					C531.8,69.9,529.6,68.7,528.7,69.9L528.7,69.9z"/>
			</g>
		</g>
		<g>
			<g>
				<path class="st2" d="M526.3,82.6c0,1.4,0,2.8,0,4.2c0,1.6,2.5,1.6,2.5,0c0-1.4,0-2.8,0-4.2C528.8,81,526.3,81,526.3,82.6
					L526.3,82.6z"/>
			</g>
		</g>
		<g>
			<g>
				<path class="st2" d="M525.6,94c0,1.6,0,3.3,0,4.9c0,1.6,2.5,1.6,2.5,0c0-1.6,0-3.3,0-4.9C528.1,92.4,525.6,92.4,525.6,94
					L525.6,94z"/>
			</g>
		</g>
		<g>
			<g>
				<path class="st2" d="M526.6,107.7c-0.2,2.1,0,4.1,0.3,6.2c0.3,1.6,2.7,0.9,2.4-0.7c-0.3-1.8-0.3-3.7-0.2-5.5
					C529.2,106.1,526.7,106.1,526.6,107.7L526.6,107.7z"/>
			</g>
		</g>
		<g>
			<g>
				<path class="st2" d="M527,121.3c0.3,1.5,0.6,3,0.9,4.6c0.3,1.6,2.7,0.9,2.4-0.7c-0.3-1.5-0.6-3-0.9-4.6
					C529.1,119.1,526.7,119.8,527,121.3L527,121.3z"/>
			</g>
		</g>
		<g>
			<g>
				<path class="st2" d="M532.1,134.7c0.1,2,0.8,3.8,2,5.4c0.4,0.5,1.3,0.4,1.8,0c0.5-0.5,0.4-1.2,0-1.8c-0.8-1-1.2-2.3-1.3-3.7
					C534.5,133.1,532,133.1,532.1,134.7L532.1,134.7z"/>
			</g>
		</g>
		<g>
			<g>
				<path class="st2" d="M537,147.1c-0.1,1.8,0.6,3.4,1.7,4.8c0.4,0.5,1.3,0.4,1.8,0c0.5-0.5,0.4-1.2,0-1.8c-0.7-0.9-1-1.9-0.9-3
					C539.6,145.4,537.1,145.4,537,147.1L537,147.1z"/>
			</g>
		</g>
		<g>
			<g>
				<path class="st2" d="M542.7,157.5c0.2,0.4,0.4,0.9,0.7,1.3c0.3,0.6,1.2,0.8,1.7,0.4c0.6-0.4,0.8-1.1,0.4-1.7
					c-0.2-0.4-0.4-0.9-0.7-1.3c-0.3-0.6-1.2-0.8-1.7-0.4C542.5,156.1,542.4,156.8,542.7,157.5L542.7,157.5z"/>
			</g>
		</g>
		<g>
			<g>
				<path class="st2" d="M530.5,78.7c0,1.4,0,2.8,0,4.2c0,1.6,2.5,1.6,2.5,0c0-1.4,0-2.8,0-4.2C533,77.1,530.5,77.1,530.5,78.7
					L530.5,78.7z"/>
			</g>
		</g>
		<g>
			<g>
				<path class="st2" d="M529.8,91.4c0,1.1,0,2.2,0,3.3c0,1.6,2.5,1.6,2.5,0c0-1.1,0-2.2,0-3.3C532.3,89.8,529.8,89.8,529.8,91.4
					L529.8,91.4z"/>
			</g>
		</g>
		<g>
			<g>
				<path class="st2" d="M530.8,102.2c0,1.6,0,3.3,0,4.9c0,1.6,2.5,1.6,2.5,0c0-1.6,0-3.3,0-4.9
					C533.3,100.5,530.8,100.5,530.8,102.2L530.8,102.2z"/>
			</g>
		</g>
		<g>
			<g>
				<path class="st2" d="M531.2,115.2c0.3,1.4,0.7,2.8,1,4.2c0.4,1.6,2.8,0.9,2.4-0.7c-0.3-1.4-0.7-2.8-1-4.2
					C533.2,113,530.8,113.6,531.2,115.2L531.2,115.2z"/>
			</g>
		</g>
		<g>
			<g>
				<path class="st2" d="M534.1,127.9c0.3,1.1,0.6,2.2,0.9,3.3c0.4,1.5,2.8,0.9,2.4-0.7c-0.3-1.1-0.6-2.2-0.9-3.3
					C536.1,125.6,533.7,126.3,534.1,127.9L534.1,127.9z"/>
			</g>
		</g>
		<g>
			<g>
				<path class="st2" d="M539.1,138.6c0.8,1.2,1.5,2.4,2.3,3.6c0.9,1.4,3,0.1,2.2-1.3c-0.8-1.2-1.5-2.4-2.3-3.6
					C540.4,136,538.2,137.2,539.1,138.6L539.1,138.6z"/>
			</g>
		</g>
		<g>
			<g>
				<path class="st2" d="M518.6,66.7c-0.4,0.9-0.9,1.7-1.3,2.6c-0.3,0.6-0.2,1.4,0.4,1.7c0.6,0.3,1.4,0.2,1.7-0.4
					c0.4-0.9,0.9-1.7,1.3-2.6c0.3-0.6,0.2-1.4-0.4-1.7C519.8,65.9,518.9,66.1,518.6,66.7L518.6,66.7z"/>
			</g>
		</g>
		<g>
			<g>
				<path class="st2" d="M513.3,79.4c-0.1,1.7-0.2,3.5-0.4,5.2c-0.1,1.6,2.4,1.6,2.5,0c0.1-1.7,0.2-3.5,0.4-5.2
					C515.9,77.8,513.4,77.8,513.3,79.4L513.3,79.4z"/>
			</g>
		</g>
		<g>
			<g>
				<path class="st2" d="M513.6,93c0,1.7,0,3.5,0,5.2c0,1.6,2.5,1.6,2.5,0c0-1.7,0-3.5,0-5.2C516.1,91.4,513.6,91.4,513.6,93
					L513.6,93z"/>
			</g>
		</g>
		<g>
			<g>
				<path class="st2" d="M514.6,109.3c0.1,1.3,0.2,2.6,0.4,3.9c0.1,0.7,0.5,1.2,1.2,1.2c0.6,0,1.3-0.6,1.2-1.2
					c-0.1-1.3-0.2-2.6-0.4-3.9c-0.1-0.7-0.5-1.2-1.2-1.2C515.2,108.1,514.5,108.6,514.6,109.3L514.6,109.3z"/>
			</g>
		</g>
		<g>
			<g>
				<path class="st2" d="M517.1,124.3c0.7,2,1.4,4.1,2.1,6.1c0.5,1.5,2.9,0.9,2.4-0.7c-0.7-2-1.4-4.1-2.1-6.1
					C519,122.1,516.6,122.8,517.1,124.3L517.1,124.3z"/>
			</g>
		</g>
		<g>
			<g>
				<path class="st2" d="M521.7,140.9c0.4,2.1,1.4,4,2.7,5.7c1,1.3,2.8-0.5,1.8-1.8c-1.1-1.4-1.7-2.9-2.1-4.6
					C523.8,138.7,521.4,139.3,521.7,140.9L521.7,140.9z"/>
			</g>
		</g>
		<g>
			<g>
				<path class="st2" d="M526.7,153.6c0.5,2.1,1.3,4,2.4,5.8c0.8,1.4,3,0.1,2.2-1.3c-1-1.6-1.7-3.4-2.1-5.2
					C528.7,151.3,526.3,152,526.7,153.6L526.7,153.6z"/>
			</g>
		</g>
		<g>
			<g>
				<path class="st2" d="M533.4,168.3c1,0.5,1.8,1.2,2.5,2.2c0.9,1.3,3,0.1,2.2-1.3c-0.8-1.3-2-2.4-3.4-3.1
					c-0.6-0.3-1.4-0.2-1.7,0.4C532.6,167.1,532.8,168,533.4,168.3L533.4,168.3z"/>
			</g>
		</g>
		<g>
			<g>
				<path class="st2" d="M541.3,176.5c0.7,0.5,1.3,1.1,2,1.6c0.5,0.4,1.3,0.5,1.8,0c0.4-0.4,0.5-1.3,0-1.8c-0.7-0.5-1.3-1.1-2-1.6
					c-0.5-0.4-1.3-0.5-1.8,0C540.8,175.2,540.8,176.1,541.3,176.5L541.3,176.5z"/>
			</g>
		</g>
		<g>
			<g>
				<path class="st2" d="M511.3,71.2c0,1.1-0.2,2.2-0.6,3.2c-0.3,0.6,0.3,1.4,0.9,1.5c0.7,0.2,1.3-0.2,1.5-0.9
					c0.5-1.2,0.7-2.6,0.7-3.9C513.8,69.6,511.3,69.6,511.3,71.2L511.3,71.2z"/>
			</g>
		</g>
		<g>
			<g>
				<path class="st2" d="M508.6,86.5c-0.4,2.1-0.8,4.1-1.3,6.2c-0.3,1.6,2.1,2.2,2.4,0.7c0.4-2.1,0.8-4.1,1.3-6.2
					C511.4,85.6,509,84.9,508.6,86.5L508.6,86.5z"/>
			</g>
		</g>
		<g>
			<g>
				<path class="st2" d="M508,101.8c0,1.6,0,3.3,0,4.9c0,1.6,2.5,1.6,2.5,0c0-1.6,0-3.3,0-4.9C510.5,100.2,508,100.2,508,101.8
					L508,101.8z"/>
			</g>
		</g>
		<g>
			<g>
				<path class="st2" d="M511,115.5c0,2.3,0,4.6,0,6.8c0,1.6,2.5,1.6,2.5,0c0-2.3,0-4.6,0-6.8C513.5,113.9,511,113.9,511,115.5
					L511,115.5z"/>
			</g>
		</g>
		<g>
			<g>
				<path class="st2" d="M513.7,132.7c0.5,1.7,1,3.5,1.5,5.2c0.4,1.5,2.9,0.9,2.4-0.7c-0.5-1.7-1-3.5-1.5-5.2
					C515.6,130.5,513.2,131.2,513.7,132.7L513.7,132.7z"/>
			</g>
		</g>
		<g>
			<g>
				<path class="st2" d="M517.8,146.4c0.3,1.9,1.4,3.5,3,4.6c0.5,0.4,1.4,0.1,1.7-0.4c0.4-0.6,0.1-1.3-0.4-1.7
					c-1-0.8-1.6-1.9-1.8-3.1c-0.1-0.7-0.9-1-1.5-0.9C517.9,145.1,517.6,145.8,517.8,146.4L517.8,146.4z"/>
			</g>
		</g>
		<g>
			<g>
				<path class="st2" d="M238,177.9c2.2,2.2,4.5,4.1,7.1,5.7c1.4,0.9,2.6-1.3,1.3-2.2c-2.4-1.5-4.6-3.3-6.6-5.3
					C238.7,175,236.9,176.7,238,177.9L238,177.9z"/>
			</g>
		</g>
		<g>
			<g>
				<path class="st2" d="M247.8,191.2c1.2,1.3,2.4,2.6,3.7,3.8c1.1,1.2,2.9-0.6,1.8-1.8c-1.2-1.3-2.4-2.6-3.7-3.8
					C248.4,188.3,246.7,190.1,247.8,191.2L247.8,191.2z"/>
			</g>
		</g>
		<g>
			<g>
				<path class="st2" d="M256.3,202.2c1.4,1.1,2.8,2.2,4.1,3.4c0.5,0.4,1.2,0.5,1.8,0c0.4-0.4,0.5-1.3,0-1.8
					c-1.4-1.1-2.8-2.2-4.1-3.4c-0.5-0.4-1.2-0.5-1.8,0C255.8,200.9,255.8,201.8,256.3,202.2L256.3,202.2z"/>
			</g>
		</g>
		<g>
			<g>
				<path class="st2" d="M265.3,214.8c1.4,1,2.4,2.3,3.1,3.8c0.7,1.4,2.9,0.2,2.2-1.3c-0.9-1.9-2.3-3.5-4-4.7
					C265.3,211.7,264,213.9,265.3,214.8L265.3,214.8z"/>
			</g>
		</g>
		<g>
			<g>
				<path class="st2" d="M275.8,226.4c1.5,1.2,3,2.4,4.5,3.7c1.2,1,3-0.8,1.8-1.8c-1.5-1.2-3-2.4-4.5-3.7
					C276.3,223.6,274.5,225.4,275.8,226.4L275.8,226.4z"/>
			</g>
		</g>
		<g>
			<g>
				<path class="st2" d="M287.8,237.8c1.7,1.7,3.5,3.5,5.2,5.2c1.1,1.1,2.9-0.6,1.8-1.8c-1.7-1.7-3.5-3.5-5.2-5.2
					C288.4,234.9,286.6,236.6,287.8,237.8L287.8,237.8z"/>
			</g>
		</g>
		<g>
			<g>
				<path class="st2" d="M299.4,248.5c2,1,4,2.1,6,3.4c1.4,0.9,2.6-1.3,1.3-2.2c-1.9-1.2-3.9-2.3-6-3.4
					C299.2,245.6,297.9,247.8,299.4,248.5L299.4,248.5z"/>
			</g>
		</g>
		<g>
			<g>
				<path class="st2" d="M312.1,259.2c2,1.4,4.1,2.7,6.3,3.8c1.4,0.7,2.7-1.4,1.3-2.2c-2.2-1.1-4.3-2.4-6.3-3.8
					C312,256.1,310.8,258.3,312.1,259.2L312.1,259.2z"/>
			</g>
		</g>
		<g>
			<g>
				<path class="st2" d="M324.8,267.7c1.5,1.8,3.6,2.8,5.9,3.1c0.7,0.1,1.2-0.6,1.2-1.2c0-0.7-0.6-1.2-1.2-1.2
					c-1.6-0.2-3.1-1.1-4.1-2.4C325.6,264.7,323.8,266.5,324.8,267.7L324.8,267.7z"/>
			</g>
		</g>
		<g>
			<g>
				<path class="st2" d="M339.8,278c1.8,1,3.7,2,5.5,3c1.4,0.8,2.7-1.4,1.3-2.2c-1.8-1-3.7-2-5.5-3
					C339.6,275.1,338.3,277.3,339.8,278L339.8,278z"/>
			</g>
		</g>
		<g>
			<g>
				<path class="st2" d="M353.5,286.1c1.9,1.1,4,2,6.1,2.7c1.5,0.5,2.2-1.9,0.7-2.4c-1.9-0.6-3.8-1.5-5.6-2.5
					C353.3,283.1,352.1,285.3,353.5,286.1L353.5,286.1z"/>
			</g>
		</g>
		<g>
			<g>
				<path class="st2" d="M368.1,293.4c2.7,0.6,5.4,1.3,8.1,1.9c1.6,0.4,2.2-2,0.7-2.4c-2.7-0.6-5.4-1.3-8.1-1.9
					C367.2,290.6,366.5,293.1,368.1,293.4L368.1,293.4z"/>
			</g>
		</g>
		<g>
			<g>
				<path class="st2" d="M385.3,301.2c3,0.7,5.9,1.6,8.8,2.6c1.5,0.5,2.2-1.9,0.7-2.4c-2.9-1-5.8-1.9-8.8-2.6
					C384.4,298.4,383.8,300.8,385.3,301.2L385.3,301.2z"/>
			</g>
		</g>
		<g>
			<g>
				<path class="st2" d="M402.2,306.1c2.1,0.5,4.3,0.8,6.5,1c1.6,0.1,1.6-2.4,0-2.5c-2-0.1-3.9-0.4-5.9-0.9
					C401.3,303.3,400.7,305.7,402.2,306.1L402.2,306.1z"/>
			</g>
		</g>
		<g>
			<g>
				<path class="st2" d="M414.3,309c2.7,0.3,5.4,0.7,8.1,1c1.6,0.2,1.6-2.3,0-2.5c-2.7-0.3-5.4-0.7-8.1-1
					C412.7,306.3,412.7,308.8,414.3,309L414.3,309z"/>
			</g>
		</g>
		<g>
			<g>
				<path class="st2" d="M432.5,313.2c2.5,0.1,5,0.2,7.5,0.4c1.6,0.1,1.6-2.4,0-2.5c-2.5-0.1-5-0.2-7.5-0.4
					C430.9,310.6,430.9,313.1,432.5,313.2L432.5,313.2z"/>
			</g>
		</g>
		<g>
			<g>
				<path class="st2" d="M446.5,314.7c3.2,0.4,6.5,0.6,9.8,0.5c1.6,0,1.6-2.5,0-2.5c-3.3,0.1-6.5-0.1-9.8-0.5
					C444.9,312,444.9,314.5,446.5,314.7L446.5,314.7z"/>
			</g>
		</g>
		<g>
			<g>
				<path class="st2" d="M465.7,316.2c2.8,0,5.6,0,8.5,0c1.6,0,1.6-2.5,0-2.5c-2.8,0-5.6,0-8.5,0
					C464.1,313.7,464.1,316.2,465.7,316.2L465.7,316.2z"/>
			</g>
		</g>
		<g>
			<g>
				<path class="st2" d="M480.3,315.9c2.4,0,4.8,0,7.2,0c1.6,0,1.6-2.5,0-2.5c-2.4,0-4.8,0-7.2,0
					C478.7,313.4,478.7,315.9,480.3,315.9L480.3,315.9z"/>
			</g>
		</g>
		<g>
			<g>
				<path class="st2" d="M494.3,315.2c2.3,0,4.4-0.5,6.5-1.5c1.5-0.7,0.2-2.8-1.3-2.2c-1.7,0.8-3.4,1.1-5.2,1.1
					C492.7,312.7,492.7,315.2,494.3,315.2L494.3,315.2z"/>
			</g>
		</g>
		<g>
			<g>
				<path class="st2" d="M508,313.8c2.1-0.7,4.3-1.3,6.5-1.6c1.6-0.2,0.9-2.6-0.7-2.4c-2.2,0.3-4.4,0.8-6.5,1.6
					C505.8,311.9,506.5,314.3,508,313.8L508,313.8z"/>
			</g>
		</g>
		<g>
			<g>
				<path class="st2" d="M522,311.2c2.1-0.3,4.1-0.7,6.2-1c1.6-0.3,0.9-2.7-0.7-2.4c-2.1,0.3-4.1,0.7-6.2,1
					C519.7,309.1,520.4,311.5,522,311.2L522,311.2z"/>
			</g>
		</g>
		<g>
			<g>
				<path class="st2" d="M535.3,308.6c1.7-0.4,3.5-0.9,5.2-1.3c1.6-0.4,0.9-2.8-0.7-2.4c-1.7,0.4-3.5,0.9-5.2,1.3
					C533.1,306.6,533.8,309,535.3,308.6L535.3,308.6z"/>
			</g>
		</g>
		<g>
			<g>
				<path class="st2" d="M544.4,306.4c1.6,0,1.6-2.5,0-2.5C542.8,303.9,542.8,306.4,544.4,306.4L544.4,306.4z"/>
			</g>
		</g>
		<g>
			<g>
				<path class="st2" d="M248.4,178.4c1.1,1.7,2.5,3.3,4,4.6c1.2,1.1,3-0.7,1.8-1.8c-1.4-1.2-2.6-2.6-3.6-4.1
					C249.7,175.8,247.5,177,248.4,178.4L248.4,178.4z"/>
			</g>
		</g>
		<g>
			<g>
				<path class="st2" d="M253.9,190c0.9,2.5,2.6,4.6,4.9,5.9c1.4,0.8,2.7-1.3,1.3-2.2c-1.7-1-3-2.5-3.7-4.4
					C255.8,187.9,253.4,188.5,253.9,190L253.9,190z"/>
			</g>
		</g>
		<g>
			<g>
				<path class="st2" d="M264.4,203.3c0.6,1.9,1.4,3.8,2.4,5.5c0.8,1.4,2.9,0.1,2.2-1.3c-0.9-1.6-1.6-3.2-2.1-4.9
					C266.3,201.2,263.9,201.8,264.4,203.3L264.4,203.3z"/>
			</g>
		</g>
		<g>
			<g>
				<path class="st2" d="M273.8,215.8c1.4,0.9,2.7,2,3.9,3.1c1.2,1.1,3-0.7,1.8-1.8c-1.4-1.3-2.9-2.5-4.4-3.5
					C273.7,212.7,272.4,214.9,273.8,215.8L273.8,215.8z"/>
			</g>
		</g>
		<g>
			<g>
				<path class="st2" d="M283.3,226.7c1.4,1.3,2.6,2.7,3.7,4.3c0.9,1.4,3,0.1,2.2-1.3c-1.1-1.8-2.5-3.4-4-4.8
					C283.8,223.8,282.1,225.6,283.3,226.7L283.3,226.7z"/>
			</g>
		</g>
		<g>
			<g>
				<path class="st2" d="M295.1,238.6c1.2,1.2,2.3,2.4,3.5,3.7c1.1,1.2,2.9-0.6,1.8-1.8c-1.2-1.2-2.3-2.4-3.5-3.7
					C295.7,235.7,294,237.5,295.1,238.6L295.1,238.6z"/>
			</g>
		</g>
		<g>
			<g>
				<path class="st2" d="M309.6,250.1c1.3,1.1,2.7,2.1,4.2,3.1c1.3,0.9,2.6-1.3,1.3-2.2c-1.3-0.8-2.5-1.7-3.7-2.7
					C310.2,247.3,308.4,249.1,309.6,250.1L309.6,250.1z"/>
			</g>
		</g>
		<g>
			<g>
				<path class="st2" d="M321.1,259.1c2.3,2.1,5,3.6,8,4.2c1.6,0.3,2.2-2.1,0.7-2.4c-2.6-0.6-4.9-1.7-6.9-3.6
					C321.7,256.3,319.9,258,321.1,259.1L321.1,259.1z"/>
			</g>
		</g>
		<g>
			<g>
				<path class="st2" d="M334.7,268.3c2,2,4.3,3.7,6.8,5.1c1.4,0.8,2.7-1.4,1.3-2.2c-2.3-1.3-4.4-2.8-6.2-4.7
					C335.3,265.4,333.5,267.2,334.7,268.3L334.7,268.3z"/>
			</g>
		</g>
		<g>
			<g>
				<path class="st2" d="M348.6,277c1.4,1,2.8,1.9,4.3,2.9c1.3,0.9,2.6-1.3,1.3-2.2c-1.4-1-2.8-1.9-4.3-2.9
					C348.5,273.9,347.3,276.1,348.6,277L348.6,277z"/>
			</g>
		</g>
		<g>
			<g>
				<path class="st2" d="M362.2,285.2c2.1,0.2,4.2,0.8,6.2,1.6c1.5,0.6,2.1-1.8,0.7-2.4c-2.2-0.9-4.5-1.5-6.8-1.7
					C360.6,282.6,360.7,285.1,362.2,285.2L362.2,285.2z"/>
			</g>
		</g>
		<g>
			<g>
				<path class="st2" d="M378.5,291.4c2.6,0.9,5.1,2.1,7.5,3.6c1.4,0.9,2.6-1.3,1.3-2.2c-2.5-1.6-5.2-2.8-8.1-3.8
					C377.6,288.5,377,290.9,378.5,291.4L378.5,291.4z"/>
			</g>
		</g>
		<g>
			<g>
				<path class="st2" d="M394.8,298.9c2.3,0.5,4.6,1,6.8,1.6c1.6,0.4,2.2-2.1,0.7-2.4c-2.3-0.5-4.6-1-6.8-1.6
					C393.9,296.1,393.2,298.5,394.8,298.9L394.8,298.9z"/>
			</g>
		</g>
		<g>
			<g>
				<path class="st2" d="M409.4,302.8c2.1,1.2,4.5,1.8,6.9,1.6c1.6-0.1,1.6-2.6,0-2.5c-2,0.1-3.9-0.3-5.6-1.3
					C409.2,299.8,408,302,409.4,302.8L409.4,302.8z"/>
			</g>
		</g>
		<g>
			<g>
				<path class="st2" d="M426.3,306.1c2,0.8,4.1,1.1,6.2,1c1.6-0.1,1.6-2.6,0-2.5c-1.9,0.1-3.7-0.2-5.5-0.9
					C425.5,303.1,424.8,305.5,426.3,306.1L426.3,306.1z"/>
			</g>
		</g>
		<g>
			<g>
				<path class="st2" d="M440,307.8c2.2,0.1,4.3,0.2,6.5,0.4c1.6,0.1,1.6-2.4,0-2.5c-2.2-0.1-4.3-0.2-6.5-0.4
					C438.4,305.2,438.4,307.7,440,307.8L440,307.8z"/>
			</g>
		</g>
		<g>
			<g>
				<path class="st2" d="M453,309c2.2,0,4.3,0,6.5,0c1.6,0,1.6-2.5,0-2.5c-2.2,0-4.3,0-6.5,0C451.4,306.5,451.4,309,453,309L453,309
					z"/>
			</g>
		</g>
		<g>
			<g>
				<path class="st2" d="M469.9,309.9c2.1,0.3,4.1,0.4,6.2,0.4c1.6,0,1.6-2.5,0-2.5c-1.8,0-3.7-0.1-5.5-0.3
					C469,307.3,468.3,309.7,469.9,309.9L469.9,309.9z"/>
			</g>
		</g>
		<g>
			<g>
				<path class="st2" d="M484.9,310c2.5,0,5,0,7.5,0c1.6,0,1.6-2.5,0-2.5c-2.5,0-5,0-7.5,0C483.3,307.5,483.3,310,484.9,310
					L484.9,310z"/>
			</g>
		</g>
		<g>
			<g>
				<path class="st2" d="M501.5,309.9c2.5-0.5,5-0.8,7.5-0.8c1.6-0.1,1.6-2.6,0-2.5c-2.7,0.1-5.5,0.4-8.2,0.9
					C499.2,307.8,499.9,310.2,501.5,309.9L501.5,309.9z"/>
			</g>
		</g>
		<g>
			<g>
				<path class="st2" d="M513.2,306.8c1.7,0,3.5,0,5.2,0c1.6,0,1.6-2.5,0-2.5c-1.7,0-3.5,0-5.2,0
					C511.6,304.3,511.6,306.8,513.2,306.8L513.2,306.8z"/>
			</g>
		</g>
		<g>
			<g>
				<path class="st2" d="M526.5,304.2c2.1,0,4.1-0.3,6.2-0.8c1.6-0.4,0.9-2.8-0.7-2.4c-1.8,0.4-3.6,0.6-5.5,0.7
					C524.9,301.7,524.9,304.2,526.5,304.2L526.5,304.2z"/>
			</g>
		</g>
		<g>
			<g>
				<path class="st2" d="M537.9,300.2c1.8,0.1,3.5-0.1,5.2-0.4c1.6-0.3,0.9-2.7-0.7-2.4c-1.5,0.3-3,0.4-4.5,0.3
					C536.3,297.7,536.3,300.2,537.9,300.2L537.9,300.2z"/>
			</g>
		</g>
		<g>
			<g>
				<path class="st2" d="M496.6,306.5c1.4-0.1,2.8-0.3,4.2-0.4c1.6-0.1,1.6-2.6,0-2.5c-1.4,0.1-2.8,0.3-4.2,0.4
					C495,304.1,495,306.6,496.6,306.5L496.6,306.5z"/>
			</g>
		</g>
		<g>
			<g>
				<path class="st2" d="M466.3,306.1c1.1-0.1,2.2-0.2,3.3-0.3c0.7-0.1,1.2-0.5,1.2-1.2c0-0.6-0.6-1.3-1.2-1.2
					c-1.1,0.1-2.2,0.2-3.3,0.3c-0.7,0.1-1.2,0.5-1.2,1.2C465.1,305.5,465.7,306.2,466.3,306.1L466.3,306.1z"/>
			</g>
		</g>
		<g>
			<g>
				<path class="st2" d="M409.4,298.5c1.1,0.3,2.2,0.7,3.2,1c1.5,0.5,2.2-1.9,0.7-2.4c-1.1-0.3-2.2-0.7-3.2-1
					C408.6,295.6,407.9,298,409.4,298.5L409.4,298.5z"/>
			</g>
		</g>
		<g>
			<g>
				<path class="st2" d="M385,287.6c0.7,0.1,1.4,0.4,2,0.8c0.5,0.4,1.4,0.1,1.7-0.4c0.4-0.6,0.1-1.3-0.4-1.7
					c-0.9-0.7-2.1-1.1-3.2-1.1c-0.7-0.1-1.2,0.6-1.2,1.2C383.8,287,384.3,287.5,385,287.6L385,287.6z"/>
			</g>
		</g>
		<g>
			<g>
				<path class="st2" d="M373,284.2c1.1,0.4,2.2,0.9,3.2,1.3c0.6,0.3,1.4-0.3,1.5-0.9c0.2-0.7-0.2-1.3-0.9-1.5
					c-1.1-0.4-2.2-0.9-3.2-1.3c-0.6-0.3-1.4,0.3-1.5,0.9C371.9,283.4,372.4,284,373,284.2L373,284.2z"/>
			</g>
		</g>
		<g>
			<g>
				<path class="st2" d="M357,276.1c1.5,0.6,2.9,1.3,4.2,2.2c1.4,0.9,2.6-1.3,1.3-2.2c-1.5-1-3.1-1.8-4.8-2.4
					C356.2,273.1,355.5,275.5,357,276.1L357,276.1z"/>
			</g>
		</g>
		<g>
			<g>
				<path class="st2" d="M345,267.9c2.3,1.2,4.7,2.2,7.2,3c1.5,0.5,2.2-1.9,0.7-2.4c-2.3-0.7-4.5-1.6-6.6-2.7
					C344.8,265,343.6,267.2,345,267.9L345,267.9z"/>
			</g>
		</g>
		<g>
			<g>
				<path class="st2" d="M354.8,267.7c1.5,1.2,3.1,2.2,4.8,3.1c1.4,0.7,2.7-1.4,1.3-2.2c-1.5-0.8-3-1.7-4.3-2.7
					c-0.5-0.4-1.2-0.5-1.8,0C354.4,266.3,354.3,267.3,354.8,267.7L354.8,267.7z"/>
			</g>
		</g>
		<g>
			<g>
				<path class="st2" d="M368.4,278.1c0.3,0.1,0.6,0.2,1,0.3c0.6,0.2,1.4-0.2,1.5-0.9c0.2-0.7-0.2-1.3-0.9-1.5
					c-0.3-0.1-0.6-0.2-1-0.3c-0.6-0.2-1.4,0.2-1.5,0.9C367.4,277.2,367.8,277.8,368.4,278.1L368.4,278.1z"/>
			</g>
		</g>
		<g>
			<g>
				<path class="st2" d="M334,261c1.3,0.7,2.6,1.3,3.9,2c1.4,0.7,2.7-1.4,1.3-2.2c-1.3-0.7-2.6-1.3-3.9-2
					C333.8,258.1,332.5,260.3,334,261L334,261z"/>
			</g>
		</g>
		<g>
			<g>
				<path class="st2" d="M318,251.3c1.1,0.8,2.2,1.5,3.3,2.3c0.6,0.4,1.4,0.1,1.7-0.4c0.4-0.6,0.1-1.3-0.4-1.7
					c-1.1-0.8-2.2-1.5-3.3-2.3c-0.6-0.4-1.4-0.1-1.7,0.4C317.2,250.2,317.5,250.9,318,251.3L318,251.3z"/>
			</g>
		</g>
		<g>
			<g>
				<path class="st2" d="M302.5,239c1.7,1.7,3.5,3.5,5.2,5.2c1.1,1.1,2.9-0.6,1.8-1.8c-1.7-1.7-3.5-3.5-5.2-5.2
					C303.1,236.1,301.4,237.9,302.5,239L302.5,239z"/>
			</g>
		</g>
		<g>
			<g>
				<path class="st2" d="M292.3,230.1c1.3,0.6,2.4,1.6,2.9,2.9c0.3,0.6,0.8,1.1,1.5,0.9c0.6-0.2,1.1-0.9,0.9-1.5
					c-0.8-1.9-2.2-3.5-4.1-4.4c-0.6-0.3-1.3-0.2-1.7,0.4C291.6,228.9,291.7,229.8,292.3,230.1L292.3,230.1z"/>
			</g>
		</g>
		<g>
			<g>
				<path class="st2" d="M283.3,218.2c1.2,1.1,2.3,2.2,3.5,3.3c1.2,1.1,2.9-0.7,1.8-1.8c-1.2-1.1-2.3-2.2-3.5-3.3
					C283.9,215.3,282.1,217,283.3,218.2L283.3,218.2z"/>
			</g>
		</g>
		<g>
			<g>
				<path class="st2" d="M272.4,206.1c1.3,1,2.6,1.9,4,2.9c0.5,0.4,1.4,0.1,1.7-0.4c0.4-0.6,0.1-1.3-0.4-1.7c-1.3-1-2.6-1.9-4-2.9
					c-0.5-0.4-1.4-0.1-1.7,0.4C271.6,205,271.9,205.7,272.4,206.1L272.4,206.1z"/>
			</g>
		</g>
		<g>
			<g>
				<path class="st2" d="M263.7,193.9c0.6,1.6,1.4,3.1,2.4,4.5c0.4,0.5,1.1,0.8,1.7,0.4c0.5-0.3,0.9-1.2,0.4-1.7
					c-0.9-1.2-1.7-2.5-2.2-3.9C265.6,191.8,263.1,192.4,263.7,193.9L263.7,193.9z"/>
			</g>
		</g>
		<g>
			<g>
				<path class="st2" d="M257.2,185.8c0,1.2,0.5,2.4,1.4,3.1c0.5,0.4,1.3,0.5,1.8,0c0.5-0.5,0.5-1.3,0-1.8c-0.5-0.4-0.6-0.8-0.6-1.4
					C259.7,184.2,257.2,184.2,257.2,185.8L257.2,185.8z"/>
			</g>
		</g>
		<g>
			<g>
				<path class="st2" d="M240.2,188.3c1.1,1.4,2.2,2.8,3.3,4.2c0.4,0.5,1.3,0.4,1.8,0c0.5-0.5,0.4-1.2,0-1.8
					c-1.1-1.4-2.2-2.8-3.3-4.2c-0.4-0.5-1.3-0.4-1.8,0C239.7,187.1,239.8,187.8,240.2,188.3L240.2,188.3z"/>
			</g>
		</g>
		<g>
			<g>
				<path class="st2" d="M248.4,200.5c1,1.6,2.2,3.1,3.7,4.3c1.2,1,3-0.7,1.8-1.8c-1.3-1.1-2.4-2.4-3.3-3.8
					C249.8,197.8,247.6,199.1,248.4,200.5L248.4,200.5z"/>
			</g>
		</g>
		<g>
			<g>
				<path class="st2" d="M256.2,211.8c0.3,1.6,1.1,3.1,2.3,4.1c1.2,1.1,3-0.7,1.8-1.8c-0.9-0.8-1.5-1.8-1.7-3
					c-0.1-0.7-0.9-1-1.5-0.9C256.4,210.5,256.1,211.1,256.2,211.8L256.2,211.8z"/>
			</g>
		</g>
		<g>
			<g>
				<path class="st2" d="M264.9,222.2c1.1,1.5,2.1,3.1,3.2,4.6c0.9,1.3,3.1,0.1,2.2-1.3c-1.1-1.5-2.1-3.1-3.2-4.6
					C266.1,219.6,264,220.8,264.9,222.2L264.9,222.2z"/>
			</g>
		</g>
		<g>
			<g>
				<path class="st2" d="M275,233.8c1.9,1,3.4,2.5,4.6,4.3c0.8,1.4,3,0.1,2.2-1.3c-1.4-2.2-3.2-4-5.5-5.2
					C274.9,230.8,273.6,233,275,233.8L275,233.8z"/>
			</g>
		</g>
		<g>
			<g>
				<path class="st2" d="M287.3,245.9c1.2,1.9,2.9,3.4,5,4.3c1.5,0.6,2.7-1.5,1.3-2.2c-1.7-0.7-3.1-1.9-4.1-3.4
					C288.6,243.3,286.4,244.6,287.3,245.9L287.3,245.9z"/>
			</g>
		</g>
		<g>
			<g>
				<path class="st2" d="M298.8,255.8c1.7,1.3,3.5,2.6,5.2,3.9c1.3,1,2.5-1.2,1.3-2.2c-1.7-1.3-3.5-2.6-5.2-3.9
					C298.8,252.7,297.6,254.8,298.8,255.8L298.8,255.8z"/>
			</g>
		</g>
		<g>
			<g>
				<path class="st2" d="M311.9,265.7c1.7,2,3.9,3.5,6.3,4.3c1.5,0.5,2.2-1.9,0.7-2.4c-2.1-0.7-3.8-2-5.2-3.7
					C312.7,262.7,310.9,264.5,311.9,265.7L311.9,265.7z"/>
			</g>
		</g>
		<g>
			<g>
				<path class="st2" d="M326.2,275.5c2.2,1.7,4.4,3.4,6.6,5.1c1.3,1,3-0.8,1.8-1.8c-2.2-1.7-4.4-3.4-6.6-5.1
					C326.7,272.8,324.9,274.5,326.2,275.5L326.2,275.5z"/>
			</g>
		</g>
		<g>
			<g>
				<path class="st2" d="M341.8,286.3c1.9,0.8,3.7,1.8,5.3,3.1c1.3,1,3-0.8,1.8-1.8c-1.8-1.4-3.7-2.6-5.8-3.5
					C341.6,283.5,340.3,285.6,341.8,286.3L341.8,286.3z"/>
			</g>
		</g>
		<g>
			<g>
				<path class="st2" d="M355.1,294c2.6,0.3,5.2,0.9,7.7,1.8c1.5,0.5,2.2-1.9,0.7-2.4c-2.7-0.9-5.5-1.5-8.4-1.9
					C353.5,291.3,353.5,293.8,355.1,294L355.1,294z"/>
			</g>
		</g>
		<g>
			<g>
				<path class="st2" d="M370.7,300.8c2.6,1,5.3,1.8,8.1,2.3c1.6,0.3,2.2-2.1,0.7-2.4c-2.8-0.5-5.5-1.3-8.1-2.3
					C369.9,297.8,369.2,300.2,370.7,300.8L370.7,300.8z"/>
			</g>
		</g>
		<g>
			<g>
				<path class="st2" d="M389.9,308.9c2.5,0.7,5,1.4,7.4,2.1c1.6,0.4,2.2-2,0.7-2.4c-2.5-0.7-5-1.4-7.4-2.1
					C389,306,388.4,308.4,389.9,308.9L389.9,308.9z"/>
			</g>
		</g>
		<g>
			<g>
				<path class="st2" d="M404.9,313.6c2.9,0.3,5.9,0.7,8.8,1c1.6,0.2,1.6-2.3,0-2.5c-2.9-0.3-5.9-0.7-8.8-1
					C403.3,310.9,403.3,313.4,404.9,313.6L404.9,313.6z"/>
			</g>
		</g>
		<g>
			<g>
				<path class="st2" d="M423.4,319.1c2.4,0.1,4.8,0.3,7.2,0.4c1.6,0.1,1.6-2.4,0-2.5c-2.4-0.1-4.8-0.3-7.2-0.4
					C421.8,316.5,421.8,319,423.4,319.1L423.4,319.1z"/>
			</g>
		</g>
		<g>
			<g>
				<path class="st2" d="M438.7,320.1c1.7,0.1,3.5,0.2,5.2,0.4c1.6,0.1,1.6-2.4,0-2.5c-1.7-0.1-3.5-0.2-5.2-0.4
					C437.1,317.4,437.1,319.9,438.7,320.1L438.7,320.1z"/>
			</g>
		</g>
		<g>
			<g>
				<path class="st2" d="M454.6,321.4c1.7,0,3.5,0,5.2,0c1.6,0,1.6-2.5,0-2.5c-1.7,0-3.5,0-5.2,0C453,318.9,453,321.4,454.6,321.4
					L454.6,321.4z"/>
			</g>
		</g>
		<g>
			<g>
				<path class="st2" d="M470.6,322c2.7,0,5.4,0,8.1,0c1.6,0,1.6-2.5,0-2.5c-2.7,0-5.4,0-8.1,0C469,319.5,469,322,470.6,322
					L470.6,322z"/>
			</g>
		</g>
		<g>
			<g>
				<path class="st2" d="M487.2,322c1.5,0,3,0,4.6,0c1.6,0,1.6-2.5,0-2.5c-1.5,0-3,0-4.6,0C485.6,319.5,485.6,322,487.2,322
					L487.2,322z"/>
			</g>
		</g>
		<g>
			<g>
				<path class="st2" d="M498.9,321.1c2,0.1,4-0.1,5.9-0.7c1.5-0.5,0.9-2.9-0.7-2.4c-1.7,0.5-3.4,0.7-5.2,0.6
					C497.3,318.4,497.3,320.9,498.9,321.1L498.9,321.1z"/>
			</g>
		</g>
		<g>
			<g>
				<path class="st2" d="M515.8,318.5c1.8-0.3,3.5-0.8,5.2-1.5c0.6-0.3,0.8-1.2,0.4-1.7c-0.4-0.6-1.1-0.7-1.7-0.4
					c-1.5,0.6-3,1-4.6,1.2c-0.7,0.1-1,0.9-0.9,1.5C514.5,318.3,515.2,318.5,515.8,318.5L515.8,318.5z"/>
			</g>
		</g>
		<g>
			<g>
				<path class="st2" d="M531.1,315.8c1.9-0.6,3.9-1.1,5.9-1.5c1.6-0.3,0.9-2.7-0.7-2.4c-2,0.4-4,0.9-5.9,1.5
					C528.9,313.8,529.5,316.3,531.1,315.8L531.1,315.8z"/>
			</g>
		</g>
		<g>
			<g>
				<path class="st2" d="M540.9,312.3c1.1,0,2.2,0,3.3,0c1.6,0,1.6-2.5,0-2.5c-1.1,0-2.2,0-3.3,0
					C539.2,309.8,539.2,312.3,540.9,312.3L540.9,312.3z"/>
			</g>
		</g>
		<g>
			<g>
				<path class="st2" d="M241.4,198.8c1.1,1.7,2.2,3.5,3.3,5.2c0.9,1.4,3,0.1,2.2-1.3c-1.1-1.7-2.2-3.5-3.3-5.2
					C242.7,196.2,240.6,197.4,241.4,198.8L241.4,198.8z"/>
			</g>
		</g>
		<g>
			<g>
				<path class="st2" d="M248.5,212c1,1,1.9,2,2.9,2.9c1.1,1.1,2.9-0.6,1.8-1.8c-1-1-1.9-2-2.9-2.9
					C249.1,209.1,247.4,210.8,248.5,212L248.5,212z"/>
			</g>
		</g>
		<g>
			<g>
				<path class="st2" d="M258.4,221.8c0.9,1.2,1.7,2.4,2.6,3.6c0.4,0.5,1.1,0.8,1.7,0.4c0.5-0.3,0.8-1.2,0.4-1.7
					c-0.9-1.2-1.7-2.4-2.6-3.6c-0.4-0.5-1.1-0.8-1.7-0.4C258.3,220.4,258,221.3,258.4,221.8L258.4,221.8z"/>
			</g>
		</g>
		<g>
			<g>
				<path class="st2" d="M267.6,233.5c1.2,1,2.4,1.7,3.8,2.3c0.6,0.3,1.4-0.3,1.5-0.9c0.2-0.7-0.2-1.3-0.9-1.5c-1-0.4-1.9-1-2.7-1.6
					c-0.5-0.4-1.3-0.5-1.8,0C267.2,232.2,267.1,233.1,267.6,233.5L267.6,233.5z"/>
			</g>
		</g>
		<g>
			<g>
				<path class="st2" d="M279.3,244.6c0.7,0.8,1.3,1.5,2,2.3c0.4,0.5,1.3,0.5,1.8,0c0.5-0.5,0.4-1.3,0-1.8c-0.7-0.8-1.3-1.5-2-2.3
					c-0.4-0.5-1.3-0.5-1.8,0C278.8,243.4,278.9,244.1,279.3,244.6L279.3,244.6z"/>
			</g>
		</g>
		<g>
			<g>
				<path class="st2" d="M292.6,256.8c0.9,0.6,1.7,1.1,2.6,1.7c0.6,0.4,1.4,0.1,1.7-0.4c0.4-0.6,0.1-1.3-0.4-1.7
					c-0.9-0.6-1.7-1.1-2.6-1.7c-0.6-0.4-1.4-0.1-1.7,0.4C291.8,255.7,292.1,256.4,292.6,256.8L292.6,256.8z"/>
			</g>
		</g>
		<g>
			<g>
				<path class="st2" d="M305,265.8c1,0.6,1.9,1.1,2.9,1.7c1.4,0.8,2.7-1.4,1.3-2.2c-1-0.6-1.9-1.1-2.9-1.7
					C304.9,262.9,303.6,265,305,265.8L305,265.8z"/>
			</g>
		</g>
		<g>
			<g>
				<path class="st2" d="M316.1,275.7c1.3,1,2.6,2,3.9,2.9c0.5,0.4,1.4,0.1,1.7-0.4c0.4-0.6,0.1-1.3-0.4-1.7c-1.3-1-2.6-2-3.9-2.9
					c-0.5-0.4-1.4-0.1-1.7,0.4C315.2,274.6,315.5,275.3,316.1,275.7L316.1,275.7z"/>
			</g>
		</g>
		<g>
			<g>
				<path class="st2" d="M331.1,285.6c1.9,0.9,3.8,1.8,5.8,2.8c1.4,0.7,2.7-1.5,1.3-2.2c-1.9-0.9-3.8-1.8-5.8-2.8
					C330.9,282.8,329.6,284.9,331.1,285.6L331.1,285.6z"/>
			</g>
		</g>
		<g>
			<g>
				<path class="st2" d="M346.4,294.7c0.8,0.7,1.8,1.2,2.8,1.3c0.7,0.1,1.3-0.2,1.5-0.9c0.2-0.6-0.2-1.4-0.9-1.5
					c-0.6-0.1-1.2-0.3-1.7-0.7c-0.5-0.4-1.3-0.5-1.8,0C345.9,293.3,345.9,294.2,346.4,294.7L346.4,294.7z"/>
			</g>
		</g>
		<g>
			<g>
				<path class="st2" d="M361.9,301.1c1.6,1.2,3.5,2,5.5,2.4c1.6,0.3,2.2-2.1,0.7-2.4c-1.8-0.3-3.4-1-4.9-2.1
					C361.9,298,360.6,300.2,361.9,301.1L361.9,301.1z"/>
			</g>
		</g>
		<g>
			<g>
				<path class="st2" d="M378.3,308.4c2,1.6,4.2,2.7,6.8,3.2c1.6,0.3,2.2-2.1,0.7-2.4c-2.1-0.4-4-1.3-5.6-2.6
					C378.8,305.6,377,307.4,378.3,308.4L378.3,308.4z"/>
			</g>
		</g>
		<g>
			<g>
				<path class="st2" d="M397,315.6c1.4,0.5,2.8,1,4.3,1.6c1.5,0.6,2.2-1.9,0.7-2.4c-1.4-0.5-2.8-1-4.3-1.6
					C396.2,312.6,395.5,315,397,315.6L397,315.6z"/>
			</g>
		</g>
		<g>
			<g>
				<path class="st2" d="M412,320c1.9,1,3.8,1.3,5.9,1c0.7-0.1,1-0.9,0.9-1.5c-0.2-0.7-0.9-1-1.5-0.9c-1.4,0.2-2.7-0.1-4-0.7
					C411.8,317.1,410.6,319.2,412,320L412,320z"/>
			</g>
		</g>
		<g>
			<g>
				<path class="st2" d="M429.2,323.9c1.6,0.9,3.4,1.4,5.2,1.4c1.6,0,1.6-2.5,0-2.5c-1.4,0-2.7-0.3-4-1.1
					C429.1,320.9,427.9,323.1,429.2,323.9L429.2,323.9z"/>
			</g>
		</g>
		<g>
			<g>
				<path class="st2" d="M446.2,326.5c1.8,0.1,3.7,0.2,5.5,0.4c1.6,0.1,1.6-2.4,0-2.5c-1.8-0.1-3.7-0.2-5.5-0.4
					C444.6,323.9,444.6,326.4,446.2,326.5L446.2,326.5z"/>
			</g>
		</g>
		<g>
			<g>
				<path class="st2" d="M461.8,326.9c2.3,0,4.6,0,6.8,0c1.6,0,1.6-2.5,0-2.5c-2.3,0-4.6,0-6.8,0
					C460.2,324.4,460.2,326.9,461.8,326.9L461.8,326.9z"/>
			</g>
		</g>
		<g>
			<g>
				<path class="st2" d="M478.1,326.9c1.4,0,2.8,0,4.2,0c1.6,0,1.6-2.5,0-2.5c-1.4,0-2.8,0-4.2,0
					C476.5,324.4,476.5,326.9,478.1,326.9L478.1,326.9z"/>
			</g>
		</g>
		<g>
			<g>
				<path class="st2" d="M507.7,323.1c0.9-0.1,1.7-0.2,2.6-0.3c0.7-0.1,1.2-0.5,1.2-1.2c0-0.6-0.6-1.3-1.2-1.2
					c-0.9,0.1-1.7,0.2-2.6,0.3c-0.7,0.1-1.2,0.5-1.2,1.2C506.4,322.4,507,323.2,507.7,323.1L507.7,323.1z"/>
			</g>
		</g>
		<g>
			<g>
				<path class="st2" d="M494.3,325c1.6,0,3.3,0,4.9,0c1.6,0,1.6-2.5,0-2.5c-1.6,0-3.3,0-4.9,0C492.7,322.5,492.7,325,494.3,325
					L494.3,325z"/>
			</g>
		</g>
		<g>
			<g>
				<path class="st2" d="M523.6,320.2c0.6-0.3,1.1-0.6,1.7-0.9c1.4-0.8,0.1-3-1.3-2.2c-0.5,0.3-1.1,0.6-1.7,0.9
					C520.9,318.8,522.2,321,523.6,320.2L523.6,320.2z"/>
			</g>
		</g>
		<path class="st3" d="M464.8,139.8c39.8,21.2,75.4,79.1,24.3,125.6c-36,32.8-99.7,19.4-123-19.2c-14.2-23.6-19-40.9-22.1-60.2
			c-5.2-31.6,16.8-39.7,28.9-38.1c3-22.7,16.9-27.2,33.5-25.9C418.7,122.9,442.9,128.2,464.8,139.8z"/>
		<g>
			
				<ellipse transform="matrix(0.9227 -0.3854 0.3854 0.9227 -45.4325 164.129)" class="st4" cx="386.7" cy="195.4" rx="18.5" ry="17.8"/>
			
				<ellipse transform="matrix(0.9227 -0.3854 0.3854 0.9227 -45.6366 163.9952)" class="st3" cx="386.2" cy="195.8" rx="9" ry="8.8"/>
			
				<ellipse transform="matrix(0.6689 -0.7434 0.7434 0.6689 -17.2785 353.8964)" class="st4" cx="388.6" cy="196.3" rx="4" ry="4.1"/>
			
				<ellipse transform="matrix(0.6689 -0.7434 0.7434 0.6689 -15.7803 349.0227)" class="st4" cx="383.9" cy="192.2" rx="1.6" ry="1.7"/>
			<g>
				<path class="st5" d="M368.9,179.8c-2-0.9-3.6,0-4,1.4c-0.4,1.4,0.3,2.8,2.1,3.3c1.7,0.4,3.9,0.1,5.9-0.8
					C372.8,183.7,370.7,180.7,368.9,179.8z"/>
				<path class="st5" d="M365.5,190.6c-2.2-0.6-3.6,0.6-3.7,2.1c-0.1,1.5,0.8,2.7,2.6,2.8c1.8,0.1,3.8-0.6,5.6-1.8
					C370.1,193.7,367.4,191.1,365.5,190.6z"/>
				<path class="st5" d="M365,202c-2.3,0-3.3,1.6-3,3c0.3,1.4,1.5,2.4,3.3,2c1.7-0.4,3.5-1.6,4.9-3.2C370.2,203.8,367,202,365,202z"
					/>
			</g>
		</g>
		<path class="st6" d="M442,203.1c6.3,7,4.6,14.5-0.6,17.8c-5.2,3.2-11.8,2.3-15.7-4.3c-3.8-6.3-5-15.4-4.2-24.5
			C421.4,192,436.4,196.8,442,203.1z"/>
		<g>
			
				<ellipse transform="matrix(0.7267 -0.6869 0.6869 0.7267 6.1093 342.8716)" class="st4" cx="434" cy="163.8" rx="17.1" ry="16.5"/>
			
				<ellipse transform="matrix(0.7267 -0.6869 0.6869 0.7267 6.5331 342.8877)" class="st3" cx="434.2" cy="163.2" rx="8.4" ry="8.1"/>
			
				<ellipse transform="matrix(0.9184 -0.3956 0.3956 0.9184 -29.6429 185.5752)" class="st4" cx="435.2" cy="164.7" rx="3.7" ry="3.8"/>
			
				<ellipse transform="matrix(0.9184 -0.3956 0.3956 0.9184 -27.7474 184.2064)" class="st4" cx="432.8" cy="159.4" rx="1.5" ry="1.6"/>
			<g>
				<path class="st6" d="M446.5,144.3c0.5-2.3-0.8-3.7-2.3-3.8c-1.5-0.1-2.8,0.9-2.9,2.9c-0.1,1.8,0.8,4,2.1,5.8
					C443.4,149.2,446,146.3,446.5,144.3z"/>
				<path class="st6" d="M434.7,143.2c0.1-2.4-1.4-3.5-2.9-3.3c-1.5,0.2-2.6,1.4-2.3,3.3c0.3,1.8,1.5,3.8,3.1,5.4
					C432.5,148.5,434.6,145.3,434.7,143.2z"/>
				<path class="st6" d="M422.9,145.1c-0.5-2.3-2.3-3-3.7-2.4c-1.4,0.6-2.2,2.1-1.4,3.8c0.8,1.7,2.4,3.2,4.4,4.4
					C422.2,150.9,423.4,147.2,422.9,145.1z"/>
			</g>
		</g>
		<g>
			<path class="st4" d="M401,247.6c1.6-28.3,28.7-3.5,48.4-17.7c17-12.3,12-47.7,34-37.5c27.7,12.8-0.6,54.2-14.6,63.5
				C439,275.9,399.9,267.5,401,247.6z"/>
			<polygon class="st3" points="435.7,241.6 436.1,250.8 428,242 			"/>
			<polygon class="st3" points="480.7,241.6 475.4,232.6 484.4,234.7 			"/>
		</g>
		<path class="st7" d="M480.5,169.2c2.4,5.2,0.2,11.4-5,13.9c-5.2,2.4-11.4,0.2-13.9-5.1c-2.4-5.2-0.2-11.4,5-13.9
			C471.8,161.7,478,164,480.5,169.2z"/>
		<path class="st7" d="M392.6,228.2c2.4,5.2,0.2,11.4-5,13.9c-5.2,2.4-11.4,0.2-13.9-5.1c-2.4-5.2-0.2-11.4,5-13.9
			C384,220.7,390.2,222.9,392.6,228.2z"/>
		<g>
			
				<ellipse transform="matrix(0.3326 -0.9431 0.9431 0.3326 114.8851 481.8735)" class="st4" cx="397.9" cy="159.8" rx="7.9" ry="7.6"/>
			
				<ellipse transform="matrix(0.3326 -0.9431 0.9431 0.3326 115.1256 481.6815)" class="st3" cx="397.9" cy="159.5" rx="3.9" ry="3.8"/>
			
				<ellipse transform="matrix(0.6363 -0.7714 0.7714 0.6363 21.6321 365.6529)" class="st4" cx="398.6" cy="159.9" rx="1.7" ry="1.8"/>
			
				<ellipse transform="matrix(0.6363 -0.7714 0.7714 0.6363 22.1631 363.4225)" class="st4" cx="396.5" cy="158.2" rx="0.7" ry="0.7"/>
			<g>
				<path class="st6" d="M398.9,149.1c-0.3-1.1-1.1-1.4-1.8-1.1c-0.6,0.3-1,1-0.6,1.8c0.4,0.8,1.2,1.5,2.1,2
					C398.7,151.8,399.2,150,398.9,149.1z"/>
				<path class="st6" d="M393.8,151.1c-0.5-1-1.3-1.2-1.9-0.7c-0.6,0.4-0.8,1.1-0.3,1.9c0.5,0.7,1.4,1.2,2.4,1.6
					C394.1,153.8,394.2,152,393.8,151.1z"/>
				<path class="st6" d="M389.4,154.4c-0.7-0.8-1.6-0.8-2-0.2c-0.5,0.5-0.4,1.3,0.2,1.9c0.7,0.5,1.7,0.8,2.7,0.9
					C390.3,157,390,155.2,389.4,154.4z"/>
			</g>
		</g>
		<path class="st8" d="M322.7,152.3c13.8,6.3,13.2,51.1,0.9,51.1c-63.3,2-82-71.1-70-93.1c16.4-27.9,51.5-25.9,60-10.6
			c12.5,22.3-13.6,24-13.6,24s7.9-4.8,2.8-17.1c-10.4-10.9-28.6-3-32.8,13.3C267.3,144.5,284.4,152.3,322.7,152.3z"/>
		<path class="st8" d="M393.6,97.1c4.3,13.8,44.8,21.3,48.3,9.6c20.1-60-34.2-91.5-58.7-86.3c-31.5,7.7-39.6,41.9-27.4,54.5
			c17.8,18.4,26.9-6.2,26.9-6.2s-6.9,6.1-17.2-2.2c-7.4-13.1,5.3-28.3,22.2-27.6C412.1,43.2,404.6,60.4,393.6,97.1z"/>
		<g>
			<path class="st9" d="M398.4,91.4c0,0,0.1,0.1,0.3,0.4c0.1,0.1,0.2,0.3,0.3,0.5c0.1,0.2,0.3,0.4,0.5,0.6c0.4,0.5,0.9,1,1.5,1.5
				c0.6,0.5,1.4,1,2.2,1.5c0.9,0.5,1.9,0.9,2.9,1.3c1.1,0.4,2.2,0.7,3.5,1c1.2,0.3,2.5,0.6,3.8,0.8c1.4,0.2,2.7,0.5,4,0.7
				c1.3,0.2,2.7,0.4,4,0.5c1.3,0.1,2.6,0.2,3.9,0.2c0.6,0,1.2,0,1.8,0c0.6,0,1.2,0,1.8-0.1c1.1-0.1,2.2-0.3,3.2-0.5
				c0.5-0.1,1-0.2,1.4-0.3c0.5-0.1,0.9-0.2,1.3-0.4c0.8-0.3,1.5-0.6,2-0.8c0.6-0.2,1-0.5,1.3-0.6c0.3-0.1,0.5-0.2,0.5-0.2
				s-0.1,0.1-0.4,0.4c-0.2,0.2-0.6,0.6-1,1c-0.5,0.4-1.1,0.9-1.8,1.3c-0.7,0.5-1.6,0.9-2.6,1.3c-1,0.4-2.1,0.8-3.4,1
				c-1.2,0.3-2.5,0.5-3.9,0.6c-2.7,0.2-5.6,0-8.4-0.4c-1.4-0.2-2.8-0.5-4.2-0.8c-1.4-0.3-2.7-0.7-4-1.1c-2.6-0.9-4.9-2.1-6.6-3.5
				c-0.4-0.3-0.8-0.7-1.2-1.1c-0.3-0.4-0.7-0.7-0.9-1.1c-0.6-0.7-0.9-1.4-1.2-2c-0.1-0.3-0.2-0.6-0.3-0.8c-0.1-0.2-0.1-0.4-0.2-0.6
				C398.5,91.6,398.4,91.4,398.4,91.4z"/>
		</g>
		<g>
			<path class="st9" d="M405,75.4c0,0,0.5,0.1,1.4,0.4c0.9,0.3,2.2,0.6,3.7,1c3.1,0.8,7.1,1.8,11.3,2.5c2,0.3,4,0.6,5.9,0.5
				c0.9,0,1.8-0.1,2.6-0.3c0.8-0.2,1.6-0.4,2.2-0.8c1.3-0.6,2.4-1.4,3-2.1c0.3-0.3,0.6-0.6,0.7-0.8c0.2-0.2,0.2-0.3,0.2-0.3
				s0,0.1-0.1,0.4c-0.1,0.2-0.2,0.6-0.4,1.1c-0.4,0.9-1.2,2.2-2.6,3.2c-0.7,0.5-1.5,1-2.5,1.4c-0.3,0.1-0.5,0.2-0.7,0.3
				c-0.3,0.1-0.5,0.2-0.8,0.2c-0.5,0.1-1,0.3-1.6,0.3c-1.1,0.2-2.2,0.2-3.3,0.2c-1.1,0-2.2-0.2-3.3-0.3c-2.2-0.4-4.3-0.9-6.3-1.6
				c-1.9-0.7-3.7-1.5-5.1-2.3c-1.5-0.8-2.6-1.5-3.4-2.1C405.4,75.8,405,75.4,405,75.4z"/>
		</g>
		<g>
			<path class="st9" d="M410.5,58.9c0,0,0.1,0,0.3,0.1c0.2,0.1,0.5,0.2,0.8,0.3c0.7,0.2,1.6,0.4,2.7,0.4c1.1,0,2.4-0.1,3.7-0.5
				c0.7-0.2,1.3-0.4,2-0.7c0.6-0.3,1.3-0.6,2-0.9c1.3-0.7,2.6-1.5,3.9-2.3c0.6-0.4,1.3-0.8,1.8-1.1c0.6-0.4,1.1-0.7,1.6-1
				c1-0.6,1.7-1.2,2.1-1.8c0.2-0.3,0.4-0.5,0.4-0.7c0.1-0.2,0.1-0.3,0.1-0.3s0,0.1,0,0.3c0,0.2,0,0.5-0.1,0.9
				c-0.1,0.8-0.6,1.8-1.5,2.8c-0.4,0.5-0.9,1-1.4,1.5c-0.5,0.5-1,1-1.6,1.5c-1.2,1-2.5,2-4.1,2.8c-0.8,0.4-1.6,0.8-2.4,1
				c-0.8,0.3-1.7,0.5-2.5,0.6c-0.8,0.1-1.6,0.1-2.4,0c-0.8-0.1-1.5-0.2-2.1-0.5c-0.6-0.2-1.2-0.5-1.6-0.7c-0.5-0.3-0.8-0.6-1.1-0.8
				c-0.3-0.3-0.5-0.5-0.6-0.6C410.5,59,410.5,58.9,410.5,58.9z"/>
		</g>
		<g>
			<path class="st9" d="M404.9,45.5c0,0,0.2-0.1,0.6-0.3c0.2-0.1,0.4-0.2,0.6-0.3c0.2-0.1,0.4-0.2,0.6-0.4c0.2-0.1,0.5-0.3,0.7-0.5
				c0.2-0.2,0.5-0.4,0.7-0.5c0.2-0.2,0.5-0.4,0.7-0.6c0.2-0.2,0.4-0.4,0.7-0.7c0.2-0.2,0.4-0.5,0.6-0.7c0.2-0.2,0.4-0.5,0.6-0.7
				c0.2-0.3,0.3-0.5,0.5-0.7c0.1-0.2,0.3-0.5,0.4-0.7c0.1-0.2,0.2-0.5,0.3-0.7c0.1-0.2,0.2-0.4,0.2-0.6c0.1-0.3,0.2-0.6,0.2-0.6
				s0.2,0.2,0.4,0.5c0.1,0.2,0.2,0.4,0.3,0.6c0.1,0.3,0.2,0.6,0.2,0.9c0.1,0.3,0.1,0.7,0,1.1c0,0.4-0.1,0.8-0.2,1.2
				c-0.1,0.4-0.3,0.8-0.5,1.2c-0.2,0.4-0.5,0.8-0.8,1.1c-0.3,0.3-0.7,0.7-1,0.9c-0.4,0.3-0.8,0.5-1.2,0.7c-0.4,0.2-0.8,0.3-1.2,0.3
				c-0.4,0.1-0.8,0.1-1.1,0.1c-0.3,0-0.7-0.1-0.9-0.2c-0.3-0.1-0.5-0.2-0.7-0.3C405.1,45.7,404.9,45.5,404.9,45.5z"/>
		</g>
		<g>
			<path class="st9" d="M393.9,31.4c0,0-0.1-0.2-0.2-0.5c0-0.2-0.1-0.3-0.2-0.5c-0.1-0.2-0.2-0.3-0.3-0.5c-0.1-0.2-0.2-0.4-0.4-0.6
				c-0.1-0.2-0.3-0.4-0.4-0.6c-0.2-0.2-0.3-0.4-0.5-0.6c-0.2-0.2-0.3-0.4-0.5-0.5c-0.2-0.2-0.3-0.4-0.5-0.5
				c-0.2-0.2-0.4-0.3-0.5-0.5c-0.2-0.1-0.4-0.3-0.5-0.5c-0.2-0.1-0.4-0.3-0.5-0.4c-0.4-0.3-0.7-0.5-1-0.6c-0.3-0.1-0.5-0.2-0.5-0.2
				s0.1-0.1,0.4-0.3c0.1-0.1,0.3-0.2,0.6-0.3c0.2-0.1,0.5-0.2,0.8-0.2c0.3-0.1,0.6,0,1,0c0.4,0,0.7,0.1,1.1,0.2
				c0.3,0.1,0.7,0.3,1,0.5c0.3,0.2,0.6,0.5,0.9,0.8c0.3,0.3,0.5,0.6,0.7,1c0.2,0.3,0.3,0.7,0.5,1.1c0.1,0.4,0.2,0.7,0.2,1.1
				c0,0.3,0,0.7-0.1,1c0,0.3-0.2,0.6-0.3,0.8c-0.1,0.2-0.2,0.4-0.3,0.5C394,31.3,393.9,31.4,393.9,31.4z"/>
		</g>
		<g>
			<path class="st9" d="M373.6,35.7c0,0-0.1-0.1-0.3-0.3c-0.2-0.2-0.5-0.4-0.7-0.6c-0.6-0.4-1.2-0.7-1.7-0.8l-0.4-0.1
				c-0.2,0-0.3-0.1-0.5-0.1c-0.3,0-0.7-0.1-1-0.1c-0.4,0-0.7,0.1-1,0.1c-0.3,0.1-0.4,0.1-0.4,0.1s0-0.2,0-0.5c0-0.3,0.2-0.7,0.5-1.2
				c0.3-0.4,0.8-0.9,1.5-1.1c0.3-0.1,0.7-0.2,1.1-0.2c0.2,0,0.4,0,0.6,0l0.3,0.1l0.1,0l0,0l0.1,0c0.8,0.2,1.4,0.7,1.8,1.3
				c0.4,0.6,0.6,1.2,0.6,1.7c0,0.5-0.1,1-0.3,1.3C373.8,35.4,373.7,35.5,373.6,35.7C373.6,35.7,373.6,35.7,373.6,35.7z"/>
		</g>
		<g>
			<path class="st9" d="M359.4,49.7c0,0,0.1,0.1,0.1,0.3c0.1,0.2,0.1,0.4,0.1,0.7c0,0.5-0.1,1-0.4,1.3c-0.3,0.3-0.8,0.4-1.3,0.4
				c-0.3,0-0.5-0.1-0.7-0.1c-0.2-0.1-0.3-0.1-0.3-0.1s-0.1-0.1-0.1-0.3c-0.1-0.2-0.1-0.4-0.1-0.7c0-0.5,0.1-1,0.4-1.3
				c0.3-0.3,0.8-0.4,1.3-0.4c0.3,0,0.5,0.1,0.7,0.1C359.3,49.7,359.4,49.7,359.4,49.7z"/>
		</g>
		<g>
			<g>
				<path class="st10" d="M362,68.8"/>
			</g>
		</g>
		<g>
			<path class="st9" d="M316.8,152.6c0,0,0.2,0.1,0.5,0.2c0.1,0.1,0.3,0.2,0.5,0.3c0.2,0.1,0.4,0.3,0.7,0.5c0.5,0.4,1.1,0.9,1.7,1.6
				c0.3,0.3,0.6,0.7,0.9,1.1c0.3,0.4,0.6,0.9,0.8,1.4c1,2,1.8,4.5,2.1,7.2c0.2,1.3,0.3,2.7,0.3,4.2c0,1.4,0,2.8,0,4.2
				c-0.1,2.9-0.5,5.7-1.3,8.3c-0.4,1.3-0.8,2.6-1.3,3.7c-0.5,1.2-1.1,2.2-1.7,3.1c-0.6,0.9-1.2,1.7-1.8,2.3
				c-0.6,0.7-1.2,1.1-1.7,1.5c-0.5,0.4-0.9,0.6-1.2,0.8c-0.3,0.2-0.4,0.3-0.4,0.3s0.1-0.1,0.3-0.4c0.2-0.3,0.5-0.6,0.9-1.1
				c0.3-0.5,0.8-1.1,1.2-1.8c0.2-0.4,0.4-0.7,0.6-1.2c0.2-0.4,0.4-0.8,0.6-1.3c0.4-0.9,0.8-2,1.1-3.1c0.2-0.6,0.3-1.1,0.4-1.7
				c0.1-0.6,0.3-1.2,0.4-1.8c0.2-1.2,0.4-2.5,0.6-3.8c0.1-1.3,0.3-2.7,0.3-4c0.1-1.4,0.1-2.7,0.1-4.1c0-1.3,0-2.6-0.1-3.9
				c-0.1-1.3-0.2-2.5-0.3-3.6c-0.2-1.1-0.4-2.2-0.7-3.1c-0.3-0.9-0.7-1.8-1-2.5c-0.4-0.7-0.8-1.3-1.2-1.8c-0.2-0.2-0.4-0.4-0.5-0.6
				c-0.2-0.2-0.3-0.3-0.4-0.4C317,152.8,316.8,152.6,316.8,152.6z"/>
		</g>
		<g>
			<path class="st9" d="M299.9,155.9c0,0,0.3,0.5,0.7,1.3c0.4,0.9,0.9,2.1,1.4,3.7c0.5,1.6,0.9,3.4,1.2,5.5c0.3,2,0.4,4.3,0.3,6.4
				c-0.1,1.1-0.1,2.2-0.3,3.3c-0.2,1.1-0.5,2.2-0.8,3.2c-0.2,0.5-0.4,1-0.6,1.5c-0.1,0.2-0.2,0.5-0.4,0.7c-0.1,0.2-0.2,0.4-0.4,0.6
				c-0.6,0.9-1.2,1.5-1.9,2.1c-1.3,1.2-2.7,1.7-3.7,1.9c-0.5,0.1-0.9,0.1-1.1,0.1c-0.3,0-0.4,0-0.4,0s0.1-0.1,0.4-0.2
				c0.2-0.1,0.6-0.3,0.9-0.5c0.8-0.5,1.8-1.3,2.6-2.5c0.4-0.6,0.8-1.3,1.2-2c0.4-0.8,0.6-1.6,0.9-2.5c0.4-1.8,0.6-3.8,0.7-5.9
				c0.2-4.2,0-8.3-0.2-11.5c-0.1-1.6-0.2-2.9-0.3-3.9C299.9,156.5,299.9,155.9,299.9,155.9z"/>
		</g>
		<g>
			<path class="st9" d="M282.6,158c0,0,0.1,0.1,0.2,0.2c0.1,0.1,0.3,0.4,0.5,0.7c0.2,0.3,0.4,0.7,0.6,1.2c0.2,0.5,0.3,1.1,0.4,1.8
				c0.1,0.7,0.1,1.4,0,2.1c-0.1,0.8-0.2,1.6-0.5,2.4c-0.2,0.8-0.6,1.6-1,2.3c-0.4,0.8-0.9,1.5-1.5,2.2c-1.1,1.3-2.4,2.5-3.6,3.4
				c-0.6,0.5-1.2,0.9-1.8,1.3c-0.6,0.4-1.2,0.8-1.7,1.1c-1.1,0.6-2.3,0.9-3,0.9c-0.4,0-0.7-0.1-0.9-0.1c-0.2-0.1-0.3-0.1-0.3-0.1
				s0.1,0,0.3-0.1c0.2-0.1,0.4-0.2,0.7-0.3c0.6-0.3,1.3-0.9,2.1-1.7c0.4-0.4,0.8-0.9,1.3-1.4c0.5-0.5,1-1,1.5-1.6
				c1-1.1,2.1-2.2,3-3.4c0.5-0.6,0.9-1.2,1.3-1.8c0.4-0.6,0.8-1.2,1.1-1.8c0.6-1.2,1-2.4,1.2-3.5c0.2-1.1,0.2-2.1,0.2-2.8
				c0-0.3-0.1-0.6-0.1-0.8C282.6,158.1,282.6,158,282.6,158z"/>
		</g>
		<g>
			<path class="st9" d="M270.6,149.9c0,0,0.1,0.2,0.2,0.6c0.1,0.2,0.1,0.4,0.1,0.7c0,0.3,0,0.6,0,1c0,0.4-0.1,0.7-0.3,1.1
				c-0.1,0.4-0.3,0.7-0.6,1.1c-0.3,0.3-0.5,0.7-0.9,1c-0.3,0.3-0.7,0.6-1.1,0.8c-0.4,0.2-0.8,0.4-1.3,0.6c-0.4,0.2-0.9,0.2-1.3,0.3
				c-0.4,0-0.9,0-1.3,0c-0.4-0.1-0.8-0.1-1.1-0.3c-0.3-0.1-0.6-0.3-0.8-0.4c-0.2-0.1-0.4-0.3-0.6-0.4c-0.3-0.3-0.4-0.5-0.4-0.5
				s0.2-0.1,0.6-0.1c0.2,0,0.4-0.1,0.6-0.1c0.2,0,0.5-0.1,0.7-0.2c0.3-0.1,0.5-0.2,0.8-0.3c0.3-0.1,0.5-0.2,0.8-0.3
				c0.3-0.1,0.5-0.2,0.8-0.4c0.3-0.1,0.5-0.3,0.8-0.4c0.3-0.2,0.5-0.3,0.8-0.5c0.3-0.2,0.5-0.4,0.7-0.5c0.2-0.2,0.5-0.4,0.7-0.6
				c0.2-0.2,0.4-0.4,0.6-0.6c0.2-0.2,0.4-0.4,0.5-0.5c0.1-0.2,0.3-0.3,0.4-0.5C270.4,150.1,270.6,149.9,270.6,149.9z"/>
		</g>
		<g>
			<path class="st9" d="M264,137c0,0-0.2,0.1-0.5,0.3c-0.1,0.1-0.3,0.2-0.6,0.2c-0.3,0.1-0.5,0.1-0.8,0.1c-0.3,0-0.6,0-1-0.1
				c-0.3-0.1-0.7-0.2-1-0.4c-0.3-0.2-0.7-0.4-1-0.7c-0.3-0.3-0.6-0.6-0.8-0.9c-0.2-0.3-0.4-0.7-0.6-1.1c-0.2-0.4-0.2-0.8-0.3-1.1
				c0-0.4-0.1-0.7,0-1.1c0-0.3,0.1-0.7,0.2-1c0.1-0.3,0.2-0.5,0.4-0.7c0.1-0.2,0.3-0.4,0.4-0.5c0.3-0.2,0.4-0.3,0.4-0.3
				s0.1,0.2,0.2,0.5c0.1,0.3,0.2,0.7,0.4,1.1c0.1,0.2,0.2,0.4,0.3,0.6c0.1,0.2,0.2,0.4,0.3,0.6c0.1,0.2,0.3,0.4,0.4,0.6
				c0.1,0.2,0.3,0.4,0.4,0.6c0.2,0.2,0.3,0.4,0.4,0.6c0.2,0.2,0.3,0.4,0.5,0.6c0.2,0.2,0.3,0.4,0.5,0.5c0.2,0.2,0.3,0.3,0.5,0.5
				c0.2,0.2,0.3,0.3,0.4,0.4c0.1,0.1,0.3,0.3,0.4,0.3C263.9,136.9,264,137,264,137z"/>
		</g>
		<g>
			<path class="st9" d="M268.5,109.9c0,0,0,0-0.1,0.1c-0.1,0-0.2,0.1-0.3,0.1c-0.3,0.1-0.7,0.1-1.3,0c-0.5-0.1-1.1-0.4-1.6-1
				c-0.2-0.3-0.4-0.6-0.6-0.9c-0.1-0.2-0.2-0.4-0.2-0.5c0-0.1,0-0.2-0.1-0.3l0-0.1l0-0.1l0,0l0-0.1c0-0.2,0-0.8,0.1-1.1
				c0.1-0.4,0.2-0.7,0.4-1c0.4-0.6,0.9-1,1.4-1.2c0.5-0.2,0.9-0.3,1.3-0.2c0.3,0,0.5,0.1,0.5,0.1s-0.1,0.2-0.2,0.4
				c-0.1,0.2-0.2,0.6-0.3,0.9c-0.1,0.3-0.1,0.7-0.1,1c0,0.2,0,0.3,0,0.5c0,0.2,0,0.3,0,0.5l0,0.4c0,0.2,0.1,0.3,0.1,0.5
				c0.1,0.3,0.2,0.7,0.3,1c0.1,0.3,0.3,0.6,0.5,0.9C268.4,109.7,268.5,109.9,268.5,109.9z"/>
		</g>
		<g>
			<path class="st9" d="M284.6,95c0,0,0-0.1,0-0.3c0-0.2,0-0.4,0-0.7c0.1-0.5,0.3-0.9,0.6-1.2c0.4-0.2,0.9-0.3,1.3-0.1
				c0.2,0.1,0.5,0.2,0.6,0.3c0.2,0.1,0.3,0.2,0.3,0.2s0,0.1,0,0.3c0,0.2,0,0.4,0,0.7c-0.1,0.5-0.3,0.9-0.7,1.2
				c-0.4,0.2-0.9,0.3-1.3,0.1c-0.2-0.1-0.5-0.2-0.6-0.3C284.7,95.1,284.6,95,284.6,95z"/>
		</g>
		<path class="st11" d="M300.1,123.7c0,0,13.8-7.8,5.6-21.8c-11.7-13-27.8,5.2-27.8,5.2s13.8-11.7,25-0.5
			C307.7,118.9,300.1,123.7,300.1,123.7z"/>
		<path class="st11" d="M262.1,168.7c58.2,50.1,71.1,10.8,71.1,10.8s8.5,28.4-6,33c-14.6,4.6-25.5-11.4-25.5-11.4
			S273.6,192,262.1,168.7z"/>
		<path class="st11" d="M382.9,68.6c0,0-10.9,11.6-22.5,0.3c-9.9-14.4,11.6-25.9,11.6-25.9s-14.6,10.7-6.3,24.2
			C376.5,74.9,382.9,68.6,382.9,68.6z"/>
		<path class="st11" d="M425.1,34.4c18.9,63,7,77.8,7,77.8s13,10.4,20.9-2.6s-6.2-29-6.2-29S444.9,51.3,425.1,34.4z"/>
		<path class="st11" d="M292.7,219.5c-2.5,3.7,39.1,58.8,64.4,50.6c1-0.3-1.3-3.3-7.3-10.2C328.3,261,299.1,226.4,292.7,219.5z"/>
		<path class="st11" d="M537.6,74.9c-3.4,2.4-23.5,26.7,9.9,95.5c-0.2-14.3-0.1-27.5-0.1-27.5S529.8,99.2,537.6,74.9z"/>
	</g>
	<rect x="117.4" y="126.3" class="st12" width="120.2" height="69.4"/>
	<polygon class="st13" points="177.5,164.8 117.4,126 237.6,126 	"/>
	<path class="st0" d="M246.4,159.1c2.4,3.6-1.9,13.6-6.2,13.6c-1.3,0-3.9-2.9-6.4-6.2c-2.5-3.5-4.9-7.5-5.7-9.6
		c-1.6-4-0.3-10.8,4-10.8C237.6,146,240.4,149.9,246.4,159.1z"/>
</g>
</svg>
