<?xml version="1.0" encoding="utf-8"?>
<!-- Generator: Adobe Illustrator 19.2.1, SVG Export Plug-In . SVG Version: 6.00 Build 0)  -->
<svg version="1.1" id="Capa_2" xmlns="http://www.w3.org/2000/svg" xmlns:xlink="http://www.w3.org/1999/xlink" x="0px" y="0px"
	 viewBox="0 0 1410 1200" style="enable-background:new 0 0 1410 1200;" xml:space="preserve">
<style type="text/css">
	.st0{fill:#E91E79;}
	.st1{fill:#BD272D;}
	.st2{fill:#29A7DE;}
	.st3{fill:#87DE3F;}
	.st4{fill:#FFFFFF;}
	.st5{fill:#1D1D1B;}
	.st6{fill:#29AAE1;}
	.st7{fill:#FFFF00;}
	.st8{fill:#F7AC3B;}
	.st9{opacity:0.2;fill:#333333;}
</style>
<path class="st0" d="M1407.9,543.5c0,0-340.4-479.9-713.6-334.6C321.2,354.2,470.5,957,342.5,970c-83.3,8.5-146.7-216.7-133.6-345.6
	c12.2-119.6,17.4-216.2-9.5-210.1C167,416.8,148.6,526,148.6,526S134.4,416.7,102,421.7c-32.4,5.1-25.3,110.7-25.3,110.7
	S56.2,408.9,15.9,433c-35.3,21.1-1.8,58.6,5.5,142.5c16.2,184.4,9.5,514.7,247.2,603.9c214.6,80.5,223-107.7,223-107.7
	s-2.3,40.5-3.3,109.8c467.3-1.6,920.2,0,920.2,0L1407.9,543.5z"/>
<g>
	<g>
		<path class="st1" d="M801.6,192.7c-10-2-19.1-4-28.8,0.2c-5.4,2.3-0.7,10.1,4.6,7.8c7-3,14.7-0.7,21.8,0.8
			C804.8,202.7,807.3,193.9,801.6,192.7L801.6,192.7z"/>
	</g>
</g>
<g>
	<g>
		<path class="st1" d="M743.2,201c-8.2,0.8-14.6,6-22.5,7.7c-5.7,1.3-3.3,10,2.4,8.8c7-1.6,12.9-6.7,20-7.4
			C749,209.6,749,200.5,743.2,201L743.2,201z"/>
	</g>
</g>
<g>
	<g>
		<path class="st1" d="M693.2,219.9c-5.5,5.2-14,5.8-20,10.6c-4.5,3.7,1.9,10.1,6.4,6.4c6-4.9,14.2-5.1,20-10.6
			C703.9,222.3,697.5,215.9,693.2,219.9L693.2,219.9z"/>
	</g>
</g>
<g>
	<g>
		<path class="st1" d="M647.7,243.4c-5.1,4.4-11.1,7.7-17.2,10.3c-2.3,1-2.7,4.3-1.6,6.2c1.3,2.4,4,2.6,6.2,1.6
			c6.9-2.9,13.4-6.7,19.1-11.7C658.5,245.9,652.1,239.5,647.7,243.4L647.7,243.4z"/>
	</g>
</g>
<g>
	<g>
		<path class="st1" d="M782,209.2c-9.2-1-17.6,2.4-26.2,5.1c-5.6,1.7-3.2,10.5,2.4,8.8c7.8-2.5,15.4-5.7,23.7-4.8
			C787.8,218.9,787.8,209.8,782,209.2L782,209.2z"/>
	</g>
</g>
<g>
	<g>
		<path class="st1" d="M733.3,226.3c-7.1,2.3-15.9,1.6-21.2,7.7c-3.8,4.4,2.6,10.9,6.4,6.4c3.8-4.4,11.9-3.7,17.2-5.4
			C741.2,233.3,738.9,224.5,733.3,226.3L733.3,226.3z"/>
	</g>
</g>
<g>
	<g>
		<path class="st1" d="M690.2,244.5c-7.5,2.1-15.5,5.3-20.9,11.1c-4,4.3,2.4,10.7,6.4,6.4c4.4-4.7,10.9-7,16.9-8.7
			C698.2,251.7,695.8,242.9,690.2,244.5L690.2,244.5z"/>
	</g>
</g>
<g>
	<g>
		<path class="st1" d="M816.7,230.5c-8-1.6-15.9-3.6-23.9-5.2c-5.7-1.2-8.2,7.6-2.4,8.8c8,1.6,15.9,3.6,23.9,5.2
			C820,240.4,822.4,231.7,816.7,230.5L816.7,230.5z"/>
	</g>
</g>
<g>
	<g>
		<path class="st1" d="M771.1,231c-9.1,1.2-19.1,2.1-26.3,8.5c-4.4,3.9,2.1,10.3,6.4,6.4c5.1-4.5,13.4-5,19.8-5.9
			C776.8,239.4,776.9,230.3,771.1,231L771.1,231z"/>
	</g>
</g>
<g>
	<g>
		<path class="st1" d="M720.9,261.2c5.8,0,5.9-9.1,0-9.1C715,252.1,715,261.2,720.9,261.2L720.9,261.2z"/>
	</g>
</g>
<g>
	<g>
		<path class="st1" d="M717.3,252.3c-8.2,2.7-14.4,9.4-22.6,12c-5.6,1.7-3.2,10.5,2.4,8.8c8.3-2.6,14.4-9.3,22.6-12
			C725.3,259.2,722.9,250.4,717.3,252.3L717.3,252.3z"/>
	</g>
</g>
<g>
	<g>
		<path class="st1" d="M695.8,293.8c4.8-5.2,12.5-6.1,18.5-9.6c5.1-2.9,0.5-10.8-4.6-7.8c-6.8,3.9-14.8,5-20.3,11
			C685.3,291.6,691.7,298,695.8,293.8L695.8,293.8z"/>
	</g>
</g>
<g>
	<g>
		<path class="st1" d="M738.6,273c7.2-4,14.6-6.5,22.7-8c5.7-1.1,3.3-9.8-2.4-8.8c-8.8,1.6-17,4.6-24.9,8.9
			C728.9,268,733.5,275.9,738.6,273L738.6,273z"/>
	</g>
</g>
<g>
	<g>
		<path class="st1" d="M786.7,258.7c7.5,0.4,15.1-0.8,22.4,1.7c5.5,1.9,7.9-6.9,2.4-8.8c-8.1-2.8-16.5-1.5-24.8-2
			C780.9,249.2,780.9,258.3,786.7,258.7L786.7,258.7z"/>
	</g>
</g>
<g>
	<g>
		<path class="st1" d="M831.9,279c-5.8-4.5-11.1-9.4-18.4-11c-5.7-1.3-8.1,7.5-2.4,8.8c5.8,1.3,9.9,5.1,14.4,8.7
			c1.9,1.5,4.5,1.9,6.4,0C833.5,283.8,833.8,280.5,831.9,279L831.9,279z"/>
	</g>
</g>
<g>
	<g>
		<path class="st1" d="M791.4,267.8c-7.4-1.8-18.5-1.5-24.8,3.3c-4.6,3.5,0,11.4,4.6,7.8c4.4-3.4,12.5-3.7,17.8-2.4
			C794.7,278,797.1,269.3,791.4,267.8L791.4,267.8z"/>
	</g>
</g>
<g>
	<g>
		<path class="st1" d="M748.7,280.2c-8.5,0.4-17,3.3-24.4,7.5c-5.1,2.9-0.5,10.8,4.6,7.8c5.9-3.4,12.9-6,19.8-6.3
			C754.5,289,754.6,279.9,748.7,280.2L748.7,280.2z"/>
	</g>
</g>
<g>
	<g>
		<path class="st1" d="M791.9,300.2c8.9,1.8,16.4,5.4,24.1,10.2c5,3.1,9.6-4.8,4.6-7.8c-8.3-5.1-16.7-9.1-26.3-11.1
			C788.6,290.3,786.1,299,791.9,300.2L791.9,300.2z"/>
	</g>
</g>
<g>
	<g>
		<path class="st1" d="M750.5,307.8c6.6-2.8,12.5-8.3,20-7.7c5.8,0.5,5.8-8.6,0-9.1c-9.4-0.8-16.5,5.5-24.6,8.9
			C740.5,302.2,745.2,310.1,750.5,307.8L750.5,307.8z"/>
	</g>
</g>
<g>
	<g>
		<path class="st1" d="M716.6,322.3c4.7-3.5,10-6,14.5-9.8c1.9-1.6,1.6-4.8,0-6.4c-1.9-1.9-4.5-1.6-6.4,0c-3.9,3.2-8.6,5.4-12.6,8.4
			c-2,1.5-3,3.9-1.6,6.2C711.5,322.6,714.6,323.7,716.6,322.3L716.6,322.3z"/>
	</g>
</g>
<g>
	<g>
		<path class="st1" d="M680.7,346.3c5.2-5.4,11.4-9.1,18.4-11.7c5.4-2,3.1-10.8-2.4-8.8c-8.5,3.1-16.1,7.5-22.4,14.1
			C670.2,344,676.6,350.5,680.7,346.3L680.7,346.3z"/>
	</g>
</g>
<g>
	<g>
		<path class="st1" d="M639.6,378.1c6.5-5.8,12.8-11.8,20.3-16.3c5-3,0.5-10.8-4.6-7.8c-8.2,4.8-15.1,11.3-22.1,17.7
			C628.8,375.6,635.3,382,639.6,378.1L639.6,378.1z"/>
	</g>
</g>
<g>
	<g>
		<path class="st1" d="M613.2,408.3c2.3-5.7,6.8-9.4,11.3-13.4c4.4-3.9-2.1-10.3-6.4-6.4c-5.8,5.2-10.6,10.1-13.6,17.4
			c-0.9,2.3,1,5,3.2,5.6C610.2,412.2,612.3,410.5,613.2,408.3L613.2,408.3z"/>
	</g>
</g>
<g>
	<g>
		<path class="st1" d="M591.8,443.1c1.2-5.8,3.8-13.1,9.2-16.2c5-3,0.5-10.8-4.6-7.8c-7.4,4.4-11.6,13.5-13.4,21.6
			C581.8,446.4,590.6,448.8,591.8,443.1L591.8,443.1z"/>
	</g>
</g>
<g>
	<g>
		<path class="st1" d="M637.8,401.3c4.4-4.6,8-9.9,13.1-13.9c1.9-1.5,1.6-4.8,0-6.4c-1.9-1.9-4.5-1.5-6.4,0
			c-5.1,3.9-8.6,9.3-13.1,13.9C627.3,399,633.7,405.5,637.8,401.3L637.8,401.3z"/>
	</g>
</g>
<g>
	<g>
		<path class="st1" d="M674.6,370c2.6-2.4,5.2-5.7,8.6-7.1c2.3-0.9,3.9-3,3.2-5.6c-0.6-2.1-3.3-4.1-5.6-3.2
			c-5.1,2.1-8.6,5.8-12.6,9.4C663.8,367.5,670.3,373.9,674.6,370L674.6,370z"/>
	</g>
</g>
<g>
	<g>
		<path class="st1" d="M676.1,280.6c5.8,0,5.9-9.1,0-9.1C670.3,271.5,670.3,280.6,676.1,280.6L676.1,280.6z"/>
	</g>
</g>
<g>
	<g>
		<path class="st1" d="M712.1,344.5c6.2-5.1,14.3-7.3,21.2-11.4c5-3,0.5-10.8-4.6-7.8c-7.6,4.5-16.1,7.1-23.1,12.8
			C701.1,341.7,707.6,348.1,712.1,344.5L712.1,344.5z"/>
	</g>
</g>
<g>
	<g>
		<path class="st1" d="M762.3,323c8.3-1,22.2-6.5,29.5-0.5c4.5,3.7,11-2.7,6.4-6.4c-10.6-8.6-23.9-3.7-36-2.2
			C756.5,314.6,756.5,323.7,762.3,323L762.3,323z"/>
	</g>
</g>
<g>
	<g>
		<path class="st1" d="M814.5,336.9c4.3,1.9,7.6,5.9,9.7,10c2.6,5.2,10.5,0.6,7.8-4.6c-2.7-5.3-7.5-10.8-13-13.3
			c-2.2-1-4.9-0.6-6.2,1.6C811.7,332.6,812.2,335.9,814.5,336.9L814.5,336.9z"/>
	</g>
</g>
<g>
	<g>
		<path class="st1" d="M652.1,273.5c5.8,0,5.9-9.1,0-9.1C646.3,264.4,646.3,273.5,652.1,273.5L652.1,273.5z"/>
	</g>
</g>
<g>
	<g>
		<path class="st1" d="M513.8,378.2c-3.8,4.5-5.2,10.2-8.6,14.9c-1.5,2-0.3,5.1,1.6,6.2c2.3,1.3,4.8,0.4,6.2-1.6c2.9-4,4-9.2,7.2-13
			C524,380.2,517.6,373.7,513.8,378.2L513.8,378.2z"/>
	</g>
</g>
<g>
	<g>
		<path class="st1" d="M489.9,425.3c-3.3,6.7-5.2,13.8-7.6,20.8c-1.9,5.5,6.9,7.9,8.8,2.4c2.1-6.2,3.8-12.7,6.7-18.7
			C500.3,424.7,492.5,420.1,489.9,425.3L489.9,425.3z"/>
	</g>
</g>
<g>
	<g>
		<path class="st1" d="M466.5,480.6c-2,5.8-2.9,12-4.9,17.8c-1.9,5.5,6.9,7.9,8.8,2.4c2-5.8,2.9-12,4.9-17.8
			C477.2,477.5,468.4,475.1,466.5,480.6L466.5,480.6z"/>
	</g>
</g>
<g>
	<g>
		<path class="st1" d="M454.5,529.5c-1.3,6.6-2.6,13.3-3.9,19.9c-1.1,5.7,7.6,8.2,8.8,2.4c1.3-6.6,2.6-13.3,3.9-19.9
			C464.4,526.2,455.6,523.8,454.5,529.5L454.5,529.5z"/>
	</g>
</g>
<g>
	<g>
		<path class="st1" d="M444.8,578.4c-2.2,5.9-4.1,11.9-4.5,18.2c-0.3,5.8,8.8,5.8,9.1,0c0.3-5.5,2.2-10.7,4.1-15.8
			C455.6,575.3,446.9,573,444.8,578.4L444.8,578.4z"/>
	</g>
</g>
<g>
	<g>
		<path class="st1" d="M435,628.2c-1.6,8.1-3.2,16.3-4.8,24.4c-1.1,5.7,7.6,8.2,8.8,2.4c1.6-8.1,3.2-16.3,4.8-24.4
			C444.9,624.9,436.1,622.4,435,628.2L435,628.2z"/>
	</g>
</g>
<g>
	<g>
		<path class="st1" d="M426.2,686.6c-1.3,6.8-2.2,13.6-2.1,20.6c0,5.8,9.1,5.9,9.1,0c0-6.1,0.6-12.1,1.8-18.2
			C436.1,683.3,427.4,680.9,426.2,686.6L426.2,686.6z"/>
	</g>
</g>
<g>
	<g>
		<path class="st1" d="M422.1,736.1c-1.7,8.8-2.4,17.6-2.8,26.5c-0.2,5.9,8.9,5.8,9.1,0c0.3-8.1,1-16.1,2.5-24.1
			C432,732.8,423.2,730.4,422.1,736.1L422.1,736.1z"/>
	</g>
</g>
<g>
	<g>
		<path class="st1" d="M417.7,792c-0.6,7-1.9,13.8-3.2,20.7c-1.1,5.7,7.6,8.2,8.8,2.4c1.5-7.7,2.9-15.3,3.5-23.1
			C427.3,786.2,418.2,786.2,417.7,792L417.7,792z"/>
	</g>
</g>
<g>
	<g>
		<path class="st1" d="M411.9,845.1c-1.5,8-2.2,16.1-3.3,24.1c-0.7,5.8,8.3,5.7,9.1,0c0.9-7.2,1.6-14.5,3-21.7
			C421.7,841.8,413,839.3,411.9,845.1L411.9,845.1z"/>
	</g>
</g>
<g>
	<g>
		<path class="st1" d="M405,901.1c-1.8,8.2-6.5,15.2-9.3,23.1c-1.9,5.5,6.9,7.9,8.8,2.4c2.7-7.9,7.4-14.9,9.3-23.1
			C415.1,897.8,406.3,895.4,405,901.1L405,901.1z"/>
	</g>
</g>
<g>
	<g>
		<path class="st1" d="M387.6,946.6c-1.5,7-4.6,12.8-10.2,17.4c-4.5,3.7,2,10.1,6.4,6.4c6.6-5.5,10.7-13,12.5-21.4
			C397.6,943.3,388.8,940.8,387.6,946.6L387.6,946.6z"/>
	</g>
</g>
<g>
	<g>
		<path class="st1" d="M353.7,980.7c-9,2.5-18.4,4.9-27.5,1.6c-5.5-2-7.9,6.8-2.4,8.8c10.6,3.8,21.8,1.3,32.4-1.6
			C361.8,988,359.4,979.2,353.7,980.7L353.7,980.7z"/>
	</g>
</g>
<g>
	<g>
		<path class="st1" d="M296.6,965.7c-10.6-3.6-15.3-13.5-19.6-23c-2.4-5.3-10.3-0.7-7.8,4.6c5.5,12,11.9,22.7,25,27.2
			C299.7,976.3,302.1,967.6,296.6,965.7L296.6,965.7z"/>
	</g>
</g>
<g>
	<g>
		<path class="st1" d="M252.8,911.4c0.1-9.8-6.9-19.3-12.2-27.1c-3.2-4.8-11.1-0.3-7.8,4.6c4.2,6.3,11,14.6,10.9,22.6
			C243.6,917.2,252.7,917.2,252.8,911.4L252.8,911.4z"/>
	</g>
</g>
<g>
	<g>
		<path class="st1" d="M230.1,864.1c0.4-10.1-2.4-23.1-9-31.1c-3.7-4.5-10.1,1.9-6.4,6.4c4.9,6,6.6,17.2,6.3,24.6
			C220.8,870,229.9,870,230.1,864.1L230.1,864.1z"/>
	</g>
</g>
<g>
	<g>
		<path class="st1" d="M119.4,559.3c-1.4,8.5,0.7,16.2,1.3,24.5c0.4,5.8,9.5,5.8,9.1,0c-0.5-7.3-2.9-14.7-1.7-22.1
			C129.1,556,120.4,553.5,119.4,559.3L119.4,559.3z"/>
	</g>
</g>
<g>
	<g>
		<path class="st1" d="M197.2,782.1c2.8,9.1,0.1,19,6.1,27.1c3.5,4.6,11.4,0.1,7.8-4.6c-5.3-7.1-2.7-16.8-5.2-25
			C204.3,774.1,195.5,776.4,197.2,782.1L197.2,782.1z"/>
	</g>
</g>
<g>
	<g>
		<path class="st1" d="M188.7,718.5c-0.4,8.2,4.6,16.7,2.6,24.7c-1.4,5.7,7.3,8.1,8.8,2.4c2.4-9.3-2.7-17.8-2.2-27.1
			C198,712.7,189,712.7,188.7,718.5L188.7,718.5z"/>
	</g>
</g>
<g>
	<g>
		<path class="st1" d="M183.1,656.1c3.5,10.6-1.3,21.7,2.1,32.4c1.7,5.6,10.5,3.2,8.8-2.4c-3.3-10.5,1.5-21.7-2.1-32.4
			C190,648.1,181.2,650.5,183.1,656.1L183.1,656.1z"/>
	</g>
</g>
<g>
	<g>
		<path class="st1" d="M161.8,619.2c0.2,8.5,1.6,16.9,2,25.3c0.3,5.8,9.4,5.9,9.1,0c-0.4-8.5-1.8-16.8-2-25.3
			C170.7,613.3,161.6,613.3,161.8,619.2L161.8,619.2z"/>
	</g>
</g>
<g>
	<g>
		<path class="st1" d="M165.1,682.6c-2.2,10.8,1.7,20.8,1.4,31.6c-0.2,5.9,8.9,5.8,9.1,0c0.3-9.8-3.7-19.4-1.7-29.2
			C175.1,679.3,166.3,676.8,165.1,682.6L165.1,682.6z"/>
	</g>
</g>
<g>
	<g>
		<path class="st1" d="M174.9,750.1c-0.4,8.4,3.8,16.8,2.5,25.1c-0.9,5.7,7.9,8.2,8.8,2.4c1.4-9.5-2.6-18.2-2.2-27.5
			C184.3,744.3,175.2,744.3,174.9,750.1L174.9,750.1z"/>
	</g>
</g>
<g>
	<g>
		<path class="st1" d="M185,820.1c1.8,8.2,5.7,15.8,7.5,24c1.3,5.7,10,3.3,8.8-2.4c-1.8-8.2-5.7-15.8-7.5-24
			C192.5,812,183.7,814.4,185,820.1L185,820.1z"/>
	</g>
</g>
<g>
	<g>
		<path class="st1" d="M201.2,877.3c2.9,1.4,4.6,5.8,6.1,8.5c1.9,3.5,3.5,7.1,5.1,10.8c2.4,5.3,10.2,0.7,7.8-4.6
			c-1.9-4.3-3.8-8.5-6.1-12.6c-2-3.6-4.5-8-8.3-9.9C200.6,866.8,196,874.7,201.2,877.3L201.2,877.3z"/>
	</g>
</g>
<g>
	<g>
		<path class="st1" d="M230.1,924.9c1.4,4.4,2.7,8.9,5.1,12.8c2.2,3.6,6.2,5.6,8.1,9.1c2.7,5.2,10.6,0.6,7.8-4.6
			c-1.8-3.5-5.1-5-7.4-8c-2.6-3.4-3.7-7.7-4.9-11.7C237.1,916.9,228.4,919.3,230.1,924.9L230.1,924.9z"/>
	</g>
</g>
<g>
	<g>
		<path class="st1" d="M272,985.8c7.6,3.3,13.5,9.4,20.9,13.1c5.2,2.6,9.8-5.2,4.6-7.8c-7.4-3.7-13.3-9.8-20.9-13.1
			C271.2,975.7,266.6,983.5,272,985.8L272,985.8z"/>
	</g>
</g>
<g>
	<g>
		<path class="st1" d="M364.8,1005.3c8.6-2.6,16.1-8.8,23-14.4c4.5-3.7-1.9-10.1-6.4-6.4c-5.6,4.6-12,9.9-19,12.1
			C356.8,998.3,359.2,1007.1,364.8,1005.3L364.8,1005.3z"/>
	</g>
</g>
<g>
	<g>
		<path class="st1" d="M411.5,961.6c4.3-7.4,6.5-15.7,10.3-23.4c2.5-5.2-5.3-9.9-7.8-4.6c-3.7,7.7-5.9,16-10.3,23.4
			C400.7,962.1,408.5,966.7,411.5,961.6L411.5,961.6z"/>
	</g>
</g>
<g>
	<g>
		<path class="st1" d="M429.5,904.8c1.7-8.4,3.3-16.9,5-25.3c1.1-5.7-7.6-8.2-8.8-2.4c-1.7,8.4-3.3,16.9-5,25.3
			C419.6,908.1,428.4,910.5,429.5,904.8L429.5,904.8z"/>
	</g>
</g>
<g>
	<g>
		<path class="st1" d="M439.7,846.1c1.5-7.2,4.1-14.1,4.2-21.6c0.1-5.9-9-5.9-9.1,0c-0.1,6.6-2.5,12.8-3.9,19.2
			C429.7,849.4,438.5,851.8,439.7,846.1L439.7,846.1z"/>
	</g>
</g>
<g>
	<g>
		<path class="st1" d="M443.3,794.6c1.3-9,3-17.9,2.9-27c0-5.8-9.1-5.9-9.1,0c0.1,8.3-1.4,16.4-2.6,24.6
			C433.7,797.9,442.5,800.4,443.3,794.6L443.3,794.6z"/>
	</g>
</g>
<g>
	<g>
		<path class="st1" d="M450.8,733.1c1.2-6.3,2.1-12.8,3.3-19.1c1.1-5.7-7.7-8.2-8.8-2.4c-1.2,6.3-2.1,12.8-3.3,19.1
			C440.9,736.4,449.7,738.8,450.8,733.1L450.8,733.1z"/>
	</g>
</g>
<g>
	<g>
		<path class="st1" d="M453.7,687.1c1.5-7.5,3-15.1,4.5-22.6c1.1-5.7-7.6-8.2-8.8-2.4c-1.5,7.5-3,15.1-4.5,22.6
			C443.8,690.4,452.6,692.9,453.7,687.1L453.7,687.1z"/>
	</g>
</g>
<g>
	<g>
		<path class="st1" d="M461.6,630.8c1.8-8.6,4.7-16.9,6.5-25.5c1.2-5.7-7.6-8.1-8.8-2.4c-1.8,8.6-4.7,16.9-6.5,25.5
			C451.6,634.1,460.4,636.6,461.6,630.8L461.6,630.8z"/>
	</g>
</g>
<g>
	<g>
		<path class="st1" d="M473.6,574.9c1.3-6.5,3-12.9,4.3-19.4c1.2-5.7-7.6-8.2-8.8-2.4c-1.3,6.5-3,12.9-4.3,19.4
			C463.6,578.2,472.4,580.6,473.6,574.9L473.6,574.9z"/>
	</g>
</g>
<g>
	<g>
		<path class="st1" d="M481.8,533.3c1.5-7.7,2.2-15.6,4.6-23.1c1.7-5.6-7-8-8.8-2.4c-2.3,7.5-3.1,15.4-4.6,23.1
			C471.9,536.6,480.7,539,481.8,533.3L481.8,533.3z"/>
	</g>
</g>
<g>
	<g>
		<path class="st1" d="M495.7,481.9c1.7-6.2,3.1-13.3,7.1-18.5c3.5-4.6-2.8-11-6.4-6.4c-5.1,6.6-7.3,14.5-9.4,22.5
			C485.4,485.2,494.2,487.6,495.7,481.9L495.7,481.9z"/>
	</g>
</g>
<g>
	<g>
		<path class="st1" d="M519.1,430.1c1.7-7.4,6.7-13.5,8.4-20.9c1.3-5.7-7.5-8.1-8.8-2.4c-1.7,7.4-6.7,13.5-8.4,20.9
			C509,433.4,517.8,435.9,519.1,430.1L519.1,430.1z"/>
	</g>
</g>
<g>
	<g>
		<path class="st1" d="M523.8,461.2c0.9-6.5,3.4-13.7,7.6-18.8c3.7-4.5-2.7-10.9-6.4-6.4c-5.3,6.3-8.8,14.7-10,22.8
			C514.2,464.5,522.9,466.9,523.8,461.2L523.8,461.2z"/>
	</g>
</g>
<g>
	<g>
		<path class="st1" d="M537.8,426.3c5.8,0,5.9-9.1,0-9.1C531.9,417.2,531.9,426.3,537.8,426.3L537.8,426.3z"/>
	</g>
</g>
<g>
	<g>
		<path class="st1" d="M506.2,481.9c-1.6,7.2-5.4,13.6-7.8,20.6c-2,5.5,6.8,7.9,8.8,2.4c2.5-6.9,6.2-13.3,7.8-20.6
			C516.2,478.6,507.5,476.2,506.2,481.9L506.2,481.9z"/>
	</g>
</g>
<g>
	<g>
		<path class="st1" d="M492.7,531c-1.1,5.6-2.6,11-4.8,16.2c-2.3,5.3,5.5,9.9,7.8,4.6c2.6-6,4.5-12,5.8-18.4
			C502.7,527.7,493.9,525.3,492.7,531L492.7,531z"/>
	</g>
</g>
<g>
	<g>
		<path class="st1" d="M485.4,580.3c-1.4,6.9-2.7,13.8-3.6,20.8c-0.7,5.8,8.3,5.7,9.1,0c0.8-6.2,2-12.3,3.2-18.3
			C495.2,577,486.5,574.6,485.4,580.3L485.4,580.3z"/>
	</g>
</g>
<g>
	<g>
		<path class="st1" d="M473.7,632.1c-1.3,6.3-2.5,12.7-3.8,19c-1.1,5.7,7.6,8.2,8.8,2.4c1.3-6.3,2.5-12.7,3.8-19
			C483.6,628.8,474.8,626.3,473.7,632.1L473.7,632.1z"/>
	</g>
</g>
<g>
	<g>
		<path class="st1" d="M465.5,683.1c-1.5,8.5-1.5,17,0.1,25.5c1.1,5.7,9.9,3.3,8.8-2.4c-1.3-6.8-1.4-13.9-0.1-20.7
			C475.3,679.8,466.5,677.4,465.5,683.1L465.5,683.1z"/>
	</g>
</g>
<g>
	<g>
		<path class="st1" d="M460.7,738.1c-1.3,6.8-2.7,13.6-4,20.4c-1.1,5.7,7.6,8.2,8.8,2.4c1.3-6.8,2.7-13.6,4-20.4
			C470.6,734.8,461.9,732.4,460.7,738.1L460.7,738.1z"/>
	</g>
</g>
<g>
	<g>
		<path class="st1" d="M455.5,791.5c0.3,7.2-0.5,14.3-0.9,21.4c-0.4,5.8,8.7,5.8,9.1,0c0.5-7.2,1.2-14.3,0.9-21.4
			C464.3,785.6,455.2,785.6,455.5,791.5L455.5,791.5z"/>
	</g>
</g>
<g>
	<g>
		<path class="st1" d="M447.5,845.6c-1.6,7.6-4.9,15.1-3.1,23c1.3,5.7,10,3.3,8.8-2.4c-1.3-5.9,1.9-12.4,3.1-18.1
			C457.5,842.3,448.7,839.8,447.5,845.6L447.5,845.6z"/>
	</g>
</g>
<g>
	<g>
		<path class="st1" d="M441.6,901.8c-1.4,7.6-2.2,15.3-4.9,22.5c-2.1,5.5,6.7,7.9,8.8,2.4c2.7-7.3,3.5-15,4.9-22.5
			C451.4,898.5,442.7,896,441.6,901.8L441.6,901.8z"/>
	</g>
</g>
<g>
	<g>
		<path class="st1" d="M422.6,959.6c-1.9,8.1-9.1,13.4-13.6,20.1c-3.2,4.9,4.6,9.4,7.8,4.6c5-7.6,12.4-13,14.5-22.3
			C432.7,956.3,423.9,953.9,422.6,959.6L422.6,959.6z"/>
	</g>
</g>
<g>
	<g>
		<path class="st1" d="M335.2,1005.8c-5.5-1-11.2-0.5-16.6-1.9c-5.7-1.4-8.1,7.3-2.4,8.8c5.5,1.4,11.1,0.9,16.6,1.9
			C338.5,1015.5,341,1006.8,335.2,1005.8L335.2,1005.8z"/>
	</g>
</g>
<g>
	<g>
		<path class="st1" d="M373.1,1011.7c-4.5,5.9-14.4,9.2-21.6,10.1c-5.7,0.7-5.8,9.8,0,9.1c10.8-1.4,22.7-5.7,29.4-14.6
			C384.5,1011.6,376.6,1007,373.1,1011.7L373.1,1011.7z"/>
	</g>
</g>
<g>
	<g>
		<path class="st1" d="M306.6,1017.5c-7-1.6-12-7.4-18.8-9.8c-5.5-2-7.9,6.8-2.4,8.8c6.8,2.5,11.5,8.2,18.8,9.8
			C309.9,1027.6,312.3,1018.8,306.6,1017.5L306.6,1017.5z"/>
	</g>
</g>
<g>
	<g>
		<path class="st1" d="M259,986.1c-2.6-4-5-8.2-8-11.9c-2.3-2.9-6.4-4.6-7.1-8.4c-1-5.8-9.8-3.3-8.8,2.4c0.8,4.5,3.7,6.9,7,9.8
			c3.8,3.4,6.2,8.5,9,12.7C254.4,995.6,262.2,991,259,986.1L259,986.1z"/>
	</g>
</g>
<g>
	<g>
		<path class="st1" d="M197.7,912.9c0.8,4.2,3.4,7.6,6.4,10.6c2.8,2.9,6.3,5.5,7.5,9.5c1.6,5.6,10.4,3.2,8.8-2.4
			c-1.3-4.3-3.9-7.7-7-10.8c-2.8-2.8-6.1-5.3-6.8-9.4C205.4,904.7,196.6,907.2,197.7,912.9L197.7,912.9z"/>
	</g>
</g>
<g>
	<g>
		<path class="st1" d="M174.6,851.6c-0.9,9.3,1.7,20,5.8,28.2c2.6,5.2,10.5,0.6,7.8-4.6c-3.5-6.9-5.4-16-4.6-23.7
			C184.3,845.8,175.2,845.9,174.6,851.6L174.6,851.6z"/>
	</g>
</g>
<g>
	<g>
		<path class="st1" d="M160,789.7c0.9,3.7,2.3,7.2,3.6,10.8c1.1,3,2.8,6.8,2.2,10.1c-1.2,5.7,7.6,8.2,8.8,2.4
			c1.8-8.9-3.8-17.2-5.8-25.7C167.4,781.6,158.6,784,160,789.7L160,789.7z"/>
	</g>
</g>
<g>
	<g>
		<path class="st1" d="M150.8,723.9c-2,9.6,2,19.9,5.1,28.8c1.9,5.5,10.7,3.1,8.8-2.4c-2.4-7-6.7-16.4-5.1-24
			C160.8,720.6,152.1,718.2,150.8,723.9L150.8,723.9z"/>
	</g>
</g>
<g>
	<g>
		<path class="st1" d="M141.5,652.8c-1,9.2,2.4,18.1,4.5,27c1.3,5.7,10.1,3.3,8.8-2.4c-1.9-8.1-5-16.1-4.1-24.6
			C151.2,647,142.1,647,141.5,652.8L141.5,652.8z"/>
	</g>
</g>
<g>
	<g>
		<path class="st1" d="M135.4,600c-1.9,8.5-0.2,16.7,0.3,25.3c0.3,5.8,9.4,5.9,9.1,0c-0.4-7.6-2.2-15.3-0.6-22.9
			C145.4,596.7,136.6,594.3,135.4,600L135.4,600z"/>
	</g>
</g>
<g>
	<g>
		<path class="st1" d="M118.2,620.1c-1.6,9.7,0.9,18.9,2.9,28.4c1.2,5.7,9.9,3.3,8.8-2.4c-1.6-7.7-4.2-15.6-2.9-23.5
			C127.9,616.8,119.2,614.4,118.2,620.1L118.2,620.1z"/>
	</g>
</g>
<g>
	<g>
		<path class="st1" d="M125.5,688.2c-0.6,8.8,1.9,17.2,2.9,26c0.6,5.8,9.7,5.8,9.1,0c-0.9-8.7-3.4-17.2-2.9-26
			C135,682.4,125.9,682.4,125.5,688.2L125.5,688.2z"/>
	</g>
</g>
<g>
	<g>
		<path class="st1" d="M135.4,751.9c-2.3,11.4,2.3,21.9,2.4,33.2c0.1,5.8,9.2,5.9,9.1,0c-0.1-10.3-4.9-20.5-2.8-30.8
			C145.4,748.6,136.6,746.2,135.4,751.9L135.4,751.9z"/>
	</g>
</g>
<g>
	<g>
		<path class="st1" d="M143,817c3.9,7.4,3.9,16.1,6.8,23.9c2.1,5.4,10.9,3.1,8.8-2.4c-3.3-8.5-3.5-17.8-7.8-26
			C148.2,807.2,140.3,811.8,143,817L143,817z"/>
	</g>
</g>
<g>
	<g>
		<path class="st1" d="M158.5,886.7c7.3,5.1,8.7,16.9,13,24.3c2.9,5.1,10.8,0.5,7.8-4.6c-5.4-9.3-6.9-21-16.3-27.6
			C158.2,875.5,153.7,883.4,158.5,886.7L158.5,886.7z"/>
	</g>
</g>
<g>
	<g>
		<path class="st1" d="M194,943.6c2.8,10.1,8.9,19,15.5,26.9c3.8,4.5,10.2-2,6.4-6.4c-5.6-6.7-10.8-14.4-13.2-22.9
			C201.2,935.6,192.4,938,194,943.6L194,943.6z"/>
	</g>
</g>
<g>
	<g>
		<path class="st1" d="M230.6,1001.4c9.3,1.3,13.9,11.7,23.1,14c5.7,1.4,8.1-7.4,2.4-8.8c-4.5-1.1-7.5-4.7-10.8-7.6
			c-3.6-3.1-7.5-5.7-12.3-6.4C227.2,991.8,224.8,1000.6,230.6,1001.4L230.6,1001.4z"/>
	</g>
</g>
<g>
	<g>
		<path class="st1" d="M550.6,446.7c1.3-4,2.5-8,3.8-12c1.8-5.6-7-8-8.8-2.4c-1.3,4-2.5,8-3.8,12
			C540.1,449.9,548.8,452.3,550.6,446.7L550.6,446.7z"/>
	</g>
</g>
<g>
	<g>
		<path class="st1" d="M529.2,467.7c-1.7,7.4-5.9,13.8-8.4,20.9c-1.9,5.5,6.8,7.9,8.8,2.4c2.5-7.1,6.7-13.5,8.4-20.9
			C539.3,464.4,530.5,462,529.2,467.7L529.2,467.7z"/>
	</g>
</g>
<g>
	<g>
		<path class="st1" d="M519.1,514.1c-1.4,7-2.4,14-5,20.6c-2.1,5.4,6.6,7.8,8.8,2.4c2.6-6.6,3.7-13.7,5-20.6
			C529,510.8,520.2,508.4,519.1,514.1L519.1,514.1z"/>
	</g>
</g>
<g>
	<g>
		<path class="st1" d="M507.6,555.6c-1.4,7.1-2.8,14.2-4.2,21.3c-1.1,5.7,7.6,8.2,8.8,2.4c1.4-7.1,2.8-14.2,4.2-21.3
			C517.5,552.3,508.8,549.8,507.6,555.6L507.6,555.6z"/>
	</g>
</g>
<g>
	<g>
		<path class="st1" d="M497.1,606.6c-1.5,7.3-3.3,14.4-5.7,21.5c-1.8,5.6,7,8,8.8,2.4c2.3-7,4.2-14.2,5.7-21.5
			C507,603.3,498.2,600.9,497.1,606.6L497.1,606.6z"/>
	</g>
</g>
<g>
	<g>
		<path class="st1" d="M487.3,658.3c-1.8,8.6-4.2,17-4.1,25.8c0.1,5.8,9.2,5.9,9.1,0c-0.1-8,2.2-15.6,3.8-23.4
			C497.3,655,488.5,652.6,487.3,658.3L487.3,658.3z"/>
	</g>
</g>
<g>
	<g>
		<path class="st1" d="M481.1,713.8c-0.4,6.3-1.9,12.5-1.9,18.9c0.1,5.8,9.1,5.9,9.1,0c-0.1-6.4,1.5-12.6,1.9-18.9
			C490.6,708,481.5,708,481.1,713.8L481.1,713.8z"/>
	</g>
</g>
<g>
	<g>
		<path class="st1" d="M477.5,760.3c-1.7,8.2-3.9,16.1-2.5,24.5c1,5.8,9.8,3.3,8.8-2.4c-1.1-6.5,1.2-13.3,2.5-19.7
			C487.5,757,478.7,754.6,477.5,760.3L477.5,760.3z"/>
	</g>
</g>
<g>
	<g>
		<path class="st1" d="M473.2,813c-1.3,6.9-0.9,15.2-4.5,21.5c-2.9,5.1,4.9,9.7,7.8,4.6c4.1-7.2,3.9-15.7,5.4-23.6
			C483,809.7,474.3,807.3,473.2,813L473.2,813z"/>
	</g>
</g>
<g>
	<g>
		<path class="st1" d="M467.2,862.6c-1.3,7.2-1.1,15.6-5.5,21.7c-3.4,4.8,4.5,9.3,7.8,4.6c4.9-6.9,4.9-15.8,6.4-23.9
			C477,859.3,468.2,856.9,467.2,862.6L467.2,862.6z"/>
	</g>
</g>
<g>
	<g>
		<path class="st1" d="M454.3,923.1c-1.7,7.9-4.4,15.5-7.4,23c-2.1,5.5,6.7,7.8,8.8,2.4c2.9-7.5,5.7-15.1,7.4-23
			C464.2,919.8,455.5,917.4,454.3,923.1L454.3,923.1z"/>
	</g>
</g>
<g>
	<g>
		<path class="st1" d="M421,990.6c-4.1,7.6-11.6,12.7-19,16.9c-5.1,2.9-0.5,10.8,4.6,7.8c8.6-4.9,17.4-11.2,22.2-20.1
			C431.6,990,423.7,985.4,421,990.6L421,990.6z"/>
	</g>
</g>
<g>
	<g>
		<path class="st1" d="M559.4,448.8c-1.6,6.7-6.2,12-9.4,18.1c-2.7,5.2,5.2,9.8,7.8,4.6c3.5-6.8,8.5-12.7,10.3-20.2
			C569.5,445.5,560.8,443.1,559.4,448.8L559.4,448.8z"/>
	</g>
</g>
<g>
	<g>
		<path class="st1" d="M543.6,486.1c-1.3,6.5-2,13.5-4.8,19.6c-2.5,5.3,5.4,9.9,7.8,4.6c3.2-6.9,4.3-14.3,5.7-21.7
			C553.5,482.8,544.7,480.3,543.6,486.1L543.6,486.1z"/>
	</g>
</g>
<g>
	<g>
		<path class="st1" d="M532.4,533.9c-1.5,7.7-3.1,15.5-4.6,23.2c-1.1,5.7,7.6,8.2,8.8,2.4c1.5-7.7,3.1-15.5,4.6-23.2
			C542.3,530.6,533.5,528.1,532.4,533.9L532.4,533.9z"/>
	</g>
</g>
<g>
	<g>
		<path class="st1" d="M521.9,583.7c-1.5,7.6-3.1,15.1-5.6,22.4c-1.9,5.5,6.8,7.9,8.8,2.4c2.6-7.3,4.1-14.8,5.6-22.4
			C531.8,580.4,523.1,577.9,521.9,583.7L521.9,583.7z"/>
	</g>
</g>
<g>
	<g>
		<path class="st1" d="M512.8,633.1c-1.4,7-2.8,13.9-4.1,20.9c-1.1,5.7,7.6,8.2,8.8,2.4c1.4-7,2.8-13.9,4.1-20.9
			C522.7,629.8,513.9,627.3,512.8,633.1L512.8,633.1z"/>
	</g>
</g>
<g>
	<g>
		<path class="st1" d="M503.7,681.9c-1.5,7.5-3,15.1-4.5,22.6c-1.1,5.7,7.6,8.2,8.8,2.4c1.5-7.5,3-15.1,4.5-22.6
			C513.6,678.6,504.9,676.2,503.7,681.9L503.7,681.9z"/>
	</g>
</g>
<g>
	<g>
		<path class="st1" d="M498.5,733.4c0,8-0.8,15.8-2.3,23.6c-1.1,5.7,7.7,8.2,8.8,2.4c1.7-8.6,2.6-17.2,2.7-26
			C507.6,727.5,498.5,727.5,498.5,733.4L498.5,733.4z"/>
	</g>
</g>
<g>
	<g>
		<path class="st1" d="M494.8,785c-1.5,7.8-3,15.7-2.2,23.7c0.6,5.8,9.7,5.8,9.1,0c-0.7-7.2,0.5-14.2,1.9-21.3
			C504.7,781.7,495.9,779.3,494.8,785L494.8,785z"/>
	</g>
</g>
<g>
	<g>
		<path class="st1" d="M491.3,836.8c-0.8,6.6-1,13.6-3.7,19.8c-2.3,5.3,5.5,9.9,7.8,4.6c3.4-7.8,4-16,5-24.3
			C501,831,491.9,831.1,491.3,836.8L491.3,836.8z"/>
	</g>
</g>
<g>
	<g>
		<path class="st1" d="M482.2,888.6c-1.5,7.3-2.9,14.7-4.4,22c-1.1,5.7,7.6,8.2,8.8,2.4c1.5-7.3,2.9-14.7,4.4-22
			C492.1,885.3,483.3,882.9,482.2,888.6L482.2,888.6z"/>
	</g>
</g>
<g>
	<g>
		<path class="st1" d="M463.4,950c-2.5,8.6-9.2,14.5-15.4,20.6c-4.1,4.1,2.3,10.6,6.4,6.4c7.3-7.3,14.7-14.4,17.7-24.7
			C473.8,946.8,465,944.4,463.4,950L463.4,950z"/>
	</g>
</g>
<g>
	<g>
		<path class="st1" d="M381.3,1042.6c7.4-1.2,14.9-3,21.6-6.7c5.1-2.8,0.5-10.7-4.6-7.8c-5.9,3.3-12.8,4.7-19.4,5.7
			C373.1,1034.7,375.6,1043.5,381.3,1042.6L381.3,1042.6z"/>
	</g>
</g>
<g>
	<g>
		<path class="st1" d="M433.9,1016.1c9.7-6.1,18.8-13.9,25.2-23.5c3.3-4.9-4.6-9.4-7.8-4.6c-5.5,8.2-13.6,15-22,20.2
			C424.4,1011.4,428.9,1019.2,433.9,1016.1L433.9,1016.1z"/>
	</g>
</g>
<g>
	<g>
		<path class="st1" d="M491.7,957.5c1.8-8.4,6-16,8.4-24.3c1.6-5.6-7.1-8-8.8-2.4c-2.4,8.2-6.6,15.8-8.4,24.3
			C481.7,960.8,490.4,963.2,491.7,957.5L491.7,957.5z"/>
	</g>
</g>
<g>
	<g>
		<path class="st1" d="M507.8,897.4c1.9-9.5,3.7-19,6.8-28.2c1.8-5.6-6.9-8-8.8-2.4c-3,9.2-4.9,18.7-6.8,28.2
			C497.9,900.7,506.6,903.1,507.8,897.4L507.8,897.4z"/>
	</g>
</g>
<g>
	<g>
		<path class="st1" d="M519.8,833.5c1.8-8.9,4.7-17.8,4-27c-0.4-5.8-9.5-5.8-9.1,0c0.6,8.4-2.1,16.4-3.7,24.5
			C509.9,836.8,518.6,839.2,519.8,833.5L519.8,833.5z"/>
	</g>
</g>
<g>
	<g>
		<path class="st1" d="M522.7,782.2c1.5-7.3,2.9-14.7,4.4-22c1.1-5.7-7.6-8.2-8.8-2.4c-1.5,7.3-2.9,14.7-4.4,22
			C512.8,785.5,521.6,787.9,522.7,782.2L522.7,782.2z"/>
	</g>
</g>
<g>
	<g>
		<path class="st1" d="M527.5,730.1c0.6-8.5,2.1-16.9,3.2-25.3c0.7-5.8-8.4-5.7-9.1,0c-1.1,8.4-2.6,16.8-3.2,25.3
			C518,735.9,527.1,735.9,527.5,730.1L527.5,730.1z"/>
	</g>
</g>
<g>
	<g>
		<path class="st1" d="M531.7,678.5c1.2-6,2.4-12,3.6-18c1.1-5.7-7.6-8.2-8.8-2.4c-1.2,6-2.4,12-3.6,18
			C521.8,681.8,530.6,684.2,531.7,678.5L531.7,678.5z"/>
	</g>
</g>
<g>
	<g>
		<path class="st1" d="M537,633.7c1.5-7.3,2.9-14.7,4.4-22c1.1-5.7-7.6-8.2-8.8-2.4c-1.5,7.3-2.9,14.7-4.4,22
			C527.1,637,535.8,639.5,537,633.7L537,633.7z"/>
	</g>
</g>
<g>
	<g>
		<path class="st1" d="M548.6,587.2c1.7-7.9,4.8-15.5,6.4-23.4c1.2-5.7-7.5-8.1-8.8-2.4c-1.7,7.9-4.8,15.5-6.4,23.4
			C538.6,590.5,547.4,592.9,548.6,587.2L548.6,587.2z"/>
	</g>
</g>
<g>
	<g>
		<path class="st1" d="M559.9,538.8c1.8-8.7,4.1-17.3,6.9-25.8c1.9-5.6-6.9-7.9-8.8-2.4c-2.8,8.5-5.1,17-6.9,25.8
			C550,542.1,558.8,544.5,559.9,538.8L559.9,538.8z"/>
	</g>
</g>
<g>
	<g>
		<path class="st1" d="M573.2,487.2c1.6-7.7,4.6-14.5,8.8-21.2c3.1-5-4.8-9.6-7.8-4.6c-4.5,7.3-7.9,15-9.7,23.4
			C563.2,490.5,572,492.9,573.2,487.2L573.2,487.2z"/>
	</g>
</g>
<g>
	<g>
		<path class="st1" d="M615.3,419.5c-1.5,6.3-7.3,10.1-10.6,15.4c-3.1,5,4.7,9.5,7.8,4.6c3.9-6.2,9.8-10.1,11.6-17.6
			C625.4,416.2,616.6,413.8,615.3,419.5L615.3,419.5z"/>
	</g>
</g>
<g>
	<g>
		<path class="st1" d="M593.7,455.6c-1.2,5.3-5.6,8.8-7.9,13.5c-2.5,5.3,5.4,9.9,7.8,4.6c2.6-5.6,7.3-9.5,8.8-15.7
			C603.7,452.3,595,449.9,593.7,455.6L593.7,455.6z"/>
	</g>
</g>
<g>
	<g>
		<path class="st1" d="M579.9,498.1c5.8,0,5.9-9.1,0-9.1C574.1,489,574.1,498.1,579.9,498.1L579.9,498.1z"/>
	</g>
</g>
<g>
	<g>
		<path class="st1" d="M532.3,778.6c-1.3,6.4-2.5,12.8-3.8,19.1c-1.1,5.7,7.6,8.2,8.8,2.4c1.3-6.4,2.5-12.8,3.8-19.1
			C542.1,775.3,533.4,772.8,532.3,778.6L532.3,778.6z"/>
	</g>
</g>
<g>
	<g>
		<path class="st1" d="M530.5,833.7c-1,8.9,0.8,18-1.7,26.7c-1.6,5.6,7.1,8,8.8,2.4c2.8-9.6,0.9-19.4,2.1-29.2
			C540.2,827.9,531.1,828,530.5,833.7L530.5,833.7z"/>
	</g>
</g>
<g>
	<g>
		<path class="st1" d="M518.8,892.3c-1.5,7.5-2.4,15.4-5.4,22.5c-2.3,5.3,5.6,10,7.8,4.6c3.4-7.9,4.7-16.2,6.3-24.6
			C528.7,889,519.9,886.5,518.8,892.3L518.8,892.3z"/>
	</g>
</g>
<g>
	<g>
		<path class="st1" d="M497.3,964.6c-2,7.1-6.1,17-13.5,20.1c-5.3,2.2-3,11,2.4,8.8c10.7-4.5,16.7-15.7,19.8-26.4
			C507.7,961.3,498.9,958.9,497.3,964.6L497.3,964.6z"/>
	</g>
</g>
<g>
	<g>
		<path class="st1" d="M441.6,1021.8c-6.6,7.4-13.8,12.9-22.6,17.6c-5.2,2.7-0.6,10.6,4.6,7.8c9.4-4.9,17.3-11.1,24.4-19
			C451.9,1023.9,445.5,1017.5,441.6,1021.8L441.6,1021.8z"/>
	</g>
</g>
<g>
	<g>
		<path class="st1" d="M343.3,1040.1c-7.7-1.6-15.2-4.1-23-5.7c-5.7-1.2-8.1,7.6-2.4,8.8c7.7,1.6,15.2,4.1,23,5.7
			C346.6,1050.1,349,1041.3,343.3,1040.1L343.3,1040.1z"/>
	</g>
</g>
<g>
	<g>
		<path class="st1" d="M397.9,1047.2c-10.2,2.9-19.6,7.8-30.4,7.4c-5.9-0.2-5.8,8.9,0,9.1c11.8,0.4,21.8-4.6,32.9-7.8
			C406,1054.4,403.6,1045.6,397.9,1047.2L397.9,1047.2z"/>
	</g>
</g>
<g>
	<g>
		<path class="st1" d="M99.3,593.6c-1.1,5-0.9,9.6,0.1,14.6c0.9,4.8,2.3,9,0.9,13.9c-1.5,5.7,7.2,8.1,8.8,2.4
			c2.7-9.8-3.1-18.9-1-28.5C109.2,590.3,100.5,587.8,99.3,593.6L99.3,593.6z"/>
	</g>
</g>
<g>
	<g>
		<path class="st1" d="M101.8,653.7c-2.1,10.1-4.3,19.6,1.4,29c3.1,5,10.9,0.4,7.8-4.6c-4.4-7.1-2.1-14.4-0.5-22
			C111.8,650.4,103,648,101.8,653.7L101.8,653.7z"/>
	</g>
</g>
<g>
	<g>
		<path class="st1" d="M111.7,716.6c-2.2,9.2-1.1,18.1,0.5,27.2c1,5.8,9.8,3.3,8.8-2.4c-1.3-7.5-2.3-14.9-0.5-22.4
			C121.8,713.3,113.1,710.9,111.7,716.6L111.7,716.6z"/>
	</g>
</g>
<g>
	<g>
		<path class="st1" d="M116.3,782c0.1,9.8,1.5,19.7,4.3,29.1c1.7,5.6,10.4,3.2,8.8-2.4c-2.6-8.7-3.9-17.7-4-26.7
			C125.4,776.2,116.3,776.2,116.3,782L116.3,782z"/>
	</g>
</g>
<g>
	<g>
		<path class="st1" d="M128.3,847.6c6.1,6.5,4.7,17.1,9.3,24.6c3,5,10.9,0.4,7.8-4.6c-5.2-8.4-3.5-18.8-10.7-26.4
			C130.7,836.9,124.2,843.3,128.3,847.6L128.3,847.6z"/>
	</g>
</g>
<g>
	<g>
		<path class="st1" d="M153,916.2c5.4,8.4,7.5,18.1,15.8,24.3c4.7,3.5,9.2-4.4,4.6-7.8c-6.5-4.8-8.3-14.5-12.6-21.1
			C157.7,906.7,149.8,911.3,153,916.2L153,916.2z"/>
	</g>
</g>
<g>
	<g>
		<path class="st1" d="M183,971.6c5.2,8.3,11.3,16,18,23c4.1,4.2,10.5-2.2,6.4-6.4c-6.3-6.5-11.9-13.5-16.6-21.2
			C187.8,962,179.9,966.6,183,971.6L183,971.6z"/>
	</g>
</g>
<g>
	<g>
		<path class="st1" d="M78.6,625c-2.3,10.1-0.5,20.3-1.7,30.4c-0.7,5.8,8.4,5.8,9.1,0c1.1-9.3-0.7-18.8,1.4-28
			C88.6,621.8,79.9,619.3,78.6,625L78.6,625z"/>
	</g>
</g>
<g>
	<g>
		<path class="st1" d="M84.3,684.7c-1,9.3,0.6,18.6,2.8,27.6c1.4,5.7,10.1,3.3,8.8-2.4c-2-8.3-3.4-16.6-2.5-25.2
			C94.1,678.9,85,678.9,84.3,684.7L84.3,684.7z"/>
	</g>
</g>
<g>
	<g>
		<path class="st1" d="M93.7,746.8c-2.2,10,0.7,19.6,0.3,29.6c-0.3,5.8,8.8,5.8,9.1,0c0.4-9.1-2.6-18.1-0.6-27.2
			C103.7,743.5,95,741,93.7,746.8L93.7,746.8z"/>
	</g>
</g>
<g>
	<g>
		<path class="st1" d="M97.1,814.7c3.7,7.1,6.5,14.5,8.2,22.3c1.2,5.7,10,3.3,8.8-2.4c-1.8-8.6-5-16.7-9.1-24.5
			C102.2,805,94.4,809.6,97.1,814.7L97.1,814.7z"/>
	</g>
</g>
<g>
	<g>
		<path class="st1" d="M115.5,874.7c0.6,9.1,3.9,19.9,11.4,25.7c4.6,3.6,11-2.8,6.4-6.4c-5.6-4.4-8.2-12.4-8.7-19.3
			C124.2,868.9,115.1,868.8,115.5,874.7L115.5,874.7z"/>
	</g>
</g>
<g>
	<g>
		<path class="st1" d="M59.6,662.3c1.3,7.2,3,14.7,1.2,21.9c-1.4,5.7,7.4,8.1,8.8,2.4c2.1-9,0.3-17.9-1.2-26.8
			C67.4,654.1,58.6,656.5,59.6,662.3L59.6,662.3z"/>
	</g>
</g>
<g>
	<g>
		<path class="st1" d="M65.9,717.2c-0.9,9.2,4.2,18.4,1.7,27.4c-1.6,5.6,7.2,8.1,8.8,2.4c2.8-10.1-2.4-19.7-1.4-29.8
			C75.5,711.4,66.4,711.4,65.9,717.2L65.9,717.2z"/>
	</g>
</g>
<g>
	<g>
		<path class="st1" d="M69.8,776.4C71,786.3,73.5,796,73,806c-0.3,5.8,8.8,5.8,9.1,0c0.5-10-2-19.7-3.2-29.6
			C78.2,770.7,69.1,770.6,69.8,776.4L69.8,776.4z"/>
	</g>
</g>
<g>
	<g>
		<path class="st1" d="M38.9,689c-0.9,7.8-1.2,15.6,1.3,23.1c1.8,5.5,10.6,3.2,8.8-2.4c-2.2-6.8-1.7-13.8-0.9-20.7
			C48.6,683.1,39.5,683.2,38.9,689L38.9,689z"/>
	</g>
</g>
<g>
	<g>
		<path class="st1" d="M47.3,744.2c-0.2,10.6,0.3,21.2,2,31.7c0.9,5.8,9.7,3.3,8.8-2.4c-1.5-9.7-1.8-19.5-1.6-29.3
			C56.4,738.4,47.4,738.4,47.3,744.2L47.3,744.2z"/>
	</g>
</g>
<g>
	<g>
		<path class="st1" d="M82.6,839c3.8,7.8,8.9,14.8,13.7,22c3.3,4.8,11.1,0.3,7.8-4.6c-4.8-7.2-10-14.2-13.7-22
			C88,829.1,80.1,833.8,82.6,839L82.6,839z"/>
	</g>
</g>
<g>
	<g>
		<path class="st1" d="M53.4,804.5c1,9.9,3,19.5,4.9,29.3c1.1,5.7,9.9,3.3,8.8-2.4c-1.7-8.9-3.6-17.8-4.5-26.8
			C61.9,798.8,52.8,798.7,53.4,804.5L53.4,804.5z"/>
	</g>
</g>
<g>
	<g>
		<path class="st1" d="M75.3,868.5c7,6.4,10.5,15.5,16.6,22.6c3.8,4.4,10.2-2,6.4-6.4c-6.2-7.1-9.6-16.1-16.6-22.6
			C77.4,858.1,71,864.5,75.3,868.5L75.3,868.5z"/>
	</g>
</g>
<g>
	<g>
		<path class="st1" d="M114.2,919c5.9,5.7,14,12.4,16,20.7c1.4,5.7,10.2,3.3,8.8-2.4c-2.4-9.9-11.3-17.9-18.4-24.7
			C116.4,908.5,109.9,914.9,114.2,919L114.2,919z"/>
	</g>
</g>
<g>
	<g>
		<path class="st1" d="M143.5,962.7c7.9,6.2,9.5,17.2,17,23.9c4.4,3.9,10.8-2.5,6.4-6.4c-7.4-6.6-9-17.5-17-23.9
			C145.4,952.7,138.9,959.1,143.5,962.7L143.5,962.7z"/>
	</g>
</g>
<g>
	<g>
		<path class="st1" d="M73.7,896.5c-1.4,6,0.9,8.8,3.5,13.8c3,5.6,3.2,12.6,5,18.6c1.7,5.6,10.4,3.2,8.8-2.4
			c-1.5-5.1-2.2-10.4-3.7-15.5c-0.6-2-1.4-4-2.5-5.9c-1.3-2.2-2.9-3.5-2.3-6.2C83.8,893.3,75.1,890.8,73.7,896.5L73.7,896.5z"/>
	</g>
</g>
<g>
	<g>
		<path class="st1" d="M107.9,944.2c6.8,5.7,8.3,15.9,12.6,23.4c2.9,5.1,10.7,0.5,7.8-4.6c-4.7-8.3-6.4-18.8-14-25.2
			C109.9,934.1,103.5,940.5,107.9,944.2L107.9,944.2z"/>
	</g>
</g>
<g>
	<g>
		<path class="st1" d="M92.8,970.2c2.3,10,2.6,22.4,10.7,29.8c4.3,3.9,10.8-2.5,6.4-6.4c-6.6-6-6.5-17.6-8.4-25.8
			C100.3,962.1,91.5,964.5,92.8,970.2L92.8,970.2z"/>
	</g>
</g>
<g>
	<g>
		<path class="st1" d="M130.5,989.7c2.7,7,5.3,14,8.6,20.8c2.6,5.2,10.4,0.6,7.8-4.6c-3-6-5.3-12.3-7.7-18.6
			C137.2,981.9,128.4,984.3,130.5,989.7L130.5,989.7z"/>
	</g>
</g>
<g>
	<g>
		<path class="st1" d="M150.5,1032.6c3.6,7.5,8.4,14.1,13.4,20.7c3.5,4.6,11.4,0.1,7.8-4.6c-4.9-6.6-9.8-13.3-13.4-20.7
			C155.8,1022.8,148,1027.4,150.5,1032.6L150.5,1032.6z"/>
	</g>
</g>
<g>
	<g>
		<path class="st1" d="M183.3,1078.5c7.2,7,13.6,14.8,21,21.6c4.3,4,10.7-2.5,6.4-6.4c-7.4-6.8-13.8-14.6-21-21.6
			C185.5,1068,179.1,1074.4,183.3,1078.5L183.3,1078.5z"/>
	</g>
</g>
<g>
	<g>
		<path class="st1" d="M231.1,1122.5c9.6,4,16.7,12.6,27.3,14.4c5.7,1,8.2-7.8,2.4-8.8c-10.2-1.8-17.8-10.5-27.3-14.4
			C228.1,1111.4,225.8,1120.2,231.1,1122.5L231.1,1122.5z"/>
	</g>
</g>
<g>
	<g>
		<path class="st1" d="M282.8,1150.8c10.7,2.4,19.4,10,30.8,9c5.8-0.5,5.8-9.6,0-9.1c-10.3,0.9-18.7-6.5-28.4-8.7
			C279.5,1140.7,277,1149.5,282.8,1150.8L282.8,1150.8z"/>
	</g>
</g>
<g>
	<g>
		<path class="st1" d="M341.4,1165.3c11.1,0.7,21.5-3,32.3-4.9c5.8-1,3.3-9.8-2.4-8.8c-10,1.8-19.6,5.2-29.9,4.5
			C335.6,1155.8,335.6,1164.9,341.4,1165.3L341.4,1165.3z"/>
	</g>
</g>
<g>
	<g>
		<path class="st1" d="M398.6,1147.2c8.5-3.4,17.1-8.3,23.4-15c4-4.3-2.4-10.7-6.4-6.4c-5.2,5.5-12.4,9.8-19.4,12.7
			C390.8,1140.6,393.2,1149.4,398.6,1147.2L398.6,1147.2z"/>
	</g>
</g>
<g>
	<g>
		<path class="st1" d="M441.8,1108.4c6.6-7.7,12.9-16,17-25.4c2.3-5.3-5.5-9.9-7.8-4.6c-3.8,8.7-9.4,16.4-15.6,23.6
			C431.6,1106.4,438,1112.9,441.8,1108.4L441.8,1108.4z"/>
	</g>
</g>
<g>
	<g>
		<path class="st1" d="M470.8,1054c3.7-10.8,12.9-18.6,17.2-29.1c2.2-5.4-6.6-7.8-8.8-2.4c-4.3,10.6-13.5,18.2-17.2,29.1
			C460.1,1057.2,468.9,1059.6,470.8,1054L470.8,1054z"/>
	</g>
</g>
<g>
	<g>
		<path class="st1" d="M466.9,1017.7c2.3-3.6,5.2-6.6,8.5-9.3c1.9-1.6,1.6-4.8,0-6.4c-1.9-1.9-4.5-1.6-6.4,0
			c-3.9,3.2-7.3,6.9-10,11.1C455.9,1018,463.8,1022.6,466.9,1017.7L466.9,1017.7z"/>
	</g>
</g>
<g>
	<g>
		<path class="st1" d="M481.7,1055.5c-2,10.3-2.6,21.1-10.4,28.9c-4.1,4.1,2.3,10.6,6.4,6.4c9.1-9.1,10.4-20.8,12.7-32.9
			C491.6,1052.2,482.9,1049.8,481.7,1055.5L481.7,1055.5z"/>
	</g>
</g>
<g>
	<g>
		<path class="st1" d="M447.9,1118.2c-4.1,7.5-8,15.7-14.9,21c-4.6,3.5-0.1,11.4,4.6,7.8c8.4-6.4,13.2-15.1,18.2-24.3
			C458.5,1117.6,450.7,1113,447.9,1118.2L447.9,1118.2z"/>
	</g>
</g>
<g>
	<g>
		<path class="st1" d="M405.7,1157.6c-6.4,5.5-12.8,10.2-21.5,10.7c-5.8,0.3-5.9,9.4,0,9.1c11.3-0.7,19.5-6.2,27.9-13.3
			C416.6,1160.2,410.1,1153.8,405.7,1157.6L405.7,1157.6z"/>
	</g>
</g>
<g>
	<g>
		<path class="st1" d="M344.8,1175.5c-10.6-1-20.8-1.1-30.9-5c-5.5-2.1-7.8,6.7-2.4,8.8c10.8,4.2,22,4.2,33.3,5.3
			C350.6,1185.2,350.6,1176.1,344.8,1175.5L344.8,1175.5z"/>
	</g>
</g>
<g>
	<g>
		<path class="st1" d="M275.8,1158.8c-8.6-3.1-15.1-9.9-24.3-11.4c-5.7-1-8.2,7.8-2.4,8.8c9,1.5,15.8,8.4,24.3,11.4
			C278.9,1169.6,281.3,1160.8,275.8,1158.8L275.8,1158.8z"/>
	</g>
</g>
<g>
	<g>
		<path class="st1" d="M221.1,1130.8c-9.1-4.8-17.9-10.5-24.9-18.2c-3.9-4.3-10.4,2.1-6.4,6.4c7.5,8.2,17,14.5,26.7,19.7
			C221.6,1141.4,226.2,1133.5,221.1,1130.8L221.1,1130.8z"/>
	</g>
</g>
<g>
	<g>
		<path class="st1" d="M171.9,1086.7c-7.9-5.3-14.3-12-20.5-19.2c-3.8-4.4-10.2,2-6.4,6.4c6.7,7.8,13.8,14.8,22.3,20.6
			C172.2,1097.8,176.7,1090,171.9,1086.7L171.9,1086.7z"/>
	</g>
</g>
<g>
	<g>
		<path class="st1" d="M138.4,1043.8c-1.6-8.7-7-15.1-10.6-23c-2.4-5.3-10.3-0.7-7.8,4.6c3.3,7.1,8.2,12.9,9.7,20.8
			C130.7,1052,139.5,1049.5,138.4,1043.8L138.4,1043.8z"/>
	</g>
</g>
<g>
	<g>
		<path class="st1" d="M161.4,1008.6c2.8,0.2,5.1,3.5,6.5,5.6c1.9,2.8,3.5,5.9,5.6,8.6c1.5,2,3.9,2.9,6.2,1.6c2-1.1,3.1-4.3,1.6-6.2
			c-5.6-7.5-9.3-17.7-20-18.7C155.6,998.9,155.6,1008,161.4,1008.6L161.4,1008.6z"/>
	</g>
</g>
<g>
	<g>
		<path class="st1" d="M183.4,1044.2c5,4.7,13.7,9.4,15.7,16.4c1.6,5.6,10.4,3.2,8.8-2.4c-2.6-9.1-11.5-14.3-18-20.4
			C185.6,1033.7,179.2,1040.2,183.4,1044.2L183.4,1044.2z"/>
	</g>
</g>
<g>
	<g>
		<path class="st1" d="M219.5,1086.4c8,3.3,14.7,8.7,20.8,14.8c4.1,4.2,10.5-2.3,6.4-6.4c-7.2-7.3-15.3-13.2-24.8-17.1
			C216.5,1075.4,214.2,1084.2,219.5,1086.4L219.5,1086.4z"/>
	</g>
</g>
<g>
	<g>
		<path class="st1" d="M265.6,1115.8c9.8,4.2,14.9,14.3,25.5,17.3c5.6,1.6,8-7.1,2.4-8.8c-9.5-2.7-14.3-12.6-23.3-16.4
			C264.9,1105.7,260.2,1113.5,265.6,1115.8L265.6,1115.8z"/>
	</g>
</g>
<g>
	<g>
		<path class="st1" d="M315.7,1139.8c11,2.2,21.6,4.9,31.9-0.9c5.1-2.9,0.5-10.7-4.6-7.8c-7.9,4.5-16.6,1.6-24.9,0
			C312.4,1129.8,309.9,1138.6,315.7,1139.8L315.7,1139.8z"/>
	</g>
</g>
<g>
	<g>
		<path class="st1" d="M366.2,1137.2c10.7-3.4,21.6-5.9,31.6-11.3c5.1-2.8,0.6-10.6-4.6-7.8c-9.2,5-19.5,7.2-29.4,10.4
			C358.2,1130.2,360.6,1139,366.2,1137.2L366.2,1137.2z"/>
	</g>
</g>
<g>
	<g>
		<path class="st1" d="M411.4,1104.4c1.9-8.4,9.9-12.4,15.5-18.2c4-4.2-2.4-10.7-6.4-6.4c-6.8,7.1-15.4,11.9-17.8,22.2
			C401.3,1107.7,410.1,1110.1,411.4,1104.4L411.4,1104.4z"/>
	</g>
</g>
<g>
	<g>
		<path class="st1" d="M440,1059.4c2-4.3,5.3-7.5,9.1-10.1c4.8-3.3,0.3-11.2-4.6-7.8c-5.1,3.5-9.8,7.7-12.4,13.4
			c-1,2.2-0.6,4.9,1.6,6.2C435.7,1062.1,438.9,1061.6,440,1059.4L440,1059.4z"/>
	</g>
</g>
<g>
	<g>
		<path class="st1" d="M340.5,1114.6c10.3,2.2,20.2,6.1,30.3,1.2c5.3-2.5,0.7-10.4-4.6-7.8c-7.2,3.4-16.1-0.6-23.3-2.1
			C337.3,1104.6,334.8,1113.3,340.5,1114.6L340.5,1114.6z"/>
	</g>
</g>
<g>
	<g>
		<path class="st1" d="M282.5,1100.1c9.3,2,17.9,6.4,27.3,8.4c5.7,1.2,8.1-7.5,2.4-8.8c-9.3-2-17.9-6.4-27.3-8.4
			C279.2,1090.1,276.8,1098.8,282.5,1100.1L282.5,1100.1z"/>
	</g>
</g>
<g>
	<g>
		<path class="st1" d="M220.4,1054.6c8.2,1.3,16.5,7.3,21.6,13.7c3.6,4.6,10-1.9,6.4-6.4c-5.9-7.4-16-14.6-25.6-16.1
			C217.1,1045,214.6,1053.7,220.4,1054.6L220.4,1054.6z"/>
	</g>
</g>
<g>
	<g>
		<path class="st1" d="M198.2,1017.6c3.3,0.2,6.9,4,9.2,6c3.2,2.7,6.2,5.6,9.7,7.8c4.9,3.2,9.5-4.7,4.6-7.8
			c-7.6-4.9-13.8-14.4-23.5-15.1C192.4,1008.2,192.4,1017.3,198.2,1017.6L198.2,1017.6z"/>
	</g>
</g>
<g>
	<g>
		<path class="st1" d="M264.2,1067.9c8.4,3.7,15.5,9.5,23.9,13.2c5.3,2.3,9.9-5.5,4.6-7.8c-8.4-3.7-15.5-9.5-23.9-13.2
			C263.5,1057.7,258.8,1065.5,264.2,1067.9L264.2,1067.9z"/>
	</g>
</g>
<g>
	<g>
		<path class="st1" d="M317.4,1088.3c9.3,3.2,18,7.5,28,7.9c5.9,0.2,5.8-8.9,0-9.1c-9-0.3-17.2-4.7-25.6-7.5
			C314.3,1077.6,311.9,1086.4,317.4,1088.3L317.4,1088.3z"/>
	</g>
</g>
<g>
	<g>
		<path class="st1" d="M375.9,1085.3c11.8,0.4,21.4-7.1,31.6-11.7c5.3-2.4,0.7-10.2-4.6-7.8c-8.6,3.9-17.1,10.8-27,10.5
			C370,1076,370.1,1085.1,375.9,1085.3L375.9,1085.3z"/>
	</g>
</g>
<g>
	<g>
		<path class="st1" d="M307.8,1060.5c10,2.7,19.3,7.3,29.5,9.4c5.7,1.2,8.1-7.5,2.4-8.8c-10.1-2.2-19.5-6.8-29.5-9.4
			C304.6,1050.2,302.2,1058.9,307.8,1060.5L307.8,1060.5z"/>
	</g>
</g>
<g>
	<g>
		<path class="st1" d="M237.9,1033.1c5.6,3.5,10.2,8.3,15.1,12.7c4.3,3.9,10.8-2.5,6.4-6.4c-5.4-5-10.7-10.2-17-14.1
			C237.5,1022.2,233,1030.1,237.9,1033.1L237.9,1033.1z"/>
	</g>
</g>
<g>
	<g>
		<path class="st1" d="M271.1,1032.7c8.1,1.8,14.1,8,22.1,10.4c5.6,1.7,8-7.1,2.4-8.8c-7.9-2.4-13.8-8.5-22.1-10.4
			C267.8,1022.7,265.4,1031.4,271.1,1032.7L271.1,1032.7z"/>
	</g>
</g>
<g>
	<g>
		<path class="st1" d="M546.7,861c-1.6,8.4-2.2,16.9-3.1,25.3c-0.7,5.8,8.4,5.8,9.1,0c0.9-7.7,1.4-15.3,2.8-22.9
			C556.6,857.7,547.8,855.2,546.7,861L546.7,861z"/>
	</g>
</g>
<g>
	<g>
		<path class="st1" d="M546.6,822.5c5.8,0,5.9-9.1,0-9.1C540.7,813.4,540.7,822.5,546.6,822.5L546.6,822.5z"/>
	</g>
</g>
<g>
	<g>
		<path class="st1" d="M535.5,914.8c-2,9.9-4.4,19.6-6.4,29.5c-1.1,5.7,7.6,8.2,8.8,2.4c2-9.9,4.4-19.6,6.4-29.5
			C545.4,911.5,536.6,909.1,535.5,914.8L535.5,914.8z"/>
	</g>
</g>
<g>
	<g>
		<path class="st1" d="M506.2,989.8c-1.3,5.9-4,11.5-7.8,16.1c-3.7,4.5,2.7,11,6.4,6.4c4.8-5.9,8.5-12.7,10.2-20.1
			C516.2,986.5,507.4,984.1,506.2,989.8L506.2,989.8z"/>
	</g>
</g>
<g>
	<g>
		<path class="st1" d="M524.9,974.2c-1.6,8.3-2.7,16.7-4.4,25.1c-1.1,5.7,7.7,8.2,8.8,2.4c1.6-8.3,2.7-16.7,4.4-25.1
			C534.8,970.9,526,968.5,524.9,974.2L524.9,974.2z"/>
	</g>
</g>
<g>
	<g>
		<path class="st1" d="M511.2,1037.8c-2,10.3-3.5,20.6-5.5,30.9c-1.1,5.7,7.7,8.2,8.8,2.4c2-10.3,3.5-20.6,5.5-30.9
			C521,1034.5,512.3,1032.1,511.2,1037.8L511.2,1037.8z"/>
	</g>
</g>
<g>
	<g>
		<path class="st1" d="M500,1097.7c-0.8,6.9-1.5,13.8-1.7,20.8c-0.1,5.9,9,5.9,9.1,0c0.2-7,0.9-13.9,1.7-20.8
			C509.7,1091.9,500.6,1092,500,1097.7L500,1097.7z"/>
	</g>
</g>
<g>
	<g>
		<path class="st1" d="M504.7,1146.3c-1.4,7.8-1.4,15.4-1.2,23.3c0.2,5.8,9.3,5.9,9.1,0c-0.2-7-0.4-14,0.9-20.9
			C514.5,1143,505.7,1140.6,504.7,1146.3L504.7,1146.3z"/>
	</g>
</g>
<g>
	<g>
		<path class="st1" d="M562,884.4c-1.7,8.2-3.8,16.4-5.4,24.6c-1.2,5.7,7.6,8.2,8.8,2.4c1.7-8.2,3.8-16.4,5.4-24.6
			C572,881.1,563.2,878.6,562,884.4L562,884.4z"/>
	</g>
</g>
<g>
	<g>
		<path class="st1" d="M549.8,940.5c-1.6,7.9-3.1,15.7-4.7,23.6c-1.1,5.7,7.6,8.2,8.8,2.4c1.6-7.9,3.1-15.7,4.7-23.6
			C559.7,937.2,551,934.8,549.8,940.5L549.8,940.5z"/>
	</g>
</g>
<g>
	<g>
		<path class="st1" d="M539.2,1008.1c-1.8,8.9-3.5,17.9-5.3,26.8c-1.1,5.7,7.6,8.2,8.8,2.4c1.8-8.9,3.5-17.9,5.3-26.8
			C549.1,1004.8,540.4,1002.4,539.2,1008.1L539.2,1008.1z"/>
	</g>
</g>
<g>
	<g>
		<path class="st1" d="M527.9,1068.4c-1.8,8.8-4.5,17.5-4.6,26.5c-0.1,5.9,9,5.9,9.1,0c0.1-8.2,2.6-16.1,4.3-24.1
			C537.8,1065.1,529.1,1062.6,527.9,1068.4L527.9,1068.4z"/>
	</g>
</g>
<g>
	<g>
		<path class="st1" d="M525.1,1116.3c-3,7.8-2.2,16-2.5,24.2c-0.2,5.9,8.9,5.8,9.1,0c0.2-7.4-0.6-14.7,2.1-21.8
			C536,1113.3,527.2,1110.9,525.1,1116.3L525.1,1116.3z"/>
	</g>
</g>
<g>
	<g>
		<path class="st1" d="M575,909.2c-1.7,8.3-3.4,16.3-2.2,24.8c0.8,5.8,9.6,3.3,8.8-2.4c-1-6.7,0.9-13.5,2.2-20
			C584.9,905.9,576.1,903.5,575,909.2L575,909.2z"/>
	</g>
</g>
<g>
	<g>
		<path class="st1" d="M565.1,964.7c-1.2,6.5-1.5,13.8-5.3,19.5c-3.2,4.9,4.6,9.5,7.8,4.6c4.3-6.4,4.8-14.3,6.2-21.7
			C575,961.4,566.2,959,565.1,964.7L565.1,964.7z"/>
	</g>
</g>
<g>
	<g>
		<path class="st1" d="M556.8,1006.6c-1.1,5.7-1.8,11.5-2.9,17.3c-1.1,5.7,7.7,8.2,8.8,2.4c1.1-5.7,1.8-11.5,2.9-17.3
			C566.7,1003.3,557.9,1000.8,556.8,1006.6L556.8,1006.6z"/>
	</g>
</g>
<g>
	<g>
		<path class="st1" d="M551.3,1042.9c-1.4,7.2-2.8,14.4-3.7,21.7c-0.7,5.8,8.4,5.7,9.1,0c0.8-6.5,2.1-12.9,3.3-19.3
			C561.2,1039.6,552.5,1037.1,551.3,1042.9L551.3,1042.9z"/>
	</g>
</g>
<g>
	<g>
		<path class="st1" d="M542.6,1087.6c-0.9,6.7-2.5,13.3-2.9,20.1c-0.3,5.8,8.8,5.8,9.1,0c0.3-6.8,2-13.4,2.9-20.1
			C552.4,1081.8,543.3,1081.8,542.6,1087.6L542.6,1087.6z"/>
	</g>
</g>
<g>
	<g>
		<path class="st1" d="M540.8,1139.1c-0.9,7.4-1.8,14.9-2.7,22.3c-0.7,5.8,8.4,5.7,9.1,0c0.9-7.4,1.8-14.9,2.7-22.3
			C550.6,1133.3,541.5,1133.3,540.8,1139.1L540.8,1139.1z"/>
	</g>
</g>
<g>
	<g>
		<path class="st1" d="M590.3,933.6c-1.1,8.7-0.6,17.5-3.5,25.9c-2,5.5,6.8,7.9,8.8,2.4c3.2-9.2,2.7-18.8,3.9-28.4
			C600.1,927.8,591,927.8,590.3,933.6L590.3,933.6z"/>
	</g>
</g>
<g>
	<g>
		<path class="st1" d="M581,980.1c-1.5,7.7-3,15.4-4.6,23.1c-1.1,5.7,7.6,8.2,8.8,2.4c1.5-7.7,3-15.4,4.6-23.1
			C590.9,976.9,582.2,974.4,581,980.1L581,980.1z"/>
	</g>
</g>
<g>
	<g>
		<path class="st1" d="M573,1026.5c-1.6,8.4-2.2,16.8-2.1,25.4c0.1,5.8,9.1,5.9,9.1,0c-0.1-7.7,0.4-15.4,1.8-22.9
			C582.8,1023.2,574.1,1020.8,573,1026.5L573,1026.5z"/>
	</g>
</g>
<g>
	<g>
		<path class="st1" d="M565.6,1075.3c-1.6,7.9-3.6,15.8-4.1,23.9c-0.3,5.8,8.7,5.8,9.1,0c0.4-7.3,2.3-14.3,3.8-21.4
			C575.5,1072,566.7,1069.5,565.6,1075.3L565.6,1075.3z"/>
	</g>
</g>
<g>
	<g>
		<path class="st1" d="M560,1123.2c-1.6,8.1-2.7,16.2-4.2,24.3c-1.1,5.7,7.7,8.2,8.8,2.4c1.6-8.1,2.7-16.2,4.2-24.3
			C569.9,1119.9,561.1,1117.5,560,1123.2L560,1123.2z"/>
	</g>
</g>
<g>
	<g>
		<path class="st1" d="M607.8,952c-1.6,8.1-3.2,16.1-4.8,24.2c-1.1,5.7,7.6,8.2,8.8,2.4c1.6-8.1,3.2-16.1,4.8-24.2
			C617.7,948.7,608.9,946.2,607.8,952L607.8,952z"/>
	</g>
</g>
<g>
	<g>
		<path class="st1" d="M597.4,1001.8c-1.4,7-2.8,14-4.1,20.9c-1.1,5.7,7.6,8.2,8.8,2.4c1.4-7,2.8-14,4.1-20.9
			C607.3,998.5,598.5,996,597.4,1001.8L597.4,1001.8z"/>
	</g>
</g>
<g>
	<g>
		<path class="st1" d="M589.5,1050.4c-1.7,8.8-3.4,17.7-4.1,26.6c-0.4,5.8,8.7,5.8,9.1,0c0.6-8.2,2.2-16.2,3.8-24.2
			C599.3,1047.1,590.6,1044.7,589.5,1050.4L589.5,1050.4z"/>
	</g>
</g>
<g>
	<g>
		<path class="st1" d="M583.8,1104.5c-1.3,7.4-1.4,14.9-3.3,22.2c-1.5,5.7,7.3,8.1,8.8,2.4c1.9-7.3,1.9-14.8,3.3-22.2
			C593.6,1101.2,584.8,1098.7,583.8,1104.5L583.8,1104.5z"/>
	</g>
</g>
<g>
	<g>
		<path class="st1" d="M578.7,1147.5c-1.1,8.7-0.4,17.6-1.9,26.3c-1,5.7,7.7,8.2,8.8,2.4c1.7-9.5,1.1-19.1,2.2-28.7
			C588.5,1141.7,579.4,1141.7,578.7,1147.5L578.7,1147.5z"/>
	</g>
</g>
<g>
	<g>
		<path class="st1" d="M623.9,974.7c-1.6,8.5-2.3,17.7-6.5,25.4c-2.7,5.2,5.1,9.8,7.8,4.6c4.6-8.6,5.6-18.2,7.4-27.6
			C633.8,971.4,625,968.9,623.9,974.7L623.9,974.7z"/>
	</g>
</g>
<g>
	<g>
		<path class="st1" d="M613.9,1031.3c-1.4,8-0.6,16.2-2.5,24c-1.4,5.7,7.4,8.1,8.8,2.4c1.9-7.9,1.1-16.1,2.5-24
			C623.6,1028,614.9,1025.5,613.9,1031.3L613.9,1031.3z"/>
	</g>
</g>
<g>
	<g>
		<path class="st1" d="M607.1,1076.8c-1.7,8.8-3.5,17.5-5.2,26.3c-1.1,5.7,7.6,8.2,8.8,2.4c1.7-8.8,3.5-17.5,5.2-26.3
			C617,1073.5,608.2,1071,607.1,1076.8L607.1,1076.8z"/>
	</g>
</g>
<g>
	<g>
		<path class="st1" d="M600.7,1129.2c-0.8,7.1-0.8,14.2-2,21.2c-1,5.7,7.7,8.2,8.8,2.4c1.4-7.8,1.5-15.8,2.4-23.6
			C610.5,1123.4,601.4,1123.4,600.7,1129.2L600.7,1129.2z"/>
	</g>
</g>
<g>
	<g>
		<path class="st1" d="M638,1002.5c-2.1,8.7-2.4,17.5-2.4,26.4c0,5.8,9.1,5.9,9.1,0c0-8.1,0.1-16.1,2-24
			C648.1,999.3,639.3,996.9,638,1002.5L638,1002.5z"/>
	</g>
</g>
<g>
	<g>
		<path class="st1" d="M644.3,964.8c-0.6,2.9-1.1,5.7-1.7,8.6c-0.5,2.4,0.7,4.9,3.2,5.6c2.2,0.6,5.1-0.8,5.6-3.2
			c0.6-2.9,1.1-5.7,1.7-8.6c0.5-2.4-0.7-4.9-3.2-5.6C647.7,961,644.8,962.3,644.3,964.8L644.3,964.8z"/>
	</g>
</g>
<g>
	<g>
		<path class="st1" d="M660.7,986.4c-1.7,6.9-0.2,14-1.9,20.8c-1.4,5.7,7.4,8.1,8.8,2.4c1.7-6.9,0.2-14,1.9-20.8
			C670.8,983.1,662,980.7,660.7,986.4L660.7,986.4z"/>
	</g>
</g>
<g>
	<g>
		<path class="st1" d="M630.6,1059.7c-1.5,7.9-2.1,15.9-3.6,23.8c-1.1,5.7,7.7,8.2,8.8,2.4c1.5-7.9,2.1-15.9,3.6-23.8
			C640.4,1056.4,631.6,1053.9,630.6,1059.7L630.6,1059.7z"/>
	</g>
</g>
<g>
	<g>
		<path class="st1" d="M625.3,1111.6c-1.5,7.8-2.5,15.6-3.4,23.4c-0.7,5.8,8.4,5.7,9.1,0c0.8-7,1.8-14,3.1-21
			C635.2,1108.3,626.4,1105.9,625.3,1111.6L625.3,1111.6z"/>
	</g>
</g>
<g>
	<g>
		<path class="st1" d="M652.8,1032.4c-0.7,5.8-2.2,11.5-2.3,17.4c-0.1,5.9,9,5.9,9.1,0c0.1-5.9,1.6-11.6,2.3-17.4
			c0.3-2.5-2.3-4.5-4.5-4.5C654.6,1027.8,653.1,1029.9,652.8,1032.4L652.8,1032.4z"/>
	</g>
</g>
<g>
	<g>
		<path class="st1" d="M648.1,1078.2c-1.6,8.3-2.3,16.6-3.8,24.9c-1.1,5.7,7.7,8.2,8.8,2.4c1.6-8.3,2.2-16.6,3.8-24.9
			C658,1074.9,649.2,1072.4,648.1,1078.2L648.1,1078.2z"/>
	</g>
</g>
<g>
	<g>
		<path class="st1" d="M677.8,1001.5c-1.5,7.5-3,15-4.5,22.5c-1.1,5.7,7.6,8.2,8.8,2.4c1.5-7.5,3-15,4.5-22.5
			C687.7,998.2,678.9,995.7,677.8,1001.5L677.8,1001.5z"/>
	</g>
</g>
<g>
	<g>
		<path class="st1" d="M669.5,1049.1c-0.8,6.7-1.1,13.4-2.4,20c-1.1,5.7,7.7,8.2,8.8,2.4c1.4-7.4,1.8-15,2.7-22.5
			C679.3,1043.3,670.2,1043.3,669.5,1049.1L669.5,1049.1z"/>
	</g>
</g>
<g>
	<g>
		<path class="st1" d="M664.2,1098.1c-2.1,10.4-4.1,20.8-6.2,31.1c-1.1,5.7,7.6,8.2,8.8,2.4c2.1-10.4,4.1-20.8,6.2-31.1
			C674.1,1094.8,665.4,1092.4,664.2,1098.1L664.2,1098.1z"/>
	</g>
</g>
<g>
	<g>
		<path class="st1" d="M640.8,1132c-1.9,8.7,1.5,17.5-1.2,26c-1.8,5.6,6.9,8,8.8,2.4c2.9-8.7-0.6-17.3,1.2-26
			C650.8,1128.7,642.1,1126.2,640.8,1132L640.8,1132z"/>
	</g>
</g>
<g>
	<g>
		<path class="st1" d="M616.1,1153.3c-1.6,6.7-0.6,13.5-1.8,20.3c-1,5.7,7.8,8.2,8.8,2.4c1.1-6.7,0.2-13.7,1.8-20.3
			C626.3,1150,617.5,1147.6,616.1,1153.3L616.1,1153.3z"/>
	</g>
</g>
<g>
	<g>
		<path class="st1" d="M691.4,1067.8c-1.8,9.1-3.6,18.2-5.4,27.4c-1.1,5.7,7.6,8.2,8.8,2.4c1.8-9.1,3.6-18.2,5.4-27.4
			C701.3,1064.5,692.6,1062,691.4,1067.8L691.4,1067.8z"/>
	</g>
</g>
<g>
	<g>
		<path class="st1" d="M694.1,1028.7c-1.2,5.9-2.3,11.8-3.5,17.7c-1.1,5.7,7.6,8.2,8.8,2.4c1.2-5.9,2.3-11.8,3.5-17.7
			C704,1025.4,695.3,1023,694.1,1028.7L694.1,1028.7z"/>
	</g>
</g>
<g>
	<g>
		<path class="st1" d="M713.5,1012.5c-1.3,8.1,0.9,16.4-0.9,24.4c-1.3,5.7,7.5,8.1,8.8,2.4c1.8-8.1-0.4-16.2,0.9-24.4
			C723.2,1009.2,714.4,1006.7,713.5,1012.5L713.5,1012.5z"/>
	</g>
</g>
<g>
	<g>
		<path class="st1" d="M712.3,1055.2c-1.5,7.4-2.8,14.8-3.8,22.2c-0.7,5.8,8.4,5.7,9.1,0c0.8-6.7,2.1-13.2,3.4-19.8
			C722.2,1051.9,713.5,1049.4,712.3,1055.2L712.3,1055.2z"/>
	</g>
</g>
<g>
	<g>
		<path class="st1" d="M682.1,1120.6c-2.8,9.7-1.9,20.9-7.3,29.7c-3.1,5,4.8,9.6,7.8,4.6c6-9.7,5.1-21.3,8.2-31.9
			C692.5,1117.4,683.8,1115,682.1,1120.6L682.1,1120.6z"/>
	</g>
</g>
<g>
	<g>
		<path class="st1" d="M657.8,1153.2c-1.4,7.5-2.5,15.1-3.9,22.7c-1.1,5.7,7.7,8.2,8.8,2.4c1.4-7.5,2.5-15.1,3.9-22.7
			C667.7,1149.9,658.9,1147.4,657.8,1153.2L657.8,1153.2z"/>
	</g>
</g>
<g>
	<g>
		<path class="st1" d="M705.2,1096.7c-1.6,8.1-3.2,16.1-4.8,24.2c-1.1,5.7,7.6,8.2,8.8,2.4c1.6-8.1,3.2-16.1,4.8-24.2
			C715.1,1093.4,706.4,1091,705.2,1096.7L705.2,1096.7z"/>
	</g>
</g>
<g>
	<g>
		<path class="st1" d="M697.6,1148.7c-1.9,9.3-4.4,18.7-4,28.3c0.3,5.8,9.4,5.9,9.1,0c-0.4-8.8,1.9-17.3,3.6-25.8
			C707.5,1145.4,698.8,1143,697.6,1148.7L697.6,1148.7z"/>
	</g>
</g>
<g>
	<g>
		<path class="st1" d="M736.8,1032.2c-2.2,8.4-2,17.1-3.5,25.6c-1,5.7,7.7,8.2,8.8,2.4c1.5-8.5,1.3-17.2,3.5-25.6
			C747.1,1028.9,738.3,1026.5,736.8,1032.2L736.8,1032.2z"/>
	</g>
</g>
<g>
	<g>
		<path class="st1" d="M724.6,1086.1c-1.5,7.7-3,15.4-4.6,23c-1.1,5.7,7.6,8.2,8.8,2.4c1.5-7.7,3-15.4,4.6-23
			C734.5,1082.8,725.8,1080.4,724.6,1086.1L724.6,1086.1z"/>
	</g>
</g>
<g>
	<g>
		<path class="st1" d="M720.6,1130.6c-0.8,7.6-2.3,15.2-3.8,22.7c-1.1,5.7,7.6,8.2,8.8,2.4c1.6-8.3,3.2-16.7,4.1-25.1
			C730.3,1124.8,721.2,1124.8,720.6,1130.6L720.6,1130.6z"/>
	</g>
</g>
<g>
	<g>
		<path class="st1" d="M757.5,1029.3c-1.5,4.1-2.4,8.3-4,12.3c-0.9,2.3,1,5,3.2,5.6c2.6,0.7,4.7-0.9,5.6-3.2c1.6-4,2.5-8.3,4-12.3
			c0.8-2.3-0.9-5-3.2-5.6C760.6,1025.4,758.3,1027,757.5,1029.3L757.5,1029.3z"/>
	</g>
</g>
<g>
	<g>
		<path class="st1" d="M751.9,1065.3c-1.3,6.9-2.1,14-6,20c-3.2,4.9,4.6,9.5,7.8,4.6c4.4-6.7,5.5-14.5,6.9-22.2
			C761.8,1062,753,1059.5,751.9,1065.3L751.9,1065.3z"/>
	</g>
</g>
<g>
	<g>
		<path class="st1" d="M741.2,1107.9c-2.1,8.2-1.1,16.5-1.7,24.8c-0.4,5.8,8.7,5.8,9.1,0c0.6-7.5-0.5-15,1.4-22.4
			C751.4,1104.7,742.7,1102.3,741.2,1107.9L741.2,1107.9z"/>
	</g>
</g>
<g>
	<g>
		<path class="st1" d="M739.1,1146.8c-2,9.5-3.6,18.5-3.2,28.4c0.2,5.8,9.3,5.9,9.1,0c-0.4-9.1,1-17.2,2.9-26
			C749,1143.6,740.3,1141.1,739.1,1146.8L739.1,1146.8z"/>
	</g>
</g>
<g>
	<g>
		<path class="st1" d="M776.3,1040.1c-1.9,9.6-3.8,19.1-5.7,28.7c-1.1,5.7,7.6,8.2,8.8,2.4c1.9-9.6,3.8-19.1,5.7-28.7
			C786.1,1036.8,777.4,1034.4,776.3,1040.1L776.3,1040.1z"/>
	</g>
</g>
<g>
	<g>
		<path class="st1" d="M763.3,1091.5c0.2,5.7,0.3,11.4,0.5,17c0.2,5.8,9.3,5.9,9.1,0c-0.2-5.7-0.3-11.4-0.5-17
			C772.2,1085.7,763.1,1085.6,763.3,1091.5L763.3,1091.5z"/>
	</g>
</g>
<g>
	<g>
		<path class="st1" d="M760.1,1134.5c0.3,7,0.4,14,0.1,21.1c-0.2,5.9,8.9,5.8,9.1,0c0.3-7,0.2-14-0.1-21.1
			C768.9,1128.7,759.8,1128.7,760.1,1134.5L760.1,1134.5z"/>
	</g>
</g>
<g>
	<g>
		<path class="st1" d="M783.7,1148.1c-1.2,6.1-2.4,12.1-3.6,18.2c-1.1,5.7,7.6,8.2,8.8,2.4c1.2-6.1,2.4-12.1,3.6-18.2
			C793.5,1144.8,784.8,1142.4,783.7,1148.1L783.7,1148.1z"/>
	</g>
</g>
<g>
	<g>
		<path class="st1" d="M793.6,1078.4c-1.2,6.1-2.4,12.1-3.6,18.2c-1.1,5.7,7.6,8.2,8.8,2.4c1.2-6.1,2.4-12.1,3.6-18.2
			C803.5,1075.1,794.7,1072.6,793.6,1078.4L793.6,1078.4z"/>
	</g>
</g>
<g>
	<g>
		<path class="st1" d="M803.1,1032.9c0.8,4.2,0.3,8.3-1.1,12.3c-1.9,5.6,6.9,7.9,8.8,2.4c1.9-5.6,2.1-11.3,1.1-17.1
			C810.8,1024.7,802,1027.2,803.1,1032.9L803.1,1032.9z"/>
	</g>
</g>
<g>
	<g>
		<path class="st1" d="M821.2,1050c-2.4,7.3-3.3,14.9-2.5,22.6c0.6,5.8,9.7,5.8,9.1,0c-0.7-6.9,0-13.5,2.2-20.2
			C831.8,1046.9,823,1044.5,821.2,1050L821.2,1050z"/>
	</g>
</g>
<g>
	<g>
		<path class="st1" d="M813.5,1099.2c-2.8,8.9-4.1,18.1-4.1,27.4c0,5.8,9.1,5.9,9.1,0c0-8.6,1.2-16.8,3.8-25
			C824,1096.1,815.3,1093.7,813.5,1099.2L813.5,1099.2z"/>
	</g>
</g>
<g>
	<g>
		<path class="st1" d="M805.6,1145.9c-1.3,8.7-2.6,17.4-3.9,26.1c-0.9,5.7,7.9,8.2,8.8,2.4c1.3-8.7,2.6-17.4,3.9-26.1
			C815.2,1142.6,806.4,1140.2,805.6,1145.9L805.6,1145.9z"/>
	</g>
</g>
<g>
	<g>
		<path class="st1" d="M848.1,1038.7c-0.4,3.9-0.7,7.8-1.1,11.7c-0.2,2.4,2.3,4.5,4.5,4.5c2.7,0,4.3-2.1,4.5-4.5
			c0.4-3.9,0.7-7.8,1.1-11.7c0.2-2.4-2.3-4.5-4.5-4.5C850,1034.1,848.3,1036.2,848.1,1038.7L848.1,1038.7z"/>
	</g>
</g>
<g>
	<g>
		<path class="st1" d="M838.5,1077.3c-1.5,7.3-2.9,14.7-4.4,22c-1.1,5.7,7.6,8.2,8.8,2.4c1.5-7.3,2.9-14.7,4.4-22
			C848.4,1074,839.7,1071.5,838.5,1077.3L838.5,1077.3z"/>
	</g>
</g>
<g>
	<g>
		<path class="st1" d="M831.7,1131.9c-0.8,7.8-1.7,15.6-2.5,23.4c-0.6,5.8,8.5,5.8,9.1,0c0.8-7.8,1.7-15.6,2.5-23.4
			C841.4,1126.1,832.3,1126.1,831.7,1131.9L831.7,1131.9z"/>
	</g>
</g>
<g>
	<g>
		<path class="st1" d="M852.9,1150c-0.8,6.8-1.5,13.6-2.3,20.5c-0.6,5.8,8.5,5.8,9.1,0c0.8-6.8,1.5-13.6,2.3-20.5
			C862.6,1144.2,853.5,1144.3,852.9,1150L852.9,1150z"/>
	</g>
</g>
<g>
	<g>
		<path class="st1" d="M858.5,1097.4c-0.6,6.2-1.2,12.4-1.8,18.6c-0.6,5.8,8.5,5.8,9.1,0c0.6-6.2,1.2-12.4,1.8-18.6
			C868.1,1091.6,859,1091.6,858.5,1097.4L858.5,1097.4z"/>
	</g>
</g>
<g>
	<g>
		<path class="st1" d="M868.3,1041.7c-0.2,7.8-0.9,15.5-2.3,23.1c-1,5.7,7.7,8.2,8.8,2.4c1.5-8.5,2.4-17,2.6-25.5
			C877.5,1035.8,868.4,1035.8,868.3,1041.7L868.3,1041.7z"/>
	</g>
</g>
<g>
	<g>
		<path class="st1" d="M888.9,1061.3c-2.7,10.4-4.9,20.9-6.6,31.6c-0.9,5.7,7.8,8.2,8.8,2.4c1.7-10.6,3.9-21.1,6.6-31.6
			C899.1,1058.1,890.3,1055.7,888.9,1061.3L888.9,1061.3z"/>
	</g>
</g>
<g>
	<g>
		<path class="st1" d="M881,1128.7c-0.8,8.1-1.6,16.2-2.4,24.4c-0.6,5.8,8.5,5.8,9.1,0c0.8-8.1,1.6-16.2,2.4-24.4
			C890.6,1122.9,881.5,1122.9,881,1128.7L881,1128.7z"/>
	</g>
</g>
<g>
	<g>
		<path class="st1" d="M911.1,1037.2c1.2,7.8,2,15.5,2.4,23.4c0.4,5.8,9.4,5.9,9.1,0c-0.5-8.6-1.5-17.2-2.8-25.8
			C919,1029,910.2,1031.4,911.1,1037.2L911.1,1037.2z"/>
	</g>
</g>
<g>
	<g>
		<path class="st1" d="M905.1,1095.4c-2.6,9.7-3.5,19.7-2.4,29.7c0.6,5.8,9.7,5.8,9.1,0c-1-9.3-0.3-18.3,2.1-27.3
			C915.4,1092.1,906.6,1089.7,905.1,1095.4L905.1,1095.4z"/>
	</g>
</g>
<g>
	<g>
		<path class="st1" d="M897.3,1150.3c-0.7,8.5-1.4,17-2.1,25.5c-0.5,5.8,8.6,5.8,9.1,0c0.7-8.5,1.4-17,2.1-25.5
			C906.9,1144.4,897.8,1144.5,897.3,1150.3L897.3,1150.3z"/>
	</g>
</g>
<g>
	<g>
		<path class="st1" d="M934.1,1057.6c1,10.5,1.9,20.9,2.9,31.4c0.5,5.8,9.6,5.8,9.1,0c-1-10.5-1.9-20.9-2.9-31.4
			C942.7,1051.8,933.6,1051.8,934.1,1057.6L934.1,1057.6z"/>
	</g>
</g>
<g>
	<g>
		<path class="st1" d="M926.8,1117c0.1,11.4-0.6,22.8-2.1,34c-0.8,5.7,8,8.2,8.8,2.4c1.7-12.1,2.5-24.2,2.5-36.5
			C935.9,1111.1,926.8,1111.1,926.8,1117L926.8,1117z"/>
	</g>
</g>
<g>
	<g>
		<path class="st1" d="M954.2,1032.9c1,6.5,2,13,3,19.5c0.9,5.8,9.6,3.3,8.8-2.4c-1-6.5-2-13-3-19.5
			C962.1,1024.8,953.3,1027.2,954.2,1032.9L954.2,1032.9z"/>
	</g>
</g>
<g>
	<g>
		<path class="st1" d="M955.7,1084.5c-1.4,8.7-2.7,17.4-4.1,26c-0.9,5.7,7.9,8.2,8.8,2.4c1.4-8.7,2.7-17.4,4.1-26
			C965.3,1081.2,956.6,1078.7,955.7,1084.5L955.7,1084.5z"/>
	</g>
</g>
<g>
	<g>
		<path class="st1" d="M952,1146.8c0.2,9.2-0.2,18.4-1,27.6c-0.5,5.8,8.6,5.8,9.1,0c0.8-9.2,1.2-18.4,1-27.6
			C960.9,1140.9,951.9,1140.9,952,1146.8L952,1146.8z"/>
	</g>
</g>
<g>
	<g>
		<path class="st1" d="M1115,977.4c-1.6,8.3-3.3,16.6-4.9,24.9c-1.1,5.7,7.6,8.2,8.8,2.4c1.6-8.3,3.3-16.6,4.9-24.9
			C1124.9,974.1,1116.1,971.6,1115,977.4L1115,977.4z"/>
	</g>
</g>
<g>
	<g>
		<path class="st1" d="M980,1029c-0.5,10.8-0.9,21.7-1.4,32.5c-0.3,5.8,8.8,5.8,9.1,0c0.5-10.8,0.9-21.7,1.4-32.5
			C989.4,1023.1,980.3,1023.1,980,1029L980,1029z"/>
	</g>
</g>
<g>
	<g>
		<path class="st1" d="M978.5,1104c-1.6,8.3-2,16.6-1.1,25c0.7,5.7,9.8,5.8,9.1,0c-0.9-7.6-0.7-15.1,0.7-22.6
			C988.3,1100.7,979.6,1098.2,978.5,1104L978.5,1104z"/>
	</g>
</g>
<g>
	<g>
		<path class="st1" d="M1232.2,806.2c-1.8,9.3-3.7,18.5-5.5,27.8c-1.1,5.7,7.6,8.2,8.8,2.4c1.8-9.3,3.7-18.5,5.5-27.8
			C1242.1,802.9,1233.3,800.5,1232.2,806.2L1232.2,806.2z"/>
	</g>
</g>
<g>
	<g>
		<path class="st1" d="M1007.6,1053c-3.1,12.2-4.7,24.6-4.7,37.2c0,5.8,9.1,5.9,9.1,0c0-11.8,1.4-23.3,4.3-34.8
			C1017.8,1049.8,1009,1047.3,1007.6,1053L1007.6,1053z"/>
	</g>
</g>
<g>
	<g>
		<path class="st1" d="M1005,1011.1c1.2,2.7,1.6,5.8,1.1,8.8c-0.4,2.4,0.6,4.9,3.2,5.6c2.2,0.6,5.2-0.7,5.6-3.2
			c1-5.5,0.3-10.7-2-15.8c-1-2.2-4.3-2.8-6.2-1.6C1004.3,1006.3,1003.9,1008.9,1005,1011.1L1005,1011.1z"/>
	</g>
</g>
<g>
	<g>
		<path class="st1" d="M1001.9,1130.7c-0.6,8.8-1.1,17.6-1.7,26.4c-0.4,5.8,8.7,5.8,9.1,0c0.6-8.8,1.1-17.6,1.7-26.4
			C1011.4,1124.9,1002.3,1124.9,1001.9,1130.7L1001.9,1130.7z"/>
	</g>
</g>
<g>
	<g>
		<path class="st1" d="M1176.1,1009.9c-1.3,8.7-3.3,17.3-6.1,25.6c-1.9,5.6,6.9,7.9,8.8,2.4c2.8-8.4,4.8-16.9,6.1-25.6
			C1185.6,1006.6,1176.9,1004.1,1176.1,1009.9L1176.1,1009.9z"/>
	</g>
</g>
<g>
	<g>
		<path class="st1" d="M1139.2,997.8c1.7,12.9,0.6,25.6-3.5,38c-1.8,5.6,6.9,8,8.8,2.4c4.3-13.1,5.6-26.8,3.8-40.4
			C1147.5,992.1,1138.4,992,1139.2,997.8L1139.2,997.8z"/>
	</g>
</g>
<g>
	<g>
		<path class="st1" d="M1038,1008.6c-0.9,13.1-1.8,26.2-2.7,39.2c-0.4,5.8,8.7,5.8,9.1,0c0.9-13.1,1.8-26.2,2.7-39.2
			C1047.4,1002.7,1038.3,1002.7,1038,1008.6L1038,1008.6z"/>
	</g>
</g>
<g>
	<g>
		<path class="st1" d="M1028.5,1092c-1.7,9.1-1.8,17.9-0.6,27.1c0.8,5.8,9.6,3.3,8.8-2.4c-1-7.4-0.8-14.9,0.6-22.3
			C1038.3,1088.7,1029.6,1086.2,1028.5,1092L1028.5,1092z"/>
	</g>
</g>
<g>
	<g>
		<path class="st1" d="M1028.9,1141c-1.3,10.7-2.6,21.4-3.8,32c-0.7,5.8,8.4,5.7,9.1,0c1.3-10.7,2.6-21.4,3.8-32
			C1038.7,1135.2,1029.6,1135.3,1028.9,1141L1028.9,1141z"/>
	</g>
</g>
<g>
	<g>
		<path class="st1" d="M1154.2,972.2c0,9.6,0,19.1,0,28.7c0,5.8,9.1,5.9,9.1,0c0-9.6,0-19.1,0-28.7
			C1163.3,966.4,1154.2,966.3,1154.2,972.2L1154.2,972.2z"/>
	</g>
</g>
<g>
	<g>
		<path class="st1" d="M1058.6,1044.3c0.8,12.7,0.9,25.4,0.4,38.1c-0.2,5.9,8.8,5.8,9.1,0c0.5-12.7,0.4-25.4-0.4-38.1
			C1067.3,1038.5,1058.2,1038.4,1058.6,1044.3L1058.6,1044.3z"/>
	</g>
</g>
<g>
	<g>
		<path class="st1" d="M1063.1,992.4c-1.3,6.8-2.3,13.7-2.8,20.6c-0.4,5.8,8.7,5.8,9.1,0c0.5-6.1,1.3-12.1,2.4-18.1
			C1073,989.1,1064.3,986.6,1063.1,992.4L1063.1,992.4z"/>
	</g>
</g>
<g>
	<g>
		<path class="st1" d="M1088.7,1003.4c-2,12.3-3.6,24.7-4.8,37.1c-0.5,5.8,8.6,5.8,9.1,0c1.1-11.6,2.5-23.1,4.4-34.6
			C1098.4,1000.1,1089.6,997.6,1088.7,1003.4L1088.7,1003.4z"/>
	</g>
</g>
<g>
	<g>
		<path class="st1" d="M1095.7,974c-0.9,2.3-0.9,5.1,0,7.4c0.4,1.1,1,2.1,2.1,2.7c1,0.6,2.4,0.8,3.5,0.5c2.1-0.7,4.1-3.2,3.2-5.6
			c-0.1-0.3-0.2-0.6-0.3-1c-0.1-0.5-0.1-0.4,0,0.2c0-0.2,0-0.3,0-0.5c0-0.2,0-0.3,0-0.5c-0.1,0.6-0.1,0.7,0,0.4
			c0.1-0.4,0.2-0.8,0.4-1.1c0.4-1,0.1-2.6-0.5-3.5c-0.6-0.9-1.6-1.8-2.7-2.1C1098.7,970.2,1096.7,971.6,1095.7,974L1095.7,974z"/>
	</g>
</g>
<g>
	<g>
		<path class="st1" d="M1055.6,1119.4c-0.7,10-1.9,20-3.6,29.9c-1,5.7,7.8,8.2,8.8,2.4c1.8-10.7,3.2-21.5,4-32.3
			C1065.1,1113.5,1056,1113.6,1055.6,1119.4L1055.6,1119.4z"/>
	</g>
</g>
<g>
	<g>
		<path class="st1" d="M1077.3,1145.4c-2.3,10.9-2.5,21.8-0.7,32.8c0.9,5.8,9.7,3.3,8.8-2.4c-1.5-9.3-1.2-18.8,0.7-28
			C1087.3,1142.1,1078.6,1139.7,1077.3,1145.4L1077.3,1145.4z"/>
	</g>
</g>
<g>
	<g>
		<path class="st1" d="M1084,1082.1c-1.6,10.8-2.2,21.7-1.6,32.6c0.3,5.8,9.4,5.9,9.1,0c-0.5-10.1-0.2-20.2,1.3-30.2
			C1093.6,1078.7,1084.9,1076.3,1084,1082.1L1084,1082.1z"/>
	</g>
</g>
<g>
	<g>
		<path class="st1" d="M1108.1,1031.4c-1.2,12.7-2.4,25.4-3.6,38.1c-0.6,5.8,8.5,5.8,9.1,0c1.2-12.7,2.4-25.4,3.6-38.1
			C1117.7,1025.5,1108.7,1025.6,1108.1,1031.4L1108.1,1031.4z"/>
	</g>
</g>
<g>
	<g>
		<path class="st1" d="M1102.7,1105.8c-0.3,14.1-1.3,28.2-3,42.2c-0.7,5.8,8.4,5.7,9.1,0c1.7-14,2.7-28.1,3-42.2
			C1111.9,1100,1102.8,1100,1102.7,1105.8L1102.7,1105.8z"/>
	</g>
</g>
<g>
	<g>
		<path class="st1" d="M1128.8,1071.4c0.8,10.6,1.4,21.3,1.7,31.9c0.2,5.8,9.3,5.9,9.1,0c-0.3-10.6-0.9-21.3-1.7-31.9
			C1137.5,1065.6,1128.4,1065.5,1128.8,1071.4L1128.8,1071.4z"/>
	</g>
</g>
<g>
	<g>
		<path class="st1" d="M1123.4,1136.8c-0.7,9.8-1.4,19.6-2.1,29.5c-0.4,5.8,8.7,5.8,9.1,0c0.7-9.8,1.4-19.6,2.1-29.5
			C1132.9,1131,1123.8,1131,1123.4,1136.8L1123.4,1136.8z"/>
	</g>
</g>
<g>
	<g>
		<path class="st1" d="M1150.9,1102.2c-1.5,11.2-2.2,22.4-1.8,33.8c0.2,5.8,9.3,5.9,9.1,0c-0.3-10.5,0.1-20.9,1.5-31.3
			C1160.4,1098.9,1151.7,1096.4,1150.9,1102.2L1150.9,1102.2z"/>
	</g>
</g>
<g>
	<g>
		<path class="st1" d="M1177,1124.6c-1,9.1-2,18.2-3,27.2c-0.6,5.8,8.5,5.8,9.1,0c1-9.1,2-18.2,3-27.2
			C1186.8,1118.8,1177.7,1118.8,1177,1124.6L1177,1124.6z"/>
	</g>
</g>
<g>
	<g>
		<path class="st1" d="M1158.8,1058.5c-2.2,5.4-2.6,11.5-1.2,17.2c1.7,6.8,12.3,3.9,10.5-2.9c-1-3.9-0.3-7.7,1.2-11.4
			c1.1-2.7-1.2-6-3.8-6.7C1162.4,1053.8,1159.9,1055.7,1158.8,1058.5L1158.8,1058.5z"/>
	</g>
</g>
<g>
	<g>
		<path class="st1" d="M1199.1,1149.4c0.4,8.6,0,17.1-1.1,25.7c-0.8,5.8,8.3,5.7,9.1,0c1.1-8.5,1.5-17.1,1.1-25.7
			C1207.9,1143.6,1198.8,1143.5,1199.1,1149.4L1199.1,1149.4z"/>
	</g>
</g>
<g>
	<g>
		<path class="st1" d="M1200.5,1106.4c-0.2,6.6-0.3,13.1-0.5,19.7c-0.1,5.9,8.9,5.8,9.1,0c0.2-6.6,0.3-13.1,0.5-19.7
			C1209.8,1100.5,1200.7,1100.5,1200.5,1106.4L1200.5,1106.4z"/>
	</g>
</g>
<g>
	<g>
		<path class="st1" d="M1221.9,1134.5c0.3,7.6,0,15.1-1,22.6c-0.7,5.8,8.4,5.7,9.1,0c0.9-7.5,1.3-15,1-22.6
			C1230.8,1128.6,1221.7,1128.6,1221.9,1134.5L1221.9,1134.5z"/>
	</g>
</g>
<g>
	<g>
		<path class="st1" d="M1252.9,1132.4c0,9.8-0.9,19.4-2.8,29c-1.2,5.7,7.6,8.2,8.8,2.4c2.1-10.4,3.2-20.9,3.1-31.5
			C1262,1126.6,1252.9,1126.5,1252.9,1132.4L1252.9,1132.4z"/>
	</g>
</g>
<g>
	<g>
		<path class="st1" d="M1278.3,1146.6c-0.5,4.5-1,9.1-1.5,13.6c-0.3,2.4,2.3,4.5,4.5,4.5c2.7,0,4.3-2.1,4.5-4.5
			c0.5-4.5,1-9.1,1.5-13.6c0.3-2.4-2.3-4.5-4.5-4.5C1280.2,1142,1278.6,1144.1,1278.3,1146.6L1278.3,1146.6z"/>
	</g>
</g>
<g>
	<g>
		<path class="st1" d="M1323.4,1146.5c-0.7,6.8-1.4,13.6-2.2,20.5c-0.6,5.8,8.5,5.8,9.1,0c0.7-6.8,1.4-13.6,2.2-20.5
			C1333.1,1140.7,1324.1,1140.7,1323.4,1146.5L1323.4,1146.5z"/>
	</g>
</g>
<g>
	<g>
		<path class="st1" d="M1302.3,1123.9c-1,10.3-2.8,20.5-5.2,30.5c-1.4,5.7,7.4,8.1,8.8,2.4c2.6-10.9,4.5-21.8,5.6-33
			C1312,1118.1,1302.9,1118.1,1302.3,1123.9L1302.3,1123.9z"/>
	</g>
</g>
<g>
	<g>
		<path class="st1" d="M1384.2,1161c-0.6,2.9-1.1,5.7-1.7,8.6c-0.5,2.4,0.7,4.9,3.2,5.6c2.2,0.6,5.1-0.8,5.6-3.2
			c0.6-2.9,1.1-5.7,1.7-8.6c0.5-2.4-0.7-4.9-3.2-5.6C1387.5,1157.2,1384.6,1158.6,1384.2,1161L1384.2,1161z"/>
	</g>
</g>
<g>
	<g>
		<path class="st1" d="M1389.9,1121c-3.6,7.5-6.5,15.3-8.5,23.5c-1.4,5.7,7.3,8.1,8.8,2.4c1.8-7.4,4.3-14.4,7.6-21.3
			C1400.3,1120.3,1392.4,1115.7,1389.9,1121L1389.9,1121z"/>
	</g>
</g>
<g>
	<g>
		<path class="st1" d="M1359.5,1131.3c-1.3,12.3-4,24.3-7.8,36c-1.8,5.6,7,8,8.8,2.4c4.1-12.5,6.7-25.4,8.1-38.5
			C1369.2,1125.5,1360.1,1125.6,1359.5,1131.3L1359.5,1131.3z"/>
	</g>
</g>
<g>
	<g>
		<path class="st1" d="M1383.5,799.1c0.6,6.9-0.4,13.6-3.3,19.9c-2.5,5.3,5.4,9.9,7.8,4.6c3.6-7.7,5.3-15.9,4.6-24.5
			C1392.1,793.3,1383,793.3,1383.5,799.1L1383.5,799.1z"/>
	</g>
</g>
<g>
	<g>
		<path class="st1" d="M1183.1,948.5c-2.3,11.8-4.7,23.6-7,35.4c-1.1,5.7,7.6,8.2,8.8,2.4c2.3-11.8,4.7-23.6,7-35.4
			C1193,945.2,1184.2,942.7,1183.1,948.5L1183.1,948.5z"/>
	</g>
</g>
<g>
	<g>
		<path class="st1" d="M1179.4,1075.8c1.2,9.4,2.5,18.8,3.7,28.2c0.8,5.7,9.9,5.8,9.1,0c-1.2-9.4-2.5-18.8-3.7-28.2
			C1187.8,1070.1,1178.7,1070,1179.4,1075.8L1179.4,1075.8z"/>
	</g>
</g>
<g>
	<g>
		<path class="st1" d="M1197,981.6c2,9.4,3,18.8,3.3,28.4c0.2,5.8,9.3,5.9,9.1,0c-0.3-10.4-1.5-20.7-3.6-30.8
			C1204.6,973.5,1195.8,975.9,1197,981.6L1197,981.6z"/>
	</g>
</g>
<g>
	<g>
		<path class="st1" d="M1202.1,1043.1c0.1,8.8,1.2,17.4,3,26c1.2,5.7,10,3.3,8.8-2.4c-1.7-7.8-2.6-15.6-2.7-23.6
			C1211.1,1037.3,1202,1037.3,1202.1,1043.1L1202.1,1043.1z"/>
	</g>
</g>
<g>
	<g>
		<path class="st1" d="M1253.3,799.1c-2.5,6.8-3.7,13.8-3.6,21.1c0.1,5.8,9.2,5.9,9.1,0c-0.1-6.5,1-12.6,3.3-18.6
			C1264.2,796,1255.4,793.7,1253.3,799.1L1253.3,799.1z"/>
	</g>
</g>
<g>
	<g>
		<path class="st1" d="M1243.2,855.7c0.6,7.8,0.4,15.5-0.9,23.2c-1,5.7,7.8,8.2,8.8,2.4c1.4-8.5,1.9-17,1.2-25.6
			C1251.8,849.9,1242.7,849.9,1243.2,855.7L1243.2,855.7z"/>
	</g>
</g>
<g>
	<g>
		<path class="st1" d="M1228.8,902.9c0,8.6-0.1,17.2-0.1,25.8c0,5.9,9.1,5.9,9.1,0c0-8.6,0.1-17.2,0.1-25.8
			C1237.9,897.1,1228.9,897.1,1228.8,902.9L1228.8,902.9z"/>
	</g>
</g>
<g>
	<g>
		<path class="st1" d="M1224.2,957.5c2.2,8.3,3.3,16.7,3.2,25.4c0,5.9,9.1,5.9,9.1,0c0-9.4-1.2-18.7-3.6-27.8
			C1231.5,949.5,1222.7,951.8,1224.2,957.5L1224.2,957.5z"/>
	</g>
</g>
<g>
	<g>
		<path class="st1" d="M1225.9,1017.4c0.6,6.4,1.1,12.8,1.7,19.2c0.5,5.8,9.6,5.8,9.1,0c-0.6-6.4-1.1-12.8-1.7-19.2
			C1234.5,1011.7,1225.4,1011.6,1225.9,1017.4L1225.9,1017.4z"/>
	</g>
</g>
<g>
	<g>
		<path class="st1" d="M1231.5,1067.1c-2,8.4-1.9,16.9,0.6,25.2c1.6,5.6,10.4,3.2,8.8-2.4c-2-6.8-2.2-13.5-0.6-20.3
			C1241.6,1063.8,1232.9,1061.4,1231.5,1067.1L1231.5,1067.1z"/>
	</g>
</g>
<g>
	<g>
		<path class="st1" d="M1271.9,828.5c0,7.7-0.1,15.5-0.1,23.2c0,5.9,9.1,5.9,9.1,0c0-7.7,0.1-15.5,0.1-23.2
			C1281.1,822.7,1272,822.7,1271.9,828.5L1271.9,828.5z"/>
	</g>
</g>
<g>
	<g>
		<path class="st1" d="M1260.8,886.6c0.8,12.8,0.7,25.6-0.3,38.4c-0.4,5.8,8.7,5.8,9.1,0c0.9-12.8,1-25.6,0.3-38.4
			C1269.6,880.8,1260.5,880.7,1260.8,886.6L1260.8,886.6z"/>
	</g>
</g>
<g>
	<g>
		<path class="st1" d="M1252.7,966.7c2,10.5,2,21.2,0.1,31.7c-1.1,5.7,7.7,8.2,8.8,2.4c2.2-12.2,2.2-24.3-0.1-36.5
			C1260.4,958.6,1251.6,961,1252.7,966.7L1252.7,966.7z"/>
	</g>
</g>
<g>
	<g>
		<path class="st1" d="M1255.1,1032.1c-0.2,8.4,0.6,16.8,2.1,25.1c1,5.7,9.8,3.3,8.8-2.4c-1.4-7.5-1.9-15.1-1.7-22.7
			C1264.3,1026.3,1255.2,1026.3,1255.1,1032.1L1255.1,1032.1z"/>
	</g>
</g>
<g>
	<g>
		<path class="st1" d="M1252.8,1093.8c-3.8,6.1-5.7,13.1-5.7,20.3c0,5.8,9.1,5.9,9.1,0c0-5.7,1.5-10.9,4.5-15.7
			C1263.8,1093.4,1255.9,1088.8,1252.8,1093.8L1252.8,1093.8z"/>
	</g>
</g>
<g>
	<g>
		<path class="st1" d="M1293.7,804.9c-1.3,9.4-2.6,18.8-4,28.1c-0.8,5.7,8,8.2,8.8,2.4c1.3-9.4,2.6-18.8,4-28.1
			C1303.2,801.6,1294.5,799.1,1293.7,804.9L1293.7,804.9z"/>
	</g>
</g>
<g>
	<g>
		<path class="st1" d="M1293.2,858.1c-2.8,9.1-3.7,18.4-2.9,27.9c0.5,5.8,9.6,5.8,9.1,0c-0.8-8.7,0-17.1,2.5-25.5
			C1303.7,854.9,1294.9,852.5,1293.2,858.1L1293.2,858.1z"/>
	</g>
</g>
<g>
	<g>
		<path class="st1" d="M1286.4,929.3c-1.2,9.5-2.4,19-3.5,28.5c-0.7,5.8,8.4,5.7,9.1,0c1.2-9.5,2.4-19,3.5-28.5
			C1296.2,923.5,1287.1,923.6,1286.4,929.3L1286.4,929.3z"/>
	</g>
</g>
<g>
	<g>
		<path class="st1" d="M1281.1,995.3c1.5,7.7,1.8,15.4,1,23.3c-0.6,5.8,8.5,5.8,9.1,0c0.9-8.6,0.4-17.1-1.3-25.7
			C1288.7,987.2,1280,989.6,1281.1,995.3L1281.1,995.3z"/>
	</g>
</g>
<g>
	<g>
		<path class="st1" d="M1276.6,1055.8c2.3,7.9,3.1,16,1.9,24.2c-0.8,5.7,7.9,8.2,8.8,2.4c1.4-9.8,0.9-19.5-1.9-29
			C1283.7,1047.8,1275,1050.2,1276.6,1055.8L1276.6,1055.8z"/>
	</g>
</g>
<g>
	<g>
		<path class="st1" d="M1272.3,1109.7c0.5,3.4,0.5,6.9-0.1,10.3c-0.4,2.4,0.6,4.9,3.2,5.6c2.2,0.6,5.2-0.7,5.6-3.2
			c0.9-5.1,0.9-10,0.1-15.1c-0.4-2.4-3.4-3.8-5.6-3.2C1272.8,1104.8,1271.9,1107.2,1272.3,1109.7L1272.3,1109.7z"/>
	</g>
</g>
<g>
	<g>
		<path class="st1" d="M1136.7,937.1c0.8,5.5,1.7,11,2.5,16.5c0.4,2.4,3.4,3.7,5.6,3.2c2.6-0.7,3.5-3.2,3.2-5.6
			c-0.8-5.5-1.7-11-2.5-16.5c-0.4-2.4-3.4-3.7-5.6-3.2C1137.3,932.2,1136.3,934.7,1136.7,937.1L1136.7,937.1z"/>
	</g>
</g>
<g>
	<g>
		<path class="st1" d="M1322,837c-2.2,8.1-3,16.5-2.2,24.9c0.5,5.8,9.6,5.8,9.1,0c-0.7-7.6-0.1-15,1.9-22.4
			C1332.3,833.7,1323.5,831.3,1322,837L1322,837z"/>
	</g>
</g>
<g>
	<g>
		<path class="st1" d="M1314,896.9c-1.3,10.8-1.8,21.6-1.5,32.4c0.2,5.8,9.3,5.9,9.1,0c-0.3-10.8,0.2-21.6,1.5-32.4
			C1323.8,891.1,1314.7,891.2,1314,896.9L1314,896.9z"/>
	</g>
</g>
<g>
	<g>
		<path class="st1" d="M1311.7,962.2c-2.3,8-3.3,16.2-3,24.5c0.2,5.8,9.3,5.9,9.1,0c-0.3-7.6,0.6-14.8,2.6-22.1
			C1322.1,958.9,1313.3,956.5,1311.7,962.2L1311.7,962.2z"/>
	</g>
</g>
<g>
	<g>
		<path class="st1" d="M1308.7,1018.5c-3.8,7.8-5.7,16-5.7,24.7c0,5.8,9.1,5.9,9.1,0c-0.1-7,1.4-13.8,4.4-20.1
			C1319.1,1017.8,1311.3,1013.2,1308.7,1018.5L1308.7,1018.5z"/>
	</g>
</g>
<g>
	<g>
		<path class="st1" d="M1301.4,1081.2c-1,8.1-2.1,16.1-3.1,24.2c-0.7,5.8,8.4,5.7,9.1,0c1-8.1,2.1-16.1,3.1-24.2
			C1311.2,1075.4,1302.1,1075.4,1301.4,1081.2L1301.4,1081.2z"/>
	</g>
</g>
<g>
	<g>
		<path class="st1" d="M1342.9,857.1c-3.2,6.6-5,13.4-5.2,20.7c-0.2,5.9,8.9,5.8,9.1,0c0.2-5.6,1.5-11.1,4-16.2
			C1353.3,856.4,1345.5,851.8,1342.9,857.1L1342.9,857.1z"/>
	</g>
</g>
<g>
	<g>
		<path class="st1" d="M1338.5,908.9c-2.6,12.8-4.2,25.8-4.7,38.9c-0.2,5.9,8.9,5.8,9.1,0c0.5-12.3,1.9-24.4,4.3-36.5
			C1348.4,905.6,1339.6,903.2,1338.5,908.9L1338.5,908.9z"/>
	</g>
</g>
<g>
	<g>
		<path class="st1" d="M1332.7,987.1c-0.5,9.3-1.1,18.7-1.6,28c-0.3,5.8,8.7,5.8,9.1,0c0.5-9.3,1.1-18.7,1.6-28
			C1342.1,981.3,1333,981.3,1332.7,987.1L1332.7,987.1z"/>
	</g>
</g>
<g>
	<g>
		<path class="st1" d="M1329.9,1052.3c-0.6,6.9-1.2,13.7-1.8,20.6c-0.5,5.8,8.6,5.8,9.1,0c0.6-6.9,1.2-13.7,1.8-20.6
			C1339.5,1046.5,1330.4,1046.5,1329.9,1052.3L1329.9,1052.3z"/>
	</g>
</g>
<g>
	<g>
		<path class="st1" d="M1326,1111.4c-1.2,4.4-2.4,8.9-3.7,13.3c-1.6,5.6,7.2,8.1,8.8,2.4c1.2-4.4,2.4-8.9,3.7-13.3
			C1336.3,1108.2,1327.6,1105.8,1326,1111.4L1326,1111.4z"/>
	</g>
</g>
<g>
	<g>
		<path class="st1" d="M1221.5,863.7c-2.1,10.5-4.2,21.1-6.2,31.6c-1.1,5.7,7.6,8.2,8.8,2.4c2.1-10.5,4.2-21.1,6.2-31.6
			C1231.4,860.4,1222.6,858,1221.5,863.7L1221.5,863.7z"/>
	</g>
</g>
<g>
	<g>
		<path class="st1" d="M1375.7,834.5c-4,8.9-6.8,18-8.3,27.6c-0.9,5.7,7.9,8.2,8.8,2.4c1.4-8.8,3.7-17.3,7.4-25.4
			C1386,833.8,1378.1,829.2,1375.7,834.5L1375.7,834.5z"/>
	</g>
</g>
<g>
	<g>
		<path class="st1" d="M1361.9,896.2c0.2,8.7-0.4,17.3-1.8,25.9c-1,5.7,7.8,8.2,8.8,2.4c1.6-9.4,2.3-18.8,2.1-28.3
			C1370.9,890.4,1361.8,890.4,1361.9,896.2L1361.9,896.2z"/>
	</g>
</g>
<g>
	<g>
		<path class="st1" d="M1357.8,953.5c-0.2,7.4-0.4,14.9-0.5,22.3c-0.1,5.9,9,5.8,9.1,0c0.2-7.4,0.4-14.9,0.5-22.3
			C1367.1,947.7,1358,947.7,1357.8,953.5L1357.8,953.5z"/>
	</g>
</g>
<g>
	<g>
		<path class="st1" d="M1355.7,1011.3c-2.4,9.6-3.1,19.4-1.9,29.3c0.7,5.7,9.8,5.8,9.1,0c-1.1-9.1-0.6-18,1.6-26.9
			C1365.9,1008,1357.1,1005.6,1355.7,1011.3L1355.7,1011.3z"/>
	</g>
</g>
<g>
	<g>
		<path class="st1" d="M1358.3,1084.9c5.8,0,5.9-9.1,0-9.1C1352.4,1075.8,1352.4,1084.9,1358.3,1084.9L1358.3,1084.9z"/>
	</g>
</g>
<g>
	<g>
		<path class="st1" d="M1353.9,1079.4c-1.4,11.3-3.3,22.6-5.7,33.8c-1.2,5.7,7.6,8.1,8.8,2.4c2.5-12,4.5-24,6-36.2
			C1363.7,1073.6,1354.6,1073.7,1353.9,1079.4L1353.9,1079.4z"/>
	</g>
</g>
<g>
	<g>
		<path class="st1" d="M1195.4,878.8c-2.1,7.2-4.1,14.4-6.2,21.7c-1.6,5.6,7.2,8,8.8,2.4c2.1-7.2,4.1-14.4,6.2-21.7
			C1205.8,875.6,1197,873.2,1195.4,878.8L1195.4,878.8z"/>
	</g>
</g>
<g>
	<g>
		<path class="st1" d="M1391.6,862.5c-1.8,7.7-2.8,15.4-3.2,23.2c-0.3,5.8,8.8,5.8,9.1,0c0.3-7,1.3-14,2.9-20.8
			C1401.7,859.2,1392.9,856.8,1391.6,862.5L1391.6,862.5z"/>
	</g>
</g>
<g>
	<g>
		<path class="st1" d="M1385.7,921.2c-0.1,7.1-0.1,14.3-0.2,21.4c-0.1,5.9,9,5.9,9.1,0c0.1-7.1,0.1-14.3,0.2-21.4
			C1394.9,915.3,1385.8,915.3,1385.7,921.2L1385.7,921.2z"/>
	</g>
</g>
<g>
	<g>
		<path class="st1" d="M1383.3,970.2c-2.3,8-3.3,16.2-3.1,24.5c0.2,5.8,9.2,5.9,9.1,0c-0.2-7.5,0.7-14.8,2.8-22.1
			C1393.7,967,1384.9,964.6,1383.3,970.2L1383.3,970.2z"/>
	</g>
</g>
<g>
	<g>
		<path class="st1" d="M1378.7,1029.3c-2.1,9.7-2.2,19.4-0.3,29.1c1.1,5.7,9.9,3.3,8.8-2.4c-1.6-8.1-1.5-16.2,0.3-24.3
			C1388.7,1026,1380,1023.6,1378.7,1029.3L1378.7,1029.3z"/>
	</g>
</g>
<g>
	<g>
		<path class="st1" d="M1377,1089.5c-3.4,6.7-5.4,13.7-6.2,21.2c-0.6,5.8,8.5,5.8,9.1,0c0.6-5.8,2.3-11.4,5-16.7
			C1387.5,1088.9,1379.7,1084.2,1377,1089.5L1377,1089.5z"/>
	</g>
</g>
<g>
	<g>
		<path class="st1" d="M1207.4,913.4c-1.6,8.3-3.3,16.6-4.9,24.9c-1.1,5.7,7.6,8.2,8.8,2.4c1.6-8.3,3.3-16.6,4.9-24.9
			C1217.3,910.1,1208.5,907.7,1207.4,913.4L1207.4,913.4z"/>
	</g>
</g>
<g>
	<g>
		<path class="st1" d="M1392.5,1005.7c-0.1,10.8-0.3,21.5-0.4,32.3c-0.1,5.9,9,5.9,9.1,0c0.1-10.8,0.3-21.5,0.4-32.3
			C1401.7,999.8,1392.6,999.8,1392.5,1005.7L1392.5,1005.7z"/>
	</g>
</g>
<g>
	<g>
		<path class="st1" d="M1397.3,1067.3c-0.6,4.7-1.2,9.4-1.8,14.1c-0.3,2.4,2.3,4.5,4.5,4.5c2.7,0,4.2-2.1,4.5-4.5
			c0.6-4.7,1.2-9.4,1.8-14.1c0.3-2.4-2.3-4.5-4.5-4.5C1399.1,1062.7,1397.6,1064.8,1397.3,1067.3L1397.3,1067.3z"/>
	</g>
</g>
<g>
	<g>
		<path class="st1" d="M1169.2,913.5c-1.3,8.7-2.7,17.4-4,26.1c-0.9,5.7,7.9,8.2,8.8,2.4c1.3-8.7,2.7-17.4,4-26.1
			C1178.9,910.2,1170.1,907.7,1169.2,913.5L1169.2,913.5z"/>
	</g>
</g>
<g>
	<g>
		<path class="st1" d="M1343.3,802c-2.3,9.8-4.6,19.7-6.8,29.5c-1.3,5.7,7.4,8.1,8.8,2.4c2.3-9.8,4.6-19.7,6.8-29.5
			C1353.4,798.7,1344.6,796.3,1343.3,802L1343.3,802z"/>
	</g>
</g>
<g>
	<g>
		<path class="st1" d="M822.2,202.1c8.2-4.2,17.5-5.9,26.7-4.6c5.7,0.8,8.2-8,2.4-8.8c-11.8-1.7-23.1,0.1-33.7,5.6
			C812.4,196.9,817,204.7,822.2,202.1L822.2,202.1z"/>
	</g>
</g>
<g>
	<g>
		<path class="st1" d="M869.4,200.3c10,1.3,19.9,3.2,29.7,5.5c5.7,1.4,8.1-7.4,2.4-8.8c-10.6-2.6-21.3-4.5-32.1-5.9
			C863.6,190.5,863.7,199.6,869.4,200.3L869.4,200.3z"/>
	</g>
</g>
<g>
	<g>
		<path class="st1" d="M923.8,209.5c7.4,1.5,14.9,2.9,22.3,4.4c5.7,1.1,8.2-7.6,2.4-8.8c-7.4-1.5-14.9-2.9-22.3-4.4
			C920.5,199.6,918,208.4,923.8,209.5L923.8,209.5z"/>
	</g>
</g>
<g>
	<g>
		<path class="st1" d="M961.6,218.7c3.3,1.6,6.7,2.8,10.3,3.7c2.4,0.6,4.9-0.7,5.6-3.2c0.6-2.3-0.8-5-3.2-5.6
			c-2.8-0.6-5.6-1.5-8.2-2.7c-2.2-1-4.9-0.6-6.2,1.6C958.9,214.5,959.4,217.7,961.6,218.7L961.6,218.7z"/>
	</g>
</g>
<g>
	<g>
		<path class="st1" d="M834.6,220.6c8.8-3.8,18.5-4.5,27.9-2.4c5.7,1.3,8.1-7.5,2.4-8.8c-11.9-2.7-23.7-1.4-34.9,3.4
			C824.6,215.1,829.2,222.9,834.6,220.6L834.6,220.6z"/>
	</g>
</g>
<g>
	<g>
		<path class="st1" d="M890.4,222.9c6.5,0.4,12.8,1.3,19.2,2.5c5.7,1.1,8.2-7.7,2.4-8.8c-7.1-1.4-14.4-2.3-21.6-2.8
			C884.5,213.4,884.6,222.5,890.4,222.9L890.4,222.9z"/>
	</g>
</g>
<g>
	<g>
		<path class="st1" d="M932.8,230.9c7,1.7,14,3.5,21,5.2c5.7,1.4,8.1-7.4,2.4-8.8c-7-1.7-14-3.5-21-5.2
			C929.5,220.7,927.1,229.5,932.8,230.9L932.8,230.9z"/>
	</g>
</g>
<g>
	<g>
		<path class="st1" d="M835.6,243.4c6.3-1.8,12.6-2.6,19.2-2.5c5.9,0.1,5.9-9,0-9.1c-7.3-0.1-14.6,0.8-21.6,2.8
			C827.5,236.2,829.9,245,835.6,243.4L835.6,243.4z"/>
	</g>
</g>
<g>
	<g>
		<path class="st1" d="M873.6,240.5c3.6,0.3,7.2,0.6,10.8,0.9c2.4,0.2,4.5-2.2,4.5-4.5c0-2.6-2.1-4.3-4.5-4.5
			c-3.6-0.3-7.2-0.6-10.8-0.9c-2.4-0.2-4.5,2.2-4.5,4.5C869.1,238.6,871.2,240.3,873.6,240.5L873.6,240.5z"/>
	</g>
</g>
<g>
	<g>
		<path class="st1" d="M905.8,244.6c7.1,1.4,14.2,2.8,21.2,4.2c5.7,1.1,8.2-7.6,2.4-8.8c-7.1-1.4-14.2-2.8-21.2-4.2
			C902.5,234.7,900.1,243.4,905.8,244.6L905.8,244.6z"/>
	</g>
</g>
<g>
	<g>
		<path class="st1" d="M839.8,263.8c8.7-3.6,17.7-5.7,27.1-6.3c5.8-0.4,5.9-9.5,0-9.1c-10.2,0.6-20.1,2.8-29.5,6.6
			C832,257.2,834.4,266,839.8,263.8L839.8,263.8z"/>
	</g>
</g>
<g>
	<g>
		<path class="st1" d="M880.4,261.6c7.4,1.5,14.9,2.9,22.3,4.4c5.7,1.1,8.2-7.6,2.4-8.8c-7.4-1.5-14.9-2.9-22.3-4.4
			C877.1,251.7,874.6,260.5,880.4,261.6L880.4,261.6z"/>
	</g>
</g>
<g>
	<g>
		<path class="st1" d="M917.7,267.9c6,1.2,12,2.4,18.1,3.6c5.7,1.1,8.2-7.6,2.4-8.8c-6-1.2-12-2.4-18.1-3.6
			C914.4,258,912,266.8,917.7,267.9L917.7,267.9z"/>
	</g>
</g>
<g>
	<g>
		<path class="st1" d="M849.9,287.6c8.4-4.2,17.2-6.2,26.6-6.2c5.8,0,5.9-9.1,0-9.1c-10.9,0.1-21.4,2.6-31.2,7.5
			C840.1,282.3,844.7,290.2,849.9,287.6L849.9,287.6z"/>
	</g>
</g>
<g>
	<g>
		<path class="st1" d="M890,285.6c4.6,0.9,9.2,1.8,13.8,2.7c5.7,1.1,8.2-7.6,2.4-8.8c-4.6-0.9-9.2-1.8-13.8-2.7
			C886.7,275.7,884.2,284.4,890,285.6L890,285.6z"/>
	</g>
</g>
<g>
	<g>
		<path class="st1" d="M844.8,315.3c2.3-2.9,5.2-5.1,8.8-6.2c5.6-1.7,3.2-10.5-2.4-8.8c-5,1.5-9.5,4.4-12.8,8.5
			c-1.5,1.9-1.9,4.6,0,6.4C840,316.8,843.3,317.2,844.8,315.3L844.8,315.3z"/>
	</g>
</g>
<g>
	<g>
		<path class="st1" d="M869,308.3c8-1.9,16.1-3.5,24.3-4.8c5.8-0.9,3.3-9.7-2.4-8.8c-8.2,1.3-16.2,2.9-24.3,4.8
			C860.9,300.9,863.3,309.7,869,308.3L869,308.3z"/>
	</g>
</g>
<g>
	<g>
		<path class="st1" d="M841.4,335.4c3.1-2.3,6.1-4.6,9.2-7c2-1.5,3-3.9,1.6-6.2c-1.1-1.9-4.3-3.1-6.2-1.6c-3.1,2.3-6.1,4.6-9.2,7
			c-2,1.5-3,3.9-1.6,6.2C836.3,335.7,839.4,336.9,841.4,335.4L841.4,335.4z"/>
	</g>
</g>
<g>
	<g>
		<path class="st1" d="M925.1,291.8c7-0.4,13.8,0.1,20.7,1.6c5.7,1.2,8.1-7.5,2.4-8.8c-7.6-1.7-15.3-2.3-23.1-1.9
			C919.3,283,919.3,292.1,925.1,291.8L925.1,291.8z"/>
	</g>
</g>
<g>
	<g>
		<path class="st1" d="M968.1,297.9c7.7,1.9,15.4,3.8,23.1,5.8c5.7,1.4,8.1-7.4,2.4-8.8c-7.7-1.9-15.4-3.8-23.1-5.8
			C964.8,287.7,962.4,296.5,968.1,297.9L968.1,297.9z"/>
	</g>
</g>
<g>
	<g>
		<path class="st1" d="M1015.6,314.5c6.3,2.3,11.8,5.9,16.6,10.5c4.2,4.1,10.7-2.4,6.4-6.4c-6-5.7-12.9-10-20.6-12.9
			C1012.5,303.7,1010.2,312.5,1015.6,314.5L1015.6,314.5z"/>
	</g>
</g>
<g>
	<g>
		<path class="st1" d="M1056.5,335.9c6.7,3.2,13,7.1,18.8,11.9c4.5,3.7,10.9-2.7,6.4-6.4c-6.3-5.3-13.1-9.8-20.6-13.3
			C1055.9,325.5,1051.2,333.4,1056.5,335.9L1056.5,335.9z"/>
	</g>
</g>
<g>
	<g>
		<path class="st1" d="M1091.8,359.2c6.4,4.9,12.8,9.8,19.2,14.8c4.6,3.6,9.2-4.3,4.6-7.8c-6.4-4.9-12.8-9.8-19.2-14.8
			C1091.7,347.8,1087.2,355.6,1091.8,359.2L1091.8,359.2z"/>
	</g>
</g>
<g>
	<g>
		<path class="st1" d="M1129.1,393.1c5,2.7,9.5,5.9,13.5,10c4.1,4.2,10.6-2.3,6.4-6.4c-4.5-4.6-9.7-8.4-15.3-11.4
			C1128.6,382.6,1124,390.4,1129.1,393.1L1129.1,393.1z"/>
	</g>
</g>
<g>
	<g>
		<path class="st1" d="M1161.5,424.6c4.8,4.2,9.2,8.8,13,13.8c1.5,2,3.9,2.9,6.2,1.6c1.9-1.1,3.1-4.3,1.6-6.2
			c-4.3-5.7-9-11-14.4-15.7C1163.5,414.3,1157.1,420.8,1161.5,424.6L1161.5,424.6z"/>
	</g>
</g>
<g>
	<g>
		<path class="st1" d="M1190.9,462.5c4.1,7.4,8.2,14.8,12.3,22.2c2.8,5.1,10.7,0.5,7.8-4.6c-4.1-7.4-8.2-14.8-12.3-22.2
			C1195.9,452.8,1188,457.4,1190.9,462.5L1190.9,462.5z"/>
	</g>
</g>
<g>
	<g>
		<path class="st1" d="M1217.2,508.4c4.8,6.6,8.7,13.7,11.5,21.4c2,5.4,10.8,3.1,8.8-2.4c-3.1-8.4-7.2-16.3-12.4-23.5
			C1221.6,499.2,1213.7,503.7,1217.2,508.4L1217.2,508.4z"/>
	</g>
</g>
<g>
	<g>
		<path class="st1" d="M1242.1,564.8c2.9,9.4,6.1,18.7,9.6,27.9c2.1,5.4,10.8,3.1,8.8-2.4c-3.5-9.2-6.7-18.5-9.6-27.9
			C1249.2,556.8,1240.4,559.2,1242.1,564.8L1242.1,564.8z"/>
	</g>
</g>
<g>
	<g>
		<path class="st1" d="M1255.7,626.8c3.2,8.5,4.9,17.1,5.1,26.1c0.1,5.8,9.2,5.9,9.1,0c-0.2-9.8-2-19.4-5.4-28.6
			C1262.4,619,1253.6,621.3,1255.7,626.8L1255.7,626.8z"/>
	</g>
</g>
<g>
	<g>
		<path class="st1" d="M1261.6,688.6c-0.4,9.7-1.4,19.4-3.2,29c-1,5.7,7.7,8.2,8.8,2.4c1.9-10.4,3.1-20.9,3.5-31.4
			C1270.9,682.8,1261.8,682.8,1261.6,688.6L1261.6,688.6z"/>
	</g>
</g>
<g>
	<g>
		<path class="st1" d="M1255.8,752.4c-1.6,8.1-3.2,16.3-4.8,24.4c-1.1,5.7,7.6,8.2,8.8,2.4c1.6-8.1,3.2-16.3,4.8-24.4
			C1265.7,749.1,1257,746.7,1255.8,752.4L1255.8,752.4z"/>
	</g>
</g>
<g>
	<g>
		<path class="st1" d="M1271,781.9c-1.6,8.1-3.2,16.3-4.8,24.4c-1.1,5.7,7.6,8.2,8.8,2.4c1.6-8.1,3.2-16.3,4.8-24.4
			C1280.9,778.6,1272.1,776.2,1271,781.9L1271,781.9z"/>
	</g>
</g>
<g>
	<g>
		<path class="st1" d="M1276.4,725.8c-0.2,8.8-0.4,17.6-0.6,26.3c-0.1,5.9,9,5.9,9.1,0c0.2-8.8,0.4-17.6,0.6-26.3
			C1285.6,719.9,1276.5,719.9,1276.4,725.8L1276.4,725.8z"/>
	</g>
</g>
<g>
	<g>
		<path class="st1" d="M1284.5,656.7c0,9.9,0.1,19.8,0.1,29.7c0,5.8,9.1,5.9,9.1,0c0-9.9-0.1-19.8-0.1-29.7
			C1293.6,650.9,1284.5,650.9,1284.5,656.7L1284.5,656.7z"/>
	</g>
</g>
<g>
	<g>
		<path class="st1" d="M1269.4,595.4c1.3,7.5,2.6,15.1,4,22.6c1,5.8,9.8,3.3,8.8-2.4c-1.3-7.5-2.6-15.1-4-22.6
			C1277.2,587.2,1268.4,589.7,1269.4,595.4L1269.4,595.4z"/>
	</g>
</g>
<g>
	<g>
		<path class="st1" d="M1247.5,532.4c3.7,7.7,7.4,15.3,11.1,23c2.5,5.3,10.4,0.7,7.8-4.6c-3.7-7.7-7.4-15.3-11.1-23
			C1252.9,522.5,1245,527.1,1247.5,532.4L1247.5,532.4z"/>
	</g>
</g>
<g>
	<g>
		<path class="st1" d="M1222.1,479.6c7.3,5.1,12.9,11.9,16.9,19.8c2.7,5.2,10.5,0.6,7.8-4.6c-4.8-9.3-11.7-17-20.2-23.1
			C1221.9,468.4,1217.3,476.3,1222.1,479.6L1222.1,479.6z"/>
	</g>
</g>
<g>
	<g>
		<path class="st1" d="M1190.9,427.5c4.7,6.4,9.3,12.8,14,19.2c3.4,4.7,11.3,0.1,7.8-4.6c-4.7-6.4-9.3-12.8-14-19.2
			C1195.3,418.2,1187.4,422.8,1190.9,427.5L1190.9,427.5z"/>
	</g>
</g>
<g>
	<g>
		<path class="st1" d="M1147.6,382.6c2,4.4,5.8,7.2,9.7,10c4.6,3.3,8.3,7.1,11.1,12.1c2.9,5.1,10.8,0.5,7.8-4.6
			c-2.7-4.7-6.1-8.9-10.3-12.3c-3.7-3-8.4-5.2-10.5-9.7C1153.1,372.7,1145.2,377.3,1147.6,382.6L1147.6,382.6z"/>
	</g>
</g>
<g>
	<g>
		<path class="st1" d="M1114.6,353.9c6,5.7,12.5,11,19.2,15.9c4.8,3.4,9.3-4.5,4.6-7.8c-6.1-4.4-11.9-9.3-17.4-14.5
			C1116.7,343.4,1110.3,349.9,1114.6,353.9L1114.6,353.9z"/>
	</g>
</g>
<g>
	<g>
		<path class="st1" d="M1147.8,354.6c6.1,1.4,11.2,4.7,14.5,10c3.1,4.9,11,0.4,7.8-4.6c-4.6-7.2-11.6-12.3-20-14.2
			C1144.5,344.5,1142.1,353.3,1147.8,354.6L1147.8,354.6z"/>
	</g>
</g>
<g>
	<g>
		<path class="st1" d="M1181.3,392.1c7.1,4.2,13.3,9.6,18.7,15.9c3.8,4.5,10.2-2,6.4-6.4c-5.8-6.9-12.8-12.7-20.6-17.3
			C1180.9,381.3,1176.3,389.1,1181.3,392.1L1181.3,392.1z"/>
	</g>
</g>
<g>
	<g>
		<path class="st1" d="M1217.3,438.3c4,5.9,8,11.8,12.1,17.7c3.3,4.8,11.2,0.3,7.8-4.6c-4-5.9-8-11.8-12.1-17.7
			C1221.9,428.9,1214,433.5,1217.3,438.3L1217.3,438.3z"/>
	</g>
</g>
<g>
	<g>
		<path class="st1" d="M1252.8,489.2c3.8,8.8,7.6,17.7,11.3,26.5c2.3,5.4,10.1,0.7,7.8-4.6c-3.8-8.8-7.6-17.7-11.3-26.5
			C1258.3,479.3,1250.5,483.9,1252.8,489.2L1252.8,489.2z"/>
	</g>
</g>
<g>
	<g>
		<path class="st1" d="M1274.5,551.8c2.2,7.3,4.4,14.5,6.6,21.8c1.7,5.6,10.5,3.2,8.8-2.4c-2.2-7.3-4.4-14.5-6.6-21.8
			C1281.6,543.8,1272.8,546.2,1274.5,551.8L1274.5,551.8z"/>
	</g>
</g>
<g>
	<g>
		<path class="st1" d="M1295.2,607.1c0.7,8.5,1.4,17.1,2,25.6c0.5,5.8,9.6,5.8,9.1,0c-0.7-8.5-1.4-17.1-2-25.6
			C1303.9,601.3,1294.8,601.2,1295.2,607.1L1295.2,607.1z"/>
	</g>
</g>
<g>
	<g>
		<path class="st1" d="M1299.6,690.5c-0.3,8.7-1.3,17.3-3.2,25.8c-1.2,5.7,7.5,8.1,8.8,2.4c2-9.3,3.2-18.7,3.5-28.2
			C1308.9,684.6,1299.8,684.6,1299.6,690.5L1299.6,690.5z"/>
	</g>
</g>
<g>
	<g>
		<path class="st1" d="M1299.9,753.4c-2.4,9.5-4.1,19.2-5.2,29c-0.7,5.8,8.4,5.8,9.1,0c1-9,2.7-17.8,4.8-26.5
			C1310.1,750.2,1301.3,747.7,1299.9,753.4L1299.9,753.4z"/>
	</g>
</g>
<g>
	<g>
		<path class="st1" d="M1130,331.1c-2.5-2.8-4.5-5.9-6.1-9.2c-1.1-2.2-4.2-2.8-6.2-1.6c-2.2,1.3-2.7,4-1.6,6.2c2,4,4.6,7.7,7.5,11.1
			c1.6,1.8,4.8,1.7,6.4,0C1131.9,335.7,1131.7,333,1130,331.1L1130,331.1z"/>
	</g>
</g>
<g>
	<g>
		<path class="st1" d="M1130.6,318.2c6.9,6.1,14.3,11.3,22.4,15.6c5.2,2.8,9.8-5.1,4.6-7.8c-7.4-4-14.3-8.7-20.6-14.2
			C1132.7,307.9,1126.2,314.3,1130.6,318.2L1130.6,318.2z"/>
	</g>
</g>
<g>
	<g>
		<path class="st1" d="M1178.5,360.7c4.8,5.2,10.2,9.7,16.2,13.5c5,3.1,9.5-4.8,4.6-7.8c-5.4-3.3-10.1-7.4-14.3-12
			C1181,350,1174.5,356.4,1178.5,360.7L1178.5,360.7z"/>
	</g>
</g>
<g>
	<g>
		<path class="st1" d="M1213.2,401.2c4.6,4.7,8.3,10,11.1,15.9c2.5,5.3,10.3,0.7,7.8-4.6c-3.1-6.6-7.4-12.6-12.5-17.8
			C1215.5,390.6,1209.1,397.1,1213.2,401.2L1213.2,401.2z"/>
	</g>
</g>
<g>
	<g>
		<path class="st1" d="M1244,446.8c4.4,5.2,7.9,11,10.6,17.3c2.3,5.4,10.2,0.7,7.8-4.6c-3-7-7.1-13.3-12-19.1
			C1246.6,435.9,1240.2,442.4,1244,446.8L1244,446.8z"/>
	</g>
</g>
<g>
	<g>
		<path class="st1" d="M1280.2,512.3c3.2,7.1,6.3,14.3,9.5,21.4c2.4,5.3,10.2,0.7,7.8-4.6c-3.2-7.1-6.3-14.3-9.5-21.4
			C1285.6,502.4,1277.8,507,1280.2,512.3L1280.2,512.3z"/>
	</g>
</g>
<g>
	<g>
		<path class="st1" d="M1300.9,564.8c4.2,5.8,7.4,12,9.4,18.9c1.6,5.6,10.4,3.2,8.8-2.4c-2.2-7.6-5.6-14.7-10.3-21.1
			C1305.4,555.5,1297.5,560,1300.9,564.8L1300.9,564.8z"/>
	</g>
</g>
<g>
	<g>
		<path class="st1" d="M1312.8,643.5c0.4,6.7,0.9,13.5,1.3,20.2c0.4,5.8,9.5,5.9,9.1,0c-0.4-6.7-0.9-13.5-1.3-20.2
			C1321.5,637.7,1312.4,637.7,1312.8,643.5L1312.8,643.5z"/>
	</g>
</g>
<g>
	<g>
		<path class="st1" d="M1127.6,294.7c2.6,1.6,5.2,3.3,7.9,4.9c2.1,1.3,5,0.4,6.2-1.6c1.3-2.2,0.5-4.9-1.6-6.2
			c-2.6-1.6-5.2-3.3-7.9-4.9c-2.1-1.3-5-0.4-6.2,1.6C1124.7,290.7,1125.5,293.4,1127.6,294.7L1127.6,294.7z"/>
	</g>
</g>
<g>
	<g>
		<path class="st1" d="M1155.2,318.3c5.8,3.8,11,8.3,15.6,13.5c3.9,4.4,10.3-2.1,6.4-6.4c-5.1-5.8-11-10.7-17.4-14.9
			C1154.8,307.3,1150.3,315.2,1155.2,318.3L1155.2,318.3z"/>
	</g>
</g>
<g>
	<g>
		<path class="st1" d="M1193.3,349c6.8,4.3,12.8,9.8,17.5,16.3c3.4,4.7,11.3,0.2,7.8-4.6c-5.7-7.9-12.6-14.4-20.8-19.6
			C1192.9,338,1188.3,345.9,1193.3,349L1193.3,349z"/>
	</g>
</g>
<g>
	<g>
		<path class="st1" d="M1224.3,380.7c2.5,2.3,5,4.7,7.4,7c1.8,1.7,4.7,1.8,6.4,0c1.7-1.7,1.8-4.7,0-6.4c-2.5-2.3-5-4.7-7.4-7
			c-1.8-1.7-4.7-1.8-6.4,0C1222.6,375.9,1222.5,379,1224.3,380.7L1224.3,380.7z"/>
	</g>
</g>
<g>
	<g>
		<path class="st1" d="M1242.8,409.7c4.2,3.8,7.4,8.2,9.8,13.2c2.5,5.3,10.4,0.7,7.8-4.6c-2.7-5.7-6.5-10.8-11.2-15.1
			C1244.9,399.4,1238.5,405.8,1242.8,409.7L1242.8,409.7z"/>
	</g>
</g>
<g>
	<g>
		<path class="st1" d="M1270.4,455.3c4.2,7.1,7.9,14.4,11.2,22c2.3,5.4,10.1,0.7,7.8-4.6c-3.2-7.6-7-14.9-11.2-22
			C1275.3,445.6,1267.4,450.2,1270.4,455.3L1270.4,455.3z"/>
	</g>
</g>
<g>
	<g>
		<path class="st1" d="M1301.9,514.4c5.1,6.7,10.3,13.4,15.4,20.2c3.5,4.6,11.4,0.1,7.8-4.6c-5.1-6.7-10.3-13.4-15.4-20.2
			C1306.2,505.2,1298.3,509.7,1301.9,514.4L1301.9,514.4z"/>
	</g>
</g>
<g>
	<g>
		<path class="st1" d="M1327.9,570.5c0.5,10.6,2.4,20.9,5.8,30.9c1.9,5.5,10.7,3.1,8.8-2.4c-3.2-9.3-5-18.7-5.5-28.5
			C1336.7,564.6,1327.6,564.6,1327.9,570.5L1327.9,570.5z"/>
	</g>
</g>
<g>
	<g>
		<path class="st1" d="M1332.1,621.9c1.2,6.2,2.5,12.4,3.7,18.5c1.1,5.7,9.9,3.3,8.8-2.4c-1.2-6.2-2.5-12.4-3.7-18.5
			C1339.8,613.7,1331,616.2,1332.1,621.9L1332.1,621.9z"/>
	</g>
</g>
<g>
	<g>
		<path class="st1" d="M1333.6,667.5c-0.7,10.9-1.4,21.8-2,32.7c-0.4,5.8,8.7,5.8,9.1,0c0.7-10.9,1.4-21.8,2-32.7
			C1343.1,661.6,1334,661.7,1333.6,667.5L1333.6,667.5z"/>
	</g>
</g>
<g>
	<g>
		<path class="st1" d="M1326.5,724.5c-1.6,8.1-3.2,16.3-4.8,24.4c-1.1,5.7,7.6,8.2,8.8,2.4c1.6-8.1,3.2-16.3,4.8-24.4
			C1336.4,721.2,1327.6,718.7,1326.5,724.5L1326.5,724.5z"/>
	</g>
</g>
<g>
	<g>
		<path class="st1" d="M1319.3,782.6c-2.4,6.2-3.8,12.5-4.6,19.1c-0.7,5.8,8.4,5.7,9.1,0c0.7-5.7,2.2-11.3,4.3-16.7
			C1330.2,779.6,1321.4,777.2,1319.3,782.6L1319.3,782.6z"/>
	</g>
</g>
<g>
	<g>
		<path class="st1" d="M1340.4,757.1c-0.4,8-1.1,15.9-2.3,23.8c-0.9,5.7,7.9,8.2,8.8,2.4c1.3-8.7,2.2-17.4,2.6-26.2
			C1349.8,751.2,1340.7,751.2,1340.4,757.1L1340.4,757.1z"/>
	</g>
</g>
<g>
	<g>
		<path class="st1" d="M1352.4,693.3c0.1,11,0.3,22.1,0.4,33.1c0.1,5.8,9.2,5.9,9.1,0c-0.1-11-0.3-22.1-0.4-33.1
			C1361.4,687.5,1352.3,687.5,1352.4,693.3L1352.4,693.3z"/>
	</g>
</g>
<g>
	<g>
		<path class="st1" d="M1358.9,638.2c-1.5,7.7-1.9,15.3-1.1,23.1c0.6,5.8,9.7,5.8,9.1,0c-0.8-6.9-0.6-13.8,0.7-20.7
			C1368.8,634.9,1360,632.4,1358.9,638.2L1358.9,638.2z"/>
	</g>
</g>
<g>
	<g>
		<path class="st1" d="M1352.6,591c3.3,5.7,4.9,11.7,5,18.3c0.1,5.8,9.1,5.9,9.1,0c-0.1-8.1-2.2-15.8-6.2-22.9
			C1357.5,581.3,1349.7,585.9,1352.6,591L1352.6,591z"/>
	</g>
</g>
<g>
	<g>
		<path class="st1" d="M1336.4,534.6c4.5,6.6,7.4,13.6,9,21.4c1.1,5.7,9.9,3.3,8.8-2.4c-1.7-8.5-5-16.5-9.9-23.6
			C1341,525.2,1333.1,529.7,1336.4,534.6L1336.4,534.6z"/>
	</g>
</g>
<g>
	<g>
		<path class="st1" d="M1303.2,481.9c6.7,6.2,12.3,13.3,16.7,21.3c2.8,5.1,10.7,0.5,7.8-4.6c-4.8-8.6-10.9-16.4-18.2-23.2
			C1305.3,471.5,1298.9,477.9,1303.2,481.9L1303.2,481.9z"/>
	</g>
</g>
<g>
	<g>
		<path class="st1" d="M1290.3,430.7c-4.8-8.4-10.3-16.2-16.4-23.6c-3.7-4.5-10.1,1.9-6.4,6.4c5.6,6.8,10.6,14.1,15,21.8
			C1285.4,440.3,1293.3,435.8,1290.3,430.7L1290.3,430.7z"/>
	</g>
</g>
<g>
	<g>
		<path class="st1" d="M1295.9,449.2c1.6,3.3,3.1,6.5,4.7,9.8c1.1,2.2,4.2,2.8,6.2,1.6c2.3-1.3,2.7-4,1.6-6.2
			c-1.6-3.3-3.1-6.5-4.7-9.8c-1.1-2.2-4.2-2.8-6.2-1.6C1295.3,444.3,1294.9,447,1295.9,449.2L1295.9,449.2z"/>
	</g>
</g>
<g>
	<g>
		<path class="st1" d="M1326.8,484.1c8.6,7.1,15.8,15.4,21.4,25.1c2.9,5.1,10.8,0.5,7.8-4.6c-6-10.3-13.6-19.4-22.8-27
			C1328.7,473.9,1322.2,480.3,1326.8,484.1L1326.8,484.1z"/>
	</g>
</g>
<g>
	<g>
		<path class="st1" d="M1360,535.3c4.7,7.4,8.5,15.2,11.3,23.5c1.9,5.5,10.7,3.1,8.8-2.4c-3.1-9-7.2-17.6-12.3-25.7
			C1364.7,525.8,1356.8,530.4,1360,535.3L1360,535.3z"/>
	</g>
</g>
<g>
	<g>
		<path class="st1" d="M1377.7,604.5c-1.1,8.8-1.3,17.5-0.6,26.3c0.4,5.8,9.5,5.8,9.1,0c-0.6-8.8-0.4-17.6,0.6-26.3
			C1387.5,598.7,1378.4,598.8,1377.7,604.5L1377.7,604.5z"/>
	</g>
</g>
<g>
	<g>
		<path class="st1" d="M1380.6,668c-0.8,8.3-1.5,16.6-2.3,24.9c-0.5,5.8,8.6,5.8,9.1,0c0.8-8.3,1.5-16.6,2.3-24.9
			C1390.3,662.2,1381.2,662.2,1380.6,668L1380.6,668z"/>
	</g>
</g>
<g>
	<g>
		<path class="st1" d="M1375.5,727.5c-1.8,9.2-3.6,18.4-5.5,27.6c-1.1,5.7,7.6,8.2,8.8,2.4c1.8-9.2,3.6-18.4,5.5-27.6
			C1385.4,724.2,1376.7,721.8,1375.5,727.5L1375.5,727.5z"/>
	</g>
</g>
<g>
	<g>
		<path class="st1" d="M1364.6,782.9c-0.6,5.4-2,10.6-4,15.7c-2.1,5.5,6.7,7.8,8.8,2.4c2.3-5.9,3.6-11.8,4.3-18.1
			C1374.3,777.1,1365.2,777.1,1364.6,782.9L1364.6,782.9z"/>
	</g>
</g>
<g>
	<g>
		<path class="st1" d="M1395.9,753.5c-3.6,7.3-6.3,14.9-8,22.8c-1.2,5.7,7.6,8.1,8.8,2.4c1.5-7.2,3.8-14.1,7-20.6
			C1406.4,752.9,1398.5,748.3,1395.9,753.5L1395.9,753.5z"/>
	</g>
</g>
<g>
	<g>
		<path class="st1" d="M1396.3,700.9c-0.5,7.6-0.9,15.3-1.4,22.9c-0.4,5.8,8.7,5.8,9.1,0c0.5-7.6,0.9-15.3,1.4-22.9
			C1405.8,695,1396.7,695,1396.3,700.9L1396.3,700.9z"/>
	</g>
</g>
<g>
	<g>
		<path class="st1" d="M1392.4,576.7c2.8,7.7,4.2,15.6,4.1,23.8c-0.1,5.9,9,5.9,9.1,0c0.1-9-1.3-17.8-4.4-26.2
			C1399.2,568.8,1390.5,571.1,1392.4,576.7L1392.4,576.7z"/>
	</g>
</g>
<g>
	<g>
		<path class="st1" d="M1384.3,542.5c1.8,2.1,2.9,4.8,3.2,7.6c0.2,2.4,2,4.5,4.5,4.5c2.3,0,4.7-2.1,4.5-4.5c-0.4-5.3-2.3-10-5.8-14
			c-1.6-1.9-4.8-1.6-6.4,0C1382.5,538,1382.7,540.7,1384.3,542.5L1384.3,542.5z"/>
	</g>
</g>
<g>
	<g>
		<path class="st1" d="M1376.3,578.7c-0.2,1.1-0.4,2.1-0.6,3.2c-0.2,1.2-0.2,2.4,0.5,3.5c0.6,0.9,1.6,1.8,2.7,2.1
			c2.3,0.5,5.1-0.7,5.6-3.2c0.2-1.1,0.4-2.1,0.6-3.2c0.2-1.2,0.2-2.4-0.5-3.5c-0.6-0.9-1.6-1.8-2.7-2.1
			C1379.6,575,1376.8,576.2,1376.3,578.7L1376.3,578.7z"/>
	</g>
</g>
<g>
	<g>
		<path class="st1" d="M1158.9,1143.6c-1,9.1-2,18.2-3,27.2c-0.6,5.8,8.5,5.8,9.1,0c1-9.1,2-18.2,3-27.2
			C1168.6,1137.8,1159.5,1137.8,1158.9,1143.6L1158.9,1143.6z"/>
	</g>
</g>
<g>
	<g>
		<path class="st1" d="M977.1,1155.7c-0.2,5.1-0.4,10.3-0.6,15.4c-0.2,4.4,6.6,4.4,6.8,0c0.2-5.1,0.4-10.3,0.6-15.4
			C984.1,1151.4,977.3,1151.4,977.1,1155.7L977.1,1155.7z"/>
	</g>
</g>
<path class="st2" d="M577,438.1c-58.3-7.9-74.6-164.8-66.9-166.5c7.7-1.8,129.4-43.1,193.4,45.1C604.8,364,594.2,416.9,577,438.1z"
	/>
<path class="st2" d="M1101.3,345.8c52.1-27.3,13.8-180.3,6-179.4c-7.9,1-136.4,3.6-166.4,108.4
	C1049.9,285.7,1077.9,331.7,1101.3,345.8z"/>
<path class="st3" d="M577.8,404.5c-39.4-5.3-50.5-111.5-45.2-112.7c5.2-1.2,87.6-29.2,130.9,30.5
	C596.6,354.4,589.4,390.1,577.8,404.5z"/>
<path class="st3" d="M1087.5,312.2c35.3-18.5,9.4-122,4-121.4c-5.3,0.7-92.3,2.5-112.6,73.4C1052.7,271.5,1071.6,302.7,1087.5,312.2
	z"/>
<path class="st4" d="M1237,594.2c54,335.1-223.3,407.5-301.9,421.4c-261.8,46.1-369.9-129.4-393.9-266
	c-22.2-125.9,77.5-383.8,204.4-410.1c60.4-12.4,79.2,21.6,90.9,29.3c3.9-11.3,14.3-48.1,79.2-58.4
	C1021.1,288.5,1210.2,427.9,1237,594.2z"/>
<path class="st2" d="M646.3,681.7c0.2,12.8-9.9,23.3-22.6,23.5c-12.7,0.2-23.3-9.9-23.5-22.6c-0.3-12.7,9.9-23.3,22.6-23.5
	C635.5,658.9,646,669,646.3,681.7z"/>
<path class="st2" d="M1171.3,600.1c0.2,10.7-8.3,19.5-19,19.7c-10.7,0.2-19.5-8.3-19.7-19c-0.2-10.7,8.3-19.5,19-19.7
	C1162.3,580.9,1171.1,589.4,1171.3,600.1z"/>
<path class="st5" d="M801.3,535.6c8.4,47.9-22.2,93.3-68.3,101.5c-46.1,8.1-90.4-24.1-98.8-72.1c-8.4-47.9,22.2-93.3,68.3-101.5
	C748.6,455.4,792.8,487.7,801.3,535.6z"/>
<path class="st4" d="M759.7,540.1c4.1,23.4-11,45.7-33.8,49.7c-22.8,4-44.6-11.7-48.8-35.2c-4.1-23.4,11-45.7,33.8-49.7
	C733.7,501,755.5,516.7,759.7,540.1z"/>
<path class="st5" d="M737.5,541.1c1.9,10.7-5,20.8-15.4,22.6c-10.4,1.8-20.3-5.3-22.2-16c-1.9-10.7,5-20.8,15.4-22.6
	C725.6,523.3,735.6,530.4,737.5,541.1z"/>
<path class="st5" d="M714.7,573.2c0.8,4.4-2.1,8.5-6.3,9.3c-4.2,0.7-8.3-2.2-9.1-6.6c-0.8-4.4,2.1-8.5,6.3-9.3
	C709.8,565.9,713.9,568.8,714.7,573.2z"/>
<g>
	<path class="st6" d="M651.7,454.1c-3.5-5.8-1.4-10.8,2.7-12.4c4.1-1.6,8.6-0.1,10.5,5.1c1.8,4.9,1.5,11.5-0.2,17.8
		C664.7,464.5,654.8,459.3,651.7,454.1z"/>
	<path class="st6" d="M682.7,440.2c-2.4-6.3,0.6-10.9,4.9-11.7c4.3-0.8,8.4,1.5,9.4,6.9c0.9,5.2-0.6,11.6-3.4,17.4
		C693.6,452.8,684.8,445.9,682.7,440.2z"/>
	<path class="st6" d="M716.5,434.8c-0.7-6.7,3.5-10.3,7.9-10c4.4,0.4,7.7,3.7,7.2,9.1c-0.5,5.2-3.6,11-7.9,15.9
		C723.7,449.8,717.1,440.7,716.5,434.8z"/>
</g>
<path class="st5" d="M970.8,534.3c8.1,46.1,50.7,77.2,95.1,69.3c44.4-7.8,73.8-51.6,65.7-97.7c-8.1-46.1-50.7-77.1-95.1-69.3
	C992.2,444.5,962.7,488.2,970.8,534.3z"/>
<path class="st4" d="M1010,524.7c4,22.6,25,37.7,46.9,33.8c21.9-3.9,36.5-25.3,32.6-47.8c-4-22.5-25-37.7-46.9-33.8
	C1020.6,480.8,1006,502.2,1010,524.7z"/>
<path class="st5" d="M1030.4,518.3c1.8,10.3,11.4,17.2,21.4,15.4c10-1.8,16.6-11.5,14.8-21.8c-1.8-10.3-11.4-17.2-21.4-15.4
	C1035.2,498.3,1028.6,508,1030.4,518.3z"/>
<path class="st5" d="M1061.5,539.8c0.7,4.2,4.7,7,8.8,6.3c4.1-0.7,6.8-4.7,6.1-8.9c-0.7-4.2-4.7-7-8.8-6.3
	C1063.5,531.6,1060.8,535.6,1061.5,539.8z"/>
<g>
	<path class="st6" d="M1079.4,411.4c1.3-6.4-2.3-10.2-6.5-10.3c-4.2-0.1-7.8,2.7-7.8,8c0,5.1,2.4,10.9,6,16
		C1071,425.2,1078.3,417.1,1079.4,411.4z"/>
	<path class="st6" d="M1046.8,409.1c0.1-6.5-4.1-9.6-8.3-9c-4.2,0.7-7.2,4.1-6.3,9.3c0.9,5,4.3,10.3,8.8,14.6
		C1041,424.1,1046.7,414.9,1046.8,409.1z"/>
	<path class="st6" d="M1014.4,415.2c-1.6-6.3-6.5-8.2-10.4-6.4c-3.8,1.8-5.8,5.9-3.5,10.6c2.2,4.6,6.9,8.7,12.4,11.8
		C1012.8,431.2,1015.8,420.8,1014.4,415.2z"/>
</g>
<path class="st3" d="M933.3,703.8c8,38.8-13.8,62.4-39.6,63.1c-25.7,0.7-47.7-16.5-48.1-48.7c-0.4-31,14.2-66.6,36.2-97.9
	C881.8,620.3,926.1,669.1,933.3,703.8z"/>
<path class="st5" d="M1160.1,670.4c44.1,29,23.1,233.6-215.9,285.3c-222.4,48.1-358-146.2-332.8-192.6
	c43.5-80.2,158.5,75.8,300.6,41.4C1042.6,772.8,1110.3,637.6,1160.1,670.4z"/>
<path class="st4" d="M879.7,823.2c3.9,2.7,28.1,46.6,28.1,46.6s6.9-43.7,8.5-53.1C910.6,815.5,891.5,817.2,879.7,823.2z"/>
<path class="st7" d="M719.2,289.1c22.7,22.4,143.7,24.8,184.7-27.4c6.9-34.8,38.5-254.1,38.5-254.1L887,82.9L843.8,4l-47.4,84.5
	l-83.1-62.5l-22.1,85.6l-72.8-60.1C618.4,51.6,710.5,268.9,719.2,289.1z"/>
<ellipse transform="matrix(0.1939 -0.981 0.981 0.1939 502.2414 688.1984)" class="st7" cx="669.9" cy="38.5" rx="15.9" ry="16"/>
<ellipse transform="matrix(0.1939 -0.981 0.981 0.1939 603.247 789.1188)" class="st7" cx="781.8" cy="27.5" rx="15.9" ry="16"/>
<ellipse transform="matrix(0.1939 -0.981 0.981 0.1939 700.6054 890.9211)" class="st7" cx="892.4" cy="19.2" rx="15.9" ry="16"/>
<path class="st8" d="M724.6,70l2,34c-0.1,1.5,0,3,0.4,4.4l40.5,159.1c0.7,2.6,1.9,5,3.6,7l10.5,17.5l-1.8-27.6L739.4,99.9L724.6,70z
	"/>
<path class="st8" d="M844.2,52.6L839,86.2c-0.4,1.4-0.6,2.9-0.6,4.4l5.9,164.1c0.1,2.7,0.8,5.3,2,7.6l6.6,19.4l4-27.3l-4.6-169.4
	L844.2,52.6z"/>
<path class="st8" d="M795.8,99.6l-0.5,28.8c-0.1,1.3-0.1,2.5,0,3.7l16.2,133.5c0.3,2.2,0.9,4.2,1.8,5.8l5.5,14.4l0.3-23.4
	l-15.9-138.2L795.8,99.6z"/>
<path class="st8" d="M886.2,93l-4.3,26c-0.3,1.1-0.4,2.3-0.5,3.4l-4.8,121.9c-0.1,2,0.2,3.8,0.7,5.4l2.5,13.5l3.4-21.1l5.7-126.1
	L886.2,93z"/>
<path class="st8" d="M693.7,120.1l4.9,27.3c0.1,1.2,0.4,2.4,0.7,3.5l38.4,122.5c0.6,2,1.5,3.7,2.6,5.1l7.2,12.5l-4.1-22.1l-38.9-127
	L693.7,120.1z"/>
<path class="st9" d="M925.8,116.8c0,0-15.6,110.8-22,144.8c-7.8,24.2-128.1,70.4-184.7,27.4C929.5,273.4,925.8,116.8,925.8,116.8z"
	/>
</svg>
